<?xml version="1.0" encoding="utf-8" standalone="no"?>
<!DOCTYPE svg PUBLIC "-//W3C//DTD SVG 1.1//EN"
  "http://www.w3.org/Graphics/SVG/1.1/DTD/svg11.dtd">
<!-- Created with matplotlib (http://matplotlib.org/) -->
<svg height="432pt" version="1.1" viewBox="0 0 576 432" width="576pt" xmlns="http://www.w3.org/2000/svg" xmlns:xlink="http://www.w3.org/1999/xlink">
 <defs>
  <style type="text/css">
*{stroke-linecap:butt;stroke-linejoin:round;}
  </style>
 </defs>
 <g id="figure_1">
  <g id="patch_1">
   <path d="
M0 432
L576 432
L576 0
L0 0
z
" style="fill:#ffffff;"/>
  </g>
  <g id="axes_1">
   <g id="patch_2">
    <path d="
M72 144.847
L274.909 144.847
L274.909 43.2
L72 43.2
z
" style="fill:#ffffff;"/>
   </g>
   <g id="line2d_1">
    <path clip-path="url(#pdf2bc2c95a)" d="
M72 126.696
L72.4058 126.556
L77.1945 124.275
L80.2381 123.172
L83.6064 122.192
L87.4211 121.319
L91.8039 120.551
L96.8767 119.894
L102.883 119.347
L110.066 118.924
L119.034 118.628
L131.168 118.465
L151.459 118.446
L244.067 118.535
L274.869 118.475
L274.869 118.475" style="fill:none;stroke:#0000ff;stroke-linecap:square;"/>
   </g>
   <g id="patch_3">
    <path d="
M72 43.2
L274.909 43.2" style="fill:none;stroke:#000000;stroke-linecap:square;stroke-linejoin:miter;"/>
   </g>
   <g id="patch_4">
    <path d="
M274.909 144.847
L274.909 43.2" style="fill:none;stroke:#000000;stroke-linecap:square;stroke-linejoin:miter;"/>
   </g>
   <g id="patch_5">
    <path d="
M72 144.847
L274.909 144.847" style="fill:none;stroke:#000000;stroke-linecap:square;stroke-linejoin:miter;"/>
   </g>
   <g id="patch_6">
    <path d="
M72 144.847
L72 43.2" style="fill:none;stroke:#000000;stroke-linecap:square;stroke-linejoin:miter;"/>
   </g>
   <g id="matplotlib.axis_1"/>
   <g id="matplotlib.axis_2">
    <g id="ytick_1">
     <g id="line2d_2">
      <defs>
       <path d="
M0 0
L4 0" id="m728421d6d4" style="stroke:#000000;stroke-width:0.5;"/>
      </defs>
      <g>
       <use style="stroke:#000000;stroke-width:0.5;" x="72.0" xlink:href="#m728421d6d4" y="130.32605042"/>
      </g>
     </g>
     <g id="line2d_3">
      <defs>
       <path d="
M0 0
L-4 0" id="mcb0005524f" style="stroke:#000000;stroke-width:0.5;"/>
      </defs>
      <g>
       <use style="stroke:#000000;stroke-width:0.5;" x="274.909090909" xlink:href="#mcb0005524f" y="130.32605042"/>
      </g>
     </g>
     <g id="text_1">
      <!-- −60 -->
      <defs>
       <path d="
M10.5938 35.5
L73.1875 35.5
L73.1875 27.2031
L10.5938 27.2031
z
" id="BitstreamVeraSans-Roman-2212"/>
       <path d="
M31.7812 66.4062
Q24.1719 66.4062 20.3281 58.9062
Q16.5 51.4219 16.5 36.375
Q16.5 21.3906 20.3281 13.8906
Q24.1719 6.39062 31.7812 6.39062
Q39.4531 6.39062 43.2812 13.8906
Q47.125 21.3906 47.125 36.375
Q47.125 51.4219 43.2812 58.9062
Q39.4531 66.4062 31.7812 66.4062
M31.7812 74.2188
Q44.0469 74.2188 50.5156 64.5156
Q56.9844 54.8281 56.9844 36.375
Q56.9844 17.9688 50.5156 8.26562
Q44.0469 -1.42188 31.7812 -1.42188
Q19.5312 -1.42188 13.0625 8.26562
Q6.59375 17.9688 6.59375 36.375
Q6.59375 54.8281 13.0625 64.5156
Q19.5312 74.2188 31.7812 74.2188" id="BitstreamVeraSans-Roman-30"/>
       <path d="
M33.0156 40.375
Q26.375 40.375 22.4844 35.8281
Q18.6094 31.2969 18.6094 23.3906
Q18.6094 15.5312 22.4844 10.9531
Q26.375 6.39062 33.0156 6.39062
Q39.6562 6.39062 43.5312 10.9531
Q47.4062 15.5312 47.4062 23.3906
Q47.4062 31.2969 43.5312 35.8281
Q39.6562 40.375 33.0156 40.375
M52.5938 71.2969
L52.5938 62.3125
Q48.875 64.0625 45.0938 64.9844
Q41.3125 65.9219 37.5938 65.9219
Q27.8281 65.9219 22.6719 59.3281
Q17.5312 52.7344 16.7969 39.4062
Q19.6719 43.6562 24.0156 45.9219
Q28.375 48.1875 33.5938 48.1875
Q44.5781 48.1875 50.9531 41.5156
Q57.3281 34.8594 57.3281 23.3906
Q57.3281 12.1562 50.6875 5.35938
Q44.0469 -1.42188 33.0156 -1.42188
Q20.3594 -1.42188 13.6719 8.26562
Q6.98438 17.9688 6.98438 36.375
Q6.98438 53.6562 15.1875 63.9375
Q23.3906 74.2188 37.2031 74.2188
Q40.9219 74.2188 44.7031 73.4844
Q48.4844 72.75 52.5938 71.2969" id="BitstreamVeraSans-Roman-36"/>
      </defs>
      <g transform="translate(44.7425 133.63730042)scale(0.12 -0.12)">
       <use xlink:href="#BitstreamVeraSans-Roman-2212"/>
       <use x="83.7890625" xlink:href="#BitstreamVeraSans-Roman-36"/>
       <use x="147.412109375" xlink:href="#BitstreamVeraSans-Roman-30"/>
      </g>
     </g>
    </g>
    <g id="ytick_2">
     <g id="line2d_4">
      <g>
       <use style="stroke:#000000;stroke-width:0.5;" x="72.0" xlink:href="#m728421d6d4" y="86.7630252101"/>
      </g>
     </g>
     <g id="line2d_5">
      <g>
       <use style="stroke:#000000;stroke-width:0.5;" x="274.909090909" xlink:href="#mcb0005524f" y="86.7630252101"/>
      </g>
     </g>
     <g id="text_2">
      <!-- 0 -->
      <g transform="translate(61.953125 90.0742752101)scale(0.12 -0.12)">
       <use xlink:href="#BitstreamVeraSans-Roman-30"/>
      </g>
     </g>
    </g>
   </g>
   <g id="text_3">
    <!-- soma -->
    <defs>
     <path d="
M51.125 52.9844
L51.125 39.7031
Q45.5156 42.0469 40.2812 43.2188
Q35.0625 44.3906 30.4219 44.3906
Q25.4375 44.3906 23.0156 43.1406
Q20.6094 41.8906 20.6094 39.3125
Q20.6094 37.2031 22.4375 36.0781
Q24.2656 34.9688 29 34.4219
L32.0781 33.9844
Q45.5156 32.2812 50.1406 28.375
Q54.7812 24.4688 54.7812 16.1094
Q54.7812 7.375 48.3281 2.96875
Q41.8906 -1.42188 29.1094 -1.42188
Q23.6875 -1.42188 17.8906 -0.5625
Q12.1094 0.296875 6 2
L6 15.2812
Q11.2344 12.75 16.7188 11.4688
Q22.2188 10.2031 27.875 10.2031
Q33.0156 10.2031 35.5938 11.6094
Q38.1875 13.0312 38.1875 15.8281
Q38.1875 18.1719 36.4062 19.3125
Q34.625 20.4531 29.2969 21.0938
L26.2188 21.4844
Q14.5469 22.9531 9.85938 26.9062
Q5.17188 30.8594 5.17188 38.9219
Q5.17188 47.6094 11.125 51.7969
Q17.0938 56 29.3906 56
Q34.2344 56 39.5469 55.2656
Q44.875 54.5469 51.125 52.9844" id="BitstreamVeraSans-Bold-73"/>
     <path d="
M32.9062 24.6094
Q27.4375 24.6094 24.6719 22.75
Q21.9219 20.9062 21.9219 17.2812
Q21.9219 13.9688 24.1406 12.0781
Q26.375 10.2031 30.3281 10.2031
Q35.25 10.2031 38.625 13.7344
Q42 17.2812 42 22.6094
L42 24.6094
z

M59.625 31.2031
L59.625 0
L42 0
L42 8.10938
Q38.4844 3.125 34.0781 0.84375
Q29.6875 -1.42188 23.3906 -1.42188
Q14.8906 -1.42188 9.59375 3.53125
Q4.29688 8.5 4.29688 16.4062
Q4.29688 26.0312 10.9062 30.5156
Q17.5312 35.0156 31.6875 35.0156
L42 35.0156
L42 36.375
Q42 40.5312 38.7188 42.4531
Q35.4531 44.3906 28.5156 44.3906
Q22.9062 44.3906 18.0625 43.2656
Q13.2344 42.1406 9.07812 39.8906
L9.07812 53.2188
Q14.7031 54.5938 20.3594 55.2969
Q26.0312 56 31.6875 56
Q46.4844 56 53.0469 50.1719
Q59.625 44.3438 59.625 31.2031" id="BitstreamVeraSans-Bold-61"/>
     <path d="
M34.4219 43.5
Q28.6094 43.5 25.5625 39.3281
Q22.5156 35.1562 22.5156 27.2969
Q22.5156 19.4375 25.5625 15.25
Q28.6094 11.0781 34.4219 11.0781
Q40.1406 11.0781 43.1562 15.25
Q46.1875 19.4375 46.1875 27.2969
Q46.1875 35.1562 43.1562 39.3281
Q40.1406 43.5 34.4219 43.5
M34.4219 56
Q48.5312 56 56.4688 48.375
Q64.4062 40.7656 64.4062 27.2969
Q64.4062 13.8125 56.4688 6.1875
Q48.5312 -1.42188 34.4219 -1.42188
Q20.2656 -1.42188 12.2812 6.1875
Q4.29688 13.8125 4.29688 27.2969
Q4.29688 40.7656 12.2812 48.375
Q20.2656 56 34.4219 56" id="BitstreamVeraSans-Bold-6f"/>
     <path d="
M59.0781 45.6094
Q62.4062 50.6875 66.9688 53.3438
Q71.5312 56 77 56
Q86.4219 56 91.3594 50.1875
Q96.2969 44.3906 96.2969 33.2969
L96.2969 0
L78.7188 0
L78.7188 28.5156
Q78.7656 29.1562 78.7812 29.8281
Q78.8125 30.5156 78.8125 31.7812
Q78.8125 37.5938 77.0938 40.2031
Q75.3906 42.8281 71.5781 42.8281
Q66.6094 42.8281 63.8906 38.7188
Q61.1875 34.625 61.0781 26.8594
L61.0781 0
L43.5 0
L43.5 28.5156
Q43.5 37.5938 41.9375 40.2031
Q40.375 42.8281 36.375 42.8281
Q31.3438 42.8281 28.6094 38.7031
Q25.875 34.5781 25.875 26.9062
L25.875 0
L8.29688 0
L8.29688 54.6875
L25.875 54.6875
L25.875 46.6875
Q29.1094 51.3125 33.2812 53.6562
Q37.4531 56 42.4844 56
Q48.1406 56 52.4844 53.2656
Q56.8438 50.5312 59.0781 45.6094" id="BitstreamVeraSans-Bold-6d"/>
    </defs>
    <g transform="translate(152.799545455 38.2)scale(0.144 -0.144)">
     <use xlink:href="#BitstreamVeraSans-Bold-73"/>
     <use x="59.521484375" xlink:href="#BitstreamVeraSans-Bold-6f"/>
     <use x="128.22265625" xlink:href="#BitstreamVeraSans-Bold-6d"/>
     <use x="232.421875" xlink:href="#BitstreamVeraSans-Bold-61"/>
    </g>
   </g>
  </g>
  <g id="axes_2">
   <g id="patch_7">
    <path d="
M315.491 144.847
L518.4 144.847
L518.4 43.2
L315.491 43.2
z
" style="fill:#ffffff;"/>
   </g>
   <g id="line2d_6">
    <path clip-path="url(#pbd5a3a9a46)" d="
M315.491 126.696
L315.978 126.324
L317.763 125.397
L320.523 124.19
L323.567 123.103
L326.976 122.128
L330.831 121.262
L335.254 120.503
L340.408 119.852
L346.495 119.316
L353.8 118.903
L362.972 118.618
L375.471 118.468
L397.101 118.465
L480.456 118.566
L518.359 118.503
L518.359 118.503" style="fill:none;stroke:#0000ff;stroke-linecap:square;"/>
   </g>
   <g id="patch_8">
    <path d="
M315.491 43.2
L518.4 43.2" style="fill:none;stroke:#000000;stroke-linecap:square;stroke-linejoin:miter;"/>
   </g>
   <g id="patch_9">
    <path d="
M518.4 144.847
L518.4 43.2" style="fill:none;stroke:#000000;stroke-linecap:square;stroke-linejoin:miter;"/>
   </g>
   <g id="patch_10">
    <path d="
M315.491 144.847
L518.4 144.847" style="fill:none;stroke:#000000;stroke-linecap:square;stroke-linejoin:miter;"/>
   </g>
   <g id="patch_11">
    <path d="
M315.491 144.847
L315.491 43.2" style="fill:none;stroke:#000000;stroke-linecap:square;stroke-linejoin:miter;"/>
   </g>
   <g id="matplotlib.axis_3"/>
   <g id="matplotlib.axis_4">
    <g id="ytick_3">
     <g id="line2d_7">
      <g>
       <use style="stroke:#000000;stroke-width:0.5;" x="315.490909091" xlink:href="#m728421d6d4" y="130.32605042"/>
      </g>
     </g>
     <g id="line2d_8">
      <g>
       <use style="stroke:#000000;stroke-width:0.5;" x="518.4" xlink:href="#mcb0005524f" y="130.32605042"/>
      </g>
     </g>
     <g id="text_4">
      <!-- −60 -->
      <g transform="translate(288.233409091 133.63730042)scale(0.12 -0.12)">
       <use xlink:href="#BitstreamVeraSans-Roman-2212"/>
       <use x="83.7890625" xlink:href="#BitstreamVeraSans-Roman-36"/>
       <use x="147.412109375" xlink:href="#BitstreamVeraSans-Roman-30"/>
      </g>
     </g>
    </g>
    <g id="ytick_4">
     <g id="line2d_9">
      <g>
       <use style="stroke:#000000;stroke-width:0.5;" x="315.490909091" xlink:href="#m728421d6d4" y="86.7630252101"/>
      </g>
     </g>
     <g id="line2d_10">
      <g>
       <use style="stroke:#000000;stroke-width:0.5;" x="518.4" xlink:href="#mcb0005524f" y="86.7630252101"/>
      </g>
     </g>
     <g id="text_5">
      <!-- 0 -->
      <g transform="translate(305.444034091 90.0742752101)scale(0.12 -0.12)">
       <use xlink:href="#BitstreamVeraSans-Roman-30"/>
      </g>
     </g>
    </g>
   </g>
   <g id="text_6">
    <!-- axon -->
    <defs>
     <path d="
M22.2188 27.9844
L2.48438 54.6875
L21 54.6875
L32.1719 38.4844
L43.5 54.6875
L62.0156 54.6875
L42.2812 28.0781
L62.9844 0
L44.4844 0
L32.1719 17.2812
L20.0156 0
L1.51562 0
z
" id="BitstreamVeraSans-Bold-78"/>
     <path d="
M63.375 33.2969
L63.375 0
L45.7969 0
L45.7969 5.42188
L45.7969 25.4844
Q45.7969 32.5625 45.4844 35.25
Q45.1719 37.9375 44.3906 39.2031
Q43.3594 40.9219 41.5938 41.875
Q39.8438 42.8281 37.5938 42.8281
Q32.125 42.8281 29 38.5938
Q25.875 34.375 25.875 26.9062
L25.875 0
L8.40625 0
L8.40625 54.6875
L25.875 54.6875
L25.875 46.6875
Q29.8281 51.4688 34.2656 53.7344
Q38.7188 56 44.0938 56
Q53.5625 56 58.4688 50.1875
Q63.375 44.3906 63.375 33.2969" id="BitstreamVeraSans-Bold-6e"/>
    </defs>
    <g transform="translate(398.242329545 38.2)scale(0.144 -0.144)">
     <use xlink:href="#BitstreamVeraSans-Bold-61"/>
     <use x="67.48046875" xlink:href="#BitstreamVeraSans-Bold-78"/>
     <use x="131.982421875" xlink:href="#BitstreamVeraSans-Bold-6f"/>
     <use x="200.68359375" xlink:href="#BitstreamVeraSans-Bold-6e"/>
    </g>
   </g>
  </g>
  <g id="axes_3">
   <g id="patch_12">
    <path d="
M72 266.824
L274.909 266.824
L274.909 165.176
L72 165.176
z
" style="fill:#ffffff;"/>
   </g>
   <g id="line2d_11">
    <path clip-path="url(#p68273c1835)" d="
M72.0406 243.896
L75.2871 242.16
L76.951 241.031
L78.0873 240.007
L78.8989 238.983
L79.4671 237.896
L79.7917 236.855
L79.954 235.844
L79.9946 235.311
L80.1164 222.439
L80.3193 210.466
L80.3599 210.322
L80.441 211.778
L80.8874 229.733
L81.1715 231.993
L81.3338 232.217
L81.4556 232.036
L81.6991 231.024
L82.0643 228.398
L82.186 226.836
L82.4295 208.168
L82.4701 208.499
L82.7136 217.924
L83.0788 231.925
L83.3223 233.322
L83.5252 233.557
L83.6876 233.411
L83.9716 232.706
L84.7427 229.956
L84.8239 228.789
L85.0673 211.043
L85.1485 212.223
L85.3514 220.621
L85.6355 235.629
L85.9196 239.631
L86.2442 241.486
L86.5689 242.28
L86.9341 242.614
L87.8269 243.194
L88.3545 243.932
L89.1255 245.468
L92.8591 253.542
L93.7519 254.732
L94.5635 255.456
L95.3345 255.859
L96.1462 256.035
L97.039 255.998
L98.0941 255.72
L99.3927 255.137
L101.138 254.091
L104.019 252.063
L109.011 248.565
L112.054 246.724
L115.504 244.91
L120.901 242.097
L122.524 240.98
L123.661 239.937
L124.432 238.945
L124.959 237.935
L125.325 236.741
L125.487 235.557
L125.527 234.451
L125.811 210.673
L125.852 210.312
L125.893 210.508
L125.974 212.97
L126.298 228.096
L126.583 231.545
L126.785 232.209
L126.907 232.154
L127.07 231.688
L127.394 229.831
L127.678 227.164
L127.8 215.013
L127.962 208.268
L128.084 212.213
L128.652 232.492
L128.896 233.459
L129.058 233.55
L129.22 233.367
L129.504 232.626
L130.275 229.795
L130.316 229.346
L130.6 211.127
L130.722 214.473
L130.925 225.829
L131.168 236.179
L131.452 239.833
L131.777 241.573
L132.102 242.315
L132.467 242.627
L133.319 243.178
L133.847 243.906
L134.577 245.345
L136.444 249.731
L137.783 252.547
L138.757 254.118
L139.609 255.088
L140.38 255.652
L141.151 255.957
L142.004 256.05
L142.937 255.923
L144.073 255.537
L145.534 254.786
L147.563 253.471
L156.938 247.08
L160.225 245.304
L166.84 241.824
L168.341 240.723
L169.356 239.72
L170.086 238.695
L170.573 237.644
L170.857 236.587
L170.979 235.679
L171.02 234.921
L171.344 210.346
L171.385 210.414
L171.466 212.459
L171.831 228.7
L172.115 231.723
L172.318 232.226
L172.44 232.099
L172.643 231.372
L173.008 228.974
L173.17 227.322
L173.211 226.149
L173.455 208.19
L173.576 211.791
L174.144 232.419
L174.388 233.442
L174.55 233.552
L174.713 233.383
L174.997 232.656
L175.768 229.864
L175.808 229.5
L176.092 211.065
L176.174 212.678
L176.417 225.06
L176.661 235.968
L176.945 239.754
L177.269 241.538
L177.594 242.301
L177.959 242.622
L178.811 243.168
L179.339 243.891
L180.069 245.324
L181.855 249.523
L183.235 252.457
L184.209 254.052
L185.061 255.045
L185.832 255.628
L186.603 255.948
L187.455 256.054
L188.389 255.938
L189.525 255.561
L190.945 254.841
L192.934 253.564
L202.795 246.875
L206.163 245.083
L212.048 242.007
L213.631 240.895
L214.726 239.864
L215.497 238.838
L216.025 237.765
L216.35 236.607
L216.471 235.723
L216.512 235.041
L216.837 210.368
L216.877 210.386
L216.958 212.281
L217.323 228.636
L217.608 231.707
L217.81 232.229
L217.932 232.11
L218.135 231.392
L218.5 229.007
L218.703 226.427
L218.947 208.175
L219.028 209.987
L219.677 232.671
L219.921 233.495
L220.083 233.533
L220.286 233.228
L220.651 232.123
L221.301 229.551
L221.382 222.422
L221.585 211.054
L221.666 212.555
L221.909 224.737
L222.153 235.879
L222.437 239.72
L222.761 241.523
L223.086 242.295
L223.451 242.62
L224.304 243.164
L224.831 243.885
L225.562 245.317
L227.307 249.422
L228.727 252.453
L229.701 254.051
L230.553 255.046
L231.324 255.629
L232.095 255.951
L232.947 256.057
L233.881 255.942
L235.017 255.565
L236.438 254.846
L238.426 253.568
L248.287 246.877
L251.656 245.084
L257.54 242.007
L259.123 240.895
L260.218 239.863
L260.99 238.836
L261.517 237.761
L261.842 236.598
L261.963 235.701
L262.004 234.982
L262.329 210.357
L262.369 210.402
L262.45 212.376
L262.816 228.676
L263.1 231.721
L263.303 232.232
L263.424 232.109
L263.627 231.385
L263.993 228.993
L264.155 227.357
L264.195 226.324
L264.439 208.184
L264.52 210.053
L265.169 232.681
L265.413 233.496
L265.575 233.531
L265.778 233.223
L266.143 232.116
L266.793 229.532
L266.914 217.988
L267.077 211.063
L267.158 212.608
L267.401 224.868
L267.645 235.916
L267.929 239.733
L268.254 241.529
L268.578 242.297
L268.944 242.621
L269.796 243.167
L270.323 243.889
L271.054 245.322
L272.839 249.523
L274.219 252.46
L274.869 253.577
L274.869 253.577" style="fill:none;stroke:#0000ff;stroke-linecap:square;"/>
   </g>
   <g id="patch_13">
    <path d="
M72 165.176
L274.909 165.176" style="fill:none;stroke:#000000;stroke-linecap:square;stroke-linejoin:miter;"/>
   </g>
   <g id="patch_14">
    <path d="
M274.909 266.824
L274.909 165.176" style="fill:none;stroke:#000000;stroke-linecap:square;stroke-linejoin:miter;"/>
   </g>
   <g id="patch_15">
    <path d="
M72 266.824
L274.909 266.824" style="fill:none;stroke:#000000;stroke-linecap:square;stroke-linejoin:miter;"/>
   </g>
   <g id="patch_16">
    <path d="
M72 266.824
L72 165.176" style="fill:none;stroke:#000000;stroke-linecap:square;stroke-linejoin:miter;"/>
   </g>
   <g id="matplotlib.axis_5"/>
   <g id="matplotlib.axis_6">
    <g id="ytick_5">
     <g id="line2d_12">
      <g>
       <use style="stroke:#000000;stroke-width:0.5;" x="72.0" xlink:href="#m728421d6d4" y="252.302521008"/>
      </g>
     </g>
     <g id="line2d_13">
      <g>
       <use style="stroke:#000000;stroke-width:0.5;" x="274.909090909" xlink:href="#mcb0005524f" y="252.302521008"/>
      </g>
     </g>
     <g id="text_7">
      <!-- −60 -->
      <g transform="translate(44.7425 255.613771008)scale(0.12 -0.12)">
       <use xlink:href="#BitstreamVeraSans-Roman-2212"/>
       <use x="83.7890625" xlink:href="#BitstreamVeraSans-Roman-36"/>
       <use x="147.412109375" xlink:href="#BitstreamVeraSans-Roman-30"/>
      </g>
     </g>
    </g>
    <g id="ytick_6">
     <g id="line2d_14">
      <g>
       <use style="stroke:#000000;stroke-width:0.5;" x="72.0" xlink:href="#m728421d6d4" y="208.739495798"/>
      </g>
     </g>
     <g id="line2d_15">
      <g>
       <use style="stroke:#000000;stroke-width:0.5;" x="274.909090909" xlink:href="#mcb0005524f" y="208.739495798"/>
      </g>
     </g>
     <g id="text_8">
      <!-- 0 -->
      <g transform="translate(61.953125 212.050745798)scale(0.12 -0.12)">
       <use xlink:href="#BitstreamVeraSans-Roman-30"/>
      </g>
     </g>
    </g>
   </g>
  </g>
  <g id="axes_4">
   <g id="patch_17">
    <path d="
M315.491 266.824
L518.4 266.824
L518.4 165.176
L315.491 165.176
z
" style="fill:#ffffff;"/>
   </g>
   <g id="line2d_16">
    <path clip-path="url(#pf4132cbc21)" d="
M315.531 243.929
L318.737 242.263
L320.361 241.181
L321.456 240.196
L322.227 239.202
L322.755 238.148
L323.08 237.053
L323.283 235.756
L323.404 233.933
L323.486 227.877
L323.567 174.319
L323.607 176.596
L323.932 228.242
L324.094 257.154
L324.175 257.947
L324.216 257.844
L324.378 256.333
L324.865 248.852
L325.596 235.747
L325.636 233.868
L325.677 226.189
L325.718 173.128
L325.799 175.724
L326.002 199.14
L326.205 223.46
L326.367 261.378
L326.407 261.751
L326.489 261.53
L326.732 259.098
L327.26 251.028
L328.274 232.454
L328.355 173.317
L328.437 177.018
L328.802 221.771
L328.964 261.191
L329.045 261.935
L329.086 261.867
L329.289 260.56
L329.816 255.156
L330.547 248.332
L331.034 245.741
L331.44 244.668
L331.764 244.341
L332.048 244.341
L332.373 244.582
L332.86 245.267
L333.712 246.943
L336.269 252.18
L337.243 253.609
L338.095 254.482
L338.907 255.002
L339.718 255.261
L340.611 255.303
L341.626 255.119
L342.884 254.647
L344.507 253.781
L346.942 252.203
L353.597 247.79
L356.763 246.028
L361.145 243.88
L364.311 242.225
L365.934 241.131
L366.989 240.17
L367.72 239.227
L368.247 238.189
L368.613 236.936
L368.815 235.504
L368.937 233.157
L368.978 230.553
L369.059 174.295
L369.14 179.302
L369.668 257.931
L369.749 257.705
L369.992 254.926
L370.804 241.63
L371.129 234.755
L371.169 231.312
L371.25 173.425
L371.291 174.845
L371.453 191.639
L371.737 234.618
L371.9 261.677
L371.94 261.769
L371.94 261.769
L371.94 261.769
L372.062 261.03
L372.387 257.125
L373.685 236.512
L373.766 233.707
L373.807 227.04
L373.848 173.304
L373.929 175.865
L374.132 200.654
L374.335 230.344
L374.497 261.646
L374.537 261.919
L374.619 261.774
L374.862 259.993
L376.445 246.134
L376.851 244.851
L377.175 244.399
L377.459 244.317
L377.784 244.489
L378.23 245.045
L378.961 246.399
L382.167 252.809
L383.06 253.97
L383.871 254.69
L384.683 255.118
L385.495 255.301
L386.428 255.273
L387.524 255
L388.863 254.422
L390.689 253.369
L393.814 251.264
L398.44 248.194
L401.606 246.377
L405.38 244.49
L409.641 242.328
L411.305 241.234
L412.4 240.267
L413.171 239.306
L413.699 238.313
L414.064 237.166
L414.308 235.605
L414.429 233.49
L414.47 231.467
L414.592 174.89
L414.673 183.955
L415.16 257.902
L415.2 257.942
L415.322 257.087
L415.687 251.975
L416.621 235.191
L416.661 232.62
L416.743 173.246
L416.824 176.735
L417.189 218.596
L417.432 261.779
L417.514 261.436
L417.798 258.389
L418.406 248.721
L419.259 234.259
L419.299 230.301
L419.38 173.61
L419.421 175.256
L419.583 193.733
L419.867 246.613
L420.03 261.89
L420.07 261.933
L420.111 261.819
L420.314 260.441
L420.882 254.558
L421.572 248.234
L422.059 245.689
L422.465 244.647
L422.789 244.337
L423.073 244.35
L423.398 244.601
L423.885 245.295
L424.737 246.979
L427.253 252.143
L428.227 253.585
L429.079 254.469
L429.891 254.998
L430.703 255.263
L431.595 255.312
L432.61 255.132
L433.827 254.682
L435.41 253.849
L437.805 252.306
L444.785 247.685
L447.95 245.935
L452.739 243.592
L455.498 242.114
L457.04 241.047
L458.095 240.052
L458.826 239.052
L459.313 238.011
L459.638 236.8
L459.84 235.182
L459.962 231.751
L460.003 222.574
L460.084 174.718
L460.125 177.744
L460.449 232.868
L460.611 257.428
L460.693 257.954
L460.733 257.799
L460.936 255.678
L461.545 245.915
L462.113 235.351
L462.154 233.016
L462.235 173.191
L462.316 176.446
L462.641 213.585
L462.722 227.214
L462.884 261.551
L462.925 261.78
L462.965 261.696
L463.168 259.939
L463.615 253.566
L464.751 234.456
L464.791 231.076
L464.873 173.513
L464.913 175.029
L465.075 193.149
L465.36 244.889
L465.522 261.875
L465.562 261.94
L465.603 261.837
L465.806 260.478
L466.374 254.605
L467.064 248.264
L467.551 245.706
L467.957 244.655
L468.281 244.34
L468.566 244.349
L468.89 244.598
L469.377 245.29
L470.229 246.972
L472.786 252.209
L473.76 253.634
L474.612 254.503
L475.424 255.018
L476.235 255.273
L477.128 255.312
L478.143 255.125
L479.401 254.649
L481.024 253.781
L483.5 252.172
L490.033 247.832
L493.199 246.063
L497.5 243.949
L500.747 242.26
L502.37 241.175
L503.466 240.185
L504.196 239.248
L504.724 238.22
L505.089 236.993
L505.292 235.625
L505.414 233.548
L505.454 231.608
L505.495 220.965
L505.576 174.804
L505.617 177.954
L505.941 233.685
L506.104 257.47
L506.185 257.956
L506.225 257.793
L506.428 255.658
L507.037 245.888
L507.605 235.286
L507.646 232.859
L507.727 173.212
L507.808 176.565
L508.133 213.75
L508.214 227.951
L508.376 261.574
L508.417 261.784
L508.457 261.691
L508.66 259.923
L509.107 253.541
L510.243 234.383
L510.284 230.802
L510.365 173.549
L510.405 175.114
L510.568 193.372
L510.852 245.58
L511.014 261.885
L511.055 261.941
L511.095 261.834
L511.298 260.468
L511.866 254.591
L512.556 248.255
L513.043 245.702
L513.449 244.653
L513.774 244.341
L514.058 244.351
L514.382 244.601
L514.869 245.294
L515.722 246.978
L518.278 252.215
L518.359 252.35
L518.359 252.35" style="fill:none;stroke:#0000ff;stroke-linecap:square;"/>
   </g>
   <g id="patch_18">
    <path d="
M315.491 165.176
L518.4 165.176" style="fill:none;stroke:#000000;stroke-linecap:square;stroke-linejoin:miter;"/>
   </g>
   <g id="patch_19">
    <path d="
M518.4 266.824
L518.4 165.176" style="fill:none;stroke:#000000;stroke-linecap:square;stroke-linejoin:miter;"/>
   </g>
   <g id="patch_20">
    <path d="
M315.491 266.824
L518.4 266.824" style="fill:none;stroke:#000000;stroke-linecap:square;stroke-linejoin:miter;"/>
   </g>
   <g id="patch_21">
    <path d="
M315.491 266.824
L315.491 165.176" style="fill:none;stroke:#000000;stroke-linecap:square;stroke-linejoin:miter;"/>
   </g>
   <g id="matplotlib.axis_7"/>
   <g id="matplotlib.axis_8">
    <g id="ytick_7">
     <g id="line2d_17">
      <g>
       <use style="stroke:#000000;stroke-width:0.5;" x="315.490909091" xlink:href="#m728421d6d4" y="252.302521008"/>
      </g>
     </g>
     <g id="line2d_18">
      <g>
       <use style="stroke:#000000;stroke-width:0.5;" x="518.4" xlink:href="#mcb0005524f" y="252.302521008"/>
      </g>
     </g>
     <g id="text_9">
      <!-- −60 -->
      <g transform="translate(288.233409091 255.613771008)scale(0.12 -0.12)">
       <use xlink:href="#BitstreamVeraSans-Roman-2212"/>
       <use x="83.7890625" xlink:href="#BitstreamVeraSans-Roman-36"/>
       <use x="147.412109375" xlink:href="#BitstreamVeraSans-Roman-30"/>
      </g>
     </g>
    </g>
    <g id="ytick_8">
     <g id="line2d_19">
      <g>
       <use style="stroke:#000000;stroke-width:0.5;" x="315.490909091" xlink:href="#m728421d6d4" y="208.739495798"/>
      </g>
     </g>
     <g id="line2d_20">
      <g>
       <use style="stroke:#000000;stroke-width:0.5;" x="518.4" xlink:href="#mcb0005524f" y="208.739495798"/>
      </g>
     </g>
     <g id="text_10">
      <!-- 0 -->
      <g transform="translate(305.444034091 212.050745798)scale(0.12 -0.12)">
       <use xlink:href="#BitstreamVeraSans-Roman-30"/>
      </g>
     </g>
    </g>
   </g>
  </g>
  <g id="axes_5">
   <g id="patch_22">
    <path d="
M72 388.8
L274.909 388.8
L274.909 287.153
L72 287.153
z
" style="fill:#ffffff;"/>
   </g>
   <g id="line2d_21">
    <path clip-path="url(#p5df05f4a8e)" d="
M72.0406 376.443
L74.5161 374.715
L80.7251 370.301
L83.7687 368.467
L87.3805 366.569
L91.8851 364.182
L93.5489 363.045
L94.6852 362.016
L95.4969 360.987
L96.065 359.894
L96.3897 358.84
L96.552 357.79
L96.5926 357.182
L96.9578 332.375
L96.9984 332.906
L97.1201 339.452
L97.3636 349.878
L97.6477 353.561
L97.8506 354.303
L97.9724 354.282
L98.1347 353.85
L98.4188 352.317
L98.7434 349.576
L98.784 348.939
L99.0275 330.265
L99.0681 330.512
L99.271 338.245
L99.7985 354.765
L100.042 355.446
L100.204 355.435
L100.407 355.092
L100.854 353.69
L101.381 351.716
L101.422 351.185
L101.665 333.23
L101.706 333.35
L101.868 338.518
L102.071 351.164
L102.315 359.091
L102.639 362.422
L102.964 363.806
L103.289 364.392
L103.694 364.672
L104.344 365.108
L104.871 365.807
L105.602 367.226
L107.144 370.885
L108.686 374.306
L109.701 376.045
L110.553 377.087
L111.324 377.703
L112.095 378.048
L112.906 378.171
L113.84 378.075
L114.936 377.728
L116.315 377.042
L118.223 375.824
L121.956 373.104
L125.811 370.411
L128.855 368.563
L132.386 366.696
L137.174 364.162
L138.838 363.019
L139.975 361.981
L140.786 360.936
L141.314 359.914
L141.638 358.875
L141.801 357.871
L141.841 357.348
L141.963 344.524
L142.166 332.475
L142.207 332.336
L142.288 333.817
L142.734 351.876
L143.018 354.113
L143.181 354.325
L143.302 354.138
L143.546 353.116
L143.911 350.5
L144.033 349.097
L144.276 330.331
L144.398 332.75
L145.007 354.469
L145.25 355.389
L145.413 355.467
L145.575 355.279
L145.899 354.41
L146.63 351.776
L146.671 351.354
L146.955 333.266
L147.076 336.596
L147.279 347.839
L147.523 358.182
L147.807 361.798
L148.131 363.531
L148.456 364.28
L148.821 364.606
L149.674 365.185
L150.201 365.929
L150.972 367.478
L154.746 375.726
L155.639 376.91
L156.451 377.62
L157.222 378.007
L158.033 378.165
L158.926 378.109
L159.981 377.811
L161.321 377.183
L163.106 376.079
L166.15 373.889
L170.776 370.603
L173.82 368.729
L177.229 366.905
L182.585 364.067
L184.209 362.928
L185.304 361.901
L186.075 360.884
L186.603 359.831
L186.928 358.725
L187.09 357.48
L187.171 350.603
L187.415 332.569
L187.455 332.319
L187.455 332.319
L187.455 332.319
L187.536 333.544
L188.023 352.299
L188.267 354.086
L188.429 354.328
L188.551 354.157
L188.754 353.375
L189.119 350.921
L189.281 349.231
L189.363 342.131
L189.566 330.307
L189.687 334.129
L190.255 354.413
L190.499 355.377
L190.661 355.47
L190.824 355.293
L191.108 354.567
L191.879 351.83
L191.919 351.472
L192.203 333.211
L192.285 334.867
L192.528 347.222
L192.771 358.015
L193.056 361.735
L193.38 363.503
L193.705 364.269
L194.07 364.601
L194.922 365.176
L195.45 365.916
L196.18 367.37
L198.007 371.715
L199.386 374.664
L200.36 376.252
L201.213 377.227
L201.984 377.789
L202.755 378.087
L203.607 378.17
L204.54 378.032
L205.677 377.631
L207.137 376.862
L209.207 375.494
L218.297 369.184
L221.503 367.409
L228.443 363.679
L229.863 362.59
L230.837 361.578
L231.527 360.549
L231.974 359.515
L232.258 358.315
L232.339 357.591
L232.379 356.539
L232.663 332.685
L232.704 332.323
L232.745 332.526
L232.826 334.998
L233.15 350.238
L233.434 353.668
L233.637 354.318
L233.759 354.257
L233.962 353.609
L234.287 351.622
L234.53 349.35
L234.571 348.366
L234.814 330.255
L234.895 332.139
L235.545 354.63
L235.788 355.422
L235.951 355.453
L236.153 355.146
L236.559 353.913
L237.168 351.563
L237.249 344.839
L237.452 333.185
L237.533 334.623
L237.777 346.597
L238.02 357.844
L238.304 361.671
L238.629 363.475
L238.954 364.258
L239.319 364.597
L240.212 365.212
L240.739 365.972
L241.51 367.534
L245.203 375.637
L246.096 376.848
L246.908 377.581
L247.679 377.988
L248.49 378.162
L249.383 378.118
L250.438 377.832
L251.737 377.235
L253.482 376.171
L256.363 374.111
L261.314 370.586
L264.358 368.715
L267.767 366.892
L273.083 364.077
L274.706 362.941
L274.909 362.773
L274.909 362.773" style="fill:none;stroke:#0000ff;stroke-linecap:square;"/>
   </g>
   <g id="patch_23">
    <path d="
M72 287.153
L274.909 287.153" style="fill:none;stroke:#000000;stroke-linecap:square;stroke-linejoin:miter;"/>
   </g>
   <g id="patch_24">
    <path d="
M274.909 388.8
L274.909 287.153" style="fill:none;stroke:#000000;stroke-linecap:square;stroke-linejoin:miter;"/>
   </g>
   <g id="patch_25">
    <path d="
M72 388.8
L274.909 388.8" style="fill:none;stroke:#000000;stroke-linecap:square;stroke-linejoin:miter;"/>
   </g>
   <g id="patch_26">
    <path d="
M72 388.8
L72 287.153" style="fill:none;stroke:#000000;stroke-linecap:square;stroke-linejoin:miter;"/>
   </g>
   <g id="matplotlib.axis_9">
    <g id="text_11">
     <!-- 1 s -->
     <defs>
      <path d="
M11.7188 12.9844
L28.3281 12.9844
L28.3281 60.1094
L11.2812 56.5938
L11.2812 69.3906
L28.2188 72.9062
L46.0938 72.9062
L46.0938 12.9844
L62.7031 12.9844
L62.7031 0
L11.7188 0
z
" id="BitstreamVeraSans-Bold-31"/>
      <path id="BitstreamVeraSans-Bold-20"/>
     </defs>
     <g transform="translate(163.904232955 402.918125)scale(0.12 -0.12)">
      <use xlink:href="#BitstreamVeraSans-Bold-31"/>
      <use x="69.580078125" xlink:href="#BitstreamVeraSans-Bold-20"/>
      <use x="104.39453125" xlink:href="#BitstreamVeraSans-Bold-73"/>
     </g>
    </g>
   </g>
   <g id="matplotlib.axis_10">
    <g id="ytick_9">
     <g id="line2d_22">
      <g>
       <use style="stroke:#000000;stroke-width:0.5;" x="72.0" xlink:href="#m728421d6d4" y="374.278991597"/>
      </g>
     </g>
     <g id="line2d_23">
      <g>
       <use style="stroke:#000000;stroke-width:0.5;" x="274.909090909" xlink:href="#mcb0005524f" y="374.278991597"/>
      </g>
     </g>
     <g id="text_12">
      <!-- −60 -->
      <g transform="translate(44.7425 377.590241597)scale(0.12 -0.12)">
       <use xlink:href="#BitstreamVeraSans-Roman-2212"/>
       <use x="83.7890625" xlink:href="#BitstreamVeraSans-Roman-36"/>
       <use x="147.412109375" xlink:href="#BitstreamVeraSans-Roman-30"/>
      </g>
     </g>
    </g>
    <g id="ytick_10">
     <g id="line2d_24">
      <g>
       <use style="stroke:#000000;stroke-width:0.5;" x="72.0" xlink:href="#m728421d6d4" y="330.715966387"/>
      </g>
     </g>
     <g id="line2d_25">
      <g>
       <use style="stroke:#000000;stroke-width:0.5;" x="274.909090909" xlink:href="#mcb0005524f" y="330.715966387"/>
      </g>
     </g>
     <g id="text_13">
      <!-- 0 -->
      <g transform="translate(61.953125 334.027216387)scale(0.12 -0.12)">
       <use xlink:href="#BitstreamVeraSans-Roman-30"/>
      </g>
     </g>
    </g>
   </g>
  </g>
  <g id="axes_6">
   <g id="patch_27">
    <path d="
M315.491 388.8
L518.4 388.8
L518.4 287.153
L315.491 287.153
z
" style="fill:#ffffff;"/>
   </g>
   <g id="line2d_26">
    <path clip-path="url(#p8ca55fdb04)" d="
M315.531 376.036
L317.763 374.599
L325.596 369.371
L328.802 367.616
L336.391 363.613
L337.649 362.612
L338.541 361.623
L339.15 360.618
L339.556 359.532
L339.84 358.065
L340.002 355.766
L340.043 354.091
L340.083 347.399
L340.165 296.473
L340.205 299.203
L340.53 352.878
L340.692 379.563
L340.773 380.16
L340.814 380.019
L341.017 377.939
L341.585 368.906
L342.234 356.213
L342.275 350.75
L342.315 295.195
L342.397 297.359
L342.559 314.964
L342.843 362.873
L343.005 383.838
L343.046 383.839
L343.208 382.628
L343.614 377.233
L344.832 357.272
L344.872 355.317
L344.913 344.437
L344.953 295.19
L345.034 298.232
L345.319 332.565
L345.44 355.731
L345.603 383.833
L345.643 384.032
L345.684 383.991
L345.846 383.053
L346.293 378.701
L347.145 370.471
L347.632 367.826
L348.038 366.723
L348.362 366.381
L348.646 366.374
L348.971 366.612
L349.458 367.3
L350.27 368.904
L352.948 374.433
L353.881 375.789
L354.734 376.649
L355.545 377.151
L356.357 377.391
L357.25 377.413
L358.264 377.208
L359.522 376.713
L361.186 375.798
L363.702 374.129
L369.911 369.937
L373.036 368.15
L377.094 366.114
L380.584 364.291
L382.207 363.203
L383.303 362.215
L384.074 361.22
L384.602 360.167
L384.926 359.075
L385.129 357.784
L385.251 355.979
L385.332 350.139
L385.413 296.233
L385.454 298.462
L385.779 349.835
L385.941 379.384
L386.022 380.165
L386.063 380.06
L386.225 378.554
L386.712 371.11
L387.483 356.647
L387.524 352.873
L387.605 295.443
L387.645 296.925
L387.808 313.879
L388.092 358.104
L388.254 383.799
L388.295 383.858
L388.416 383.091
L388.782 378.597
L390.08 357.529
L390.161 349.965
L390.202 295.335
L390.283 297.694
L390.486 322.307
L390.689 351.262
L390.851 383.743
L390.892 384.018
L390.973 383.872
L391.217 382.1
L392.84 368.019
L393.246 366.811
L393.57 366.407
L393.854 366.36
L394.179 366.563
L394.625 367.152
L395.356 368.541
L398.481 374.878
L399.374 376.063
L400.185 376.796
L400.997 377.231
L401.808 377.415
L402.701 377.391
L403.756 377.133
L405.055 376.578
L406.8 375.576
L409.681 373.623
L414.795 370.168
L417.919 368.35
L421.653 366.454
L425.833 364.296
L427.456 363.21
L428.552 362.224
L429.323 361.233
L429.85 360.188
L430.216 358.92
L430.419 357.449
L430.54 354.912
L430.581 351.692
L430.662 296.124
L430.743 302.13
L431.271 380.161
L431.311 380.095
L431.474 378.65
L431.961 371.243
L432.732 357.017
L432.772 354.119
L432.854 295.282
L432.894 296.544
L433.056 312.809
L433.341 353.314
L433.503 383.743
L433.543 383.87
L433.584 383.74
L433.787 381.927
L434.233 375.531
L435.37 356.27
L435.41 352.311
L435.491 295.576
L435.532 297.217
L435.694 315.654
L435.978 368.793
L436.141 383.994
L436.181 384.026
L436.303 383.457
L436.668 380.18
L437.764 369.757
L438.21 367.588
L438.616 366.62
L438.941 366.358
L439.225 366.404
L439.59 366.734
L440.118 367.559
L441.092 369.578
L443.202 373.984
L444.216 375.563
L445.069 376.499
L445.88 377.065
L446.692 377.358
L447.544 377.428
L448.518 377.28
L449.695 376.868
L451.237 376.074
L453.469 374.644
L461.464 369.314
L464.67 367.566
L472.096 363.657
L473.395 362.634
L474.288 361.655
L474.896 360.667
L475.302 359.614
L475.586 358.245
L475.749 356.339
L475.83 352.707
L475.911 296.228
L475.992 301.101
L476.52 380.146
L476.601 379.916
L476.844 377.156
L477.615 364.536
L477.981 357.339
L478.021 354.972
L478.102 295.163
L478.183 298.437
L478.508 335.558
L478.589 349.352
L478.752 383.665
L478.792 383.872
L478.833 383.777
L479.036 382.015
L479.482 375.659
L480.618 356.632
L480.659 353.648
L480.74 295.401
L480.781 296.799
L480.943 314.545
L481.227 365.311
L481.389 383.959
L481.43 384.035
L481.471 383.937
L481.673 382.592
L482.242 376.736
L482.931 370.352
L483.418 367.762
L483.824 366.694
L484.149 366.374
L484.433 366.381
L484.758 366.631
L485.245 367.329
L486.097 369.028
L488.654 374.324
L489.627 375.76
L490.48 376.63
L491.291 377.141
L492.103 377.387
L492.996 377.416
L494.01 377.215
L495.268 376.724
L496.892 375.837
L499.367 374.202
L505.82 369.852
L508.944 368.076
L513.165 365.967
L516.452 364.232
L518.035 363.158
L518.4 362.858
L518.4 362.858" style="fill:none;stroke:#0000ff;stroke-linecap:square;"/>
   </g>
   <g id="patch_28">
    <path d="
M315.491 287.153
L518.4 287.153" style="fill:none;stroke:#000000;stroke-linecap:square;stroke-linejoin:miter;"/>
   </g>
   <g id="patch_29">
    <path d="
M518.4 388.8
L518.4 287.153" style="fill:none;stroke:#000000;stroke-linecap:square;stroke-linejoin:miter;"/>
   </g>
   <g id="patch_30">
    <path d="
M315.491 388.8
L518.4 388.8" style="fill:none;stroke:#000000;stroke-linecap:square;stroke-linejoin:miter;"/>
   </g>
   <g id="patch_31">
    <path d="
M315.491 388.8
L315.491 287.153" style="fill:none;stroke:#000000;stroke-linecap:square;stroke-linejoin:miter;"/>
   </g>
   <g id="matplotlib.axis_11">
    <g id="text_14">
     <!-- 1 s -->
     <g transform="translate(407.395142045 402.918125)scale(0.12 -0.12)">
      <use xlink:href="#BitstreamVeraSans-Bold-31"/>
      <use x="69.580078125" xlink:href="#BitstreamVeraSans-Bold-20"/>
      <use x="104.39453125" xlink:href="#BitstreamVeraSans-Bold-73"/>
     </g>
    </g>
   </g>
   <g id="matplotlib.axis_12">
    <g id="ytick_11">
     <g id="line2d_27">
      <g>
       <use style="stroke:#000000;stroke-width:0.5;" x="315.490909091" xlink:href="#m728421d6d4" y="374.278991597"/>
      </g>
     </g>
     <g id="line2d_28">
      <g>
       <use style="stroke:#000000;stroke-width:0.5;" x="518.4" xlink:href="#mcb0005524f" y="374.278991597"/>
      </g>
     </g>
     <g id="text_15">
      <!-- −60 -->
      <g transform="translate(288.233409091 377.590241597)scale(0.12 -0.12)">
       <use xlink:href="#BitstreamVeraSans-Roman-2212"/>
       <use x="83.7890625" xlink:href="#BitstreamVeraSans-Roman-36"/>
       <use x="147.412109375" xlink:href="#BitstreamVeraSans-Roman-30"/>
      </g>
     </g>
    </g>
    <g id="ytick_12">
     <g id="line2d_29">
      <g>
       <use style="stroke:#000000;stroke-width:0.5;" x="315.490909091" xlink:href="#m728421d6d4" y="330.715966387"/>
      </g>
     </g>
     <g id="line2d_30">
      <g>
       <use style="stroke:#000000;stroke-width:0.5;" x="518.4" xlink:href="#mcb0005524f" y="330.715966387"/>
      </g>
     </g>
     <g id="text_16">
      <!-- 0 -->
      <g transform="translate(305.444034091 334.027216387)scale(0.12 -0.12)">
       <use xlink:href="#BitstreamVeraSans-Roman-30"/>
      </g>
     </g>
    </g>
   </g>
  </g>
 </g>
 <defs>
  <clipPath id="pf4132cbc21">
   <rect height="101.647058824" width="202.909090909" x="315.490909091" y="165.176470588"/>
  </clipPath>
  <clipPath id="p5df05f4a8e">
   <rect height="101.647058824" width="202.909090909" x="72.0" y="287.152941176"/>
  </clipPath>
  <clipPath id="pdf2bc2c95a">
   <rect height="101.647058824" width="202.909090909" x="72.0" y="43.2"/>
  </clipPath>
  <clipPath id="pbd5a3a9a46">
   <rect height="101.647058824" width="202.909090909" x="315.490909091" y="43.2"/>
  </clipPath>
  <clipPath id="p68273c1835">
   <rect height="101.647058824" width="202.909090909" x="72.0" y="165.176470588"/>
  </clipPath>
  <clipPath id="p8ca55fdb04">
   <rect height="101.647058824" width="202.909090909" x="315.490909091" y="287.152941176"/>
  </clipPath>
 </defs>
</svg>
