<?xml version="1.0" encoding="utf-8" standalone="no"?>
<!DOCTYPE svg PUBLIC "-//W3C//DTD SVG 1.1//EN"
  "http://www.w3.org/Graphics/SVG/1.1/DTD/svg11.dtd">
<!-- Created with matplotlib (http://matplotlib.org/) -->
<svg height="432pt" version="1.1" viewBox="0 0 576 432" width="576pt" xmlns="http://www.w3.org/2000/svg" xmlns:xlink="http://www.w3.org/1999/xlink">
 <defs>
  <style type="text/css">
*{stroke-linecap:butt;stroke-linejoin:round;}
  </style>
 </defs>
 <g id="figure_1">
  <g id="patch_1">
   <path d="
M0 432
L576 432
L576 0
L0 0
z
" style="fill:#ffffff;"/>
  </g>
  <g id="axes_1">
   <g id="patch_2">
    <path d="
M72 144.847
L274.909 144.847
L274.909 43.2
L72 43.2
z
" style="fill:#ffffff;"/>
   </g>
   <g id="line2d_1">
    <path clip-path="url(#pdf2bc2c95a)" d="
M72 126.696
L76.0988 125.953
L81.5367 125.181
L87.8269 124.519
L95.2534 123.968
L104.344 123.524
L116.072 123.186
L132.507 122.95
L159.697 122.811
L235.585 122.727
L274.869 122.701
L274.869 122.701" style="fill:none;stroke:#0000ff;stroke-linecap:square;"/>
   </g>
   <g id="patch_3">
    <path d="
M72 43.2
L274.909 43.2" style="fill:none;stroke:#000000;stroke-linecap:square;stroke-linejoin:miter;"/>
   </g>
   <g id="patch_4">
    <path d="
M274.909 144.847
L274.909 43.2" style="fill:none;stroke:#000000;stroke-linecap:square;stroke-linejoin:miter;"/>
   </g>
   <g id="patch_5">
    <path d="
M72 144.847
L274.909 144.847" style="fill:none;stroke:#000000;stroke-linecap:square;stroke-linejoin:miter;"/>
   </g>
   <g id="patch_6">
    <path d="
M72 144.847
L72 43.2" style="fill:none;stroke:#000000;stroke-linecap:square;stroke-linejoin:miter;"/>
   </g>
   <g id="matplotlib.axis_1"/>
   <g id="matplotlib.axis_2">
    <g id="ytick_1">
     <g id="line2d_2">
      <defs>
       <path d="
M0 0
L4 0" id="m728421d6d4" style="stroke:#000000;stroke-width:0.5;"/>
      </defs>
      <g>
       <use style="stroke:#000000;stroke-width:0.5;" x="72.0" xlink:href="#m728421d6d4" y="130.32605042"/>
      </g>
     </g>
     <g id="line2d_3">
      <defs>
       <path d="
M0 0
L-4 0" id="mcb0005524f" style="stroke:#000000;stroke-width:0.5;"/>
      </defs>
      <g>
       <use style="stroke:#000000;stroke-width:0.5;" x="274.909090909" xlink:href="#mcb0005524f" y="130.32605042"/>
      </g>
     </g>
     <g id="text_1">
      <!-- −60 -->
      <defs>
       <path d="
M10.5938 35.5
L73.1875 35.5
L73.1875 27.2031
L10.5938 27.2031
z
" id="BitstreamVeraSans-Roman-2212"/>
       <path d="
M31.7812 66.4062
Q24.1719 66.4062 20.3281 58.9062
Q16.5 51.4219 16.5 36.375
Q16.5 21.3906 20.3281 13.8906
Q24.1719 6.39062 31.7812 6.39062
Q39.4531 6.39062 43.2812 13.8906
Q47.125 21.3906 47.125 36.375
Q47.125 51.4219 43.2812 58.9062
Q39.4531 66.4062 31.7812 66.4062
M31.7812 74.2188
Q44.0469 74.2188 50.5156 64.5156
Q56.9844 54.8281 56.9844 36.375
Q56.9844 17.9688 50.5156 8.26562
Q44.0469 -1.42188 31.7812 -1.42188
Q19.5312 -1.42188 13.0625 8.26562
Q6.59375 17.9688 6.59375 36.375
Q6.59375 54.8281 13.0625 64.5156
Q19.5312 74.2188 31.7812 74.2188" id="BitstreamVeraSans-Roman-30"/>
       <path d="
M33.0156 40.375
Q26.375 40.375 22.4844 35.8281
Q18.6094 31.2969 18.6094 23.3906
Q18.6094 15.5312 22.4844 10.9531
Q26.375 6.39062 33.0156 6.39062
Q39.6562 6.39062 43.5312 10.9531
Q47.4062 15.5312 47.4062 23.3906
Q47.4062 31.2969 43.5312 35.8281
Q39.6562 40.375 33.0156 40.375
M52.5938 71.2969
L52.5938 62.3125
Q48.875 64.0625 45.0938 64.9844
Q41.3125 65.9219 37.5938 65.9219
Q27.8281 65.9219 22.6719 59.3281
Q17.5312 52.7344 16.7969 39.4062
Q19.6719 43.6562 24.0156 45.9219
Q28.375 48.1875 33.5938 48.1875
Q44.5781 48.1875 50.9531 41.5156
Q57.3281 34.8594 57.3281 23.3906
Q57.3281 12.1562 50.6875 5.35938
Q44.0469 -1.42188 33.0156 -1.42188
Q20.3594 -1.42188 13.6719 8.26562
Q6.98438 17.9688 6.98438 36.375
Q6.98438 53.6562 15.1875 63.9375
Q23.3906 74.2188 37.2031 74.2188
Q40.9219 74.2188 44.7031 73.4844
Q48.4844 72.75 52.5938 71.2969" id="BitstreamVeraSans-Roman-36"/>
      </defs>
      <g transform="translate(44.7425 133.63730042)scale(0.12 -0.12)">
       <use xlink:href="#BitstreamVeraSans-Roman-2212"/>
       <use x="83.7890625" xlink:href="#BitstreamVeraSans-Roman-36"/>
       <use x="147.412109375" xlink:href="#BitstreamVeraSans-Roman-30"/>
      </g>
     </g>
    </g>
    <g id="ytick_2">
     <g id="line2d_4">
      <g>
       <use style="stroke:#000000;stroke-width:0.5;" x="72.0" xlink:href="#m728421d6d4" y="86.7630252101"/>
      </g>
     </g>
     <g id="line2d_5">
      <g>
       <use style="stroke:#000000;stroke-width:0.5;" x="274.909090909" xlink:href="#mcb0005524f" y="86.7630252101"/>
      </g>
     </g>
     <g id="text_2">
      <!-- 0 -->
      <g transform="translate(61.953125 90.0742752101)scale(0.12 -0.12)">
       <use xlink:href="#BitstreamVeraSans-Roman-30"/>
      </g>
     </g>
    </g>
   </g>
   <g id="text_3">
    <!-- soma -->
    <defs>
     <path d="
M51.125 52.9844
L51.125 39.7031
Q45.5156 42.0469 40.2812 43.2188
Q35.0625 44.3906 30.4219 44.3906
Q25.4375 44.3906 23.0156 43.1406
Q20.6094 41.8906 20.6094 39.3125
Q20.6094 37.2031 22.4375 36.0781
Q24.2656 34.9688 29 34.4219
L32.0781 33.9844
Q45.5156 32.2812 50.1406 28.375
Q54.7812 24.4688 54.7812 16.1094
Q54.7812 7.375 48.3281 2.96875
Q41.8906 -1.42188 29.1094 -1.42188
Q23.6875 -1.42188 17.8906 -0.5625
Q12.1094 0.296875 6 2
L6 15.2812
Q11.2344 12.75 16.7188 11.4688
Q22.2188 10.2031 27.875 10.2031
Q33.0156 10.2031 35.5938 11.6094
Q38.1875 13.0312 38.1875 15.8281
Q38.1875 18.1719 36.4062 19.3125
Q34.625 20.4531 29.2969 21.0938
L26.2188 21.4844
Q14.5469 22.9531 9.85938 26.9062
Q5.17188 30.8594 5.17188 38.9219
Q5.17188 47.6094 11.125 51.7969
Q17.0938 56 29.3906 56
Q34.2344 56 39.5469 55.2656
Q44.875 54.5469 51.125 52.9844" id="BitstreamVeraSans-Bold-73"/>
     <path d="
M32.9062 24.6094
Q27.4375 24.6094 24.6719 22.75
Q21.9219 20.9062 21.9219 17.2812
Q21.9219 13.9688 24.1406 12.0781
Q26.375 10.2031 30.3281 10.2031
Q35.25 10.2031 38.625 13.7344
Q42 17.2812 42 22.6094
L42 24.6094
z

M59.625 31.2031
L59.625 0
L42 0
L42 8.10938
Q38.4844 3.125 34.0781 0.84375
Q29.6875 -1.42188 23.3906 -1.42188
Q14.8906 -1.42188 9.59375 3.53125
Q4.29688 8.5 4.29688 16.4062
Q4.29688 26.0312 10.9062 30.5156
Q17.5312 35.0156 31.6875 35.0156
L42 35.0156
L42 36.375
Q42 40.5312 38.7188 42.4531
Q35.4531 44.3906 28.5156 44.3906
Q22.9062 44.3906 18.0625 43.2656
Q13.2344 42.1406 9.07812 39.8906
L9.07812 53.2188
Q14.7031 54.5938 20.3594 55.2969
Q26.0312 56 31.6875 56
Q46.4844 56 53.0469 50.1719
Q59.625 44.3438 59.625 31.2031" id="BitstreamVeraSans-Bold-61"/>
     <path d="
M34.4219 43.5
Q28.6094 43.5 25.5625 39.3281
Q22.5156 35.1562 22.5156 27.2969
Q22.5156 19.4375 25.5625 15.25
Q28.6094 11.0781 34.4219 11.0781
Q40.1406 11.0781 43.1562 15.25
Q46.1875 19.4375 46.1875 27.2969
Q46.1875 35.1562 43.1562 39.3281
Q40.1406 43.5 34.4219 43.5
M34.4219 56
Q48.5312 56 56.4688 48.375
Q64.4062 40.7656 64.4062 27.2969
Q64.4062 13.8125 56.4688 6.1875
Q48.5312 -1.42188 34.4219 -1.42188
Q20.2656 -1.42188 12.2812 6.1875
Q4.29688 13.8125 4.29688 27.2969
Q4.29688 40.7656 12.2812 48.375
Q20.2656 56 34.4219 56" id="BitstreamVeraSans-Bold-6f"/>
     <path d="
M59.0781 45.6094
Q62.4062 50.6875 66.9688 53.3438
Q71.5312 56 77 56
Q86.4219 56 91.3594 50.1875
Q96.2969 44.3906 96.2969 33.2969
L96.2969 0
L78.7188 0
L78.7188 28.5156
Q78.7656 29.1562 78.7812 29.8281
Q78.8125 30.5156 78.8125 31.7812
Q78.8125 37.5938 77.0938 40.2031
Q75.3906 42.8281 71.5781 42.8281
Q66.6094 42.8281 63.8906 38.7188
Q61.1875 34.625 61.0781 26.8594
L61.0781 0
L43.5 0
L43.5 28.5156
Q43.5 37.5938 41.9375 40.2031
Q40.375 42.8281 36.375 42.8281
Q31.3438 42.8281 28.6094 38.7031
Q25.875 34.5781 25.875 26.9062
L25.875 0
L8.29688 0
L8.29688 54.6875
L25.875 54.6875
L25.875 46.6875
Q29.1094 51.3125 33.2812 53.6562
Q37.4531 56 42.4844 56
Q48.1406 56 52.4844 53.2656
Q56.8438 50.5312 59.0781 45.6094" id="BitstreamVeraSans-Bold-6d"/>
    </defs>
    <g transform="translate(152.799545455 38.2)scale(0.144 -0.144)">
     <use xlink:href="#BitstreamVeraSans-Bold-73"/>
     <use x="59.521484375" xlink:href="#BitstreamVeraSans-Bold-6f"/>
     <use x="128.22265625" xlink:href="#BitstreamVeraSans-Bold-6d"/>
     <use x="232.421875" xlink:href="#BitstreamVeraSans-Bold-61"/>
    </g>
   </g>
  </g>
  <g id="axes_2">
   <g id="patch_7">
    <path d="
M315.491 144.847
L518.4 144.847
L518.4 43.2
L315.491 43.2
z
" style="fill:#ffffff;"/>
   </g>
   <g id="line2d_6">
    <path clip-path="url(#pbd5a3a9a46)" d="
M315.491 126.696
L321.416 125.673
L327.138 124.939
L333.793 124.315
L341.747 123.801
L351.649 123.395
L364.717 123.093
L383.831 122.894
L419.137 122.785
L518.359 122.708
L518.359 122.708" style="fill:none;stroke:#0000ff;stroke-linecap:square;"/>
   </g>
   <g id="patch_8">
    <path d="
M315.491 43.2
L518.4 43.2" style="fill:none;stroke:#000000;stroke-linecap:square;stroke-linejoin:miter;"/>
   </g>
   <g id="patch_9">
    <path d="
M518.4 144.847
L518.4 43.2" style="fill:none;stroke:#000000;stroke-linecap:square;stroke-linejoin:miter;"/>
   </g>
   <g id="patch_10">
    <path d="
M315.491 144.847
L518.4 144.847" style="fill:none;stroke:#000000;stroke-linecap:square;stroke-linejoin:miter;"/>
   </g>
   <g id="patch_11">
    <path d="
M315.491 144.847
L315.491 43.2" style="fill:none;stroke:#000000;stroke-linecap:square;stroke-linejoin:miter;"/>
   </g>
   <g id="matplotlib.axis_3"/>
   <g id="matplotlib.axis_4">
    <g id="ytick_3">
     <g id="line2d_7">
      <g>
       <use style="stroke:#000000;stroke-width:0.5;" x="315.490909091" xlink:href="#m728421d6d4" y="130.32605042"/>
      </g>
     </g>
     <g id="line2d_8">
      <g>
       <use style="stroke:#000000;stroke-width:0.5;" x="518.4" xlink:href="#mcb0005524f" y="130.32605042"/>
      </g>
     </g>
     <g id="text_4">
      <!-- −60 -->
      <g transform="translate(288.233409091 133.63730042)scale(0.12 -0.12)">
       <use xlink:href="#BitstreamVeraSans-Roman-2212"/>
       <use x="83.7890625" xlink:href="#BitstreamVeraSans-Roman-36"/>
       <use x="147.412109375" xlink:href="#BitstreamVeraSans-Roman-30"/>
      </g>
     </g>
    </g>
    <g id="ytick_4">
     <g id="line2d_9">
      <g>
       <use style="stroke:#000000;stroke-width:0.5;" x="315.490909091" xlink:href="#m728421d6d4" y="86.7630252101"/>
      </g>
     </g>
     <g id="line2d_10">
      <g>
       <use style="stroke:#000000;stroke-width:0.5;" x="518.4" xlink:href="#mcb0005524f" y="86.7630252101"/>
      </g>
     </g>
     <g id="text_5">
      <!-- 0 -->
      <g transform="translate(305.444034091 90.0742752101)scale(0.12 -0.12)">
       <use xlink:href="#BitstreamVeraSans-Roman-30"/>
      </g>
     </g>
    </g>
   </g>
   <g id="text_6">
    <!-- axon -->
    <defs>
     <path d="
M22.2188 27.9844
L2.48438 54.6875
L21 54.6875
L32.1719 38.4844
L43.5 54.6875
L62.0156 54.6875
L42.2812 28.0781
L62.9844 0
L44.4844 0
L32.1719 17.2812
L20.0156 0
L1.51562 0
z
" id="BitstreamVeraSans-Bold-78"/>
     <path d="
M63.375 33.2969
L63.375 0
L45.7969 0
L45.7969 5.42188
L45.7969 25.4844
Q45.7969 32.5625 45.4844 35.25
Q45.1719 37.9375 44.3906 39.2031
Q43.3594 40.9219 41.5938 41.875
Q39.8438 42.8281 37.5938 42.8281
Q32.125 42.8281 29 38.5938
Q25.875 34.375 25.875 26.9062
L25.875 0
L8.40625 0
L8.40625 54.6875
L25.875 54.6875
L25.875 46.6875
Q29.8281 51.4688 34.2656 53.7344
Q38.7188 56 44.0938 56
Q53.5625 56 58.4688 50.1875
Q63.375 44.3906 63.375 33.2969" id="BitstreamVeraSans-Bold-6e"/>
    </defs>
    <g transform="translate(398.242329545 38.2)scale(0.144 -0.144)">
     <use xlink:href="#BitstreamVeraSans-Bold-61"/>
     <use x="67.48046875" xlink:href="#BitstreamVeraSans-Bold-78"/>
     <use x="131.982421875" xlink:href="#BitstreamVeraSans-Bold-6f"/>
     <use x="200.68359375" xlink:href="#BitstreamVeraSans-Bold-6e"/>
    </g>
   </g>
  </g>
  <g id="axes_3">
   <g id="patch_12">
    <path d="
M72 266.824
L274.909 266.824
L274.909 165.176
L72 165.176
z
" style="fill:#ffffff;"/>
   </g>
   <g id="line2d_11">
    <path clip-path="url(#p68273c1835)" d="
M72.0406 246.957
L74.7596 245.487
L78.6554 243.667
L82.1049 241.976
L83.8905 240.856
L85.1079 239.836
L85.9601 238.841
L86.5283 237.867
L86.9341 236.716
L87.137 235.492
L87.1776 234.862
L87.5023 214.334
L87.5428 215.098
L87.9081 229.445
L88.2327 233.682
L88.5168 234.983
L88.6791 235.014
L88.8415 234.67
L89.1661 233.229
L89.6125 230.136
L89.6937 229.027
L89.9372 210.883
L89.9777 211.386
L90.1401 218.081
L90.3836 229.587
L90.7082 233.312
L91.0329 234.787
L91.2764 235.067
L91.4793 234.963
L91.9257 234.307
L92.3721 233.827
L92.7373 233.502
L92.8185 233.063
L93.062 217.399
L93.1431 218.543
L93.2649 224.413
L93.5489 238.302
L93.8736 243.263
L94.2794 246.066
L94.7258 247.647
L95.3751 249.026
L96.6737 251.713
L98.6623 255.986
L99.4739 257.161
L100.204 257.847
L100.935 258.227
L101.706 258.367
L102.558 258.287
L103.573 257.958
L104.871 257.285
L106.576 256.13
L109.214 254.039
L114.936 249.457
L117.655 247.602
L120.292 246.071
L123.377 244.552
L129.099 241.783
L130.762 240.692
L131.899 239.694
L132.71 238.693
L133.279 237.634
L133.644 236.443
L133.806 235.204
L133.887 228.636
L134.09 214.524
L134.131 214.285
L134.131 214.285
L134.131 214.285
L134.171 214.621
L134.699 231.804
L135.024 234.597
L135.226 235.071
L135.348 235.009
L135.551 234.478
L135.916 232.647
L136.282 229.928
L136.363 227.984
L136.566 210.973
L136.606 211.045
L136.769 216.699
L137.053 229.965
L137.377 233.454
L137.702 234.833
L137.945 235.068
L138.148 234.941
L139.447 233.26
L139.488 232.648
L139.731 217.503
L139.853 220.341
L140.299 240.365
L140.624 244.167
L141.03 246.519
L141.476 247.906
L142.288 249.535
L143.465 252.049
L145.21 255.821
L146.021 257.05
L146.752 257.782
L147.482 258.2
L148.213 258.366
L149.024 258.327
L149.998 258.052
L151.216 257.465
L152.798 256.44
L155.112 254.651
L162.335 248.906
L164.973 247.177
L167.651 245.687
L171.141 244.026
L175.321 242.002
L177.107 240.886
L178.324 239.875
L179.177 238.894
L179.785 237.857
L180.151 236.851
L180.353 235.804
L180.435 234.637
L180.719 214.321
L180.759 214.41
L180.881 220.215
L181.165 229.642
L181.49 233.794
L181.774 235.043
L181.896 235.089
L182.058 234.811
L182.342 233.665
L182.788 230.834
L182.951 228.96
L183.194 210.902
L183.235 211.466
L183.397 218.348
L183.641 229.65
L183.965 233.333
L184.29 234.792
L184.533 235.067
L184.736 234.96
L185.183 234.305
L185.629 233.831
L185.994 233.511
L186.075 233.067
L186.319 217.426
L186.4 218.591
L186.522 224.507
L186.806 238.342
L187.131 243.283
L187.536 246.08
L187.983 247.661
L188.632 249.043
L189.931 251.738
L191.919 256.015
L192.731 257.187
L193.461 257.869
L194.192 258.246
L194.963 258.382
L195.815 258.298
L196.83 257.965
L198.128 257.287
L199.833 256.127
L202.471 254.029
L208.152 249.466
L210.871 247.603
L213.509 246.067
L216.593 244.541
L222.274 241.784
L223.938 240.69
L225.075 239.688
L225.886 238.683
L226.454 237.614
L226.779 236.585
L226.941 235.568
L226.982 235.01
L227.307 214.321
L227.347 214.923
L227.753 230.157
L228.078 234.018
L228.321 235.045
L228.483 235.09
L228.646 234.757
L228.93 233.547
L229.376 230.64
L229.498 229.311
L229.62 217.172
L229.742 210.924
L229.782 211.159
L229.944 217.153
L230.188 229.34
L230.472 232.904
L230.797 234.641
L231.04 235.049
L231.243 235.012
L231.568 234.587
L232.136 233.871
L232.582 233.446
L232.623 233.24
L232.663 232.437
L232.866 217.494
L232.907 217.574
L233.029 220.557
L233.434 239.729
L233.759 243.878
L234.165 246.377
L234.611 247.83
L235.342 249.328
L236.559 251.897
L238.426 255.928
L239.238 257.131
L239.968 257.838
L240.699 258.235
L241.429 258.385
L242.281 258.323
L243.296 258.01
L244.554 257.372
L246.218 256.258
L248.734 254.273
L254.943 249.29
L257.621 247.474
L260.259 245.955
L263.424 244.404
L268.659 241.865
L270.364 240.764
L271.541 239.747
L272.352 238.766
L272.921 237.744
L273.286 236.644
L273.489 235.236
L273.57 228.792
L273.773 214.55
L273.813 214.3
L273.813 214.3
L273.813 214.3
L273.854 214.62
L274.422 232.382
L274.747 234.827
L274.869 235.108
L274.869 235.108" style="fill:none;stroke:#0000ff;stroke-linecap:square;"/>
   </g>
   <g id="patch_13">
    <path d="
M72 165.176
L274.909 165.176" style="fill:none;stroke:#000000;stroke-linecap:square;stroke-linejoin:miter;"/>
   </g>
   <g id="patch_14">
    <path d="
M274.909 266.824
L274.909 165.176" style="fill:none;stroke:#000000;stroke-linecap:square;stroke-linejoin:miter;"/>
   </g>
   <g id="patch_15">
    <path d="
M72 266.824
L274.909 266.824" style="fill:none;stroke:#000000;stroke-linecap:square;stroke-linejoin:miter;"/>
   </g>
   <g id="patch_16">
    <path d="
M72 266.824
L72 165.176" style="fill:none;stroke:#000000;stroke-linecap:square;stroke-linejoin:miter;"/>
   </g>
   <g id="matplotlib.axis_5"/>
   <g id="matplotlib.axis_6">
    <g id="ytick_5">
     <g id="line2d_12">
      <g>
       <use style="stroke:#000000;stroke-width:0.5;" x="72.0" xlink:href="#m728421d6d4" y="252.302521008"/>
      </g>
     </g>
     <g id="line2d_13">
      <g>
       <use style="stroke:#000000;stroke-width:0.5;" x="274.909090909" xlink:href="#mcb0005524f" y="252.302521008"/>
      </g>
     </g>
     <g id="text_7">
      <!-- −60 -->
      <g transform="translate(44.7425 255.613771008)scale(0.12 -0.12)">
       <use xlink:href="#BitstreamVeraSans-Roman-2212"/>
       <use x="83.7890625" xlink:href="#BitstreamVeraSans-Roman-36"/>
       <use x="147.412109375" xlink:href="#BitstreamVeraSans-Roman-30"/>
      </g>
     </g>
    </g>
    <g id="ytick_6">
     <g id="line2d_14">
      <g>
       <use style="stroke:#000000;stroke-width:0.5;" x="72.0" xlink:href="#m728421d6d4" y="208.739495798"/>
      </g>
     </g>
     <g id="line2d_15">
      <g>
       <use style="stroke:#000000;stroke-width:0.5;" x="274.909090909" xlink:href="#mcb0005524f" y="208.739495798"/>
      </g>
     </g>
     <g id="text_8">
      <!-- 0 -->
      <g transform="translate(61.953125 212.050745798)scale(0.12 -0.12)">
       <use xlink:href="#BitstreamVeraSans-Roman-30"/>
      </g>
     </g>
    </g>
   </g>
  </g>
  <g id="axes_4">
   <g id="patch_17">
    <path d="
M315.491 266.824
L518.4 266.824
L518.4 165.176
L315.491 165.176
z
" style="fill:#ffffff;"/>
   </g>
   <g id="line2d_16">
    <path clip-path="url(#pf4132cbc21)" d="
M315.531 247.159
L318.25 245.68
L321.984 243.932
L325.596 242.174
L327.3 241.102
L328.437 240.143
L329.248 239.18
L329.816 238.164
L330.182 237.094
L330.425 235.759
L330.587 233.392
L330.628 231.63
L330.669 224.289
L330.75 175.655
L330.79 180.89
L331.237 260.143
L331.318 259.788
L331.602 256.746
L332.982 237.758
L333.144 233.393
L333.185 226.62
L333.225 173.645
L333.306 178.154
L333.59 222.672
L333.753 262.836
L333.793 262.971
L333.834 262.85
L334.077 260.945
L334.564 254.942
L335.66 240.82
L336.228 234.575
L336.309 228.622
L336.391 174.682
L336.431 178.504
L336.715 237.33
L336.878 262.755
L336.918 262.864
L336.959 262.807
L337.162 261.833
L337.73 257.549
L338.379 253.265
L338.825 251.632
L339.191 251.009
L339.515 250.862
L339.84 251.001
L340.246 251.457
L340.895 252.576
L342.965 256.379
L343.736 257.264
L344.466 257.779
L345.197 258.031
L346.008 258.069
L346.942 257.879
L348.078 257.409
L349.539 256.551
L351.609 255.05
L361.024 247.885
L363.662 246.334
L366.665 244.836
L372.792 241.862
L374.294 240.842
L375.349 239.868
L376.08 238.899
L376.567 237.916
L376.932 236.64
L377.135 235.152
L377.256 232.574
L377.297 229.309
L377.378 174.96
L377.419 178.068
L377.865 260.137
L377.946 259.926
L378.19 257.488
L379.001 246.212
L379.773 234.422
L379.813 231.565
L379.894 173.719
L379.935 176.096
L380.219 218.475
L380.422 262.964
L380.462 262.936
L380.665 261.523
L381.112 256.36
L382.41 239.891
L382.857 235.077
L382.938 231.789
L383.019 174.004
L383.141 189.264
L383.587 262.86
L383.75 262.203
L384.196 259.028
L385.008 253.381
L385.454 251.698
L385.819 251.041
L386.144 250.873
L386.428 250.968
L386.834 251.384
L387.442 252.393
L389.796 256.633
L390.567 257.431
L391.298 257.874
L392.028 258.067
L392.84 258.056
L393.814 257.809
L395.031 257.252
L396.614 256.263
L398.887 254.553
L406.435 248.692
L409.113 246.994
L411.873 245.514
L416.053 243.569
L419.056 242.064
L420.679 241.014
L421.775 240.061
L422.546 239.116
L423.073 238.153
L423.439 237.071
L423.682 235.703
L423.844 233.159
L423.885 231.058
L423.966 176.036
L424.088 191.906
L424.453 260.081
L424.494 260.177
L424.494 260.177
L424.494 260.177
L424.615 259.427
L425.021 254.546
L426.36 235.084
L426.401 233.196
L426.442 224.737
L426.482 173.498
L426.563 178.519
L426.847 223.611
L427.01 262.882
L427.05 262.985
L427.091 262.852
L427.334 260.934
L427.821 254.926
L428.917 240.814
L429.485 234.564
L429.566 228.454
L429.648 174.716
L429.688 178.589
L429.972 237.821
L430.135 262.782
L430.175 262.884
L430.216 262.825
L430.419 261.849
L430.987 257.569
L431.636 253.286
L432.082 251.653
L432.448 251.03
L432.772 250.885
L433.097 251.024
L433.503 251.482
L434.152 252.603
L436.222 256.406
L436.993 257.287
L437.723 257.8
L438.454 258.048
L439.265 258.082
L440.199 257.888
L441.335 257.414
L442.796 256.55
L444.866 255.043
L454.24 247.887
L456.878 246.33
L459.881 244.827
L465.968 241.862
L467.47 240.84
L468.525 239.862
L469.255 238.887
L469.742 237.893
L470.067 236.787
L470.27 235.465
L470.392 233.572
L470.473 226.722
L470.554 175.277
L470.595 179.843
L471.041 260.199
L471.082 260.119
L471.285 258.341
L471.893 250.158
L472.948 234.114
L472.989 230.521
L473.07 173.962
L473.111 176.74
L473.395 219.687
L473.598 262.995
L473.679 262.73
L473.963 260.277
L474.49 253.424
L475.424 241.372
L476.033 234.984
L476.114 231.353
L476.195 174.031
L476.276 182.221
L476.722 262.88
L476.763 262.872
L476.925 262.197
L477.372 259.015
L478.183 253.383
L478.63 251.709
L478.995 251.059
L479.32 250.895
L479.604 250.993
L480.01 251.413
L480.618 252.426
L482.931 256.612
L483.703 257.424
L484.433 257.877
L485.163 258.078
L485.975 258.072
L486.949 257.83
L488.126 257.298
L489.668 256.343
L491.9 254.671
L499.854 248.502
L502.492 246.85
L505.292 245.365
L513.408 241.274
L514.626 240.294
L515.478 239.334
L516.087 238.309
L516.493 237.181
L516.736 235.921
L516.898 233.893
L516.98 229.502
L517.061 174.938
L517.142 185.447
L517.548 260.192
L517.588 260.184
L517.751 258.935
L518.238 252.7
L518.359 250.956
L518.359 250.956" style="fill:none;stroke:#0000ff;stroke-linecap:square;"/>
   </g>
   <g id="patch_18">
    <path d="
M315.491 165.176
L518.4 165.176" style="fill:none;stroke:#000000;stroke-linecap:square;stroke-linejoin:miter;"/>
   </g>
   <g id="patch_19">
    <path d="
M518.4 266.824
L518.4 165.176" style="fill:none;stroke:#000000;stroke-linecap:square;stroke-linejoin:miter;"/>
   </g>
   <g id="patch_20">
    <path d="
M315.491 266.824
L518.4 266.824" style="fill:none;stroke:#000000;stroke-linecap:square;stroke-linejoin:miter;"/>
   </g>
   <g id="patch_21">
    <path d="
M315.491 266.824
L315.491 165.176" style="fill:none;stroke:#000000;stroke-linecap:square;stroke-linejoin:miter;"/>
   </g>
   <g id="matplotlib.axis_7"/>
   <g id="matplotlib.axis_8">
    <g id="ytick_7">
     <g id="line2d_17">
      <g>
       <use style="stroke:#000000;stroke-width:0.5;" x="315.490909091" xlink:href="#m728421d6d4" y="252.302521008"/>
      </g>
     </g>
     <g id="line2d_18">
      <g>
       <use style="stroke:#000000;stroke-width:0.5;" x="518.4" xlink:href="#mcb0005524f" y="252.302521008"/>
      </g>
     </g>
     <g id="text_9">
      <!-- −60 -->
      <g transform="translate(288.233409091 255.613771008)scale(0.12 -0.12)">
       <use xlink:href="#BitstreamVeraSans-Roman-2212"/>
       <use x="83.7890625" xlink:href="#BitstreamVeraSans-Roman-36"/>
       <use x="147.412109375" xlink:href="#BitstreamVeraSans-Roman-30"/>
      </g>
     </g>
    </g>
    <g id="ytick_8">
     <g id="line2d_19">
      <g>
       <use style="stroke:#000000;stroke-width:0.5;" x="315.490909091" xlink:href="#m728421d6d4" y="208.739495798"/>
      </g>
     </g>
     <g id="line2d_20">
      <g>
       <use style="stroke:#000000;stroke-width:0.5;" x="518.4" xlink:href="#mcb0005524f" y="208.739495798"/>
      </g>
     </g>
     <g id="text_10">
      <!-- 0 -->
      <g transform="translate(305.444034091 212.050745798)scale(0.12 -0.12)">
       <use xlink:href="#BitstreamVeraSans-Roman-30"/>
      </g>
     </g>
    </g>
   </g>
  </g>
  <g id="axes_5">
   <g id="patch_22">
    <path d="
M72 388.8
L274.909 388.8
L274.909 287.153
L72 287.153
z
" style="fill:#ffffff;"/>
   </g>
   <g id="line2d_21">
    <path clip-path="url(#p5df05f4a8e)" d="
M72.0406 360.989
L72.6087 359.98
L72.974 358.883
L73.1363 357.874
L73.1769 357.276
L73.4609 336.755
L73.5015 336.877
L73.5827 340.232
L73.8668 352.511
L74.1914 357.269
L74.4755 358.707
L74.6378 358.791
L74.8001 358.493
L75.0842 357.334
L75.6524 353.79
L75.8553 351.901
L75.9364 344.889
L76.0988 333.413
L76.1393 333.58
L76.3017 339.484
L76.5452 351.507
L76.8698 355.251
L77.1945 356.785
L77.438 357.127
L77.6409 357.078
L78.0061 356.636
L78.4931 356.15
L78.8989 356.117
L79.0612 355.969
L79.1424 355.235
L79.3453 340.547
L79.3859 340.662
L79.5076 343.678
L79.9135 362.493
L80.2381 366.375
L80.6439 368.847
L81.1309 370.5
L82.0237 372.517
L83.4847 376.004
L84.6209 378.485
L85.392 379.674
L86.0819 380.356
L86.7718 380.727
L87.4617 380.852
L88.2733 380.763
L89.2473 380.414
L90.4647 379.724
L92.088 378.525
L94.4823 376.449
L100.935 370.738
L103.451 368.873
L105.926 367.319
L109.132 365.595
L112.501 363.731
L114.043 362.625
L115.098 361.606
L115.828 360.601
L116.315 359.559
L116.599 358.45
L116.721 357.125
L117.005 336.741
L117.046 336.942
L117.127 340.634
L117.411 352.641
L117.736 357.322
L118.02 358.722
L118.182 358.79
L118.344 358.481
L118.629 357.309
L119.197 353.752
L119.4 351.818
L119.481 344.219
L119.643 333.378
L119.684 333.669
L119.846 339.82
L120.089 351.608
L120.414 355.289
L120.739 356.799
L120.982 357.129
L121.185 357.074
L121.55 356.629
L121.997 356.167
L122.362 356.12
L122.565 356.041
L122.646 355.779
L122.687 354.988
L122.89 340.522
L122.971 341.457
L123.093 346.629
L123.336 359.9
L123.62 364.857
L124.026 368.063
L124.472 369.932
L125.081 371.472
L126.948 375.821
L128.125 378.422
L128.896 379.632
L129.586 380.331
L130.275 380.716
L130.965 380.852
L131.777 380.772
L132.751 380.431
L133.968 379.747
L135.551 378.586
L137.905 376.553
L144.601 370.635
L147.117 368.785
L149.592 367.243
L152.92 365.464
L156.045 363.724
L157.587 362.616
L158.642 361.593
L159.373 360.581
L159.86 359.525
L160.144 358.377
L160.225 357.67
L160.265 356.568
L160.509 336.928
L160.55 336.744
L160.59 337.132
L161.199 356.664
L161.483 358.554
L161.686 358.812
L161.848 358.562
L162.132 357.457
L162.66 354.251
L162.944 351.596
L163.187 333.365
L163.228 333.911
L163.39 340.692
L163.634 351.822
L163.958 355.372
L164.283 356.829
L164.527 357.133
L164.729 357.065
L165.135 356.558
L165.582 356.145
L166.15 355.923
L166.19 355.69
L166.272 348.959
L166.434 340.51
L166.515 341.727
L166.637 347.594
L166.88 360.211
L167.164 364.985
L167.57 368.128
L168.017 369.969
L168.625 371.499
L170.451 375.753
L171.669 378.446
L172.44 379.648
L173.13 380.342
L173.82 380.721
L174.51 380.853
L175.321 380.77
L176.295 380.426
L177.513 379.739
L179.095 378.576
L181.449 376.542
L188.145 370.624
L190.661 368.775
L193.137 367.234
L196.505 365.434
L199.589 363.713
L201.131 362.601
L202.186 361.572
L202.917 360.55
L203.404 359.472
L203.688 358.254
L203.769 357.374
L204.053 336.778
L204.134 337.625
L204.5 353.295
L204.824 357.578
L205.068 358.71
L205.23 358.806
L205.392 358.516
L205.677 357.367
L206.245 353.834
L206.448 351.987
L206.488 350.917
L206.691 333.476
L206.732 333.506
L206.894 339.177
L207.178 352.131
L207.503 355.495
L207.827 356.871
L208.071 357.137
L208.274 357.05
L208.761 356.431
L209.126 356.139
L209.654 355.99
L209.735 355.435
L209.978 340.605
L210.1 343.437
L210.546 363.074
L210.912 366.959
L211.358 369.33
L211.886 370.896
L215.173 378.406
L215.944 379.621
L216.634 380.326
L217.323 380.715
L218.013 380.853
L218.784 380.785
L219.718 380.473
L220.895 379.832
L222.437 378.723
L224.669 376.818
L232.055 370.321
L234.53 368.543
L237.046 367.015
L241.186 364.824
L243.499 363.459
L244.919 362.369
L245.893 361.347
L246.542 360.359
L246.989 359.267
L247.232 358.064
L247.313 356.37
L247.557 336.901
L247.598 336.753
L247.638 337.189
L248.166 355.728
L248.45 358.244
L248.693 358.825
L248.815 358.733
L249.018 358.17
L249.383 356.332
L249.911 352.637
L249.992 351.554
L250.235 333.373
L250.276 333.959
L250.438 340.852
L250.682 351.858
L251.006 355.386
L251.331 356.834
L251.575 357.135
L251.777 357.065
L252.183 356.557
L252.63 356.146
L253.198 355.922
L253.238 355.681
L253.36 344.936
L253.482 340.517
L253.522 340.917
L253.644 344.548
L253.969 361.234
L254.294 365.823
L254.699 368.556
L255.186 370.334
L255.957 372.122
L257.378 375.462
L258.676 378.377
L259.447 379.603
L260.137 380.315
L260.827 380.71
L261.517 380.853
L262.288 380.789
L263.222 380.481
L264.398 379.843
L265.941 378.735
L268.173 376.831
L274.909 370.845
L274.909 370.845" style="fill:none;stroke:#0000ff;stroke-linecap:square;"/>
   </g>
   <g id="patch_23">
    <path d="
M72 287.153
L274.909 287.153" style="fill:none;stroke:#000000;stroke-linecap:square;stroke-linejoin:miter;"/>
   </g>
   <g id="patch_24">
    <path d="
M274.909 388.8
L274.909 287.153" style="fill:none;stroke:#000000;stroke-linecap:square;stroke-linejoin:miter;"/>
   </g>
   <g id="patch_25">
    <path d="
M72 388.8
L274.909 388.8" style="fill:none;stroke:#000000;stroke-linecap:square;stroke-linejoin:miter;"/>
   </g>
   <g id="patch_26">
    <path d="
M72 388.8
L72 287.153" style="fill:none;stroke:#000000;stroke-linecap:square;stroke-linejoin:miter;"/>
   </g>
   <g id="matplotlib.axis_9">
    <g id="text_11">
     <!-- 1 s -->
     <defs>
      <path d="
M11.7188 12.9844
L28.3281 12.9844
L28.3281 60.1094
L11.2812 56.5938
L11.2812 69.3906
L28.2188 72.9062
L46.0938 72.9062
L46.0938 12.9844
L62.7031 12.9844
L62.7031 0
L11.7188 0
z
" id="BitstreamVeraSans-Bold-31"/>
      <path id="BitstreamVeraSans-Bold-20"/>
     </defs>
     <g transform="translate(163.904232955 402.918125)scale(0.12 -0.12)">
      <use xlink:href="#BitstreamVeraSans-Bold-31"/>
      <use x="69.580078125" xlink:href="#BitstreamVeraSans-Bold-20"/>
      <use x="104.39453125" xlink:href="#BitstreamVeraSans-Bold-73"/>
     </g>
    </g>
   </g>
   <g id="matplotlib.axis_10">
    <g id="ytick_9">
     <g id="line2d_22">
      <g>
       <use style="stroke:#000000;stroke-width:0.5;" x="72.0" xlink:href="#m728421d6d4" y="374.278991597"/>
      </g>
     </g>
     <g id="line2d_23">
      <g>
       <use style="stroke:#000000;stroke-width:0.5;" x="274.909090909" xlink:href="#mcb0005524f" y="374.278991597"/>
      </g>
     </g>
     <g id="text_12">
      <!-- −60 -->
      <g transform="translate(44.7425 377.590241597)scale(0.12 -0.12)">
       <use xlink:href="#BitstreamVeraSans-Roman-2212"/>
       <use x="83.7890625" xlink:href="#BitstreamVeraSans-Roman-36"/>
       <use x="147.412109375" xlink:href="#BitstreamVeraSans-Roman-30"/>
      </g>
     </g>
    </g>
    <g id="ytick_10">
     <g id="line2d_24">
      <g>
       <use style="stroke:#000000;stroke-width:0.5;" x="72.0" xlink:href="#m728421d6d4" y="330.715966387"/>
      </g>
     </g>
     <g id="line2d_25">
      <g>
       <use style="stroke:#000000;stroke-width:0.5;" x="274.909090909" xlink:href="#mcb0005524f" y="330.715966387"/>
      </g>
     </g>
     <g id="text_13">
      <!-- 0 -->
      <g transform="translate(61.953125 334.027216387)scale(0.12 -0.12)">
       <use xlink:href="#BitstreamVeraSans-Roman-30"/>
      </g>
     </g>
    </g>
   </g>
  </g>
  <g id="axes_6">
   <g id="patch_27">
    <path d="
M315.491 388.8
L518.4 388.8
L518.4 287.153
L315.491 287.153
z
" style="fill:#ffffff;"/>
   </g>
   <g id="line2d_26">
    <path clip-path="url(#p8ca55fdb04)" d="
M315.531 360.992
L316.018 359.924
L316.343 358.633
L316.546 356.69
L316.627 354.116
L316.668 347.268
L316.749 297.267
L316.79 302.435
L317.236 383.547
L317.358 382.884
L317.723 379.128
L319.062 361.384
L319.306 356.663
L319.346 353.816
L319.427 295.57
L319.468 297.881
L319.752 340.185
L319.955 385.598
L320.036 385.34
L320.32 383.118
L320.807 377.228
L321.903 363.289
L322.512 357.277
L322.593 354.077
L322.674 295.754
L322.796 311.118
L323.201 385.566
L323.242 385.532
L323.445 384.672
L323.932 381.293
L324.703 376.175
L325.149 374.559
L325.515 373.954
L325.799 373.832
L326.083 373.943
L326.489 374.397
L327.138 375.549
L328.964 378.97
L329.695 379.82
L330.384 380.301
L331.074 380.521
L331.845 380.526
L332.738 380.299
L333.834 379.779
L335.254 378.846
L337.243 377.25
L341.585 373.385
L344.832 370.666
L347.388 368.813
L349.904 367.267
L353.597 365.302
L356.154 363.833
L357.574 362.768
L358.508 361.807
L359.157 360.837
L359.603 359.787
L359.887 358.601
L360.05 357.216
L360.171 353.731
L360.212 343.543
L360.253 297.158
L360.334 303.486
L360.78 383.541
L360.943 382.506
L361.389 377.535
L362.809 357.843
L362.89 353.053
L362.972 295.746
L363.012 298.354
L363.296 341.093
L363.499 385.602
L363.621 385.067
L363.946 382.24
L364.514 374.858
L365.407 363.624
L366.056 357.174
L366.137 353.605
L366.218 295.846
L366.299 304.142
L366.746 385.57
L366.786 385.522
L366.989 384.646
L367.476 381.257
L368.247 376.153
L368.694 374.55
L369.059 373.952
L369.343 373.835
L369.627 373.949
L370.033 374.406
L370.682 375.561
L372.468 378.921
L373.198 379.789
L373.888 380.285
L374.578 380.516
L375.349 380.531
L376.242 380.312
L377.338 379.799
L378.758 378.871
L380.746 377.28
L384.926 373.559
L388.254 370.755
L390.811 368.889
L393.327 367.33
L396.857 365.446
L399.617 363.879
L401.037 362.829
L402.011 361.842
L402.661 360.89
L403.107 359.873
L403.432 358.529
L403.594 357.052
L403.675 355.222
L403.716 352.622
L403.797 296.342
L403.878 305.964
L404.284 383.546
L404.325 383.512
L404.487 382.404
L404.933 377.382
L406.354 357.507
L406.435 350.085
L406.475 295.428
L406.557 299.558
L406.841 343.63
L407.003 385.509
L407.043 385.594
L407.043 385.594
L407.043 385.594
L407.206 384.707
L407.571 381.206
L408.261 371.798
L408.951 363.515
L409.6 356.915
L409.681 352.027
L409.762 296.275
L409.803 299.733
L410.087 358.189
L410.249 385.509
L410.29 385.569
L410.331 385.495
L410.574 384.347
L411.183 379.934
L411.832 375.914
L412.279 374.432
L412.644 373.913
L412.928 373.843
L413.253 374.03
L413.699 374.614
L414.47 376.084
L415.85 378.698
L416.621 379.684
L417.311 380.227
L418.001 380.496
L418.731 380.546
L419.583 380.377
L420.638 379.926
L421.978 379.095
L423.804 377.68
L426.929 374.929
L431.271 371.164
L433.868 369.211
L436.344 367.627
L439.387 365.965
L443.08 363.92
L444.541 362.848
L445.515 361.869
L446.205 360.857
L446.651 359.819
L446.935 358.66
L447.138 356.767
L447.219 354.377
L447.26 349.039
L447.341 296.964
L447.382 301.674
L447.828 383.561
L447.869 383.443
L448.112 381.457
L448.64 374.962
L449.898 356.888
L449.938 354.445
L450.02 295.419
L450.101 301.819
L450.385 351.235
L450.547 385.593
L450.628 385.374
L450.912 383.177
L451.399 377.313
L452.536 362.975
L453.104 357.409
L453.185 354.592
L453.226 344.642
L453.266 295.807
L453.347 302.232
L453.794 385.562
L453.875 385.444
L454.118 384.242
L454.768 379.502
L455.376 375.837
L455.823 374.396
L456.188 373.904
L456.472 373.849
L456.797 374.049
L457.243 374.645
L458.055 376.208
L459.394 378.728
L460.165 379.703
L460.855 380.238
L461.545 380.501
L462.275 380.546
L463.128 380.372
L464.183 379.917
L465.522 379.082
L467.348 377.665
L470.513 374.874
L474.775 371.18
L477.372 369.225
L479.847 367.638
L482.891 365.974
L486.584 363.931
L488.045 362.862
L489.019 361.889
L489.709 360.886
L490.155 359.867
L490.439 358.749
L490.642 357.014
L490.723 355.12
L490.764 352.297
L490.845 296.345
L490.926 306.552
L491.332 383.557
L491.413 383.316
L491.697 380.774
L492.306 372.936
L493.442 355.71
L493.483 349.251
L493.523 295.329
L493.605 299.774
L493.889 344.152
L494.051 385.526
L494.091 385.594
L494.091 385.594
L494.091 385.594
L494.254 384.696
L494.619 381.188
L495.309 371.777
L495.999 363.503
L496.648 356.885
L496.729 351.789
L496.81 296.336
L496.851 299.889
L497.135 359.149
L497.297 385.518
L497.338 385.571
L497.379 385.495
L497.622 384.343
L498.231 379.929
L498.88 375.913
L499.327 374.434
L499.692 373.917
L499.976 373.848
L500.301 374.036
L500.747 374.621
L501.518 376.092
L502.898 378.705
L503.669 379.689
L504.359 380.231
L505.049 380.499
L505.779 380.548
L506.631 380.378
L507.686 379.926
L509.026 379.094
L510.852 377.678
L513.977 374.924
L518.278 371.191
L518.4 371.093
L518.4 371.093" style="fill:none;stroke:#0000ff;stroke-linecap:square;"/>
   </g>
   <g id="patch_28">
    <path d="
M315.491 287.153
L518.4 287.153" style="fill:none;stroke:#000000;stroke-linecap:square;stroke-linejoin:miter;"/>
   </g>
   <g id="patch_29">
    <path d="
M518.4 388.8
L518.4 287.153" style="fill:none;stroke:#000000;stroke-linecap:square;stroke-linejoin:miter;"/>
   </g>
   <g id="patch_30">
    <path d="
M315.491 388.8
L518.4 388.8" style="fill:none;stroke:#000000;stroke-linecap:square;stroke-linejoin:miter;"/>
   </g>
   <g id="patch_31">
    <path d="
M315.491 388.8
L315.491 287.153" style="fill:none;stroke:#000000;stroke-linecap:square;stroke-linejoin:miter;"/>
   </g>
   <g id="matplotlib.axis_11">
    <g id="text_14">
     <!-- 1 s -->
     <g transform="translate(407.395142045 402.918125)scale(0.12 -0.12)">
      <use xlink:href="#BitstreamVeraSans-Bold-31"/>
      <use x="69.580078125" xlink:href="#BitstreamVeraSans-Bold-20"/>
      <use x="104.39453125" xlink:href="#BitstreamVeraSans-Bold-73"/>
     </g>
    </g>
   </g>
   <g id="matplotlib.axis_12">
    <g id="ytick_11">
     <g id="line2d_27">
      <g>
       <use style="stroke:#000000;stroke-width:0.5;" x="315.490909091" xlink:href="#m728421d6d4" y="374.278991597"/>
      </g>
     </g>
     <g id="line2d_28">
      <g>
       <use style="stroke:#000000;stroke-width:0.5;" x="518.4" xlink:href="#mcb0005524f" y="374.278991597"/>
      </g>
     </g>
     <g id="text_15">
      <!-- −60 -->
      <g transform="translate(288.233409091 377.590241597)scale(0.12 -0.12)">
       <use xlink:href="#BitstreamVeraSans-Roman-2212"/>
       <use x="83.7890625" xlink:href="#BitstreamVeraSans-Roman-36"/>
       <use x="147.412109375" xlink:href="#BitstreamVeraSans-Roman-30"/>
      </g>
     </g>
    </g>
    <g id="ytick_12">
     <g id="line2d_29">
      <g>
       <use style="stroke:#000000;stroke-width:0.5;" x="315.490909091" xlink:href="#m728421d6d4" y="330.715966387"/>
      </g>
     </g>
     <g id="line2d_30">
      <g>
       <use style="stroke:#000000;stroke-width:0.5;" x="518.4" xlink:href="#mcb0005524f" y="330.715966387"/>
      </g>
     </g>
     <g id="text_16">
      <!-- 0 -->
      <g transform="translate(305.444034091 334.027216387)scale(0.12 -0.12)">
       <use xlink:href="#BitstreamVeraSans-Roman-30"/>
      </g>
     </g>
    </g>
   </g>
  </g>
 </g>
 <defs>
  <clipPath id="pf4132cbc21">
   <rect height="101.647058824" width="202.909090909" x="315.490909091" y="165.176470588"/>
  </clipPath>
  <clipPath id="p5df05f4a8e">
   <rect height="101.647058824" width="202.909090909" x="72.0" y="287.152941176"/>
  </clipPath>
  <clipPath id="pdf2bc2c95a">
   <rect height="101.647058824" width="202.909090909" x="72.0" y="43.2"/>
  </clipPath>
  <clipPath id="pbd5a3a9a46">
   <rect height="101.647058824" width="202.909090909" x="315.490909091" y="43.2"/>
  </clipPath>
  <clipPath id="p68273c1835">
   <rect height="101.647058824" width="202.909090909" x="72.0" y="165.176470588"/>
  </clipPath>
  <clipPath id="p8ca55fdb04">
   <rect height="101.647058824" width="202.909090909" x="315.490909091" y="287.152941176"/>
  </clipPath>
 </defs>
</svg>
