<?xml version="1.0" encoding="utf-8" standalone="no"?>
<!DOCTYPE svg PUBLIC "-//W3C//DTD SVG 1.1//EN"
  "http://www.w3.org/Graphics/SVG/1.1/DTD/svg11.dtd">
<!-- Created with matplotlib (http://matplotlib.org/) -->
<svg height="432pt" version="1.1" viewBox="0 0 576 432" width="576pt" xmlns="http://www.w3.org/2000/svg" xmlns:xlink="http://www.w3.org/1999/xlink">
 <defs>
  <style type="text/css">
*{stroke-linecap:butt;stroke-linejoin:round;}
  </style>
 </defs>
 <g id="figure_1">
  <g id="patch_1">
   <path d="
M0 432
L576 432
L576 0
L0 0
z
" style="fill:#ffffff;"/>
  </g>
  <g id="axes_1">
   <g id="patch_2">
    <path d="
M72 144.847
L274.909 144.847
L274.909 43.2
L72 43.2
z
" style="fill:#ffffff;"/>
   </g>
   <g id="line2d_1">
    <path clip-path="url(#pdf2bc2c95a)" d="
M72 126.696
L72.4058 125.947
L73.2986 124.923
L74.6378 123.71
L76.0988 122.688
L77.6815 121.851
L79.5076 121.144
L81.6179 120.573
L84.1745 120.119
L87.4617 119.773
L92.0068 119.533
L99.3116 119.394
L116.721 119.35
L274.869 119.213
L274.869 119.213" style="fill:none;stroke:#0000ff;stroke-linecap:square;"/>
   </g>
   <g id="patch_3">
    <path d="
M72 43.2
L274.909 43.2" style="fill:none;stroke:#000000;stroke-linecap:square;stroke-linejoin:miter;"/>
   </g>
   <g id="patch_4">
    <path d="
M274.909 144.847
L274.909 43.2" style="fill:none;stroke:#000000;stroke-linecap:square;stroke-linejoin:miter;"/>
   </g>
   <g id="patch_5">
    <path d="
M72 144.847
L274.909 144.847" style="fill:none;stroke:#000000;stroke-linecap:square;stroke-linejoin:miter;"/>
   </g>
   <g id="patch_6">
    <path d="
M72 144.847
L72 43.2" style="fill:none;stroke:#000000;stroke-linecap:square;stroke-linejoin:miter;"/>
   </g>
   <g id="matplotlib.axis_1"/>
   <g id="matplotlib.axis_2">
    <g id="ytick_1">
     <g id="line2d_2">
      <defs>
       <path d="
M0 0
L4 0" id="m728421d6d4" style="stroke:#000000;stroke-width:0.5;"/>
      </defs>
      <g>
       <use style="stroke:#000000;stroke-width:0.5;" x="72.0" xlink:href="#m728421d6d4" y="130.32605042"/>
      </g>
     </g>
     <g id="line2d_3">
      <defs>
       <path d="
M0 0
L-4 0" id="mcb0005524f" style="stroke:#000000;stroke-width:0.5;"/>
      </defs>
      <g>
       <use style="stroke:#000000;stroke-width:0.5;" x="274.909090909" xlink:href="#mcb0005524f" y="130.32605042"/>
      </g>
     </g>
     <g id="text_1">
      <!-- −60 -->
      <defs>
       <path d="
M10.5938 35.5
L73.1875 35.5
L73.1875 27.2031
L10.5938 27.2031
z
" id="BitstreamVeraSans-Roman-2212"/>
       <path d="
M31.7812 66.4062
Q24.1719 66.4062 20.3281 58.9062
Q16.5 51.4219 16.5 36.375
Q16.5 21.3906 20.3281 13.8906
Q24.1719 6.39062 31.7812 6.39062
Q39.4531 6.39062 43.2812 13.8906
Q47.125 21.3906 47.125 36.375
Q47.125 51.4219 43.2812 58.9062
Q39.4531 66.4062 31.7812 66.4062
M31.7812 74.2188
Q44.0469 74.2188 50.5156 64.5156
Q56.9844 54.8281 56.9844 36.375
Q56.9844 17.9688 50.5156 8.26562
Q44.0469 -1.42188 31.7812 -1.42188
Q19.5312 -1.42188 13.0625 8.26562
Q6.59375 17.9688 6.59375 36.375
Q6.59375 54.8281 13.0625 64.5156
Q19.5312 74.2188 31.7812 74.2188" id="BitstreamVeraSans-Roman-30"/>
       <path d="
M33.0156 40.375
Q26.375 40.375 22.4844 35.8281
Q18.6094 31.2969 18.6094 23.3906
Q18.6094 15.5312 22.4844 10.9531
Q26.375 6.39062 33.0156 6.39062
Q39.6562 6.39062 43.5312 10.9531
Q47.4062 15.5312 47.4062 23.3906
Q47.4062 31.2969 43.5312 35.8281
Q39.6562 40.375 33.0156 40.375
M52.5938 71.2969
L52.5938 62.3125
Q48.875 64.0625 45.0938 64.9844
Q41.3125 65.9219 37.5938 65.9219
Q27.8281 65.9219 22.6719 59.3281
Q17.5312 52.7344 16.7969 39.4062
Q19.6719 43.6562 24.0156 45.9219
Q28.375 48.1875 33.5938 48.1875
Q44.5781 48.1875 50.9531 41.5156
Q57.3281 34.8594 57.3281 23.3906
Q57.3281 12.1562 50.6875 5.35938
Q44.0469 -1.42188 33.0156 -1.42188
Q20.3594 -1.42188 13.6719 8.26562
Q6.98438 17.9688 6.98438 36.375
Q6.98438 53.6562 15.1875 63.9375
Q23.3906 74.2188 37.2031 74.2188
Q40.9219 74.2188 44.7031 73.4844
Q48.4844 72.75 52.5938 71.2969" id="BitstreamVeraSans-Roman-36"/>
      </defs>
      <g transform="translate(44.7425 133.63730042)scale(0.12 -0.12)">
       <use xlink:href="#BitstreamVeraSans-Roman-2212"/>
       <use x="83.7890625" xlink:href="#BitstreamVeraSans-Roman-36"/>
       <use x="147.412109375" xlink:href="#BitstreamVeraSans-Roman-30"/>
      </g>
     </g>
    </g>
    <g id="ytick_2">
     <g id="line2d_4">
      <g>
       <use style="stroke:#000000;stroke-width:0.5;" x="72.0" xlink:href="#m728421d6d4" y="86.7630252101"/>
      </g>
     </g>
     <g id="line2d_5">
      <g>
       <use style="stroke:#000000;stroke-width:0.5;" x="274.909090909" xlink:href="#mcb0005524f" y="86.7630252101"/>
      </g>
     </g>
     <g id="text_2">
      <!-- 0 -->
      <g transform="translate(61.953125 90.0742752101)scale(0.12 -0.12)">
       <use xlink:href="#BitstreamVeraSans-Roman-30"/>
      </g>
     </g>
    </g>
   </g>
   <g id="text_3">
    <!-- soma -->
    <defs>
     <path d="
M51.125 52.9844
L51.125 39.7031
Q45.5156 42.0469 40.2812 43.2188
Q35.0625 44.3906 30.4219 44.3906
Q25.4375 44.3906 23.0156 43.1406
Q20.6094 41.8906 20.6094 39.3125
Q20.6094 37.2031 22.4375 36.0781
Q24.2656 34.9688 29 34.4219
L32.0781 33.9844
Q45.5156 32.2812 50.1406 28.375
Q54.7812 24.4688 54.7812 16.1094
Q54.7812 7.375 48.3281 2.96875
Q41.8906 -1.42188 29.1094 -1.42188
Q23.6875 -1.42188 17.8906 -0.5625
Q12.1094 0.296875 6 2
L6 15.2812
Q11.2344 12.75 16.7188 11.4688
Q22.2188 10.2031 27.875 10.2031
Q33.0156 10.2031 35.5938 11.6094
Q38.1875 13.0312 38.1875 15.8281
Q38.1875 18.1719 36.4062 19.3125
Q34.625 20.4531 29.2969 21.0938
L26.2188 21.4844
Q14.5469 22.9531 9.85938 26.9062
Q5.17188 30.8594 5.17188 38.9219
Q5.17188 47.6094 11.125 51.7969
Q17.0938 56 29.3906 56
Q34.2344 56 39.5469 55.2656
Q44.875 54.5469 51.125 52.9844" id="BitstreamVeraSans-Bold-73"/>
     <path d="
M32.9062 24.6094
Q27.4375 24.6094 24.6719 22.75
Q21.9219 20.9062 21.9219 17.2812
Q21.9219 13.9688 24.1406 12.0781
Q26.375 10.2031 30.3281 10.2031
Q35.25 10.2031 38.625 13.7344
Q42 17.2812 42 22.6094
L42 24.6094
z

M59.625 31.2031
L59.625 0
L42 0
L42 8.10938
Q38.4844 3.125 34.0781 0.84375
Q29.6875 -1.42188 23.3906 -1.42188
Q14.8906 -1.42188 9.59375 3.53125
Q4.29688 8.5 4.29688 16.4062
Q4.29688 26.0312 10.9062 30.5156
Q17.5312 35.0156 31.6875 35.0156
L42 35.0156
L42 36.375
Q42 40.5312 38.7188 42.4531
Q35.4531 44.3906 28.5156 44.3906
Q22.9062 44.3906 18.0625 43.2656
Q13.2344 42.1406 9.07812 39.8906
L9.07812 53.2188
Q14.7031 54.5938 20.3594 55.2969
Q26.0312 56 31.6875 56
Q46.4844 56 53.0469 50.1719
Q59.625 44.3438 59.625 31.2031" id="BitstreamVeraSans-Bold-61"/>
     <path d="
M34.4219 43.5
Q28.6094 43.5 25.5625 39.3281
Q22.5156 35.1562 22.5156 27.2969
Q22.5156 19.4375 25.5625 15.25
Q28.6094 11.0781 34.4219 11.0781
Q40.1406 11.0781 43.1562 15.25
Q46.1875 19.4375 46.1875 27.2969
Q46.1875 35.1562 43.1562 39.3281
Q40.1406 43.5 34.4219 43.5
M34.4219 56
Q48.5312 56 56.4688 48.375
Q64.4062 40.7656 64.4062 27.2969
Q64.4062 13.8125 56.4688 6.1875
Q48.5312 -1.42188 34.4219 -1.42188
Q20.2656 -1.42188 12.2812 6.1875
Q4.29688 13.8125 4.29688 27.2969
Q4.29688 40.7656 12.2812 48.375
Q20.2656 56 34.4219 56" id="BitstreamVeraSans-Bold-6f"/>
     <path d="
M59.0781 45.6094
Q62.4062 50.6875 66.9688 53.3438
Q71.5312 56 77 56
Q86.4219 56 91.3594 50.1875
Q96.2969 44.3906 96.2969 33.2969
L96.2969 0
L78.7188 0
L78.7188 28.5156
Q78.7656 29.1562 78.7812 29.8281
Q78.8125 30.5156 78.8125 31.7812
Q78.8125 37.5938 77.0938 40.2031
Q75.3906 42.8281 71.5781 42.8281
Q66.6094 42.8281 63.8906 38.7188
Q61.1875 34.625 61.0781 26.8594
L61.0781 0
L43.5 0
L43.5 28.5156
Q43.5 37.5938 41.9375 40.2031
Q40.375 42.8281 36.375 42.8281
Q31.3438 42.8281 28.6094 38.7031
Q25.875 34.5781 25.875 26.9062
L25.875 0
L8.29688 0
L8.29688 54.6875
L25.875 54.6875
L25.875 46.6875
Q29.1094 51.3125 33.2812 53.6562
Q37.4531 56 42.4844 56
Q48.1406 56 52.4844 53.2656
Q56.8438 50.5312 59.0781 45.6094" id="BitstreamVeraSans-Bold-6d"/>
    </defs>
    <g transform="translate(152.799545455 38.2)scale(0.144 -0.144)">
     <use xlink:href="#BitstreamVeraSans-Bold-73"/>
     <use x="59.521484375" xlink:href="#BitstreamVeraSans-Bold-6f"/>
     <use x="128.22265625" xlink:href="#BitstreamVeraSans-Bold-6d"/>
     <use x="232.421875" xlink:href="#BitstreamVeraSans-Bold-61"/>
    </g>
   </g>
  </g>
  <g id="axes_2">
   <g id="patch_7">
    <path d="
M315.491 144.847
L518.4 144.847
L518.4 43.2
L315.491 43.2
z
" style="fill:#ffffff;"/>
   </g>
   <g id="line2d_6">
    <path clip-path="url(#pbd5a3a9a46)" d="
M315.491 126.696
L315.734 126.546
L316.708 125.429
L318.048 124.106
L319.468 123.018
L321.01 122.117
L322.755 121.364
L324.744 120.753
L327.138 120.258
L330.141 119.875
L334.199 119.598
L340.327 119.426
L352.38 119.354
L518.359 119.209
L518.359 119.209" style="fill:none;stroke:#0000ff;stroke-linecap:square;"/>
   </g>
   <g id="patch_8">
    <path d="
M315.491 43.2
L518.4 43.2" style="fill:none;stroke:#000000;stroke-linecap:square;stroke-linejoin:miter;"/>
   </g>
   <g id="patch_9">
    <path d="
M518.4 144.847
L518.4 43.2" style="fill:none;stroke:#000000;stroke-linecap:square;stroke-linejoin:miter;"/>
   </g>
   <g id="patch_10">
    <path d="
M315.491 144.847
L518.4 144.847" style="fill:none;stroke:#000000;stroke-linecap:square;stroke-linejoin:miter;"/>
   </g>
   <g id="patch_11">
    <path d="
M315.491 144.847
L315.491 43.2" style="fill:none;stroke:#000000;stroke-linecap:square;stroke-linejoin:miter;"/>
   </g>
   <g id="matplotlib.axis_3"/>
   <g id="matplotlib.axis_4">
    <g id="ytick_3">
     <g id="line2d_7">
      <g>
       <use style="stroke:#000000;stroke-width:0.5;" x="315.490909091" xlink:href="#m728421d6d4" y="130.32605042"/>
      </g>
     </g>
     <g id="line2d_8">
      <g>
       <use style="stroke:#000000;stroke-width:0.5;" x="518.4" xlink:href="#mcb0005524f" y="130.32605042"/>
      </g>
     </g>
     <g id="text_4">
      <!-- −60 -->
      <g transform="translate(288.233409091 133.63730042)scale(0.12 -0.12)">
       <use xlink:href="#BitstreamVeraSans-Roman-2212"/>
       <use x="83.7890625" xlink:href="#BitstreamVeraSans-Roman-36"/>
       <use x="147.412109375" xlink:href="#BitstreamVeraSans-Roman-30"/>
      </g>
     </g>
    </g>
    <g id="ytick_4">
     <g id="line2d_9">
      <g>
       <use style="stroke:#000000;stroke-width:0.5;" x="315.490909091" xlink:href="#m728421d6d4" y="86.7630252101"/>
      </g>
     </g>
     <g id="line2d_10">
      <g>
       <use style="stroke:#000000;stroke-width:0.5;" x="518.4" xlink:href="#mcb0005524f" y="86.7630252101"/>
      </g>
     </g>
     <g id="text_5">
      <!-- 0 -->
      <g transform="translate(305.444034091 90.0742752101)scale(0.12 -0.12)">
       <use xlink:href="#BitstreamVeraSans-Roman-30"/>
      </g>
     </g>
    </g>
   </g>
   <g id="text_6">
    <!-- axon -->
    <defs>
     <path d="
M22.2188 27.9844
L2.48438 54.6875
L21 54.6875
L32.1719 38.4844
L43.5 54.6875
L62.0156 54.6875
L42.2812 28.0781
L62.9844 0
L44.4844 0
L32.1719 17.2812
L20.0156 0
L1.51562 0
z
" id="BitstreamVeraSans-Bold-78"/>
     <path d="
M63.375 33.2969
L63.375 0
L45.7969 0
L45.7969 5.42188
L45.7969 25.4844
Q45.7969 32.5625 45.4844 35.25
Q45.1719 37.9375 44.3906 39.2031
Q43.3594 40.9219 41.5938 41.875
Q39.8438 42.8281 37.5938 42.8281
Q32.125 42.8281 29 38.5938
Q25.875 34.375 25.875 26.9062
L25.875 0
L8.40625 0
L8.40625 54.6875
L25.875 54.6875
L25.875 46.6875
Q29.8281 51.4688 34.2656 53.7344
Q38.7188 56 44.0938 56
Q53.5625 56 58.4688 50.1875
Q63.375 44.3906 63.375 33.2969" id="BitstreamVeraSans-Bold-6e"/>
    </defs>
    <g transform="translate(398.242329545 38.2)scale(0.144 -0.144)">
     <use xlink:href="#BitstreamVeraSans-Bold-61"/>
     <use x="67.48046875" xlink:href="#BitstreamVeraSans-Bold-78"/>
     <use x="131.982421875" xlink:href="#BitstreamVeraSans-Bold-6f"/>
     <use x="200.68359375" xlink:href="#BitstreamVeraSans-Bold-6e"/>
    </g>
   </g>
  </g>
  <g id="axes_3">
   <g id="patch_12">
    <path d="
M72 266.824
L274.909 266.824
L274.909 165.176
L72 165.176
z
" style="fill:#ffffff;"/>
   </g>
   <g id="line2d_11">
    <path clip-path="url(#p68273c1835)" d="
M72.0406 240.931
L73.9885 240.017
L75.1248 239.26
L75.8553 238.534
L76.3423 237.767
L76.6669 236.851
L76.8292 235.82
L76.8698 235.071
L77.2756 208.016
L77.3162 207.703
L77.4785 211.675
L77.8032 217.192
L78.1279 219.61
L78.3713 220.193
L78.4119 220.097
L78.4525 219.026
L78.6554 207.833
L78.7366 209.107
L79.0612 220.992
L79.3453 232.284
L79.7511 238.95
L80.1164 241.749
L80.441 242.746
L80.7251 242.97
L81.0092 242.878
L81.6585 242.302
L82.3078 241.858
L82.8759 241.732
L83.4847 241.832
L84.2557 242.198
L85.7978 243.248
L87.3399 244.184
L88.5574 244.664
L89.7748 244.9
L91.0735 244.921
L92.575 244.716
L94.5635 244.204
L98.0535 243.029
L104.506 240.644
L106.17 239.784
L107.184 239.021
L107.834 238.272
L108.28 237.407
L108.524 236.501
L108.645 235.283
L109.092 207.683
L109.214 210.371
L109.538 216.648
L109.863 219.39
L110.106 220.196
L110.187 220.148
L110.228 219.64
L110.431 207.836
L110.512 208.918
L110.837 220.443
L111.121 232.097
L111.527 238.862
L111.892 241.712
L112.217 242.735
L112.501 242.971
L112.785 242.885
L113.393 242.348
L114.083 241.864
L114.651 241.734
L115.26 241.832
L116.031 242.197
L117.533 243.22
L119.115 244.186
L120.333 244.668
L121.55 244.906
L122.849 244.928
L124.351 244.724
L126.339 244.211
L129.829 243.035
L136.282 240.649
L137.945 239.79
L138.96 239.029
L139.609 238.282
L140.056 237.424
L140.299 236.535
L140.421 235.411
L140.583 218.99
L140.827 208.252
L140.867 207.689
L140.908 208.04
L141.395 217.505
L141.72 219.756
L141.922 220.232
L141.963 220.185
L142.004 219.866
L142.207 207.861
L142.288 208.777
L142.612 219.999
L142.896 231.945
L143.302 238.791
L143.667 241.682
L143.992 242.726
L144.276 242.973
L144.56 242.892
L145.169 242.356
L145.859 241.869
L146.427 241.737
L147.036 241.833
L147.807 242.197
L149.308 243.22
L150.891 244.189
L152.109 244.673
L153.326 244.912
L154.625 244.934
L156.126 244.731
L158.074 244.23
L161.483 243.084
L168.057 240.654
L169.721 239.795
L170.736 239.035
L171.385 238.291
L171.831 237.437
L172.075 236.559
L172.197 235.492
L172.278 228.273
L172.521 210.597
L172.643 207.705
L172.683 207.96
L173.211 217.873
L173.536 219.908
L173.698 220.248
L173.739 220.214
L173.779 219.972
L173.982 207.896
L174.023 208.016
L174.185 212.219
L174.429 222.384
L174.713 232.775
L175.118 239.185
L175.484 241.854
L175.808 242.785
L176.052 242.974
L176.336 242.897
L176.904 242.401
L177.634 241.873
L178.203 241.739
L178.811 241.834
L179.582 242.198
L181.084 243.222
L182.667 244.193
L183.884 244.677
L185.102 244.918
L186.4 244.941
L187.902 244.738
L189.85 244.237
L193.258 243.089
L199.833 240.658
L201.497 239.799
L202.511 239.04
L203.16 238.296
L203.607 237.446
L203.85 236.575
L203.972 235.539
L204.053 228.599
L204.297 210.677
L204.418 207.717
L204.459 207.912
L204.987 217.859
L205.311 219.912
L205.474 220.264
L205.514 220.238
L205.555 220.033
L205.758 207.931
L205.798 207.995
L205.961 212.116
L206.245 224.574
L206.529 233.578
L206.935 239.567
L207.3 242.017
L207.624 242.838
L207.868 242.98
L208.152 242.875
L208.923 242.191
L209.532 241.827
L210.1 241.743
L210.749 241.894
L211.601 242.35
L215.132 244.503
L216.309 244.84
L217.567 244.963
L218.947 244.868
L220.651 244.518
L223.127 243.758
L230.107 241.275
L232.461 240.257
L233.759 239.474
L234.611 238.713
L235.179 237.898
L235.504 237.09
L235.707 236.038
L235.788 233.788
L236.072 210.707
L236.194 207.72
L236.235 207.891
L236.762 217.858
L237.087 219.922
L237.249 220.279
L237.29 220.257
L237.33 220.071
L237.533 207.96
L237.574 207.991
L237.696 210.772
L238.02 224.474
L238.304 233.542
L238.71 239.55
L239.075 242.011
L239.4 242.838
L239.643 242.982
L239.928 242.878
L240.699 242.195
L241.307 241.83
L241.875 241.745
L242.525 241.896
L243.377 242.352
L246.908 244.508
L248.085 244.846
L249.343 244.969
L250.722 244.874
L252.427 244.524
L254.902 243.763
L261.882 241.278
L264.236 240.259
L265.535 239.476
L266.387 238.714
L266.955 237.899
L267.28 237.091
L267.483 236.036
L267.564 233.742
L267.848 210.689
L267.97 207.711
L268.01 207.894
L268.538 217.872
L268.862 219.936
L269.025 220.295
L269.065 220.274
L269.106 220.092
L269.309 207.978
L269.349 208
L269.471 210.767
L269.796 224.456
L270.08 233.537
L270.486 239.548
L270.851 242.011
L271.176 242.839
L271.419 242.984
L271.703 242.881
L272.434 242.231
L273.083 241.832
L273.651 241.748
L274.3 241.899
L274.869 242.181
L274.869 242.181" style="fill:none;stroke:#0000ff;stroke-linecap:square;"/>
   </g>
   <g id="patch_13">
    <path d="
M72 165.176
L274.909 165.176" style="fill:none;stroke:#000000;stroke-linecap:square;stroke-linejoin:miter;"/>
   </g>
   <g id="patch_14">
    <path d="
M274.909 266.824
L274.909 165.176" style="fill:none;stroke:#000000;stroke-linecap:square;stroke-linejoin:miter;"/>
   </g>
   <g id="patch_15">
    <path d="
M72 266.824
L274.909 266.824" style="fill:none;stroke:#000000;stroke-linecap:square;stroke-linejoin:miter;"/>
   </g>
   <g id="patch_16">
    <path d="
M72 266.824
L72 165.176" style="fill:none;stroke:#000000;stroke-linecap:square;stroke-linejoin:miter;"/>
   </g>
   <g id="matplotlib.axis_5"/>
   <g id="matplotlib.axis_6">
    <g id="ytick_5">
     <g id="line2d_12">
      <g>
       <use style="stroke:#000000;stroke-width:0.5;" x="72.0" xlink:href="#m728421d6d4" y="252.302521008"/>
      </g>
     </g>
     <g id="line2d_13">
      <g>
       <use style="stroke:#000000;stroke-width:0.5;" x="274.909090909" xlink:href="#mcb0005524f" y="252.302521008"/>
      </g>
     </g>
     <g id="text_7">
      <!-- −60 -->
      <g transform="translate(44.7425 255.613771008)scale(0.12 -0.12)">
       <use xlink:href="#BitstreamVeraSans-Roman-2212"/>
       <use x="83.7890625" xlink:href="#BitstreamVeraSans-Roman-36"/>
       <use x="147.412109375" xlink:href="#BitstreamVeraSans-Roman-30"/>
      </g>
     </g>
    </g>
    <g id="ytick_6">
     <g id="line2d_14">
      <g>
       <use style="stroke:#000000;stroke-width:0.5;" x="72.0" xlink:href="#m728421d6d4" y="208.739495798"/>
      </g>
     </g>
     <g id="line2d_15">
      <g>
       <use style="stroke:#000000;stroke-width:0.5;" x="274.909090909" xlink:href="#mcb0005524f" y="208.739495798"/>
      </g>
     </g>
     <g id="text_8">
      <!-- 0 -->
      <g transform="translate(61.953125 212.050745798)scale(0.12 -0.12)">
       <use xlink:href="#BitstreamVeraSans-Roman-30"/>
      </g>
     </g>
    </g>
   </g>
  </g>
  <g id="axes_4">
   <g id="patch_17">
    <path d="
M315.491 266.824
L518.4 266.824
L518.4 165.176
L315.491 165.176
z
" style="fill:#ffffff;"/>
   </g>
   <g id="line2d_16">
    <path clip-path="url(#pf4132cbc21)" d="
M315.531 240.875
L317.317 239.948
L318.413 239.137
L319.143 238.317
L319.63 237.433
L319.955 236.384
L320.158 235.038
L320.28 232.886
L320.32 230.785
L320.442 175.389
L320.523 184.816
L320.969 253.035
L321.01 253.301
L321.051 253.151
L321.213 250.76
L321.822 236.591
L321.903 232.037
L321.984 173.554
L322.025 175.002
L322.187 190.421
L322.512 240.424
L322.674 260.777
L322.714 260.889
L322.755 260.779
L322.999 258.843
L324.216 247.988
L324.784 245.22
L325.352 243.514
L325.88 242.555
L326.407 242.03
L326.894 241.837
L327.422 241.862
L328.112 242.139
L329.289 242.911
L331.155 244.096
L332.373 244.595
L333.59 244.85
L334.889 244.886
L336.391 244.694
L338.298 244.211
L341.382 243.167
L346.901 241.061
L348.849 240.101
L350.026 239.287
L350.797 238.494
L351.325 237.634
L351.69 236.59
L351.933 235.112
L352.055 233.114
L352.096 231.328
L352.136 223.935
L352.217 175.128
L352.258 177.905
L352.786 253.309
L352.867 252.85
L353.11 248.397
L353.638 235.42
L353.678 232.953
L353.76 173.39
L353.841 176.924
L354.206 215.882
L354.287 236.155
L354.449 260.718
L354.49 260.898
L354.531 260.82
L354.734 259.31
L356.113 247.33
L356.681 244.814
L357.25 243.267
L357.777 242.412
L358.305 241.966
L358.792 241.828
L359.36 241.907
L360.09 242.254
L361.673 243.336
L363.134 244.199
L364.351 244.659
L365.569 244.876
L366.867 244.88
L368.41 244.652
L370.398 244.119
L373.807 242.939
L378.961 240.942
L380.787 240.011
L381.883 239.225
L382.613 238.451
L383.141 237.561
L383.465 236.615
L383.709 235.169
L383.831 233.276
L383.912 226.249
L383.993 175.013
L384.034 177.338
L384.358 230.242
L384.521 252.857
L384.561 253.309
L384.602 253.266
L384.764 251.039
L385.373 237.046
L385.454 233.526
L385.495 221.791
L385.535 173.299
L385.616 176.471
L385.9 207.538
L386.063 232.564
L386.225 260.656
L386.266 260.9
L386.306 260.852
L386.509 259.379
L387.929 247.15
L388.498 244.703
L389.066 243.201
L389.593 242.375
L390.121 241.951
L390.608 241.829
L391.176 241.922
L391.947 242.304
L395.762 244.551
L396.939 244.834
L398.197 244.908
L399.658 244.76
L401.484 244.333
L404.243 243.428
L409.965 241.277
L412.157 240.25
L413.415 239.433
L414.226 238.661
L414.795 237.822
L415.16 236.923
L415.403 235.831
L415.566 234.218
L415.647 231.911
L415.687 227.414
L415.769 174.989
L415.809 176.961
L416.134 228.997
L416.296 252.79
L416.337 253.308
L416.418 252.99
L416.661 248.647
L417.23 233.899
L417.27 226.341
L417.311 173.281
L417.392 176.144
L417.635 202.75
L417.838 229.987
L418.001 260.6
L418.041 260.899
L418.122 260.698
L418.406 258.27
L419.502 248.39
L420.07 245.471
L420.638 243.669
L421.166 242.649
L421.694 242.08
L422.181 241.857
L422.708 241.859
L423.357 242.098
L424.413 242.768
L426.523 244.125
L427.74 244.621
L428.958 244.871
L430.256 244.903
L431.758 244.707
L433.665 244.22
L436.749 243.172
L442.269 241.058
L444.216 240.093
L445.393 239.271
L446.164 238.465
L446.692 237.58
L447.017 236.646
L447.26 235.236
L447.382 233.455
L447.463 228.001
L447.544 175.004
L447.585 176.74
L447.909 228.251
L448.072 252.75
L448.153 253.331
L448.193 253.033
L448.437 248.721
L449.005 234.134
L449.046 228.14
L449.086 173.342
L449.167 175.925
L449.37 197.596
L449.614 228.373
L449.776 260.557
L449.857 260.893
L449.898 260.725
L450.182 258.313
L451.278 248.42
L451.846 245.49
L452.414 243.681
L452.942 242.657
L453.469 242.085
L453.956 241.861
L454.484 241.861
L455.133 242.099
L456.188 242.77
L458.298 244.129
L459.516 244.626
L460.733 244.877
L462.032 244.91
L463.533 244.713
L465.441 244.226
L468.525 243.177
L474.044 241.062
L475.992 240.096
L477.169 239.275
L477.94 238.469
L478.467 237.585
L478.833 236.487
L479.036 235.248
L479.157 233.483
L479.239 228.216
L479.32 175.015
L479.36 176.652
L479.644 219.939
L479.888 253.323
L479.928 253.352
L480.05 251.947
L480.497 242.255
L480.781 234.26
L480.821 228.903
L480.862 173.44
L480.943 175.803
L481.146 197.348
L481.389 227.535
L481.552 260.535
L481.633 260.906
L481.673 260.743
L481.958 258.341
L483.053 248.44
L483.621 245.503
L484.19 243.69
L484.717 242.663
L485.245 242.09
L485.732 241.864
L486.259 241.864
L486.909 242.102
L487.964 242.774
L490.074 244.134
L491.291 244.632
L492.509 244.883
L493.807 244.916
L495.309 244.719
L497.216 244.232
L500.301 243.181
L505.86 241.047
L507.768 240.099
L508.944 239.277
L509.715 238.47
L510.243 237.587
L510.608 236.487
L510.811 235.247
L510.933 233.474
L511.014 228.124
L511.095 175.001
L511.136 176.689
L511.461 228.086
L511.623 252.773
L511.704 253.367
L511.745 253.072
L511.988 248.769
L512.556 234.293
L512.597 229.075
L512.637 173.475
L512.719 175.772
L512.921 197.283
L513.165 227.337
L513.327 260.536
L513.408 260.914
L513.449 260.753
L513.733 258.354
L514.829 248.45
L515.397 245.51
L515.965 243.694
L516.493 242.666
L517.02 242.093
L517.507 241.867
L518.035 241.867
L518.359 241.96
L518.359 241.96" style="fill:none;stroke:#0000ff;stroke-linecap:square;"/>
   </g>
   <g id="patch_18">
    <path d="
M315.491 165.176
L518.4 165.176" style="fill:none;stroke:#000000;stroke-linecap:square;stroke-linejoin:miter;"/>
   </g>
   <g id="patch_19">
    <path d="
M518.4 266.824
L518.4 165.176" style="fill:none;stroke:#000000;stroke-linecap:square;stroke-linejoin:miter;"/>
   </g>
   <g id="patch_20">
    <path d="
M315.491 266.824
L518.4 266.824" style="fill:none;stroke:#000000;stroke-linecap:square;stroke-linejoin:miter;"/>
   </g>
   <g id="patch_21">
    <path d="
M315.491 266.824
L315.491 165.176" style="fill:none;stroke:#000000;stroke-linecap:square;stroke-linejoin:miter;"/>
   </g>
   <g id="matplotlib.axis_7"/>
   <g id="matplotlib.axis_8">
    <g id="ytick_7">
     <g id="line2d_17">
      <g>
       <use style="stroke:#000000;stroke-width:0.5;" x="315.490909091" xlink:href="#m728421d6d4" y="252.302521008"/>
      </g>
     </g>
     <g id="line2d_18">
      <g>
       <use style="stroke:#000000;stroke-width:0.5;" x="518.4" xlink:href="#mcb0005524f" y="252.302521008"/>
      </g>
     </g>
     <g id="text_9">
      <!-- −60 -->
      <g transform="translate(288.233409091 255.613771008)scale(0.12 -0.12)">
       <use xlink:href="#BitstreamVeraSans-Roman-2212"/>
       <use x="83.7890625" xlink:href="#BitstreamVeraSans-Roman-36"/>
       <use x="147.412109375" xlink:href="#BitstreamVeraSans-Roman-30"/>
      </g>
     </g>
    </g>
    <g id="ytick_8">
     <g id="line2d_19">
      <g>
       <use style="stroke:#000000;stroke-width:0.5;" x="315.490909091" xlink:href="#m728421d6d4" y="208.739495798"/>
      </g>
     </g>
     <g id="line2d_20">
      <g>
       <use style="stroke:#000000;stroke-width:0.5;" x="518.4" xlink:href="#mcb0005524f" y="208.739495798"/>
      </g>
     </g>
     <g id="text_10">
      <!-- 0 -->
      <g transform="translate(305.444034091 212.050745798)scale(0.12 -0.12)">
       <use xlink:href="#BitstreamVeraSans-Roman-30"/>
      </g>
     </g>
    </g>
   </g>
  </g>
  <g id="axes_5">
   <g id="patch_22">
    <path d="
M72 388.8
L274.909 388.8
L274.909 287.153
L72 287.153
z
" style="fill:#ffffff;"/>
   </g>
   <g id="line2d_21">
    <path clip-path="url(#p5df05f4a8e)" d="
M72.0406 365.605
L79.4265 362.644
L80.8874 361.804
L81.8208 361.023
L82.4295 360.225
L82.7948 359.413
L83.0383 358.275
L83.1194 356.475
L83.4035 332.646
L83.5252 329.307
L83.5658 329.387
L84.0934 340.66
L84.4586 343.275
L84.7021 343.809
L84.7427 343.721
L84.7833 343.027
L84.9862 331.102
L85.0673 332.087
L85.3514 340.817
L85.6355 353.701
L86.0007 360.203
L86.366 363.462
L86.6906 364.717
L86.9747 365.073
L87.2182 365.066
L87.624 364.763
L88.5574 364.03
L89.0849 363.904
L89.6531 363.998
L90.3836 364.369
L91.6416 365.313
L93.346 366.529
L94.5229 367.095
L95.6592 367.397
L96.8767 367.483
L98.2564 367.344
L99.9609 366.931
L102.477 366.06
L110.269 363.012
L112.095 362.077
L113.15 361.31
L113.84 360.557
L114.286 359.773
L114.57 358.863
L114.692 358.025
L114.733 357.292
L115.098 330.513
L115.179 329.217
L115.22 329.985
L115.625 339.518
L115.991 342.81
L116.275 343.794
L116.356 343.772
L116.397 343.517
L116.599 331.164
L116.64 331.201
L116.802 335.095
L117.046 345.236
L117.33 355.237
L117.736 361.422
L118.101 364.007
L118.426 364.912
L118.669 365.092
L118.953 365.009
L119.562 364.471
L120.211 364.019
L120.739 363.903
L121.307 364.007
L122.037 364.386
L123.336 365.366
L125 366.545
L126.177 367.105
L127.313 367.402
L128.53 367.483
L129.91 367.34
L131.615 366.923
L134.131 366.051
L141.963 362.982
L143.749 362.061
L144.804 361.287
L145.494 360.521
L145.94 359.711
L146.224 358.733
L146.346 357.654
L146.468 345.161
L146.711 330.936
L146.792 329.208
L146.833 329.613
L147.279 339.855
L147.645 342.952
L147.929 343.816
L147.969 343.801
L148.01 343.664
L148.253 331.117
L148.334 332.352
L148.618 341.518
L148.903 353.979
L149.308 360.825
L149.674 363.745
L149.998 364.822
L150.282 365.09
L150.566 365.018
L151.135 364.522
L151.824 364.025
L152.352 363.904
L152.92 364.002
L153.651 364.376
L154.949 365.355
L156.613 366.537
L157.79 367.1
L158.926 367.4
L160.144 367.484
L161.523 367.343
L163.228 366.928
L165.744 366.057
L173.536 363.007
L175.362 362.07
L176.417 361.3
L177.107 360.541
L177.553 359.746
L177.837 358.806
L177.959 357.881
L178 356.697
L178.284 332.748
L178.446 329.341
L179.014 341.051
L179.339 343.267
L179.582 343.816
L179.623 343.739
L179.664 343.216
L179.866 331.112
L179.948 332.02
L180.232 340.638
L180.516 353.623
L180.881 360.163
L181.246 363.443
L181.571 364.71
L181.855 365.071
L182.098 365.067
L182.504 364.767
L183.438 364.032
L183.965 363.904
L184.533 363.998
L185.264 364.367
L186.522 365.312
L188.226 366.529
L189.403 367.095
L190.539 367.398
L191.757 367.485
L193.137 367.346
L194.841 366.933
L197.357 366.063
L205.149 363.013
L206.975 362.079
L208.071 361.276
L208.761 360.504
L209.207 359.682
L209.491 358.667
L209.613 357.37
L210.019 329.578
L210.059 329.203
L210.222 333.838
L210.546 340.006
L210.912 343.016
L211.196 343.822
L211.236 343.783
L211.277 343.559
L211.52 331.183
L211.642 333.792
L211.926 345.067
L212.21 355.18
L212.616 361.395
L212.981 363.995
L213.306 364.908
L213.549 365.092
L213.833 365.011
L214.442 364.474
L215.091 364.02
L215.619 363.904
L216.187 364.007
L216.918 364.385
L218.216 365.365
L219.88 366.545
L221.057 367.105
L222.193 367.403
L223.411 367.485
L224.791 367.342
L226.495 366.925
L229.011 366.053
L236.843 362.984
L238.629 362.063
L239.684 361.289
L240.374 360.524
L240.82 359.716
L241.104 358.743
L241.226 357.69
L241.348 345.371
L241.591 330.992
L241.673 329.217
L241.713 329.569
L242.16 339.834
L242.525 342.946
L242.809 343.82
L242.89 343.683
L242.971 337.551
L243.134 331.115
L243.215 332.301
L243.499 341.377
L243.783 353.926
L244.189 360.8
L244.554 363.734
L244.879 364.818
L245.163 365.089
L245.447 365.02
L246.015 364.524
L246.705 364.026
L247.232 363.904
L247.8 364.002
L248.531 364.376
L249.83 365.354
L251.493 366.537
L252.67 367.101
L253.807 367.401
L255.024 367.485
L256.404 367.345
L258.108 366.93
L260.624 366.059
L268.457 362.99
L270.242 362.072
L271.297 361.302
L271.987 360.544
L272.434 359.749
L272.718 358.814
L272.839 357.901
L272.88 356.796
L273.205 331.423
L273.326 329.319
L273.935 341.423
L274.26 343.424
L274.463 343.822
L274.503 343.75
L274.544 343.294
L274.747 331.12
L274.828 331.985
L274.909 334.167
L274.909 334.167" style="fill:none;stroke:#0000ff;stroke-linecap:square;"/>
   </g>
   <g id="patch_23">
    <path d="
M72 287.153
L274.909 287.153" style="fill:none;stroke:#000000;stroke-linecap:square;stroke-linejoin:miter;"/>
   </g>
   <g id="patch_24">
    <path d="
M274.909 388.8
L274.909 287.153" style="fill:none;stroke:#000000;stroke-linecap:square;stroke-linejoin:miter;"/>
   </g>
   <g id="patch_25">
    <path d="
M72 388.8
L274.909 388.8" style="fill:none;stroke:#000000;stroke-linecap:square;stroke-linejoin:miter;"/>
   </g>
   <g id="patch_26">
    <path d="
M72 388.8
L72 287.153" style="fill:none;stroke:#000000;stroke-linecap:square;stroke-linejoin:miter;"/>
   </g>
   <g id="matplotlib.axis_9">
    <g id="text_11">
     <!-- 1 s -->
     <defs>
      <path d="
M11.7188 12.9844
L28.3281 12.9844
L28.3281 60.1094
L11.2812 56.5938
L11.2812 69.3906
L28.2188 72.9062
L46.0938 72.9062
L46.0938 12.9844
L62.7031 12.9844
L62.7031 0
L11.7188 0
z
" id="BitstreamVeraSans-Bold-31"/>
      <path id="BitstreamVeraSans-Bold-20"/>
     </defs>
     <g transform="translate(163.904232955 402.918125)scale(0.12 -0.12)">
      <use xlink:href="#BitstreamVeraSans-Bold-31"/>
      <use x="69.580078125" xlink:href="#BitstreamVeraSans-Bold-20"/>
      <use x="104.39453125" xlink:href="#BitstreamVeraSans-Bold-73"/>
     </g>
    </g>
   </g>
   <g id="matplotlib.axis_10">
    <g id="ytick_9">
     <g id="line2d_22">
      <g>
       <use style="stroke:#000000;stroke-width:0.5;" x="72.0" xlink:href="#m728421d6d4" y="374.278991597"/>
      </g>
     </g>
     <g id="line2d_23">
      <g>
       <use style="stroke:#000000;stroke-width:0.5;" x="274.909090909" xlink:href="#mcb0005524f" y="374.278991597"/>
      </g>
     </g>
     <g id="text_12">
      <!-- −60 -->
      <g transform="translate(44.7425 377.590241597)scale(0.12 -0.12)">
       <use xlink:href="#BitstreamVeraSans-Roman-2212"/>
       <use x="83.7890625" xlink:href="#BitstreamVeraSans-Roman-36"/>
       <use x="147.412109375" xlink:href="#BitstreamVeraSans-Roman-30"/>
      </g>
     </g>
    </g>
    <g id="ytick_10">
     <g id="line2d_24">
      <g>
       <use style="stroke:#000000;stroke-width:0.5;" x="72.0" xlink:href="#m728421d6d4" y="330.715966387"/>
      </g>
     </g>
     <g id="line2d_25">
      <g>
       <use style="stroke:#000000;stroke-width:0.5;" x="274.909090909" xlink:href="#mcb0005524f" y="330.715966387"/>
      </g>
     </g>
     <g id="text_13">
      <!-- 0 -->
      <g transform="translate(61.953125 334.027216387)scale(0.12 -0.12)">
       <use xlink:href="#BitstreamVeraSans-Roman-30"/>
      </g>
     </g>
    </g>
   </g>
  </g>
  <g id="axes_6">
   <g id="patch_27">
    <path d="
M315.491 388.8
L518.4 388.8
L518.4 287.153
L315.491 287.153
z
" style="fill:#ffffff;"/>
   </g>
   <g id="line2d_26">
    <path clip-path="url(#p8ca55fdb04)" d="
M315.531 365.712
L321.578 363.227
L323.486 362.221
L324.581 361.413
L325.312 360.62
L325.799 359.794
L326.164 358.713
L326.367 357.513
L326.489 355.856
L326.57 351.522
L326.651 296.606
L326.732 302.325
L327.26 376.824
L327.381 375.495
L327.828 366.275
L328.234 354.766
L328.315 295.344
L328.396 298.952
L328.761 338.239
L328.842 362.21
L329.005 383.493
L329.045 383.553
L329.045 383.553
L329.045 383.553
L329.167 382.907
L329.654 378.33
L330.466 371.119
L331.034 367.956
L331.602 365.988
L332.129 364.885
L332.616 364.317
L333.103 364.074
L333.59 364.076
L334.199 364.314
L335.133 364.955
L337.405 366.58
L338.582 367.11
L339.718 367.381
L340.936 367.44
L342.315 367.278
L344.061 366.832
L346.617 365.923
L352.664 363.472
L354.815 362.402
L356.032 361.565
L356.844 360.745
L357.371 359.91
L357.737 358.929
L357.98 357.636
L358.102 356.159
L358.183 353.111
L358.305 297.078
L358.386 306.461
L358.832 376.637
L358.873 376.855
L358.913 376.679
L359.116 373.591
L359.806 357.954
L359.847 356.004
L359.887 348.379
L359.928 295.169
L360.009 297.974
L360.212 319.904
L360.456 353.675
L360.618 383.383
L360.658 383.563
L360.699 383.482
L360.902 382.032
L362.485 368.79
L363.053 366.501
L363.58 365.192
L364.108 364.439
L364.595 364.114
L365.082 364.055
L365.65 364.224
L366.462 364.73
L369.465 366.805
L370.601 367.23
L371.778 367.428
L373.036 367.409
L374.537 367.151
L376.485 366.571
L379.854 365.291
L385.292 363.011
L386.955 362.084
L388.011 361.252
L388.701 360.43
L389.147 359.58
L389.472 358.479
L389.674 356.985
L389.796 354.072
L389.837 349.201
L389.918 296.585
L389.959 298.913
L390.283 351.329
L390.446 376.41
L390.486 376.836
L390.527 376.776
L390.689 374.621
L391.338 360.608
L391.46 356.853
L391.501 353.232
L391.582 295.592
L391.622 297.15
L391.785 312.998
L392.109 367.659
L392.272 383.541
L392.312 383.53
L392.475 382.502
L393.165 375.783
L393.814 370.503
L394.382 367.568
L394.95 365.752
L395.478 364.748
L395.965 364.249
L396.452 364.058
L396.979 364.109
L397.629 364.416
L398.765 365.25
L400.55 366.518
L401.727 367.073
L402.864 367.366
L404.081 367.444
L405.461 367.299
L407.165 366.879
L409.641 366.013
L415.525 363.645
L417.879 362.512
L419.177 361.655
L420.03 360.831
L420.598 359.968
L420.963 359.032
L421.207 357.854
L421.369 355.92
L421.45 351.915
L421.531 296.709
L421.612 301.925
L422.14 376.838
L422.262 375.545
L422.708 366.345
L423.114 355.084
L423.195 295.289
L423.276 298.728
L423.601 333.974
L423.682 343.449
L423.885 383.477
L423.926 383.559
L423.926 383.559
L423.926 383.559
L424.047 382.932
L424.534 378.364
L425.346 371.143
L425.914 367.971
L426.482 365.997
L427.01 364.891
L427.497 364.32
L427.984 364.075
L428.471 364.076
L429.079 364.313
L430.013 364.954
L432.285 366.58
L433.462 367.111
L434.599 367.382
L435.816 367.442
L437.196 367.28
L438.9 366.847
L441.457 365.941
L447.463 363.51
L449.654 362.427
L450.912 361.568
L451.724 360.749
L452.252 359.916
L452.617 358.939
L452.86 357.656
L453.023 355.235
L453.063 353.299
L453.104 343.322
L453.185 296.968
L453.226 300.156
L453.753 376.86
L453.834 376.305
L454.118 371.143
L454.727 356.181
L454.768 349.847
L454.808 295.184
L454.889 297.81
L455.092 319.575
L455.336 352.224
L455.498 383.357
L455.539 383.563
L455.579 383.494
L455.782 382.058
L457.365 368.805
L457.933 366.51
L458.461 365.198
L458.988 364.443
L459.475 364.116
L459.962 364.055
L460.53 364.224
L461.342 364.729
L464.345 366.805
L465.481 367.231
L466.658 367.429
L467.916 367.411
L469.418 367.153
L471.366 366.573
L474.693 365.31
L480.172 363.013
L481.876 362.059
L482.891 361.255
L483.581 360.434
L484.027 359.585
L484.352 358.489
L484.555 357.008
L484.677 354.174
L484.717 349.711
L484.798 296.555
L484.839 298.739
L485.163 350.701
L485.326 376.376
L485.366 376.834
L485.407 376.79
L485.569 374.66
L486.219 360.66
L486.34 356.963
L486.381 353.605
L486.462 295.537
L486.503 297.037
L486.665 312.719
L486.99 366.707
L487.152 383.536
L487.193 383.538
L487.355 382.522
L488.045 375.806
L488.694 370.518
L489.262 367.578
L489.83 365.758
L490.358 364.752
L490.845 364.251
L491.332 364.059
L491.859 364.109
L492.509 364.416
L493.645 365.25
L495.431 366.518
L496.608 367.073
L497.744 367.367
L498.961 367.446
L500.341 367.301
L502.046 366.881
L504.521 366.015
L510.405 363.646
L512.759 362.513
L514.058 361.657
L514.91 360.833
L515.478 359.972
L515.843 359.038
L516.087 357.865
L516.249 355.952
L516.33 352.093
L516.411 296.781
L516.493 301.731
L517.02 376.846
L517.061 376.599
L517.264 373.396
L517.954 357.579
L517.994 355.243
L518.075 295.262
L518.197 301.9
L518.4 325.747
L518.4 325.747" style="fill:none;stroke:#0000ff;stroke-linecap:square;"/>
   </g>
   <g id="patch_28">
    <path d="
M315.491 287.153
L518.4 287.153" style="fill:none;stroke:#000000;stroke-linecap:square;stroke-linejoin:miter;"/>
   </g>
   <g id="patch_29">
    <path d="
M518.4 388.8
L518.4 287.153" style="fill:none;stroke:#000000;stroke-linecap:square;stroke-linejoin:miter;"/>
   </g>
   <g id="patch_30">
    <path d="
M315.491 388.8
L518.4 388.8" style="fill:none;stroke:#000000;stroke-linecap:square;stroke-linejoin:miter;"/>
   </g>
   <g id="patch_31">
    <path d="
M315.491 388.8
L315.491 287.153" style="fill:none;stroke:#000000;stroke-linecap:square;stroke-linejoin:miter;"/>
   </g>
   <g id="matplotlib.axis_11">
    <g id="text_14">
     <!-- 1 s -->
     <g transform="translate(407.395142045 402.918125)scale(0.12 -0.12)">
      <use xlink:href="#BitstreamVeraSans-Bold-31"/>
      <use x="69.580078125" xlink:href="#BitstreamVeraSans-Bold-20"/>
      <use x="104.39453125" xlink:href="#BitstreamVeraSans-Bold-73"/>
     </g>
    </g>
   </g>
   <g id="matplotlib.axis_12">
    <g id="ytick_11">
     <g id="line2d_27">
      <g>
       <use style="stroke:#000000;stroke-width:0.5;" x="315.490909091" xlink:href="#m728421d6d4" y="374.278991597"/>
      </g>
     </g>
     <g id="line2d_28">
      <g>
       <use style="stroke:#000000;stroke-width:0.5;" x="518.4" xlink:href="#mcb0005524f" y="374.278991597"/>
      </g>
     </g>
     <g id="text_15">
      <!-- −60 -->
      <g transform="translate(288.233409091 377.590241597)scale(0.12 -0.12)">
       <use xlink:href="#BitstreamVeraSans-Roman-2212"/>
       <use x="83.7890625" xlink:href="#BitstreamVeraSans-Roman-36"/>
       <use x="147.412109375" xlink:href="#BitstreamVeraSans-Roman-30"/>
      </g>
     </g>
    </g>
    <g id="ytick_12">
     <g id="line2d_29">
      <g>
       <use style="stroke:#000000;stroke-width:0.5;" x="315.490909091" xlink:href="#m728421d6d4" y="330.715966387"/>
      </g>
     </g>
     <g id="line2d_30">
      <g>
       <use style="stroke:#000000;stroke-width:0.5;" x="518.4" xlink:href="#mcb0005524f" y="330.715966387"/>
      </g>
     </g>
     <g id="text_16">
      <!-- 0 -->
      <g transform="translate(305.444034091 334.027216387)scale(0.12 -0.12)">
       <use xlink:href="#BitstreamVeraSans-Roman-30"/>
      </g>
     </g>
    </g>
   </g>
  </g>
 </g>
 <defs>
  <clipPath id="pf4132cbc21">
   <rect height="101.647058824" width="202.909090909" x="315.490909091" y="165.176470588"/>
  </clipPath>
  <clipPath id="p5df05f4a8e">
   <rect height="101.647058824" width="202.909090909" x="72.0" y="287.152941176"/>
  </clipPath>
  <clipPath id="pdf2bc2c95a">
   <rect height="101.647058824" width="202.909090909" x="72.0" y="43.2"/>
  </clipPath>
  <clipPath id="pbd5a3a9a46">
   <rect height="101.647058824" width="202.909090909" x="315.490909091" y="43.2"/>
  </clipPath>
  <clipPath id="p68273c1835">
   <rect height="101.647058824" width="202.909090909" x="72.0" y="165.176470588"/>
  </clipPath>
  <clipPath id="p8ca55fdb04">
   <rect height="101.647058824" width="202.909090909" x="315.490909091" y="287.152941176"/>
  </clipPath>
 </defs>
</svg>
