<?xml version="1.0" encoding="utf-8" standalone="no"?>
<!DOCTYPE svg PUBLIC "-//W3C//DTD SVG 1.1//EN"
  "http://www.w3.org/Graphics/SVG/1.1/DTD/svg11.dtd">
<!-- Created with matplotlib (http://matplotlib.org/) -->
<svg height="432pt" version="1.1" viewBox="0 0 576 432" width="576pt" xmlns="http://www.w3.org/2000/svg" xmlns:xlink="http://www.w3.org/1999/xlink">
 <defs>
  <style type="text/css">
*{stroke-linecap:butt;stroke-linejoin:round;}
  </style>
 </defs>
 <g id="figure_1">
  <g id="patch_1">
   <path d="
M0 432
L576 432
L576 0
L0 0
z
" style="fill:#ffffff;"/>
  </g>
  <g id="axes_1">
   <g id="patch_2">
    <path d="
M72 144.847
L274.909 144.847
L274.909 43.2
L72 43.2
z
" style="fill:#ffffff;"/>
   </g>
   <g id="line2d_1">
    <path clip-path="url(#pdf2bc2c95a)" d="
M72 126.696
L77.3568 125.848
L83.4035 125.124
L90.5053 124.503
L99.0681 123.986
L109.863 123.566
L124.513 123.234
L146.955 122.971
L191.595 122.709
L274.869 122.421
L274.869 122.421" style="fill:none;stroke:#0000ff;stroke-linecap:square;"/>
   </g>
   <g id="patch_3">
    <path d="
M72 43.2
L274.909 43.2" style="fill:none;stroke:#000000;stroke-linecap:square;stroke-linejoin:miter;"/>
   </g>
   <g id="patch_4">
    <path d="
M274.909 144.847
L274.909 43.2" style="fill:none;stroke:#000000;stroke-linecap:square;stroke-linejoin:miter;"/>
   </g>
   <g id="patch_5">
    <path d="
M72 144.847
L274.909 144.847" style="fill:none;stroke:#000000;stroke-linecap:square;stroke-linejoin:miter;"/>
   </g>
   <g id="patch_6">
    <path d="
M72 144.847
L72 43.2" style="fill:none;stroke:#000000;stroke-linecap:square;stroke-linejoin:miter;"/>
   </g>
   <g id="matplotlib.axis_1"/>
   <g id="matplotlib.axis_2">
    <g id="ytick_1">
     <g id="line2d_2">
      <defs>
       <path d="
M0 0
L4 0" id="m728421d6d4" style="stroke:#000000;stroke-width:0.5;"/>
      </defs>
      <g>
       <use style="stroke:#000000;stroke-width:0.5;" x="72.0" xlink:href="#m728421d6d4" y="130.32605042"/>
      </g>
     </g>
     <g id="line2d_3">
      <defs>
       <path d="
M0 0
L-4 0" id="mcb0005524f" style="stroke:#000000;stroke-width:0.5;"/>
      </defs>
      <g>
       <use style="stroke:#000000;stroke-width:0.5;" x="274.909090909" xlink:href="#mcb0005524f" y="130.32605042"/>
      </g>
     </g>
     <g id="text_1">
      <!-- −60 -->
      <defs>
       <path d="
M10.5938 35.5
L73.1875 35.5
L73.1875 27.2031
L10.5938 27.2031
z
" id="BitstreamVeraSans-Roman-2212"/>
       <path d="
M31.7812 66.4062
Q24.1719 66.4062 20.3281 58.9062
Q16.5 51.4219 16.5 36.375
Q16.5 21.3906 20.3281 13.8906
Q24.1719 6.39062 31.7812 6.39062
Q39.4531 6.39062 43.2812 13.8906
Q47.125 21.3906 47.125 36.375
Q47.125 51.4219 43.2812 58.9062
Q39.4531 66.4062 31.7812 66.4062
M31.7812 74.2188
Q44.0469 74.2188 50.5156 64.5156
Q56.9844 54.8281 56.9844 36.375
Q56.9844 17.9688 50.5156 8.26562
Q44.0469 -1.42188 31.7812 -1.42188
Q19.5312 -1.42188 13.0625 8.26562
Q6.59375 17.9688 6.59375 36.375
Q6.59375 54.8281 13.0625 64.5156
Q19.5312 74.2188 31.7812 74.2188" id="BitstreamVeraSans-Roman-30"/>
       <path d="
M33.0156 40.375
Q26.375 40.375 22.4844 35.8281
Q18.6094 31.2969 18.6094 23.3906
Q18.6094 15.5312 22.4844 10.9531
Q26.375 6.39062 33.0156 6.39062
Q39.6562 6.39062 43.5312 10.9531
Q47.4062 15.5312 47.4062 23.3906
Q47.4062 31.2969 43.5312 35.8281
Q39.6562 40.375 33.0156 40.375
M52.5938 71.2969
L52.5938 62.3125
Q48.875 64.0625 45.0938 64.9844
Q41.3125 65.9219 37.5938 65.9219
Q27.8281 65.9219 22.6719 59.3281
Q17.5312 52.7344 16.7969 39.4062
Q19.6719 43.6562 24.0156 45.9219
Q28.375 48.1875 33.5938 48.1875
Q44.5781 48.1875 50.9531 41.5156
Q57.3281 34.8594 57.3281 23.3906
Q57.3281 12.1562 50.6875 5.35938
Q44.0469 -1.42188 33.0156 -1.42188
Q20.3594 -1.42188 13.6719 8.26562
Q6.98438 17.9688 6.98438 36.375
Q6.98438 53.6562 15.1875 63.9375
Q23.3906 74.2188 37.2031 74.2188
Q40.9219 74.2188 44.7031 73.4844
Q48.4844 72.75 52.5938 71.2969" id="BitstreamVeraSans-Roman-36"/>
      </defs>
      <g transform="translate(44.7425 133.63730042)scale(0.12 -0.12)">
       <use xlink:href="#BitstreamVeraSans-Roman-2212"/>
       <use x="83.7890625" xlink:href="#BitstreamVeraSans-Roman-36"/>
       <use x="147.412109375" xlink:href="#BitstreamVeraSans-Roman-30"/>
      </g>
     </g>
    </g>
    <g id="ytick_2">
     <g id="line2d_4">
      <g>
       <use style="stroke:#000000;stroke-width:0.5;" x="72.0" xlink:href="#m728421d6d4" y="86.7630252101"/>
      </g>
     </g>
     <g id="line2d_5">
      <g>
       <use style="stroke:#000000;stroke-width:0.5;" x="274.909090909" xlink:href="#mcb0005524f" y="86.7630252101"/>
      </g>
     </g>
     <g id="text_2">
      <!-- 0 -->
      <g transform="translate(61.953125 90.0742752101)scale(0.12 -0.12)">
       <use xlink:href="#BitstreamVeraSans-Roman-30"/>
      </g>
     </g>
    </g>
   </g>
   <g id="text_3">
    <!-- soma -->
    <defs>
     <path d="
M51.125 52.9844
L51.125 39.7031
Q45.5156 42.0469 40.2812 43.2188
Q35.0625 44.3906 30.4219 44.3906
Q25.4375 44.3906 23.0156 43.1406
Q20.6094 41.8906 20.6094 39.3125
Q20.6094 37.2031 22.4375 36.0781
Q24.2656 34.9688 29 34.4219
L32.0781 33.9844
Q45.5156 32.2812 50.1406 28.375
Q54.7812 24.4688 54.7812 16.1094
Q54.7812 7.375 48.3281 2.96875
Q41.8906 -1.42188 29.1094 -1.42188
Q23.6875 -1.42188 17.8906 -0.5625
Q12.1094 0.296875 6 2
L6 15.2812
Q11.2344 12.75 16.7188 11.4688
Q22.2188 10.2031 27.875 10.2031
Q33.0156 10.2031 35.5938 11.6094
Q38.1875 13.0312 38.1875 15.8281
Q38.1875 18.1719 36.4062 19.3125
Q34.625 20.4531 29.2969 21.0938
L26.2188 21.4844
Q14.5469 22.9531 9.85938 26.9062
Q5.17188 30.8594 5.17188 38.9219
Q5.17188 47.6094 11.125 51.7969
Q17.0938 56 29.3906 56
Q34.2344 56 39.5469 55.2656
Q44.875 54.5469 51.125 52.9844" id="BitstreamVeraSans-Bold-73"/>
     <path d="
M32.9062 24.6094
Q27.4375 24.6094 24.6719 22.75
Q21.9219 20.9062 21.9219 17.2812
Q21.9219 13.9688 24.1406 12.0781
Q26.375 10.2031 30.3281 10.2031
Q35.25 10.2031 38.625 13.7344
Q42 17.2812 42 22.6094
L42 24.6094
z

M59.625 31.2031
L59.625 0
L42 0
L42 8.10938
Q38.4844 3.125 34.0781 0.84375
Q29.6875 -1.42188 23.3906 -1.42188
Q14.8906 -1.42188 9.59375 3.53125
Q4.29688 8.5 4.29688 16.4062
Q4.29688 26.0312 10.9062 30.5156
Q17.5312 35.0156 31.6875 35.0156
L42 35.0156
L42 36.375
Q42 40.5312 38.7188 42.4531
Q35.4531 44.3906 28.5156 44.3906
Q22.9062 44.3906 18.0625 43.2656
Q13.2344 42.1406 9.07812 39.8906
L9.07812 53.2188
Q14.7031 54.5938 20.3594 55.2969
Q26.0312 56 31.6875 56
Q46.4844 56 53.0469 50.1719
Q59.625 44.3438 59.625 31.2031" id="BitstreamVeraSans-Bold-61"/>
     <path d="
M34.4219 43.5
Q28.6094 43.5 25.5625 39.3281
Q22.5156 35.1562 22.5156 27.2969
Q22.5156 19.4375 25.5625 15.25
Q28.6094 11.0781 34.4219 11.0781
Q40.1406 11.0781 43.1562 15.25
Q46.1875 19.4375 46.1875 27.2969
Q46.1875 35.1562 43.1562 39.3281
Q40.1406 43.5 34.4219 43.5
M34.4219 56
Q48.5312 56 56.4688 48.375
Q64.4062 40.7656 64.4062 27.2969
Q64.4062 13.8125 56.4688 6.1875
Q48.5312 -1.42188 34.4219 -1.42188
Q20.2656 -1.42188 12.2812 6.1875
Q4.29688 13.8125 4.29688 27.2969
Q4.29688 40.7656 12.2812 48.375
Q20.2656 56 34.4219 56" id="BitstreamVeraSans-Bold-6f"/>
     <path d="
M59.0781 45.6094
Q62.4062 50.6875 66.9688 53.3438
Q71.5312 56 77 56
Q86.4219 56 91.3594 50.1875
Q96.2969 44.3906 96.2969 33.2969
L96.2969 0
L78.7188 0
L78.7188 28.5156
Q78.7656 29.1562 78.7812 29.8281
Q78.8125 30.5156 78.8125 31.7812
Q78.8125 37.5938 77.0938 40.2031
Q75.3906 42.8281 71.5781 42.8281
Q66.6094 42.8281 63.8906 38.7188
Q61.1875 34.625 61.0781 26.8594
L61.0781 0
L43.5 0
L43.5 28.5156
Q43.5 37.5938 41.9375 40.2031
Q40.375 42.8281 36.375 42.8281
Q31.3438 42.8281 28.6094 38.7031
Q25.875 34.5781 25.875 26.9062
L25.875 0
L8.29688 0
L8.29688 54.6875
L25.875 54.6875
L25.875 46.6875
Q29.1094 51.3125 33.2812 53.6562
Q37.4531 56 42.4844 56
Q48.1406 56 52.4844 53.2656
Q56.8438 50.5312 59.0781 45.6094" id="BitstreamVeraSans-Bold-6d"/>
    </defs>
    <g transform="translate(152.799545455 38.2)scale(0.144 -0.144)">
     <use xlink:href="#BitstreamVeraSans-Bold-73"/>
     <use x="59.521484375" xlink:href="#BitstreamVeraSans-Bold-6f"/>
     <use x="128.22265625" xlink:href="#BitstreamVeraSans-Bold-6d"/>
     <use x="232.421875" xlink:href="#BitstreamVeraSans-Bold-61"/>
    </g>
   </g>
  </g>
  <g id="axes_2">
   <g id="patch_7">
    <path d="
M315.491 144.847
L518.4 144.847
L518.4 43.2
L315.491 43.2
z
" style="fill:#ffffff;"/>
   </g>
   <g id="line2d_6">
    <path clip-path="url(#pbd5a3a9a46)" d="
M315.491 126.696
L320.726 125.865
L326.773 125.136
L333.834 124.515
L342.356 123.996
L353.11 123.575
L367.639 123.243
L389.837 122.98
L433.746 122.723
L518.359 122.434
L518.359 122.434" style="fill:none;stroke:#0000ff;stroke-linecap:square;"/>
   </g>
   <g id="patch_8">
    <path d="
M315.491 43.2
L518.4 43.2" style="fill:none;stroke:#000000;stroke-linecap:square;stroke-linejoin:miter;"/>
   </g>
   <g id="patch_9">
    <path d="
M518.4 144.847
L518.4 43.2" style="fill:none;stroke:#000000;stroke-linecap:square;stroke-linejoin:miter;"/>
   </g>
   <g id="patch_10">
    <path d="
M315.491 144.847
L518.4 144.847" style="fill:none;stroke:#000000;stroke-linecap:square;stroke-linejoin:miter;"/>
   </g>
   <g id="patch_11">
    <path d="
M315.491 144.847
L315.491 43.2" style="fill:none;stroke:#000000;stroke-linecap:square;stroke-linejoin:miter;"/>
   </g>
   <g id="matplotlib.axis_3"/>
   <g id="matplotlib.axis_4">
    <g id="ytick_3">
     <g id="line2d_7">
      <g>
       <use style="stroke:#000000;stroke-width:0.5;" x="315.490909091" xlink:href="#m728421d6d4" y="130.32605042"/>
      </g>
     </g>
     <g id="line2d_8">
      <g>
       <use style="stroke:#000000;stroke-width:0.5;" x="518.4" xlink:href="#mcb0005524f" y="130.32605042"/>
      </g>
     </g>
     <g id="text_4">
      <!-- −60 -->
      <g transform="translate(288.233409091 133.63730042)scale(0.12 -0.12)">
       <use xlink:href="#BitstreamVeraSans-Roman-2212"/>
       <use x="83.7890625" xlink:href="#BitstreamVeraSans-Roman-36"/>
       <use x="147.412109375" xlink:href="#BitstreamVeraSans-Roman-30"/>
      </g>
     </g>
    </g>
    <g id="ytick_4">
     <g id="line2d_9">
      <g>
       <use style="stroke:#000000;stroke-width:0.5;" x="315.490909091" xlink:href="#m728421d6d4" y="86.7630252101"/>
      </g>
     </g>
     <g id="line2d_10">
      <g>
       <use style="stroke:#000000;stroke-width:0.5;" x="518.4" xlink:href="#mcb0005524f" y="86.7630252101"/>
      </g>
     </g>
     <g id="text_5">
      <!-- 0 -->
      <g transform="translate(305.444034091 90.0742752101)scale(0.12 -0.12)">
       <use xlink:href="#BitstreamVeraSans-Roman-30"/>
      </g>
     </g>
    </g>
   </g>
   <g id="text_6">
    <!-- axon -->
    <defs>
     <path d="
M22.2188 27.9844
L2.48438 54.6875
L21 54.6875
L32.1719 38.4844
L43.5 54.6875
L62.0156 54.6875
L42.2812 28.0781
L62.9844 0
L44.4844 0
L32.1719 17.2812
L20.0156 0
L1.51562 0
z
" id="BitstreamVeraSans-Bold-78"/>
     <path d="
M63.375 33.2969
L63.375 0
L45.7969 0
L45.7969 5.42188
L45.7969 25.4844
Q45.7969 32.5625 45.4844 35.25
Q45.1719 37.9375 44.3906 39.2031
Q43.3594 40.9219 41.5938 41.875
Q39.8438 42.8281 37.5938 42.8281
Q32.125 42.8281 29 38.5938
Q25.875 34.375 25.875 26.9062
L25.875 0
L8.40625 0
L8.40625 54.6875
L25.875 54.6875
L25.875 46.6875
Q29.8281 51.4688 34.2656 53.7344
Q38.7188 56 44.0938 56
Q53.5625 56 58.4688 50.1875
Q63.375 44.3906 63.375 33.2969" id="BitstreamVeraSans-Bold-6e"/>
    </defs>
    <g transform="translate(398.242329545 38.2)scale(0.144 -0.144)">
     <use xlink:href="#BitstreamVeraSans-Bold-61"/>
     <use x="67.48046875" xlink:href="#BitstreamVeraSans-Bold-78"/>
     <use x="131.982421875" xlink:href="#BitstreamVeraSans-Bold-6f"/>
     <use x="200.68359375" xlink:href="#BitstreamVeraSans-Bold-6e"/>
    </g>
   </g>
  </g>
  <g id="axes_3">
   <g id="patch_12">
    <path d="
M72 266.824
L274.909 266.824
L274.909 165.176
L72 165.176
z
" style="fill:#ffffff;"/>
   </g>
   <g id="line2d_11">
    <path clip-path="url(#p68273c1835)" d="
M72.0406 251.408
L76.0582 248.901
L79.7917 246.704
L83.0788 245.036
L91.2764 241.04
L92.575 240.052
L93.4678 239.094
L94.0765 238.117
L94.4823 237.048
L94.7258 235.728
L94.807 233.345
L95.0911 208.523
L95.2128 205.79
L95.2534 206.561
L95.6592 219.54
L95.9839 222.716
L96.2679 223.725
L96.3897 223.759
L96.5114 223.46
L96.552 223.1
L96.7955 209.987
L96.9172 212.456
L97.2013 223.394
L97.4448 230.874
L97.81 235.143
L98.1347 236.71
L98.3782 236.978
L98.5811 236.818
L98.9463 236.084
L99.7174 234.013
L99.8391 232.904
L100.164 211.11
L100.245 211.752
L100.326 213.801
L100.691 229.403
L101.138 237.47
L101.544 241.226
L101.949 243.012
L102.436 244.13
L103.613 246.006
L106.941 251.16
L107.955 252.215
L108.889 252.869
L109.782 253.225
L110.715 253.356
L111.73 253.269
L112.947 252.929
L114.449 252.264
L116.599 251.042
L125 246.033
L128.53 244.338
L134.253 241.623
L135.835 240.603
L136.931 239.642
L137.661 238.726
L138.189 237.714
L138.514 236.646
L138.676 235.535
L138.717 234.805
L139.122 205.89
L139.163 205.971
L139.731 221.262
L140.056 223.397
L140.259 223.788
L140.38 223.695
L140.462 223.367
L140.502 222.482
L140.705 209.953
L140.786 210.832
L141.07 219.395
L141.314 229.652
L141.638 234.252
L141.963 236.383
L142.207 236.939
L142.369 236.962
L142.572 236.73
L143.018 235.75
L143.667 233.931
L143.749 233.329
L143.83 226.654
L144.033 211.75
L144.114 211.142
L144.154 211.45
L144.276 214.702
L144.601 228.835
L145.047 237.162
L145.453 241.08
L145.859 242.941
L146.346 244.09
L147.401 245.776
L151.053 251.376
L152.027 252.335
L152.92 252.923
L153.813 253.253
L154.746 253.359
L155.801 253.244
L157.019 252.879
L158.561 252.172
L160.793 250.882
L168.422 246.296
L171.831 244.622
L178.487 241.439
L179.988 240.421
L181.003 239.473
L181.693 238.542
L182.18 237.518
L182.464 236.475
L182.626 234.96
L183.072 205.892
L183.722 221.968
L184.046 223.634
L184.209 223.807
L184.33 223.618
L184.412 222.863
L184.615 209.988
L184.655 210.086
L184.817 213.944
L185.02 221.609
L185.264 230.341
L185.629 234.914
L185.954 236.634
L186.197 236.978
L186.36 236.904
L186.644 236.43
L187.455 234.427
L187.658 233.407
L187.699 232.45
L187.983 211.247
L188.023 211.125
L188.105 211.922
L188.186 214.331
L188.51 228.671
L188.957 237.073
L189.363 241.039
L189.768 242.922
L190.255 244.08
L191.311 245.768
L195.003 251.418
L195.977 252.365
L196.87 252.943
L197.763 253.263
L198.696 253.362
L199.752 253.239
L201.01 252.851
L202.592 252.112
L204.905 250.759
L212.007 246.469
L215.335 244.809
L222.68 241.262
L224.06 240.282
L225.034 239.321
L225.683 238.384
L226.13 237.371
L226.414 236.177
L226.536 234.592
L226.901 206.498
L226.941 205.842
L226.982 206.091
L227.469 220.443
L227.794 223.109
L228.037 223.799
L228.159 223.788
L228.281 223.37
L228.321 222.183
L228.524 209.961
L228.605 210.921
L228.889 219.632
L229.133 229.735
L229.457 234.29
L229.782 236.399
L230.026 236.943
L230.188 236.961
L230.391 236.725
L230.837 235.742
L231.487 233.917
L231.568 233.291
L231.649 226.252
L231.852 211.688
L231.933 211.16
L231.974 211.492
L232.095 214.895
L232.42 228.918
L232.866 237.208
L233.272 241.105
L233.678 242.955
L234.165 244.1
L235.261 245.85
L238.832 251.338
L239.806 252.31
L240.699 252.91
L241.591 253.249
L242.525 253.364
L243.539 253.264
L244.757 252.911
L246.299 252.214
L248.49 250.954
L256.444 246.181
L259.894 244.5
L266.143 241.516
L267.686 240.49
L268.7 239.568
L269.431 238.615
L269.918 237.635
L270.242 236.49
L270.405 235.018
L270.851 205.87
L270.891 206.987
L271.257 219.124
L271.581 222.58
L271.865 223.743
L272.028 223.819
L272.15 223.486
L272.19 223.028
L272.393 210.031
L272.434 210.061
L272.596 213.829
L272.839 223.784
L273.083 230.998
L273.448 235.198
L273.773 236.73
L273.976 236.979
L274.138 236.91
L274.422 236.44
L274.869 235.384
L274.869 235.384" style="fill:none;stroke:#0000ff;stroke-linecap:square;"/>
   </g>
   <g id="patch_13">
    <path d="
M72 165.176
L274.909 165.176" style="fill:none;stroke:#000000;stroke-linecap:square;stroke-linejoin:miter;"/>
   </g>
   <g id="patch_14">
    <path d="
M274.909 266.824
L274.909 165.176" style="fill:none;stroke:#000000;stroke-linecap:square;stroke-linejoin:miter;"/>
   </g>
   <g id="patch_15">
    <path d="
M72 266.824
L274.909 266.824" style="fill:none;stroke:#000000;stroke-linecap:square;stroke-linejoin:miter;"/>
   </g>
   <g id="patch_16">
    <path d="
M72 266.824
L72 165.176" style="fill:none;stroke:#000000;stroke-linecap:square;stroke-linejoin:miter;"/>
   </g>
   <g id="matplotlib.axis_5"/>
   <g id="matplotlib.axis_6">
    <g id="ytick_5">
     <g id="line2d_12">
      <g>
       <use style="stroke:#000000;stroke-width:0.5;" x="72.0" xlink:href="#m728421d6d4" y="252.302521008"/>
      </g>
     </g>
     <g id="line2d_13">
      <g>
       <use style="stroke:#000000;stroke-width:0.5;" x="274.909090909" xlink:href="#mcb0005524f" y="252.302521008"/>
      </g>
     </g>
     <g id="text_7">
      <!-- −60 -->
      <g transform="translate(44.7425 255.613771008)scale(0.12 -0.12)">
       <use xlink:href="#BitstreamVeraSans-Roman-2212"/>
       <use x="83.7890625" xlink:href="#BitstreamVeraSans-Roman-36"/>
       <use x="147.412109375" xlink:href="#BitstreamVeraSans-Roman-30"/>
      </g>
     </g>
    </g>
    <g id="ytick_6">
     <g id="line2d_14">
      <g>
       <use style="stroke:#000000;stroke-width:0.5;" x="72.0" xlink:href="#m728421d6d4" y="208.739495798"/>
      </g>
     </g>
     <g id="line2d_15">
      <g>
       <use style="stroke:#000000;stroke-width:0.5;" x="274.909090909" xlink:href="#mcb0005524f" y="208.739495798"/>
      </g>
     </g>
     <g id="text_8">
      <!-- 0 -->
      <g transform="translate(61.953125 212.050745798)scale(0.12 -0.12)">
       <use xlink:href="#BitstreamVeraSans-Roman-30"/>
      </g>
     </g>
    </g>
   </g>
  </g>
  <g id="axes_4">
   <g id="patch_17">
    <path d="
M315.491 266.824
L518.4 266.824
L518.4 165.176
L315.491 165.176
z
" style="fill:#ffffff;"/>
   </g>
   <g id="line2d_16">
    <path clip-path="url(#pf4132cbc21)" d="
M315.531 251.509
L318.656 249.624
L323.242 246.91
L326.57 245.215
L334.646 241.259
L335.904 240.29
L336.756 239.358
L337.324 238.432
L337.73 237.366
L338.014 235.936
L338.176 233.814
L338.257 228.61
L338.338 174.488
L338.379 176.362
L338.663 218.944
L338.947 255.204
L339.069 254.075
L339.475 246.453
L340.002 234.009
L340.043 227.188
L340.083 173.228
L340.165 175.933
L340.368 198.369
L340.611 235.394
L340.773 261.265
L340.814 261.371
L340.814 261.371
L340.814 261.371
L340.936 260.657
L341.342 256.089
L342.559 241.635
L343.208 235.265
L343.289 232.289
L343.33 221.489
L343.371 173.949
L343.452 177.239
L343.776 221.464
L343.979 258.908
L344.02 259.201
L344.061 259.172
L344.223 257.947
L345.237 248.721
L345.684 246.759
L346.09 245.911
L346.414 245.663
L346.739 245.673
L347.145 245.928
L347.753 246.615
L348.971 248.421
L350.635 250.79
L351.69 251.916
L352.623 252.604
L353.516 252.999
L354.449 253.167
L355.464 253.119
L356.641 252.832
L358.102 252.233
L360.131 251.135
L369.992 245.464
L374.822 243.247
L377.662 241.821
L379.204 240.816
L380.259 239.871
L380.99 238.916
L381.477 237.924
L381.802 236.798
L382.005 235.415
L382.126 233.304
L382.167 231.329
L382.207 220.766
L382.289 174.965
L382.329 178.134
L382.857 255.213
L382.938 254.842
L383.181 251.012
L383.912 235.219
L383.952 232.563
L384.034 173.39
L384.115 177.108
L384.48 217.295
L384.723 261.358
L384.805 261.139
L385.089 258.381
L386.915 238.061
L387.158 234.887
L387.24 230.527
L387.321 173.778
L387.361 175.431
L387.524 197.46
L387.97 259.223
L388.011 259.111
L388.214 257.369
L389.106 249.121
L389.553 246.97
L389.959 246.003
L390.324 245.675
L390.648 245.669
L391.054 245.911
L391.663 246.587
L392.799 248.262
L394.544 250.764
L395.599 251.898
L396.533 252.594
L397.426 252.994
L398.359 253.168
L399.374 253.125
L400.55 252.841
L402.011 252.245
L404 251.173
L414.105 245.374
L422.749 241.088
L423.926 240.127
L424.697 239.232
L425.265 238.234
L425.63 237.171
L425.873 235.836
L426.036 233.47
L426.076 231.716
L426.117 224.422
L426.198 174.749
L426.239 177.555
L426.563 230.797
L426.726 254.779
L426.766 255.207
L426.847 254.904
L427.091 251.128
L427.821 235.483
L427.862 233.193
L427.943 173.285
L428.065 180.026
L428.43 222.809
L428.592 260.877
L428.674 261.358
L428.714 261.181
L428.958 258.922
L429.81 247.974
L430.5 240.844
L431.027 235.819
L431.109 233.873
L431.149 231.359
L431.23 173.703
L431.311 178.252
L431.636 223.691
L431.798 258.309
L431.88 259.23
L431.92 259.147
L432.123 257.445
L433.016 249.17
L433.462 246.998
L433.868 246.018
L434.233 245.681
L434.558 245.67
L434.964 245.908
L435.573 246.58
L436.709 248.254
L438.454 250.758
L439.509 251.895
L440.442 252.593
L441.335 252.995
L442.269 253.17
L443.283 253.128
L444.46 252.845
L445.921 252.249
L447.909 251.177
L458.055 245.354
L466.618 241.11
L467.794 240.157
L468.606 239.218
L469.174 238.21
L469.539 237.129
L469.783 235.745
L469.905 234.186
L469.986 230.849
L470.067 175.216
L470.189 184.926
L470.635 254.97
L470.676 255.247
L470.716 255.14
L470.879 253.12
L471.528 240.204
L471.731 235.061
L471.771 232.136
L471.853 173.462
L471.893 174.854
L472.056 190.674
L472.38 246.158
L472.543 261.376
L472.624 261.123
L472.908 258.347
L474.734 238.035
L474.977 234.812
L475.059 230.031
L475.14 173.839
L475.18 175.635
L475.383 203.954
L475.546 226.516
L475.708 258.572
L475.789 259.235
L475.83 259.109
L476.073 256.921
L476.885 249.378
L477.331 247.112
L477.737 246.071
L478.102 245.698
L478.427 245.665
L478.833 245.885
L479.401 246.491
L480.456 248.021
L482.363 250.773
L483.418 251.907
L484.352 252.602
L485.245 253.001
L486.178 253.174
L487.193 253.129
L488.369 252.843
L489.83 252.245
L491.819 251.171
L501.924 245.365
L510.487 241.121
L511.663 240.172
L512.475 239.238
L513.043 238.242
L513.408 237.183
L513.652 235.858
L513.814 233.539
L513.855 231.865
L513.895 225.497
L513.977 174.671
L514.017 177.323
L514.342 230
L514.504 254.759
L514.545 255.221
L514.626 254.948
L514.869 251.196
L515.6 235.648
L515.64 233.547
L515.681 221.654
L515.722 173.234
L515.803 176.352
L516.046 203.929
L516.209 221.858
L516.371 260.793
L516.452 261.376
L516.493 261.213
L516.736 258.977
L517.548 248.541
L518.238 241.236
L518.359 240.207
L518.359 240.207" style="fill:none;stroke:#0000ff;stroke-linecap:square;"/>
   </g>
   <g id="patch_18">
    <path d="
M315.491 165.176
L518.4 165.176" style="fill:none;stroke:#000000;stroke-linecap:square;stroke-linejoin:miter;"/>
   </g>
   <g id="patch_19">
    <path d="
M518.4 266.824
L518.4 165.176" style="fill:none;stroke:#000000;stroke-linecap:square;stroke-linejoin:miter;"/>
   </g>
   <g id="patch_20">
    <path d="
M315.491 266.824
L518.4 266.824" style="fill:none;stroke:#000000;stroke-linecap:square;stroke-linejoin:miter;"/>
   </g>
   <g id="patch_21">
    <path d="
M315.491 266.824
L315.491 165.176" style="fill:none;stroke:#000000;stroke-linecap:square;stroke-linejoin:miter;"/>
   </g>
   <g id="matplotlib.axis_7"/>
   <g id="matplotlib.axis_8">
    <g id="ytick_7">
     <g id="line2d_17">
      <g>
       <use style="stroke:#000000;stroke-width:0.5;" x="315.490909091" xlink:href="#m728421d6d4" y="252.302521008"/>
      </g>
     </g>
     <g id="line2d_18">
      <g>
       <use style="stroke:#000000;stroke-width:0.5;" x="518.4" xlink:href="#mcb0005524f" y="252.302521008"/>
      </g>
     </g>
     <g id="text_9">
      <!-- −60 -->
      <g transform="translate(288.233409091 255.613771008)scale(0.12 -0.12)">
       <use xlink:href="#BitstreamVeraSans-Roman-2212"/>
       <use x="83.7890625" xlink:href="#BitstreamVeraSans-Roman-36"/>
       <use x="147.412109375" xlink:href="#BitstreamVeraSans-Roman-30"/>
      </g>
     </g>
    </g>
    <g id="ytick_8">
     <g id="line2d_19">
      <g>
       <use style="stroke:#000000;stroke-width:0.5;" x="315.490909091" xlink:href="#m728421d6d4" y="208.739495798"/>
      </g>
     </g>
     <g id="line2d_20">
      <g>
       <use style="stroke:#000000;stroke-width:0.5;" x="518.4" xlink:href="#mcb0005524f" y="208.739495798"/>
      </g>
     </g>
     <g id="text_10">
      <!-- 0 -->
      <g transform="translate(305.444034091 212.050745798)scale(0.12 -0.12)">
       <use xlink:href="#BitstreamVeraSans-Roman-30"/>
      </g>
     </g>
    </g>
   </g>
  </g>
  <g id="axes_5">
   <g id="patch_22">
    <path d="
M72 388.8
L274.909 388.8
L274.909 287.153
L72 287.153
z
" style="fill:#ffffff;"/>
   </g>
   <g id="line2d_21">
    <path clip-path="url(#p5df05f4a8e)" d="
M72.0406 374.837
L72.9334 375.27
L73.8262 375.456
L74.8001 375.427
L75.9364 375.156
L77.3162 374.582
L79.183 373.543
L82.673 371.286
L86.65 368.809
L89.856 367.087
L98.0535 362.861
L99.2304 361.889
L100.042 360.941
L100.61 359.933
L100.975 358.831
L101.178 357.442
L101.219 356.254
L101.544 329.418
L101.625 327.879
L101.665 328.444
L102.071 341.99
L102.396 345.387
L102.68 346.598
L102.842 346.715
L102.964 346.484
L103.045 345.707
L103.248 332.371
L103.289 332.388
L103.451 336.112
L103.654 343.914
L103.897 352.448
L104.263 356.947
L104.587 358.643
L104.831 358.981
L104.993 358.907
L105.277 358.436
L106.129 356.351
L106.292 355.551
L106.332 354.964
L106.657 333.231
L106.738 333.884
L106.819 335.921
L107.184 351.494
L107.631 359.548
L108.037 363.315
L108.442 365.108
L108.929 366.227
L110.147 368.165
L113.515 373.405
L114.489 374.403
L115.382 375.016
L116.275 375.36
L117.208 375.471
L118.223 375.359
L119.44 374.986
L120.942 374.278
L123.093 372.996
L131.047 368.046
L134.455 366.323
L140.056 363.53
L141.557 362.508
L142.572 361.569
L143.302 360.592
L143.789 359.569
L144.073 358.527
L144.236 356.979
L144.641 327.981
L144.682 328.049
L145.25 343.856
L145.575 346.18
L145.818 346.721
L145.94 346.638
L146.062 346.051
L146.305 332.305
L146.346 332.671
L146.589 339.016
L147.158 355.652
L147.523 358.307
L147.766 358.922
L147.969 358.955
L148.213 358.632
L148.862 357.142
L149.268 355.928
L149.349 355.28
L149.471 343.217
L149.674 333.267
L149.714 333.297
L149.836 335.288
L150.323 353.819
L150.769 360.807
L151.175 363.912
L151.581 365.409
L152.109 366.48
L156.004 372.706
L157.059 373.971
L157.993 374.762
L158.886 375.229
L159.778 375.445
L160.752 375.442
L161.848 375.205
L163.187 374.676
L164.973 373.71
L168.017 371.761
L172.521 368.923
L175.727 367.185
L180.8 364.751
L183.275 363.417
L184.736 362.39
L185.71 361.449
L186.4 360.48
L186.847 359.498
L187.131 358.389
L187.252 357.305
L187.334 350.106
L187.577 330.518
L187.699 327.889
L187.739 328.757
L188.105 341.483
L188.429 345.166
L188.713 346.53
L188.916 346.711
L189.038 346.45
L189.079 346.213
L189.119 345.145
L189.322 332.319
L189.363 332.471
L189.566 337.491
L189.728 344.472
L189.971 352.61
L190.337 357.017
L190.661 358.667
L190.905 358.983
L191.067 358.898
L191.351 358.417
L192.203 356.322
L192.366 355.467
L192.406 354.616
L192.69 333.372
L192.731 333.24
L192.812 334.022
L192.893 336.36
L193.218 350.723
L193.664 359.124
L194.07 363.112
L194.476 365.008
L194.963 366.17
L196.018 367.855
L199.792 373.651
L200.766 374.574
L201.659 375.121
L202.552 375.406
L203.485 375.466
L204.54 375.301
L205.798 374.866
L207.422 374.049
L209.856 372.545
L216.065 368.627
L219.271 366.928
L226.901 363.035
L228.159 362.049
L229.011 361.116
L229.62 360.122
L230.026 359.017
L230.229 357.933
L230.31 356.601
L230.634 329.604
L230.715 327.9
L230.756 328.276
L231.202 342.5
L231.527 345.612
L231.811 346.659
L231.974 346.686
L232.095 346.319
L232.136 345.88
L232.379 332.347
L232.501 334.792
L232.785 345.962
L233.029 353.058
L233.394 357.212
L233.719 358.732
L233.921 358.98
L234.084 358.913
L234.368 358.449
L235.22 356.371
L235.382 355.602
L235.423 355.106
L235.748 333.236
L235.788 333.362
L235.91 335.663
L236.316 352.293
L236.762 359.986
L237.168 363.524
L237.574 365.212
L238.061 366.289
L239.603 368.755
L242.241 372.939
L243.296 374.142
L244.229 374.874
L245.122 375.29
L246.015 375.461
L246.989 375.419
L248.125 375.137
L249.505 374.554
L251.372 373.507
L255.024 371.141
L258.879 368.752
L262.085 367.036
L270.08 362.933
L271.297 361.948
L272.109 361.026
L272.677 360.067
L273.042 359.069
L273.245 358.046
L273.326 357.073
L273.773 327.992
L274.382 344.232
L274.706 346.324
L274.909 346.722
L274.909 346.722" style="fill:none;stroke:#0000ff;stroke-linecap:square;"/>
   </g>
   <g id="patch_23">
    <path d="
M72 287.153
L274.909 287.153" style="fill:none;stroke:#000000;stroke-linecap:square;stroke-linejoin:miter;"/>
   </g>
   <g id="patch_24">
    <path d="
M274.909 388.8
L274.909 287.153" style="fill:none;stroke:#000000;stroke-linecap:square;stroke-linejoin:miter;"/>
   </g>
   <g id="patch_25">
    <path d="
M72 388.8
L274.909 388.8" style="fill:none;stroke:#000000;stroke-linecap:square;stroke-linejoin:miter;"/>
   </g>
   <g id="patch_26">
    <path d="
M72 388.8
L72 287.153" style="fill:none;stroke:#000000;stroke-linecap:square;stroke-linejoin:miter;"/>
   </g>
   <g id="matplotlib.axis_9">
    <g id="text_11">
     <!-- 1 s -->
     <defs>
      <path d="
M11.7188 12.9844
L28.3281 12.9844
L28.3281 60.1094
L11.2812 56.5938
L11.2812 69.3906
L28.2188 72.9062
L46.0938 72.9062
L46.0938 12.9844
L62.7031 12.9844
L62.7031 0
L11.7188 0
z
" id="BitstreamVeraSans-Bold-31"/>
      <path id="BitstreamVeraSans-Bold-20"/>
     </defs>
     <g transform="translate(163.904232955 402.918125)scale(0.12 -0.12)">
      <use xlink:href="#BitstreamVeraSans-Bold-31"/>
      <use x="69.580078125" xlink:href="#BitstreamVeraSans-Bold-20"/>
      <use x="104.39453125" xlink:href="#BitstreamVeraSans-Bold-73"/>
     </g>
    </g>
   </g>
   <g id="matplotlib.axis_10">
    <g id="ytick_9">
     <g id="line2d_22">
      <g>
       <use style="stroke:#000000;stroke-width:0.5;" x="72.0" xlink:href="#m728421d6d4" y="374.278991597"/>
      </g>
     </g>
     <g id="line2d_23">
      <g>
       <use style="stroke:#000000;stroke-width:0.5;" x="274.909090909" xlink:href="#mcb0005524f" y="374.278991597"/>
      </g>
     </g>
     <g id="text_12">
      <!-- −60 -->
      <g transform="translate(44.7425 377.590241597)scale(0.12 -0.12)">
       <use xlink:href="#BitstreamVeraSans-Roman-2212"/>
       <use x="83.7890625" xlink:href="#BitstreamVeraSans-Roman-36"/>
       <use x="147.412109375" xlink:href="#BitstreamVeraSans-Roman-30"/>
      </g>
     </g>
    </g>
    <g id="ytick_10">
     <g id="line2d_24">
      <g>
       <use style="stroke:#000000;stroke-width:0.5;" x="72.0" xlink:href="#m728421d6d4" y="330.715966387"/>
      </g>
     </g>
     <g id="line2d_25">
      <g>
       <use style="stroke:#000000;stroke-width:0.5;" x="274.909090909" xlink:href="#mcb0005524f" y="330.715966387"/>
      </g>
     </g>
     <g id="text_13">
      <!-- 0 -->
      <g transform="translate(61.953125 334.027216387)scale(0.12 -0.12)">
       <use xlink:href="#BitstreamVeraSans-Roman-30"/>
      </g>
     </g>
    </g>
   </g>
  </g>
  <g id="axes_6">
   <g id="patch_27">
    <path d="
M315.491 388.8
L518.4 388.8
L518.4 287.153
L315.491 287.153
z
" style="fill:#ffffff;"/>
   </g>
   <g id="line2d_26">
    <path clip-path="url(#p8ca55fdb04)" d="
M315.531 374.382
L316.424 374.926
L317.317 375.215
L318.25 375.283
L319.306 375.131
L320.564 374.714
L322.187 373.921
L324.622 372.452
L330.993 368.52
L334.361 366.774
L340.692 363.575
L342.072 362.577
L343.005 361.637
L343.655 360.669
L344.101 359.595
L344.385 358.35
L344.547 356.832
L344.629 354.936
L344.669 352.184
L344.75 296.434
L344.832 301.592
L345.359 377.841
L345.4 377.678
L345.603 374.932
L346.414 358.775
L346.495 355.231
L346.577 295.233
L346.698 301.957
L347.064 345.478
L347.226 383.166
L347.266 383.545
L347.348 383.331
L347.632 380.621
L349.783 354.4
L349.823 343.994
L349.864 295.814
L349.945 299.106
L350.27 343.187
L350.472 381.322
L350.513 381.579
L350.554 381.528
L350.716 380.289
L351.771 370.816
L352.217 368.895
L352.623 368.06
L352.948 367.816
L353.273 367.828
L353.678 368.085
L354.287 368.776
L355.464 370.535
L357.128 372.93
L358.183 374.065
L359.116 374.75
L360.009 375.132
L360.943 375.283
L361.957 375.211
L363.134 374.892
L364.595 374.252
L366.624 373.099
L375.958 367.49
L380.422 365.331
L383.344 363.808
L384.845 362.79
L385.86 361.845
L386.55 360.913
L387.037 359.884
L387.361 358.675
L387.564 357.056
L387.686 353.669
L387.727 345.36
L387.808 296.714
L387.848 299.668
L388.173 353.555
L388.335 377.45
L388.376 377.825
L388.416 377.773
L388.579 375.876
L389.187 364.14
L389.512 356.354
L389.553 351.465
L389.593 295.406
L389.674 297.531
L389.877 319.799
L390.121 356.229
L390.283 383.462
L390.324 383.562
L390.324 383.562
L390.324 383.562
L390.446 382.851
L390.851 378.349
L392.109 363.479
L392.718 357.645
L392.799 355.363
L392.84 351.423
L392.921 295.858
L392.962 297.806
L393.165 326.261
L393.327 349.663
L393.489 381.068
L393.57 381.574
L393.611 381.416
L393.854 379.211
L394.666 371.68
L395.112 369.358
L395.518 368.267
L395.883 367.858
L396.208 367.803
L396.573 367.973
L397.101 368.497
L397.994 369.755
L400.307 373.109
L401.321 374.158
L402.255 374.808
L403.148 375.162
L404.081 375.286
L405.096 375.192
L406.272 374.854
L407.774 374.178
L409.884 372.959
L418.406 367.793
L422.262 365.898
L426.158 363.936
L427.74 362.897
L428.795 361.951
L429.526 361.005
L430.013 360.032
L430.337 358.948
L430.54 357.667
L430.662 355.905
L430.743 350.806
L430.824 296.328
L430.865 298.23
L431.149 340.678
L431.433 377.829
L431.555 376.708
L431.961 369.298
L432.529 357.12
L432.569 354.338
L432.651 295.381
L432.691 296.721
L432.854 312.547
L433.178 369.201
L433.341 383.564
L433.422 383.276
L433.706 380.52
L435.816 356.014
L435.857 353.649
L435.938 295.609
L436.019 299.947
L436.344 345.015
L436.506 380.697
L436.587 381.588
L436.628 381.493
L436.831 379.795
L437.764 371.252
L438.21 369.125
L438.616 368.16
L438.981 367.827
L439.306 367.818
L439.712 368.057
L440.321 368.734
L441.457 370.423
L443.202 372.942
L444.257 374.073
L445.19 374.755
L446.083 375.135
L447.017 375.284
L448.031 375.21
L449.208 374.889
L450.669 374.248
L452.698 373.094
L461.991 367.506
L466.415 365.365
L469.377 363.826
L470.919 362.782
L471.934 361.834
L472.624 360.896
L473.111 359.855
L473.435 358.62
L473.638 356.916
L473.719 355.152
L473.76 352.819
L473.841 296.775
L473.963 307.028
L474.409 377.603
L474.45 377.843
L474.49 377.717
L474.653 375.711
L475.343 362.374
L475.586 355.698
L475.627 345.948
L475.667 295.174
L475.749 298.162
L475.992 325.859
L476.154 344.03
L476.317 383.049
L476.398 383.543
L476.438 383.367
L476.682 381.145
L477.453 371.267
L478.183 363.39
L478.792 357.455
L478.873 354.802
L478.914 348.129
L478.995 296.186
L479.036 298.591
L479.36 342.153
L479.604 381.567
L479.644 381.549
L479.807 380.348
L480.862 370.851
L481.308 368.913
L481.714 368.068
L482.039 367.818
L482.363 367.826
L482.769 368.08
L483.378 368.769
L484.555 370.526
L486.219 372.923
L487.274 374.06
L488.207 374.747
L489.1 375.131
L490.033 375.283
L491.048 375.212
L492.225 374.895
L493.686 374.256
L495.715 373.103
L505.049 367.493
L509.513 365.333
L512.434 363.811
L513.936 362.793
L514.951 361.85
L515.64 360.919
L516.127 359.894
L516.452 358.695
L516.655 357.103
L516.777 353.914
L516.817 347.347
L516.898 296.577
L516.939 299.287
L517.264 352.179
L517.426 377.385
L517.467 377.813
L517.548 377.514
L517.791 373.836
L518.4 361.861
L518.4 361.861" style="fill:none;stroke:#0000ff;stroke-linecap:square;"/>
   </g>
   <g id="patch_28">
    <path d="
M315.491 287.153
L518.4 287.153" style="fill:none;stroke:#000000;stroke-linecap:square;stroke-linejoin:miter;"/>
   </g>
   <g id="patch_29">
    <path d="
M518.4 388.8
L518.4 287.153" style="fill:none;stroke:#000000;stroke-linecap:square;stroke-linejoin:miter;"/>
   </g>
   <g id="patch_30">
    <path d="
M315.491 388.8
L518.4 388.8" style="fill:none;stroke:#000000;stroke-linecap:square;stroke-linejoin:miter;"/>
   </g>
   <g id="patch_31">
    <path d="
M315.491 388.8
L315.491 287.153" style="fill:none;stroke:#000000;stroke-linecap:square;stroke-linejoin:miter;"/>
   </g>
   <g id="matplotlib.axis_11">
    <g id="text_14">
     <!-- 1 s -->
     <g transform="translate(407.395142045 402.918125)scale(0.12 -0.12)">
      <use xlink:href="#BitstreamVeraSans-Bold-31"/>
      <use x="69.580078125" xlink:href="#BitstreamVeraSans-Bold-20"/>
      <use x="104.39453125" xlink:href="#BitstreamVeraSans-Bold-73"/>
     </g>
    </g>
   </g>
   <g id="matplotlib.axis_12">
    <g id="ytick_11">
     <g id="line2d_27">
      <g>
       <use style="stroke:#000000;stroke-width:0.5;" x="315.490909091" xlink:href="#m728421d6d4" y="374.278991597"/>
      </g>
     </g>
     <g id="line2d_28">
      <g>
       <use style="stroke:#000000;stroke-width:0.5;" x="518.4" xlink:href="#mcb0005524f" y="374.278991597"/>
      </g>
     </g>
     <g id="text_15">
      <!-- −60 -->
      <g transform="translate(288.233409091 377.590241597)scale(0.12 -0.12)">
       <use xlink:href="#BitstreamVeraSans-Roman-2212"/>
       <use x="83.7890625" xlink:href="#BitstreamVeraSans-Roman-36"/>
       <use x="147.412109375" xlink:href="#BitstreamVeraSans-Roman-30"/>
      </g>
     </g>
    </g>
    <g id="ytick_12">
     <g id="line2d_29">
      <g>
       <use style="stroke:#000000;stroke-width:0.5;" x="315.490909091" xlink:href="#m728421d6d4" y="330.715966387"/>
      </g>
     </g>
     <g id="line2d_30">
      <g>
       <use style="stroke:#000000;stroke-width:0.5;" x="518.4" xlink:href="#mcb0005524f" y="330.715966387"/>
      </g>
     </g>
     <g id="text_16">
      <!-- 0 -->
      <g transform="translate(305.444034091 334.027216387)scale(0.12 -0.12)">
       <use xlink:href="#BitstreamVeraSans-Roman-30"/>
      </g>
     </g>
    </g>
   </g>
  </g>
 </g>
 <defs>
  <clipPath id="pf4132cbc21">
   <rect height="101.647058824" width="202.909090909" x="315.490909091" y="165.176470588"/>
  </clipPath>
  <clipPath id="p5df05f4a8e">
   <rect height="101.647058824" width="202.909090909" x="72.0" y="287.152941176"/>
  </clipPath>
  <clipPath id="pdf2bc2c95a">
   <rect height="101.647058824" width="202.909090909" x="72.0" y="43.2"/>
  </clipPath>
  <clipPath id="pbd5a3a9a46">
   <rect height="101.647058824" width="202.909090909" x="315.490909091" y="43.2"/>
  </clipPath>
  <clipPath id="p68273c1835">
   <rect height="101.647058824" width="202.909090909" x="72.0" y="165.176470588"/>
  </clipPath>
  <clipPath id="p8ca55fdb04">
   <rect height="101.647058824" width="202.909090909" x="315.490909091" y="287.152941176"/>
  </clipPath>
 </defs>
</svg>
