<?xml version="1.0" encoding="utf-8" standalone="no"?>
<!DOCTYPE svg PUBLIC "-//W3C//DTD SVG 1.1//EN"
  "http://www.w3.org/Graphics/SVG/1.1/DTD/svg11.dtd">
<!-- Created with matplotlib (http://matplotlib.org/) -->
<svg height="432pt" version="1.1" viewBox="0 0 576 432" width="576pt" xmlns="http://www.w3.org/2000/svg" xmlns:xlink="http://www.w3.org/1999/xlink">
 <defs>
  <style type="text/css">
*{stroke-linecap:butt;stroke-linejoin:round;}
  </style>
 </defs>
 <g id="figure_1">
  <g id="patch_1">
   <path d="
M0 432
L576 432
L576 0
L0 0
z
" style="fill:#ffffff;"/>
  </g>
  <g id="axes_1">
   <g id="patch_2">
    <path d="
M72 144.847
L274.909 144.847
L274.909 43.2
L72 43.2
z
" style="fill:#ffffff;"/>
   </g>
   <g id="line2d_1">
    <path clip-path="url(#pdf2bc2c95a)" d="
M72 126.696
L73.5421 126.296
L77.8438 125.386
L82.7136 124.588
L88.2733 123.908
L94.7664 123.344
L102.599 122.893
L112.501 122.557
L125.852 122.341
L146.386 122.255
L195.369 122.339
L274.869 122.465
L274.869 122.465" style="fill:none;stroke:#0000ff;stroke-linecap:square;"/>
   </g>
   <g id="patch_3">
    <path d="
M72 43.2
L274.909 43.2" style="fill:none;stroke:#000000;stroke-linecap:square;stroke-linejoin:miter;"/>
   </g>
   <g id="patch_4">
    <path d="
M274.909 144.847
L274.909 43.2" style="fill:none;stroke:#000000;stroke-linecap:square;stroke-linejoin:miter;"/>
   </g>
   <g id="patch_5">
    <path d="
M72 144.847
L274.909 144.847" style="fill:none;stroke:#000000;stroke-linecap:square;stroke-linejoin:miter;"/>
   </g>
   <g id="patch_6">
    <path d="
M72 144.847
L72 43.2" style="fill:none;stroke:#000000;stroke-linecap:square;stroke-linejoin:miter;"/>
   </g>
   <g id="matplotlib.axis_1"/>
   <g id="matplotlib.axis_2">
    <g id="ytick_1">
     <g id="line2d_2">
      <defs>
       <path d="
M0 0
L4 0" id="m728421d6d4" style="stroke:#000000;stroke-width:0.5;"/>
      </defs>
      <g>
       <use style="stroke:#000000;stroke-width:0.5;" x="72.0" xlink:href="#m728421d6d4" y="130.32605042"/>
      </g>
     </g>
     <g id="line2d_3">
      <defs>
       <path d="
M0 0
L-4 0" id="mcb0005524f" style="stroke:#000000;stroke-width:0.5;"/>
      </defs>
      <g>
       <use style="stroke:#000000;stroke-width:0.5;" x="274.909090909" xlink:href="#mcb0005524f" y="130.32605042"/>
      </g>
     </g>
     <g id="text_1">
      <!-- −60 -->
      <defs>
       <path d="
M10.5938 35.5
L73.1875 35.5
L73.1875 27.2031
L10.5938 27.2031
z
" id="BitstreamVeraSans-Roman-2212"/>
       <path d="
M31.7812 66.4062
Q24.1719 66.4062 20.3281 58.9062
Q16.5 51.4219 16.5 36.375
Q16.5 21.3906 20.3281 13.8906
Q24.1719 6.39062 31.7812 6.39062
Q39.4531 6.39062 43.2812 13.8906
Q47.125 21.3906 47.125 36.375
Q47.125 51.4219 43.2812 58.9062
Q39.4531 66.4062 31.7812 66.4062
M31.7812 74.2188
Q44.0469 74.2188 50.5156 64.5156
Q56.9844 54.8281 56.9844 36.375
Q56.9844 17.9688 50.5156 8.26562
Q44.0469 -1.42188 31.7812 -1.42188
Q19.5312 -1.42188 13.0625 8.26562
Q6.59375 17.9688 6.59375 36.375
Q6.59375 54.8281 13.0625 64.5156
Q19.5312 74.2188 31.7812 74.2188" id="BitstreamVeraSans-Roman-30"/>
       <path d="
M33.0156 40.375
Q26.375 40.375 22.4844 35.8281
Q18.6094 31.2969 18.6094 23.3906
Q18.6094 15.5312 22.4844 10.9531
Q26.375 6.39062 33.0156 6.39062
Q39.6562 6.39062 43.5312 10.9531
Q47.4062 15.5312 47.4062 23.3906
Q47.4062 31.2969 43.5312 35.8281
Q39.6562 40.375 33.0156 40.375
M52.5938 71.2969
L52.5938 62.3125
Q48.875 64.0625 45.0938 64.9844
Q41.3125 65.9219 37.5938 65.9219
Q27.8281 65.9219 22.6719 59.3281
Q17.5312 52.7344 16.7969 39.4062
Q19.6719 43.6562 24.0156 45.9219
Q28.375 48.1875 33.5938 48.1875
Q44.5781 48.1875 50.9531 41.5156
Q57.3281 34.8594 57.3281 23.3906
Q57.3281 12.1562 50.6875 5.35938
Q44.0469 -1.42188 33.0156 -1.42188
Q20.3594 -1.42188 13.6719 8.26562
Q6.98438 17.9688 6.98438 36.375
Q6.98438 53.6562 15.1875 63.9375
Q23.3906 74.2188 37.2031 74.2188
Q40.9219 74.2188 44.7031 73.4844
Q48.4844 72.75 52.5938 71.2969" id="BitstreamVeraSans-Roman-36"/>
      </defs>
      <g transform="translate(44.7425 133.63730042)scale(0.12 -0.12)">
       <use xlink:href="#BitstreamVeraSans-Roman-2212"/>
       <use x="83.7890625" xlink:href="#BitstreamVeraSans-Roman-36"/>
       <use x="147.412109375" xlink:href="#BitstreamVeraSans-Roman-30"/>
      </g>
     </g>
    </g>
    <g id="ytick_2">
     <g id="line2d_4">
      <g>
       <use style="stroke:#000000;stroke-width:0.5;" x="72.0" xlink:href="#m728421d6d4" y="86.7630252101"/>
      </g>
     </g>
     <g id="line2d_5">
      <g>
       <use style="stroke:#000000;stroke-width:0.5;" x="274.909090909" xlink:href="#mcb0005524f" y="86.7630252101"/>
      </g>
     </g>
     <g id="text_2">
      <!-- 0 -->
      <g transform="translate(61.953125 90.0742752101)scale(0.12 -0.12)">
       <use xlink:href="#BitstreamVeraSans-Roman-30"/>
      </g>
     </g>
    </g>
   </g>
   <g id="text_3">
    <!-- soma -->
    <defs>
     <path d="
M51.125 52.9844
L51.125 39.7031
Q45.5156 42.0469 40.2812 43.2188
Q35.0625 44.3906 30.4219 44.3906
Q25.4375 44.3906 23.0156 43.1406
Q20.6094 41.8906 20.6094 39.3125
Q20.6094 37.2031 22.4375 36.0781
Q24.2656 34.9688 29 34.4219
L32.0781 33.9844
Q45.5156 32.2812 50.1406 28.375
Q54.7812 24.4688 54.7812 16.1094
Q54.7812 7.375 48.3281 2.96875
Q41.8906 -1.42188 29.1094 -1.42188
Q23.6875 -1.42188 17.8906 -0.5625
Q12.1094 0.296875 6 2
L6 15.2812
Q11.2344 12.75 16.7188 11.4688
Q22.2188 10.2031 27.875 10.2031
Q33.0156 10.2031 35.5938 11.6094
Q38.1875 13.0312 38.1875 15.8281
Q38.1875 18.1719 36.4062 19.3125
Q34.625 20.4531 29.2969 21.0938
L26.2188 21.4844
Q14.5469 22.9531 9.85938 26.9062
Q5.17188 30.8594 5.17188 38.9219
Q5.17188 47.6094 11.125 51.7969
Q17.0938 56 29.3906 56
Q34.2344 56 39.5469 55.2656
Q44.875 54.5469 51.125 52.9844" id="BitstreamVeraSans-Bold-73"/>
     <path d="
M32.9062 24.6094
Q27.4375 24.6094 24.6719 22.75
Q21.9219 20.9062 21.9219 17.2812
Q21.9219 13.9688 24.1406 12.0781
Q26.375 10.2031 30.3281 10.2031
Q35.25 10.2031 38.625 13.7344
Q42 17.2812 42 22.6094
L42 24.6094
z

M59.625 31.2031
L59.625 0
L42 0
L42 8.10938
Q38.4844 3.125 34.0781 0.84375
Q29.6875 -1.42188 23.3906 -1.42188
Q14.8906 -1.42188 9.59375 3.53125
Q4.29688 8.5 4.29688 16.4062
Q4.29688 26.0312 10.9062 30.5156
Q17.5312 35.0156 31.6875 35.0156
L42 35.0156
L42 36.375
Q42 40.5312 38.7188 42.4531
Q35.4531 44.3906 28.5156 44.3906
Q22.9062 44.3906 18.0625 43.2656
Q13.2344 42.1406 9.07812 39.8906
L9.07812 53.2188
Q14.7031 54.5938 20.3594 55.2969
Q26.0312 56 31.6875 56
Q46.4844 56 53.0469 50.1719
Q59.625 44.3438 59.625 31.2031" id="BitstreamVeraSans-Bold-61"/>
     <path d="
M34.4219 43.5
Q28.6094 43.5 25.5625 39.3281
Q22.5156 35.1562 22.5156 27.2969
Q22.5156 19.4375 25.5625 15.25
Q28.6094 11.0781 34.4219 11.0781
Q40.1406 11.0781 43.1562 15.25
Q46.1875 19.4375 46.1875 27.2969
Q46.1875 35.1562 43.1562 39.3281
Q40.1406 43.5 34.4219 43.5
M34.4219 56
Q48.5312 56 56.4688 48.375
Q64.4062 40.7656 64.4062 27.2969
Q64.4062 13.8125 56.4688 6.1875
Q48.5312 -1.42188 34.4219 -1.42188
Q20.2656 -1.42188 12.2812 6.1875
Q4.29688 13.8125 4.29688 27.2969
Q4.29688 40.7656 12.2812 48.375
Q20.2656 56 34.4219 56" id="BitstreamVeraSans-Bold-6f"/>
     <path d="
M59.0781 45.6094
Q62.4062 50.6875 66.9688 53.3438
Q71.5312 56 77 56
Q86.4219 56 91.3594 50.1875
Q96.2969 44.3906 96.2969 33.2969
L96.2969 0
L78.7188 0
L78.7188 28.5156
Q78.7656 29.1562 78.7812 29.8281
Q78.8125 30.5156 78.8125 31.7812
Q78.8125 37.5938 77.0938 40.2031
Q75.3906 42.8281 71.5781 42.8281
Q66.6094 42.8281 63.8906 38.7188
Q61.1875 34.625 61.0781 26.8594
L61.0781 0
L43.5 0
L43.5 28.5156
Q43.5 37.5938 41.9375 40.2031
Q40.375 42.8281 36.375 42.8281
Q31.3438 42.8281 28.6094 38.7031
Q25.875 34.5781 25.875 26.9062
L25.875 0
L8.29688 0
L8.29688 54.6875
L25.875 54.6875
L25.875 46.6875
Q29.1094 51.3125 33.2812 53.6562
Q37.4531 56 42.4844 56
Q48.1406 56 52.4844 53.2656
Q56.8438 50.5312 59.0781 45.6094" id="BitstreamVeraSans-Bold-6d"/>
    </defs>
    <g transform="translate(152.799545455 38.2)scale(0.144 -0.144)">
     <use xlink:href="#BitstreamVeraSans-Bold-73"/>
     <use x="59.521484375" xlink:href="#BitstreamVeraSans-Bold-6f"/>
     <use x="128.22265625" xlink:href="#BitstreamVeraSans-Bold-6d"/>
     <use x="232.421875" xlink:href="#BitstreamVeraSans-Bold-61"/>
    </g>
   </g>
  </g>
  <g id="axes_2">
   <g id="patch_7">
    <path d="
M315.491 144.847
L518.4 144.847
L518.4 43.2
L315.491 43.2
z
" style="fill:#ffffff;"/>
   </g>
   <g id="line2d_6">
    <path clip-path="url(#pbd5a3a9a46)" d="
M315.491 126.696
L317.642 126.185
L322.025 125.288
L326.976 124.507
L332.657 123.842
L339.312 123.293
L347.388 122.858
L357.655 122.538
L371.697 122.338
L393.936 122.27
L458.501 122.393
L518.359 122.476
L518.359 122.476" style="fill:none;stroke:#0000ff;stroke-linecap:square;"/>
   </g>
   <g id="patch_8">
    <path d="
M315.491 43.2
L518.4 43.2" style="fill:none;stroke:#000000;stroke-linecap:square;stroke-linejoin:miter;"/>
   </g>
   <g id="patch_9">
    <path d="
M518.4 144.847
L518.4 43.2" style="fill:none;stroke:#000000;stroke-linecap:square;stroke-linejoin:miter;"/>
   </g>
   <g id="patch_10">
    <path d="
M315.491 144.847
L518.4 144.847" style="fill:none;stroke:#000000;stroke-linecap:square;stroke-linejoin:miter;"/>
   </g>
   <g id="patch_11">
    <path d="
M315.491 144.847
L315.491 43.2" style="fill:none;stroke:#000000;stroke-linecap:square;stroke-linejoin:miter;"/>
   </g>
   <g id="matplotlib.axis_3"/>
   <g id="matplotlib.axis_4">
    <g id="ytick_3">
     <g id="line2d_7">
      <g>
       <use style="stroke:#000000;stroke-width:0.5;" x="315.490909091" xlink:href="#m728421d6d4" y="130.32605042"/>
      </g>
     </g>
     <g id="line2d_8">
      <g>
       <use style="stroke:#000000;stroke-width:0.5;" x="518.4" xlink:href="#mcb0005524f" y="130.32605042"/>
      </g>
     </g>
     <g id="text_4">
      <!-- −60 -->
      <g transform="translate(288.233409091 133.63730042)scale(0.12 -0.12)">
       <use xlink:href="#BitstreamVeraSans-Roman-2212"/>
       <use x="83.7890625" xlink:href="#BitstreamVeraSans-Roman-36"/>
       <use x="147.412109375" xlink:href="#BitstreamVeraSans-Roman-30"/>
      </g>
     </g>
    </g>
    <g id="ytick_4">
     <g id="line2d_9">
      <g>
       <use style="stroke:#000000;stroke-width:0.5;" x="315.490909091" xlink:href="#m728421d6d4" y="86.7630252101"/>
      </g>
     </g>
     <g id="line2d_10">
      <g>
       <use style="stroke:#000000;stroke-width:0.5;" x="518.4" xlink:href="#mcb0005524f" y="86.7630252101"/>
      </g>
     </g>
     <g id="text_5">
      <!-- 0 -->
      <g transform="translate(305.444034091 90.0742752101)scale(0.12 -0.12)">
       <use xlink:href="#BitstreamVeraSans-Roman-30"/>
      </g>
     </g>
    </g>
   </g>
   <g id="text_6">
    <!-- axon -->
    <defs>
     <path d="
M22.2188 27.9844
L2.48438 54.6875
L21 54.6875
L32.1719 38.4844
L43.5 54.6875
L62.0156 54.6875
L42.2812 28.0781
L62.9844 0
L44.4844 0
L32.1719 17.2812
L20.0156 0
L1.51562 0
z
" id="BitstreamVeraSans-Bold-78"/>
     <path d="
M63.375 33.2969
L63.375 0
L45.7969 0
L45.7969 5.42188
L45.7969 25.4844
Q45.7969 32.5625 45.4844 35.25
Q45.1719 37.9375 44.3906 39.2031
Q43.3594 40.9219 41.5938 41.875
Q39.8438 42.8281 37.5938 42.8281
Q32.125 42.8281 29 38.5938
Q25.875 34.375 25.875 26.9062
L25.875 0
L8.40625 0
L8.40625 54.6875
L25.875 54.6875
L25.875 46.6875
Q29.8281 51.4688 34.2656 53.7344
Q38.7188 56 44.0938 56
Q53.5625 56 58.4688 50.1875
Q63.375 44.3906 63.375 33.2969" id="BitstreamVeraSans-Bold-6e"/>
    </defs>
    <g transform="translate(398.242329545 38.2)scale(0.144 -0.144)">
     <use xlink:href="#BitstreamVeraSans-Bold-61"/>
     <use x="67.48046875" xlink:href="#BitstreamVeraSans-Bold-78"/>
     <use x="131.982421875" xlink:href="#BitstreamVeraSans-Bold-6f"/>
     <use x="200.68359375" xlink:href="#BitstreamVeraSans-Bold-6e"/>
    </g>
   </g>
  </g>
  <g id="axes_3">
   <g id="patch_12">
    <path d="
M72 266.824
L274.909 266.824
L274.909 165.176
L72 165.176
z
" style="fill:#ffffff;"/>
   </g>
   <g id="line2d_11">
    <path clip-path="url(#p68273c1835)" d="
M72.0406 239.348
L72.7711 238.319
L73.258 237.24
L73.5421 236.08
L73.6639 234.634
L73.9479 214.318
L73.9885 214.4
L74.1103 220.172
L74.3943 229.604
L74.719 233.763
L75.0031 235.019
L75.1654 235.032
L75.3277 234.675
L75.6524 233.219
L76.0988 230.104
L76.1799 228.906
L76.4234 210.894
L76.5452 214.167
L77.0727 232.35
L77.3974 234.438
L77.6815 235.048
L77.8844 235.04
L78.1684 234.695
L78.8177 233.853
L79.2236 233.485
L79.3047 232.983
L79.5482 217.388
L79.5888 217.804
L79.7105 221.654
L80.0352 238.408
L80.3599 243.301
L80.7657 246.079
L81.2121 247.647
L81.8614 249.018
L83.16 251.697
L85.1485 255.959
L85.9601 257.131
L86.6906 257.816
L87.4211 258.197
L88.1921 258.336
L89.0444 258.256
L90.0589 257.927
L91.3575 257.253
L93.062 256.097
L95.6998 254.005
L101.381 249.452
L104.1 247.594
L106.738 246.061
L109.822 244.539
L115.504 241.789
L117.168 240.701
L118.304 239.708
L119.115 238.716
L119.684 237.672
L120.049 236.521
L120.211 235.428
L120.252 234.691
L120.536 214.33
L120.576 214.393
L120.658 217.613
L120.942 228.785
L121.266 233.437
L121.55 234.967
L121.713 235.093
L121.875 234.821
L122.159 233.682
L122.606 230.861
L122.768 229.022
L123.011 210.886
L123.052 211.408
L123.214 218.181
L123.458 229.609
L123.782 233.326
L124.107 234.799
L124.351 235.078
L124.553 234.973
L125 234.315
L125.446 233.832
L125.811 233.504
L125.893 233.061
L126.136 217.393
L126.217 218.544
L126.339 224.434
L126.623 238.298
L126.948 243.257
L127.354 246.06
L127.8 247.64
L128.449 249.017
L129.748 251.698
L131.736 255.964
L132.548 257.138
L133.279 257.824
L134.009 258.204
L134.78 258.344
L135.632 258.263
L136.647 257.933
L137.945 257.258
L139.65 256.1
L142.288 254.004
L147.969 249.445
L150.688 247.585
L153.326 246.05
L156.41 244.527
L162.051 241.793
L163.715 240.704
L164.851 239.711
L165.663 238.719
L166.231 237.675
L166.596 236.522
L166.759 235.425
L166.799 234.674
L167.083 214.332
L167.124 214.405
L167.205 217.667
L167.489 228.822
L167.814 233.468
L168.098 234.992
L168.26 235.116
L168.422 234.842
L168.706 233.702
L169.153 230.882
L169.315 229.071
L169.559 210.887
L169.599 211.377
L169.762 218.053
L170.005 229.579
L170.33 233.313
L170.654 234.794
L170.898 235.077
L171.101 234.975
L171.507 234.381
L171.953 233.863
L172.359 233.517
L172.44 233.102
L172.562 222.178
L172.683 217.406
L172.724 217.71
L172.846 221.196
L173.17 238.24
L173.495 243.235
L173.901 246.052
L174.347 247.639
L174.997 249.02
L176.295 251.703
L178.284 255.973
L179.095 257.147
L179.826 257.832
L180.556 258.212
L181.327 258.351
L182.18 258.269
L183.194 257.938
L184.493 257.261
L186.197 256.101
L188.835 254.002
L194.517 249.437
L197.235 247.575
L199.873 246.039
L202.958 244.514
L208.558 241.795
L210.222 240.706
L211.358 239.712
L212.17 238.719
L212.738 237.674
L213.103 236.517
L213.265 235.405
L213.306 234.602
L213.59 214.327
L213.631 214.432
L213.752 220.297
L214.036 229.701
L214.361 233.849
L214.645 235.093
L214.767 235.138
L214.929 234.859
L215.213 233.713
L215.66 230.89
L215.822 229.082
L216.065 210.892
L216.106 211.379
L216.268 218.047
L216.512 229.578
L216.837 233.311
L217.161 234.793
L217.405 235.077
L217.608 234.975
L218.013 234.383
L218.46 233.866
L218.866 233.526
L218.947 233.123
L219.028 226.313
L219.19 217.421
L219.271 218.474
L219.393 224.114
L219.677 238.218
L220.002 243.227
L220.408 246.05
L220.854 247.641
L221.503 249.025
L222.843 251.804
L224.75 255.913
L225.562 257.11
L226.292 257.813
L227.023 258.207
L227.753 258.355
L228.605 258.291
L229.62 257.976
L230.878 257.336
L232.542 256.221
L235.058 254.234
L241.226 249.279
L243.905 247.461
L246.542 245.94
L249.708 244.388
L254.902 241.867
L256.607 240.768
L257.784 239.754
L258.595 238.778
L259.163 237.764
L259.529 236.684
L259.731 235.373
L259.772 234.482
L260.056 214.321
L260.097 214.472
L260.218 220.485
L260.503 229.78
L260.827 233.896
L261.071 235.051
L261.233 235.159
L261.395 234.873
L261.679 233.72
L262.126 230.891
L262.288 229.073
L262.532 210.898
L262.572 211.399
L262.735 218.109
L262.978 229.593
L263.303 233.316
L263.627 234.794
L263.871 235.076
L264.074 234.974
L264.52 234.321
L264.967 233.842
L265.332 233.532
L265.413 233.135
L265.494 226.379
L265.656 217.434
L265.738 218.477
L265.859 224.089
L266.143 238.217
L266.468 243.229
L266.874 246.053
L267.32 247.646
L267.97 249.032
L269.309 251.815
L271.216 255.926
L272.028 257.121
L272.758 257.823
L273.489 258.216
L274.219 258.362
L274.869 258.332
L274.869 258.332" style="fill:none;stroke:#0000ff;stroke-linecap:square;"/>
   </g>
   <g id="patch_13">
    <path d="
M72 165.176
L274.909 165.176" style="fill:none;stroke:#000000;stroke-linecap:square;stroke-linejoin:miter;"/>
   </g>
   <g id="patch_14">
    <path d="
M274.909 266.824
L274.909 165.176" style="fill:none;stroke:#000000;stroke-linecap:square;stroke-linejoin:miter;"/>
   </g>
   <g id="patch_15">
    <path d="
M72 266.824
L274.909 266.824" style="fill:none;stroke:#000000;stroke-linecap:square;stroke-linejoin:miter;"/>
   </g>
   <g id="patch_16">
    <path d="
M72 266.824
L72 165.176" style="fill:none;stroke:#000000;stroke-linecap:square;stroke-linejoin:miter;"/>
   </g>
   <g id="matplotlib.axis_5"/>
   <g id="matplotlib.axis_6">
    <g id="ytick_5">
     <g id="line2d_12">
      <g>
       <use style="stroke:#000000;stroke-width:0.5;" x="72.0" xlink:href="#m728421d6d4" y="252.302521008"/>
      </g>
     </g>
     <g id="line2d_13">
      <g>
       <use style="stroke:#000000;stroke-width:0.5;" x="274.909090909" xlink:href="#mcb0005524f" y="252.302521008"/>
      </g>
     </g>
     <g id="text_7">
      <!-- −60 -->
      <g transform="translate(44.7425 255.613771008)scale(0.12 -0.12)">
       <use xlink:href="#BitstreamVeraSans-Roman-2212"/>
       <use x="83.7890625" xlink:href="#BitstreamVeraSans-Roman-36"/>
       <use x="147.412109375" xlink:href="#BitstreamVeraSans-Roman-30"/>
      </g>
     </g>
    </g>
    <g id="ytick_6">
     <g id="line2d_14">
      <g>
       <use style="stroke:#000000;stroke-width:0.5;" x="72.0" xlink:href="#m728421d6d4" y="208.739495798"/>
      </g>
     </g>
     <g id="line2d_15">
      <g>
       <use style="stroke:#000000;stroke-width:0.5;" x="274.909090909" xlink:href="#mcb0005524f" y="208.739495798"/>
      </g>
     </g>
     <g id="text_8">
      <!-- 0 -->
      <g transform="translate(61.953125 212.050745798)scale(0.12 -0.12)">
       <use xlink:href="#BitstreamVeraSans-Roman-30"/>
      </g>
     </g>
    </g>
   </g>
  </g>
  <g id="axes_4">
   <g id="patch_17">
    <path d="
M315.491 266.824
L518.4 266.824
L518.4 165.176
L315.491 165.176
z
" style="fill:#ffffff;"/>
   </g>
   <g id="line2d_16">
    <path clip-path="url(#pf4132cbc21)" d="
M315.531 239.444
L316.14 238.486
L316.587 237.358
L316.871 236.006
L317.033 234.175
L317.114 231.067
L317.195 176.142
L317.317 191.85
L317.682 260.027
L317.723 260.129
L317.723 260.129
L317.723 260.129
L317.845 259.383
L318.25 254.491
L319.59 235.003
L319.63 233.037
L319.671 223.001
L319.711 173.472
L319.793 178.789
L320.077 224.387
L320.239 262.869
L320.28 262.955
L320.28 262.955
L320.28 262.955
L320.401 262.302
L320.767 258.634
L321.659 246.233
L322.268 239.651
L322.674 235.352
L322.755 232.797
L322.796 226.854
L322.877 175.015
L322.917 179.258
L323.201 240.836
L323.364 262.776
L323.404 262.854
L323.445 262.784
L323.648 261.79
L324.216 257.494
L324.865 253.223
L325.312 251.602
L325.677 250.985
L326.002 250.842
L326.326 250.983
L326.732 251.44
L327.381 252.557
L329.451 256.351
L330.222 257.234
L330.953 257.749
L331.683 258.001
L332.495 258.039
L333.428 257.849
L334.564 257.379
L336.025 256.519
L338.095 255.017
L347.469 247.877
L350.107 246.324
L353.11 244.824
L359.238 241.844
L360.74 240.82
L361.795 239.838
L362.525 238.857
L363.012 237.851
L363.337 236.72
L363.54 235.334
L363.662 233.208
L363.702 231.194
L363.743 220.057
L363.824 176.137
L363.864 182.045
L364.311 260.15
L364.433 259.416
L364.838 254.539
L366.178 235.135
L366.218 233.308
L366.259 225.921
L366.299 173.573
L366.381 178.307
L366.665 223.099
L366.827 262.848
L366.867 262.969
L366.908 262.843
L367.152 260.93
L367.639 254.924
L368.734 240.815
L369.302 234.566
L369.384 228.529
L369.465 174.701
L369.505 178.55
L369.789 237.582
L369.952 262.759
L369.992 262.865
L370.033 262.808
L370.236 261.831
L370.804 257.547
L371.453 253.26
L371.9 251.626
L372.265 251.001
L372.59 250.853
L372.914 250.99
L373.32 251.444
L373.969 252.56
L376.039 256.357
L376.81 257.241
L377.541 257.757
L378.271 258.008
L379.083 258.046
L380.016 257.855
L381.152 257.384
L382.613 256.523
L384.683 255.018
L394.057 247.869
L396.695 246.314
L399.698 244.812
L405.785 241.847
L407.287 240.823
L408.342 239.841
L409.073 238.86
L409.56 237.853
L409.884 236.721
L410.087 235.332
L410.209 233.192
L410.249 231.148
L410.371 176.192
L410.452 191.627
L410.818 260.063
L410.858 260.169
L410.899 260.032
L411.102 258.171
L411.751 249.363
L412.766 233.422
L412.806 226.837
L412.847 173.673
L412.928 178.1
L413.212 222.595
L413.374 262.842
L413.415 262.979
L413.455 262.859
L413.699 260.957
L414.186 254.962
L415.282 240.843
L415.85 234.646
L415.931 229.236
L416.012 174.542
L416.053 178.166
L416.337 235.642
L416.499 262.752
L416.54 262.875
L416.58 262.825
L416.783 261.859
L417.351 257.582
L418.001 253.287
L418.447 251.645
L418.812 251.015
L419.137 250.864
L419.462 250.999
L419.867 251.452
L420.517 252.567
L422.627 256.421
L423.398 257.286
L424.128 257.785
L424.859 258.023
L425.671 258.049
L426.604 257.847
L427.74 257.367
L429.242 256.471
L431.352 254.923
L440.321 248.043
L442.958 246.459
L445.88 244.972
L452.536 241.702
L453.956 240.694
L454.93 239.75
L455.62 238.791
L456.107 237.74
L456.432 236.509
L456.634 234.829
L456.716 233.127
L456.756 230.976
L456.837 175.862
L456.959 192.155
L457.324 260.098
L457.365 260.185
L457.365 260.185
L457.365 260.185
L457.487 259.43
L457.893 254.555
L459.232 235.202
L459.313 226.937
L459.353 173.683
L459.435 178.073
L459.719 222.535
L459.881 262.85
L459.922 262.987
L459.962 262.868
L460.206 260.968
L460.693 254.979
L461.788 240.857
L462.357 234.685
L462.438 229.531
L462.519 174.47
L462.559 177.986
L462.843 234.716
L463.006 262.754
L463.046 262.885
L463.087 262.838
L463.29 261.878
L463.858 257.606
L464.507 253.306
L464.954 251.66
L465.319 251.028
L465.644 250.875
L465.968 251.009
L466.374 251.462
L467.023 252.577
L469.093 256.376
L469.864 257.26
L470.595 257.774
L471.325 258.024
L472.137 258.059
L473.07 257.865
L474.206 257.391
L475.667 256.526
L477.737 255.016
L487.071 247.875
L489.709 246.314
L492.712 244.806
L498.758 241.852
L500.26 240.826
L501.315 239.842
L502.046 238.858
L502.533 237.847
L502.857 236.704
L503.06 235.288
L503.182 233.031
L503.222 230.711
L503.304 175.455
L503.385 183.206
L503.791 260.136
L503.831 260.2
L503.953 259.422
L504.359 254.541
L505.698 235.184
L505.738 233.399
L505.779 226.611
L505.82 173.629
L505.901 178.149
L506.185 222.723
L506.347 262.866
L506.388 262.995
L506.428 262.873
L506.672 260.971
L507.159 254.983
L508.255 240.862
L508.823 234.701
L508.904 229.639
L508.985 174.443
L509.026 177.919
L509.31 234.379
L509.472 262.761
L509.513 262.895
L509.553 262.848
L509.756 261.891
L510.324 257.622
L510.974 253.321
L511.42 251.673
L511.785 251.039
L512.11 250.886
L512.434 251.02
L512.84 251.472
L513.49 252.588
L515.559 256.388
L516.33 257.271
L517.061 257.783
L517.791 258.032
L518.359 258.078
L518.359 258.078" style="fill:none;stroke:#0000ff;stroke-linecap:square;"/>
   </g>
   <g id="patch_18">
    <path d="
M315.491 165.176
L518.4 165.176" style="fill:none;stroke:#000000;stroke-linecap:square;stroke-linejoin:miter;"/>
   </g>
   <g id="patch_19">
    <path d="
M518.4 266.824
L518.4 165.176" style="fill:none;stroke:#000000;stroke-linecap:square;stroke-linejoin:miter;"/>
   </g>
   <g id="patch_20">
    <path d="
M315.491 266.824
L518.4 266.824" style="fill:none;stroke:#000000;stroke-linecap:square;stroke-linejoin:miter;"/>
   </g>
   <g id="patch_21">
    <path d="
M315.491 266.824
L315.491 165.176" style="fill:none;stroke:#000000;stroke-linecap:square;stroke-linejoin:miter;"/>
   </g>
   <g id="matplotlib.axis_7"/>
   <g id="matplotlib.axis_8">
    <g id="ytick_7">
     <g id="line2d_17">
      <g>
       <use style="stroke:#000000;stroke-width:0.5;" x="315.490909091" xlink:href="#m728421d6d4" y="252.302521008"/>
      </g>
     </g>
     <g id="line2d_18">
      <g>
       <use style="stroke:#000000;stroke-width:0.5;" x="518.4" xlink:href="#mcb0005524f" y="252.302521008"/>
      </g>
     </g>
     <g id="text_9">
      <!-- −60 -->
      <g transform="translate(288.233409091 255.613771008)scale(0.12 -0.12)">
       <use xlink:href="#BitstreamVeraSans-Roman-2212"/>
       <use x="83.7890625" xlink:href="#BitstreamVeraSans-Roman-36"/>
       <use x="147.412109375" xlink:href="#BitstreamVeraSans-Roman-30"/>
      </g>
     </g>
    </g>
    <g id="ytick_8">
     <g id="line2d_19">
      <g>
       <use style="stroke:#000000;stroke-width:0.5;" x="315.490909091" xlink:href="#m728421d6d4" y="208.739495798"/>
      </g>
     </g>
     <g id="line2d_20">
      <g>
       <use style="stroke:#000000;stroke-width:0.5;" x="518.4" xlink:href="#mcb0005524f" y="208.739495798"/>
      </g>
     </g>
     <g id="text_10">
      <!-- 0 -->
      <g transform="translate(305.444034091 212.050745798)scale(0.12 -0.12)">
       <use xlink:href="#BitstreamVeraSans-Roman-30"/>
      </g>
     </g>
    </g>
   </g>
  </g>
  <g id="axes_5">
   <g id="patch_22">
    <path d="
M72 388.8
L274.909 388.8
L274.909 287.153
L72 287.153
z
" style="fill:#ffffff;"/>
   </g>
   <g id="line2d_21">
    <path clip-path="url(#p5df05f4a8e)" d="
M72.0406 376.056
L77.722 371.006
L80.2787 369.071
L82.7136 367.506
L85.6761 365.884
L89.6531 363.698
L91.1952 362.582
L92.2503 361.548
L92.9808 360.516
L93.4272 359.536
L93.7113 358.402
L93.833 356.82
L94.1171 336.743
L94.1577 337.062
L94.32 346.225
L94.6041 354.396
L94.9287 357.997
L95.1722 358.816
L95.294 358.812
L95.4563 358.488
L95.7404 357.301
L96.3085 353.734
L96.5114 351.751
L96.7549 333.359
L96.8361 334.863
L96.9984 343.504
L97.2013 351.698
L97.526 355.331
L97.8506 356.823
L98.0941 357.144
L98.297 357.083
L98.6623 356.632
L99.1087 356.17
L99.4739 356.121
L99.6768 356.032
L99.758 355.742
L99.7985 354.616
L100.001 340.492
L100.083 341.547
L100.204 347.01
L100.448 360.01
L100.732 364.895
L101.138 368.078
L101.584 369.934
L102.193 371.467
L104.019 375.705
L105.237 378.398
L106.008 379.606
L106.697 380.305
L107.387 380.689
L108.077 380.825
L108.889 380.745
L109.863 380.403
L111.08 379.719
L112.663 378.556
L115.017 376.521
L121.713 370.601
L124.229 368.751
L126.704 367.211
L130.073 365.41
L133.157 363.684
L134.658 362.598
L135.713 361.57
L136.444 360.548
L136.931 359.47
L137.215 358.253
L137.296 357.372
L137.58 336.782
L137.661 337.634
L138.027 353.313
L138.351 357.6
L138.595 358.734
L138.757 358.831
L138.919 358.542
L139.203 357.396
L139.772 353.869
L139.975 352.04
L140.015 351.094
L140.259 333.469
L140.421 339.032
L140.705 352.09
L141.03 355.486
L141.354 356.877
L141.598 357.149
L141.801 357.064
L142.247 356.493
L142.653 356.144
L143.181 355.992
L143.262 355.477
L143.505 340.566
L143.627 343.332
L144.114 363.635
L144.479 367.215
L144.926 369.46
L145.453 370.97
L148.943 378.8
L149.674 379.829
L150.363 380.437
L151.053 380.749
L151.784 380.827
L152.595 380.687
L153.61 380.275
L154.909 379.485
L156.654 378.138
L159.413 375.684
L164.486 371.17
L167.083 369.182
L169.518 367.599
L172.399 366.007
L176.701 363.639
L178.203 362.54
L179.217 361.536
L179.907 360.568
L180.394 359.505
L180.678 358.331
L180.759 357.57
L180.84 350.668
L181.043 336.862
L181.084 336.775
L181.165 339.175
L181.449 352.181
L181.774 357.166
L182.058 358.714
L182.22 358.841
L182.383 358.577
L182.667 357.457
L183.194 354.244
L183.478 351.526
L183.722 333.376
L183.762 333.994
L183.925 340.998
L184.168 351.89
L184.493 355.407
L184.817 356.85
L185.061 357.147
L185.264 357.075
L185.67 356.563
L186.116 356.149
L186.684 355.91
L186.725 355.654
L186.968 340.503
L187.049 341.792
L187.171 347.861
L187.415 360.281
L187.739 365.434
L188.145 368.35
L188.592 370.092
L189.241 371.669
L190.864 375.436
L192.163 378.346
L192.934 379.571
L193.624 380.285
L194.314 380.681
L195.003 380.826
L195.775 380.762
L196.708 380.454
L197.885 379.816
L199.427 378.708
L201.659 376.803
L209.085 370.27
L211.561 368.496
L214.077 366.971
L221.422 362.745
L222.518 361.727
L223.289 360.712
L223.776 359.74
L224.101 358.6
L224.222 357.644
L224.263 356.422
L224.506 336.913
L224.547 336.758
L224.588 337.183
L225.156 356.26
L225.44 358.45
L225.643 358.853
L225.765 358.763
L225.967 358.204
L226.333 356.37
L226.86 352.691
L226.941 351.653
L227.185 333.361
L227.225 333.869
L227.388 340.557
L227.631 351.795
L227.956 355.369
L228.281 356.837
L228.524 357.146
L228.727 357.08
L229.133 356.571
L229.579 356.152
L230.147 355.932
L230.188 355.712
L230.269 349.227
L230.431 340.497
L230.513 341.654
L230.634 347.373
L230.878 360.13
L231.162 364.946
L231.568 368.105
L232.014 369.952
L232.623 371.482
L234.449 375.723
L235.666 378.414
L236.438 379.618
L237.127 380.314
L237.817 380.695
L238.507 380.828
L239.319 380.746
L240.293 380.402
L241.51 379.715
L243.093 378.551
L245.447 376.514
L252.102 370.623
L254.618 368.768
L257.094 367.224
L260.421 365.442
L263.546 363.695
L265.088 362.578
L266.143 361.542
L266.833 360.576
L267.32 359.517
L267.604 358.358
L267.686 357.628
L267.726 356.326
L267.97 336.901
L268.01 336.763
L268.051 337.21
L268.578 355.764
L268.862 358.278
L269.106 358.857
L269.228 358.765
L269.431 358.203
L269.796 356.366
L270.323 352.684
L270.405 351.637
L270.648 333.364
L270.689 333.888
L270.851 340.624
L271.094 351.81
L271.419 355.376
L271.744 356.84
L271.987 357.147
L272.19 357.08
L272.596 356.571
L273.042 356.153
L273.61 355.932
L273.651 355.709
L273.732 349.174
L273.895 340.499
L273.976 341.669
L274.097 347.418
L274.341 360.146
L274.625 364.953
L274.909 367.375
L274.909 367.375" style="fill:none;stroke:#0000ff;stroke-linecap:square;"/>
   </g>
   <g id="patch_23">
    <path d="
M72 287.153
L274.909 287.153" style="fill:none;stroke:#000000;stroke-linecap:square;stroke-linejoin:miter;"/>
   </g>
   <g id="patch_24">
    <path d="
M274.909 388.8
L274.909 287.153" style="fill:none;stroke:#000000;stroke-linecap:square;stroke-linejoin:miter;"/>
   </g>
   <g id="patch_25">
    <path d="
M72 388.8
L274.909 388.8" style="fill:none;stroke:#000000;stroke-linecap:square;stroke-linejoin:miter;"/>
   </g>
   <g id="patch_26">
    <path d="
M72 388.8
L72 287.153" style="fill:none;stroke:#000000;stroke-linecap:square;stroke-linejoin:miter;"/>
   </g>
   <g id="matplotlib.axis_9">
    <g id="text_11">
     <!-- 1 s -->
     <defs>
      <path d="
M11.7188 12.9844
L28.3281 12.9844
L28.3281 60.1094
L11.2812 56.5938
L11.2812 69.3906
L28.2188 72.9062
L46.0938 72.9062
L46.0938 12.9844
L62.7031 12.9844
L62.7031 0
L11.7188 0
z
" id="BitstreamVeraSans-Bold-31"/>
      <path id="BitstreamVeraSans-Bold-20"/>
     </defs>
     <g transform="translate(163.904232955 402.918125)scale(0.12 -0.12)">
      <use xlink:href="#BitstreamVeraSans-Bold-31"/>
      <use x="69.580078125" xlink:href="#BitstreamVeraSans-Bold-20"/>
      <use x="104.39453125" xlink:href="#BitstreamVeraSans-Bold-73"/>
     </g>
    </g>
   </g>
   <g id="matplotlib.axis_10">
    <g id="ytick_9">
     <g id="line2d_22">
      <g>
       <use style="stroke:#000000;stroke-width:0.5;" x="72.0" xlink:href="#m728421d6d4" y="374.278991597"/>
      </g>
     </g>
     <g id="line2d_23">
      <g>
       <use style="stroke:#000000;stroke-width:0.5;" x="274.909090909" xlink:href="#mcb0005524f" y="374.278991597"/>
      </g>
     </g>
     <g id="text_12">
      <!-- −60 -->
      <g transform="translate(44.7425 377.590241597)scale(0.12 -0.12)">
       <use xlink:href="#BitstreamVeraSans-Roman-2212"/>
       <use x="83.7890625" xlink:href="#BitstreamVeraSans-Roman-36"/>
       <use x="147.412109375" xlink:href="#BitstreamVeraSans-Roman-30"/>
      </g>
     </g>
    </g>
    <g id="ytick_10">
     <g id="line2d_24">
      <g>
       <use style="stroke:#000000;stroke-width:0.5;" x="72.0" xlink:href="#m728421d6d4" y="330.715966387"/>
      </g>
     </g>
     <g id="line2d_25">
      <g>
       <use style="stroke:#000000;stroke-width:0.5;" x="274.909090909" xlink:href="#mcb0005524f" y="330.715966387"/>
      </g>
     </g>
     <g id="text_13">
      <!-- 0 -->
      <g transform="translate(61.953125 334.027216387)scale(0.12 -0.12)">
       <use xlink:href="#BitstreamVeraSans-Roman-30"/>
      </g>
     </g>
    </g>
   </g>
  </g>
  <g id="axes_6">
   <g id="patch_27">
    <path d="
M315.491 388.8
L518.4 388.8
L518.4 287.153
L315.491 287.153
z
" style="fill:#ffffff;"/>
   </g>
   <g id="line2d_26">
    <path clip-path="url(#p8ca55fdb04)" d="
M315.531 376.235
L322.025 370.609
L324.541 368.787
L327.057 367.241
L330.831 365.232
L333.347 363.772
L334.727 362.723
L335.66 361.744
L336.309 360.743
L336.756 359.629
L337.04 358.288
L337.202 356.438
L337.283 353.07
L337.365 296.441
L337.446 305.054
L337.851 383.529
L337.892 383.52
L338.054 382.437
L338.501 377.438
L339.921 357.703
L340.002 352.108
L340.083 295.94
L340.124 298.834
L340.408 342.076
L340.57 385.443
L340.611 385.596
L340.652 385.484
L340.895 383.77
L341.342 378.743
L342.681 362.118
L343.168 357.067
L343.249 353.04
L343.33 295.998
L343.371 298.962
L343.655 353.37
L343.817 385.469
L343.858 385.566
L343.898 385.507
L344.101 384.614
L344.588 381.213
L345.359 376.119
L345.806 374.524
L346.171 373.932
L346.455 373.817
L346.739 373.933
L347.145 374.39
L347.794 375.544
L349.58 378.897
L350.31 379.764
L351 380.259
L351.69 380.49
L352.461 380.505
L353.354 380.286
L354.449 379.772
L355.87 378.843
L357.858 377.249
L362.079 373.489
L365.407 370.69
L367.963 368.828
L370.479 367.276
L374.091 365.349
L376.729 363.838
L378.149 362.775
L379.083 361.817
L379.732 360.854
L380.178 359.816
L380.462 358.658
L380.665 356.764
L380.746 354.373
L380.787 349.024
L380.868 296.968
L380.909 301.682
L381.355 383.555
L381.396 383.438
L381.639 381.454
L382.167 374.964
L383.425 356.978
L383.465 354.681
L383.547 295.365
L383.628 301.484
L383.912 349.783
L384.074 385.581
L384.115 385.552
L384.318 384.269
L384.723 380.029
L386.387 360.228
L386.631 357.451
L386.712 354.743
L386.753 346.444
L386.793 295.918
L386.874 301.886
L387.321 385.553
L387.402 385.446
L387.645 384.248
L388.295 379.508
L388.903 375.833
L389.35 374.384
L389.715 373.886
L389.999 373.827
L390.324 374.024
L390.77 374.615
L391.541 376.088
L392.921 378.691
L393.692 379.669
L394.382 380.207
L395.072 380.472
L395.802 380.519
L396.655 380.347
L397.71 379.893
L399.049 379.059
L400.875 377.641
L404 374.886
L408.302 371.154
L410.899 369.199
L413.374 367.613
L416.418 365.949
L420.07 363.925
L421.531 362.855
L422.505 361.881
L423.195 360.875
L423.641 359.851
L423.926 358.722
L424.128 356.946
L424.21 354.934
L424.25 351.66
L424.331 296.433
L424.372 299.923
L424.818 383.558
L424.899 383.285
L425.184 380.724
L425.833 372.314
L426.929 355.588
L426.969 348.243
L427.01 295.282
L427.091 299.996
L427.375 344.755
L427.537 385.532
L427.578 385.584
L427.74 384.675
L428.105 381.157
L428.836 371.176
L429.526 363.106
L430.135 356.831
L430.216 351.327
L430.297 296.448
L430.337 300.164
L430.622 360.736
L430.784 385.521
L430.824 385.563
L430.865 385.483
L431.109 384.323
L431.717 379.902
L432.367 375.89
L432.813 374.413
L433.178 373.897
L433.462 373.827
L433.787 374.015
L434.233 374.598
L435.004 376.065
L436.384 378.674
L437.155 379.659
L437.845 380.202
L438.535 380.471
L439.265 380.521
L440.118 380.352
L441.173 379.9
L442.512 379.068
L444.338 377.651
L447.463 374.896
L451.765 371.162
L454.362 369.205
L456.837 367.617
L459.881 365.952
L463.533 363.929
L464.994 362.86
L465.968 361.887
L466.658 360.885
L467.105 359.867
L467.389 358.751
L467.592 357.022
L467.673 355.144
L467.713 352.378
L467.794 296.342
L467.876 306.409
L468.281 383.553
L468.363 383.318
L468.647 380.782
L469.255 372.955
L470.392 355.918
L470.432 350.693
L470.473 295.577
L470.554 299.376
L470.838 343.244
L471 385.495
L471.041 385.594
L471.082 385.466
L471.325 383.73
L471.771 378.682
L473.111 362.081
L473.557 357.769
L473.638 355.696
L473.679 352.442
L473.76 296.164
L473.801 299.439
L474.085 356.379
L474.247 385.497
L474.288 385.569
L474.328 385.5
L474.572 384.36
L475.18 379.948
L475.83 375.918
L476.276 374.428
L476.641 373.903
L476.925 373.829
L477.25 374.012
L477.696 374.591
L478.467 376.056
L479.847 378.668
L480.618 379.655
L481.308 380.2
L481.998 380.471
L482.729 380.522
L483.581 380.354
L484.636 379.903
L485.975 379.071
L487.801 377.655
L490.926 374.9
L495.228 371.164
L497.825 369.207
L500.301 367.618
L503.344 365.952
L506.997 363.928
L508.457 362.86
L509.431 361.887
L510.121 360.884
L510.568 359.864
L510.852 358.745
L511.055 357.006
L511.136 355.097
L511.176 352.225
L511.258 296.351
L511.339 306.674
L511.745 383.558
L511.826 383.313
L512.11 380.773
L512.719 372.943
L513.855 355.872
L513.895 350.407
L513.936 295.496
L514.017 299.465
L514.301 343.449
L514.464 385.503
L514.504 385.594
L514.504 385.594
L514.504 385.594
L514.666 384.712
L515.032 381.216
L515.722 371.815
L516.411 363.532
L517.061 356.962
L517.142 352.363
L517.223 296.185
L517.264 299.497
L517.548 356.749
L517.71 385.501
L517.751 385.57
L517.791 385.5
L518.035 384.358
L518.4 381.807
L518.4 381.807" style="fill:none;stroke:#0000ff;stroke-linecap:square;"/>
   </g>
   <g id="patch_28">
    <path d="
M315.491 287.153
L518.4 287.153" style="fill:none;stroke:#000000;stroke-linecap:square;stroke-linejoin:miter;"/>
   </g>
   <g id="patch_29">
    <path d="
M518.4 388.8
L518.4 287.153" style="fill:none;stroke:#000000;stroke-linecap:square;stroke-linejoin:miter;"/>
   </g>
   <g id="patch_30">
    <path d="
M315.491 388.8
L518.4 388.8" style="fill:none;stroke:#000000;stroke-linecap:square;stroke-linejoin:miter;"/>
   </g>
   <g id="patch_31">
    <path d="
M315.491 388.8
L315.491 287.153" style="fill:none;stroke:#000000;stroke-linecap:square;stroke-linejoin:miter;"/>
   </g>
   <g id="matplotlib.axis_11">
    <g id="text_14">
     <!-- 1 s -->
     <g transform="translate(407.395142045 402.918125)scale(0.12 -0.12)">
      <use xlink:href="#BitstreamVeraSans-Bold-31"/>
      <use x="69.580078125" xlink:href="#BitstreamVeraSans-Bold-20"/>
      <use x="104.39453125" xlink:href="#BitstreamVeraSans-Bold-73"/>
     </g>
    </g>
   </g>
   <g id="matplotlib.axis_12">
    <g id="ytick_11">
     <g id="line2d_27">
      <g>
       <use style="stroke:#000000;stroke-width:0.5;" x="315.490909091" xlink:href="#m728421d6d4" y="374.278991597"/>
      </g>
     </g>
     <g id="line2d_28">
      <g>
       <use style="stroke:#000000;stroke-width:0.5;" x="518.4" xlink:href="#mcb0005524f" y="374.278991597"/>
      </g>
     </g>
     <g id="text_15">
      <!-- −60 -->
      <g transform="translate(288.233409091 377.590241597)scale(0.12 -0.12)">
       <use xlink:href="#BitstreamVeraSans-Roman-2212"/>
       <use x="83.7890625" xlink:href="#BitstreamVeraSans-Roman-36"/>
       <use x="147.412109375" xlink:href="#BitstreamVeraSans-Roman-30"/>
      </g>
     </g>
    </g>
    <g id="ytick_12">
     <g id="line2d_29">
      <g>
       <use style="stroke:#000000;stroke-width:0.5;" x="315.490909091" xlink:href="#m728421d6d4" y="330.715966387"/>
      </g>
     </g>
     <g id="line2d_30">
      <g>
       <use style="stroke:#000000;stroke-width:0.5;" x="518.4" xlink:href="#mcb0005524f" y="330.715966387"/>
      </g>
     </g>
     <g id="text_16">
      <!-- 0 -->
      <g transform="translate(305.444034091 334.027216387)scale(0.12 -0.12)">
       <use xlink:href="#BitstreamVeraSans-Roman-30"/>
      </g>
     </g>
    </g>
   </g>
  </g>
 </g>
 <defs>
  <clipPath id="pf4132cbc21">
   <rect height="101.647058824" width="202.909090909" x="315.490909091" y="165.176470588"/>
  </clipPath>
  <clipPath id="p5df05f4a8e">
   <rect height="101.647058824" width="202.909090909" x="72.0" y="287.152941176"/>
  </clipPath>
  <clipPath id="pdf2bc2c95a">
   <rect height="101.647058824" width="202.909090909" x="72.0" y="43.2"/>
  </clipPath>
  <clipPath id="pbd5a3a9a46">
   <rect height="101.647058824" width="202.909090909" x="315.490909091" y="43.2"/>
  </clipPath>
  <clipPath id="p68273c1835">
   <rect height="101.647058824" width="202.909090909" x="72.0" y="165.176470588"/>
  </clipPath>
  <clipPath id="p8ca55fdb04">
   <rect height="101.647058824" width="202.909090909" x="315.490909091" y="287.152941176"/>
  </clipPath>
 </defs>
</svg>
