<?xml version="1.0" encoding="utf-8" standalone="no"?>
<!DOCTYPE svg PUBLIC "-//W3C//DTD SVG 1.1//EN"
  "http://www.w3.org/Graphics/SVG/1.1/DTD/svg11.dtd">
<!-- Created with matplotlib (http://matplotlib.org/) -->
<svg height="432pt" version="1.1" viewBox="0 0 576 432" width="576pt" xmlns="http://www.w3.org/2000/svg" xmlns:xlink="http://www.w3.org/1999/xlink">
 <defs>
  <style type="text/css">
*{stroke-linecap:butt;stroke-linejoin:round;}
  </style>
 </defs>
 <g id="figure_1">
  <g id="patch_1">
   <path d="
M0 432
L576 432
L576 0
L0 0
z
" style="fill:#ffffff;"/>
  </g>
  <g id="axes_1">
   <g id="patch_2">
    <path d="
M72 144.847
L274.909 144.847
L274.909 43.2
L72 43.2
z
" style="fill:#ffffff;"/>
   </g>
   <g id="line2d_1">
    <path clip-path="url(#pdf2bc2c95a)" d="
M72 126.696
L75.5712 126.053
L81.0497 125.271
L87.3805 124.598
L94.8881 124.031
L104.1 123.568
L115.991 123.205
L132.751 122.932
L160.55 122.73
L231.081 122.504
L274.869 122.403
L274.869 122.403" style="fill:none;stroke:#0000ff;stroke-linecap:square;"/>
   </g>
   <g id="patch_3">
    <path d="
M72 43.2
L274.909 43.2" style="fill:none;stroke:#000000;stroke-linecap:square;stroke-linejoin:miter;"/>
   </g>
   <g id="patch_4">
    <path d="
M274.909 144.847
L274.909 43.2" style="fill:none;stroke:#000000;stroke-linecap:square;stroke-linejoin:miter;"/>
   </g>
   <g id="patch_5">
    <path d="
M72 144.847
L274.909 144.847" style="fill:none;stroke:#000000;stroke-linecap:square;stroke-linejoin:miter;"/>
   </g>
   <g id="patch_6">
    <path d="
M72 144.847
L72 43.2" style="fill:none;stroke:#000000;stroke-linecap:square;stroke-linejoin:miter;"/>
   </g>
   <g id="matplotlib.axis_1"/>
   <g id="matplotlib.axis_2">
    <g id="ytick_1">
     <g id="line2d_2">
      <defs>
       <path d="
M0 0
L4 0" id="m728421d6d4" style="stroke:#000000;stroke-width:0.5;"/>
      </defs>
      <g>
       <use style="stroke:#000000;stroke-width:0.5;" x="72.0" xlink:href="#m728421d6d4" y="130.32605042"/>
      </g>
     </g>
     <g id="line2d_3">
      <defs>
       <path d="
M0 0
L-4 0" id="mcb0005524f" style="stroke:#000000;stroke-width:0.5;"/>
      </defs>
      <g>
       <use style="stroke:#000000;stroke-width:0.5;" x="274.909090909" xlink:href="#mcb0005524f" y="130.32605042"/>
      </g>
     </g>
     <g id="text_1">
      <!-- −60 -->
      <defs>
       <path d="
M10.5938 35.5
L73.1875 35.5
L73.1875 27.2031
L10.5938 27.2031
z
" id="BitstreamVeraSans-Roman-2212"/>
       <path d="
M31.7812 66.4062
Q24.1719 66.4062 20.3281 58.9062
Q16.5 51.4219 16.5 36.375
Q16.5 21.3906 20.3281 13.8906
Q24.1719 6.39062 31.7812 6.39062
Q39.4531 6.39062 43.2812 13.8906
Q47.125 21.3906 47.125 36.375
Q47.125 51.4219 43.2812 58.9062
Q39.4531 66.4062 31.7812 66.4062
M31.7812 74.2188
Q44.0469 74.2188 50.5156 64.5156
Q56.9844 54.8281 56.9844 36.375
Q56.9844 17.9688 50.5156 8.26562
Q44.0469 -1.42188 31.7812 -1.42188
Q19.5312 -1.42188 13.0625 8.26562
Q6.59375 17.9688 6.59375 36.375
Q6.59375 54.8281 13.0625 64.5156
Q19.5312 74.2188 31.7812 74.2188" id="BitstreamVeraSans-Roman-30"/>
       <path d="
M33.0156 40.375
Q26.375 40.375 22.4844 35.8281
Q18.6094 31.2969 18.6094 23.3906
Q18.6094 15.5312 22.4844 10.9531
Q26.375 6.39062 33.0156 6.39062
Q39.6562 6.39062 43.5312 10.9531
Q47.4062 15.5312 47.4062 23.3906
Q47.4062 31.2969 43.5312 35.8281
Q39.6562 40.375 33.0156 40.375
M52.5938 71.2969
L52.5938 62.3125
Q48.875 64.0625 45.0938 64.9844
Q41.3125 65.9219 37.5938 65.9219
Q27.8281 65.9219 22.6719 59.3281
Q17.5312 52.7344 16.7969 39.4062
Q19.6719 43.6562 24.0156 45.9219
Q28.375 48.1875 33.5938 48.1875
Q44.5781 48.1875 50.9531 41.5156
Q57.3281 34.8594 57.3281 23.3906
Q57.3281 12.1562 50.6875 5.35938
Q44.0469 -1.42188 33.0156 -1.42188
Q20.3594 -1.42188 13.6719 8.26562
Q6.98438 17.9688 6.98438 36.375
Q6.98438 53.6562 15.1875 63.9375
Q23.3906 74.2188 37.2031 74.2188
Q40.9219 74.2188 44.7031 73.4844
Q48.4844 72.75 52.5938 71.2969" id="BitstreamVeraSans-Roman-36"/>
      </defs>
      <g transform="translate(44.7425 133.63730042)scale(0.12 -0.12)">
       <use xlink:href="#BitstreamVeraSans-Roman-2212"/>
       <use x="83.7890625" xlink:href="#BitstreamVeraSans-Roman-36"/>
       <use x="147.412109375" xlink:href="#BitstreamVeraSans-Roman-30"/>
      </g>
     </g>
    </g>
    <g id="ytick_2">
     <g id="line2d_4">
      <g>
       <use style="stroke:#000000;stroke-width:0.5;" x="72.0" xlink:href="#m728421d6d4" y="86.7630252101"/>
      </g>
     </g>
     <g id="line2d_5">
      <g>
       <use style="stroke:#000000;stroke-width:0.5;" x="274.909090909" xlink:href="#mcb0005524f" y="86.7630252101"/>
      </g>
     </g>
     <g id="text_2">
      <!-- 0 -->
      <g transform="translate(61.953125 90.0742752101)scale(0.12 -0.12)">
       <use xlink:href="#BitstreamVeraSans-Roman-30"/>
      </g>
     </g>
    </g>
   </g>
   <g id="text_3">
    <!-- soma -->
    <defs>
     <path d="
M51.125 52.9844
L51.125 39.7031
Q45.5156 42.0469 40.2812 43.2188
Q35.0625 44.3906 30.4219 44.3906
Q25.4375 44.3906 23.0156 43.1406
Q20.6094 41.8906 20.6094 39.3125
Q20.6094 37.2031 22.4375 36.0781
Q24.2656 34.9688 29 34.4219
L32.0781 33.9844
Q45.5156 32.2812 50.1406 28.375
Q54.7812 24.4688 54.7812 16.1094
Q54.7812 7.375 48.3281 2.96875
Q41.8906 -1.42188 29.1094 -1.42188
Q23.6875 -1.42188 17.8906 -0.5625
Q12.1094 0.296875 6 2
L6 15.2812
Q11.2344 12.75 16.7188 11.4688
Q22.2188 10.2031 27.875 10.2031
Q33.0156 10.2031 35.5938 11.6094
Q38.1875 13.0312 38.1875 15.8281
Q38.1875 18.1719 36.4062 19.3125
Q34.625 20.4531 29.2969 21.0938
L26.2188 21.4844
Q14.5469 22.9531 9.85938 26.9062
Q5.17188 30.8594 5.17188 38.9219
Q5.17188 47.6094 11.125 51.7969
Q17.0938 56 29.3906 56
Q34.2344 56 39.5469 55.2656
Q44.875 54.5469 51.125 52.9844" id="BitstreamVeraSans-Bold-73"/>
     <path d="
M32.9062 24.6094
Q27.4375 24.6094 24.6719 22.75
Q21.9219 20.9062 21.9219 17.2812
Q21.9219 13.9688 24.1406 12.0781
Q26.375 10.2031 30.3281 10.2031
Q35.25 10.2031 38.625 13.7344
Q42 17.2812 42 22.6094
L42 24.6094
z

M59.625 31.2031
L59.625 0
L42 0
L42 8.10938
Q38.4844 3.125 34.0781 0.84375
Q29.6875 -1.42188 23.3906 -1.42188
Q14.8906 -1.42188 9.59375 3.53125
Q4.29688 8.5 4.29688 16.4062
Q4.29688 26.0312 10.9062 30.5156
Q17.5312 35.0156 31.6875 35.0156
L42 35.0156
L42 36.375
Q42 40.5312 38.7188 42.4531
Q35.4531 44.3906 28.5156 44.3906
Q22.9062 44.3906 18.0625 43.2656
Q13.2344 42.1406 9.07812 39.8906
L9.07812 53.2188
Q14.7031 54.5938 20.3594 55.2969
Q26.0312 56 31.6875 56
Q46.4844 56 53.0469 50.1719
Q59.625 44.3438 59.625 31.2031" id="BitstreamVeraSans-Bold-61"/>
     <path d="
M34.4219 43.5
Q28.6094 43.5 25.5625 39.3281
Q22.5156 35.1562 22.5156 27.2969
Q22.5156 19.4375 25.5625 15.25
Q28.6094 11.0781 34.4219 11.0781
Q40.1406 11.0781 43.1562 15.25
Q46.1875 19.4375 46.1875 27.2969
Q46.1875 35.1562 43.1562 39.3281
Q40.1406 43.5 34.4219 43.5
M34.4219 56
Q48.5312 56 56.4688 48.375
Q64.4062 40.7656 64.4062 27.2969
Q64.4062 13.8125 56.4688 6.1875
Q48.5312 -1.42188 34.4219 -1.42188
Q20.2656 -1.42188 12.2812 6.1875
Q4.29688 13.8125 4.29688 27.2969
Q4.29688 40.7656 12.2812 48.375
Q20.2656 56 34.4219 56" id="BitstreamVeraSans-Bold-6f"/>
     <path d="
M59.0781 45.6094
Q62.4062 50.6875 66.9688 53.3438
Q71.5312 56 77 56
Q86.4219 56 91.3594 50.1875
Q96.2969 44.3906 96.2969 33.2969
L96.2969 0
L78.7188 0
L78.7188 28.5156
Q78.7656 29.1562 78.7812 29.8281
Q78.8125 30.5156 78.8125 31.7812
Q78.8125 37.5938 77.0938 40.2031
Q75.3906 42.8281 71.5781 42.8281
Q66.6094 42.8281 63.8906 38.7188
Q61.1875 34.625 61.0781 26.8594
L61.0781 0
L43.5 0
L43.5 28.5156
Q43.5 37.5938 41.9375 40.2031
Q40.375 42.8281 36.375 42.8281
Q31.3438 42.8281 28.6094 38.7031
Q25.875 34.5781 25.875 26.9062
L25.875 0
L8.29688 0
L8.29688 54.6875
L25.875 54.6875
L25.875 46.6875
Q29.1094 51.3125 33.2812 53.6562
Q37.4531 56 42.4844 56
Q48.1406 56 52.4844 53.2656
Q56.8438 50.5312 59.0781 45.6094" id="BitstreamVeraSans-Bold-6d"/>
    </defs>
    <g transform="translate(152.799545455 38.2)scale(0.144 -0.144)">
     <use xlink:href="#BitstreamVeraSans-Bold-73"/>
     <use x="59.521484375" xlink:href="#BitstreamVeraSans-Bold-6f"/>
     <use x="128.22265625" xlink:href="#BitstreamVeraSans-Bold-6d"/>
     <use x="232.421875" xlink:href="#BitstreamVeraSans-Bold-61"/>
    </g>
   </g>
  </g>
  <g id="axes_2">
   <g id="patch_7">
    <path d="
M315.491 144.847
L518.4 144.847
L518.4 43.2
L315.491 43.2
z
" style="fill:#ffffff;"/>
   </g>
   <g id="line2d_6">
    <path clip-path="url(#pbd5a3a9a46)" d="
M315.491 126.696
L322.633 125.526
L328.639 124.818
L335.701 124.216
L344.263 123.718
L355.099 123.323
L369.83 123.021
L392.596 122.801
L440.239 122.608
L518.359 122.417
L518.359 122.417" style="fill:none;stroke:#0000ff;stroke-linecap:square;"/>
   </g>
   <g id="patch_8">
    <path d="
M315.491 43.2
L518.4 43.2" style="fill:none;stroke:#000000;stroke-linecap:square;stroke-linejoin:miter;"/>
   </g>
   <g id="patch_9">
    <path d="
M518.4 144.847
L518.4 43.2" style="fill:none;stroke:#000000;stroke-linecap:square;stroke-linejoin:miter;"/>
   </g>
   <g id="patch_10">
    <path d="
M315.491 144.847
L518.4 144.847" style="fill:none;stroke:#000000;stroke-linecap:square;stroke-linejoin:miter;"/>
   </g>
   <g id="patch_11">
    <path d="
M315.491 144.847
L315.491 43.2" style="fill:none;stroke:#000000;stroke-linecap:square;stroke-linejoin:miter;"/>
   </g>
   <g id="matplotlib.axis_3"/>
   <g id="matplotlib.axis_4">
    <g id="ytick_3">
     <g id="line2d_7">
      <g>
       <use style="stroke:#000000;stroke-width:0.5;" x="315.490909091" xlink:href="#m728421d6d4" y="130.32605042"/>
      </g>
     </g>
     <g id="line2d_8">
      <g>
       <use style="stroke:#000000;stroke-width:0.5;" x="518.4" xlink:href="#mcb0005524f" y="130.32605042"/>
      </g>
     </g>
     <g id="text_4">
      <!-- −60 -->
      <g transform="translate(288.233409091 133.63730042)scale(0.12 -0.12)">
       <use xlink:href="#BitstreamVeraSans-Roman-2212"/>
       <use x="83.7890625" xlink:href="#BitstreamVeraSans-Roman-36"/>
       <use x="147.412109375" xlink:href="#BitstreamVeraSans-Roman-30"/>
      </g>
     </g>
    </g>
    <g id="ytick_4">
     <g id="line2d_9">
      <g>
       <use style="stroke:#000000;stroke-width:0.5;" x="315.490909091" xlink:href="#m728421d6d4" y="86.7630252101"/>
      </g>
     </g>
     <g id="line2d_10">
      <g>
       <use style="stroke:#000000;stroke-width:0.5;" x="518.4" xlink:href="#mcb0005524f" y="86.7630252101"/>
      </g>
     </g>
     <g id="text_5">
      <!-- 0 -->
      <g transform="translate(305.444034091 90.0742752101)scale(0.12 -0.12)">
       <use xlink:href="#BitstreamVeraSans-Roman-30"/>
      </g>
     </g>
    </g>
   </g>
   <g id="text_6">
    <!-- axon -->
    <defs>
     <path d="
M22.2188 27.9844
L2.48438 54.6875
L21 54.6875
L32.1719 38.4844
L43.5 54.6875
L62.0156 54.6875
L42.2812 28.0781
L62.9844 0
L44.4844 0
L32.1719 17.2812
L20.0156 0
L1.51562 0
z
" id="BitstreamVeraSans-Bold-78"/>
     <path d="
M63.375 33.2969
L63.375 0
L45.7969 0
L45.7969 5.42188
L45.7969 25.4844
Q45.7969 32.5625 45.4844 35.25
Q45.1719 37.9375 44.3906 39.2031
Q43.3594 40.9219 41.5938 41.875
Q39.8438 42.8281 37.5938 42.8281
Q32.125 42.8281 29 38.5938
Q25.875 34.375 25.875 26.9062
L25.875 0
L8.40625 0
L8.40625 54.6875
L25.875 54.6875
L25.875 46.6875
Q29.8281 51.4688 34.2656 53.7344
Q38.7188 56 44.0938 56
Q53.5625 56 58.4688 50.1875
Q63.375 44.3906 63.375 33.2969" id="BitstreamVeraSans-Bold-6e"/>
    </defs>
    <g transform="translate(398.242329545 38.2)scale(0.144 -0.144)">
     <use xlink:href="#BitstreamVeraSans-Bold-61"/>
     <use x="67.48046875" xlink:href="#BitstreamVeraSans-Bold-78"/>
     <use x="131.982421875" xlink:href="#BitstreamVeraSans-Bold-6f"/>
     <use x="200.68359375" xlink:href="#BitstreamVeraSans-Bold-6e"/>
    </g>
   </g>
  </g>
  <g id="axes_3">
   <g id="patch_12">
    <path d="
M72 266.824
L274.909 266.824
L274.909 165.176
L72 165.176
z
" style="fill:#ffffff;"/>
   </g>
   <g id="line2d_11">
    <path clip-path="url(#p68273c1835)" d="
M72.0406 249.645
L73.3392 252.529
L74.9625 256.13
L75.7741 257.379
L76.5046 258.104
L77.1945 258.485
L77.9249 258.633
L78.7366 258.566
L79.7105 258.252
L80.928 257.612
L82.5513 256.484
L84.9456 254.518
L91.601 248.925
L94.1983 247.104
L96.7549 245.582
L100.042 243.91
L103.978 241.875
L105.642 240.759
L106.779 239.737
L107.55 238.767
L108.077 237.78
L108.442 236.602
L108.605 235.351
L108.686 228.322
L108.889 214.653
L108.929 214.511
L108.97 214.98
L109.457 232.226
L109.782 235.335
L110.025 235.945
L110.147 235.861
L110.35 235.302
L110.715 233.457
L111.161 230.212
L111.243 228.533
L111.446 211.221
L111.486 211.249
L111.648 216.866
L111.933 230.009
L112.257 233.44
L112.582 234.826
L112.825 235.082
L113.028 234.979
L113.556 234.264
L113.921 233.972
L114.327 233.747
L114.408 233.324
L114.651 217.968
L114.733 219.243
L114.854 225.35
L115.098 237.841
L115.423 243.173
L115.828 246.125
L116.275 247.825
L116.924 249.319
L118.385 252.534
L120.008 256.138
L120.82 257.388
L121.55 258.113
L122.24 258.493
L122.971 258.641
L123.782 258.572
L124.756 258.257
L125.974 257.615
L127.597 256.485
L129.991 254.515
L136.647 248.915
L139.244 247.091
L141.801 245.569
L145.088 243.895
L148.984 241.877
L150.648 240.759
L151.784 239.737
L152.555 238.765
L153.082 237.774
L153.407 236.77
L153.569 235.794
L153.61 235.285
L153.732 222.938
L153.894 214.619
L153.935 214.534
L154.016 217.078
L154.3 229.345
L154.625 234.242
L154.909 235.824
L155.071 235.965
L155.233 235.706
L155.517 234.584
L156.004 231.581
L156.207 229.695
L156.248 228.393
L156.451 211.207
L156.491 211.278
L156.654 216.972
L156.897 229.294
L157.181 232.853
L157.506 234.616
L157.749 235.055
L157.952 235.046
L158.236 234.724
L158.845 234.013
L159.373 233.628
L159.413 233.333
L159.657 217.984
L159.738 219.26
L159.86 225.367
L160.103 237.855
L160.428 243.181
L160.834 246.132
L161.28 247.834
L161.929 249.329
L163.39 252.55
L165.014 256.154
L165.825 257.402
L166.556 258.125
L167.246 258.503
L167.976 258.648
L168.788 258.578
L169.762 258.26
L170.979 257.615
L172.602 256.482
L174.997 254.509
L181.611 248.932
L184.209 247.103
L186.765 245.575
L190.012 243.917
L193.948 241.876
L195.612 240.757
L196.749 239.733
L197.52 238.757
L198.047 237.761
L198.372 236.743
L198.534 235.727
L198.575 235.144
L198.859 214.571
L198.94 215.349
L199.305 230.392
L199.63 234.681
L199.873 235.866
L200.036 235.986
L200.198 235.711
L200.482 234.571
L201.01 231.245
L201.172 229.626
L201.253 222.35
L201.415 211.168
L201.456 211.357
L201.618 217.275
L201.862 229.397
L202.146 232.894
L202.471 234.633
L202.714 235.059
L202.917 235.044
L203.201 234.719
L203.81 234.015
L204.297 233.755
L204.378 233.299
L204.621 218.011
L204.662 218.477
L204.784 222.405
L205.068 237.955
L205.392 243.222
L205.798 246.155
L206.245 247.851
L206.894 249.346
L208.355 252.572
L209.938 256.101
L210.749 257.369
L211.48 258.108
L212.17 258.498
L212.9 258.653
L213.712 258.59
L214.686 258.278
L215.903 257.638
L217.486 256.539
L219.84 254.605
L226.698 248.825
L229.295 247.007
L231.852 245.491
L235.22 243.779
L238.872 241.875
L240.536 240.753
L241.673 239.726
L242.444 238.747
L242.971 237.743
L243.296 236.706
L243.458 235.629
L243.499 234.891
L243.783 214.534
L243.823 214.68
L243.945 220.857
L244.229 230.604
L244.554 234.781
L244.797 235.911
L244.96 236.004
L245.122 235.708
L245.406 234.545
L245.934 231.198
L246.096 229.511
L246.339 211.137
L246.421 212.546
L246.583 221.08
L246.786 229.537
L247.111 233.258
L247.435 234.766
L247.679 235.081
L247.882 235.01
L248.287 234.474
L248.734 234.015
L249.221 233.749
L249.302 233.218
L249.545 218.056
L249.586 218.591
L249.708 222.803
L249.992 238.109
L250.317 243.285
L250.722 246.189
L251.169 247.874
L251.818 249.367
L253.279 252.599
L254.862 256.126
L255.673 257.39
L256.404 258.123
L257.094 258.51
L257.824 258.661
L258.636 258.594
L259.61 258.279
L260.827 257.635
L262.45 256.502
L264.845 254.524
L271.5 248.9
L274.097 247.068
L274.869 246.58
L274.869 246.58" style="fill:none;stroke:#0000ff;stroke-linecap:square;"/>
   </g>
   <g id="patch_13">
    <path d="
M72 165.176
L274.909 165.176" style="fill:none;stroke:#000000;stroke-linecap:square;stroke-linejoin:miter;"/>
   </g>
   <g id="patch_14">
    <path d="
M274.909 266.824
L274.909 165.176" style="fill:none;stroke:#000000;stroke-linecap:square;stroke-linejoin:miter;"/>
   </g>
   <g id="patch_15">
    <path d="
M72 266.824
L274.909 266.824" style="fill:none;stroke:#000000;stroke-linecap:square;stroke-linejoin:miter;"/>
   </g>
   <g id="patch_16">
    <path d="
M72 266.824
L72 165.176" style="fill:none;stroke:#000000;stroke-linecap:square;stroke-linejoin:miter;"/>
   </g>
   <g id="matplotlib.axis_5"/>
   <g id="matplotlib.axis_6">
    <g id="ytick_5">
     <g id="line2d_12">
      <g>
       <use style="stroke:#000000;stroke-width:0.5;" x="72.0" xlink:href="#m728421d6d4" y="252.302521008"/>
      </g>
     </g>
     <g id="line2d_13">
      <g>
       <use style="stroke:#000000;stroke-width:0.5;" x="274.909090909" xlink:href="#mcb0005524f" y="252.302521008"/>
      </g>
     </g>
     <g id="text_7">
      <!-- −60 -->
      <g transform="translate(44.7425 255.613771008)scale(0.12 -0.12)">
       <use xlink:href="#BitstreamVeraSans-Roman-2212"/>
       <use x="83.7890625" xlink:href="#BitstreamVeraSans-Roman-36"/>
       <use x="147.412109375" xlink:href="#BitstreamVeraSans-Roman-30"/>
      </g>
     </g>
    </g>
    <g id="ytick_6">
     <g id="line2d_14">
      <g>
       <use style="stroke:#000000;stroke-width:0.5;" x="72.0" xlink:href="#m728421d6d4" y="208.739495798"/>
      </g>
     </g>
     <g id="line2d_15">
      <g>
       <use style="stroke:#000000;stroke-width:0.5;" x="274.909090909" xlink:href="#mcb0005524f" y="208.739495798"/>
      </g>
     </g>
     <g id="text_8">
      <!-- 0 -->
      <g transform="translate(61.953125 212.050745798)scale(0.12 -0.12)">
       <use xlink:href="#BitstreamVeraSans-Roman-30"/>
      </g>
     </g>
    </g>
   </g>
  </g>
  <g id="axes_4">
   <g id="patch_17">
    <path d="
M315.491 266.824
L518.4 266.824
L518.4 165.176
L315.491 165.176
z
" style="fill:#ffffff;"/>
   </g>
   <g id="line2d_16">
    <path clip-path="url(#pf4132cbc21)" d="
M315.531 251.746
L315.856 251.38
L316.14 251.348
L316.465 251.562
L316.911 252.158
L317.723 253.704
L319.143 256.381
L319.914 257.377
L320.645 257.971
L321.375 258.271
L322.146 258.338
L323.039 258.177
L324.094 257.752
L325.474 256.94
L327.341 255.561
L330.628 252.802
L334.808 249.369
L337.486 247.459
L340.043 245.907
L343.127 244.311
L347.591 242.006
L349.133 240.944
L350.188 239.954
L350.919 238.965
L351.406 237.947
L351.73 236.782
L351.933 235.292
L352.055 232.649
L352.096 229.064
L352.177 174.729
L352.217 178.368
L352.664 260.878
L352.745 260.609
L353.029 257.835
L353.8 247.369
L354.652 234.699
L354.693 232.12
L354.774 173.553
L354.855 180.251
L355.139 230.372
L355.302 263.293
L355.342 263.26
L355.545 261.903
L355.951 257.459
L357.493 238.647
L357.777 235.534
L357.858 233.156
L357.899 228.356
L357.98 174.711
L358.021 178.664
L358.305 239.611
L358.467 263.183
L358.508 263.242
L358.548 263.167
L358.792 261.958
L359.482 256.796
L360.05 253.383
L360.496 251.927
L360.861 251.421
L361.145 251.352
L361.47 251.534
L361.917 252.102
L362.647 253.462
L364.23 256.452
L365.001 257.428
L365.731 258.003
L366.462 258.288
L367.233 258.342
L368.126 258.17
L369.221 257.715
L370.601 256.887
L372.508 255.463
L375.998 252.519
L379.935 249.297
L382.613 247.394
L385.17 245.848
L388.295 244.237
L392.556 242.032
L394.098 240.977
L395.153 239.998
L395.883 239.029
L396.37 238.046
L396.695 236.959
L396.898 235.673
L397.02 233.874
L397.101 228.19
L397.182 174.877
L397.223 179.011
L397.669 260.904
L397.71 260.823
L397.913 259.161
L398.44 252.492
L399.658 234.634
L399.698 231.934
L399.779 173.597
L399.861 180.487
L400.145 231.554
L400.307 263.307
L400.388 263.079
L400.672 260.759
L401.159 254.686
L402.214 241.162
L402.823 234.659
L402.904 228.378
L402.985 174.706
L403.026 178.655
L403.31 239.608
L403.472 263.194
L403.513 263.253
L403.553 263.177
L403.797 261.969
L404.487 256.811
L405.055 253.398
L405.501 251.941
L405.867 251.435
L406.151 251.366
L406.475 251.548
L406.922 252.116
L407.652 253.478
L409.235 256.467
L410.006 257.441
L410.736 258.013
L411.467 258.296
L412.238 258.348
L413.131 258.174
L414.226 257.717
L415.606 256.886
L417.514 255.459
L421.044 252.476
L424.94 249.285
L427.618 247.38
L430.175 245.833
L433.3 244.22
L437.52 242.032
L439.063 240.975
L440.118 239.994
L440.848 239.021
L441.335 238.031
L441.66 236.93
L441.863 235.607
L441.984 233.684
L442.025 232.048
L442.066 225.905
L442.147 175.284
L442.187 180.24
L442.634 260.924
L442.755 260.262
L443.121 256.253
L444.541 236.741
L444.622 234.43
L444.663 231.301
L444.744 173.748
L444.785 176.259
L445.069 218.836
L445.272 263.324
L445.353 263.061
L445.637 260.721
L446.124 254.634
L447.179 241.131
L447.788 234.576
L447.869 227.336
L447.95 174.9
L447.991 179.093
L448.275 241.741
L448.437 263.218
L448.478 263.26
L448.518 263.177
L448.762 261.96
L449.451 256.802
L450.02 253.398
L450.466 251.948
L450.831 251.447
L451.115 251.381
L451.44 251.565
L451.886 252.136
L452.657 253.583
L454.159 256.424
L454.93 257.415
L455.661 258.002
L456.391 258.296
L457.162 258.357
L458.055 258.19
L459.151 257.738
L460.53 256.911
L462.438 255.485
L465.887 252.569
L469.864 249.301
L472.543 247.39
L475.099 245.839
L478.224 244.222
L482.445 242.03
L483.987 240.971
L485.042 239.987
L485.772 239.009
L486.259 238.011
L486.584 236.89
L486.787 235.517
L486.909 233.407
L486.949 231.397
L486.99 219.646
L487.03 175.492
L487.111 182.013
L487.558 260.933
L487.68 260.202
L488.085 255.634
L489.506 235.616
L489.587 230.046
L489.668 174.018
L489.709 176.936
L489.993 220.153
L490.155 263.143
L490.196 263.336
L490.236 263.236
L490.48 261.451
L490.926 256.245
L492.184 240.336
L492.671 235.386
L492.752 232.671
L492.793 224.687
L492.833 174.197
L492.915 179.874
L493.402 263.264
L493.483 263.024
L493.807 261.116
L495.025 253.049
L495.431 251.869
L495.755 251.456
L496.039 251.395
L496.364 251.583
L496.81 252.159
L497.582 253.609
L499.083 256.447
L499.854 257.433
L500.585 258.016
L501.315 258.305
L502.086 258.363
L502.979 258.192
L504.075 257.736
L505.454 256.906
L507.362 255.476
L510.852 252.521
L514.788 249.284
L517.467 247.373
L518.359 246.802
L518.359 246.802" style="fill:none;stroke:#0000ff;stroke-linecap:square;"/>
   </g>
   <g id="patch_18">
    <path d="
M315.491 165.176
L518.4 165.176" style="fill:none;stroke:#000000;stroke-linecap:square;stroke-linejoin:miter;"/>
   </g>
   <g id="patch_19">
    <path d="
M518.4 266.824
L518.4 165.176" style="fill:none;stroke:#000000;stroke-linecap:square;stroke-linejoin:miter;"/>
   </g>
   <g id="patch_20">
    <path d="
M315.491 266.824
L518.4 266.824" style="fill:none;stroke:#000000;stroke-linecap:square;stroke-linejoin:miter;"/>
   </g>
   <g id="patch_21">
    <path d="
M315.491 266.824
L315.491 165.176" style="fill:none;stroke:#000000;stroke-linecap:square;stroke-linejoin:miter;"/>
   </g>
   <g id="matplotlib.axis_7"/>
   <g id="matplotlib.axis_8">
    <g id="ytick_7">
     <g id="line2d_17">
      <g>
       <use style="stroke:#000000;stroke-width:0.5;" x="315.490909091" xlink:href="#m728421d6d4" y="252.302521008"/>
      </g>
     </g>
     <g id="line2d_18">
      <g>
       <use style="stroke:#000000;stroke-width:0.5;" x="518.4" xlink:href="#mcb0005524f" y="252.302521008"/>
      </g>
     </g>
     <g id="text_9">
      <!-- −60 -->
      <g transform="translate(288.233409091 255.613771008)scale(0.12 -0.12)">
       <use xlink:href="#BitstreamVeraSans-Roman-2212"/>
       <use x="83.7890625" xlink:href="#BitstreamVeraSans-Roman-36"/>
       <use x="147.412109375" xlink:href="#BitstreamVeraSans-Roman-30"/>
      </g>
     </g>
    </g>
    <g id="ytick_8">
     <g id="line2d_19">
      <g>
       <use style="stroke:#000000;stroke-width:0.5;" x="315.490909091" xlink:href="#m728421d6d4" y="208.739495798"/>
      </g>
     </g>
     <g id="line2d_20">
      <g>
       <use style="stroke:#000000;stroke-width:0.5;" x="518.4" xlink:href="#mcb0005524f" y="208.739495798"/>
      </g>
     </g>
     <g id="text_10">
      <!-- 0 -->
      <g transform="translate(305.444034091 212.050745798)scale(0.12 -0.12)">
       <use xlink:href="#BitstreamVeraSans-Roman-30"/>
      </g>
     </g>
    </g>
   </g>
  </g>
  <g id="axes_5">
   <g id="patch_22">
    <path d="
M72 388.8
L274.909 388.8
L274.909 287.153
L72 287.153
z
" style="fill:#ffffff;"/>
   </g>
   <g id="line2d_21">
    <path clip-path="url(#p5df05f4a8e)" d="
M72.0406 374.946
L76.2205 371.19
L78.7772 369.193
L81.1715 367.602
L83.9716 366.021
L88.3139 363.588
L89.7748 362.492
L90.7488 361.504
L91.4387 360.503
L91.8851 359.489
L92.1286 358.499
L92.2503 357.139
L92.5344 336.82
L92.575 337.073
L92.6967 343.77
L92.9402 352.974
L93.2649 357.616
L93.5489 358.98
L93.7113 359.037
L93.8736 358.72
L94.1577 357.543
L94.7258 354.011
L94.9693 351.597
L95.2128 333.48
L95.2534 334.113
L95.4157 341.121
L95.6186 351.171
L95.9027 354.819
L96.2273 356.643
L96.5114 357.157
L96.7143 357.136
L97.039 356.775
L97.5665 356.229
L97.8912 356.207
L98.1347 356.171
L98.2159 355.968
L98.2564 355.554
L98.4593 340.798
L98.4999 340.817
L98.6217 343.683
L99.0681 363.242
L99.4333 367.082
L99.8797 369.453
L100.407 371.04
L103.491 378.223
L104.303 379.583
L104.993 380.336
L105.642 380.743
L106.332 380.917
L107.103 380.874
L107.996 380.597
L109.132 379.997
L110.634 378.93
L112.744 377.13
L121.023 369.798
L123.417 368.114
L125.974 366.593
L132.061 363.109
L133.279 362.08
L134.131 361.084
L134.699 360.108
L135.064 359.082
L135.267 357.876
L135.308 357.187
L135.592 336.822
L135.632 337.055
L135.713 340.844
L135.998 352.946
L136.322 357.608
L136.606 358.981
L136.769 359.042
L136.931 358.728
L137.215 357.554
L137.783 354.025
L138.027 351.642
L138.27 333.473
L138.311 334.07
L138.473 340.974
L138.717 351.915
L139.041 355.422
L139.366 356.869
L139.609 357.173
L139.812 357.109
L140.218 356.613
L140.664 356.215
L141.03 356.22
L141.192 356.174
L141.273 355.98
L141.314 355.601
L141.557 340.8
L141.679 343.608
L142.125 363.21
L142.491 367.068
L142.937 369.446
L143.465 371.037
L146.549 378.221
L147.36 379.583
L148.05 380.336
L148.7 380.743
L149.39 380.918
L150.161 380.875
L151.053 380.598
L152.19 379.999
L153.691 378.931
L155.801 377.131
L164.08 369.798
L166.474 368.113
L169.031 366.592
L175.118 363.107
L176.336 362.076
L177.188 361.079
L177.756 360.1
L178.121 359.066
L178.324 357.829
L178.365 357.04
L178.649 336.821
L178.69 337.116
L178.811 343.955
L179.055 353.043
L179.379 357.647
L179.664 358.992
L179.826 359.041
L179.988 358.719
L180.272 357.536
L180.84 353.998
L181.084 351.546
L181.327 333.494
L181.449 336.996
L181.936 354.091
L182.261 356.344
L182.545 357.091
L182.748 357.173
L182.991 356.983
L183.762 356.204
L184.29 356.105
L184.371 355.523
L184.574 340.79
L184.615 340.835
L184.736 343.741
L185.142 362.589
L185.467 366.467
L185.873 368.952
L186.36 370.632
L187.252 372.697
L188.957 376.812
L189.931 378.836
L190.661 379.896
L191.351 380.524
L192.041 380.846
L192.771 380.927
L193.583 380.786
L194.598 380.367
L195.856 379.593
L197.56 378.265
L200.239 375.857
L205.555 371.053
L208.111 369.075
L210.506 367.5
L213.387 365.887
L217.405 363.634
L218.866 362.552
L219.88 361.539
L220.57 360.555
L221.016 359.573
L221.301 358.424
L221.382 357.707
L221.422 356.477
L221.666 336.971
L221.706 336.841
L221.747 337.295
L222.274 356.013
L222.559 358.508
L222.761 359.057
L222.883 359.034
L223.046 358.693
L223.37 357.272
L223.979 353.312
L224.141 351.196
L224.385 333.579
L224.547 339.161
L224.831 352.141
L225.156 355.513
L225.48 356.901
L225.724 357.177
L225.927 357.099
L226.373 356.545
L226.779 356.213
L227.185 356.225
L227.307 356.162
L227.388 355.912
L227.428 355.162
L227.631 340.733
L227.712 341.681
L227.834 346.869
L228.078 360.1
L228.362 364.998
L228.768 368.185
L229.214 370.066
L229.823 371.637
L231.852 376.449
L232.907 378.711
L233.678 379.861
L234.368 380.504
L235.017 380.826
L235.707 380.93
L236.519 380.818
L237.493 380.445
L238.71 379.726
L240.333 378.494
L242.768 376.338
L248.977 370.743
L251.493 368.837
L253.928 367.274
L257.053 365.558
L260.381 363.678
L261.882 362.575
L262.897 361.569
L263.587 360.6
L264.074 359.53
L264.358 358.323
L264.439 357.461
L264.723 336.858
L264.804 337.72
L265.169 353.579
L265.494 357.853
L265.738 358.97
L265.9 359.06
L266.062 358.769
L266.346 357.621
L266.914 354.116
L267.158 351.887
L267.28 339.638
L267.401 333.477
L267.442 333.81
L267.604 340.043
L267.848 351.697
L268.173 355.338
L268.497 356.84
L268.741 357.171
L268.944 357.12
L269.309 356.686
L269.755 356.239
L270.08 356.208
L270.323 356.191
L270.405 356.039
L270.445 355.794
L270.689 340.73
L270.77 342.033
L270.891 348.116
L271.135 360.494
L271.46 365.582
L271.865 368.482
L272.352 370.36
L273.083 372.122
L274.625 375.792
L274.909 376.487
L274.909 376.487" style="fill:none;stroke:#0000ff;stroke-linecap:square;"/>
   </g>
   <g id="patch_23">
    <path d="
M72 287.153
L274.909 287.153" style="fill:none;stroke:#000000;stroke-linecap:square;stroke-linejoin:miter;"/>
   </g>
   <g id="patch_24">
    <path d="
M274.909 388.8
L274.909 287.153" style="fill:none;stroke:#000000;stroke-linecap:square;stroke-linejoin:miter;"/>
   </g>
   <g id="patch_25">
    <path d="
M72 388.8
L274.909 388.8" style="fill:none;stroke:#000000;stroke-linecap:square;stroke-linejoin:miter;"/>
   </g>
   <g id="patch_26">
    <path d="
M72 388.8
L72 287.153" style="fill:none;stroke:#000000;stroke-linecap:square;stroke-linejoin:miter;"/>
   </g>
   <g id="matplotlib.axis_9">
    <g id="text_11">
     <!-- 1 s -->
     <defs>
      <path d="
M11.7188 12.9844
L28.3281 12.9844
L28.3281 60.1094
L11.2812 56.5938
L11.2812 69.3906
L28.2188 72.9062
L46.0938 72.9062
L46.0938 12.9844
L62.7031 12.9844
L62.7031 0
L11.7188 0
z
" id="BitstreamVeraSans-Bold-31"/>
      <path id="BitstreamVeraSans-Bold-20"/>
     </defs>
     <g transform="translate(163.904232955 402.918125)scale(0.12 -0.12)">
      <use xlink:href="#BitstreamVeraSans-Bold-31"/>
      <use x="69.580078125" xlink:href="#BitstreamVeraSans-Bold-20"/>
      <use x="104.39453125" xlink:href="#BitstreamVeraSans-Bold-73"/>
     </g>
    </g>
   </g>
   <g id="matplotlib.axis_10">
    <g id="ytick_9">
     <g id="line2d_22">
      <g>
       <use style="stroke:#000000;stroke-width:0.5;" x="72.0" xlink:href="#m728421d6d4" y="374.278991597"/>
      </g>
     </g>
     <g id="line2d_23">
      <g>
       <use style="stroke:#000000;stroke-width:0.5;" x="274.909090909" xlink:href="#mcb0005524f" y="374.278991597"/>
      </g>
     </g>
     <g id="text_12">
      <!-- −60 -->
      <g transform="translate(44.7425 377.590241597)scale(0.12 -0.12)">
       <use xlink:href="#BitstreamVeraSans-Roman-2212"/>
       <use x="83.7890625" xlink:href="#BitstreamVeraSans-Roman-36"/>
       <use x="147.412109375" xlink:href="#BitstreamVeraSans-Roman-30"/>
      </g>
     </g>
    </g>
    <g id="ytick_10">
     <g id="line2d_24">
      <g>
       <use style="stroke:#000000;stroke-width:0.5;" x="72.0" xlink:href="#m728421d6d4" y="330.715966387"/>
      </g>
     </g>
     <g id="line2d_25">
      <g>
       <use style="stroke:#000000;stroke-width:0.5;" x="274.909090909" xlink:href="#mcb0005524f" y="330.715966387"/>
      </g>
     </g>
     <g id="text_13">
      <!-- 0 -->
      <g transform="translate(61.953125 334.027216387)scale(0.12 -0.12)">
       <use xlink:href="#BitstreamVeraSans-Roman-30"/>
      </g>
     </g>
    </g>
   </g>
  </g>
  <g id="axes_6">
   <g id="patch_27">
    <path d="
M315.491 388.8
L518.4 388.8
L518.4 287.153
L315.491 287.153
z
" style="fill:#ffffff;"/>
   </g>
   <g id="line2d_26">
    <path clip-path="url(#p8ca55fdb04)" d="
M315.531 375.157
L320.117 371.108
L322.714 369.125
L325.149 367.543
L328.193 365.853
L331.642 363.902
L333.063 362.843
L334.037 361.846
L334.686 360.878
L335.133 359.829
L335.417 358.643
L335.579 357.251
L335.701 353.676
L335.741 342.003
L335.782 296.751
L335.863 303.76
L336.309 383.734
L336.472 382.705
L336.918 377.823
L338.338 358.504
L338.42 355.661
L338.46 348.512
L338.501 295.255
L338.582 299.91
L338.866 344.545
L339.028 385.63
L339.069 385.678
L339.231 384.782
L339.597 381.32
L340.286 371.963
L341.017 363.297
L341.666 356.457
L341.707 354.612
L341.747 344.437
L341.788 295.759
L341.869 302.27
L342.315 385.661
L342.397 385.535
L342.681 384.096
L344.223 374.869
L344.588 374.196
L344.872 374.034
L345.156 374.117
L345.521 374.488
L346.09 375.441
L348.2 379.31
L348.93 380.067
L349.62 380.467
L350.31 380.617
L351.081 380.56
L352.015 380.259
L353.191 379.627
L354.734 378.528
L356.966 376.636
L364.392 370.145
L366.867 368.383
L369.424 366.842
L375.593 363.274
L376.729 362.264
L377.5 361.292
L378.027 360.279
L378.393 359.074
L378.596 357.731
L378.717 355.689
L378.758 353.788
L378.799 343.421
L378.839 296.935
L378.92 303.477
L379.367 383.739
L379.529 382.72
L379.975 377.845
L381.396 358.545
L381.477 355.775
L381.518 349.449
L381.558 295.302
L381.639 299.701
L381.923 344.015
L382.086 385.619
L382.126 385.683
L382.126 385.683
L382.126 385.683
L382.289 384.796
L382.654 381.342
L383.344 371.991
L384.074 363.316
L384.723 356.522
L384.764 354.76
L384.805 346.242
L384.845 295.844
L384.926 301.936
L385.373 385.659
L385.454 385.543
L385.697 384.361
L386.347 379.675
L386.955 376.024
L387.402 374.586
L387.767 374.096
L388.051 374.045
L388.376 374.251
L388.822 374.854
L389.634 376.423
L390.892 378.79
L391.663 379.775
L392.353 380.313
L393.043 380.574
L393.773 380.614
L394.625 380.431
L395.681 379.962
L397.02 379.109
L398.846 377.665
L402.011 374.829
L406.232 371.112
L408.829 369.127
L411.264 367.544
L414.308 365.854
L417.757 363.901
L419.177 362.842
L420.151 361.844
L420.801 360.874
L421.247 359.822
L421.531 358.628
L421.694 357.216
L421.775 355.556
L421.815 353.453
L421.896 296.496
L422.018 313.652
L422.424 383.732
L422.586 382.687
L423.033 377.795
L424.453 358.46
L424.534 355.528
L424.575 347.178
L424.615 295.234
L424.697 300.151
L424.981 345.197
L425.143 385.644
L425.184 385.676
L425.346 384.77
L425.711 381.3
L426.401 371.94
L427.131 363.283
L427.781 356.415
L427.821 354.512
L427.862 342.959
L427.903 295.728
L427.984 302.493
L428.43 385.665
L428.511 385.533
L428.795 384.09
L430.337 374.87
L430.703 374.199
L430.987 374.039
L431.271 374.122
L431.636 374.495
L432.204 375.449
L434.314 379.316
L435.045 380.071
L435.735 380.47
L436.425 380.619
L437.196 380.561
L438.129 380.258
L439.306 379.626
L440.848 378.525
L443.08 376.632
L450.507 370.14
L452.982 368.378
L455.539 366.837
L461.667 363.296
L462.803 362.293
L463.574 361.333
L464.102 360.345
L464.467 359.195
L464.71 357.587
L464.832 355.206
L464.873 352.444
L464.954 296.267
L465.035 306.37
L465.441 383.757
L465.522 383.513
L465.806 381.033
L466.415 373.292
L467.551 357.051
L467.592 354.795
L467.673 295.332
L467.754 301.345
L468.038 349.307
L468.2 385.682
L468.241 385.652
L468.444 384.391
L468.85 380.217
L470.554 360.116
L470.798 357.218
L470.879 353.719
L470.96 295.808
L471.041 304.024
L471.487 385.672
L471.528 385.622
L471.731 384.757
L472.218 381.414
L472.989 376.344
L473.435 374.746
L473.801 374.153
L474.085 374.04
L474.369 374.16
L474.775 374.625
L475.424 375.789
L477.128 378.996
L477.859 379.871
L478.549 380.367
L479.239 380.594
L480.01 380.601
L480.902 380.37
L481.998 379.841
L483.418 378.891
L485.407 377.268
L489.709 373.375
L492.955 370.606
L495.471 368.749
L497.947 367.198
L501.68 365.17
L504.075 363.75
L505.414 362.712
L506.307 361.763
L506.956 360.75
L507.362 359.743
L507.646 358.472
L507.808 356.844
L507.889 354.504
L507.93 349.461
L508.011 296.857
L508.052 301.457
L508.498 383.764
L508.539 383.646
L508.782 381.711
L509.31 375.321
L510.608 356.433
L510.649 352.938
L510.73 295.762
L510.771 298.413
L511.055 341.224
L511.258 385.7
L511.379 385.16
L511.704 382.378
L512.232 375.64
L513.165 363.819
L513.855 356.882
L513.936 351.553
L514.017 296.39
L514.058 300.054
L514.342 360.797
L514.504 385.629
L514.545 385.667
L514.585 385.586
L514.829 384.444
L515.438 380.078
L516.087 376.09
L516.533 374.621
L516.898 374.112
L517.183 374.049
L517.507 374.245
L517.954 374.84
L518.4 375.659
L518.4 375.659" style="fill:none;stroke:#0000ff;stroke-linecap:square;"/>
   </g>
   <g id="patch_28">
    <path d="
M315.491 287.153
L518.4 287.153" style="fill:none;stroke:#000000;stroke-linecap:square;stroke-linejoin:miter;"/>
   </g>
   <g id="patch_29">
    <path d="
M518.4 388.8
L518.4 287.153" style="fill:none;stroke:#000000;stroke-linecap:square;stroke-linejoin:miter;"/>
   </g>
   <g id="patch_30">
    <path d="
M315.491 388.8
L518.4 388.8" style="fill:none;stroke:#000000;stroke-linecap:square;stroke-linejoin:miter;"/>
   </g>
   <g id="patch_31">
    <path d="
M315.491 388.8
L315.491 287.153" style="fill:none;stroke:#000000;stroke-linecap:square;stroke-linejoin:miter;"/>
   </g>
   <g id="matplotlib.axis_11">
    <g id="text_14">
     <!-- 1 s -->
     <g transform="translate(407.395142045 402.918125)scale(0.12 -0.12)">
      <use xlink:href="#BitstreamVeraSans-Bold-31"/>
      <use x="69.580078125" xlink:href="#BitstreamVeraSans-Bold-20"/>
      <use x="104.39453125" xlink:href="#BitstreamVeraSans-Bold-73"/>
     </g>
    </g>
   </g>
   <g id="matplotlib.axis_12">
    <g id="ytick_11">
     <g id="line2d_27">
      <g>
       <use style="stroke:#000000;stroke-width:0.5;" x="315.490909091" xlink:href="#m728421d6d4" y="374.278991597"/>
      </g>
     </g>
     <g id="line2d_28">
      <g>
       <use style="stroke:#000000;stroke-width:0.5;" x="518.4" xlink:href="#mcb0005524f" y="374.278991597"/>
      </g>
     </g>
     <g id="text_15">
      <!-- −60 -->
      <g transform="translate(288.233409091 377.590241597)scale(0.12 -0.12)">
       <use xlink:href="#BitstreamVeraSans-Roman-2212"/>
       <use x="83.7890625" xlink:href="#BitstreamVeraSans-Roman-36"/>
       <use x="147.412109375" xlink:href="#BitstreamVeraSans-Roman-30"/>
      </g>
     </g>
    </g>
    <g id="ytick_12">
     <g id="line2d_29">
      <g>
       <use style="stroke:#000000;stroke-width:0.5;" x="315.490909091" xlink:href="#m728421d6d4" y="330.715966387"/>
      </g>
     </g>
     <g id="line2d_30">
      <g>
       <use style="stroke:#000000;stroke-width:0.5;" x="518.4" xlink:href="#mcb0005524f" y="330.715966387"/>
      </g>
     </g>
     <g id="text_16">
      <!-- 0 -->
      <g transform="translate(305.444034091 334.027216387)scale(0.12 -0.12)">
       <use xlink:href="#BitstreamVeraSans-Roman-30"/>
      </g>
     </g>
    </g>
   </g>
  </g>
 </g>
 <defs>
  <clipPath id="pf4132cbc21">
   <rect height="101.647058824" width="202.909090909" x="315.490909091" y="165.176470588"/>
  </clipPath>
  <clipPath id="p5df05f4a8e">
   <rect height="101.647058824" width="202.909090909" x="72.0" y="287.152941176"/>
  </clipPath>
  <clipPath id="pdf2bc2c95a">
   <rect height="101.647058824" width="202.909090909" x="72.0" y="43.2"/>
  </clipPath>
  <clipPath id="pbd5a3a9a46">
   <rect height="101.647058824" width="202.909090909" x="315.490909091" y="43.2"/>
  </clipPath>
  <clipPath id="p68273c1835">
   <rect height="101.647058824" width="202.909090909" x="72.0" y="165.176470588"/>
  </clipPath>
  <clipPath id="p8ca55fdb04">
   <rect height="101.647058824" width="202.909090909" x="315.490909091" y="287.152941176"/>
  </clipPath>
 </defs>
</svg>
