<?xml version="1.0" encoding="utf-8" standalone="no"?>
<!DOCTYPE svg PUBLIC "-//W3C//DTD SVG 1.1//EN"
  "http://www.w3.org/Graphics/SVG/1.1/DTD/svg11.dtd">
<!-- Created with matplotlib (http://matplotlib.org/) -->
<svg height="432pt" version="1.1" viewBox="0 0 576 432" width="576pt" xmlns="http://www.w3.org/2000/svg" xmlns:xlink="http://www.w3.org/1999/xlink">
 <defs>
  <style type="text/css">
*{stroke-linecap:butt;stroke-linejoin:round;}
  </style>
 </defs>
 <g id="figure_1">
  <g id="patch_1">
   <path d="
M0 432
L576 432
L576 0
L0 0
z
" style="fill:#ffffff;"/>
  </g>
  <g id="axes_1">
   <g id="patch_2">
    <path d="
M72 144.847
L274.909 144.847
L274.909 43.2
L72 43.2
z
" style="fill:#ffffff;"/>
   </g>
   <g id="line2d_1">
    <path clip-path="url(#pdf2bc2c95a)" d="
M72 126.696
L75.7335 126.011
L81.1715 125.222
L87.4617 124.541
L94.9287 123.964
L104.141 123.485
L116.153 123.096
L133.441 122.777
L163.715 122.472
L239.197 121.986
L274.869 121.808
L274.869 121.808" style="fill:none;stroke:#0000ff;stroke-linecap:square;"/>
   </g>
   <g id="patch_3">
    <path d="
M72 43.2
L274.909 43.2" style="fill:none;stroke:#000000;stroke-linecap:square;stroke-linejoin:miter;"/>
   </g>
   <g id="patch_4">
    <path d="
M274.909 144.847
L274.909 43.2" style="fill:none;stroke:#000000;stroke-linecap:square;stroke-linejoin:miter;"/>
   </g>
   <g id="patch_5">
    <path d="
M72 144.847
L274.909 144.847" style="fill:none;stroke:#000000;stroke-linecap:square;stroke-linejoin:miter;"/>
   </g>
   <g id="patch_6">
    <path d="
M72 144.847
L72 43.2" style="fill:none;stroke:#000000;stroke-linecap:square;stroke-linejoin:miter;"/>
   </g>
   <g id="matplotlib.axis_1"/>
   <g id="matplotlib.axis_2">
    <g id="ytick_1">
     <g id="line2d_2">
      <defs>
       <path d="
M0 0
L4 0" id="m728421d6d4" style="stroke:#000000;stroke-width:0.5;"/>
      </defs>
      <g>
       <use style="stroke:#000000;stroke-width:0.5;" x="72.0" xlink:href="#m728421d6d4" y="130.32605042"/>
      </g>
     </g>
     <g id="line2d_3">
      <defs>
       <path d="
M0 0
L-4 0" id="mcb0005524f" style="stroke:#000000;stroke-width:0.5;"/>
      </defs>
      <g>
       <use style="stroke:#000000;stroke-width:0.5;" x="274.909090909" xlink:href="#mcb0005524f" y="130.32605042"/>
      </g>
     </g>
     <g id="text_1">
      <!-- −60 -->
      <defs>
       <path d="
M10.5938 35.5
L73.1875 35.5
L73.1875 27.2031
L10.5938 27.2031
z
" id="BitstreamVeraSans-Roman-2212"/>
       <path d="
M31.7812 66.4062
Q24.1719 66.4062 20.3281 58.9062
Q16.5 51.4219 16.5 36.375
Q16.5 21.3906 20.3281 13.8906
Q24.1719 6.39062 31.7812 6.39062
Q39.4531 6.39062 43.2812 13.8906
Q47.125 21.3906 47.125 36.375
Q47.125 51.4219 43.2812 58.9062
Q39.4531 66.4062 31.7812 66.4062
M31.7812 74.2188
Q44.0469 74.2188 50.5156 64.5156
Q56.9844 54.8281 56.9844 36.375
Q56.9844 17.9688 50.5156 8.26562
Q44.0469 -1.42188 31.7812 -1.42188
Q19.5312 -1.42188 13.0625 8.26562
Q6.59375 17.9688 6.59375 36.375
Q6.59375 54.8281 13.0625 64.5156
Q19.5312 74.2188 31.7812 74.2188" id="BitstreamVeraSans-Roman-30"/>
       <path d="
M33.0156 40.375
Q26.375 40.375 22.4844 35.8281
Q18.6094 31.2969 18.6094 23.3906
Q18.6094 15.5312 22.4844 10.9531
Q26.375 6.39062 33.0156 6.39062
Q39.6562 6.39062 43.5312 10.9531
Q47.4062 15.5312 47.4062 23.3906
Q47.4062 31.2969 43.5312 35.8281
Q39.6562 40.375 33.0156 40.375
M52.5938 71.2969
L52.5938 62.3125
Q48.875 64.0625 45.0938 64.9844
Q41.3125 65.9219 37.5938 65.9219
Q27.8281 65.9219 22.6719 59.3281
Q17.5312 52.7344 16.7969 39.4062
Q19.6719 43.6562 24.0156 45.9219
Q28.375 48.1875 33.5938 48.1875
Q44.5781 48.1875 50.9531 41.5156
Q57.3281 34.8594 57.3281 23.3906
Q57.3281 12.1562 50.6875 5.35938
Q44.0469 -1.42188 33.0156 -1.42188
Q20.3594 -1.42188 13.6719 8.26562
Q6.98438 17.9688 6.98438 36.375
Q6.98438 53.6562 15.1875 63.9375
Q23.3906 74.2188 37.2031 74.2188
Q40.9219 74.2188 44.7031 73.4844
Q48.4844 72.75 52.5938 71.2969" id="BitstreamVeraSans-Roman-36"/>
      </defs>
      <g transform="translate(44.7425 133.63730042)scale(0.12 -0.12)">
       <use xlink:href="#BitstreamVeraSans-Roman-2212"/>
       <use x="83.7890625" xlink:href="#BitstreamVeraSans-Roman-36"/>
       <use x="147.412109375" xlink:href="#BitstreamVeraSans-Roman-30"/>
      </g>
     </g>
    </g>
    <g id="ytick_2">
     <g id="line2d_4">
      <g>
       <use style="stroke:#000000;stroke-width:0.5;" x="72.0" xlink:href="#m728421d6d4" y="86.7630252101"/>
      </g>
     </g>
     <g id="line2d_5">
      <g>
       <use style="stroke:#000000;stroke-width:0.5;" x="274.909090909" xlink:href="#mcb0005524f" y="86.7630252101"/>
      </g>
     </g>
     <g id="text_2">
      <!-- 0 -->
      <g transform="translate(61.953125 90.0742752101)scale(0.12 -0.12)">
       <use xlink:href="#BitstreamVeraSans-Roman-30"/>
      </g>
     </g>
    </g>
   </g>
   <g id="text_3">
    <!-- soma -->
    <defs>
     <path d="
M51.125 52.9844
L51.125 39.7031
Q45.5156 42.0469 40.2812 43.2188
Q35.0625 44.3906 30.4219 44.3906
Q25.4375 44.3906 23.0156 43.1406
Q20.6094 41.8906 20.6094 39.3125
Q20.6094 37.2031 22.4375 36.0781
Q24.2656 34.9688 29 34.4219
L32.0781 33.9844
Q45.5156 32.2812 50.1406 28.375
Q54.7812 24.4688 54.7812 16.1094
Q54.7812 7.375 48.3281 2.96875
Q41.8906 -1.42188 29.1094 -1.42188
Q23.6875 -1.42188 17.8906 -0.5625
Q12.1094 0.296875 6 2
L6 15.2812
Q11.2344 12.75 16.7188 11.4688
Q22.2188 10.2031 27.875 10.2031
Q33.0156 10.2031 35.5938 11.6094
Q38.1875 13.0312 38.1875 15.8281
Q38.1875 18.1719 36.4062 19.3125
Q34.625 20.4531 29.2969 21.0938
L26.2188 21.4844
Q14.5469 22.9531 9.85938 26.9062
Q5.17188 30.8594 5.17188 38.9219
Q5.17188 47.6094 11.125 51.7969
Q17.0938 56 29.3906 56
Q34.2344 56 39.5469 55.2656
Q44.875 54.5469 51.125 52.9844" id="BitstreamVeraSans-Bold-73"/>
     <path d="
M32.9062 24.6094
Q27.4375 24.6094 24.6719 22.75
Q21.9219 20.9062 21.9219 17.2812
Q21.9219 13.9688 24.1406 12.0781
Q26.375 10.2031 30.3281 10.2031
Q35.25 10.2031 38.625 13.7344
Q42 17.2812 42 22.6094
L42 24.6094
z

M59.625 31.2031
L59.625 0
L42 0
L42 8.10938
Q38.4844 3.125 34.0781 0.84375
Q29.6875 -1.42188 23.3906 -1.42188
Q14.8906 -1.42188 9.59375 3.53125
Q4.29688 8.5 4.29688 16.4062
Q4.29688 26.0312 10.9062 30.5156
Q17.5312 35.0156 31.6875 35.0156
L42 35.0156
L42 36.375
Q42 40.5312 38.7188 42.4531
Q35.4531 44.3906 28.5156 44.3906
Q22.9062 44.3906 18.0625 43.2656
Q13.2344 42.1406 9.07812 39.8906
L9.07812 53.2188
Q14.7031 54.5938 20.3594 55.2969
Q26.0312 56 31.6875 56
Q46.4844 56 53.0469 50.1719
Q59.625 44.3438 59.625 31.2031" id="BitstreamVeraSans-Bold-61"/>
     <path d="
M34.4219 43.5
Q28.6094 43.5 25.5625 39.3281
Q22.5156 35.1562 22.5156 27.2969
Q22.5156 19.4375 25.5625 15.25
Q28.6094 11.0781 34.4219 11.0781
Q40.1406 11.0781 43.1562 15.25
Q46.1875 19.4375 46.1875 27.2969
Q46.1875 35.1562 43.1562 39.3281
Q40.1406 43.5 34.4219 43.5
M34.4219 56
Q48.5312 56 56.4688 48.375
Q64.4062 40.7656 64.4062 27.2969
Q64.4062 13.8125 56.4688 6.1875
Q48.5312 -1.42188 34.4219 -1.42188
Q20.2656 -1.42188 12.2812 6.1875
Q4.29688 13.8125 4.29688 27.2969
Q4.29688 40.7656 12.2812 48.375
Q20.2656 56 34.4219 56" id="BitstreamVeraSans-Bold-6f"/>
     <path d="
M59.0781 45.6094
Q62.4062 50.6875 66.9688 53.3438
Q71.5312 56 77 56
Q86.4219 56 91.3594 50.1875
Q96.2969 44.3906 96.2969 33.2969
L96.2969 0
L78.7188 0
L78.7188 28.5156
Q78.7656 29.1562 78.7812 29.8281
Q78.8125 30.5156 78.8125 31.7812
Q78.8125 37.5938 77.0938 40.2031
Q75.3906 42.8281 71.5781 42.8281
Q66.6094 42.8281 63.8906 38.7188
Q61.1875 34.625 61.0781 26.8594
L61.0781 0
L43.5 0
L43.5 28.5156
Q43.5 37.5938 41.9375 40.2031
Q40.375 42.8281 36.375 42.8281
Q31.3438 42.8281 28.6094 38.7031
Q25.875 34.5781 25.875 26.9062
L25.875 0
L8.29688 0
L8.29688 54.6875
L25.875 54.6875
L25.875 46.6875
Q29.1094 51.3125 33.2812 53.6562
Q37.4531 56 42.4844 56
Q48.1406 56 52.4844 53.2656
Q56.8438 50.5312 59.0781 45.6094" id="BitstreamVeraSans-Bold-6d"/>
    </defs>
    <g transform="translate(152.799545455 38.2)scale(0.144 -0.144)">
     <use xlink:href="#BitstreamVeraSans-Bold-73"/>
     <use x="59.521484375" xlink:href="#BitstreamVeraSans-Bold-6f"/>
     <use x="128.22265625" xlink:href="#BitstreamVeraSans-Bold-6d"/>
     <use x="232.421875" xlink:href="#BitstreamVeraSans-Bold-61"/>
    </g>
   </g>
  </g>
  <g id="axes_2">
   <g id="patch_7">
    <path d="
M315.491 144.847
L518.4 144.847
L518.4 43.2
L315.491 43.2
z
" style="fill:#ffffff;"/>
   </g>
   <g id="line2d_6">
    <path clip-path="url(#pbd5a3a9a46)" d="
M315.491 126.696
L322.025 125.583
L327.868 124.853
L334.727 124.229
L343.005 123.706
L353.516 123.277
L367.841 122.929
L390.202 122.633
L437.886 122.272
L518.359 121.833
L518.359 121.833" style="fill:none;stroke:#0000ff;stroke-linecap:square;"/>
   </g>
   <g id="patch_8">
    <path d="
M315.491 43.2
L518.4 43.2" style="fill:none;stroke:#000000;stroke-linecap:square;stroke-linejoin:miter;"/>
   </g>
   <g id="patch_9">
    <path d="
M518.4 144.847
L518.4 43.2" style="fill:none;stroke:#000000;stroke-linecap:square;stroke-linejoin:miter;"/>
   </g>
   <g id="patch_10">
    <path d="
M315.491 144.847
L518.4 144.847" style="fill:none;stroke:#000000;stroke-linecap:square;stroke-linejoin:miter;"/>
   </g>
   <g id="patch_11">
    <path d="
M315.491 144.847
L315.491 43.2" style="fill:none;stroke:#000000;stroke-linecap:square;stroke-linejoin:miter;"/>
   </g>
   <g id="matplotlib.axis_3"/>
   <g id="matplotlib.axis_4">
    <g id="ytick_3">
     <g id="line2d_7">
      <g>
       <use style="stroke:#000000;stroke-width:0.5;" x="315.490909091" xlink:href="#m728421d6d4" y="130.32605042"/>
      </g>
     </g>
     <g id="line2d_8">
      <g>
       <use style="stroke:#000000;stroke-width:0.5;" x="518.4" xlink:href="#mcb0005524f" y="130.32605042"/>
      </g>
     </g>
     <g id="text_4">
      <!-- −60 -->
      <g transform="translate(288.233409091 133.63730042)scale(0.12 -0.12)">
       <use xlink:href="#BitstreamVeraSans-Roman-2212"/>
       <use x="83.7890625" xlink:href="#BitstreamVeraSans-Roman-36"/>
       <use x="147.412109375" xlink:href="#BitstreamVeraSans-Roman-30"/>
      </g>
     </g>
    </g>
    <g id="ytick_4">
     <g id="line2d_9">
      <g>
       <use style="stroke:#000000;stroke-width:0.5;" x="315.490909091" xlink:href="#m728421d6d4" y="86.7630252101"/>
      </g>
     </g>
     <g id="line2d_10">
      <g>
       <use style="stroke:#000000;stroke-width:0.5;" x="518.4" xlink:href="#mcb0005524f" y="86.7630252101"/>
      </g>
     </g>
     <g id="text_5">
      <!-- 0 -->
      <g transform="translate(305.444034091 90.0742752101)scale(0.12 -0.12)">
       <use xlink:href="#BitstreamVeraSans-Roman-30"/>
      </g>
     </g>
    </g>
   </g>
   <g id="text_6">
    <!-- axon -->
    <defs>
     <path d="
M22.2188 27.9844
L2.48438 54.6875
L21 54.6875
L32.1719 38.4844
L43.5 54.6875
L62.0156 54.6875
L42.2812 28.0781
L62.9844 0
L44.4844 0
L32.1719 17.2812
L20.0156 0
L1.51562 0
z
" id="BitstreamVeraSans-Bold-78"/>
     <path d="
M63.375 33.2969
L63.375 0
L45.7969 0
L45.7969 5.42188
L45.7969 25.4844
Q45.7969 32.5625 45.4844 35.25
Q45.1719 37.9375 44.3906 39.2031
Q43.3594 40.9219 41.5938 41.875
Q39.8438 42.8281 37.5938 42.8281
Q32.125 42.8281 29 38.5938
Q25.875 34.375 25.875 26.9062
L25.875 0
L8.40625 0
L8.40625 54.6875
L25.875 54.6875
L25.875 46.6875
Q29.8281 51.4688 34.2656 53.7344
Q38.7188 56 44.0938 56
Q53.5625 56 58.4688 50.1875
Q63.375 44.3906 63.375 33.2969" id="BitstreamVeraSans-Bold-6e"/>
    </defs>
    <g transform="translate(398.242329545 38.2)scale(0.144 -0.144)">
     <use xlink:href="#BitstreamVeraSans-Bold-61"/>
     <use x="67.48046875" xlink:href="#BitstreamVeraSans-Bold-78"/>
     <use x="131.982421875" xlink:href="#BitstreamVeraSans-Bold-6f"/>
     <use x="200.68359375" xlink:href="#BitstreamVeraSans-Bold-6e"/>
    </g>
   </g>
  </g>
  <g id="axes_3">
   <g id="patch_12">
    <path d="
M72 266.824
L274.909 266.824
L274.909 165.176
L72 165.176
z
" style="fill:#ffffff;"/>
   </g>
   <g id="line2d_11">
    <path clip-path="url(#p68273c1835)" d="
M72.0406 251.787
L77.6003 247.557
L80.5222 245.655
L83.9716 243.696
L88.0704 241.343
L89.6125 240.193
L90.6676 239.134
L91.3981 238.096
L91.9257 236.956
L92.2503 235.758
L92.4127 234.498
L92.4532 233.56
L92.8185 206.265
L92.8591 205.598
L92.8996 205.761
L93.4678 218.819
L93.7113 219.86
L93.8736 219.972
L93.9548 219.811
L93.9953 219.505
L94.1983 209.266
L94.32 211.813
L95.0505 231.315
L95.4157 233.506
L95.6998 234.094
L95.9433 234.139
L96.3085 233.868
L96.8767 233.257
L96.9984 232.84
L97.039 232.465
L97.3231 213.649
L97.4448 214.832
L97.5665 219.315
L97.8912 233.007
L98.2564 239.577
L98.6217 242.763
L99.0275 244.567
L99.5551 245.918
L101.625 250.02
L103.167 252.866
L104.1 254.152
L104.912 254.922
L105.683 255.363
L106.454 255.56
L107.306 255.545
L108.28 255.299
L109.498 254.745
L111.08 253.758
L113.475 251.971
L119.481 247.408
L122.403 245.525
L125.974 243.513
L129.707 241.36
L131.249 240.214
L132.305 239.164
L133.035 238.139
L133.563 237.024
L133.887 235.881
L134.05 234.789
L134.131 232.463
L134.415 208.295
L134.537 205.541
L134.577 206.113
L135.024 217.903
L135.308 219.702
L135.511 219.989
L135.592 219.895
L135.632 219.74
L135.673 219.021
L135.835 209.277
L135.876 209.394
L136.038 213.52
L136.769 231.796
L137.093 233.562
L137.377 234.11
L137.621 234.136
L138.027 233.82
L138.554 233.228
L138.676 232.741
L138.717 232.152
L139.001 213.606
L139.082 214.36
L139.203 217.868
L139.569 233.387
L139.934 239.759
L140.299 242.855
L140.705 244.618
L141.273 246.037
L144.033 251.478
L145.169 253.384
L146.062 254.476
L146.873 255.126
L147.645 255.467
L148.456 255.581
L149.349 255.475
L150.404 255.117
L151.743 254.409
L153.569 253.167
L157.019 250.486
L160.874 247.593
L163.796 245.685
L167.205 243.744
L171.385 241.345
L172.927 240.195
L173.982 239.137
L174.713 238.1
L175.24 236.961
L175.565 235.765
L175.727 234.515
L175.768 233.611
L176.174 205.608
L176.214 205.745
L176.782 218.821
L177.026 219.868
L177.188 219.985
L177.269 219.829
L177.31 219.543
L177.513 209.266
L177.553 209.726
L177.878 218.847
L178.162 228.873
L178.487 232.267
L178.811 233.753
L179.055 234.129
L179.298 234.128
L179.745 233.766
L180.191 233.27
L180.313 232.868
L180.353 232.522
L180.435 225.725
L180.638 213.681
L180.678 213.668
L180.8 215.69
L180.962 223.887
L181.287 234.846
L181.652 240.459
L182.058 243.417
L182.504 245.045
L183.154 246.492
L186.684 253.179
L187.577 254.333
L188.389 255.038
L189.16 255.425
L189.971 255.578
L190.864 255.506
L191.879 255.193
L193.137 254.565
L194.841 253.445
L197.682 251.268
L202.349 247.718
L205.271 245.793
L208.598 243.884
L213.103 241.299
L214.605 240.17
L215.619 239.15
L216.35 238.118
L216.877 236.99
L217.202 235.819
L217.364 234.648
L217.405 233.961
L217.851 205.611
L217.892 206.49
L218.297 217.601
L218.582 219.62
L218.784 220
L218.866 219.96
L218.947 219.664
L219.15 209.249
L219.231 210.357
L219.596 222.601
L219.84 229.332
L220.164 232.467
L220.489 233.83
L220.732 234.148
L220.976 234.115
L221.544 233.633
L221.869 233.21
L221.99 232.656
L222.031 231.671
L222.274 213.793
L222.315 213.625
L222.396 214.554
L222.518 218.45
L222.883 233.653
L223.248 239.888
L223.614 242.922
L224.019 244.656
L224.588 246.063
L227.428 251.653
L228.565 253.518
L229.457 254.569
L230.269 255.183
L231.04 255.494
L231.852 255.582
L232.745 255.454
L233.84 255.058
L235.22 254.302
L237.127 252.977
L241.47 249.588
L244.797 247.162
L247.719 245.309
L251.615 243.136
L254.699 241.329
L256.241 240.174
L257.256 239.155
L257.986 238.126
L258.514 237.001
L258.839 235.839
L259.001 234.693
L259.042 234.058
L259.204 217.473
L259.447 205.776
L259.488 205.58
L259.61 209.494
L259.894 217.03
L260.178 219.445
L260.421 220.004
L260.503 219.97
L260.584 219.703
L260.665 214.052
L260.787 209.258
L260.827 209.502
L261.071 216.015
L261.233 222.39
L261.477 229.274
L261.801 232.443
L262.126 233.823
L262.369 234.149
L262.613 234.12
L263.14 233.677
L263.506 233.224
L263.627 232.704
L263.668 231.948
L263.952 213.621
L264.033 214.47
L264.155 218.182
L264.52 233.536
L264.885 239.833
L265.251 242.895
L265.656 244.642
L266.225 246.055
L269.025 251.571
L270.161 253.456
L271.054 254.527
L271.865 255.159
L272.637 255.484
L273.448 255.583
L274.341 255.466
L274.869 255.308
L274.869 255.308" style="fill:none;stroke:#0000ff;stroke-linecap:square;"/>
   </g>
   <g id="patch_13">
    <path d="
M72 165.176
L274.909 165.176" style="fill:none;stroke:#000000;stroke-linecap:square;stroke-linejoin:miter;"/>
   </g>
   <g id="patch_14">
    <path d="
M274.909 266.824
L274.909 165.176" style="fill:none;stroke:#000000;stroke-linecap:square;stroke-linejoin:miter;"/>
   </g>
   <g id="patch_15">
    <path d="
M72 266.824
L274.909 266.824" style="fill:none;stroke:#000000;stroke-linecap:square;stroke-linejoin:miter;"/>
   </g>
   <g id="patch_16">
    <path d="
M72 266.824
L72 165.176" style="fill:none;stroke:#000000;stroke-linecap:square;stroke-linejoin:miter;"/>
   </g>
   <g id="matplotlib.axis_5"/>
   <g id="matplotlib.axis_6">
    <g id="ytick_5">
     <g id="line2d_12">
      <g>
       <use style="stroke:#000000;stroke-width:0.5;" x="72.0" xlink:href="#m728421d6d4" y="252.302521008"/>
      </g>
     </g>
     <g id="line2d_13">
      <g>
       <use style="stroke:#000000;stroke-width:0.5;" x="274.909090909" xlink:href="#mcb0005524f" y="252.302521008"/>
      </g>
     </g>
     <g id="text_7">
      <!-- −60 -->
      <g transform="translate(44.7425 255.613771008)scale(0.12 -0.12)">
       <use xlink:href="#BitstreamVeraSans-Roman-2212"/>
       <use x="83.7890625" xlink:href="#BitstreamVeraSans-Roman-36"/>
       <use x="147.412109375" xlink:href="#BitstreamVeraSans-Roman-30"/>
      </g>
     </g>
    </g>
    <g id="ytick_6">
     <g id="line2d_14">
      <g>
       <use style="stroke:#000000;stroke-width:0.5;" x="72.0" xlink:href="#m728421d6d4" y="208.739495798"/>
      </g>
     </g>
     <g id="line2d_15">
      <g>
       <use style="stroke:#000000;stroke-width:0.5;" x="274.909090909" xlink:href="#mcb0005524f" y="208.739495798"/>
      </g>
     </g>
     <g id="text_8">
      <!-- 0 -->
      <g transform="translate(61.953125 212.050745798)scale(0.12 -0.12)">
       <use xlink:href="#BitstreamVeraSans-Roman-30"/>
      </g>
     </g>
    </g>
   </g>
  </g>
  <g id="axes_4">
   <g id="patch_17">
    <path d="
M315.491 266.824
L518.4 266.824
L518.4 165.176
L315.491 165.176
z
" style="fill:#ffffff;"/>
   </g>
   <g id="line2d_16">
    <path clip-path="url(#pf4132cbc21)" d="
M315.531 251.961
L321.943 247.205
L324.906 245.354
L329.208 242.975
L331.805 241.412
L333.225 240.304
L334.159 239.309
L334.808 238.315
L335.254 237.269
L335.579 235.95
L335.782 234.144
L335.863 232.28
L335.904 229.828
L336.025 176.236
L336.106 185.869
L336.512 249.275
L336.634 250.78
L336.756 249.531
L337.162 241.404
L337.446 233.382
L337.486 226.133
L337.527 173.776
L337.608 176.675
L337.933 212.77
L338.014 222.581
L338.217 259.047
L338.257 259.324
L338.298 259.275
L338.46 257.882
L339.11 249.029
L339.84 240.535
L340.408 234.815
L340.489 232.32
L340.53 227.415
L340.611 174.695
L340.652 176.978
L340.976 221.776
L341.179 256.2
L341.301 257.28
L341.342 257.186
L341.544 255.871
L342.356 250.163
L342.802 248.496
L343.168 247.834
L343.492 247.633
L343.817 247.695
L344.223 248.031
L344.832 248.87
L346.171 251.228
L347.429 253.245
L348.322 254.288
L349.133 254.913
L349.904 255.241
L350.716 255.349
L351.609 255.244
L352.664 254.892
L354.003 254.199
L355.829 252.982
L359.319 250.326
L363.134 247.528
L366.096 245.634
L369.749 243.588
L373.198 241.593
L374.7 240.471
L375.714 239.441
L376.404 238.435
L376.891 237.341
L377.216 236.087
L377.419 234.477
L377.541 231.576
L377.581 227.485
L377.662 176.292
L377.743 181.792
L378.23 250.599
L378.271 250.825
L378.312 250.71
L378.474 248.615
L379.001 237.327
L379.123 232.03
L379.204 173.711
L379.286 177.851
L379.651 218.632
L379.935 259.337
L380.016 258.936
L380.341 255.094
L381.477 240.771
L382.086 234.516
L382.167 231.311
L382.289 175.275
L382.41 189.928
L382.897 257.081
L382.938 257.273
L383.019 257.13
L383.263 255.429
L383.993 250.296
L384.439 248.567
L384.805 247.866
L385.129 247.64
L385.454 247.685
L385.86 248.006
L386.469 248.831
L387.727 251.04
L389.066 253.212
L389.959 254.265
L390.77 254.899
L391.541 255.235
L392.353 255.35
L393.246 255.25
L394.301 254.903
L395.64 254.214
L397.466 253
L400.916 250.376
L404.771 247.543
L407.733 245.647
L411.386 243.598
L414.835 241.605
L416.337 240.486
L417.351 239.462
L418.041 238.467
L418.528 237.392
L418.853 236.178
L419.056 234.683
L419.177 232.324
L419.218 229.943
L419.34 176.19
L419.421 185.663
L419.827 249.245
L419.949 250.798
L420.07 249.562
L420.476 241.445
L420.76 233.511
L420.801 227.089
L420.841 173.925
L420.922 176.543
L421.207 208.677
L421.328 222.194
L421.531 259.03
L421.572 259.327
L421.612 259.289
L421.775 257.911
L422.424 249.066
L423.154 240.564
L423.723 234.882
L423.804 232.51
L423.844 228.325
L423.926 174.615
L423.966 176.69
L424.291 221.184
L424.534 256.895
L424.615 257.288
L424.656 257.204
L424.859 255.904
L425.711 249.989
L426.158 248.409
L426.523 247.8
L426.847 247.633
L427.172 247.72
L427.578 248.077
L428.227 249
L431.474 254.127
L432.285 254.813
L433.056 255.193
L433.868 255.346
L434.761 255.28
L435.816 254.961
L437.115 254.319
L438.86 253.186
L441.863 250.922
L446.286 247.637
L449.249 245.729
L452.82 243.716
L456.513 241.586
L458.014 240.461
L459.029 239.427
L459.719 238.413
L460.206 237.305
L460.53 236.018
L460.733 234.311
L460.855 230.805
L460.896 223.301
L460.977 175.967
L461.017 178.307
L461.585 250.832
L461.626 250.637
L461.829 247.651
L462.357 235.811
L462.438 230.273
L462.519 174.021
L462.559 175.855
L462.762 198.329
L463.006 231.476
L463.168 258.864
L463.249 259.325
L463.29 259.145
L463.533 256.564
L464.994 238.87
L465.36 235.086
L465.441 233.037
L465.481 230.246
L465.562 174.632
L465.644 179.49
L466.252 257.291
L466.293 257.242
L466.455 256.308
L467.429 249.674
L467.876 248.255
L468.241 247.741
L468.566 247.636
L468.89 247.767
L469.337 248.212
L470.067 249.322
L472.745 253.704
L473.598 254.568
L474.409 255.078
L475.221 255.318
L476.073 255.331
L477.047 255.114
L478.224 254.613
L479.766 253.695
L482.039 252.055
L488.735 247.093
L491.738 245.231
L499.408 240.671
L500.463 239.669
L501.234 238.631
L501.761 237.543
L502.127 236.251
L502.33 234.837
L502.451 232.792
L502.533 224.951
L502.614 175.977
L502.654 177.935
L502.979 230.228
L503.141 250.081
L503.222 250.843
L503.263 250.671
L503.425 248.476
L503.953 237.121
L504.075 230.999
L504.156 173.9
L504.196 175.61
L504.399 197.802
L504.643 229.682
L504.805 258.787
L504.886 259.337
L504.927 259.173
L505.17 256.621
L506.631 238.912
L506.997 235.168
L507.118 230.797
L507.199 174.869
L507.321 184.266
L507.849 257.134
L507.889 257.289
L507.93 257.258
L508.092 256.347
L509.066 249.699
L509.513 248.268
L509.878 247.748
L510.202 247.638
L510.527 247.766
L510.974 248.208
L511.663 249.247
L514.464 253.797
L515.316 254.63
L516.127 255.112
L516.939 255.329
L517.791 255.322
L518.359 255.211
L518.359 255.211" style="fill:none;stroke:#0000ff;stroke-linecap:square;"/>
   </g>
   <g id="patch_18">
    <path d="
M315.491 165.176
L518.4 165.176" style="fill:none;stroke:#000000;stroke-linecap:square;stroke-linejoin:miter;"/>
   </g>
   <g id="patch_19">
    <path d="
M518.4 266.824
L518.4 165.176" style="fill:none;stroke:#000000;stroke-linecap:square;stroke-linejoin:miter;"/>
   </g>
   <g id="patch_20">
    <path d="
M315.491 266.824
L518.4 266.824" style="fill:none;stroke:#000000;stroke-linecap:square;stroke-linejoin:miter;"/>
   </g>
   <g id="patch_21">
    <path d="
M315.491 266.824
L315.491 165.176" style="fill:none;stroke:#000000;stroke-linecap:square;stroke-linejoin:miter;"/>
   </g>
   <g id="matplotlib.axis_7"/>
   <g id="matplotlib.axis_8">
    <g id="ytick_7">
     <g id="line2d_17">
      <g>
       <use style="stroke:#000000;stroke-width:0.5;" x="315.490909091" xlink:href="#m728421d6d4" y="252.302521008"/>
      </g>
     </g>
     <g id="line2d_18">
      <g>
       <use style="stroke:#000000;stroke-width:0.5;" x="518.4" xlink:href="#mcb0005524f" y="252.302521008"/>
      </g>
     </g>
     <g id="text_9">
      <!-- −60 -->
      <g transform="translate(288.233409091 255.613771008)scale(0.12 -0.12)">
       <use xlink:href="#BitstreamVeraSans-Roman-2212"/>
       <use x="83.7890625" xlink:href="#BitstreamVeraSans-Roman-36"/>
       <use x="147.412109375" xlink:href="#BitstreamVeraSans-Roman-30"/>
      </g>
     </g>
    </g>
    <g id="ytick_8">
     <g id="line2d_19">
      <g>
       <use style="stroke:#000000;stroke-width:0.5;" x="315.490909091" xlink:href="#m728421d6d4" y="208.739495798"/>
      </g>
     </g>
     <g id="line2d_20">
      <g>
       <use style="stroke:#000000;stroke-width:0.5;" x="518.4" xlink:href="#mcb0005524f" y="208.739495798"/>
      </g>
     </g>
     <g id="text_10">
      <!-- 0 -->
      <g transform="translate(305.444034091 212.050745798)scale(0.12 -0.12)">
       <use xlink:href="#BitstreamVeraSans-Roman-30"/>
      </g>
     </g>
    </g>
   </g>
  </g>
  <g id="axes_5">
   <g id="patch_22">
    <path d="
M72 388.8
L274.909 388.8
L274.909 287.153
L72 287.153
z
" style="fill:#ffffff;"/>
   </g>
   <g id="line2d_21">
    <path clip-path="url(#p5df05f4a8e)" d="
M72.0406 365.595
L75.9364 363.335
L77.4785 362.18
L78.5337 361.117
L79.2641 360.075
L79.7917 358.925
L80.1164 357.706
L80.2787 356.358
L80.3599 350.454
L80.6033 330.53
L80.7251 327.539
L80.7657 327.961
L81.2527 340.336
L81.5367 341.907
L81.7396 342.098
L81.8208 341.934
L81.8614 341.635
L82.0643 331.35
L82.186 333.856
L82.9165 353.361
L83.2817 355.555
L83.5658 356.147
L83.8093 356.194
L84.1745 355.928
L84.7833 355.275
L84.905 354.775
L84.9456 354.103
L85.2297 335.7
L85.3108 336.51
L85.4326 340.149
L85.7978 355.536
L86.1631 361.845
L86.5283 364.912
L86.9341 366.663
L87.5023 368.078
L90.2618 373.521
L91.3981 375.421
L92.2909 376.504
L93.1025 377.145
L93.8736 377.476
L94.6852 377.579
L95.578 377.463
L96.6332 377.095
L97.9724 376.375
L99.7985 375.119
L103.329 372.354
L107.103 369.511
L110.025 367.595
L113.475 365.621
L117.452 363.312
L118.994 362.15
L120.008 361.124
L120.739 360.085
L121.266 358.941
L121.591 357.737
L121.753 356.448
L121.794 355.389
L122.159 328.164
L122.2 327.563
L122.24 327.835
L122.768 340.641
L123.052 341.986
L123.214 342.102
L123.295 341.957
L123.336 341.709
L123.539 331.33
L123.579 331.718
L123.904 340.679
L124.188 350.845
L124.513 354.281
L124.838 355.787
L125.122 356.195
L125.365 356.158
L125.974 355.647
L126.258 355.288
L126.38 354.821
L126.42 354.291
L126.704 335.703
L126.745 335.879
L126.867 338.221
L127.516 360.143
L127.881 364.071
L128.287 366.22
L128.774 367.624
L129.789 369.655
L132.832 375.354
L133.725 376.458
L134.537 377.116
L135.308 377.463
L136.119 377.579
L137.012 377.474
L138.067 377.115
L139.406 376.404
L141.233 375.154
L144.641 372.487
L148.497 369.572
L151.419 367.648
L154.827 365.691
L158.926 363.316
L160.468 362.155
L161.483 361.131
L162.213 360.095
L162.741 358.958
L163.066 357.767
L163.228 356.529
L163.269 355.66
L163.674 327.606
L163.715 327.731
L164.324 341.176
L164.567 342.045
L164.689 342.106
L164.729 342.066
L164.811 341.765
L165.014 331.325
L165.095 332.426
L165.46 344.66
L165.703 351.381
L166.028 354.512
L166.353 355.874
L166.596 356.193
L166.84 356.162
L167.408 355.688
L167.733 355.301
L167.854 354.862
L167.895 354.421
L168.179 335.717
L168.26 336.318
L168.382 339.552
L168.788 356.224
L169.153 362.174
L169.518 365.077
L169.965 366.875
L170.573 368.302
L173.901 374.717
L174.875 376.095
L175.687 376.887
L176.458 377.345
L177.229 377.554
L178.081 377.549
L179.055 377.31
L180.232 376.781
L181.774 375.826
L184.087 374.101
L190.499 369.209
L193.421 367.332
L197.195 365.204
L200.401 363.32
L201.943 362.16
L202.958 361.138
L203.688 360.105
L204.216 358.974
L204.54 357.796
L204.703 356.602
L204.743 355.86
L205.19 327.649
L205.839 341.373
L206.082 342.086
L206.204 342.075
L206.285 341.811
L206.366 336.26
L206.488 331.335
L206.529 331.552
L206.732 336.938
L206.975 346.275
L207.219 351.858
L207.543 354.725
L207.868 355.95
L208.111 356.205
L208.355 356.141
L209.045 355.542
L209.248 355.219
L209.369 354.519
L209.654 335.742
L209.775 336.945
L209.897 341.479
L210.222 355.099
L210.587 361.637
L210.952 364.808
L211.358 366.606
L211.886 367.956
L213.996 372.142
L215.497 374.904
L216.431 376.183
L217.242 376.944
L218.013 377.376
L218.784 377.563
L219.637 377.539
L220.611 377.283
L221.828 376.717
L223.411 375.718
L225.846 373.882
L231.689 369.409
L234.611 367.507
L238.142 365.496
L241.875 363.324
L243.418 362.165
L244.473 361.096
L245.203 360.044
L245.731 358.875
L246.055 357.61
L246.218 356.015
L246.664 327.59
L246.705 328.444
L247.111 339.661
L247.395 341.709
L247.598 342.109
L247.719 342.009
L247.76 341.848
L247.8 341.072
L247.963 331.359
L248.003 331.485
L248.166 335.605
L248.896 353.853
L249.221 355.615
L249.505 356.162
L249.748 356.187
L250.154 355.876
L250.722 355.234
L250.844 354.598
L250.925 347.958
L251.128 335.779
L251.169 335.751
L251.29 337.741
L251.453 345.914
L251.777 356.877
L252.143 362.487
L252.549 365.444
L252.995 367.074
L253.644 368.521
L257.175 375.209
L258.068 376.356
L258.879 377.054
L259.65 377.432
L260.462 377.577
L261.355 377.496
L262.369 377.174
L263.668 376.512
L265.413 375.345
L268.375 373.049
L272.799 369.67
L274.909 368.245
L274.909 368.245" style="fill:none;stroke:#0000ff;stroke-linecap:square;"/>
   </g>
   <g id="patch_23">
    <path d="
M72 287.153
L274.909 287.153" style="fill:none;stroke:#000000;stroke-linecap:square;stroke-linejoin:miter;"/>
   </g>
   <g id="patch_24">
    <path d="
M274.909 388.8
L274.909 287.153" style="fill:none;stroke:#000000;stroke-linecap:square;stroke-linejoin:miter;"/>
   </g>
   <g id="patch_25">
    <path d="
M72 388.8
L274.909 388.8" style="fill:none;stroke:#000000;stroke-linecap:square;stroke-linejoin:miter;"/>
   </g>
   <g id="patch_26">
    <path d="
M72 388.8
L72 287.153" style="fill:none;stroke:#000000;stroke-linecap:square;stroke-linejoin:miter;"/>
   </g>
   <g id="matplotlib.axis_9">
    <g id="text_11">
     <!-- 1 s -->
     <defs>
      <path d="
M11.7188 12.9844
L28.3281 12.9844
L28.3281 60.1094
L11.2812 56.5938
L11.2812 69.3906
L28.2188 72.9062
L46.0938 72.9062
L46.0938 12.9844
L62.7031 12.9844
L62.7031 0
L11.7188 0
z
" id="BitstreamVeraSans-Bold-31"/>
      <path id="BitstreamVeraSans-Bold-20"/>
     </defs>
     <g transform="translate(163.904232955 402.918125)scale(0.12 -0.12)">
      <use xlink:href="#BitstreamVeraSans-Bold-31"/>
      <use x="69.580078125" xlink:href="#BitstreamVeraSans-Bold-20"/>
      <use x="104.39453125" xlink:href="#BitstreamVeraSans-Bold-73"/>
     </g>
    </g>
   </g>
   <g id="matplotlib.axis_10">
    <g id="ytick_9">
     <g id="line2d_22">
      <g>
       <use style="stroke:#000000;stroke-width:0.5;" x="72.0" xlink:href="#m728421d6d4" y="374.278991597"/>
      </g>
     </g>
     <g id="line2d_23">
      <g>
       <use style="stroke:#000000;stroke-width:0.5;" x="274.909090909" xlink:href="#mcb0005524f" y="374.278991597"/>
      </g>
     </g>
     <g id="text_12">
      <!-- −60 -->
      <g transform="translate(44.7425 377.590241597)scale(0.12 -0.12)">
       <use xlink:href="#BitstreamVeraSans-Roman-2212"/>
       <use x="83.7890625" xlink:href="#BitstreamVeraSans-Roman-36"/>
       <use x="147.412109375" xlink:href="#BitstreamVeraSans-Roman-30"/>
      </g>
     </g>
    </g>
    <g id="ytick_10">
     <g id="line2d_24">
      <g>
       <use style="stroke:#000000;stroke-width:0.5;" x="72.0" xlink:href="#m728421d6d4" y="330.715966387"/>
      </g>
     </g>
     <g id="line2d_25">
      <g>
       <use style="stroke:#000000;stroke-width:0.5;" x="274.909090909" xlink:href="#mcb0005524f" y="330.715966387"/>
      </g>
     </g>
     <g id="text_13">
      <!-- 0 -->
      <g transform="translate(61.953125 334.027216387)scale(0.12 -0.12)">
       <use xlink:href="#BitstreamVeraSans-Roman-30"/>
      </g>
     </g>
    </g>
   </g>
  </g>
  <g id="axes_6">
   <g id="patch_27">
    <path d="
M315.491 388.8
L518.4 388.8
L518.4 287.153
L315.491 287.153
z
" style="fill:#ffffff;"/>
   </g>
   <g id="line2d_26">
    <path clip-path="url(#p8ca55fdb04)" d="
M315.531 365.826
L319.468 363.542
L320.929 362.437
L321.903 361.444
L322.593 360.442
L323.08 359.356
L323.404 358.119
L323.607 356.559
L323.729 353.903
L323.77 350.692
L323.891 298.652
L323.932 302.774
L324.459 372.966
L324.5 372.898
L324.662 370.887
L325.19 359.728
L325.312 355.432
L325.352 348.555
L325.393 295.776
L325.474 298.567
L325.758 330.719
L325.88 344.342
L326.083 381.119
L326.123 381.396
L326.164 381.348
L326.326 379.963
L326.976 371.15
L327.706 362.657
L328.315 356.421
L328.396 353.012
L328.477 297.046
L328.599 305.908
L329.126 379.17
L329.167 379.331
L329.208 379.303
L329.37 378.398
L330.344 371.752
L330.79 370.313
L331.155 369.787
L331.48 369.672
L331.805 369.797
L332.251 370.236
L332.941 371.274
L335.741 375.816
L336.593 376.643
L337.365 377.101
L338.176 377.323
L339.028 377.319
L340.002 377.086
L341.179 376.569
L342.721 375.636
L345.034 373.947
L351.446 369.158
L354.409 367.293
L358.913 364.776
L361.308 363.296
L362.647 362.222
L363.58 361.194
L364.23 360.146
L364.676 358.994
L364.96 357.676
L365.122 356.092
L365.204 354.149
L365.244 351.461
L365.366 298.327
L365.407 301.989
L365.934 372.95
L365.975 372.925
L366.096 371.638
L366.502 363.519
L366.786 355.802
L366.827 350.833
L366.908 296.179
L366.949 298.179
L367.192 325.81
L367.395 356.182
L367.557 381.036
L367.598 381.381
L367.679 381.164
L367.923 378.553
L369.384 360.926
L369.789 356.546
L369.871 353.507
L369.911 343.292
L369.992 297.12
L370.033 300.066
L370.358 346.405
L370.56 378.569
L370.642 379.322
L370.682 379.315
L370.845 378.442
L371.859 371.602
L372.305 370.241
L372.671 369.761
L372.995 369.676
L373.361 369.852
L373.848 370.387
L374.659 371.685
L376.891 375.404
L377.784 376.4
L378.596 376.981
L379.367 377.271
L380.178 377.346
L381.112 377.199
L382.207 376.793
L383.628 376.009
L385.616 374.628
L394.585 368.082
L397.831 366.19
L402.579 363.441
L404 362.339
L404.974 361.307
L405.623 360.315
L406.11 359.147
L406.435 357.714
L406.597 356.178
L406.678 354.368
L406.719 352.063
L406.841 298.085
L406.922 307.41
L407.328 371.347
L407.449 372.946
L407.571 371.725
L407.977 363.646
L408.261 356.127
L408.302 352.231
L408.383 295.99
L408.423 297.819
L408.626 320.277
L408.87 353.51
L409.032 380.94
L409.113 381.385
L409.154 381.202
L409.397 378.628
L410.858 360.975
L411.264 356.664
L411.345 353.917
L411.386 347.032
L411.467 296.876
L411.507 299.514
L411.832 345.144
L412.035 378.446
L412.157 379.325
L412.279 378.765
L413.496 371.011
L413.902 370.036
L414.226 369.716
L414.551 369.692
L414.916 369.916
L415.444 370.549
L416.337 372.036
L418.203 375.175
L419.096 376.241
L419.908 376.885
L420.679 377.228
L421.491 377.347
L422.383 377.25
L423.439 376.904
L424.778 376.211
L426.604 374.99
L430.013 372.381
L433.909 369.498
L436.871 367.589
L440.564 365.502
L443.892 363.554
L445.393 362.417
L446.367 361.416
L447.057 360.4
L447.544 359.289
L447.869 357.993
L448.072 356.26
L448.193 352.552
L448.234 343.322
L448.315 297.935
L448.356 300.626
L448.924 372.962
L448.965 372.747
L449.167 369.729
L449.695 357.981
L449.776 353.199
L449.857 295.827
L449.898 297.489
L450.06 314.305
L450.385 367.746
L450.547 381.33
L450.588 381.397
L450.71 380.578
L451.156 374.819
L452.049 363.593
L452.779 355.848
L452.86 349.216
L452.942 296.686
L452.982 299.012
L453.307 344.044
L453.51 378.311
L453.631 379.332
L453.672 379.232
L453.915 377.586
L454.687 372.214
L455.133 370.546
L455.498 369.882
L455.823 369.678
L456.147 369.738
L456.553 370.073
L457.162 370.911
L458.501 373.268
L459.759 375.279
L460.652 376.314
L461.464 376.93
L462.235 377.249
L463.046 377.348
L463.939 377.233
L465.035 376.853
L466.415 376.117
L468.281 374.847
L472.258 371.79
L475.749 369.252
L478.711 367.375
L482.85 365.058
L485.569 363.421
L486.99 362.313
L487.923 361.322
L488.572 360.336
L489.059 359.183
L489.384 357.787
L489.587 355.698
L489.668 352.958
L489.709 346.315
L489.79 297.891
L489.83 300.046
L490.399 372.973
L490.48 372.409
L490.764 367.388
L491.21 356.682
L491.251 353.925
L491.332 295.693
L491.413 299.868
L491.778 340.682
L492.062 381.404
L492.184 380.633
L492.59 375.472
L493.564 363.255
L494.254 356.003
L494.335 350.626
L494.416 296.564
L494.457 298.557
L494.741 337.759
L495.106 379.337
L495.147 379.252
L495.35 377.955
L496.202 372.044
L496.648 370.459
L497.013 369.845
L497.338 369.674
L497.663 369.757
L498.069 370.112
L498.718 371.033
L501.964 376.148
L502.776 376.827
L503.547 377.199
L504.359 377.345
L505.251 377.27
L506.307 376.942
L507.605 376.29
L509.35 375.145
L512.394 372.832
L516.736 369.59
L518.4 368.478
L518.4 368.478" style="fill:none;stroke:#0000ff;stroke-linecap:square;"/>
   </g>
   <g id="patch_28">
    <path d="
M315.491 287.153
L518.4 287.153" style="fill:none;stroke:#000000;stroke-linecap:square;stroke-linejoin:miter;"/>
   </g>
   <g id="patch_29">
    <path d="
M518.4 388.8
L518.4 287.153" style="fill:none;stroke:#000000;stroke-linecap:square;stroke-linejoin:miter;"/>
   </g>
   <g id="patch_30">
    <path d="
M315.491 388.8
L518.4 388.8" style="fill:none;stroke:#000000;stroke-linecap:square;stroke-linejoin:miter;"/>
   </g>
   <g id="patch_31">
    <path d="
M315.491 388.8
L315.491 287.153" style="fill:none;stroke:#000000;stroke-linecap:square;stroke-linejoin:miter;"/>
   </g>
   <g id="matplotlib.axis_11">
    <g id="text_14">
     <!-- 1 s -->
     <g transform="translate(407.395142045 402.918125)scale(0.12 -0.12)">
      <use xlink:href="#BitstreamVeraSans-Bold-31"/>
      <use x="69.580078125" xlink:href="#BitstreamVeraSans-Bold-20"/>
      <use x="104.39453125" xlink:href="#BitstreamVeraSans-Bold-73"/>
     </g>
    </g>
   </g>
   <g id="matplotlib.axis_12">
    <g id="ytick_11">
     <g id="line2d_27">
      <g>
       <use style="stroke:#000000;stroke-width:0.5;" x="315.490909091" xlink:href="#m728421d6d4" y="374.278991597"/>
      </g>
     </g>
     <g id="line2d_28">
      <g>
       <use style="stroke:#000000;stroke-width:0.5;" x="518.4" xlink:href="#mcb0005524f" y="374.278991597"/>
      </g>
     </g>
     <g id="text_15">
      <!-- −60 -->
      <g transform="translate(288.233409091 377.590241597)scale(0.12 -0.12)">
       <use xlink:href="#BitstreamVeraSans-Roman-2212"/>
       <use x="83.7890625" xlink:href="#BitstreamVeraSans-Roman-36"/>
       <use x="147.412109375" xlink:href="#BitstreamVeraSans-Roman-30"/>
      </g>
     </g>
    </g>
    <g id="ytick_12">
     <g id="line2d_29">
      <g>
       <use style="stroke:#000000;stroke-width:0.5;" x="315.490909091" xlink:href="#m728421d6d4" y="330.715966387"/>
      </g>
     </g>
     <g id="line2d_30">
      <g>
       <use style="stroke:#000000;stroke-width:0.5;" x="518.4" xlink:href="#mcb0005524f" y="330.715966387"/>
      </g>
     </g>
     <g id="text_16">
      <!-- 0 -->
      <g transform="translate(305.444034091 334.027216387)scale(0.12 -0.12)">
       <use xlink:href="#BitstreamVeraSans-Roman-30"/>
      </g>
     </g>
    </g>
   </g>
  </g>
 </g>
 <defs>
  <clipPath id="pf4132cbc21">
   <rect height="101.647058824" width="202.909090909" x="315.490909091" y="165.176470588"/>
  </clipPath>
  <clipPath id="p5df05f4a8e">
   <rect height="101.647058824" width="202.909090909" x="72.0" y="287.152941176"/>
  </clipPath>
  <clipPath id="pdf2bc2c95a">
   <rect height="101.647058824" width="202.909090909" x="72.0" y="43.2"/>
  </clipPath>
  <clipPath id="pbd5a3a9a46">
   <rect height="101.647058824" width="202.909090909" x="315.490909091" y="43.2"/>
  </clipPath>
  <clipPath id="p68273c1835">
   <rect height="101.647058824" width="202.909090909" x="72.0" y="165.176470588"/>
  </clipPath>
  <clipPath id="p8ca55fdb04">
   <rect height="101.647058824" width="202.909090909" x="315.490909091" y="287.152941176"/>
  </clipPath>
 </defs>
</svg>
