<?xml version="1.0" encoding="utf-8" standalone="no"?>
<!DOCTYPE svg PUBLIC "-//W3C//DTD SVG 1.1//EN"
  "http://www.w3.org/Graphics/SVG/1.1/DTD/svg11.dtd">
<!-- Created with matplotlib (http://matplotlib.org/) -->
<svg height="432pt" version="1.1" viewBox="0 0 576 432" width="576pt" xmlns="http://www.w3.org/2000/svg" xmlns:xlink="http://www.w3.org/1999/xlink">
 <defs>
  <style type="text/css">
*{stroke-linecap:butt;stroke-linejoin:round;}
  </style>
 </defs>
 <g id="figure_1">
  <g id="patch_1">
   <path d="
M0 432
L576 432
L576 0
L0 0
z
" style="fill:#ffffff;"/>
  </g>
  <g id="axes_1">
   <g id="patch_2">
    <path d="
M72 144.847
L274.909 144.847
L274.909 43.2
L72 43.2
z
" style="fill:#ffffff;"/>
   </g>
   <g id="line2d_1">
    <path clip-path="url(#pdf2bc2c95a)" d="
M72 126.696
L77.6409 125.803
L83.7281 125.077
L90.83 124.461
L99.4333 123.946
L110.269 123.531
L124.959 123.203
L147.604 122.944
L193.299 122.686
L274.869 122.411
L274.869 122.411" style="fill:none;stroke:#0000ff;stroke-linecap:square;"/>
   </g>
   <g id="patch_3">
    <path d="
M72 43.2
L274.909 43.2" style="fill:none;stroke:#000000;stroke-linecap:square;stroke-linejoin:miter;"/>
   </g>
   <g id="patch_4">
    <path d="
M274.909 144.847
L274.909 43.2" style="fill:none;stroke:#000000;stroke-linecap:square;stroke-linejoin:miter;"/>
   </g>
   <g id="patch_5">
    <path d="
M72 144.847
L274.909 144.847" style="fill:none;stroke:#000000;stroke-linecap:square;stroke-linejoin:miter;"/>
   </g>
   <g id="patch_6">
    <path d="
M72 144.847
L72 43.2" style="fill:none;stroke:#000000;stroke-linecap:square;stroke-linejoin:miter;"/>
   </g>
   <g id="matplotlib.axis_1"/>
   <g id="matplotlib.axis_2">
    <g id="ytick_1">
     <g id="line2d_2">
      <defs>
       <path d="
M0 0
L4 0" id="m728421d6d4" style="stroke:#000000;stroke-width:0.5;"/>
      </defs>
      <g>
       <use style="stroke:#000000;stroke-width:0.5;" x="72.0" xlink:href="#m728421d6d4" y="130.32605042"/>
      </g>
     </g>
     <g id="line2d_3">
      <defs>
       <path d="
M0 0
L-4 0" id="mcb0005524f" style="stroke:#000000;stroke-width:0.5;"/>
      </defs>
      <g>
       <use style="stroke:#000000;stroke-width:0.5;" x="274.909090909" xlink:href="#mcb0005524f" y="130.32605042"/>
      </g>
     </g>
     <g id="text_1">
      <!-- −60 -->
      <defs>
       <path d="
M10.5938 35.5
L73.1875 35.5
L73.1875 27.2031
L10.5938 27.2031
z
" id="BitstreamVeraSans-Roman-2212"/>
       <path d="
M31.7812 66.4062
Q24.1719 66.4062 20.3281 58.9062
Q16.5 51.4219 16.5 36.375
Q16.5 21.3906 20.3281 13.8906
Q24.1719 6.39062 31.7812 6.39062
Q39.4531 6.39062 43.2812 13.8906
Q47.125 21.3906 47.125 36.375
Q47.125 51.4219 43.2812 58.9062
Q39.4531 66.4062 31.7812 66.4062
M31.7812 74.2188
Q44.0469 74.2188 50.5156 64.5156
Q56.9844 54.8281 56.9844 36.375
Q56.9844 17.9688 50.5156 8.26562
Q44.0469 -1.42188 31.7812 -1.42188
Q19.5312 -1.42188 13.0625 8.26562
Q6.59375 17.9688 6.59375 36.375
Q6.59375 54.8281 13.0625 64.5156
Q19.5312 74.2188 31.7812 74.2188" id="BitstreamVeraSans-Roman-30"/>
       <path d="
M33.0156 40.375
Q26.375 40.375 22.4844 35.8281
Q18.6094 31.2969 18.6094 23.3906
Q18.6094 15.5312 22.4844 10.9531
Q26.375 6.39062 33.0156 6.39062
Q39.6562 6.39062 43.5312 10.9531
Q47.4062 15.5312 47.4062 23.3906
Q47.4062 31.2969 43.5312 35.8281
Q39.6562 40.375 33.0156 40.375
M52.5938 71.2969
L52.5938 62.3125
Q48.875 64.0625 45.0938 64.9844
Q41.3125 65.9219 37.5938 65.9219
Q27.8281 65.9219 22.6719 59.3281
Q17.5312 52.7344 16.7969 39.4062
Q19.6719 43.6562 24.0156 45.9219
Q28.375 48.1875 33.5938 48.1875
Q44.5781 48.1875 50.9531 41.5156
Q57.3281 34.8594 57.3281 23.3906
Q57.3281 12.1562 50.6875 5.35938
Q44.0469 -1.42188 33.0156 -1.42188
Q20.3594 -1.42188 13.6719 8.26562
Q6.98438 17.9688 6.98438 36.375
Q6.98438 53.6562 15.1875 63.9375
Q23.3906 74.2188 37.2031 74.2188
Q40.9219 74.2188 44.7031 73.4844
Q48.4844 72.75 52.5938 71.2969" id="BitstreamVeraSans-Roman-36"/>
      </defs>
      <g transform="translate(44.7425 133.63730042)scale(0.12 -0.12)">
       <use xlink:href="#BitstreamVeraSans-Roman-2212"/>
       <use x="83.7890625" xlink:href="#BitstreamVeraSans-Roman-36"/>
       <use x="147.412109375" xlink:href="#BitstreamVeraSans-Roman-30"/>
      </g>
     </g>
    </g>
    <g id="ytick_2">
     <g id="line2d_4">
      <g>
       <use style="stroke:#000000;stroke-width:0.5;" x="72.0" xlink:href="#m728421d6d4" y="86.7630252101"/>
      </g>
     </g>
     <g id="line2d_5">
      <g>
       <use style="stroke:#000000;stroke-width:0.5;" x="274.909090909" xlink:href="#mcb0005524f" y="86.7630252101"/>
      </g>
     </g>
     <g id="text_2">
      <!-- 0 -->
      <g transform="translate(61.953125 90.0742752101)scale(0.12 -0.12)">
       <use xlink:href="#BitstreamVeraSans-Roman-30"/>
      </g>
     </g>
    </g>
   </g>
   <g id="text_3">
    <!-- soma -->
    <defs>
     <path d="
M51.125 52.9844
L51.125 39.7031
Q45.5156 42.0469 40.2812 43.2188
Q35.0625 44.3906 30.4219 44.3906
Q25.4375 44.3906 23.0156 43.1406
Q20.6094 41.8906 20.6094 39.3125
Q20.6094 37.2031 22.4375 36.0781
Q24.2656 34.9688 29 34.4219
L32.0781 33.9844
Q45.5156 32.2812 50.1406 28.375
Q54.7812 24.4688 54.7812 16.1094
Q54.7812 7.375 48.3281 2.96875
Q41.8906 -1.42188 29.1094 -1.42188
Q23.6875 -1.42188 17.8906 -0.5625
Q12.1094 0.296875 6 2
L6 15.2812
Q11.2344 12.75 16.7188 11.4688
Q22.2188 10.2031 27.875 10.2031
Q33.0156 10.2031 35.5938 11.6094
Q38.1875 13.0312 38.1875 15.8281
Q38.1875 18.1719 36.4062 19.3125
Q34.625 20.4531 29.2969 21.0938
L26.2188 21.4844
Q14.5469 22.9531 9.85938 26.9062
Q5.17188 30.8594 5.17188 38.9219
Q5.17188 47.6094 11.125 51.7969
Q17.0938 56 29.3906 56
Q34.2344 56 39.5469 55.2656
Q44.875 54.5469 51.125 52.9844" id="BitstreamVeraSans-Bold-73"/>
     <path d="
M32.9062 24.6094
Q27.4375 24.6094 24.6719 22.75
Q21.9219 20.9062 21.9219 17.2812
Q21.9219 13.9688 24.1406 12.0781
Q26.375 10.2031 30.3281 10.2031
Q35.25 10.2031 38.625 13.7344
Q42 17.2812 42 22.6094
L42 24.6094
z

M59.625 31.2031
L59.625 0
L42 0
L42 8.10938
Q38.4844 3.125 34.0781 0.84375
Q29.6875 -1.42188 23.3906 -1.42188
Q14.8906 -1.42188 9.59375 3.53125
Q4.29688 8.5 4.29688 16.4062
Q4.29688 26.0312 10.9062 30.5156
Q17.5312 35.0156 31.6875 35.0156
L42 35.0156
L42 36.375
Q42 40.5312 38.7188 42.4531
Q35.4531 44.3906 28.5156 44.3906
Q22.9062 44.3906 18.0625 43.2656
Q13.2344 42.1406 9.07812 39.8906
L9.07812 53.2188
Q14.7031 54.5938 20.3594 55.2969
Q26.0312 56 31.6875 56
Q46.4844 56 53.0469 50.1719
Q59.625 44.3438 59.625 31.2031" id="BitstreamVeraSans-Bold-61"/>
     <path d="
M34.4219 43.5
Q28.6094 43.5 25.5625 39.3281
Q22.5156 35.1562 22.5156 27.2969
Q22.5156 19.4375 25.5625 15.25
Q28.6094 11.0781 34.4219 11.0781
Q40.1406 11.0781 43.1562 15.25
Q46.1875 19.4375 46.1875 27.2969
Q46.1875 35.1562 43.1562 39.3281
Q40.1406 43.5 34.4219 43.5
M34.4219 56
Q48.5312 56 56.4688 48.375
Q64.4062 40.7656 64.4062 27.2969
Q64.4062 13.8125 56.4688 6.1875
Q48.5312 -1.42188 34.4219 -1.42188
Q20.2656 -1.42188 12.2812 6.1875
Q4.29688 13.8125 4.29688 27.2969
Q4.29688 40.7656 12.2812 48.375
Q20.2656 56 34.4219 56" id="BitstreamVeraSans-Bold-6f"/>
     <path d="
M59.0781 45.6094
Q62.4062 50.6875 66.9688 53.3438
Q71.5312 56 77 56
Q86.4219 56 91.3594 50.1875
Q96.2969 44.3906 96.2969 33.2969
L96.2969 0
L78.7188 0
L78.7188 28.5156
Q78.7656 29.1562 78.7812 29.8281
Q78.8125 30.5156 78.8125 31.7812
Q78.8125 37.5938 77.0938 40.2031
Q75.3906 42.8281 71.5781 42.8281
Q66.6094 42.8281 63.8906 38.7188
Q61.1875 34.625 61.0781 26.8594
L61.0781 0
L43.5 0
L43.5 28.5156
Q43.5 37.5938 41.9375 40.2031
Q40.375 42.8281 36.375 42.8281
Q31.3438 42.8281 28.6094 38.7031
Q25.875 34.5781 25.875 26.9062
L25.875 0
L8.29688 0
L8.29688 54.6875
L25.875 54.6875
L25.875 46.6875
Q29.1094 51.3125 33.2812 53.6562
Q37.4531 56 42.4844 56
Q48.1406 56 52.4844 53.2656
Q56.8438 50.5312 59.0781 45.6094" id="BitstreamVeraSans-Bold-6d"/>
    </defs>
    <g transform="translate(152.799545455 38.2)scale(0.144 -0.144)">
     <use xlink:href="#BitstreamVeraSans-Bold-73"/>
     <use x="59.521484375" xlink:href="#BitstreamVeraSans-Bold-6f"/>
     <use x="128.22265625" xlink:href="#BitstreamVeraSans-Bold-6d"/>
     <use x="232.421875" xlink:href="#BitstreamVeraSans-Bold-61"/>
    </g>
   </g>
  </g>
  <g id="axes_2">
   <g id="patch_7">
    <path d="
M315.491 144.847
L518.4 144.847
L518.4 43.2
L315.491 43.2
z
" style="fill:#ffffff;"/>
   </g>
   <g id="line2d_6">
    <path clip-path="url(#pbd5a3a9a46)" d="
M315.491 126.696
L320.401 125.904
L326.367 125.165
L333.347 124.533
L341.707 124.007
L352.217 123.579
L366.299 123.242
L387.524 122.978
L428.511 122.731
L518.359 122.424
L518.359 122.424" style="fill:none;stroke:#0000ff;stroke-linecap:square;"/>
   </g>
   <g id="patch_8">
    <path d="
M315.491 43.2
L518.4 43.2" style="fill:none;stroke:#000000;stroke-linecap:square;stroke-linejoin:miter;"/>
   </g>
   <g id="patch_9">
    <path d="
M518.4 144.847
L518.4 43.2" style="fill:none;stroke:#000000;stroke-linecap:square;stroke-linejoin:miter;"/>
   </g>
   <g id="patch_10">
    <path d="
M315.491 144.847
L518.4 144.847" style="fill:none;stroke:#000000;stroke-linecap:square;stroke-linejoin:miter;"/>
   </g>
   <g id="patch_11">
    <path d="
M315.491 144.847
L315.491 43.2" style="fill:none;stroke:#000000;stroke-linecap:square;stroke-linejoin:miter;"/>
   </g>
   <g id="matplotlib.axis_3"/>
   <g id="matplotlib.axis_4">
    <g id="ytick_3">
     <g id="line2d_7">
      <g>
       <use style="stroke:#000000;stroke-width:0.5;" x="315.490909091" xlink:href="#m728421d6d4" y="130.32605042"/>
      </g>
     </g>
     <g id="line2d_8">
      <g>
       <use style="stroke:#000000;stroke-width:0.5;" x="518.4" xlink:href="#mcb0005524f" y="130.32605042"/>
      </g>
     </g>
     <g id="text_4">
      <!-- −60 -->
      <g transform="translate(288.233409091 133.63730042)scale(0.12 -0.12)">
       <use xlink:href="#BitstreamVeraSans-Roman-2212"/>
       <use x="83.7890625" xlink:href="#BitstreamVeraSans-Roman-36"/>
       <use x="147.412109375" xlink:href="#BitstreamVeraSans-Roman-30"/>
      </g>
     </g>
    </g>
    <g id="ytick_4">
     <g id="line2d_9">
      <g>
       <use style="stroke:#000000;stroke-width:0.5;" x="315.490909091" xlink:href="#m728421d6d4" y="86.7630252101"/>
      </g>
     </g>
     <g id="line2d_10">
      <g>
       <use style="stroke:#000000;stroke-width:0.5;" x="518.4" xlink:href="#mcb0005524f" y="86.7630252101"/>
      </g>
     </g>
     <g id="text_5">
      <!-- 0 -->
      <g transform="translate(305.444034091 90.0742752101)scale(0.12 -0.12)">
       <use xlink:href="#BitstreamVeraSans-Roman-30"/>
      </g>
     </g>
    </g>
   </g>
   <g id="text_6">
    <!-- axon -->
    <defs>
     <path d="
M22.2188 27.9844
L2.48438 54.6875
L21 54.6875
L32.1719 38.4844
L43.5 54.6875
L62.0156 54.6875
L42.2812 28.0781
L62.9844 0
L44.4844 0
L32.1719 17.2812
L20.0156 0
L1.51562 0
z
" id="BitstreamVeraSans-Bold-78"/>
     <path d="
M63.375 33.2969
L63.375 0
L45.7969 0
L45.7969 5.42188
L45.7969 25.4844
Q45.7969 32.5625 45.4844 35.25
Q45.1719 37.9375 44.3906 39.2031
Q43.3594 40.9219 41.5938 41.875
Q39.8438 42.8281 37.5938 42.8281
Q32.125 42.8281 29 38.5938
Q25.875 34.375 25.875 26.9062
L25.875 0
L8.40625 0
L8.40625 54.6875
L25.875 54.6875
L25.875 46.6875
Q29.8281 51.4688 34.2656 53.7344
Q38.7188 56 44.0938 56
Q53.5625 56 58.4688 50.1875
Q63.375 44.3906 63.375 33.2969" id="BitstreamVeraSans-Bold-6e"/>
    </defs>
    <g transform="translate(398.242329545 38.2)scale(0.144 -0.144)">
     <use xlink:href="#BitstreamVeraSans-Bold-61"/>
     <use x="67.48046875" xlink:href="#BitstreamVeraSans-Bold-78"/>
     <use x="131.982421875" xlink:href="#BitstreamVeraSans-Bold-6f"/>
     <use x="200.68359375" xlink:href="#BitstreamVeraSans-Bold-6e"/>
    </g>
   </g>
  </g>
  <g id="axes_3">
   <g id="patch_12">
    <path d="
M72 266.824
L274.909 266.824
L274.909 165.176
L72 165.176
z
" style="fill:#ffffff;"/>
   </g>
   <g id="line2d_11">
    <path clip-path="url(#p68273c1835)" d="
M72.0406 250.526
L78.2902 246.737
L81.5773 245.065
L89.856 241.027
L91.114 240.07
L92.0068 239.12
L92.6156 238.157
L93.0214 237.118
L93.2649 235.905
L93.346 234.736
L93.7519 205.869
L93.7924 206.004
L94.32 220.836
L94.6447 223.228
L94.8881 223.765
L95.0099 223.664
L95.0911 223.318
L95.1316 222.151
L95.3345 209.936
L95.4157 210.899
L95.6998 219.598
L95.9433 229.718
L96.2679 234.279
L96.5926 236.391
L96.8361 236.935
L96.9984 236.953
L97.2013 236.717
L97.6477 235.734
L98.297 233.901
L98.3782 233.259
L98.4593 226.03
L98.6623 211.643
L98.7434 211.156
L98.784 211.5
L98.9057 214.985
L99.2304 228.954
L99.6768 237.225
L100.083 241.108
L100.488 242.952
L100.975 244.093
L102.071 245.843
L105.642 251.328
L106.616 252.3
L107.509 252.9
L108.402 253.24
L109.335 253.356
L110.35 253.257
L111.567 252.906
L113.109 252.212
L115.301 250.955
L123.255 246.191
L126.704 244.514
L132.994 241.518
L134.537 240.496
L135.592 239.534
L136.322 238.567
L136.809 237.56
L137.134 236.34
L137.256 235.278
L137.337 228.478
L137.58 208.647
L137.702 205.787
L137.743 206.454
L138.148 219.5
L138.473 222.705
L138.757 223.73
L138.879 223.772
L139.001 223.49
L139.041 223.168
L139.285 209.971
L139.325 210.423
L139.609 218.249
L139.934 230.806
L140.299 235.111
L140.624 236.697
L140.867 236.974
L141.03 236.87
L141.314 236.367
L142.166 234.19
L142.288 233.53
L142.328 232.978
L142.653 211.11
L142.734 211.71
L142.815 213.672
L143.181 229.337
L143.627 237.435
L144.033 241.209
L144.439 243.003
L144.926 244.124
L146.102 246
L149.471 251.206
L150.485 252.248
L151.419 252.89
L152.311 253.237
L153.245 253.358
L154.259 253.264
L155.477 252.917
L157.019 252.225
L159.21 250.97
L167.246 246.158
L170.695 244.483
L176.863 241.548
L178.406 240.534
L179.461 239.587
L180.191 238.645
L180.678 237.685
L181.003 236.589
L181.165 235.381
L181.206 234.231
L181.53 207.451
L181.611 205.802
L181.652 206.25
L182.098 219.989
L182.423 222.914
L182.667 223.737
L182.788 223.793
L182.829 223.755
L182.91 223.542
L182.951 223.276
L183.194 209.953
L183.275 211.092
L183.559 220.127
L183.803 229.893
L184.128 234.359
L184.452 236.423
L184.696 236.944
L184.858 236.95
L185.102 236.633
L185.71 235.224
L186.157 233.862
L186.238 233.144
L186.562 211.129
L186.644 211.602
L186.725 213.351
L187.171 231
L187.618 238.335
L188.023 241.638
L188.429 243.218
L188.957 244.325
L192.285 249.701
L193.502 251.343
L194.476 252.313
L195.369 252.91
L196.262 253.248
L197.195 253.361
L198.209 253.26
L199.427 252.906
L200.969 252.209
L203.16 250.949
L211.074 246.202
L214.523 244.52
L220.814 241.52
L222.356 240.496
L223.411 239.534
L224.141 238.565
L224.628 237.555
L224.953 236.327
L225.075 235.234
L225.156 228.096
L225.399 208.537
L225.521 205.795
L225.562 206.558
L225.967 219.564
L226.292 222.749
L226.576 223.766
L226.698 223.804
L226.82 223.517
L226.86 223.188
L227.104 209.989
L227.225 212.382
L227.51 223.233
L227.753 230.825
L228.118 235.12
L228.443 236.701
L228.686 236.975
L228.889 236.818
L229.255 236.087
L230.026 234.023
L230.147 232.972
L230.472 211.115
L230.553 211.721
L230.634 213.693
L231 229.35
L231.446 237.443
L231.852 241.216
L232.258 243.008
L232.745 244.129
L233.921 246.004
L237.29 251.212
L238.304 252.255
L239.238 252.896
L240.13 253.242
L241.064 253.363
L242.078 253.268
L243.296 252.92
L244.838 252.227
L247.029 250.969
L255.065 246.151
L258.514 244.474
L264.642 241.554
L266.184 240.541
L267.239 239.595
L267.97 238.656
L268.457 237.701
L268.781 236.617
L268.944 235.453
L268.984 234.53
L269.349 206.467
L269.39 205.833
L269.431 206.124
L269.918 220.466
L270.242 223.124
L270.486 223.81
L270.607 223.796
L270.729 223.372
L270.77 222.115
L270.973 209.965
L271.054 210.941
L271.338 219.682
L271.581 229.751
L271.906 234.295
L272.231 236.398
L272.474 236.939
L272.637 236.956
L272.839 236.719
L273.286 235.735
L273.935 233.904
L274.016 233.264
L274.097 226.028
L274.3 211.652
L274.382 211.167
L274.422 211.512
L274.544 215
L274.869 228.965
L274.869 228.965" style="fill:none;stroke:#0000ff;stroke-linecap:square;"/>
   </g>
   <g id="patch_13">
    <path d="
M72 165.176
L274.909 165.176" style="fill:none;stroke:#000000;stroke-linecap:square;stroke-linejoin:miter;"/>
   </g>
   <g id="patch_14">
    <path d="
M274.909 266.824
L274.909 165.176" style="fill:none;stroke:#000000;stroke-linecap:square;stroke-linejoin:miter;"/>
   </g>
   <g id="patch_15">
    <path d="
M72 266.824
L274.909 266.824" style="fill:none;stroke:#000000;stroke-linecap:square;stroke-linejoin:miter;"/>
   </g>
   <g id="patch_16">
    <path d="
M72 266.824
L72 165.176" style="fill:none;stroke:#000000;stroke-linecap:square;stroke-linejoin:miter;"/>
   </g>
   <g id="matplotlib.axis_5"/>
   <g id="matplotlib.axis_6">
    <g id="ytick_5">
     <g id="line2d_12">
      <g>
       <use style="stroke:#000000;stroke-width:0.5;" x="72.0" xlink:href="#m728421d6d4" y="252.302521008"/>
      </g>
     </g>
     <g id="line2d_13">
      <g>
       <use style="stroke:#000000;stroke-width:0.5;" x="274.909090909" xlink:href="#mcb0005524f" y="252.302521008"/>
      </g>
     </g>
     <g id="text_7">
      <!-- −60 -->
      <g transform="translate(44.7425 255.613771008)scale(0.12 -0.12)">
       <use xlink:href="#BitstreamVeraSans-Roman-2212"/>
       <use x="83.7890625" xlink:href="#BitstreamVeraSans-Roman-36"/>
       <use x="147.412109375" xlink:href="#BitstreamVeraSans-Roman-30"/>
      </g>
     </g>
    </g>
    <g id="ytick_6">
     <g id="line2d_14">
      <g>
       <use style="stroke:#000000;stroke-width:0.5;" x="72.0" xlink:href="#m728421d6d4" y="208.739495798"/>
      </g>
     </g>
     <g id="line2d_15">
      <g>
       <use style="stroke:#000000;stroke-width:0.5;" x="274.909090909" xlink:href="#mcb0005524f" y="208.739495798"/>
      </g>
     </g>
     <g id="text_8">
      <!-- 0 -->
      <g transform="translate(61.953125 212.050745798)scale(0.12 -0.12)">
       <use xlink:href="#BitstreamVeraSans-Roman-30"/>
      </g>
     </g>
    </g>
   </g>
  </g>
  <g id="axes_4">
   <g id="patch_17">
    <path d="
M315.491 266.824
L518.4 266.824
L518.4 165.176
L315.491 165.176
z
" style="fill:#ffffff;"/>
   </g>
   <g id="line2d_16">
    <path clip-path="url(#pf4132cbc21)" d="
M315.531 250.662
L322.836 246.356
L326.326 244.657
L332.414 241.748
L333.915 240.75
L334.93 239.823
L335.619 238.911
L336.106 237.917
L336.431 236.787
L336.634 235.393
L336.756 233.238
L336.796 231.169
L336.918 175.058
L336.999 184.28
L337.486 255.201
L337.567 254.807
L337.811 250.957
L338.541 235.069
L338.582 232.159
L338.663 173.459
L338.704 174.847
L338.866 190.643
L339.191 245.972
L339.353 261.361
L339.394 261.319
L339.556 260.093
L340.083 253.67
L341.017 242.55
L341.788 234.764
L341.869 229.715
L341.95 173.882
L341.991 175.754
L342.194 204.192
L342.356 227.091
L342.518 258.583
L342.6 259.212
L342.64 259.08
L342.884 256.883
L343.695 249.346
L344.142 247.088
L344.547 246.052
L344.913 245.683
L345.237 245.653
L345.643 245.875
L346.211 246.482
L347.266 248.013
L349.174 250.764
L350.229 251.897
L351.162 252.592
L352.055 252.991
L352.989 253.165
L354.003 253.122
L355.18 252.838
L356.641 252.242
L358.629 251.171
L368.734 245.377
L377.378 241.097
L378.555 240.141
L379.367 239.196
L379.935 238.177
L380.3 237.072
L380.544 235.624
L380.665 233.893
L380.746 229.2
L380.828 174.499
L380.909 180.542
L381.436 255.217
L381.558 254.128
L381.964 246.531
L382.491 234.253
L382.532 228.87
L382.573 173.344
L382.654 175.696
L382.857 197.883
L383.1 233.136
L383.263 261.236
L383.303 261.377
L383.344 261.256
L383.547 259.521
L384.155 251.83
L384.967 242.405
L385.738 234.327
L385.779 232.499
L385.819 223.951
L385.86 174.203
L385.941 176.978
L386.266 220.926
L386.469 258.875
L386.509 259.2
L386.59 258.999
L386.874 256.286
L387.605 249.521
L388.051 247.185
L388.457 246.099
L388.822 245.699
L389.147 245.651
L389.512 245.827
L390.04 246.353
L390.973 247.666
L393.205 250.885
L394.26 251.986
L395.194 252.65
L396.086 253.023
L397.02 253.173
L398.034 253.109
L399.211 252.807
L400.713 252.176
L402.782 251.042
L412.035 245.682
L416.174 243.76
L419.867 241.976
L421.531 240.93
L422.627 239.987
L423.357 239.088
L423.885 238.098
L424.25 236.93
L424.494 235.287
L424.615 232.878
L424.656 230.163
L424.737 174.69
L424.818 179.61
L425.346 255.235
L425.386 255.085
L425.549 252.997
L426.239 239.215
L426.401 234.685
L426.442 230.904
L426.523 173.648
L426.563 175.254
L426.726 191.687
L427.01 228.996
L427.172 261.161
L427.213 261.381
L427.253 261.295
L427.456 259.607
L428.065 251.939
L428.877 242.482
L429.648 234.565
L429.729 227.842
L429.81 174.096
L429.85 176.31
L430.175 219.613
L430.419 259.177
L430.459 259.215
L430.581 258.445
L431.839 247.73
L432.245 246.364
L432.61 245.796
L432.935 245.646
L433.3 245.745
L433.787 246.16
L434.558 247.169
L437.561 251.39
L438.535 252.278
L439.468 252.832
L440.361 253.11
L441.335 253.176
L442.431 253.013
L443.729 252.583
L445.393 251.785
L447.991 250.258
L453.875 246.753
L457.243 245.056
L464.71 241.422
L466.049 240.439
L466.942 239.52
L467.551 238.596
L467.997 237.508
L468.281 236.23
L468.444 234.624
L468.525 232.464
L468.566 228.69
L468.647 174.481
L468.687 176.328
L468.971 218.885
L469.255 255.236
L469.377 254.112
L469.783 246.502
L470.311 234.206
L470.351 228.585
L470.392 173.304
L470.473 175.741
L470.676 197.986
L470.919 233.659
L471.082 261.253
L471.122 261.384
L471.163 261.259
L471.406 259.08
L472.177 249.169
L472.908 241.31
L473.517 235.322
L473.598 232.479
L473.638 223.706
L473.679 174.158
L473.76 177.006
L474.085 220.98
L474.288 258.896
L474.328 259.216
L474.409 259.011
L474.693 256.297
L475.424 249.532
L475.87 247.195
L476.276 246.107
L476.641 245.706
L476.966 245.657
L477.331 245.833
L477.859 246.358
L478.792 247.671
L481.065 250.941
L482.12 252.028
L483.053 252.679
L483.946 253.04
L484.879 253.18
L485.894 253.106
L487.111 252.782
L488.613 252.138
L490.723 250.969
L499.529 245.836
L503.425 244.006
L507.646 241.983
L509.31 240.937
L510.405 239.996
L511.136 239.099
L511.663 238.114
L512.029 236.955
L512.272 235.346
L512.394 233.072
L512.434 230.721
L512.516 175.062
L512.637 185.164
L513.084 254.996
L513.124 255.256
L513.165 255.14
L513.327 253.105
L513.977 240.188
L514.179 235.029
L514.22 232.042
L514.301 173.477
L514.342 174.889
L514.504 190.768
L514.829 246.461
L514.991 261.38
L515.072 261.121
L515.356 258.34
L517.142 238.383
L517.385 235.625
L517.467 233.389
L517.507 229.716
L517.588 173.879
L517.629 175.753
L517.832 204.184
L517.994 227.095
L518.157 258.618
L518.238 259.24
L518.278 259.107
L518.359 258.524
L518.359 258.524" style="fill:none;stroke:#0000ff;stroke-linecap:square;"/>
   </g>
   <g id="patch_18">
    <path d="
M315.491 165.176
L518.4 165.176" style="fill:none;stroke:#000000;stroke-linecap:square;stroke-linejoin:miter;"/>
   </g>
   <g id="patch_19">
    <path d="
M518.4 266.824
L518.4 165.176" style="fill:none;stroke:#000000;stroke-linecap:square;stroke-linejoin:miter;"/>
   </g>
   <g id="patch_20">
    <path d="
M315.491 266.824
L518.4 266.824" style="fill:none;stroke:#000000;stroke-linecap:square;stroke-linejoin:miter;"/>
   </g>
   <g id="patch_21">
    <path d="
M315.491 266.824
L315.491 165.176" style="fill:none;stroke:#000000;stroke-linecap:square;stroke-linejoin:miter;"/>
   </g>
   <g id="matplotlib.axis_7"/>
   <g id="matplotlib.axis_8">
    <g id="ytick_7">
     <g id="line2d_17">
      <g>
       <use style="stroke:#000000;stroke-width:0.5;" x="315.490909091" xlink:href="#m728421d6d4" y="252.302521008"/>
      </g>
     </g>
     <g id="line2d_18">
      <g>
       <use style="stroke:#000000;stroke-width:0.5;" x="518.4" xlink:href="#mcb0005524f" y="252.302521008"/>
      </g>
     </g>
     <g id="text_9">
      <!-- −60 -->
      <g transform="translate(288.233409091 255.613771008)scale(0.12 -0.12)">
       <use xlink:href="#BitstreamVeraSans-Roman-2212"/>
       <use x="83.7890625" xlink:href="#BitstreamVeraSans-Roman-36"/>
       <use x="147.412109375" xlink:href="#BitstreamVeraSans-Roman-30"/>
      </g>
     </g>
    </g>
    <g id="ytick_8">
     <g id="line2d_19">
      <g>
       <use style="stroke:#000000;stroke-width:0.5;" x="315.490909091" xlink:href="#m728421d6d4" y="208.739495798"/>
      </g>
     </g>
     <g id="line2d_20">
      <g>
       <use style="stroke:#000000;stroke-width:0.5;" x="518.4" xlink:href="#mcb0005524f" y="208.739495798"/>
      </g>
     </g>
     <g id="text_10">
      <!-- 0 -->
      <g transform="translate(305.444034091 212.050745798)scale(0.12 -0.12)">
       <use xlink:href="#BitstreamVeraSans-Roman-30"/>
      </g>
     </g>
    </g>
   </g>
  </g>
  <g id="axes_5">
   <g id="patch_22">
    <path d="
M72 388.8
L274.909 388.8
L274.909 287.153
L72 287.153
z
" style="fill:#ffffff;"/>
   </g>
   <g id="line2d_21">
    <path clip-path="url(#p5df05f4a8e)" d="
M72.0406 375.351
L72.9334 375.47
L73.9479 375.373
L75.1248 375.029
L76.6263 374.338
L78.7366 373.093
L87.1776 367.867
L90.7082 366.107
L95.6592 363.646
L97.2419 362.598
L98.297 361.649
L99.0275 360.711
L99.5551 359.659
L99.8797 358.49
L100.001 357.563
L100.042 356.755
L100.407 328.56
L100.448 327.92
L100.488 328.186
L100.975 342.989
L101.3 345.818
L101.584 346.692
L101.706 346.68
L101.828 346.327
L101.868 345.93
L102.112 332.329
L102.233 334.709
L102.518 345.801
L102.761 353.007
L103.126 357.187
L103.451 358.721
L103.654 358.975
L103.816 358.911
L104.1 358.449
L104.952 356.372
L105.115 355.612
L105.155 355.136
L105.48 333.236
L105.521 333.346
L105.642 335.59
L106.048 352.254
L106.495 359.965
L106.9 363.512
L107.306 365.204
L107.793 366.283
L109.335 368.748
L111.973 372.933
L113.028 374.137
L113.962 374.87
L114.854 375.288
L115.747 375.46
L116.721 375.419
L117.857 375.137
L119.237 374.555
L121.104 373.509
L124.756 371.144
L128.612 368.755
L131.818 367.039
L139.812 362.937
L141.03 361.954
L141.841 361.035
L142.409 360.081
L142.815 358.941
L143.018 357.757
L143.059 357.223
L143.181 344.49
L143.424 329.016
L143.505 327.915
L143.627 333.018
L143.911 341.555
L144.236 345.193
L144.52 346.534
L144.723 346.698
L144.844 346.42
L144.885 346.16
L144.966 339.771
L145.128 332.302
L145.21 333.229
L145.494 342.163
L145.737 351.929
L146.062 356.362
L146.386 358.421
L146.63 358.945
L146.792 358.956
L146.995 358.717
L147.482 357.643
L148.091 355.97
L148.172 355.395
L148.213 354.168
L148.456 333.897
L148.537 333.253
L148.578 333.552
L148.7 336.701
L149.024 350.878
L149.471 359.209
L149.877 363.151
L150.282 365.026
L150.769 366.178
L151.824 367.861
L155.599 373.655
L156.573 374.577
L157.465 375.123
L158.358 375.406
L159.291 375.465
L160.347 375.299
L161.605 374.863
L163.228 374.046
L165.663 372.542
L171.872 368.625
L175.078 366.927
L182.707 363.033
L183.965 362.047
L184.817 361.113
L185.426 360.117
L185.832 359.007
L186.035 357.913
L186.116 356.48
L186.441 329.53
L186.522 327.889
L186.562 328.337
L187.009 342.528
L187.334 345.62
L187.618 346.655
L187.78 346.675
L187.902 346.294
L187.942 345.803
L188.145 332.396
L188.186 332.363
L188.307 334.868
L188.551 343.707
L188.794 352.387
L189.16 356.918
L189.484 358.63
L189.728 358.976
L189.89 358.905
L190.174 358.437
L191.026 356.354
L191.189 355.565
L191.229 355.014
L191.554 333.228
L191.635 333.852
L191.716 335.826
L192.082 351.446
L192.528 359.522
L192.934 363.301
L193.34 365.099
L193.827 366.221
L195.003 368.093
L198.453 373.449
L199.427 374.433
L200.32 375.035
L201.213 375.369
L202.146 375.47
L203.16 375.351
L204.378 374.971
L205.92 374.236
L208.111 372.92
L215.741 368.159
L219.109 366.441
L225.075 363.459
L226.536 362.446
L227.55 361.482
L228.24 360.529
L228.727 359.464
L229.011 358.319
L229.133 357.073
L229.579 327.991
L230.229 344.602
L230.553 346.447
L230.756 346.717
L230.878 346.544
L230.959 346.087
L231.202 332.299
L231.284 333.387
L231.568 342.63
L231.811 352.071
L232.176 356.783
L232.501 358.581
L232.745 358.972
L232.907 358.921
L233.15 358.554
L233.921 356.747
L234.206 355.693
L234.246 355.307
L234.327 348.085
L234.53 333.751
L234.571 333.274
L234.611 333.283
L234.733 335.214
L235.22 353.774
L235.666 360.782
L236.072 363.899
L236.478 365.4
L237.006 366.473
L240.902 372.7
L241.957 373.967
L242.89 374.759
L243.783 375.227
L244.676 375.444
L245.65 375.441
L246.745 375.206
L248.085 374.678
L249.87 373.712
L252.914 371.764
L257.418 368.925
L260.624 367.187
L265.697 364.753
L268.213 363.394
L269.674 362.359
L270.648 361.406
L271.338 360.414
L271.784 359.39
L272.068 358.158
L272.15 357.367
L272.231 350.631
L272.474 330.668
L272.596 327.878
L272.637 328.612
L273.042 342.065
L273.367 345.418
L273.651 346.604
L273.813 346.707
L273.935 346.459
L274.016 345.431
L274.219 332.335
L274.26 332.434
L274.422 336.262
L274.625 344.247
L274.869 352.543
L274.909 353.241
L274.909 353.241" style="fill:none;stroke:#0000ff;stroke-linecap:square;"/>
   </g>
   <g id="patch_23">
    <path d="
M72 287.153
L274.909 287.153" style="fill:none;stroke:#000000;stroke-linecap:square;stroke-linejoin:miter;"/>
   </g>
   <g id="patch_24">
    <path d="
M274.909 388.8
L274.909 287.153" style="fill:none;stroke:#000000;stroke-linecap:square;stroke-linejoin:miter;"/>
   </g>
   <g id="patch_25">
    <path d="
M72 388.8
L274.909 388.8" style="fill:none;stroke:#000000;stroke-linecap:square;stroke-linejoin:miter;"/>
   </g>
   <g id="patch_26">
    <path d="
M72 388.8
L72 287.153" style="fill:none;stroke:#000000;stroke-linecap:square;stroke-linejoin:miter;"/>
   </g>
   <g id="matplotlib.axis_9">
    <g id="text_11">
     <!-- 1 s -->
     <defs>
      <path d="
M11.7188 12.9844
L28.3281 12.9844
L28.3281 60.1094
L11.2812 56.5938
L11.2812 69.3906
L28.2188 72.9062
L46.0938 72.9062
L46.0938 12.9844
L62.7031 12.9844
L62.7031 0
L11.7188 0
z
" id="BitstreamVeraSans-Bold-31"/>
      <path id="BitstreamVeraSans-Bold-20"/>
     </defs>
     <g transform="translate(163.904232955 402.918125)scale(0.12 -0.12)">
      <use xlink:href="#BitstreamVeraSans-Bold-31"/>
      <use x="69.580078125" xlink:href="#BitstreamVeraSans-Bold-20"/>
      <use x="104.39453125" xlink:href="#BitstreamVeraSans-Bold-73"/>
     </g>
    </g>
   </g>
   <g id="matplotlib.axis_10">
    <g id="ytick_9">
     <g id="line2d_22">
      <g>
       <use style="stroke:#000000;stroke-width:0.5;" x="72.0" xlink:href="#m728421d6d4" y="374.278991597"/>
      </g>
     </g>
     <g id="line2d_23">
      <g>
       <use style="stroke:#000000;stroke-width:0.5;" x="274.909090909" xlink:href="#mcb0005524f" y="374.278991597"/>
      </g>
     </g>
     <g id="text_12">
      <!-- −60 -->
      <g transform="translate(44.7425 377.590241597)scale(0.12 -0.12)">
       <use xlink:href="#BitstreamVeraSans-Roman-2212"/>
       <use x="83.7890625" xlink:href="#BitstreamVeraSans-Roman-36"/>
       <use x="147.412109375" xlink:href="#BitstreamVeraSans-Roman-30"/>
      </g>
     </g>
    </g>
    <g id="ytick_10">
     <g id="line2d_24">
      <g>
       <use style="stroke:#000000;stroke-width:0.5;" x="72.0" xlink:href="#m728421d6d4" y="330.715966387"/>
      </g>
     </g>
     <g id="line2d_25">
      <g>
       <use style="stroke:#000000;stroke-width:0.5;" x="274.909090909" xlink:href="#mcb0005524f" y="330.715966387"/>
      </g>
     </g>
     <g id="text_13">
      <!-- 0 -->
      <g transform="translate(61.953125 334.027216387)scale(0.12 -0.12)">
       <use xlink:href="#BitstreamVeraSans-Roman-30"/>
      </g>
     </g>
    </g>
   </g>
  </g>
  <g id="axes_6">
   <g id="patch_27">
    <path d="
M315.491 388.8
L518.4 388.8
L518.4 287.153
L315.491 287.153
z
" style="fill:#ffffff;"/>
   </g>
   <g id="line2d_26">
    <path clip-path="url(#p8ca55fdb04)" d="
M315.531 375.04
L316.424 375.257
L317.398 375.26
L318.494 375.035
L319.833 374.522
L321.619 373.58
L324.622 371.701
L329.248 368.845
L332.535 367.098
L339.962 363.289
L341.179 362.333
L342.031 361.389
L342.6 360.447
L343.005 359.35
L343.249 358.141
L343.411 356.302
L343.492 353.14
L343.614 297.028
L343.695 306.413
L344.182 377.835
L344.263 377.408
L344.507 373.634
L345.278 357.807
L345.319 355.902
L345.359 348.258
L345.4 295.168
L345.481 297.975
L345.684 320.714
L345.927 360.571
L346.09 383.507
L346.13 383.548
L346.293 382.423
L346.779 376.666
L347.835 364.134
L348.565 356.549
L348.646 348.915
L348.727 296.122
L348.768 298.448
L349.093 341.863
L349.336 381.56
L349.377 381.553
L349.539 380.364
L350.635 370.629
L351.081 368.797
L351.446 368.067
L351.771 367.816
L352.096 367.822
L352.502 368.074
L353.11 368.762
L354.287 370.52
L355.951 372.918
L357.006 374.056
L357.939 374.743
L358.832 375.129
L359.766 375.282
L360.78 375.212
L361.957 374.895
L363.418 374.257
L365.447 373.105
L374.822 367.475
L379.367 365.278
L382.207 363.79
L383.709 362.766
L384.723 361.812
L385.413 360.862
L385.9 359.8
L386.225 358.512
L386.428 356.621
L386.509 354.324
L386.55 349.791
L386.631 296.387
L386.671 298.613
L386.996 349.722
L387.158 377.231
L387.24 377.812
L387.28 377.571
L387.483 374.692
L388.295 358.38
L388.376 353.665
L388.457 295.489
L388.498 296.966
L388.66 313.202
L388.944 350.493
L389.106 383.364
L389.147 383.566
L389.187 383.472
L389.39 381.798
L389.999 374.196
L390.851 364.298
L391.582 357.009
L391.663 352.953
L391.744 295.661
L391.825 300.591
L392.15 346.585
L392.312 380.861
L392.393 381.585
L392.434 381.465
L392.678 379.31
L393.53 371.472
L393.976 369.242
L394.382 368.211
L394.747 367.839
L395.072 367.806
L395.478 368.025
L396.046 368.633
L397.06 370.113
L399.008 372.946
L400.063 374.076
L400.997 374.757
L401.89 375.136
L402.823 375.283
L403.838 375.208
L405.014 374.887
L406.475 374.245
L408.504 373.091
L417.798 367.504
L422.221 365.364
L425.184 363.825
L426.726 362.78
L427.74 361.831
L428.43 360.891
L428.917 359.848
L429.242 358.607
L429.445 356.883
L429.526 355.069
L429.566 352.586
L429.648 296.606
L429.729 301.137
L430.256 377.84
L430.297 377.698
L430.459 375.67
L431.149 362.322
L431.393 355.491
L431.474 295.196
L431.636 305.975
L432.001 363.714
L432.164 383.533
L432.204 383.534
L432.367 382.37
L432.854 376.591
L433.868 364.456
L434.639 356.38
L434.68 354.546
L434.72 345.745
L434.761 295.965
L434.842 298.924
L435.167 342.807
L435.37 381.296
L435.41 381.575
L435.451 381.536
L435.613 380.31
L436.668 370.827
L437.115 368.899
L437.52 368.06
L437.845 367.814
L438.17 367.824
L438.576 368.08
L439.184 368.77
L440.361 370.529
L442.025 372.925
L443.08 374.061
L444.014 374.747
L444.906 375.131
L445.84 375.283
L446.854 375.211
L448.031 374.893
L449.492 374.254
L451.521 373.101
L460.855 367.492
L465.319 365.333
L468.241 363.81
L469.742 362.793
L470.757 361.849
L471.447 360.919
L471.934 359.893
L472.258 358.694
L472.461 357.103
L472.583 353.913
L472.624 347.346
L472.705 296.578
L472.745 299.287
L473.07 352.178
L473.232 377.381
L473.273 377.809
L473.354 377.51
L473.598 373.831
L474.409 356.539
L474.45 352.35
L474.531 295.668
L474.572 297.34
L474.734 314.127
L475.018 354.229
L475.18 383.434
L475.221 383.565
L475.262 383.439
L475.505 381.293
L476.195 372.49
L476.966 363.864
L477.656 356.837
L477.737 351.867
L477.818 295.801
L477.859 297.651
L478.062 325.952
L478.224 348.82
L478.386 381.022
L478.467 381.578
L478.508 381.429
L478.752 379.236
L479.563 371.695
L480.01 369.366
L480.415 368.269
L480.781 367.857
L481.105 367.799
L481.471 367.969
L481.998 368.491
L482.891 369.748
L485.204 373.104
L486.219 374.154
L487.152 374.806
L488.045 375.16
L488.978 375.286
L489.993 375.192
L491.17 374.855
L492.671 374.179
L494.781 372.961
L503.304 367.795
L507.159 365.9
L511.055 363.939
L512.637 362.9
L513.693 361.955
L514.423 361.011
L514.91 360.042
L515.235 358.965
L515.478 357.291
L515.6 354.727
L515.64 351.485
L515.722 296.33
L515.803 302.277
L516.33 377.834
L516.452 376.758
L516.858 369.373
L517.426 357.271
L517.467 354.735
L517.548 295.314
L517.629 298.94
L517.994 339.405
L518.238 383.557
L518.319 383.298
L518.4 382.665
L518.4 382.665" style="fill:none;stroke:#0000ff;stroke-linecap:square;"/>
   </g>
   <g id="patch_28">
    <path d="
M315.491 287.153
L518.4 287.153" style="fill:none;stroke:#000000;stroke-linecap:square;stroke-linejoin:miter;"/>
   </g>
   <g id="patch_29">
    <path d="
M518.4 388.8
L518.4 287.153" style="fill:none;stroke:#000000;stroke-linecap:square;stroke-linejoin:miter;"/>
   </g>
   <g id="patch_30">
    <path d="
M315.491 388.8
L518.4 388.8" style="fill:none;stroke:#000000;stroke-linecap:square;stroke-linejoin:miter;"/>
   </g>
   <g id="patch_31">
    <path d="
M315.491 388.8
L315.491 287.153" style="fill:none;stroke:#000000;stroke-linecap:square;stroke-linejoin:miter;"/>
   </g>
   <g id="matplotlib.axis_11">
    <g id="text_14">
     <!-- 1 s -->
     <g transform="translate(407.395142045 402.918125)scale(0.12 -0.12)">
      <use xlink:href="#BitstreamVeraSans-Bold-31"/>
      <use x="69.580078125" xlink:href="#BitstreamVeraSans-Bold-20"/>
      <use x="104.39453125" xlink:href="#BitstreamVeraSans-Bold-73"/>
     </g>
    </g>
   </g>
   <g id="matplotlib.axis_12">
    <g id="ytick_11">
     <g id="line2d_27">
      <g>
       <use style="stroke:#000000;stroke-width:0.5;" x="315.490909091" xlink:href="#m728421d6d4" y="374.278991597"/>
      </g>
     </g>
     <g id="line2d_28">
      <g>
       <use style="stroke:#000000;stroke-width:0.5;" x="518.4" xlink:href="#mcb0005524f" y="374.278991597"/>
      </g>
     </g>
     <g id="text_15">
      <!-- −60 -->
      <g transform="translate(288.233409091 377.590241597)scale(0.12 -0.12)">
       <use xlink:href="#BitstreamVeraSans-Roman-2212"/>
       <use x="83.7890625" xlink:href="#BitstreamVeraSans-Roman-36"/>
       <use x="147.412109375" xlink:href="#BitstreamVeraSans-Roman-30"/>
      </g>
     </g>
    </g>
    <g id="ytick_12">
     <g id="line2d_29">
      <g>
       <use style="stroke:#000000;stroke-width:0.5;" x="315.490909091" xlink:href="#m728421d6d4" y="330.715966387"/>
      </g>
     </g>
     <g id="line2d_30">
      <g>
       <use style="stroke:#000000;stroke-width:0.5;" x="518.4" xlink:href="#mcb0005524f" y="330.715966387"/>
      </g>
     </g>
     <g id="text_16">
      <!-- 0 -->
      <g transform="translate(305.444034091 334.027216387)scale(0.12 -0.12)">
       <use xlink:href="#BitstreamVeraSans-Roman-30"/>
      </g>
     </g>
    </g>
   </g>
  </g>
 </g>
 <defs>
  <clipPath id="pf4132cbc21">
   <rect height="101.647058824" width="202.909090909" x="315.490909091" y="165.176470588"/>
  </clipPath>
  <clipPath id="p5df05f4a8e">
   <rect height="101.647058824" width="202.909090909" x="72.0" y="287.152941176"/>
  </clipPath>
  <clipPath id="pdf2bc2c95a">
   <rect height="101.647058824" width="202.909090909" x="72.0" y="43.2"/>
  </clipPath>
  <clipPath id="pbd5a3a9a46">
   <rect height="101.647058824" width="202.909090909" x="315.490909091" y="43.2"/>
  </clipPath>
  <clipPath id="p68273c1835">
   <rect height="101.647058824" width="202.909090909" x="72.0" y="165.176470588"/>
  </clipPath>
  <clipPath id="p8ca55fdb04">
   <rect height="101.647058824" width="202.909090909" x="315.490909091" y="287.152941176"/>
  </clipPath>
 </defs>
</svg>
