<?xml version="1.0" encoding="utf-8" standalone="no"?>
<!DOCTYPE svg PUBLIC "-//W3C//DTD SVG 1.1//EN"
  "http://www.w3.org/Graphics/SVG/1.1/DTD/svg11.dtd">
<!-- Created with matplotlib (http://matplotlib.org/) -->
<svg height="720pt" version="1.1" viewBox="0 0 720 720" width="720pt" xmlns="http://www.w3.org/2000/svg" xmlns:xlink="http://www.w3.org/1999/xlink">
 <defs>
  <style type="text/css">
*{stroke-linecap:butt;stroke-linejoin:round;}
  </style>
 </defs>
 <g id="figure_1">
  <g id="patch_1">
   <path d="
M0 720
L720 720
L720 0
L0 0
z
" style="fill:#ffffff;"/>
  </g>
  <g id="axes_1">
   <g id="patch_2">
    <path d="
M58.7306 129.24
L697.268 129.24
L697.268 10.8
L58.7306 10.8
z
" style="fill:#ffffff;"/>
   </g>
   <g id="line2d_1">
    <path clip-path="url(#p0ca233ff5b)" d="
M58.7306 109.5
L60.0103 117.586
L61.2899 113.738
L62.5695 110.761
L63.8492 108.464
L66.4084 104.585
L68.9677 101.191
L71.527 98.1844
L74.0862 95.5227
L76.6455 93.1703
L79.2048 91.0949
L81.764 89.2686
L84.3233 87.6673
L86.8826 86.2708
L89.4418 85.0617
L92.0011 84.0256
L95.84 82.7689
L99.6789 81.8392
L103.518 81.2092
L107.357 80.857
L111.196 80.7649
L115.035 80.9177
L118.873 81.3018
L122.712 81.9037
L126.551 82.7088
L130.39 83.7
L135.509 85.2739
L140.627 87.0749
L150.864 90.995
L157.262 93.3391
L162.381 94.9743
L166.22 96.0009
L170.059 96.8287
L173.898 97.4465
L177.737 97.8555
L181.575 98.0673
L186.694 98.0777
L191.813 97.8329
L198.211 97.2692
L207.168 96.2192
L222.524 94.3982
L231.481 93.5895
L239.159 93.111
L246.837 92.8353
L255.794 92.746
L266.031 92.8856
L281.387 93.3666
L304.42 94.0783
L318.496 94.277
L335.132 94.2693
L411.91 93.8607
L491.247 93.9608
L626.888 93.9456
L697.268 93.943
L697.268 93.943" style="fill:none;stroke:#666666;stroke-linecap:square;stroke-width:2;"/>
   </g>
   <g id="line2d_2">
    <path clip-path="url(#p0ca233ff5b)" d="
M58.7306 109.5
L60.0103 119.658
L61.2899 115.573
L62.5695 112.005
L63.8492 109.062
L66.4084 103.921
L68.9677 99.349
L71.527 95.2594
L74.0862 91.6104
L76.6455 88.3615
L79.2048 85.4741
L81.764 82.913
L84.3233 80.647
L86.8826 78.6488
L89.4418 76.8945
L92.0011 75.3636
L94.5604 74.0384
L97.1196 72.9036
L99.6789 71.9463
L102.238 71.155
L106.077 70.2588
L109.916 69.6877
L113.755 69.4197
L117.594 69.4367
L121.433 69.7228
L125.272 70.2632
L129.11 71.0424
L132.949 72.0427
L136.788 73.2423
L141.907 75.1038
L148.305 77.7299
L161.101 83.1268
L166.22 84.9898
L170.059 86.175
L173.898 87.1462
L177.737 87.8887
L181.575 88.4007
L185.414 88.6921
L189.253 88.7821
L194.372 88.6337
L199.49 88.2433
L205.889 87.5252
L221.244 85.4521
L230.202 84.3818
L237.879 83.673
L245.557 83.1884
L253.235 82.9268
L262.192 82.872
L272.429 83.0627
L287.785 83.6168
L308.259 84.3197
L322.335 84.5564
L337.691 84.5701
L363.284 84.3083
L391.435 84.0925
L420.867 84.1155
L486.128 84.2232
L655.04 84.195
L697.268 84.194
L697.268 84.194" style="fill:none;stroke:#575771;stroke-linecap:square;stroke-width:2;"/>
   </g>
   <g id="line2d_3">
    <path clip-path="url(#p0ca233ff5b)" d="
M58.7306 109.5
L60.0103 120.619
L61.2899 117.275
L62.5695 113.151
L65.1288 105.926
L67.6881 99.5573
L70.2473 93.8747
L72.8066 88.8219
L75.3659 84.342
L77.9251 80.3769
L80.4844 76.8722
L83.0437 73.7783
L85.6029 71.0514
L88.1622 68.6534
L90.7215 66.5513
L93.2807 64.7168
L95.84 63.1255
L98.3993 61.7568
L100.959 60.593
L103.518 59.6189
L106.077 58.8217
L108.636 58.1905
L111.196 57.7161
L115.035 57.2814
L118.873 57.1597
L122.712 57.3327
L126.551 57.7848
L130.39 58.5008
L134.229 59.4642
L138.068 60.6556
L141.907 62.0503
L147.025 64.1704
L153.424 67.0977
L163.661 71.83
L168.779 73.9223
L172.618 75.2707
L176.457 76.3897
L180.296 77.2588
L184.135 77.8721
L187.974 78.2374
L191.813 78.3738
L195.651 78.3085
L200.77 77.964
L207.168 77.2348
L216.126 75.9246
L228.922 74.0435
L236.6 73.1274
L244.278 72.4473
L251.955 72.0185
L259.633 71.8279
L268.591 71.8608
L278.828 72.1421
L322.335 73.6467
L336.411 73.7174
L355.606 73.5484
L392.715 73.1764
L419.587 73.18
L493.806 73.3096
L621.77 73.2859
L697.268 73.2817
L697.268 73.2817" style="fill:none;stroke:#49497c;stroke-linecap:square;stroke-width:2;"/>
   </g>
   <g id="line2d_4">
    <path clip-path="url(#p0ca233ff5b)" d="
M58.7306 109.5
L60.0103 121.371
L61.2899 118.538
L63.8492 109.25
L66.4084 100.84
L68.9677 93.4043
L71.527 86.8614
L74.0862 81.1232
L76.6455 76.0982
L79.2048 71.7002
L81.764 67.8514
L84.3233 64.4838
L86.8826 61.539
L89.4418 58.9671
L92.0011 56.7258
L94.5604 54.7793
L97.1196 53.0977
L99.6789 51.6554
L102.238 50.431
L104.797 49.4066
L107.357 48.5671
L109.916 47.8997
L112.475 47.3939
L116.314 46.9189
L120.153 46.7632
L123.992 46.9076
L127.831 47.3364
L131.67 48.0354
L135.509 48.9897
L139.348 50.182
L143.186 51.5902
L148.305 53.752
L154.703 56.7753
L166.22 62.3449
L171.338 64.5145
L175.177 65.9028
L179.016 67.0442
L182.855 67.9174
L186.694 68.5177
L190.533 68.855
L194.372 68.9512
L198.211 68.8373
L203.329 68.4209
L209.727 67.6003
L219.965 65.9672
L231.481 64.1908
L239.159 63.2431
L246.837 62.5515
L254.515 62.127
L262.192 61.9516
L269.87 61.9876
L280.107 62.2765
L299.302 63.1282
L314.657 63.6931
L327.454 63.9302
L341.53 63.95
L362.004 63.7201
L392.715 63.3973
L418.308 63.384
L501.484 63.524
L607.694 63.5053
L697.268 63.5013
L697.268 63.5013" style="fill:none;stroke:#3a3a87;stroke-linecap:square;stroke-width:2;"/>
   </g>
   <g id="line2d_5">
    <path clip-path="url(#p0ca233ff5b)" d="
M58.7306 109.5
L60.0103 122.339
L61.2899 119.342
L65.1288 103.399
L67.6881 94.0436
L70.2473 85.9219
L72.8066 78.8986
L75.3659 72.8315
L77.9251 67.5881
L80.4844 63.0517
L83.0437 59.122
L85.6029 55.7145
L88.1622 52.7587
L90.7215 50.1957
L93.2807 47.9767
L95.84 46.0611
L98.3993 44.4152
L100.959 43.0111
L103.518 41.8253
L106.077 40.8385
L108.636 40.0347
L111.196 39.4004
L113.755 38.9247
L117.594 38.4888
L121.433 38.3646
L125.272 38.5337
L129.11 38.9811
L132.949 39.6937
L136.788 40.6585
L140.627 41.8599
L144.466 43.2775
L149.585 45.4556
L155.983 48.5093
L167.5 54.1599
L172.618 56.3666
L176.457 57.7777
L180.296 58.9348
L184.135 59.8152
L187.974 60.4136
L191.813 60.7402
L195.651 60.8184
L199.49 60.6809
L204.609 60.2279
L211.007 59.3599
L221.244 57.6614
L231.481 56.0228
L239.159 55.0196
L245.557 54.3821
L251.955 53.9362
L259.633 53.645
L267.311 53.5897
L276.268 53.7606
L289.065 54.2744
L313.378 55.3136
L326.174 55.5977
L338.97 55.6582
L356.885 55.4917
L395.274 55.0673
L420.867 55.0666
L497.645 55.2111
L612.812 55.1865
L697.268 55.182
L697.268 55.182" style="fill:none;stroke:#2c2c92;stroke-linecap:square;stroke-width:2;"/>
   </g>
   <g id="line2d_6">
    <path clip-path="url(#p0ca233ff5b)" d="
M58.7306 109.5
L60.0103 123.193
L61.2899 119.669
L66.4084 95.9154
L68.9677 86.076
L71.527 77.6967
L74.0862 70.5656
L76.6455 64.4879
L79.2048 59.2956
L81.764 54.8476
L84.3233 51.0276
L86.8826 47.7406
L89.4418 44.9087
L92.0011 42.4687
L94.5604 40.3685
L97.1196 38.5659
L99.6789 37.026
L102.238 35.7202
L104.797 34.625
L107.357 33.721
L109.916 32.9921
L112.475 32.4253
L116.314 31.8561
L120.153 31.5994
L123.992 31.6341
L127.831 31.9446
L131.67 32.5181
L135.509 33.3433
L139.348 34.4079
L143.186 35.6963
L147.025 37.1872
L152.144 39.438
L158.542 42.5327
L168.779 47.5061
L173.898 49.6767
L177.737 51.0534
L181.575 52.1703
L185.414 53.006
L189.253 53.5568
L193.092 53.8352
L196.931 53.8669
L200.77 53.6864
L205.889 53.1842
L212.287 52.271
L237.879 48.2205
L244.278 47.5273
L250.676 47.0265
L258.354 46.6748
L266.031 46.5685
L274.989 46.6955
L286.505 47.1213
L317.217 48.4032
L330.013 48.6275
L344.089 48.6299
L365.843 48.3644
L393.995 48.0664
L418.308 48.0479
L506.603 48.192
L606.414 48.1769
L697.268 48.1731
L697.268 48.1731" style="fill:none;stroke:#1d1d9d;stroke-linecap:square;stroke-width:2;"/>
   </g>
   <g id="line2d_7">
    <path clip-path="url(#p0ca233ff5b)" d="
M58.7306 109.5
L60.0103 123.764
L61.2899 119.569
L66.4084 93.1176
L68.9677 82.3606
L71.527 73.3399
L74.0862 65.7683
L76.6455 59.3937
L79.2048 54.0058
L81.764 49.4332
L84.3233 45.5382
L86.8826 42.21
L89.4418 39.36
L92.0011 36.9169
L94.5604 34.8232
L97.1196 33.0324
L99.6789 31.5069
L102.238 30.2159
L104.797 29.1343
L107.357 28.2417
L109.916 27.5213
L113.755 26.7345
L117.594 26.2692
L121.433 26.0992
L125.272 26.2055
L129.11 26.5741
L132.949 27.1939
L136.788 28.0548
L140.627 29.1456
L144.466 30.4514
L148.305 31.9511
L153.424 34.2004
L161.101 37.8988
L168.779 41.5724
L173.898 43.75
L177.737 45.1415
L181.575 46.2781
L185.414 47.1354
L189.253 47.7072
L193.092 48.0043
L196.931 48.0512
L200.77 47.8821
L205.889 47.3898
L212.287 46.4823
L237.879 42.4256
L244.278 41.7288
L250.676 41.2238
L258.354 40.8662
L266.031 40.7536
L274.989 40.8732
L286.505 41.2913
L317.217 42.5705
L330.013 42.7984
L344.089 42.8046
L365.843 42.5421
L393.995 42.2432
L418.308 42.2229
L507.882 42.3656
L607.694 42.352
L697.268 42.3481
L697.268 42.3481" style="fill:none;stroke:#0f0fa8;stroke-linecap:square;stroke-width:2;"/>
   </g>
   <g id="line2d_8">
    <path clip-path="url(#p0ca233ff5b)" d="
M58.7306 109.5
L60.0103 123.968
L61.2899 119.217
L65.1288 97.2873
L67.6881 84.7833
L68.9677 79.348
L71.527 69.8886
L74.0862 62.0253
L76.6455 55.4618
L79.2048 49.9562
L81.764 45.3149
L84.3233 41.3845
L86.8826 38.0432
L89.4418 35.1946
L92.0011 32.7621
L94.5604 30.6843
L97.1196 28.9121
L99.6789 27.4059
L102.238 26.1335
L104.797 25.0691
L107.357 24.1913
L109.916 23.4831
L113.755 22.7088
L117.594 22.2487
L121.433 22.0766
L125.272 22.1734
L129.11 22.5255
L132.949 23.1227
L136.788 23.9557
L140.627 25.0145
L144.466 26.2858
L148.305 27.7505
L153.424 29.9555
L159.822 32.9805
L168.779 37.2497
L173.898 39.4251
L177.737 40.8207
L181.575 41.9646
L185.414 42.8307
L189.253 43.4114
L193.092 43.7162
L196.931 43.7691
L200.77 43.6044
L205.889 43.1156
L212.287 42.2097
L226.363 39.8332
L235.32 38.4843
L242.998 37.5823
L249.396 37.0387
L255.794 36.6851
L263.472 36.4931
L271.15 36.5178
L281.387 36.7997
L298.022 37.5448
L314.657 38.2106
L327.454 38.4861
L340.25 38.5397
L358.165 38.3686
L396.554 37.9494
L422.147 37.952
L496.365 38.097
L619.21 38.0702
L697.268 38.0656
L697.268 38.0656" style="fill:none;stroke:#0000b2;stroke-linecap:square;stroke-width:2;"/>
   </g>
   <g id="patch_3">
    <path d="
M58.7306 10.8
L697.268 10.8" style="fill:none;stroke:#000000;stroke-linecap:square;stroke-linejoin:miter;"/>
   </g>
   <g id="patch_4">
    <path d="
M697.268 129.24
L697.268 10.8" style="fill:none;stroke:#000000;stroke-linecap:square;stroke-linejoin:miter;"/>
   </g>
   <g id="patch_5">
    <path d="
M58.7306 129.24
L697.268 129.24" style="fill:none;stroke:#000000;stroke-linecap:square;stroke-linejoin:miter;"/>
   </g>
   <g id="patch_6">
    <path d="
M58.7306 129.24
L58.7306 10.8" style="fill:none;stroke:#000000;stroke-linecap:square;stroke-linejoin:miter;"/>
   </g>
   <g id="matplotlib.axis_1"/>
   <g id="matplotlib.axis_2">
    <g id="ytick_1">
     <g id="line2d_9">
      <defs>
       <path d="
M0 0
L4 0" id="m728421d6d4" style="stroke:#000000;stroke-width:0.5;"/>
      </defs>
      <g>
       <use style="stroke:#000000;stroke-width:0.5;" x="58.730625" xlink:href="#m728421d6d4" y="109.5"/>
      </g>
     </g>
     <g id="line2d_10">
      <defs>
       <path d="
M0 0
L-4 0" id="mcb0005524f" style="stroke:#000000;stroke-width:0.5;"/>
      </defs>
      <g>
       <use style="stroke:#000000;stroke-width:0.5;" x="697.26796875" xlink:href="#mcb0005524f" y="109.5"/>
      </g>
     </g>
     <g id="text_1">
      <!-- −60 -->
      <defs>
       <path d="
M10.5938 35.5
L73.1875 35.5
L73.1875 27.2031
L10.5938 27.2031
z
" id="BitstreamVeraSans-Roman-2212"/>
       <path d="
M31.7812 66.4062
Q24.1719 66.4062 20.3281 58.9062
Q16.5 51.4219 16.5 36.375
Q16.5 21.3906 20.3281 13.8906
Q24.1719 6.39062 31.7812 6.39062
Q39.4531 6.39062 43.2812 13.8906
Q47.125 21.3906 47.125 36.375
Q47.125 51.4219 43.2812 58.9062
Q39.4531 66.4062 31.7812 66.4062
M31.7812 74.2188
Q44.0469 74.2188 50.5156 64.5156
Q56.9844 54.8281 56.9844 36.375
Q56.9844 17.9688 50.5156 8.26562
Q44.0469 -1.42188 31.7812 -1.42188
Q19.5312 -1.42188 13.0625 8.26562
Q6.59375 17.9688 6.59375 36.375
Q6.59375 54.8281 13.0625 64.5156
Q19.5312 74.2188 31.7812 74.2188" id="BitstreamVeraSans-Roman-30"/>
       <path d="
M33.0156 40.375
Q26.375 40.375 22.4844 35.8281
Q18.6094 31.2969 18.6094 23.3906
Q18.6094 15.5312 22.4844 10.9531
Q26.375 6.39062 33.0156 6.39062
Q39.6562 6.39062 43.5312 10.9531
Q47.4062 15.5312 47.4062 23.3906
Q47.4062 31.2969 43.5312 35.8281
Q39.6562 40.375 33.0156 40.375
M52.5938 71.2969
L52.5938 62.3125
Q48.875 64.0625 45.0938 64.9844
Q41.3125 65.9219 37.5938 65.9219
Q27.8281 65.9219 22.6719 59.3281
Q17.5312 52.7344 16.7969 39.4062
Q19.6719 43.6562 24.0156 45.9219
Q28.375 48.1875 33.5938 48.1875
Q44.5781 48.1875 50.9531 41.5156
Q57.3281 34.8594 57.3281 23.3906
Q57.3281 12.1562 50.6875 5.35938
Q44.0469 -1.42188 33.0156 -1.42188
Q20.3594 -1.42188 13.6719 8.26562
Q6.98438 17.9688 6.98438 36.375
Q6.98438 53.6562 15.1875 63.9375
Q23.3906 74.2188 37.2031 74.2188
Q40.9219 74.2188 44.7031 73.4844
Q48.4844 72.75 52.5938 71.2969" id="BitstreamVeraSans-Roman-36"/>
      </defs>
      <g transform="translate(35.349375 112.259375)scale(0.1 -0.1)">
       <use xlink:href="#BitstreamVeraSans-Roman-2212"/>
       <use x="83.7890625" xlink:href="#BitstreamVeraSans-Roman-36"/>
       <use x="147.412109375" xlink:href="#BitstreamVeraSans-Roman-30"/>
      </g>
     </g>
    </g>
    <g id="ytick_2">
     <g id="line2d_11">
      <g>
       <use style="stroke:#000000;stroke-width:0.5;" x="58.730625" xlink:href="#m728421d6d4" y="79.89"/>
      </g>
     </g>
     <g id="line2d_12">
      <g>
       <use style="stroke:#000000;stroke-width:0.5;" x="697.26796875" xlink:href="#mcb0005524f" y="79.89"/>
      </g>
     </g>
     <g id="text_2">
      <!-- −30 -->
      <defs>
       <path d="
M40.5781 39.3125
Q47.6562 37.7969 51.625 33
Q55.6094 28.2188 55.6094 21.1875
Q55.6094 10.4062 48.1875 4.48438
Q40.7656 -1.42188 27.0938 -1.42188
Q22.5156 -1.42188 17.6562 -0.515625
Q12.7969 0.390625 7.625 2.20312
L7.625 11.7188
Q11.7188 9.32812 16.5938 8.10938
Q21.4844 6.89062 26.8125 6.89062
Q36.0781 6.89062 40.9375 10.5469
Q45.7969 14.2031 45.7969 21.1875
Q45.7969 27.6406 41.2812 31.2656
Q36.7656 34.9062 28.7188 34.9062
L20.2188 34.9062
L20.2188 43.0156
L29.1094 43.0156
Q36.375 43.0156 40.2344 45.9219
Q44.0938 48.8281 44.0938 54.2969
Q44.0938 59.9062 40.1094 62.9062
Q36.1406 65.9219 28.7188 65.9219
Q24.6562 65.9219 20.0156 65.0312
Q15.375 64.1562 9.8125 62.3125
L9.8125 71.0938
Q15.4375 72.6562 20.3438 73.4375
Q25.25 74.2188 29.5938 74.2188
Q40.8281 74.2188 47.3594 69.1094
Q53.9062 64.0156 53.9062 55.3281
Q53.9062 49.2656 50.4375 45.0938
Q46.9688 40.9219 40.5781 39.3125" id="BitstreamVeraSans-Roman-33"/>
      </defs>
      <g transform="translate(35.349375 82.649375)scale(0.1 -0.1)">
       <use xlink:href="#BitstreamVeraSans-Roman-2212"/>
       <use x="83.7890625" xlink:href="#BitstreamVeraSans-Roman-33"/>
       <use x="147.412109375" xlink:href="#BitstreamVeraSans-Roman-30"/>
      </g>
     </g>
    </g>
    <g id="ytick_3">
     <g id="line2d_13">
      <g>
       <use style="stroke:#000000;stroke-width:0.5;" x="58.730625" xlink:href="#m728421d6d4" y="50.28"/>
      </g>
     </g>
     <g id="line2d_14">
      <g>
       <use style="stroke:#000000;stroke-width:0.5;" x="697.26796875" xlink:href="#mcb0005524f" y="50.28"/>
      </g>
     </g>
     <g id="text_3">
      <!-- 0 -->
      <g transform="translate(49.6915625 53.039375)scale(0.1 -0.1)">
       <use xlink:href="#BitstreamVeraSans-Roman-30"/>
      </g>
     </g>
    </g>
    <g id="text_4">
     <!-- membrane -->
     <defs>
      <path d="
M49.0312 39.7969
Q46.7344 40.875 44.4531 41.375
Q42.1875 41.8906 39.8906 41.8906
Q33.1562 41.8906 29.5156 37.5625
Q25.875 33.25 25.875 25.2031
L25.875 0
L8.40625 0
L8.40625 54.6875
L25.875 54.6875
L25.875 45.7031
Q29.25 51.0781 33.6094 53.5312
Q37.9844 56 44.0938 56
Q44.9688 56 45.9844 55.9219
Q47.0156 55.8594 48.9688 55.6094
z
" id="BitstreamVeraSans-Bold-72"/>
      <path d="
M37.5 11.2812
Q43.1094 11.2812 46.0625 15.375
Q49.0312 19.4844 49.0312 27.2969
Q49.0312 35.1094 46.0625 39.2031
Q43.1094 43.3125 37.5 43.3125
Q31.8906 43.3125 28.875 39.1875
Q25.875 35.0625 25.875 27.2969
Q25.875 19.5312 28.875 15.4062
Q31.8906 11.2812 37.5 11.2812
M25.875 46.6875
Q29.5 51.4688 33.8906 53.7344
Q38.2812 56 44 56
Q54.1094 56 60.5938 47.9688
Q67.0938 39.9375 67.0938 27.2969
Q67.0938 14.6562 60.5938 6.60938
Q54.1094 -1.42188 44 -1.42188
Q38.2812 -1.42188 33.8906 0.84375
Q29.5 3.125 25.875 7.90625
L25.875 0
L8.40625 0
L8.40625 75.9844
L25.875 75.9844
z
" id="BitstreamVeraSans-Bold-62"/>
      <path d="
M32.9062 24.6094
Q27.4375 24.6094 24.6719 22.75
Q21.9219 20.9062 21.9219 17.2812
Q21.9219 13.9688 24.1406 12.0781
Q26.375 10.2031 30.3281 10.2031
Q35.25 10.2031 38.625 13.7344
Q42 17.2812 42 22.6094
L42 24.6094
z

M59.625 31.2031
L59.625 0
L42 0
L42 8.10938
Q38.4844 3.125 34.0781 0.84375
Q29.6875 -1.42188 23.3906 -1.42188
Q14.8906 -1.42188 9.59375 3.53125
Q4.29688 8.5 4.29688 16.4062
Q4.29688 26.0312 10.9062 30.5156
Q17.5312 35.0156 31.6875 35.0156
L42 35.0156
L42 36.375
Q42 40.5312 38.7188 42.4531
Q35.4531 44.3906 28.5156 44.3906
Q22.9062 44.3906 18.0625 43.2656
Q13.2344 42.1406 9.07812 39.8906
L9.07812 53.2188
Q14.7031 54.5938 20.3594 55.2969
Q26.0312 56 31.6875 56
Q46.4844 56 53.0469 50.1719
Q59.625 44.3438 59.625 31.2031" id="BitstreamVeraSans-Bold-61"/>
      <path d="
M62.9844 27.4844
L62.9844 22.5156
L22.125 22.5156
Q22.75 16.3594 26.5625 13.2812
Q30.375 10.2031 37.2031 10.2031
Q42.7188 10.2031 48.5 11.8438
Q54.2969 13.4844 60.4062 16.7969
L60.4062 3.32812
Q54.2031 0.984375 48 -0.21875
Q41.7969 -1.42188 35.5938 -1.42188
Q20.75 -1.42188 12.5156 6.125
Q4.29688 13.6719 4.29688 27.2969
Q4.29688 40.6719 12.375 48.3281
Q20.4531 56 34.625 56
Q47.5156 56 55.25 48.2344
Q62.9844 40.4844 62.9844 27.4844
M45.0156 33.2969
Q45.0156 38.2812 42.1094 41.3281
Q39.2031 44.3906 34.5156 44.3906
Q29.4375 44.3906 26.2656 41.5312
Q23.0938 38.6719 22.3125 33.2969
z
" id="BitstreamVeraSans-Bold-65"/>
      <path d="
M59.0781 45.6094
Q62.4062 50.6875 66.9688 53.3438
Q71.5312 56 77 56
Q86.4219 56 91.3594 50.1875
Q96.2969 44.3906 96.2969 33.2969
L96.2969 0
L78.7188 0
L78.7188 28.5156
Q78.7656 29.1562 78.7812 29.8281
Q78.8125 30.5156 78.8125 31.7812
Q78.8125 37.5938 77.0938 40.2031
Q75.3906 42.8281 71.5781 42.8281
Q66.6094 42.8281 63.8906 38.7188
Q61.1875 34.625 61.0781 26.8594
L61.0781 0
L43.5 0
L43.5 28.5156
Q43.5 37.5938 41.9375 40.2031
Q40.375 42.8281 36.375 42.8281
Q31.3438 42.8281 28.6094 38.7031
Q25.875 34.5781 25.875 26.9062
L25.875 0
L8.29688 0
L8.29688 54.6875
L25.875 54.6875
L25.875 46.6875
Q29.1094 51.3125 33.2812 53.6562
Q37.4531 56 42.4844 56
Q48.1406 56 52.4844 53.2656
Q56.8438 50.5312 59.0781 45.6094" id="BitstreamVeraSans-Bold-6d"/>
      <path d="
M63.375 33.2969
L63.375 0
L45.7969 0
L45.7969 5.42188
L45.7969 25.4844
Q45.7969 32.5625 45.4844 35.25
Q45.1719 37.9375 44.3906 39.2031
Q43.3594 40.9219 41.5938 41.875
Q39.8438 42.8281 37.5938 42.8281
Q32.125 42.8281 29 38.5938
Q25.875 34.375 25.875 26.9062
L25.875 0
L8.40625 0
L8.40625 54.6875
L25.875 54.6875
L25.875 46.6875
Q29.8281 51.4688 34.2656 53.7344
Q38.7188 56 44.0938 56
Q53.5625 56 58.4688 50.1875
Q63.375 44.3906 63.375 33.2969" id="BitstreamVeraSans-Bold-6e"/>
     </defs>
     <g transform="translate(17.071875 99.54421875)rotate(-90.0)scale(0.1 -0.1)">
      <use xlink:href="#BitstreamVeraSans-Bold-6d"/>
      <use x="104.19921875" xlink:href="#BitstreamVeraSans-Bold-65"/>
      <use x="172.021484375" xlink:href="#BitstreamVeraSans-Bold-6d"/>
      <use x="276.220703125" xlink:href="#BitstreamVeraSans-Bold-62"/>
      <use x="347.802734375" xlink:href="#BitstreamVeraSans-Bold-72"/>
      <use x="397.119140625" xlink:href="#BitstreamVeraSans-Bold-61"/>
      <use x="464.599609375" xlink:href="#BitstreamVeraSans-Bold-6e"/>
      <use x="535.791015625" xlink:href="#BitstreamVeraSans-Bold-65"/>
     </g>
     <!-- potential (mV) -->
     <defs>
      <path d="
M8.40625 54.6875
L25.875 54.6875
L25.875 0
L8.40625 0
z

M8.40625 75.9844
L25.875 75.9844
L25.875 61.7188
L8.40625 61.7188
z
" id="BitstreamVeraSans-Bold-69"/>
      <path id="BitstreamVeraSans-Bold-20"/>
      <path d="
M25.875 7.90625
L25.875 -20.7969
L8.40625 -20.7969
L8.40625 54.6875
L25.875 54.6875
L25.875 46.6875
Q29.5 51.4688 33.8906 53.7344
Q38.2812 56 44 56
Q54.1094 56 60.5938 47.9688
Q67.0938 39.9375 67.0938 27.2969
Q67.0938 14.6562 60.5938 6.60938
Q54.1094 -1.42188 44 -1.42188
Q38.2812 -1.42188 33.8906 0.84375
Q29.5 3.125 25.875 7.90625
M37.5 43.3125
Q31.8906 43.3125 28.875 39.1875
Q25.875 35.0625 25.875 27.2969
Q25.875 19.5312 28.875 15.4062
Q31.8906 11.2812 37.5 11.2812
Q43.1094 11.2812 46.0625 15.375
Q49.0312 19.4844 49.0312 27.2969
Q49.0312 35.1094 46.0625 39.2031
Q43.1094 43.3125 37.5 43.3125" id="BitstreamVeraSans-Bold-70"/>
      <path d="
M27.4844 70.2188
L27.4844 54.6875
L45.5156 54.6875
L45.5156 42.1875
L27.4844 42.1875
L27.4844 19
Q27.4844 15.1875 29 13.8438
Q30.5156 12.5 35.0156 12.5
L44 12.5
L44 0
L29 0
Q18.6562 0 14.3281 4.3125
Q10.0156 8.64062 10.0156 19
L10.0156 42.1875
L1.3125 42.1875
L1.3125 54.6875
L10.0156 54.6875
L10.0156 70.2188
z
" id="BitstreamVeraSans-Bold-74"/>
      <path d="
M37.7031 -13.1875
L23.1875 -13.1875
Q15.7188 -1.125 12.1562 9.73438
Q8.59375 20.6094 8.59375 31.2969
Q8.59375 42 12.1719 52.9531
Q15.7656 63.9219 23.1875 75.875
L37.7031 75.875
Q31.4531 64.3125 28.3281 53.25
Q25.2031 42.1875 25.2031 31.3906
Q25.2031 20.6094 28.2969 9.51562
Q31.3906 -1.5625 37.7031 -13.1875" id="BitstreamVeraSans-Bold-28"/>
      <path d="
M8.01562 -13.1875
Q14.2656 -1.5625 17.3906 9.51562
Q20.5156 20.6094 20.5156 31.3906
Q20.5156 42.1875 17.3906 53.25
Q14.2656 64.3125 8.01562 75.875
L22.5156 75.875
Q29.9375 63.9219 33.5156 52.9531
Q37.1094 42 37.1094 31.2969
Q37.1094 20.6094 33.5469 9.73438
Q29.9844 -1.125 22.5156 -13.1875
z
" id="BitstreamVeraSans-Bold-29"/>
      <path d="
M0.484375 72.9062
L19.3906 72.9062
L38.7188 19.0938
L58.0156 72.9062
L76.9062 72.9062
L49.9062 0
L27.4844 0
z
" id="BitstreamVeraSans-Bold-56"/>
      <path d="
M8.40625 75.9844
L25.875 75.9844
L25.875 0
L8.40625 0
z
" id="BitstreamVeraSans-Bold-6c"/>
      <path d="
M34.4219 43.5
Q28.6094 43.5 25.5625 39.3281
Q22.5156 35.1562 22.5156 27.2969
Q22.5156 19.4375 25.5625 15.25
Q28.6094 11.0781 34.4219 11.0781
Q40.1406 11.0781 43.1562 15.25
Q46.1875 19.4375 46.1875 27.2969
Q46.1875 35.1562 43.1562 39.3281
Q40.1406 43.5 34.4219 43.5
M34.4219 56
Q48.5312 56 56.4688 48.375
Q64.4062 40.7656 64.4062 27.2969
Q64.4062 13.8125 56.4688 6.1875
Q48.5312 -1.42188 34.4219 -1.42188
Q20.2656 -1.42188 12.2812 6.1875
Q4.29688 13.8125 4.29688 27.2969
Q4.29688 40.7656 12.2812 48.375
Q20.2656 56 34.4219 56" id="BitstreamVeraSans-Bold-6f"/>
     </defs>
     <g transform="translate(28.2696875 110.5278125)rotate(-90.0)scale(0.1 -0.1)">
      <use xlink:href="#BitstreamVeraSans-Bold-70"/>
      <use x="71.58203125" xlink:href="#BitstreamVeraSans-Bold-6f"/>
      <use x="140.283203125" xlink:href="#BitstreamVeraSans-Bold-74"/>
      <use x="188.0859375" xlink:href="#BitstreamVeraSans-Bold-65"/>
      <use x="255.908203125" xlink:href="#BitstreamVeraSans-Bold-6e"/>
      <use x="327.099609375" xlink:href="#BitstreamVeraSans-Bold-74"/>
      <use x="374.90234375" xlink:href="#BitstreamVeraSans-Bold-69"/>
      <use x="409.1796875" xlink:href="#BitstreamVeraSans-Bold-61"/>
      <use x="476.66015625" xlink:href="#BitstreamVeraSans-Bold-6c"/>
      <use x="510.9375" xlink:href="#BitstreamVeraSans-Bold-20"/>
      <use x="545.751953125" xlink:href="#BitstreamVeraSans-Bold-28"/>
      <use x="591.455078125" xlink:href="#BitstreamVeraSans-Bold-6d"/>
      <use x="695.654296875" xlink:href="#BitstreamVeraSans-Bold-56"/>
      <use x="773.046875" xlink:href="#BitstreamVeraSans-Bold-29"/>
     </g>
    </g>
   </g>
   <g id="legend_1">
    <g id="patch_7">
     <path d="
M604.045 142.275
L691.268 142.275
L691.268 -2.235
L604.045 -2.235
z
" style="fill:#ffffff;stroke:#000000;stroke-linejoin:miter;"/>
    </g>
    <g id="line2d_15">
     <path d="
M612.445 7.48313
L629.245 7.48313" style="fill:none;stroke:#666666;stroke-linecap:square;stroke-width:2;"/>
    </g>
    <g id="line2d_16"/>
    <g id="text_5">
     <!-- comp 0 -->
     <defs>
      <path d="
M52 44.1875
Q55.375 50.25 60.0625 53.125
Q64.75 56 71.0938 56
Q79.6406 56 84.2812 50.0156
Q88.9219 44.0469 88.9219 33.0156
L88.9219 0
L79.8906 0
L79.8906 32.7188
Q79.8906 40.5781 77.0938 44.375
Q74.3125 48.1875 68.6094 48.1875
Q61.625 48.1875 57.5625 43.5469
Q53.5156 38.9219 53.5156 30.9062
L53.5156 0
L44.4844 0
L44.4844 32.7188
Q44.4844 40.625 41.7031 44.4062
Q38.9219 48.1875 33.1094 48.1875
Q26.2188 48.1875 22.1562 43.5312
Q18.1094 38.875 18.1094 30.9062
L18.1094 0
L9.07812 0
L9.07812 54.6875
L18.1094 54.6875
L18.1094 46.1875
Q21.1875 51.2188 25.4844 53.6094
Q29.7812 56 35.6875 56
Q41.6562 56 45.8281 52.9688
Q50 49.9531 52 44.1875" id="BitstreamVeraSans-Roman-6d"/>
      <path d="
M30.6094 48.3906
Q23.3906 48.3906 19.1875 42.75
Q14.9844 37.1094 14.9844 27.2969
Q14.9844 17.4844 19.1562 11.8438
Q23.3438 6.20312 30.6094 6.20312
Q37.7969 6.20312 41.9844 11.8594
Q46.1875 17.5312 46.1875 27.2969
Q46.1875 37.0156 41.9844 42.7031
Q37.7969 48.3906 30.6094 48.3906
M30.6094 56
Q42.3281 56 49.0156 48.375
Q55.7188 40.7656 55.7188 27.2969
Q55.7188 13.875 49.0156 6.21875
Q42.3281 -1.42188 30.6094 -1.42188
Q18.8438 -1.42188 12.1719 6.21875
Q5.51562 13.875 5.51562 27.2969
Q5.51562 40.7656 12.1719 48.375
Q18.8438 56 30.6094 56" id="BitstreamVeraSans-Roman-6f"/>
      <path d="
M18.1094 8.20312
L18.1094 -20.7969
L9.07812 -20.7969
L9.07812 54.6875
L18.1094 54.6875
L18.1094 46.3906
Q20.9531 51.2656 25.2656 53.625
Q29.5938 56 35.5938 56
Q45.5625 56 51.7812 48.0938
Q58.0156 40.1875 58.0156 27.2969
Q58.0156 14.4062 51.7812 6.48438
Q45.5625 -1.42188 35.5938 -1.42188
Q29.5938 -1.42188 25.2656 0.953125
Q20.9531 3.32812 18.1094 8.20312
M48.6875 27.2969
Q48.6875 37.2031 44.6094 42.8438
Q40.5312 48.4844 33.4062 48.4844
Q26.2656 48.4844 22.1875 42.8438
Q18.1094 37.2031 18.1094 27.2969
Q18.1094 17.3906 22.1875 11.75
Q26.2656 6.10938 33.4062 6.10938
Q40.5312 6.10938 44.6094 11.75
Q48.6875 17.3906 48.6875 27.2969" id="BitstreamVeraSans-Roman-70"/>
      <path d="
M48.7812 52.5938
L48.7812 44.1875
Q44.9688 46.2969 41.1406 47.3438
Q37.3125 48.3906 33.4062 48.3906
Q24.6562 48.3906 19.8125 42.8438
Q14.9844 37.3125 14.9844 27.2969
Q14.9844 17.2812 19.8125 11.7344
Q24.6562 6.20312 33.4062 6.20312
Q37.3125 6.20312 41.1406 7.25
Q44.9688 8.29688 48.7812 10.4062
L48.7812 2.09375
Q45.0156 0.34375 40.9844 -0.53125
Q36.9688 -1.42188 32.4219 -1.42188
Q20.0625 -1.42188 12.7812 6.34375
Q5.51562 14.1094 5.51562 27.2969
Q5.51562 40.6719 12.8594 48.3281
Q20.2188 56 33.0156 56
Q37.1562 56 41.1094 55.1406
Q45.0625 54.2969 48.7812 52.5938" id="BitstreamVeraSans-Roman-63"/>
      <path id="BitstreamVeraSans-Roman-20"/>
     </defs>
     <g transform="translate(642.44484375 11.683125)scale(0.12 -0.12)">
      <use xlink:href="#BitstreamVeraSans-Roman-63"/>
      <use x="54.98046875" xlink:href="#BitstreamVeraSans-Roman-6f"/>
      <use x="116.162109375" xlink:href="#BitstreamVeraSans-Roman-6d"/>
      <use x="213.57421875" xlink:href="#BitstreamVeraSans-Roman-70"/>
      <use x="277.05078125" xlink:href="#BitstreamVeraSans-Roman-20"/>
      <use x="308.837890625" xlink:href="#BitstreamVeraSans-Roman-30"/>
     </g>
    </g>
    <g id="line2d_17">
     <path d="
M612.445 25.0969
L629.245 25.0969" style="fill:none;stroke:#575771;stroke-linecap:square;stroke-width:2;"/>
    </g>
    <g id="line2d_18"/>
    <g id="text_6">
     <!-- comp 1 -->
     <defs>
      <path d="
M12.4062 8.29688
L28.5156 8.29688
L28.5156 63.9219
L10.9844 60.4062
L10.9844 69.3906
L28.4219 72.9062
L38.2812 72.9062
L38.2812 8.29688
L54.3906 8.29688
L54.3906 0
L12.4062 0
z
" id="BitstreamVeraSans-Roman-31"/>
     </defs>
     <g transform="translate(642.44484375 29.296875)scale(0.12 -0.12)">
      <use xlink:href="#BitstreamVeraSans-Roman-63"/>
      <use x="54.98046875" xlink:href="#BitstreamVeraSans-Roman-6f"/>
      <use x="116.162109375" xlink:href="#BitstreamVeraSans-Roman-6d"/>
      <use x="213.57421875" xlink:href="#BitstreamVeraSans-Roman-70"/>
      <use x="277.05078125" xlink:href="#BitstreamVeraSans-Roman-20"/>
      <use x="308.837890625" xlink:href="#BitstreamVeraSans-Roman-31"/>
     </g>
    </g>
    <g id="line2d_19">
     <path d="
M612.445 42.7106
L629.245 42.7106" style="fill:none;stroke:#49497c;stroke-linecap:square;stroke-width:2;"/>
    </g>
    <g id="line2d_20"/>
    <g id="text_7">
     <!-- comp 2 -->
     <defs>
      <path d="
M19.1875 8.29688
L53.6094 8.29688
L53.6094 0
L7.32812 0
L7.32812 8.29688
Q12.9375 14.1094 22.625 23.8906
Q32.3281 33.6875 34.8125 36.5312
Q39.5469 41.8438 41.4219 45.5312
Q43.3125 49.2188 43.3125 52.7812
Q43.3125 58.5938 39.2344 62.25
Q35.1562 65.9219 28.6094 65.9219
Q23.9688 65.9219 18.8125 64.3125
Q13.6719 62.7031 7.8125 59.4219
L7.8125 69.3906
Q13.7656 71.7812 18.9375 73
Q24.125 74.2188 28.4219 74.2188
Q39.75 74.2188 46.4844 68.5469
Q53.2188 62.8906 53.2188 53.4219
Q53.2188 48.9219 51.5312 44.8906
Q49.8594 40.875 45.4062 35.4062
Q44.1875 33.9844 37.6406 27.2188
Q31.1094 20.4531 19.1875 8.29688" id="BitstreamVeraSans-Roman-32"/>
     </defs>
     <g transform="translate(642.44484375 46.910625)scale(0.12 -0.12)">
      <use xlink:href="#BitstreamVeraSans-Roman-63"/>
      <use x="54.98046875" xlink:href="#BitstreamVeraSans-Roman-6f"/>
      <use x="116.162109375" xlink:href="#BitstreamVeraSans-Roman-6d"/>
      <use x="213.57421875" xlink:href="#BitstreamVeraSans-Roman-70"/>
      <use x="277.05078125" xlink:href="#BitstreamVeraSans-Roman-20"/>
      <use x="308.837890625" xlink:href="#BitstreamVeraSans-Roman-32"/>
     </g>
    </g>
    <g id="line2d_21">
     <path d="
M612.445 60.3244
L629.245 60.3244" style="fill:none;stroke:#3a3a87;stroke-linecap:square;stroke-width:2;"/>
    </g>
    <g id="line2d_22"/>
    <g id="text_8">
     <!-- comp 3 -->
     <g transform="translate(642.44484375 64.524375)scale(0.12 -0.12)">
      <use xlink:href="#BitstreamVeraSans-Roman-63"/>
      <use x="54.98046875" xlink:href="#BitstreamVeraSans-Roman-6f"/>
      <use x="116.162109375" xlink:href="#BitstreamVeraSans-Roman-6d"/>
      <use x="213.57421875" xlink:href="#BitstreamVeraSans-Roman-70"/>
      <use x="277.05078125" xlink:href="#BitstreamVeraSans-Roman-20"/>
      <use x="308.837890625" xlink:href="#BitstreamVeraSans-Roman-33"/>
     </g>
    </g>
    <g id="line2d_23">
     <path d="
M612.445 77.9381
L629.245 77.9381" style="fill:none;stroke:#2c2c92;stroke-linecap:square;stroke-width:2;"/>
    </g>
    <g id="line2d_24"/>
    <g id="text_9">
     <!-- comp 4 -->
     <defs>
      <path d="
M37.7969 64.3125
L12.8906 25.3906
L37.7969 25.3906
z

M35.2031 72.9062
L47.6094 72.9062
L47.6094 25.3906
L58.0156 25.3906
L58.0156 17.1875
L47.6094 17.1875
L47.6094 0
L37.7969 0
L37.7969 17.1875
L4.89062 17.1875
L4.89062 26.7031
z
" id="BitstreamVeraSans-Roman-34"/>
     </defs>
     <g transform="translate(642.44484375 82.138125)scale(0.12 -0.12)">
      <use xlink:href="#BitstreamVeraSans-Roman-63"/>
      <use x="54.98046875" xlink:href="#BitstreamVeraSans-Roman-6f"/>
      <use x="116.162109375" xlink:href="#BitstreamVeraSans-Roman-6d"/>
      <use x="213.57421875" xlink:href="#BitstreamVeraSans-Roman-70"/>
      <use x="277.05078125" xlink:href="#BitstreamVeraSans-Roman-20"/>
      <use x="308.837890625" xlink:href="#BitstreamVeraSans-Roman-34"/>
     </g>
    </g>
    <g id="line2d_25">
     <path d="
M612.445 95.5519
L629.245 95.5519" style="fill:none;stroke:#1d1d9d;stroke-linecap:square;stroke-width:2;"/>
    </g>
    <g id="line2d_26"/>
    <g id="text_10">
     <!-- comp 5 -->
     <defs>
      <path d="
M10.7969 72.9062
L49.5156 72.9062
L49.5156 64.5938
L19.8281 64.5938
L19.8281 46.7344
Q21.9688 47.4688 24.1094 47.8281
Q26.2656 48.1875 28.4219 48.1875
Q40.625 48.1875 47.75 41.5
Q54.8906 34.8125 54.8906 23.3906
Q54.8906 11.625 47.5625 5.09375
Q40.2344 -1.42188 26.9062 -1.42188
Q22.3125 -1.42188 17.5469 -0.640625
Q12.7969 0.140625 7.71875 1.70312
L7.71875 11.625
Q12.1094 9.23438 16.7969 8.0625
Q21.4844 6.89062 26.7031 6.89062
Q35.1562 6.89062 40.0781 11.3281
Q45.0156 15.7656 45.0156 23.3906
Q45.0156 31 40.0781 35.4375
Q35.1562 39.8906 26.7031 39.8906
Q22.75 39.8906 18.8125 39.0156
Q14.8906 38.1406 10.7969 36.2812
z
" id="BitstreamVeraSans-Roman-35"/>
     </defs>
     <g transform="translate(642.44484375 99.751875)scale(0.12 -0.12)">
      <use xlink:href="#BitstreamVeraSans-Roman-63"/>
      <use x="54.98046875" xlink:href="#BitstreamVeraSans-Roman-6f"/>
      <use x="116.162109375" xlink:href="#BitstreamVeraSans-Roman-6d"/>
      <use x="213.57421875" xlink:href="#BitstreamVeraSans-Roman-70"/>
      <use x="277.05078125" xlink:href="#BitstreamVeraSans-Roman-20"/>
      <use x="308.837890625" xlink:href="#BitstreamVeraSans-Roman-35"/>
     </g>
    </g>
    <g id="line2d_27">
     <path d="
M612.445 113.166
L629.245 113.166" style="fill:none;stroke:#0f0fa8;stroke-linecap:square;stroke-width:2;"/>
    </g>
    <g id="line2d_28"/>
    <g id="text_11">
     <!-- comp 6 -->
     <g transform="translate(642.44484375 117.365625)scale(0.12 -0.12)">
      <use xlink:href="#BitstreamVeraSans-Roman-63"/>
      <use x="54.98046875" xlink:href="#BitstreamVeraSans-Roman-6f"/>
      <use x="116.162109375" xlink:href="#BitstreamVeraSans-Roman-6d"/>
      <use x="213.57421875" xlink:href="#BitstreamVeraSans-Roman-70"/>
      <use x="277.05078125" xlink:href="#BitstreamVeraSans-Roman-20"/>
      <use x="308.837890625" xlink:href="#BitstreamVeraSans-Roman-36"/>
     </g>
    </g>
    <g id="line2d_29">
     <path d="
M612.445 130.779
L629.245 130.779" style="fill:none;stroke:#0000b2;stroke-linecap:square;stroke-width:2;"/>
    </g>
    <g id="line2d_30"/>
    <g id="text_12">
     <!-- comp 7 -->
     <defs>
      <path d="
M8.20312 72.9062
L55.0781 72.9062
L55.0781 68.7031
L28.6094 0
L18.3125 0
L43.2188 64.5938
L8.20312 64.5938
z
" id="BitstreamVeraSans-Roman-37"/>
     </defs>
     <g transform="translate(642.44484375 134.979375)scale(0.12 -0.12)">
      <use xlink:href="#BitstreamVeraSans-Roman-63"/>
      <use x="54.98046875" xlink:href="#BitstreamVeraSans-Roman-6f"/>
      <use x="116.162109375" xlink:href="#BitstreamVeraSans-Roman-6d"/>
      <use x="213.57421875" xlink:href="#BitstreamVeraSans-Roman-70"/>
      <use x="277.05078125" xlink:href="#BitstreamVeraSans-Roman-20"/>
      <use x="308.837890625" xlink:href="#BitstreamVeraSans-Roman-37"/>
     </g>
    </g>
   </g>
  </g>
  <g id="axes_2">
   <g id="patch_8">
    <path d="
M58.7306 267.48
L697.268 267.48
L697.268 149.04
L58.7306 149.04
z
" style="fill:#ffffff;"/>
   </g>
   <g id="line2d_31">
    <path clip-path="url(#p7d0fb9ec0d)" d="
M58.7306 264.341
L60.0103 261.367
L61.2899 260.3
L63.8492 258.832
L67.6881 256.939
L71.527 255.266
L75.3659 253.8
L79.2048 252.53
L83.0437 251.449
L86.8826 250.548
L90.7215 249.822
L95.84 249.117
L100.959 248.7
L106.077 248.561
L111.196 248.682
L116.314 249.046
L121.433 249.628
L127.831 250.616
L135.509 252.077
L153.424 255.651
L159.822 256.623
L164.94 257.196
L170.059 257.575
L176.457 257.794
L182.855 257.773
L190.533 257.517
L202.05 256.88
L222.524 255.738
L234.04 255.339
L245.557 255.165
L258.354 255.196
L278.828 255.513
L304.42 255.874
L324.894 255.934
L367.122 255.748
L406.791 255.717
L518.119 255.755
L697.268 255.758
L697.268 255.758" style="fill:none;stroke:#e31a1a;stroke-linecap:square;"/>
   </g>
   <g id="line2d_32">
    <path clip-path="url(#p7d0fb9ec0d)" d="
M58.7306 266.836
L60.0103 262.774
L61.2899 261.306
L63.8492 259.044
L68.9677 254.853
L74.0862 250.969
L77.9251 248.313
L81.764 245.901
L85.6029 243.749
L89.4418 241.865
L93.2807 240.254
L97.1196 238.917
L100.959 237.852
L104.797 237.058
L108.636 236.527
L112.475 236.253
L116.314 236.226
L120.153 236.432
L123.992 236.858
L127.831 237.483
L132.949 238.587
L138.068 239.938
L145.746 242.253
L157.262 245.756
L162.381 247.1
L167.5 248.219
L172.618 249.08
L177.737 249.674
L182.855 250.014
L187.974 250.127
L194.372 250.008
L202.05 249.587
L213.566 248.665
L230.202 247.348
L240.439 246.787
L249.396 246.506
L259.633 246.413
L271.15 246.536
L291.624 247.028
L312.098 247.432
L330.013 247.539
L354.326 247.419
L395.274 247.211
L442.621 247.281
L509.162 247.287
L697.268 247.284
L697.268 247.284" style="fill:none;stroke:#e31a1a;stroke-linecap:square;"/>
   </g>
   <g id="line2d_33">
    <path clip-path="url(#p7d0fb9ec0d)" d="
M58.7306 264.839
L60.0103 263.701
L61.2899 261.97
L66.4084 255.973
L72.8066 248.742
L76.6455 244.679
L80.4844 240.903
L84.3233 237.454
L88.1622 234.361
L92.0011 231.639
L95.84 229.299
L98.3993 227.953
L100.959 226.779
L103.518 225.776
L106.077 224.942
L108.636 224.276
L111.196 223.775
L113.755 223.437
L116.314 223.257
L118.873 223.23
L122.712 223.466
L126.551 224.013
L130.39 224.844
L134.229 225.928
L138.068 227.225
L143.186 229.211
L150.864 232.493
L158.542 235.751
L163.661 237.708
L168.779 239.383
L172.618 240.418
L176.457 241.25
L180.296 241.876
L184.135 242.303
L187.974 242.545
L193.092 242.613
L198.211 242.438
L204.609 241.965
L213.566 241.018
L232.761 238.877
L241.718 238.155
L249.396 237.749
L257.074 237.541
L266.031 237.521
L277.548 237.756
L322.335 239.007
L337.691 239.053
L360.724 238.864
L393.995 238.617
L425.986 238.645
L489.967 238.733
L665.277 238.708
L697.268 238.708
L697.268 238.708" style="fill:none;stroke:#e31a1a;stroke-linecap:square;"/>
   </g>
   <g id="line2d_34">
    <path clip-path="url(#p7d0fb9ec0d)" d="
M58.7306 264.388
L60.0103 264.289
L68.9677 250.919
L74.0862 243.454
L77.9251 238.167
L81.764 233.243
L85.6029 228.738
L89.4418 224.691
L92.0011 222.259
L94.5604 220.044
L97.1196 218.051
L99.6789 216.281
L102.238 214.733
L104.797 213.408
L107.357 212.303
L109.916 211.416
L112.475 210.745
L115.035 210.284
L117.594 210.03
L120.153 209.975
L122.712 210.113
L125.272 210.437
L127.831 210.936
L130.39 211.6
L134.229 212.879
L138.068 214.455
L141.907 216.275
L147.025 218.972
L162.381 227.362
L166.22 229.181
L170.059 230.784
L173.898 232.142
L177.737 233.238
L181.575 234.068
L185.414 234.641
L189.253 234.973
L193.092 235.089
L196.931 235.016
L202.05 234.677
L208.448 233.968
L217.405 232.682
L231.481 230.62
L239.159 229.713
L246.837 229.047
L254.515 228.642
L262.192 228.484
L271.15 228.563
L281.387 228.894
L318.496 230.332
L331.293 230.486
L346.648 230.431
L410.63 229.906
L561.627 230.028
L697.268 230.037
L697.268 230.037" style="fill:none;stroke:#e31a1a;stroke-linecap:square;"/>
   </g>
   <g id="line2d_35">
    <path clip-path="url(#p7d0fb9ec0d)" d="
M58.7306 265.512
L60.0103 264.623
L62.5695 260.235
L68.9677 248.528
L74.0862 239.263
L77.9251 232.662
L81.764 226.488
L85.6029 220.819
L88.1622 217.345
L90.7215 214.129
L93.2807 211.177
L95.84 208.496
L98.3993 206.087
L100.959 203.953
L103.518 202.094
L106.077 200.508
L108.636 199.195
L111.196 198.15
L113.755 197.369
L116.314 196.847
L118.873 196.578
L121.433 196.555
L123.992 196.768
L126.551 197.206
L129.11 197.859
L131.67 198.714
L134.229 199.753
L138.068 201.624
L141.907 203.809
L145.746 206.234
L152.144 210.584
L159.822 215.82
L164.94 219.015
L168.779 221.141
L172.618 222.983
L176.457 224.512
L180.296 225.714
L184.135 226.592
L187.974 227.162
L191.813 227.447
L195.651 227.481
L199.49 227.298
L204.609 226.784
L209.727 226.043
L217.405 224.687
L232.761 221.918
L240.439 220.816
L246.837 220.126
L253.235 219.659
L259.633 219.41
L267.311 219.367
L274.989 219.55
L285.226 220.021
L313.378 221.453
L324.894 221.75
L336.411 221.833
L351.767 221.701
L399.113 221.117
L424.706 221.155
L484.849 221.319
L689.59 221.272
L697.268 221.272
L697.268 221.272" style="fill:none;stroke:#e31a1a;stroke-linecap:square;"/>
   </g>
   <g id="line2d_36">
    <path clip-path="url(#p7d0fb9ec0d)" d="
M58.7306 266.312
L60.0103 264.751
L61.2899 262.387
L65.1288 254.28
L75.3659 232.104
L79.2048 224.34
L83.0437 217.109
L86.8826 210.493
L89.4418 206.454
L92.0011 202.724
L94.5604 199.311
L97.1196 196.222
L99.6789 193.459
L102.238 191.023
L104.797 188.915
L107.357 187.132
L109.916 185.671
L112.475 184.53
L115.035 183.701
L117.594 183.179
L120.153 182.955
L122.712 183.02
L125.272 183.363
L127.831 183.971
L130.39 184.829
L132.949 185.921
L135.509 187.228
L138.068 188.729
L141.907 191.292
L145.746 194.153
L150.864 198.261
L161.101 206.566
L164.94 209.411
L168.779 211.98
L172.618 214.216
L175.177 215.502
L177.737 216.617
L180.296 217.559
L182.855 218.328
L185.414 218.929
L187.974 219.369
L191.813 219.747
L195.651 219.82
L199.49 219.63
L203.329 219.223
L208.448 218.419
L214.846 217.141
L235.32 212.791
L241.718 211.75
L248.116 210.962
L254.515 210.44
L260.913 210.176
L267.311 210.141
L274.989 210.345
L283.946 210.816
L315.937 212.716
L326.174 213
L337.691 213.081
L351.767 212.933
L399.113 212.232
L422.147 212.26
L486.128 212.47
L649.922 212.417
L697.268 212.414
L697.268 212.414" style="fill:none;stroke:#e31a1a;stroke-linecap:square;"/>
   </g>
   <g id="line2d_37">
    <path clip-path="url(#p7d0fb9ec0d)" d="
M58.7306 266.944
L60.0103 264.699
L61.2899 262.069
L63.8492 255.916
L77.9251 220.805
L81.764 212.142
L85.6029 204.162
L88.1622 199.259
L90.7215 194.71
L93.2807 190.525
L95.84 186.712
L98.3993 183.276
L100.959 180.22
L103.518 177.545
L106.077 175.25
L108.636 173.332
L111.196 171.788
L113.755 170.611
L116.314 169.795
L118.873 169.332
L121.433 169.211
L123.992 169.421
L126.551 169.948
L129.11 170.777
L131.67 171.889
L134.229 173.263
L136.788 174.878
L139.348 176.708
L143.186 179.793
L147.025 183.194
L153.424 189.247
L159.822 195.3
L163.661 198.709
L167.5 201.83
L171.338 204.588
L173.898 206.197
L176.457 207.611
L179.016 208.825
L181.575 209.836
L184.135 210.649
L186.694 211.27
L189.253 211.707
L191.813 211.973
L194.372 212.079
L198.211 211.972
L202.05 211.592
L205.889 210.991
L211.007 209.935
L217.405 208.368
L232.761 204.511
L239.159 203.186
L244.278 202.324
L249.396 201.656
L254.515 201.187
L259.633 200.91
L266.031 200.81
L272.429 200.943
L280.107 201.332
L291.624 202.175
L308.259 203.395
L318.496 203.913
L328.733 204.187
L338.97 204.237
L351.767 204.073
L397.834 203.261
L418.308 203.264
L493.806 203.519
L588.499 203.465
L697.268 203.465
L697.268 203.465" style="fill:none;stroke:#e31a1a;stroke-linecap:square;"/>
   </g>
   <g id="line2d_38">
    <path clip-path="url(#p7d0fb9ec0d)" d="
M58.7306 267.3
L61.2899 261.537
L63.8492 254.541
L77.9251 214.457
L81.764 204.553
L85.6029 195.426
L88.1622 189.817
L90.7215 184.611
L93.2807 179.82
L95.84 175.453
L98.3993 171.517
L100.959 168.014
L103.518 164.946
L106.077 162.311
L108.636 160.107
L111.196 158.329
L113.755 156.971
L116.314 156.026
L118.873 155.483
L121.433 155.332
L123.992 155.558
L126.551 156.147
L129.11 157.081
L131.67 158.338
L134.229 159.897
L136.788 161.731
L139.348 163.811
L143.186 167.322
L147.025 171.195
L153.424 178.099
L159.822 185.01
L163.661 188.907
L167.5 192.478
L170.059 194.634
L172.618 196.586
L175.177 198.32
L177.737 199.828
L180.296 201.105
L182.855 202.154
L185.414 202.979
L187.974 203.589
L190.533 203.995
L193.092 204.212
L195.651 204.254
L199.49 204.029
L203.329 203.511
L207.168 202.759
L212.287 201.494
L219.965 199.29
L231.481 195.977
L237.879 194.405
L242.998 193.364
L248.116 192.542
L253.235 191.946
L258.354 191.572
L263.472 191.406
L269.87 191.455
L276.268 191.733
L285.226 192.384
L313.378 194.668
L322.335 195.082
L331.293 195.284
L341.53 195.287
L355.606 195.031
L391.435 194.249
L409.35 194.165
L434.943 194.312
L473.332 194.502
L520.678 194.428
L585.94 194.423
L697.268 194.424
L697.268 194.424" style="fill:none;stroke:#e31a1a;stroke-linecap:square;"/>
   </g>
   <g id="patch_9">
    <path d="
M58.7306 149.04
L697.268 149.04" style="fill:none;stroke:#000000;stroke-linecap:square;stroke-linejoin:miter;"/>
   </g>
   <g id="patch_10">
    <path d="
M697.268 267.48
L697.268 149.04" style="fill:none;stroke:#000000;stroke-linecap:square;stroke-linejoin:miter;"/>
   </g>
   <g id="patch_11">
    <path d="
M58.7306 267.48
L697.268 267.48" style="fill:none;stroke:#000000;stroke-linecap:square;stroke-linejoin:miter;"/>
   </g>
   <g id="patch_12">
    <path d="
M58.7306 267.48
L58.7306 149.04" style="fill:none;stroke:#000000;stroke-linecap:square;stroke-linejoin:miter;"/>
   </g>
   <g id="matplotlib.axis_3"/>
   <g id="matplotlib.axis_4">
    <g id="ytick_4">
     <g id="line2d_39">
      <g>
       <use style="stroke:#000000;stroke-width:0.5;" x="58.730625" xlink:href="#m728421d6d4" y="267.48"/>
      </g>
     </g>
     <g id="line2d_40">
      <g>
       <use style="stroke:#000000;stroke-width:0.5;" x="697.26796875" xlink:href="#mcb0005524f" y="267.48"/>
      </g>
     </g>
     <g id="text_13">
      <!-- 0.0 -->
      <defs>
       <path d="
M10.6875 12.4062
L21 12.4062
L21 0
L10.6875 0
z
" id="BitstreamVeraSans-Roman-2e"/>
      </defs>
      <g transform="translate(40.1509375 270.239375)scale(0.1 -0.1)">
       <use xlink:href="#BitstreamVeraSans-Roman-30"/>
       <use x="63.623046875" xlink:href="#BitstreamVeraSans-Roman-2e"/>
       <use x="95.41015625" xlink:href="#BitstreamVeraSans-Roman-30"/>
      </g>
     </g>
    </g>
    <g id="ytick_5">
     <g id="line2d_41">
      <g>
       <use style="stroke:#000000;stroke-width:0.5;" x="58.730625" xlink:href="#m728421d6d4" y="247.74"/>
      </g>
     </g>
     <g id="line2d_42">
      <g>
       <use style="stroke:#000000;stroke-width:0.5;" x="697.26796875" xlink:href="#mcb0005524f" y="247.74"/>
      </g>
     </g>
     <g id="text_14">
      <!-- 0.5 -->
      <g transform="translate(40.3603125 250.499375)scale(0.1 -0.1)">
       <use xlink:href="#BitstreamVeraSans-Roman-30"/>
       <use x="63.623046875" xlink:href="#BitstreamVeraSans-Roman-2e"/>
       <use x="95.41015625" xlink:href="#BitstreamVeraSans-Roman-35"/>
      </g>
     </g>
    </g>
    <g id="ytick_6">
     <g id="line2d_43">
      <g>
       <use style="stroke:#000000;stroke-width:0.5;" x="58.730625" xlink:href="#m728421d6d4" y="228.0"/>
      </g>
     </g>
     <g id="line2d_44">
      <g>
       <use style="stroke:#000000;stroke-width:0.5;" x="697.26796875" xlink:href="#mcb0005524f" y="228.0"/>
      </g>
     </g>
     <g id="text_15">
      <!-- 1.0 -->
      <g transform="translate(40.59 230.759375)scale(0.1 -0.1)">
       <use xlink:href="#BitstreamVeraSans-Roman-31"/>
       <use x="63.623046875" xlink:href="#BitstreamVeraSans-Roman-2e"/>
       <use x="95.41015625" xlink:href="#BitstreamVeraSans-Roman-30"/>
      </g>
     </g>
    </g>
    <g id="ytick_7">
     <g id="line2d_45">
      <g>
       <use style="stroke:#000000;stroke-width:0.5;" x="58.730625" xlink:href="#m728421d6d4" y="208.26"/>
      </g>
     </g>
     <g id="line2d_46">
      <g>
       <use style="stroke:#000000;stroke-width:0.5;" x="697.26796875" xlink:href="#mcb0005524f" y="208.26"/>
      </g>
     </g>
     <g id="text_16">
      <!-- 1.5 -->
      <g transform="translate(40.799375 211.019375)scale(0.1 -0.1)">
       <use xlink:href="#BitstreamVeraSans-Roman-31"/>
       <use x="63.623046875" xlink:href="#BitstreamVeraSans-Roman-2e"/>
       <use x="95.41015625" xlink:href="#BitstreamVeraSans-Roman-35"/>
      </g>
     </g>
    </g>
    <g id="ytick_8">
     <g id="line2d_47">
      <g>
       <use style="stroke:#000000;stroke-width:0.5;" x="58.730625" xlink:href="#m728421d6d4" y="188.52"/>
      </g>
     </g>
     <g id="line2d_48">
      <g>
       <use style="stroke:#000000;stroke-width:0.5;" x="697.26796875" xlink:href="#mcb0005524f" y="188.52"/>
      </g>
     </g>
     <g id="text_17">
      <!-- 2.0 -->
      <g transform="translate(40.224375 191.279375)scale(0.1 -0.1)">
       <use xlink:href="#BitstreamVeraSans-Roman-32"/>
       <use x="63.623046875" xlink:href="#BitstreamVeraSans-Roman-2e"/>
       <use x="95.41015625" xlink:href="#BitstreamVeraSans-Roman-30"/>
      </g>
     </g>
    </g>
    <g id="ytick_9">
     <g id="line2d_49">
      <g>
       <use style="stroke:#000000;stroke-width:0.5;" x="58.730625" xlink:href="#m728421d6d4" y="168.78"/>
      </g>
     </g>
     <g id="line2d_50">
      <g>
       <use style="stroke:#000000;stroke-width:0.5;" x="697.26796875" xlink:href="#mcb0005524f" y="168.78"/>
      </g>
     </g>
     <g id="text_18">
      <!-- 2.5 -->
      <g transform="translate(40.43375 171.539375)scale(0.1 -0.1)">
       <use xlink:href="#BitstreamVeraSans-Roman-32"/>
       <use x="63.623046875" xlink:href="#BitstreamVeraSans-Roman-2e"/>
       <use x="95.41015625" xlink:href="#BitstreamVeraSans-Roman-35"/>
      </g>
     </g>
    </g>
    <g id="ytick_10">
     <g id="line2d_51">
      <g>
       <use style="stroke:#000000;stroke-width:0.5;" x="58.730625" xlink:href="#m728421d6d4" y="149.04"/>
      </g>
     </g>
     <g id="line2d_52">
      <g>
       <use style="stroke:#000000;stroke-width:0.5;" x="697.26796875" xlink:href="#mcb0005524f" y="149.04"/>
      </g>
     </g>
     <g id="text_19">
      <!-- 3.0 -->
      <g transform="translate(40.2540625 151.799375)scale(0.1 -0.1)">
       <use xlink:href="#BitstreamVeraSans-Roman-33"/>
       <use x="63.623046875" xlink:href="#BitstreamVeraSans-Roman-2e"/>
       <use x="95.41015625" xlink:href="#BitstreamVeraSans-Roman-30"/>
      </g>
     </g>
    </g>
    <g id="text_20">
     <!-- mRNA conc. -->
     <defs>
      <path d="
M53.4219 13.2812
L24.0312 13.2812
L19.3906 0
L0.484375 0
L27.4844 72.9062
L49.9062 72.9062
L76.9062 0
L58.0156 0
z

M28.7188 26.8125
L48.6875 26.8125
L38.7188 55.8125
z
" id="BitstreamVeraSans-Bold-41"/>
      <path d="
M10.2031 18.8906
L27.7812 18.8906
L27.7812 0
L10.2031 0
z
" id="BitstreamVeraSans-Bold-2e"/>
      <path d="
M35.8906 40.5781
Q41.7969 40.5781 44.3594 42.7656
Q46.9219 44.9688 46.9219 50
Q46.9219 54.9844 44.3594 57.125
Q41.7969 59.2812 35.8906 59.2812
L27.9844 59.2812
L27.9844 40.5781
z

M27.9844 27.5938
L27.9844 0
L9.1875 0
L9.1875 72.9062
L37.8906 72.9062
Q52.2969 72.9062 59 68.0625
Q65.7188 63.2344 65.7188 52.7812
Q65.7188 45.5625 62.2188 40.9219
Q58.7344 36.2812 51.7031 34.0781
Q55.5625 33.2031 58.6094 30.0938
Q61.6719 27 64.7969 20.7031
L75 0
L54.9844 0
L46.0938 18.1094
Q43.4062 23.5781 40.6406 25.5781
Q37.8906 27.5938 33.2969 27.5938
z
" id="BitstreamVeraSans-Bold-52"/>
      <path d="
M52.5938 52.9844
L52.5938 38.7188
Q49.0312 41.1562 45.4375 42.3281
Q41.8438 43.5 37.9844 43.5
Q30.6719 43.5 26.5938 39.2344
Q22.5156 34.9688 22.5156 27.2969
Q22.5156 19.625 26.5938 15.3438
Q30.6719 11.0781 37.9844 11.0781
Q42.0938 11.0781 45.7812 12.2969
Q49.4688 13.5312 52.5938 15.9219
L52.5938 1.60938
Q48.4844 0.09375 44.2656 -0.65625
Q40.0469 -1.42188 35.7969 -1.42188
Q21 -1.42188 12.6406 6.17188
Q4.29688 13.7656 4.29688 27.2969
Q4.29688 40.8281 12.6406 48.4062
Q21 56 35.7969 56
Q40.0938 56 44.2656 55.25
Q48.4375 54.5 52.5938 52.9844" id="BitstreamVeraSans-Bold-63"/>
      <path d="
M9.1875 72.9062
L30.1719 72.9062
L56.6875 22.9062
L56.6875 72.9062
L74.5156 72.9062
L74.5156 0
L53.5156 0
L27 50
L27 0
L9.1875 0
z
" id="BitstreamVeraSans-Bold-4e"/>
     </defs>
     <g transform="translate(33.07125 241.42640625)rotate(-90.0)scale(0.1 -0.1)">
      <use xlink:href="#BitstreamVeraSans-Bold-6d"/>
      <use x="104.19921875" xlink:href="#BitstreamVeraSans-Bold-52"/>
      <use x="181.201171875" xlink:href="#BitstreamVeraSans-Bold-4e"/>
      <use x="264.892578125" xlink:href="#BitstreamVeraSans-Bold-41"/>
      <use x="342.28515625" xlink:href="#BitstreamVeraSans-Bold-20"/>
      <use x="377.099609375" xlink:href="#BitstreamVeraSans-Bold-63"/>
      <use x="436.376953125" xlink:href="#BitstreamVeraSans-Bold-6f"/>
      <use x="505.078125" xlink:href="#BitstreamVeraSans-Bold-6e"/>
      <use x="576.26953125" xlink:href="#BitstreamVeraSans-Bold-63"/>
      <use x="635.546875" xlink:href="#BitstreamVeraSans-Bold-2e"/>
     </g>
    </g>
   </g>
  </g>
  <g id="axes_3">
   <g id="patch_13">
    <path d="
M58.7306 405.72
L697.268 405.72
L697.268 287.28
L58.7306 287.28
z
" style="fill:#ffffff;"/>
   </g>
   <g id="line2d_53">
    <path clip-path="url(#p64d642aa21)" d="
M58.7306 402.581
L60.0103 400.626
L61.2899 399.103
L62.5695 398.167
L65.1288 396.744
L68.9677 394.888
L72.8066 393.25
L76.6455 391.817
L80.4844 390.579
L84.3233 389.528
L88.1622 388.657
L92.0011 387.96
L97.1196 387.291
L102.238 386.91
L107.357 386.804
L112.475 386.957
L117.594 387.349
L122.712 387.957
L129.11 388.97
L136.788 390.449
L153.424 393.779
L159.822 394.777
L164.94 395.373
L170.059 395.777
L176.457 396.023
L182.855 396.023
L190.533 395.785
L202.05 395.159
L222.524 394.007
L234.04 393.596
L245.557 393.409
L258.354 393.43
L277.548 393.718
L305.7 394.119
L327.454 394.17
L441.341 394.004
L551.39 393.995
L697.268 393.998
L697.268 393.998" style="fill:none;stroke:#e31a1a;stroke-linecap:square;"/>
   </g>
   <g id="line2d_54">
    <path clip-path="url(#p64d642aa21)" d="
M58.7306 405.076
L60.0103 402.28
L61.2899 400.314
L62.5695 398.978
L66.4084 395.683
L71.527 391.597
L75.3659 388.753
L79.2048 386.136
L83.0437 383.767
L86.8826 381.659
L90.7215 379.821
L94.5604 378.255
L98.3993 376.964
L102.238 375.945
L106.077 375.194
L109.916 374.707
L113.755 374.475
L117.594 374.488
L121.433 374.732
L125.272 375.192
L129.11 375.848
L134.229 376.986
L139.348 378.362
L147.025 380.694
L157.262 383.814
L162.381 385.182
L167.5 386.331
L172.618 387.225
L177.737 387.852
L182.855 388.223
L187.974 388.363
L194.372 388.269
L200.77 387.953
L211.007 387.177
L231.481 385.546
L241.718 385.001
L250.676 384.734
L260.913 384.655
L273.709 384.813
L324.894 385.769
L345.369 385.726
L405.511 385.45
L648.642 385.524
L697.268 385.524
L697.268 385.524" style="fill:none;stroke:#e31a1a;stroke-linecap:square;"/>
   </g>
   <g id="line2d_55">
    <path clip-path="url(#p64d642aa21)" d="
M58.7306 403.079
L60.0103 402.68
L62.5695 399.445
L68.9677 392.002
L74.0862 386.289
L77.9251 382.271
L81.764 378.548
L85.6029 375.157
L89.4418 372.125
L93.2807 369.467
L97.1196 367.191
L99.6789 365.888
L102.238 364.757
L104.797 363.796
L107.357 363.005
L109.916 362.38
L112.475 361.921
L115.035 361.622
L117.594 361.48
L120.153 361.491
L123.992 361.78
L127.831 362.376
L131.67 363.252
L135.509 364.374
L139.348 365.702
L144.466 367.717
L153.424 371.567
L159.822 374.247
L164.94 376.172
L168.779 377.429
L172.618 378.497
L176.457 379.363
L180.296 380.023
L184.135 380.482
L187.974 380.754
L193.092 380.857
L198.211 380.71
L204.609 380.261
L212.287 379.477
L235.32 376.942
L244.278 376.275
L251.955 375.919
L260.913 375.75
L269.87 375.803
L281.387 376.095
L317.217 377.171
L331.293 377.298
L349.208 377.225
L404.232 376.844
L451.578 376.956
L506.603 376.959
L639.684 376.95
L697.268 376.948
L697.268 376.948" style="fill:none;stroke:#e31a1a;stroke-linecap:square;"/>
   </g>
   <g id="line2d_56">
    <path clip-path="url(#p64d642aa21)" d="
M58.7306 402.628
L60.0103 403.033
L61.2899 401.49
L66.4084 393.941
L74.0862 382.607
L77.9251 377.268
L81.764 372.279
L85.6029 367.703
L89.4418 363.578
L92.0011 361.092
L94.5604 358.823
L97.1196 356.775
L99.6789 354.949
L102.238 353.345
L104.797 351.965
L107.357 350.805
L109.916 349.864
L112.475 349.139
L115.035 348.626
L117.594 348.321
L120.153 348.216
L122.712 348.307
L125.272 348.585
L127.831 349.041
L130.39 349.664
L134.229 350.889
L138.068 352.418
L141.907 354.201
L147.025 356.864
L163.661 365.917
L167.5 367.702
L171.338 369.266
L175.177 370.58
L179.016 371.631
L182.855 372.418
L186.694 372.949
L190.533 373.244
L194.372 373.327
L198.211 373.225
L203.329 372.857
L209.727 372.123
L218.685 370.825
L232.761 368.777
L240.439 367.888
L248.116 367.244
L255.794 366.861
L263.472 366.722
L272.429 366.818
L283.946 367.215
L315.937 368.498
L328.733 368.707
L342.809 368.707
L365.843 368.439
L393.995 368.168
L419.587 368.165
L497.645 368.303
L614.092 368.281
L697.268 368.277
L697.268 368.277" style="fill:none;stroke:#e31a1a;stroke-linecap:square;"/>
   </g>
   <g id="line2d_57">
    <path clip-path="url(#p64d642aa21)" d="
M58.7306 403.752
L60.0103 403.466
L61.2899 401.741
L63.8492 397.32
L77.9251 371.978
L81.764 365.728
L85.6029 359.972
L89.4418 354.763
L92.0011 351.613
L94.5604 348.729
L97.1196 346.115
L99.6789 343.775
L102.238 341.71
L104.797 339.919
L107.357 338.402
L109.916 337.156
L112.475 336.178
L115.035 335.462
L117.594 335.004
L120.153 334.797
L122.712 334.834
L125.272 335.104
L127.831 335.597
L130.39 336.301
L132.949 337.203
L135.509 338.286
L139.348 340.213
L143.186 342.442
L148.305 345.753
L163.661 356.097
L167.5 358.348
L171.338 360.337
L175.177 362.024
L179.016 363.39
L182.855 364.429
L186.694 365.15
L190.533 365.575
L194.372 365.73
L198.211 365.651
L202.05 365.375
L207.168 364.766
L213.566 363.741
L237.879 359.482
L244.278 358.685
L250.676 358.106
L257.074 357.749
L263.472 357.602
L271.15 357.661
L280.107 357.973
L295.463 358.801
L310.819 359.571
L322.335 359.93
L333.852 360.069
L347.928 359.999
L410.63 359.349
L452.858 359.52
L493.806 359.551
L608.973 359.517
L697.268 359.512
L697.268 359.512" style="fill:none;stroke:#e31a1a;stroke-linecap:square;"/>
   </g>
   <g id="line2d_58">
    <path clip-path="url(#p64d642aa21)" d="
M58.7306 404.552
L60.0103 403.731
L61.2899 401.775
L63.8492 396.64
L70.2473 382.7
L75.3659 371.684
L79.2048 363.844
L83.0437 356.519
L86.8826 349.798
L89.4418 345.682
L92.0011 341.875
L94.5604 338.383
L97.1196 335.213
L99.6789 332.368
L102.238 329.85
L104.797 327.66
L107.357 325.796
L109.916 324.256
L112.475 323.035
L115.035 322.128
L117.594 321.53
L120.153 321.233
L122.712 321.226
L125.272 321.5
L127.831 322.043
L130.39 322.84
L132.949 323.874
L135.509 325.129
L138.068 326.583
L141.907 329.087
L145.746 331.904
L150.864 335.978
L162.381 345.295
L166.22 348.097
L170.059 350.613
L173.898 352.789
L176.457 354.032
L179.016 355.104
L181.575 356.002
L184.135 356.729
L186.694 357.289
L189.253 357.69
L193.092 358.015
L196.931 358.041
L200.77 357.813
L204.609 357.374
L209.727 356.541
L216.126 355.242
L235.32 351.148
L241.718 350.084
L248.116 349.27
L254.515 348.722
L260.913 348.432
L267.311 348.376
L274.989 348.56
L283.946 349.017
L317.217 350.979
L327.454 351.25
L338.97 351.319
L353.046 351.163
L397.834 350.481
L419.587 350.485
L493.806 350.702
L597.457 350.657
L697.268 350.654
L697.268 350.654" style="fill:none;stroke:#e31a1a;stroke-linecap:square;"/>
   </g>
   <g id="line2d_59">
    <path clip-path="url(#p64d642aa21)" d="
M58.7306 405.184
L60.0103 403.847
L61.2899 401.608
L63.8492 395.719
L68.9677 382.801
L75.3659 366.708
L79.2048 357.563
L83.0437 349.009
L86.8826 341.152
L89.4418 336.337
L92.0011 331.878
L94.5604 327.786
L97.1196 324.067
L99.6789 320.727
L102.238 317.766
L104.797 315.187
L107.357 312.986
L109.916 311.162
L112.475 309.71
L115.035 308.624
L117.594 307.897
L120.153 307.521
L122.712 307.484
L125.272 307.774
L127.831 308.378
L130.39 309.278
L132.949 310.457
L135.509 311.894
L138.068 313.564
L140.627 315.443
L144.466 318.587
L148.305 322.027
L155.983 329.329
L162.381 335.272
L166.22 338.547
L170.059 341.494
L172.618 343.243
L175.177 344.804
L177.737 346.168
L180.296 347.331
L182.855 348.292
L185.414 349.057
L187.974 349.631
L190.533 350.024
L193.092 350.249
L196.931 350.299
L200.77 350.049
L204.609 349.553
L209.727 348.597
L216.126 347.095
L235.32 342.328
L241.718 341.082
L246.837 340.291
L251.955 339.698
L257.074 339.303
L262.192 339.094
L268.591 339.069
L274.989 339.261
L283.946 339.786
L317.217 342.073
L327.454 342.393
L337.691 342.482
L350.487 342.348
L402.952 341.483
L424.706 341.535
L481.01 341.774
L697.268 341.705
L697.268 341.705" style="fill:none;stroke:#e31a1a;stroke-linecap:square;"/>
   </g>
   <g id="line2d_60">
    <path clip-path="url(#p64d642aa21)" d="
M58.7306 405.54
L60.0103 403.794
L61.2899 401.244
L63.8492 394.561
L68.9677 379.83
L75.3659 361.453
L79.2048 351.003
L83.0437 341.223
L86.8826 332.236
L89.4418 326.727
L92.0011 321.624
L94.5604 316.939
L97.1196 312.68
L99.6789 308.852
L102.238 305.458
L104.797 302.498
L107.357 299.972
L109.916 297.875
L112.475 296.203
L115.035 294.949
L117.594 294.105
L120.153 293.661
L122.712 293.605
L125.272 293.924
L127.831 294.6
L130.39 295.616
L132.949 296.951
L135.509 298.58
L138.068 300.477
L140.627 302.613
L144.466 306.192
L148.305 310.112
L154.703 317.042
L161.101 323.916
L164.94 327.764
L168.779 331.271
L171.338 333.376
L173.898 335.274
L176.457 336.952
L179.016 338.402
L181.575 339.622
L184.135 340.615
L186.694 341.385
L189.253 341.943
L191.813 342.301
L194.372 342.473
L196.931 342.475
L200.77 342.197
L204.609 341.636
L208.448 340.852
L213.566 339.559
L221.244 337.339
L231.481 334.389
L237.879 332.791
L242.998 331.724
L248.116 330.874
L253.235 330.25
L258.354 329.849
L263.472 329.658
L269.87 329.68
L276.268 329.938
L283.946 330.467
L317.217 333.08
L326.174 333.417
L335.132 333.548
L346.648 333.47
L363.284 333.089
L387.597 332.547
L404.232 332.408
L424.706 332.47
L479.73 332.744
L697.268 332.664
L697.268 332.664" style="fill:none;stroke:#e31a1a;stroke-linecap:square;"/>
   </g>
   <g id="patch_14">
    <path d="
M58.7306 287.28
L697.268 287.28" style="fill:none;stroke:#000000;stroke-linecap:square;stroke-linejoin:miter;"/>
   </g>
   <g id="patch_15">
    <path d="
M697.268 405.72
L697.268 287.28" style="fill:none;stroke:#000000;stroke-linecap:square;stroke-linejoin:miter;"/>
   </g>
   <g id="patch_16">
    <path d="
M58.7306 405.72
L697.268 405.72" style="fill:none;stroke:#000000;stroke-linecap:square;stroke-linejoin:miter;"/>
   </g>
   <g id="patch_17">
    <path d="
M58.7306 405.72
L58.7306 287.28" style="fill:none;stroke:#000000;stroke-linecap:square;stroke-linejoin:miter;"/>
   </g>
   <g id="matplotlib.axis_5"/>
   <g id="matplotlib.axis_6">
    <g id="ytick_11">
     <g id="line2d_61">
      <g>
       <use style="stroke:#000000;stroke-width:0.5;" x="58.730625" xlink:href="#m728421d6d4" y="405.72"/>
      </g>
     </g>
     <g id="line2d_62">
      <g>
       <use style="stroke:#000000;stroke-width:0.5;" x="697.26796875" xlink:href="#mcb0005524f" y="405.72"/>
      </g>
     </g>
     <g id="text_21">
      <!-- 0.0 -->
      <g transform="translate(40.1509375 408.479375)scale(0.1 -0.1)">
       <use xlink:href="#BitstreamVeraSans-Roman-30"/>
       <use x="63.623046875" xlink:href="#BitstreamVeraSans-Roman-2e"/>
       <use x="95.41015625" xlink:href="#BitstreamVeraSans-Roman-30"/>
      </g>
     </g>
    </g>
    <g id="ytick_12">
     <g id="line2d_63">
      <g>
       <use style="stroke:#000000;stroke-width:0.5;" x="58.730625" xlink:href="#m728421d6d4" y="385.98"/>
      </g>
     </g>
     <g id="line2d_64">
      <g>
       <use style="stroke:#000000;stroke-width:0.5;" x="697.26796875" xlink:href="#mcb0005524f" y="385.98"/>
      </g>
     </g>
     <g id="text_22">
      <!-- 0.5 -->
      <g transform="translate(40.3603125 388.739375)scale(0.1 -0.1)">
       <use xlink:href="#BitstreamVeraSans-Roman-30"/>
       <use x="63.623046875" xlink:href="#BitstreamVeraSans-Roman-2e"/>
       <use x="95.41015625" xlink:href="#BitstreamVeraSans-Roman-35"/>
      </g>
     </g>
    </g>
    <g id="ytick_13">
     <g id="line2d_65">
      <g>
       <use style="stroke:#000000;stroke-width:0.5;" x="58.730625" xlink:href="#m728421d6d4" y="366.24"/>
      </g>
     </g>
     <g id="line2d_66">
      <g>
       <use style="stroke:#000000;stroke-width:0.5;" x="697.26796875" xlink:href="#mcb0005524f" y="366.24"/>
      </g>
     </g>
     <g id="text_23">
      <!-- 1.0 -->
      <g transform="translate(40.59 368.999375)scale(0.1 -0.1)">
       <use xlink:href="#BitstreamVeraSans-Roman-31"/>
       <use x="63.623046875" xlink:href="#BitstreamVeraSans-Roman-2e"/>
       <use x="95.41015625" xlink:href="#BitstreamVeraSans-Roman-30"/>
      </g>
     </g>
    </g>
    <g id="ytick_14">
     <g id="line2d_67">
      <g>
       <use style="stroke:#000000;stroke-width:0.5;" x="58.730625" xlink:href="#m728421d6d4" y="346.5"/>
      </g>
     </g>
     <g id="line2d_68">
      <g>
       <use style="stroke:#000000;stroke-width:0.5;" x="697.26796875" xlink:href="#mcb0005524f" y="346.5"/>
      </g>
     </g>
     <g id="text_24">
      <!-- 1.5 -->
      <g transform="translate(40.799375 349.259375)scale(0.1 -0.1)">
       <use xlink:href="#BitstreamVeraSans-Roman-31"/>
       <use x="63.623046875" xlink:href="#BitstreamVeraSans-Roman-2e"/>
       <use x="95.41015625" xlink:href="#BitstreamVeraSans-Roman-35"/>
      </g>
     </g>
    </g>
    <g id="ytick_15">
     <g id="line2d_69">
      <g>
       <use style="stroke:#000000;stroke-width:0.5;" x="58.730625" xlink:href="#m728421d6d4" y="326.76"/>
      </g>
     </g>
     <g id="line2d_70">
      <g>
       <use style="stroke:#000000;stroke-width:0.5;" x="697.26796875" xlink:href="#mcb0005524f" y="326.76"/>
      </g>
     </g>
     <g id="text_25">
      <!-- 2.0 -->
      <g transform="translate(40.224375 329.519375)scale(0.1 -0.1)">
       <use xlink:href="#BitstreamVeraSans-Roman-32"/>
       <use x="63.623046875" xlink:href="#BitstreamVeraSans-Roman-2e"/>
       <use x="95.41015625" xlink:href="#BitstreamVeraSans-Roman-30"/>
      </g>
     </g>
    </g>
    <g id="ytick_16">
     <g id="line2d_71">
      <g>
       <use style="stroke:#000000;stroke-width:0.5;" x="58.730625" xlink:href="#m728421d6d4" y="307.02"/>
      </g>
     </g>
     <g id="line2d_72">
      <g>
       <use style="stroke:#000000;stroke-width:0.5;" x="697.26796875" xlink:href="#mcb0005524f" y="307.02"/>
      </g>
     </g>
     <g id="text_26">
      <!-- 2.5 -->
      <g transform="translate(40.43375 309.779375)scale(0.1 -0.1)">
       <use xlink:href="#BitstreamVeraSans-Roman-32"/>
       <use x="63.623046875" xlink:href="#BitstreamVeraSans-Roman-2e"/>
       <use x="95.41015625" xlink:href="#BitstreamVeraSans-Roman-35"/>
      </g>
     </g>
    </g>
    <g id="ytick_17">
     <g id="line2d_73">
      <g>
       <use style="stroke:#000000;stroke-width:0.5;" x="58.730625" xlink:href="#m728421d6d4" y="287.28"/>
      </g>
     </g>
     <g id="line2d_74">
      <g>
       <use style="stroke:#000000;stroke-width:0.5;" x="697.26796875" xlink:href="#mcb0005524f" y="287.28"/>
      </g>
     </g>
     <g id="text_27">
      <!-- 3.0 -->
      <g transform="translate(40.2540625 290.039375)scale(0.1 -0.1)">
       <use xlink:href="#BitstreamVeraSans-Roman-33"/>
       <use x="63.623046875" xlink:href="#BitstreamVeraSans-Roman-2e"/>
       <use x="95.41015625" xlink:href="#BitstreamVeraSans-Roman-30"/>
      </g>
     </g>
    </g>
    <g id="text_28">
     <!-- g (uS/nF) -->
     <defs>
      <path d="
M25.6875 72.9062
L36.5312 72.9062
L10.7969 -9.28125
L0 -9.28125
z
" id="BitstreamVeraSans-Bold-2f"/>
      <path d="
M59.9062 70.6094
L59.9062 55.1719
Q53.9062 57.8594 48.1875 59.2188
Q42.4844 60.5938 37.4062 60.5938
Q30.6719 60.5938 27.4375 58.7344
Q24.2188 56.8906 24.2188 52.9844
Q24.2188 50.0469 26.3906 48.4062
Q28.5625 46.7812 34.2812 45.6094
L42.2812 44
Q54.4375 41.5469 59.5625 36.5625
Q64.7031 31.5938 64.7031 22.4062
Q64.7031 10.3594 57.5469 4.46875
Q50.3906 -1.42188 35.6875 -1.42188
Q28.7656 -1.42188 21.7812 -0.09375
Q14.7969 1.21875 7.8125 3.8125
L7.8125 19.6719
Q14.7969 15.9688 21.3125 14.0781
Q27.8281 12.2031 33.8906 12.2031
Q40.0469 12.2031 43.3125 14.25
Q46.5781 16.3125 46.5781 20.125
Q46.5781 23.5312 44.3594 25.3906
Q42.1406 27.25 35.5 28.7188
L28.2188 30.3281
Q17.2812 32.6719 12.2188 37.7969
Q7.17188 42.9219 7.17188 51.6094
Q7.17188 62.5 14.2031 68.3594
Q21.2344 74.2188 34.4219 74.2188
Q40.4375 74.2188 46.7812 73.3125
Q53.125 72.4062 59.9062 70.6094" id="BitstreamVeraSans-Bold-53"/>
      <path d="
M7.8125 21.2969
L7.8125 54.6875
L25.3906 54.6875
L25.3906 49.2188
Q25.3906 44.7812 25.3438 38.0625
Q25.2969 31.3438 25.2969 29.1094
Q25.2969 22.5156 25.6406 19.6094
Q25.9844 16.7031 26.8125 15.375
Q27.875 13.6719 29.6094 12.7344
Q31.3438 11.8125 33.5938 11.8125
Q39.0625 11.8125 42.1875 16.0156
Q45.3125 20.2188 45.3125 27.6875
L45.3125 54.6875
L62.7969 54.6875
L62.7969 0
L45.3125 0
L45.3125 7.90625
Q41.3594 3.125 36.9375 0.84375
Q32.5156 -1.42188 27.2031 -1.42188
Q17.7188 -1.42188 12.7656 4.39062
Q7.8125 10.2031 7.8125 21.2969" id="BitstreamVeraSans-Bold-75"/>
      <path d="
M45.6094 9.28125
Q42 4.5 37.6406 2.25
Q33.2969 0 27.5938 0
Q17.5781 0 11.0312 7.875
Q4.5 15.7656 4.5 27.9844
Q4.5 40.2344 11.0312 48.0625
Q17.5781 55.9062 27.5938 55.9062
Q33.2969 55.9062 37.6406 53.6562
Q42 51.4219 45.6094 46.5781
L45.6094 54.6875
L63.1875 54.6875
L63.1875 5.51562
Q63.1875 -7.67188 54.8594 -14.625
Q46.5312 -21.5781 30.7188 -21.5781
Q25.5938 -21.5781 20.7969 -20.7969
Q16.0156 -20.0156 11.1875 -18.4062
L11.1875 -4.78125
Q15.7656 -7.42188 20.1562 -8.71875
Q24.5625 -10.0156 29 -10.0156
Q37.5938 -10.0156 41.5938 -6.25
Q45.6094 -2.48438 45.6094 5.51562
z

M34.0781 43.3125
Q28.6562 43.3125 25.625 39.2969
Q22.6094 35.2969 22.6094 27.9844
Q22.6094 20.4531 25.5312 16.5781
Q28.4688 12.7031 34.0781 12.7031
Q39.5469 12.7031 42.5781 16.7031
Q45.6094 20.7031 45.6094 27.9844
Q45.6094 35.2969 42.5781 39.2969
Q39.5469 43.3125 34.0781 43.3125" id="BitstreamVeraSans-Bold-67"/>
      <path d="
M9.1875 72.9062
L59.9062 72.9062
L59.9062 58.6875
L27.9844 58.6875
L27.9844 45.125
L58.0156 45.125
L58.0156 30.9062
L27.9844 30.9062
L27.9844 0
L9.1875 0
z
" id="BitstreamVeraSans-Bold-46"/>
     </defs>
     <g transform="translate(32.993125 371.921875)rotate(-90.0)scale(0.1 -0.1)">
      <use xlink:href="#BitstreamVeraSans-Bold-67"/>
      <use x="71.58203125" xlink:href="#BitstreamVeraSans-Bold-20"/>
      <use x="106.396484375" xlink:href="#BitstreamVeraSans-Bold-28"/>
      <use x="152.099609375" xlink:href="#BitstreamVeraSans-Bold-75"/>
      <use x="223.291015625" xlink:href="#BitstreamVeraSans-Bold-53"/>
      <use x="295.3125" xlink:href="#BitstreamVeraSans-Bold-2f"/>
      <use x="331.8359375" xlink:href="#BitstreamVeraSans-Bold-6e"/>
      <use x="403.02734375" xlink:href="#BitstreamVeraSans-Bold-46"/>
      <use x="471.337890625" xlink:href="#BitstreamVeraSans-Bold-29"/>
     </g>
    </g>
   </g>
  </g>
  <g id="axes_4">
   <g id="patch_18">
    <path d="
M58.7306 543.96
L697.268 543.96
L697.268 425.52
L58.7306 425.52
z
" style="fill:#ffffff;"/>
   </g>
   <g id="line2d_75">
    <path clip-path="url(#p05ad1eb429)" d="
M58.7306 469.935
L60.0103 465.151
L61.2899 460.462
L62.5695 456.433
L63.8492 452.94
L65.1288 449.914
L66.4084 447.322
L67.6881 445.143
L68.9677 443.355
L70.2473 441.933
L71.527 440.852
L72.8066 440.088
L74.0862 439.616
L75.3659 439.413
L76.6455 439.456
L77.9251 439.725
L79.2048 440.199
L80.4844 440.862
L81.764 441.696
L83.0437 442.686
L85.6029 445.082
L88.1622 447.95
L90.7215 451.209
L93.2807 454.788
L97.1196 460.63
L100.959 466.892
L106.077 475.656
L121.433 502.321
L126.551 510.569
L130.39 516.314
L134.229 521.576
L136.788 524.77
L139.348 527.68
L141.907 530.281
L144.466 532.552
L147.025 534.472
L149.585 536.027
L152.144 537.209
L154.703 538.013
L157.262 538.445
L159.822 538.517
L162.381 538.247
L164.94 537.66
L167.5 536.788
L170.059 535.666
L172.618 534.332
L176.457 532.022
L181.575 528.575
L191.813 521.497
L195.651 519.078
L199.49 516.892
L203.329 514.984
L207.168 513.376
L211.007 512.08
L214.846 511.093
L218.685 510.402
L222.524 509.987
L226.363 509.823
L230.202 509.881
L234.04 510.129
L239.159 510.699
L245.557 511.691
L255.794 513.596
L267.311 515.688
L274.989 516.82
L281.387 517.53
L287.785 518.009
L294.183 518.26
L300.581 518.306
L308.259 518.141
L318.496 517.672
L347.928 516.159
L359.445 515.873
L372.241 515.805
L388.876 515.984
L428.545 516.513
L451.578 516.523
L533.475 516.344
L628.168 516.373
L697.268 516.374
L697.268 516.374" style="fill:none;stroke:#0000ff;stroke-linecap:square;stroke-width:2;"/>
   </g>
   <g id="patch_19">
    <path d="
M58.7306 425.52
L697.268 425.52" style="fill:none;stroke:#000000;stroke-linecap:square;stroke-linejoin:miter;"/>
   </g>
   <g id="patch_20">
    <path d="
M697.268 543.96
L697.268 425.52" style="fill:none;stroke:#000000;stroke-linecap:square;stroke-linejoin:miter;"/>
   </g>
   <g id="patch_21">
    <path d="
M58.7306 543.96
L697.268 543.96" style="fill:none;stroke:#000000;stroke-linecap:square;stroke-linejoin:miter;"/>
   </g>
   <g id="patch_22">
    <path d="
M58.7306 543.96
L58.7306 425.52" style="fill:none;stroke:#000000;stroke-linecap:square;stroke-linejoin:miter;"/>
   </g>
   <g id="matplotlib.axis_7"/>
   <g id="matplotlib.axis_8">
    <g id="ytick_18">
     <g id="line2d_76">
      <g>
       <use style="stroke:#000000;stroke-width:0.5;" x="58.730625" xlink:href="#m728421d6d4" y="543.96"/>
      </g>
     </g>
     <g id="line2d_77">
      <g>
       <use style="stroke:#000000;stroke-width:0.5;" x="697.26796875" xlink:href="#mcb0005524f" y="543.96"/>
      </g>
     </g>
     <g id="text_29">
      <!-- 0.0 -->
      <g transform="translate(40.1509375 546.719375)scale(0.1 -0.1)">
       <use xlink:href="#BitstreamVeraSans-Roman-30"/>
       <use x="63.623046875" xlink:href="#BitstreamVeraSans-Roman-2e"/>
       <use x="95.41015625" xlink:href="#BitstreamVeraSans-Roman-30"/>
      </g>
     </g>
    </g>
    <g id="ytick_19">
     <g id="line2d_78">
      <g>
       <use style="stroke:#000000;stroke-width:0.5;" x="58.730625" xlink:href="#m728421d6d4" y="529.155"/>
      </g>
     </g>
     <g id="line2d_79">
      <g>
       <use style="stroke:#000000;stroke-width:0.5;" x="697.26796875" xlink:href="#mcb0005524f" y="529.155"/>
      </g>
     </g>
     <g id="text_30">
      <!-- 0.2 -->
      <g transform="translate(40.4884375 531.914375)scale(0.1 -0.1)">
       <use xlink:href="#BitstreamVeraSans-Roman-30"/>
       <use x="63.623046875" xlink:href="#BitstreamVeraSans-Roman-2e"/>
       <use x="95.41015625" xlink:href="#BitstreamVeraSans-Roman-32"/>
      </g>
     </g>
    </g>
    <g id="ytick_20">
     <g id="line2d_80">
      <g>
       <use style="stroke:#000000;stroke-width:0.5;" x="58.730625" xlink:href="#m728421d6d4" y="514.35"/>
      </g>
     </g>
     <g id="line2d_81">
      <g>
       <use style="stroke:#000000;stroke-width:0.5;" x="697.26796875" xlink:href="#mcb0005524f" y="514.35"/>
      </g>
     </g>
     <g id="text_31">
      <!-- 0.4 -->
      <g transform="translate(40.0478125 517.109375)scale(0.1 -0.1)">
       <use xlink:href="#BitstreamVeraSans-Roman-30"/>
       <use x="63.623046875" xlink:href="#BitstreamVeraSans-Roman-2e"/>
       <use x="95.41015625" xlink:href="#BitstreamVeraSans-Roman-34"/>
      </g>
     </g>
    </g>
    <g id="ytick_21">
     <g id="line2d_82">
      <g>
       <use style="stroke:#000000;stroke-width:0.5;" x="58.730625" xlink:href="#m728421d6d4" y="499.545"/>
      </g>
     </g>
     <g id="line2d_83">
      <g>
       <use style="stroke:#000000;stroke-width:0.5;" x="697.26796875" xlink:href="#mcb0005524f" y="499.545"/>
      </g>
     </g>
     <g id="text_32">
      <!-- 0.6 -->
      <g transform="translate(40.1165625 502.304375)scale(0.1 -0.1)">
       <use xlink:href="#BitstreamVeraSans-Roman-30"/>
       <use x="63.623046875" xlink:href="#BitstreamVeraSans-Roman-2e"/>
       <use x="95.41015625" xlink:href="#BitstreamVeraSans-Roman-36"/>
      </g>
     </g>
    </g>
    <g id="ytick_22">
     <g id="line2d_84">
      <g>
       <use style="stroke:#000000;stroke-width:0.5;" x="58.730625" xlink:href="#m728421d6d4" y="484.74"/>
      </g>
     </g>
     <g id="line2d_85">
      <g>
       <use style="stroke:#000000;stroke-width:0.5;" x="697.26796875" xlink:href="#mcb0005524f" y="484.74"/>
      </g>
     </g>
     <g id="text_33">
      <!-- 0.8 -->
      <defs>
       <path d="
M31.7812 34.625
Q24.75 34.625 20.7188 30.8594
Q16.7031 27.0938 16.7031 20.5156
Q16.7031 13.9219 20.7188 10.1562
Q24.75 6.39062 31.7812 6.39062
Q38.8125 6.39062 42.8594 10.1719
Q46.9219 13.9688 46.9219 20.5156
Q46.9219 27.0938 42.8906 30.8594
Q38.875 34.625 31.7812 34.625
M21.9219 38.8125
Q15.5781 40.375 12.0312 44.7188
Q8.5 49.0781 8.5 55.3281
Q8.5 64.0625 14.7188 69.1406
Q20.9531 74.2188 31.7812 74.2188
Q42.6719 74.2188 48.875 69.1406
Q55.0781 64.0625 55.0781 55.3281
Q55.0781 49.0781 51.5312 44.7188
Q48 40.375 41.7031 38.8125
Q48.8281 37.1562 52.7969 32.3125
Q56.7812 27.4844 56.7812 20.5156
Q56.7812 9.90625 50.3125 4.23438
Q43.8438 -1.42188 31.7812 -1.42188
Q19.7344 -1.42188 13.25 4.23438
Q6.78125 9.90625 6.78125 20.5156
Q6.78125 27.4844 10.7812 32.3125
Q14.7969 37.1562 21.9219 38.8125
M18.3125 54.3906
Q18.3125 48.7344 21.8438 45.5625
Q25.3906 42.3906 31.7812 42.3906
Q38.1406 42.3906 41.7188 45.5625
Q45.3125 48.7344 45.3125 54.3906
Q45.3125 60.0625 41.7188 63.2344
Q38.1406 66.4062 31.7812 66.4062
Q25.3906 66.4062 21.8438 63.2344
Q18.3125 60.0625 18.3125 54.3906" id="BitstreamVeraSans-Roman-38"/>
      </defs>
      <g transform="translate(40.17125 487.499375)scale(0.1 -0.1)">
       <use xlink:href="#BitstreamVeraSans-Roman-30"/>
       <use x="63.623046875" xlink:href="#BitstreamVeraSans-Roman-2e"/>
       <use x="95.41015625" xlink:href="#BitstreamVeraSans-Roman-38"/>
      </g>
     </g>
    </g>
    <g id="ytick_23">
     <g id="line2d_86">
      <g>
       <use style="stroke:#000000;stroke-width:0.5;" x="58.730625" xlink:href="#m728421d6d4" y="469.935"/>
      </g>
     </g>
     <g id="line2d_87">
      <g>
       <use style="stroke:#000000;stroke-width:0.5;" x="697.26796875" xlink:href="#mcb0005524f" y="469.935"/>
      </g>
     </g>
     <g id="text_34">
      <!-- 1.0 -->
      <g transform="translate(40.59 472.694375)scale(0.1 -0.1)">
       <use xlink:href="#BitstreamVeraSans-Roman-31"/>
       <use x="63.623046875" xlink:href="#BitstreamVeraSans-Roman-2e"/>
       <use x="95.41015625" xlink:href="#BitstreamVeraSans-Roman-30"/>
      </g>
     </g>
    </g>
    <g id="ytick_24">
     <g id="line2d_88">
      <g>
       <use style="stroke:#000000;stroke-width:0.5;" x="58.730625" xlink:href="#m728421d6d4" y="455.13"/>
      </g>
     </g>
     <g id="line2d_89">
      <g>
       <use style="stroke:#000000;stroke-width:0.5;" x="697.26796875" xlink:href="#mcb0005524f" y="455.13"/>
      </g>
     </g>
     <g id="text_35">
      <!-- 1.2 -->
      <g transform="translate(40.9275 457.889375)scale(0.1 -0.1)">
       <use xlink:href="#BitstreamVeraSans-Roman-31"/>
       <use x="63.623046875" xlink:href="#BitstreamVeraSans-Roman-2e"/>
       <use x="95.41015625" xlink:href="#BitstreamVeraSans-Roman-32"/>
      </g>
     </g>
    </g>
    <g id="ytick_25">
     <g id="line2d_90">
      <g>
       <use style="stroke:#000000;stroke-width:0.5;" x="58.730625" xlink:href="#m728421d6d4" y="440.325"/>
      </g>
     </g>
     <g id="line2d_91">
      <g>
       <use style="stroke:#000000;stroke-width:0.5;" x="697.26796875" xlink:href="#mcb0005524f" y="440.325"/>
      </g>
     </g>
     <g id="text_36">
      <!-- 1.4 -->
      <g transform="translate(40.486875 443.084375)scale(0.1 -0.1)">
       <use xlink:href="#BitstreamVeraSans-Roman-31"/>
       <use x="63.623046875" xlink:href="#BitstreamVeraSans-Roman-2e"/>
       <use x="95.41015625" xlink:href="#BitstreamVeraSans-Roman-34"/>
      </g>
     </g>
    </g>
    <g id="ytick_26">
     <g id="line2d_92">
      <g>
       <use style="stroke:#000000;stroke-width:0.5;" x="58.730625" xlink:href="#m728421d6d4" y="425.52"/>
      </g>
     </g>
     <g id="line2d_93">
      <g>
       <use style="stroke:#000000;stroke-width:0.5;" x="697.26796875" xlink:href="#mcb0005524f" y="425.52"/>
      </g>
     </g>
     <g id="text_37">
      <!-- 1.6 -->
      <g transform="translate(40.555625 428.279375)scale(0.1 -0.1)">
       <use xlink:href="#BitstreamVeraSans-Roman-31"/>
       <use x="63.623046875" xlink:href="#BitstreamVeraSans-Roman-2e"/>
       <use x="95.41015625" xlink:href="#BitstreamVeraSans-Roman-36"/>
      </g>
     </g>
    </g>
    <g id="text_38">
     <!-- T conc. -->
     <defs>
      <path d="
M0.484375 72.9062
L67.6719 72.9062
L67.6719 58.6875
L43.5 58.6875
L43.5 0
L24.7031 0
L24.7031 58.6875
L0.484375 58.6875
z
" id="BitstreamVeraSans-Bold-54"/>
     </defs>
     <g transform="translate(32.968125 504.20328125)rotate(-90.0)scale(0.1 -0.1)">
      <use xlink:href="#BitstreamVeraSans-Bold-54"/>
      <use x="68.212890625" xlink:href="#BitstreamVeraSans-Bold-20"/>
      <use x="103.02734375" xlink:href="#BitstreamVeraSans-Bold-63"/>
      <use x="162.3046875" xlink:href="#BitstreamVeraSans-Bold-6f"/>
      <use x="231.005859375" xlink:href="#BitstreamVeraSans-Bold-6e"/>
      <use x="302.197265625" xlink:href="#BitstreamVeraSans-Bold-63"/>
      <use x="361.474609375" xlink:href="#BitstreamVeraSans-Bold-2e"/>
     </g>
    </g>
   </g>
  </g>
  <g id="axes_5">
   <g id="patch_23">
    <path d="
M58.7306 682.2
L697.268 682.2
L697.268 563.76
L58.7306 563.76
z
" style="fill:#ffffff;"/>
   </g>
   <g id="line2d_94">
    <path clip-path="url(#pd2799e3616)" d="
M58.7306 648.851
L60.0103 663.191
L61.2899 656.761
L62.5695 651.293
L65.1288 642.643
L67.6881 634.787
L70.2473 627.442
L72.8066 620.687
L75.3659 614.565
L77.9251 609.083
L80.4844 604.22
L83.0437 599.944
L85.6029 596.213
L88.1622 592.987
L90.7215 590.224
L93.2807 587.887
L95.84 585.943
L98.3993 584.362
L100.959 583.119
L103.518 582.191
L106.077 581.561
L108.636 581.213
L111.196 581.133
L113.755 581.313
L116.314 581.742
L118.873 582.412
L121.433 583.317
L123.992 584.448
L126.551 585.797
L129.11 587.355
L131.67 589.109
L135.509 592.073
L139.348 595.376
L144.466 600.15
L154.703 609.908
L158.542 613.237
L162.381 616.2
L164.94 617.93
L167.5 619.441
L170.059 620.725
L172.618 621.777
L175.177 622.6
L177.737 623.2
L180.296 623.588
L182.855 623.779
L185.414 623.789
L187.974 623.637
L191.813 623.146
L195.651 622.398
L200.77 621.115
L207.168 619.245
L219.965 615.459
L226.363 613.85
L231.481 612.784
L236.6 611.936
L241.718 611.315
L246.837 610.913
L251.955 610.716
L258.354 610.726
L264.752 610.967
L272.429 611.475
L287.785 612.794
L299.302 613.686
L308.259 614.179
L317.217 614.46
L327.454 614.539
L338.97 614.396
L392.715 613.404
L413.189 613.463
L469.493 613.737
L697.268 613.659
L697.268 613.659" style="fill:none;stroke:#0000ff;stroke-linecap:square;stroke-width:2;"/>
   </g>
   <g id="line2d_95">
    <path clip-path="url(#pd2799e3616)" d="
M58.7306 614.408
L697.268 614.408" style="fill:none;stroke:#ff0000;stroke-dasharray:6.000000,6.000000;stroke-dashoffset:0.0;stroke-width:2;"/>
   </g>
   <g id="patch_24">
    <path d="
M58.7306 563.76
L697.268 563.76" style="fill:none;stroke:#000000;stroke-linecap:square;stroke-linejoin:miter;"/>
   </g>
   <g id="patch_25">
    <path d="
M697.268 682.2
L697.268 563.76" style="fill:none;stroke:#000000;stroke-linecap:square;stroke-linejoin:miter;"/>
   </g>
   <g id="patch_26">
    <path d="
M58.7306 682.2
L697.268 682.2" style="fill:none;stroke:#000000;stroke-linecap:square;stroke-linejoin:miter;"/>
   </g>
   <g id="patch_27">
    <path d="
M58.7306 682.2
L58.7306 563.76" style="fill:none;stroke:#000000;stroke-linecap:square;stroke-linejoin:miter;"/>
   </g>
   <g id="matplotlib.axis_9">
    <g id="xtick_1">
     <g id="line2d_96">
      <defs>
       <path d="
M0 0
L0 -4" id="m93b0483c22" style="stroke:#000000;stroke-width:0.5;"/>
      </defs>
      <g>
       <use style="stroke:#000000;stroke-width:0.5;" x="58.730625" xlink:href="#m93b0483c22" y="682.2"/>
      </g>
     </g>
     <g id="line2d_97">
      <defs>
       <path d="
M0 0
L0 4" id="m741efc42ff" style="stroke:#000000;stroke-width:0.5;"/>
      </defs>
      <g>
       <use style="stroke:#000000;stroke-width:0.5;" x="58.730625" xlink:href="#m741efc42ff" y="563.76"/>
      </g>
     </g>
     <g id="text_39">
      <!-- 0 -->
      <g transform="translate(56.21109375 693.7984375)scale(0.1 -0.1)">
       <use xlink:href="#BitstreamVeraSans-Roman-30"/>
      </g>
     </g>
    </g>
    <g id="xtick_2">
     <g id="line2d_98">
      <g>
       <use style="stroke:#000000;stroke-width:0.5;" x="186.43809375" xlink:href="#m93b0483c22" y="682.2"/>
      </g>
     </g>
     <g id="line2d_99">
      <g>
       <use style="stroke:#000000;stroke-width:0.5;" x="186.43809375" xlink:href="#m741efc42ff" y="563.76"/>
      </g>
     </g>
     <g id="text_40">
      <!-- 200 -->
      <g transform="translate(177.59278125 693.7984375)scale(0.1 -0.1)">
       <use xlink:href="#BitstreamVeraSans-Roman-32"/>
       <use x="63.623046875" xlink:href="#BitstreamVeraSans-Roman-30"/>
       <use x="127.24609375" xlink:href="#BitstreamVeraSans-Roman-30"/>
      </g>
     </g>
    </g>
    <g id="xtick_3">
     <g id="line2d_100">
      <g>
       <use style="stroke:#000000;stroke-width:0.5;" x="314.1455625" xlink:href="#m93b0483c22" y="682.2"/>
      </g>
     </g>
     <g id="line2d_101">
      <g>
       <use style="stroke:#000000;stroke-width:0.5;" x="314.1455625" xlink:href="#m741efc42ff" y="563.76"/>
      </g>
     </g>
     <g id="text_41">
      <!-- 400 -->
      <g transform="translate(305.178375 693.7984375)scale(0.1 -0.1)">
       <use xlink:href="#BitstreamVeraSans-Roman-34"/>
       <use x="63.623046875" xlink:href="#BitstreamVeraSans-Roman-30"/>
       <use x="127.24609375" xlink:href="#BitstreamVeraSans-Roman-30"/>
      </g>
     </g>
    </g>
    <g id="xtick_4">
     <g id="line2d_102">
      <g>
       <use style="stroke:#000000;stroke-width:0.5;" x="441.85303125" xlink:href="#m93b0483c22" y="682.2"/>
      </g>
     </g>
     <g id="line2d_103">
      <g>
       <use style="stroke:#000000;stroke-width:0.5;" x="441.85303125" xlink:href="#m741efc42ff" y="563.76"/>
      </g>
     </g>
     <g id="text_42">
      <!-- 600 -->
      <g transform="translate(432.99053125 693.7984375)scale(0.1 -0.1)">
       <use xlink:href="#BitstreamVeraSans-Roman-36"/>
       <use x="63.623046875" xlink:href="#BitstreamVeraSans-Roman-30"/>
       <use x="127.24609375" xlink:href="#BitstreamVeraSans-Roman-30"/>
      </g>
     </g>
    </g>
    <g id="xtick_5">
     <g id="line2d_104">
      <g>
       <use style="stroke:#000000;stroke-width:0.5;" x="569.5605" xlink:href="#m93b0483c22" y="682.2"/>
      </g>
     </g>
     <g id="line2d_105">
      <g>
       <use style="stroke:#000000;stroke-width:0.5;" x="569.5605" xlink:href="#m741efc42ff" y="563.76"/>
      </g>
     </g>
     <g id="text_43">
      <!-- 800 -->
      <g transform="translate(560.68784375 693.7984375)scale(0.1 -0.1)">
       <use xlink:href="#BitstreamVeraSans-Roman-38"/>
       <use x="63.623046875" xlink:href="#BitstreamVeraSans-Roman-30"/>
       <use x="127.24609375" xlink:href="#BitstreamVeraSans-Roman-30"/>
      </g>
     </g>
    </g>
    <g id="xtick_6">
     <g id="line2d_106">
      <g>
       <use style="stroke:#000000;stroke-width:0.5;" x="697.26796875" xlink:href="#m93b0483c22" y="682.2"/>
      </g>
     </g>
     <g id="line2d_107">
      <g>
       <use style="stroke:#000000;stroke-width:0.5;" x="697.26796875" xlink:href="#m741efc42ff" y="563.76"/>
      </g>
     </g>
     <g id="text_44">
      <!-- 1000 -->
      <g transform="translate(685.42421875 693.7984375)scale(0.1 -0.1)">
       <use xlink:href="#BitstreamVeraSans-Roman-31"/>
       <use x="63.623046875" xlink:href="#BitstreamVeraSans-Roman-30"/>
       <use x="127.24609375" xlink:href="#BitstreamVeraSans-Roman-30"/>
       <use x="190.869140625" xlink:href="#BitstreamVeraSans-Roman-30"/>
      </g>
     </g>
    </g>
    <g id="text_45">
     <!-- time (a.u.) -->
     <g transform="translate(348.680546875 708.4765625)scale(0.1 -0.1)">
      <use xlink:href="#BitstreamVeraSans-Bold-74"/>
      <use x="47.802734375" xlink:href="#BitstreamVeraSans-Bold-69"/>
      <use x="82.080078125" xlink:href="#BitstreamVeraSans-Bold-6d"/>
      <use x="186.279296875" xlink:href="#BitstreamVeraSans-Bold-65"/>
      <use x="254.1015625" xlink:href="#BitstreamVeraSans-Bold-20"/>
      <use x="288.916015625" xlink:href="#BitstreamVeraSans-Bold-28"/>
      <use x="334.619140625" xlink:href="#BitstreamVeraSans-Bold-61"/>
      <use x="402.099609375" xlink:href="#BitstreamVeraSans-Bold-2e"/>
      <use x="440.087890625" xlink:href="#BitstreamVeraSans-Bold-75"/>
      <use x="511.279296875" xlink:href="#BitstreamVeraSans-Bold-2e"/>
      <use x="549.267578125" xlink:href="#BitstreamVeraSans-Bold-29"/>
     </g>
    </g>
   </g>
   <g id="matplotlib.axis_10">
    <g id="ytick_27">
     <g id="line2d_108">
      <g>
       <use style="stroke:#000000;stroke-width:0.5;" x="58.730625" xlink:href="#m728421d6d4" y="682.2"/>
      </g>
     </g>
     <g id="line2d_109">
      <g>
       <use style="stroke:#000000;stroke-width:0.5;" x="697.26796875" xlink:href="#mcb0005524f" y="682.2"/>
      </g>
     </g>
     <g id="text_46">
      <!-- 0.1 -->
      <g transform="translate(40.4103125 684.959375)scale(0.1 -0.1)">
       <use xlink:href="#BitstreamVeraSans-Roman-30"/>
       <use x="63.623046875" xlink:href="#BitstreamVeraSans-Roman-2e"/>
       <use x="95.41015625" xlink:href="#BitstreamVeraSans-Roman-31"/>
      </g>
     </g>
    </g>
    <g id="ytick_28">
     <g id="line2d_110">
      <g>
       <use style="stroke:#000000;stroke-width:0.5;" x="58.730625" xlink:href="#m728421d6d4" y="662.46"/>
      </g>
     </g>
     <g id="line2d_111">
      <g>
       <use style="stroke:#000000;stroke-width:0.5;" x="697.26796875" xlink:href="#mcb0005524f" y="662.46"/>
      </g>
     </g>
     <g id="text_47">
      <!-- 0.2 -->
      <g transform="translate(40.4884375 665.219375)scale(0.1 -0.1)">
       <use xlink:href="#BitstreamVeraSans-Roman-30"/>
       <use x="63.623046875" xlink:href="#BitstreamVeraSans-Roman-2e"/>
       <use x="95.41015625" xlink:href="#BitstreamVeraSans-Roman-32"/>
      </g>
     </g>
    </g>
    <g id="ytick_29">
     <g id="line2d_112">
      <g>
       <use style="stroke:#000000;stroke-width:0.5;" x="58.730625" xlink:href="#m728421d6d4" y="642.72"/>
      </g>
     </g>
     <g id="line2d_113">
      <g>
       <use style="stroke:#000000;stroke-width:0.5;" x="697.26796875" xlink:href="#mcb0005524f" y="642.72"/>
      </g>
     </g>
     <g id="text_48">
      <!-- 0.3 -->
      <g transform="translate(40.2884375 645.479375)scale(0.1 -0.1)">
       <use xlink:href="#BitstreamVeraSans-Roman-30"/>
       <use x="63.623046875" xlink:href="#BitstreamVeraSans-Roman-2e"/>
       <use x="95.41015625" xlink:href="#BitstreamVeraSans-Roman-33"/>
      </g>
     </g>
    </g>
    <g id="ytick_30">
     <g id="line2d_114">
      <g>
       <use style="stroke:#000000;stroke-width:0.5;" x="58.730625" xlink:href="#m728421d6d4" y="622.98"/>
      </g>
     </g>
     <g id="line2d_115">
      <g>
       <use style="stroke:#000000;stroke-width:0.5;" x="697.26796875" xlink:href="#mcb0005524f" y="622.98"/>
      </g>
     </g>
     <g id="text_49">
      <!-- 0.4 -->
      <g transform="translate(40.0478125 625.739375)scale(0.1 -0.1)">
       <use xlink:href="#BitstreamVeraSans-Roman-30"/>
       <use x="63.623046875" xlink:href="#BitstreamVeraSans-Roman-2e"/>
       <use x="95.41015625" xlink:href="#BitstreamVeraSans-Roman-34"/>
      </g>
     </g>
    </g>
    <g id="ytick_31">
     <g id="line2d_116">
      <g>
       <use style="stroke:#000000;stroke-width:0.5;" x="58.730625" xlink:href="#m728421d6d4" y="603.24"/>
      </g>
     </g>
     <g id="line2d_117">
      <g>
       <use style="stroke:#000000;stroke-width:0.5;" x="697.26796875" xlink:href="#mcb0005524f" y="603.24"/>
      </g>
     </g>
     <g id="text_50">
      <!-- 0.5 -->
      <g transform="translate(40.3603125 605.999375)scale(0.1 -0.1)">
       <use xlink:href="#BitstreamVeraSans-Roman-30"/>
       <use x="63.623046875" xlink:href="#BitstreamVeraSans-Roman-2e"/>
       <use x="95.41015625" xlink:href="#BitstreamVeraSans-Roman-35"/>
      </g>
     </g>
    </g>
    <g id="ytick_32">
     <g id="line2d_118">
      <g>
       <use style="stroke:#000000;stroke-width:0.5;" x="58.730625" xlink:href="#m728421d6d4" y="583.5"/>
      </g>
     </g>
     <g id="line2d_119">
      <g>
       <use style="stroke:#000000;stroke-width:0.5;" x="697.26796875" xlink:href="#mcb0005524f" y="583.5"/>
      </g>
     </g>
     <g id="text_51">
      <!-- 0.6 -->
      <g transform="translate(40.1165625 586.259375)scale(0.1 -0.1)">
       <use xlink:href="#BitstreamVeraSans-Roman-30"/>
       <use x="63.623046875" xlink:href="#BitstreamVeraSans-Roman-2e"/>
       <use x="95.41015625" xlink:href="#BitstreamVeraSans-Roman-36"/>
      </g>
     </g>
    </g>
    <g id="ytick_33">
     <g id="line2d_120">
      <g>
       <use style="stroke:#000000;stroke-width:0.5;" x="58.730625" xlink:href="#m728421d6d4" y="563.76"/>
      </g>
     </g>
     <g id="line2d_121">
      <g>
       <use style="stroke:#000000;stroke-width:0.5;" x="697.26796875" xlink:href="#mcb0005524f" y="563.76"/>
      </g>
     </g>
     <g id="text_52">
      <!-- 0.7 -->
      <g transform="translate(40.3415625 566.519375)scale(0.1 -0.1)">
       <use xlink:href="#BitstreamVeraSans-Roman-30"/>
       <use x="63.623046875" xlink:href="#BitstreamVeraSans-Roman-2e"/>
       <use x="95.41015625" xlink:href="#BitstreamVeraSans-Roman-37"/>
      </g>
     </g>
    </g>
    <g id="text_53">
     <!-- ca conc. -->
     <g transform="translate(32.968125 645.370625)rotate(-90.0)scale(0.1 -0.1)">
      <use xlink:href="#BitstreamVeraSans-Bold-63"/>
      <use x="59.27734375" xlink:href="#BitstreamVeraSans-Bold-61"/>
      <use x="126.7578125" xlink:href="#BitstreamVeraSans-Bold-20"/>
      <use x="161.572265625" xlink:href="#BitstreamVeraSans-Bold-63"/>
      <use x="220.849609375" xlink:href="#BitstreamVeraSans-Bold-6f"/>
      <use x="289.55078125" xlink:href="#BitstreamVeraSans-Bold-6e"/>
      <use x="360.7421875" xlink:href="#BitstreamVeraSans-Bold-63"/>
      <use x="420.01953125" xlink:href="#BitstreamVeraSans-Bold-2e"/>
     </g>
    </g>
   </g>
   <g id="legend_2">
    <g id="patch_28">
     <path d="
M595.598 676.2
L691.268 676.2
L691.268 654.986
L595.598 654.986
z
" style="fill:#ffffff;stroke:#000000;stroke-linejoin:miter;"/>
    </g>
    <g id="line2d_122">
     <path d="
M603.998 664.704
L620.798 664.704" style="fill:none;stroke:#ff0000;stroke-dasharray:6.000000,6.000000;stroke-dashoffset:0.0;stroke-width:2;"/>
    </g>
    <g id="line2d_123"/>
    <g id="text_54">
     <!-- set point -->
     <defs>
      <path d="
M56.2031 29.5938
L56.2031 25.2031
L14.8906 25.2031
Q15.4844 15.9219 20.4844 11.0625
Q25.4844 6.20312 34.4219 6.20312
Q39.5938 6.20312 44.4531 7.46875
Q49.3125 8.73438 54.1094 11.2812
L54.1094 2.78125
Q49.2656 0.734375 44.1875 -0.34375
Q39.1094 -1.42188 33.8906 -1.42188
Q20.7969 -1.42188 13.1562 6.1875
Q5.51562 13.8125 5.51562 26.8125
Q5.51562 40.2344 12.7656 48.1094
Q20.0156 56 32.3281 56
Q43.3594 56 49.7812 48.8906
Q56.2031 41.7969 56.2031 29.5938
M47.2188 32.2344
Q47.125 39.5938 43.0938 43.9844
Q39.0625 48.3906 32.4219 48.3906
Q24.9062 48.3906 20.3906 44.1406
Q15.875 39.8906 15.1875 32.1719
z
" id="BitstreamVeraSans-Roman-65"/>
      <path d="
M54.8906 33.0156
L54.8906 0
L45.9062 0
L45.9062 32.7188
Q45.9062 40.4844 42.875 44.3281
Q39.8438 48.1875 33.7969 48.1875
Q26.5156 48.1875 22.3125 43.5469
Q18.1094 38.9219 18.1094 30.9062
L18.1094 0
L9.07812 0
L9.07812 54.6875
L18.1094 54.6875
L18.1094 46.1875
Q21.3438 51.125 25.7031 53.5625
Q30.0781 56 35.7969 56
Q45.2188 56 50.0469 50.1719
Q54.8906 44.3438 54.8906 33.0156" id="BitstreamVeraSans-Roman-6e"/>
      <path d="
M18.3125 70.2188
L18.3125 54.6875
L36.8125 54.6875
L36.8125 47.7031
L18.3125 47.7031
L18.3125 18.0156
Q18.3125 11.3281 20.1406 9.42188
Q21.9688 7.51562 27.5938 7.51562
L36.8125 7.51562
L36.8125 0
L27.5938 0
Q17.1875 0 13.2344 3.875
Q9.28125 7.76562 9.28125 18.0156
L9.28125 47.7031
L2.6875 47.7031
L2.6875 54.6875
L9.28125 54.6875
L9.28125 70.2188
z
" id="BitstreamVeraSans-Roman-74"/>
      <path d="
M9.42188 54.6875
L18.4062 54.6875
L18.4062 0
L9.42188 0
z

M9.42188 75.9844
L18.4062 75.9844
L18.4062 64.5938
L9.42188 64.5938
z
" id="BitstreamVeraSans-Roman-69"/>
      <path d="
M44.2812 53.0781
L44.2812 44.5781
Q40.4844 46.5312 36.375 47.5
Q32.2812 48.4844 27.875 48.4844
Q21.1875 48.4844 17.8438 46.4375
Q14.5 44.3906 14.5 40.2812
Q14.5 37.1562 16.8906 35.375
Q19.2812 33.5938 26.5156 31.9844
L29.5938 31.2969
Q39.1562 29.25 43.1875 25.5156
Q47.2188 21.7812 47.2188 15.0938
Q47.2188 7.46875 41.1875 3.01562
Q35.1562 -1.42188 24.6094 -1.42188
Q20.2188 -1.42188 15.4531 -0.5625
Q10.6875 0.296875 5.42188 2
L5.42188 11.2812
Q10.4062 8.6875 15.2344 7.39062
Q20.0625 6.10938 24.8125 6.10938
Q31.1562 6.10938 34.5625 8.28125
Q37.9844 10.4531 37.9844 14.4062
Q37.9844 18.0625 35.5156 20.0156
Q33.0625 21.9688 24.7031 23.7812
L21.5781 24.5156
Q13.2344 26.2656 9.51562 29.9062
Q5.8125 33.5469 5.8125 39.8906
Q5.8125 47.6094 11.2812 51.7969
Q16.75 56 26.8125 56
Q31.7812 56 36.1719 55.2656
Q40.5781 54.5469 44.2812 53.0781" id="BitstreamVeraSans-Roman-73"/>
     </defs>
     <g transform="translate(633.99796875 668.904375)scale(0.12 -0.12)">
      <use xlink:href="#BitstreamVeraSans-Roman-73"/>
      <use x="52.099609375" xlink:href="#BitstreamVeraSans-Roman-65"/>
      <use x="113.623046875" xlink:href="#BitstreamVeraSans-Roman-74"/>
      <use x="152.83203125" xlink:href="#BitstreamVeraSans-Roman-20"/>
      <use x="184.619140625" xlink:href="#BitstreamVeraSans-Roman-70"/>
      <use x="248.095703125" xlink:href="#BitstreamVeraSans-Roman-6f"/>
      <use x="309.27734375" xlink:href="#BitstreamVeraSans-Roman-69"/>
      <use x="337.060546875" xlink:href="#BitstreamVeraSans-Roman-6e"/>
      <use x="400.439453125" xlink:href="#BitstreamVeraSans-Roman-74"/>
     </g>
    </g>
   </g>
  </g>
 </g>
 <defs>
  <clipPath id="pd2799e3616">
   <rect height="118.44" width="638.53734375" x="58.730625" y="563.76"/>
  </clipPath>
  <clipPath id="p0ca233ff5b">
   <rect height="118.44" width="638.53734375" x="58.730625" y="10.8"/>
  </clipPath>
  <clipPath id="p64d642aa21">
   <rect height="118.44" width="638.53734375" x="58.730625" y="287.28"/>
  </clipPath>
  <clipPath id="p7d0fb9ec0d">
   <rect height="118.44" width="638.53734375" x="58.730625" y="149.04"/>
  </clipPath>
  <clipPath id="p05ad1eb429">
   <rect height="118.44" width="638.53734375" x="58.730625" y="425.52"/>
  </clipPath>
 </defs>
</svg>
