<?xml version="1.0" encoding="UTF-8" standalone="no"?>
<!-- Created with Inkscape (http://www.inkscape.org/) -->

<svg
   xmlns:dc="http://purl.org/dc/elements/1.1/"
   xmlns:cc="http://creativecommons.org/ns#"
   xmlns:rdf="http://www.w3.org/1999/02/22-rdf-syntax-ns#"
   xmlns:svg="http://www.w3.org/2000/svg"
   xmlns="http://www.w3.org/2000/svg"
   xmlns:xlink="http://www.w3.org/1999/xlink"
   xmlns:sodipodi="http://sodipodi.sourceforge.net/DTD/sodipodi-0.dtd"
   xmlns:inkscape="http://www.inkscape.org/namespaces/inkscape"
   width="744.09448819"
   height="1052.3622047"
   id="svg2"
   version="1.1"
   inkscape:version="0.48.4 r9939"
   sodipodi:docname="stg_model_final.svg">
  <defs
     id="defs4">
    <clipPath
       id="pdf2bc2c95a">
      <rect
         height="101.64706"
         width="202.90909"
         x="72"
         y="43.200001"
         id="rect428" />
    </clipPath>
    <clipPath
       id="pbd5a3a9a46">
      <rect
         height="101.64706"
         width="202.90909"
         x="315.49091"
         y="43.200001"
         id="rect431" />
    </clipPath>
    <clipPath
       id="p68273c1835">
      <rect
         height="101.64706"
         width="202.90909"
         x="72"
         y="165.17647"
         id="rect434" />
    </clipPath>
    <clipPath
       id="pf4132cbc21">
      <rect
         height="101.64706"
         width="202.90909"
         x="315.49091"
         y="165.17647"
         id="rect422" />
    </clipPath>
    <clipPath
       id="p5df05f4a8e">
      <rect
         height="101.64706"
         width="202.90909"
         x="72"
         y="287.15295"
         id="rect425" />
    </clipPath>
    <clipPath
       id="p8ca55fdb04">
      <rect
         height="101.64706"
         width="202.90909"
         x="315.49091"
         y="287.15295"
         id="rect437" />
    </clipPath>
    <clipPath
       id="pdf2bc2c95a-9">
      <rect
         height="101.64706"
         width="202.90909"
         x="72"
         y="43.200001"
         id="rect428-7" />
    </clipPath>
    <clipPath
       id="pbd5a3a9a46-1">
      <rect
         height="101.64706"
         width="202.90909"
         x="315.49091"
         y="43.200001"
         id="rect431-6" />
    </clipPath>
    <clipPath
       id="p68273c1835-2">
      <rect
         height="101.64706"
         width="202.90909"
         x="72"
         y="165.17647"
         id="rect434-8" />
    </clipPath>
    <clipPath
       id="pf4132cbc21-1">
      <rect
         height="101.64706"
         width="202.90909"
         x="315.49091"
         y="165.17647"
         id="rect422-7" />
    </clipPath>
    <clipPath
       id="p5df05f4a8e-2">
      <rect
         height="101.64706"
         width="202.90909"
         x="72"
         y="287.15295"
         id="rect425-3" />
    </clipPath>
    <clipPath
       id="p8ca55fdb04-5">
      <rect
         height="101.64706"
         width="202.90909"
         x="315.49091"
         y="287.15295"
         id="rect437-1" />
    </clipPath>
    <defs
       id="defs155-4">
      <path
         id="BitstreamVeraSans-Bold-78-5"
         d="M 22.2188,27.9844 2.48438,54.6875 21,54.6875 32.1719,38.4844 43.5,54.6875 l 18.5156,0 L 42.2812,28.0781 62.9844,0 44.4844,0 32.1719,17.2812 20.0156,0 1.51562,0 z"
         inkscape:connector-curvature="0" />
      <path
         id="BitstreamVeraSans-Bold-6e-7"
         d="M 63.375,33.2969 63.375,0 45.7969,0 l 0,5.42188 0,20.06252 q 0,7.0781 -0.3125,9.7656 -0.3125,2.6875 -1.0938,3.9531 -1.0312,1.7188 -2.7968,2.6719 -1.75,0.9531 -4,0.9531 Q 32.125,42.8281 29,38.5938 25.875,34.375 25.875,26.9062 L 25.875,0 8.40625,0 l 0,54.6875 17.46875,0 0,-8 q 3.9531,4.7813 8.3906,7.0469 Q 38.7188,56 44.0938,56 q 9.4687,0 14.375,-5.8125 4.9062,-5.7969 4.9062,-16.8906"
         inkscape:connector-curvature="0" />
    </defs>
    <defs
       id="defs81-2">
      <path
         id="BitstreamVeraSans-Bold-73-3"
         d="m 51.125,52.9844 0,-13.2813 q -5.6094,2.3438 -10.8438,3.5157 -5.2187,1.1718 -9.8593,1.1718 -4.9844,0 -7.4063,-1.25 -2.4062,-1.25 -2.4062,-3.8281 0,-2.1094 1.8281,-3.2344 Q 24.2656,34.9688 29,34.4219 l 3.0781,-0.4375 q 13.4375,-1.7032 18.0625,-5.6094 4.6406,-3.9062 4.6406,-12.2656 0,-8.7344 -6.4531,-13.14065 -6.4375,-4.39063 -19.2187,-4.39063 -5.4219,0 -11.2188,0.85938 Q 12.1094,0.296875 6,2 l 0,13.2812 q 5.2344,-2.5312 10.7188,-3.8124 5.5,-1.2657 11.1562,-1.2657 5.1406,0 7.7188,1.4063 2.5937,1.4218 2.5937,4.2187 0,2.3438 -1.7813,3.4844 -1.7812,1.1406 -7.1093,1.7813 l -3.0781,0.3906 q -11.6719,1.4687 -16.35942,5.4218 -4.6875,3.9532 -4.6875,12.0157 0,8.6875 5.95312,12.875 Q 17.0938,56 29.3906,56 34.2344,56 39.5469,55.2656 44.875,54.5469 51.125,52.9844"
         inkscape:connector-curvature="0" />
      <path
         id="BitstreamVeraSans-Bold-61-5"
         d="m 32.9062,24.6094 q -5.4687,0 -8.2343,-1.8594 -2.75,-1.8438 -2.75,-5.4688 0,-3.3124 2.2187,-5.2031 2.2344,-1.875 6.1875,-1.875 4.9219,0 8.2969,3.5313 Q 42,17.2812 42,22.6094 l 0,2 z M 59.625,31.2031 59.625,0 42,0 42,8.10938 Q 38.4844,3.125 34.0781,0.84375 29.6875,-1.42188 23.3906,-1.42188 q -8.5,0 -13.79685,4.95313 Q 4.29688,8.5 4.29688,16.4062 q 0,9.625 6.60932,14.1094 6.625,4.5 20.7813,4.5 l 10.3125,0 0,1.3594 q 0,4.1562 -3.2812,6.0781 -3.2657,1.9375 -10.2032,1.9375 -5.6094,0 -10.4531,-1.125 -4.8281,-1.125 -8.98438,-3.375 l 0,13.3282 Q 14.7031,54.5938 20.3594,55.2969 26.0312,56 31.6875,56 46.4844,56 53.0469,50.1719 59.625,44.3438 59.625,31.2031"
         inkscape:connector-curvature="0" />
      <path
         id="BitstreamVeraSans-Bold-6f-3"
         d="m 34.4219,43.5 q -5.8125,0 -8.8594,-4.1719 -3.0469,-4.1719 -3.0469,-12.0312 0,-7.8594 3.0469,-12.0469 3.0469,-4.1719 8.8594,-4.1719 5.7187,0 8.7343,4.1719 3.0313,4.1875 3.0313,12.0469 0,7.8593 -3.0313,12.0312 Q 40.1406,43.5 34.4219,43.5 m 0,12.5 q 14.1093,0 22.0469,-7.625 7.9374,-7.6094 7.9374,-21.0781 0,-13.4844 -7.9374,-21.1094 -7.9376,-7.60938 -22.0469,-7.60938 -14.1563,0 -22.1407,7.60938 -7.98432,7.625 -7.98432,21.1094 0,13.4687 7.98432,21.0781 Q 20.2656,56 34.4219,56"
         inkscape:connector-curvature="0" />
      <path
         id="BitstreamVeraSans-Bold-6d-1"
         d="m 59.0781,45.6094 q 3.3281,5.0781 7.8907,7.7344 Q 71.5312,56 77,56 q 9.4219,0 14.3594,-5.8125 4.9375,-5.7969 4.9375,-16.8906 l 0,-33.2969 -17.5781,0 0,28.5156 q 0.0468,0.6406 0.0624,1.3125 0.0313,0.6875 0.0313,1.9531 0,5.8126 -1.7187,8.4219 -1.7032,2.625 -5.5157,2.625 -4.9687,0 -7.6875,-4.1093 Q 61.1875,34.625 61.0781,26.8594 L 61.0781,0 43.5,0 l 0,28.5156 q 0,9.0782 -1.5625,11.6875 -1.5625,2.625 -5.5625,2.625 -5.0312,0 -7.7656,-4.125 Q 25.875,34.5781 25.875,26.9062 L 25.875,0 8.29688,0 l 0,54.6875 17.57812,0 0,-8 q 3.2344,4.625 7.4062,6.9687 Q 37.4531,56 42.4844,56 q 5.6562,0 10,-2.7344 4.3594,-2.7344 6.5937,-7.6562"
         inkscape:connector-curvature="0" />
    </defs>
    <defs
       id="defs155">
      <path
         id="BitstreamVeraSans-Bold-78"
         d="M 22.2188,27.9844 2.48438,54.6875 21,54.6875 32.1719,38.4844 43.5,54.6875 l 18.5156,0 L 42.2812,28.0781 62.9844,0 44.4844,0 32.1719,17.2812 20.0156,0 1.51562,0 z"
         inkscape:connector-curvature="0" />
      <path
         id="BitstreamVeraSans-Bold-6e"
         d="M 63.375,33.2969 63.375,0 45.7969,0 l 0,5.42188 0,20.06252 q 0,7.0781 -0.3125,9.7656 -0.3125,2.6875 -1.0938,3.9531 -1.0312,1.7188 -2.7968,2.6719 -1.75,0.9531 -4,0.9531 Q 32.125,42.8281 29,38.5938 25.875,34.375 25.875,26.9062 L 25.875,0 8.40625,0 l 0,54.6875 17.46875,0 0,-8 q 3.9531,4.7813 8.3906,7.0469 Q 38.7188,56 44.0938,56 q 9.4687,0 14.375,-5.8125 4.9062,-5.7969 4.9062,-16.8906"
         inkscape:connector-curvature="0" />
    </defs>
    <defs
       id="defs81">
      <path
         id="BitstreamVeraSans-Bold-73"
         d="m 51.125,52.9844 0,-13.2813 q -5.6094,2.3438 -10.8438,3.5157 -5.2187,1.1718 -9.8593,1.1718 -4.9844,0 -7.4063,-1.25 -2.4062,-1.25 -2.4062,-3.8281 0,-2.1094 1.8281,-3.2344 Q 24.2656,34.9688 29,34.4219 l 3.0781,-0.4375 q 13.4375,-1.7032 18.0625,-5.6094 4.6406,-3.9062 4.6406,-12.2656 0,-8.7344 -6.4531,-13.14065 -6.4375,-4.39063 -19.2187,-4.39063 -5.4219,0 -11.2188,0.85938 Q 12.1094,0.296875 6,2 l 0,13.2812 q 5.2344,-2.5312 10.7188,-3.8124 5.5,-1.2657 11.1562,-1.2657 5.1406,0 7.7188,1.4063 2.5937,1.4218 2.5937,4.2187 0,2.3438 -1.7813,3.4844 -1.7812,1.1406 -7.1093,1.7813 l -3.0781,0.3906 q -11.6719,1.4687 -16.35942,5.4218 -4.6875,3.9532 -4.6875,12.0157 0,8.6875 5.95312,12.875 Q 17.0938,56 29.3906,56 34.2344,56 39.5469,55.2656 44.875,54.5469 51.125,52.9844"
         inkscape:connector-curvature="0" />
      <path
         id="BitstreamVeraSans-Bold-61"
         d="m 32.9062,24.6094 q -5.4687,0 -8.2343,-1.8594 -2.75,-1.8438 -2.75,-5.4688 0,-3.3124 2.2187,-5.2031 2.2344,-1.875 6.1875,-1.875 4.9219,0 8.2969,3.5313 Q 42,17.2812 42,22.6094 l 0,2 z M 59.625,31.2031 59.625,0 42,0 42,8.10938 Q 38.4844,3.125 34.0781,0.84375 29.6875,-1.42188 23.3906,-1.42188 q -8.5,0 -13.79685,4.95313 Q 4.29688,8.5 4.29688,16.4062 q 0,9.625 6.60932,14.1094 6.625,4.5 20.7813,4.5 l 10.3125,0 0,1.3594 q 0,4.1562 -3.2812,6.0781 -3.2657,1.9375 -10.2032,1.9375 -5.6094,0 -10.4531,-1.125 -4.8281,-1.125 -8.98438,-3.375 l 0,13.3282 Q 14.7031,54.5938 20.3594,55.2969 26.0312,56 31.6875,56 46.4844,56 53.0469,50.1719 59.625,44.3438 59.625,31.2031"
         inkscape:connector-curvature="0" />
      <path
         id="BitstreamVeraSans-Bold-6f"
         d="m 34.4219,43.5 q -5.8125,0 -8.8594,-4.1719 -3.0469,-4.1719 -3.0469,-12.0312 0,-7.8594 3.0469,-12.0469 3.0469,-4.1719 8.8594,-4.1719 5.7187,0 8.7343,4.1719 3.0313,4.1875 3.0313,12.0469 0,7.8593 -3.0313,12.0312 Q 40.1406,43.5 34.4219,43.5 m 0,12.5 q 14.1093,0 22.0469,-7.625 7.9374,-7.6094 7.9374,-21.0781 0,-13.4844 -7.9374,-21.1094 -7.9376,-7.60938 -22.0469,-7.60938 -14.1563,0 -22.1407,7.60938 -7.98432,7.625 -7.98432,21.1094 0,13.4687 7.98432,21.0781 Q 20.2656,56 34.4219,56"
         inkscape:connector-curvature="0" />
      <path
         id="BitstreamVeraSans-Bold-6d"
         d="m 59.0781,45.6094 q 3.3281,5.0781 7.8907,7.7344 Q 71.5312,56 77,56 q 9.4219,0 14.3594,-5.8125 4.9375,-5.7969 4.9375,-16.8906 l 0,-33.2969 -17.5781,0 0,28.5156 q 0.0468,0.6406 0.0624,1.3125 0.0313,0.6875 0.0313,1.9531 0,5.8126 -1.7187,8.4219 -1.7032,2.625 -5.5157,2.625 -4.9687,0 -7.6875,-4.1093 Q 61.1875,34.625 61.0781,26.8594 L 61.0781,0 43.5,0 l 0,28.5156 q 0,9.0782 -1.5625,11.6875 -1.5625,2.625 -5.5625,2.625 -5.0312,0 -7.7656,-4.125 Q 25.875,34.5781 25.875,26.9062 L 25.875,0 8.29688,0 l 0,54.6875 17.57812,0 0,-8 q 3.2344,4.625 7.4062,6.9687 Q 37.4531,56 42.4844,56 q 5.6562,0 10,-2.7344 4.3594,-2.7344 6.5937,-7.6562"
         inkscape:connector-curvature="0" />
    </defs>
    <defs
       id="defs304">
      <path
         inkscape:connector-curvature="0"
         d="m 11.7188,12.9844 16.6093,0 0,47.125 -17.0469,-3.5156 0,12.7968 16.9376,3.5156 17.875,0 0,-59.9218 16.6093,0 0,-12.9844 -50.9843,0 z"
         id="BitstreamVeraSans-Bold-31" />
      <path
         inkscape:connector-curvature="0"
         d=""
         id="BitstreamVeraSans-Bold-20" />
    </defs>
    <defs
       id="defs304-6">
      <path
         inkscape:connector-curvature="0"
         d="m 11.7188,12.9844 16.6093,0 0,47.125 -17.0469,-3.5156 0,12.7968 16.9376,3.5156 17.875,0 0,-59.9218 16.6093,0 0,-12.9844 -50.9843,0 z"
         id="BitstreamVeraSans-Bold-31-5" />
      <path
         inkscape:connector-curvature="0"
         d=""
         id="BitstreamVeraSans-Bold-20-1" />
    </defs>
    <defs
       id="defs51-4">
      <path
         id="BitstreamVeraSans-Roman-2212-6"
         d="m 10.5938,35.5 62.5937,0 0,-8.2969 -62.5937,0 z"
         inkscape:connector-curvature="0" />
      <path
         id="BitstreamVeraSans-Roman-30-6"
         d="m 31.7812,66.4062 q -7.6093,0 -11.4531,-7.5 Q 16.5,51.4219 16.5,36.375 q 0,-14.9844 3.8281,-22.4844 3.8438,-7.49998 11.4531,-7.49998 7.6719,0 11.5,7.49998 3.8438,7.5 3.8438,22.4844 0,15.0469 -3.8438,22.5312 -3.8281,7.5 -11.5,7.5 m 0,7.8126 q 12.2657,0 18.7344,-9.7032 6.4688,-9.6875 6.4688,-28.1406 0,-18.4062 -6.4688,-28.10938 -6.4687,-9.6875 -18.7344,-9.6875 -12.25,0 -18.7187,9.6875 -6.46875,9.70318 -6.46875,28.10938 0,18.4531 6.46875,28.1406 6.4687,9.7032 18.7187,9.7032"
         inkscape:connector-curvature="0" />
      <path
         id="BitstreamVeraSans-Roman-36-5"
         d="m 33.0156,40.375 q -6.6406,0 -10.5312,-4.5469 -3.875,-4.5312 -3.875,-12.4375 0,-7.8594 3.875,-12.4375 3.8906,-4.56248 10.5312,-4.56248 6.6406,0 10.5156,4.56248 3.875,4.5781 3.875,12.4375 0,7.9063 -3.875,12.4375 -3.875,4.5469 -10.5156,4.5469 m 19.5782,30.9219 0,-8.9844 q -3.7188,1.75 -7.5,2.6719 -3.7813,0.9375 -7.5,0.9375 -9.7657,0 -14.9219,-6.5938 -5.1407,-6.5937 -5.875,-19.9219 2.875,4.25 7.2187,6.5157 4.3594,2.2656 9.5782,2.2656 10.9843,0 17.3593,-6.6719 6.375,-6.6562 6.375,-18.125 0,-11.2344 -6.6406,-18.03122 -6.6406,-6.78126 -17.6719,-6.78126 -12.6562,0 -19.3437,9.6875 -6.68752,9.70318 -6.68752,28.10938 0,17.2812 8.20312,27.5625 8.2031,10.2813 22.0156,10.2813 3.7188,0 7.5,-0.7344 3.7813,-0.7344 7.8907,-2.1875"
         inkscape:connector-curvature="0" />
    </defs>
    <defs
       id="defs43-9">
      <path
         style="stroke:#000000;stroke-width:0.5"
         id="mcb0005524f-3"
         d="M 0,0 -4,0"
         inkscape:connector-curvature="0" />
    </defs>
    <defs
       id="defs35-1">
      <path
         style="stroke:#000000;stroke-width:0.5"
         id="m728421d6d4-1"
         d="M 0,0 4,0"
         inkscape:connector-curvature="0" />
    </defs>
    <defs
       id="defs51">
      <path
         id="BitstreamVeraSans-Roman-2212"
         d="m 10.5938,35.5 62.5937,0 0,-8.2969 -62.5937,0 z"
         inkscape:connector-curvature="0" />
      <path
         id="BitstreamVeraSans-Roman-30"
         d="m 31.7812,66.4062 q -7.6093,0 -11.4531,-7.5 Q 16.5,51.4219 16.5,36.375 q 0,-14.9844 3.8281,-22.4844 3.8438,-7.49998 11.4531,-7.49998 7.6719,0 11.5,7.49998 3.8438,7.5 3.8438,22.4844 0,15.0469 -3.8438,22.5312 -3.8281,7.5 -11.5,7.5 m 0,7.8126 q 12.2657,0 18.7344,-9.7032 6.4688,-9.6875 6.4688,-28.1406 0,-18.4062 -6.4688,-28.10938 -6.4687,-9.6875 -18.7344,-9.6875 -12.25,0 -18.7187,9.6875 -6.46875,9.70318 -6.46875,28.10938 0,18.4531 6.46875,28.1406 6.4687,9.7032 18.7187,9.7032"
         inkscape:connector-curvature="0" />
      <path
         id="BitstreamVeraSans-Roman-36"
         d="m 33.0156,40.375 q -6.6406,0 -10.5312,-4.5469 -3.875,-4.5312 -3.875,-12.4375 0,-7.8594 3.875,-12.4375 3.8906,-4.56248 10.5312,-4.56248 6.6406,0 10.5156,4.56248 3.875,4.5781 3.875,12.4375 0,7.9063 -3.875,12.4375 -3.875,4.5469 -10.5156,4.5469 m 19.5782,30.9219 0,-8.9844 q -3.7188,1.75 -7.5,2.6719 -3.7813,0.9375 -7.5,0.9375 -9.7657,0 -14.9219,-6.5938 -5.1407,-6.5937 -5.875,-19.9219 2.875,4.25 7.2187,6.5157 4.3594,2.2656 9.5782,2.2656 10.9843,0 17.3593,-6.6719 6.375,-6.6562 6.375,-18.125 0,-11.2344 -6.6406,-18.03122 -6.6406,-6.78126 -17.6719,-6.78126 -12.6562,0 -19.3437,9.6875 -6.68752,9.70318 -6.68752,28.10938 0,17.2812 8.20312,27.5625 8.2031,10.2813 22.0156,10.2813 3.7188,0 7.5,-0.7344 3.7813,-0.7344 7.8907,-2.1875"
         inkscape:connector-curvature="0" />
    </defs>
    <defs
       id="defs43">
      <path
         style="stroke:#000000;stroke-width:0.5"
         id="mcb0005524f"
         d="M 0,0 -4,0"
         inkscape:connector-curvature="0" />
    </defs>
    <defs
       id="defs35">
      <path
         style="stroke:#000000;stroke-width:0.5"
         id="m728421d6d4"
         d="M 0,0 4,0"
         inkscape:connector-curvature="0" />
    </defs>
  </defs>
  <sodipodi:namedview
     id="base"
     pagecolor="#ffffff"
     bordercolor="#666666"
     borderopacity="1.0"
     inkscape:pageopacity="0.0"
     inkscape:pageshadow="2"
     inkscape:zoom="0.98994949"
     inkscape:cx="409.84474"
     inkscape:cy="787.8391"
     inkscape:document-units="px"
     inkscape:current-layer="layer1"
     showgrid="false"
     inkscape:window-width="1535"
     inkscape:window-height="876"
     inkscape:window-x="65"
     inkscape:window-y="24"
     inkscape:window-maximized="1" />
  <metadata
     id="metadata7">
    <rdf:RDF>
      <cc:Work
         rdf:about="">
        <dc:format>image/svg+xml</dc:format>
        <dc:type
           rdf:resource="http://purl.org/dc/dcmitype/StillImage" />
        <dc:title></dc:title>
      </cc:Work>
    </rdf:RDF>
  </metadata>
  <g
     inkscape:label="Layer 1"
     inkscape:groupmode="layer"
     id="layer1">
    <use
       id="use312"
       xlink:href="#BitstreamVeraSans-Bold-20"
       x="69.580078"
       y="0"
       width="744.09448"
       height="1052.3622"
       transform="matrix(0.15,0,0,-0.15,290.59457,800.29555)" />
    <use
       id="use378"
       xlink:href="#BitstreamVeraSans-Bold-20"
       x="69.580078"
       y="0"
       width="744.09448"
       height="1052.3622"
       transform="matrix(0.15,0,0,-0.15,594.95821,800.29555)" />
    <use
       id="use312-0"
       xlink:href="#BitstreamVeraSans-Bold-20-1"
       x="69.580078"
       y="0"
       width="744.09448"
       height="1052.3622"
       transform="matrix(0.15,0,0,-0.15,-429.40542,797.4384)" />
    <use
       id="use378-7"
       xlink:href="#BitstreamVeraSans-Bold-20-1"
       x="69.580078"
       y="0"
       width="744.09448"
       height="1052.3622"
       transform="matrix(0.15,0,0,-0.15,-125.04178,797.4384)" />
    <path
       id="path17"
       style="fill:none;stroke:#0000ff;stroke-width:3.19217174;stroke-linecap:square;stroke-miterlimit:4;stroke-dasharray:none"
       d="m 72,126.696 5.9655,-0.431 9.1309,-0.451 11.8093,-0.348 16.8013,-0.255 29.259,-0.19 81.975,-0.24 47.928,-0.085 0,0"
       clip-path="url(#pdf2bc2c95a)"
       inkscape:connector-curvature="0"
       transform="matrix(0.62587534,0,0,0.97998557,372.56096,104.69759)" />
    <path
       id="path102"
       style="fill:none;stroke:#0000ff;stroke-width:3.19217174;stroke-linecap:square;stroke-miterlimit:4;stroke-dasharray:none"
       d="m 315.491,126.696 10.105,-0.658 10.226,-0.4 13.758,-0.301 21.102,-0.217 44.6,-0.187 103.077,-0.225 0,0"
       clip-path="url(#pbd5a3a9a46)"
       inkscape:connector-curvature="0"
       transform="matrix(0.62587534,0,0,0.97998557,365.02785,104.69759)" />
    <path
       id="path17-5"
       style="fill:none;stroke:#0000ff;stroke-width:3.19217181;stroke-linecap:square;stroke-miterlimit:4;stroke-dasharray:none"
       d="m 72,126.696 4.4234,-0.924 5.1539,-0.85 5.8844,-0.739 6.8583,-0.63 8.198,-0.523 10.226,-0.419 13.514,-0.318 19.804,-0.225 36.523,-0.155 92.284,-0.19 0,0"
       clip-path="url(#pdf2bc2c95a-9)"
       inkscape:connector-curvature="0"
       transform="matrix(0.62587534,0,0,0.97998557,21.733526,102.45761)" />
    <path
       id="path102-5"
       style="fill:none;stroke:#0000ff;stroke-width:3.19217181;stroke-linecap:square;stroke-miterlimit:4;stroke-dasharray:none"
       d="m 315.491,126.696 4.829,-0.998 5.195,-0.839 5.965,-0.731 6.94,-0.62 8.319,-0.514 10.429,-0.41 13.879,-0.311 20.535,-0.216 39.121,-0.152 87.656,-0.175 0,0"
       clip-path="url(#pbd5a3a9a46-1)"
       inkscape:connector-curvature="0"
       transform="matrix(0.62587534,0,0,0.97998557,12.317142,102.45761)" />
    <path
       style="fill:none;stroke:#000000;stroke-width:2.5;stroke-linecap:butt;stroke-linejoin:miter;stroke-miterlimit:4;stroke-opacity:1;stroke-dasharray:none"
       d="m 406.94735,189.87111 0,42.96316"
       id="path6197-0"
       inkscape:connector-curvature="0" />
    <path
       style="fill:none;stroke:#000000;stroke-width:2.5;stroke-linecap:butt;stroke-linejoin:miter;stroke-miterlimit:4;stroke-opacity:1;stroke-dasharray:none"
       d="m 58.499246,187.63112 0,42.96318"
       id="path6197-2"
       inkscape:connector-curvature="0" />
    <text
       xml:space="preserve"
       style="font-size:24.18722534px;font-style:normal;font-weight:normal;line-height:125%;letter-spacing:0px;word-spacing:0px;fill:#000000;fill-opacity:1;stroke:none;font-family:Sans"
       x="445.05243"
       y="187.31116"
       id="text6249"
       sodipodi:linespacing="125%"
       transform="scale(1.0002112,0.99978885)"><tspan
         sodipodi:role="line"
         id="tspan6251"
         x="445.05243"
         y="187.31116"
         style="font-weight:bold">soma</tspan></text>
    <text
       xml:space="preserve"
       style="font-size:24.18722534px;font-style:normal;font-weight:normal;line-height:125%;letter-spacing:0px;word-spacing:0px;fill:#000000;fill-opacity:1;stroke:none;font-family:Sans"
       x="94.299065"
       y="187.31116"
       id="text6249-1"
       sodipodi:linespacing="125%"
       transform="scale(1.0002112,0.99978885)"><tspan
         sodipodi:role="line"
         id="tspan6251-9"
         x="94.299065"
         y="187.31116"
         style="font-weight:bold">soma</tspan></text>
    <text
       xml:space="preserve"
       style="font-size:24.18722534px;font-style:normal;font-weight:normal;line-height:125%;letter-spacing:0px;word-spacing:0px;fill:#000000;fill-opacity:1;stroke:none;font-family:Sans"
       x="240.74916"
       y="187.31116"
       id="text6249-7"
       sodipodi:linespacing="125%"
       transform="scale(1.0002112,0.99978885)"><tspan
         sodipodi:role="line"
         id="tspan6251-8"
         x="240.74916"
         y="187.31116"
         style="font-weight:bold">axon</tspan></text>
    <text
       xml:space="preserve"
       style="font-size:24.18722534px;font-style:normal;font-weight:normal;line-height:125%;letter-spacing:0px;word-spacing:0px;fill:#000000;fill-opacity:1;stroke:none;font-family:Sans"
       x="593.38538"
       y="187.31116"
       id="text6249-4"
       sodipodi:linespacing="125%"
       transform="scale(1.0002112,0.99978885)"><tspan
         sodipodi:role="line"
         id="tspan6251-2"
         x="593.38538"
         y="187.31116"
         style="font-weight:bold">axon</tspan></text>
    <text
       xml:space="preserve"
       style="font-size:15.56316853px;font-style:normal;font-weight:normal;line-height:125%;letter-spacing:0px;word-spacing:0px;fill:#000000;fill-opacity:1;stroke:none;font-family:Sans"
       x="376.02243"
       y="339.65582"
       id="text6172"
       sodipodi:linespacing="125%"
       transform="scale(1.0002112,0.99978885)"><tspan
         sodipodi:role="line"
         id="tspan6174"
         x="376.02243"
         y="339.65582"
         style="font-weight:bold">-60 </tspan></text>
    <text
       xml:space="preserve"
       style="font-size:15.56316853px;font-style:normal;font-weight:normal;line-height:125%;letter-spacing:0px;word-spacing:0px;fill:#000000;fill-opacity:1;stroke:none;font-family:Sans"
       x="392.05579"
       y="292.99106"
       id="text6172-9"
       sodipodi:linespacing="125%"
       transform="scale(1.0002112,0.99978885)"><tspan
         sodipodi:role="line"
         id="tspan6174-7"
         x="392.05579"
         y="292.99106"
         style="font-weight:bold">0</tspan></text>
    <path
       id="path288"
       style="fill:none;stroke:#0000ff;stroke-width:3.19217174;stroke-linecap:square;stroke-miterlimit:4;stroke-dasharray:none"
       d="m 72.0406,368.428 3.3683,-1.494 8.3598,-3.564 1.5016,-0.961 1.0145,-0.892 0.7305,-0.925 0.5275,-1.04 0.3247,-1.142 0.1623,-1.422 0.1623,-17.149 0.2435,-12.308 0.0406,-0.34 0.1218,4.532 0.284,8.191 0.3247,3.27 0.2841,0.933 0.1217,-0.006 0.0812,-0.192 0.0406,-0.264 0.2434,-12.206 0.0406,0.518 0.2841,7.641 0.3652,13.209 0.3653,3.967 0.3246,1.468 0.2029,0.239 0.1624,-0.064 0.284,-0.437 0.7711,-1.763 0.1623,-0.726 0.0406,-0.435 0.3247,-21.819 0.0811,0.476 0.1218,3.762 0.284,12.784 0.4464,8.743 0.4059,4.106 0.4058,1.962 0.487,1.219 1.0145,1.716 3.612,5.784 0.974,1.012 0.893,0.623 0.892,0.353 0.934,0.123 1.014,-0.094 1.218,-0.345 1.542,-0.685 2.232,-1.26 7.589,-4.459 3.165,-1.5 4.18,-1.708 4.505,-1.888 1.907,-1.04 1.258,-0.924 0.893,-0.923 0.608,-0.931 0.406,-0.985 0.244,-1.059 0.121,-1.444 0.406,-29.328 0.041,-0.03 0.609,15.105 0.284,1.507 0.203,0.217 0.121,-0.274 0.041,-0.379 0.203,-12.077 0.04,0.149 0.163,3.905 0.243,9.495 0.244,7.398 0.365,4.223 0.325,1.607 0.243,0.31 0.162,-0.077 0.285,-0.45 0.771,-1.777 0.162,-0.788 0.04,-0.595 0.325,-21.576 0.081,0.664 0.081,2.03 0.366,15.685 0.446,8.117 0.406,3.735 0.406,1.789 0.487,1.15 1.258,2.111 3.043,4.945 1.015,1.146 0.893,0.698 0.893,0.419 0.892,0.178 0.974,-0.03 1.137,-0.262 1.42,-0.566 1.948,-1.039 4.342,-2.656 3.531,-2.009 3.125,-1.522 3.814,-1.591 5.56,-2.316 1.867,-1.035 1.217,-0.911 0.852,-0.892 0.609,-0.94 0.406,-1.001 0.243,-1.101 0.082,-0.768 0.04,-1.254 0.325,-26.943 0.081,-1.85 0.041,0.353 0.446,13.288 0.325,2.674 0.243,0.611 0.122,-0.061 0.081,-0.288 0.041,-0.777 0.203,-11.623 0.081,1.09 0.324,10.8 0.244,8.581 0.365,4.498 0.325,1.748 0.243,0.382 0.163,-0.046 0.284,-0.42 0.771,-1.747 0.162,-0.664 0.081,-1.419 0.244,-20.261 0.081,-0.679 0.04,0.285 0.122,3.023 0.325,14.359 0.446,8.438 0.406,3.928 0.406,1.878 0.487,1.185 1.096,1.844 3.408,5.488 0.974,1.047 0.893,0.654 0.893,0.381 0.933,0.146 1.015,-0.073 1.177,-0.314 1.501,-0.644 2.111,-1.17 8.481,-4.939 3.247,-1.491 5.113,-2.054 3.247,-1.423 1.785,-1.016 1.177,-0.907 0.852,-0.93 0.568,-0.924 0.406,-1.08 0.244,-1.356 0.04,-0.548 0.122,-12.717 0.243,-15.692 0.082,-1.447 0.04,0.779 0.406,12.522 0.325,2.91 0.243,0.723 0.122,-10e-4 0.081,-0.185 0.041,-0.248 0.243,-12.248 0.041,0.488 0.284,7.598 0.365,13.257 0.365,3.989 0.325,1.48 0.203,0.245 0.162,-0.061 0.284,-0.434 0.771,-1.761 0.163,-0.715 0.04,-0.413 0.122,-12.155 0.203,-9.696 0.04,0.053 0.122,2.037 0.487,18.663 0.447,6.982 0.405,3.07 0.406,1.498 0.568,1.179 3.734,6.197 1.096,1.368 0.933,0.825 0.893,0.497 0.893,0.243 0.974,0.026 1.095,-0.2 1.339,-0.483 1.786,-0.901 3.003,-1.807 4.667,-2.769 3.125,-1.58 3.53,-1.522 7.102,-2.984 1.664,-0.984 1.136,-0.915 0.812,-0.933 0.568,-0.997 0.365,-1.087 0.203,-1.295 0.041,-0.736 0.081,-9.139 0,0"
       clip-path="url(#p5df05f4a8e)"
       inkscape:connector-curvature="0"
       transform="matrix(0.62587534,0,0,0.97998557,372.56096,-33.284386)" />
    <path
       id="path358"
       style="fill:none;stroke:#0000ff;stroke-width:3.19217174;stroke-linecap:square;stroke-miterlimit:4;stroke-dasharray:none"
       d="m 315.531,368.634 3.369,-1.5 8.319,-3.563 1.461,-0.954 0.974,-0.887 0.69,-0.918 0.487,-1.018 0.324,-1.192 0.203,-1.572 0.122,-3.031 0.041,-5.338 0.081,-52.068 0.04,2.404 0.325,51.638 0.162,25.625 0.082,0.535 0.04,-0.264 0.203,-3.082 0.69,-15.187 0.081,-5.967 0.081,-56.584 0.041,1.67 0.203,21.411 0.243,30.721 0.163,33.548 0.04,0.25 0.041,-0.077 0.203,-1.715 0.608,-7.821 0.812,-9.549 0.731,-7.592 0.081,-6.408 0.081,-54.095 0.04,2.168 0.325,43.119 0.244,39.726 0.04,0.064 0.122,-0.732 1.258,-10.514 0.406,-1.309 0.365,-0.521 0.325,-0.111 0.365,0.138 0.487,0.46 0.812,1.133 2.759,4.072 0.974,0.969 0.893,0.596 0.893,0.336 0.933,0.113 1.055,-0.104 1.258,-0.364 1.583,-0.705 2.354,-1.32 6.939,-4.014 3.206,-1.52 4.18,-1.711 4.383,-1.846 1.867,-1.028 1.217,-0.912 0.852,-0.909 0.568,-0.904 0.406,-1.034 0.284,-1.349 0.163,-1.823 0.081,-3.046 0.04,-11.592 0.082,-44.561 0.04,3.242 0.528,76.561 0.081,-0.409 0.243,-3.989 0.65,-14.588 0.04,-2.015 0.041,-8.863 0.04,-51.77 0.082,2.91 0.243,26.947 0.203,30.736 0.162,27.408 0.041,0.122 0.04,-0.134 0.244,-2.239 0.812,-10.625 0.689,-7.37 0.569,-5.716 0.081,-2.981 0.04,-10.869 0.041,-47.432 0.081,3.299 0.325,44.084 0.203,37.473 0.04,0.316 0.081,-0.2 0.285,-2.675 0.73,-6.634 0.446,-2.259 0.406,-1.023 0.325,-0.331 0.325,-0.038 0.365,0.193 0.527,0.556 0.934,1.37 2.232,3.343 1.014,1.097 0.934,0.692 0.892,0.388 0.934,0.16 1.014,-0.058 1.177,-0.295 1.502,-0.621 2.11,-1.138 8.725,-4.962 3.368,-1.507 8.482,-3.641 1.42,-0.936 0.974,-0.895 0.69,-0.932 0.487,-1.046 0.325,-1.256 0.203,-1.778 0.081,-1.941 0.04,-2.876 0.082,-55.224 0.081,5.187 0.527,74.994 0.041,-0.172 0.203,-2.916 0.69,-14.989 0.081,-4.023 0.081,-59.384 0.081,3.604 0.365,39.504 0.082,24.504 0.162,20.31 0.041,0.019 0.162,-1.191 0.487,-5.971 0.974,-11.829 0.73,-7.345 0.081,-3.895 0.082,-57.345 0.081,4.781 0.324,45.573 0.163,34.158 0.081,0.915 0.041,-0.08 0.202,-1.675 0.893,-8.119 0.447,-2.098 0.405,-0.92 0.325,-0.275 0.325,0 0.406,0.257 0.608,0.708 1.177,1.81 1.705,2.533 1.055,1.174 0.933,0.713 0.893,0.408 0.933,0.176 1.015,-0.043 1.177,-0.283 1.461,-0.591 2.029,-1.08 9.415,-5.312 3.449,-1.507 7.467,-3.162 1.583,-0.973 1.055,-0.896 0.731,-0.896 0.527,-0.998 0.365,-1.198 0.203,-1.314 0.122,-1.86 0.081,-6.236 0.081,-52.856 0.041,2.224 0.325,51.088 0.162,26.347 0.081,0.6 0.041,-0.252 0.203,-3.056 0.689,-15.151 0.082,-5.498 0.081,-57.207 0.04,1.603 0.163,16.095 0.284,35.147 0.162,34.54 0.041,0.282 0.04,-0.063 0.203,-1.699 0.609,-7.813 0.812,-9.56 0.73,-7.547 0.081,-5.788 0.081,-54.861 0.041,2.053 0.284,38.102 0.081,14.089 0.162,30.325 0.082,0.589 0.04,-0.135 0.244,-2.173 0.771,-7.119 0.446,-2.305 0.406,-1.053 0.365,-0.367 0.325,-0.02 0.406,0.242 0.568,0.64 1.055,1.597 1.907,2.855 1.055,1.169 0.934,0.709 0.893,0.404 0.933,0.173 1.015,-0.046 1.176,-0.285 1.461,-0.593 2.07,-1.105 9.212,-5.21 3.45,-1.517 7.751,-3.296 1.542,-0.969 1.014,-0.883 0.731,-0.923 0.487,-0.948 0.365,-1.229 0.203,-1.385 0.122,-2.119 0.04,-1.987 0.041,-10.686 0.081,-45.6 0,0"
       clip-path="url(#p8ca55fdb04)"
       inkscape:connector-curvature="0"
       transform="matrix(0.62587534,0,0,0.97998557,365.02785,-33.284386)" />
    <path
       id="path288-2"
       style="fill:none;stroke:#0000ff;stroke-width:3.19217181;stroke-linecap:square;stroke-miterlimit:4;stroke-dasharray:none"
       d="m 72.0406,378.627 2.1914,-1.357 10.0643,-6.538 3.3277,-1.72 4.5046,-2.048 4.2611,-2.003 1.9885,-1.177 1.3392,-1.033 0.9736,-1.021 0.69,-1.039 0.447,-1.036 0.284,-1.174 0.121,-1.359 0.366,-25.011 0.081,1.751 0.365,15.623 0.284,2.575 0.162,0.316 0.041,-0.013 0.122,-0.224 0.243,-1.112 0.366,-2.905 0.081,-2.321 0.203,-15.015 0.081,1.362 0.69,21.639 0.243,0.539 0.162,-0.031 0.244,-0.397 0.69,-1.882 0.243,-0.924 0.082,-6.692 0.202,-10.265 0.122,3.13 0.244,13.185 0.243,8.571 0.284,3.013 0.365,1.666 0.366,0.725 0.527,0.487 0.568,0.604 0.569,0.957 0.852,1.946 3.571,8.712 0.852,1.287 0.771,0.786 0.771,0.476 0.812,0.235 0.893,0.02 1.055,-0.21 1.298,-0.499 1.705,-0.912 2.516,-1.625 7.508,-4.983 3.246,-1.808 3.612,-1.745 7.751,-3.646 1.705,-1.106 1.217,-1.048 0.852,-1.02 0.609,-1.081 0.365,-1.051 0.203,-1.104 0.081,-1.554 0.284,-24.01 0.041,-0.441 0.04,0.11 0.082,2.296 0.324,14.506 0.284,2.933 0.203,0.439 0.122,-0.163 0.203,-0.798 0.365,-2.602 0.122,-1.447 0.243,-16.575 0.041,0.57 0.284,10.459 0.244,10.352 0.243,1.817 0.203,0.343 0.162,-0.049 0.244,-0.413 0.771,-2.105 0.162,-0.819 0.244,-16.818 0.081,0.909 0.243,10.137 0.244,12.473 0.284,3.878 0.365,1.957 0.365,0.848 0.447,0.46 0.69,0.688 0.568,0.939 0.811,1.83 3.775,9.117 0.852,1.216 0.771,0.728 0.771,0.428 0.811,0.196 0.893,-0.011 1.096,-0.25 1.339,-0.547 1.786,-0.988 2.759,-1.817 6.372,-4.252 3.246,-1.856 3.45,-1.71 9.09,-4.34 1.542,-1.085 1.096,-1.039 0.771,-1.035 0.527,-1.076 0.325,-1.133 0.162,-1.319 0.082,-7.658 0.243,-17.481 0.041,-0.266 0,0 0,0 0.081,1.185 0.446,17.145 0.244,1.752 0.162,0.221 0.122,-0.19 0.243,-1.063 0.366,-2.826 0.081,-1.256 0.243,-16.155 0.122,3.758 0.568,18.851 0.244,0.786 0.162,0.054 0.203,-0.236 0.365,-0.907 0.649,-1.966 0.041,-0.532 0.243,-16.606 0.082,1.295 0.243,10.808 0.244,11.747 0.284,3.691 0.365,1.9 0.365,0.823 0.447,0.453 0.689,0.694 0.569,0.947 0.811,1.836 3.734,9.038 0.852,1.231 0.771,0.74 0.771,0.438 0.812,0.204 0.892,-0.005 1.056,-0.232 1.339,-0.535 1.745,-0.955 2.638,-1.724 6.817,-4.543 3.247,-1.838 3.49,-1.714 8.644,-4.106 1.583,-1.081 1.136,-1.039 0.812,-1.046 0.527,-1.012 0.365,-1.174 0.163,-1.072 0.04,-0.649 0.365,-25.107 0.082,1.637 0.365,15.705 0.284,2.61 0.203,0.316 0.122,-0.218 0.243,-1.103 0.365,-2.89 0.081,-1.997 0.203,-15.359 0.041,0.258 0.243,8.685 0.487,14.033 0.244,0.55 0.162,-0.027 0.244,-0.392 0.69,-1.881 0.243,-0.904 0.041,-1.219 0.203,-15.609 0.04,-0.175 0.122,3.041 0.243,13.096 0.244,8.718 0.284,3.042 0.365,1.678 0.365,0.729 0.528,0.488 0.568,0.603 0.568,0.955 0.853,1.945 3.571,8.714 0.852,1.288 0.771,0.788 0.771,0.477 0.812,0.236 0.893,0.02 1.055,-0.209 1.298,-0.499 1.705,-0.911 0.446,-0.27 0,0"
       clip-path="url(#p5df05f4a8e-2)"
       inkscape:connector-curvature="0"
       transform="matrix(0.62587534,0,0,0.97998557,21.733526,-35.524358)" />
    <path
       id="path358-4"
       style="fill:none;stroke:#0000ff;stroke-width:3.19217181;stroke-linecap:square;stroke-miterlimit:4;stroke-dasharray:none"
       d="m 315.531,378.588 2.03,-1.18 3.733,-2.488 4.424,-2.86 3.287,-1.855 3.49,-1.707 8.684,-4.105 1.502,-1.043 1.055,-0.994 0.73,-0.981 0.528,-1.091 0.325,-1.139 0.202,-1.374 0.122,-2.059 0.041,-1.891 0.04,-9.979 0.082,-47.252 0.04,3.064 0.325,55.209 0.162,25.231 0.081,0.4 0.041,-0.199 0.203,-2.279 0.568,-9.769 0.527,-11.088 0.041,-3.11 0.081,-58.773 0.041,1.285 0.162,15.74 0.284,37.07 0.163,34.751 0.04,0.147 0.041,-0.127 0.203,-1.808 0.446,-6.463 1.096,-19.14 0.04,-3.074 0.081,-58.28 0.041,1.408 0.162,17.482 0.284,50.113 0.163,20.008 0.04,0.072 0.041,-0.099 0.203,-1.307 0.527,-5.316 0.731,-6.852 0.487,-2.606 0.406,-1.044 0.324,-0.28 0.284,0.055 0.366,0.367 0.527,0.916 0.934,2.167 2.353,5.597 0.934,1.596 0.811,0.97 0.771,0.592 0.771,0.324 0.853,0.118 0.974,-0.098 1.176,-0.35 1.502,-0.693 2.07,-1.22 4.139,-2.768 4.099,-2.622 3.287,-1.835 3.571,-1.728 8.076,-3.789 1.583,-1.055 1.095,-0.981 0.771,-0.971 0.528,-0.989 0.365,-1.112 0.244,-1.412 0.121,-1.609 0.082,-3.741 0.081,-56.682 0.081,5.106 0.527,79.408 0.082,-0.311 0.243,-2.962 0.69,-12.246 0.365,-8.479 0.041,-5.09 0.04,-56.318 0.082,2.066 0.162,16.756 0.284,42.496 0.162,27.784 0.041,0.037 0.162,-1.182 0.365,-4.765 1.218,-20.557 0.081,-6.768 0.041,-55.623 0.081,2.117 0.203,24.056 0.203,26.911 0.162,35.692 0.081,0.311 0.041,-0.13 0.243,-1.707 0.69,-7.166 0.609,-5.184 0.446,-2.163 0.365,-0.875 0.325,-0.264 0.284,0.065 0.365,0.377 0.528,0.925 0.933,2.172 2.314,5.51 0.933,1.611 0.812,0.984 0.771,0.602 0.771,0.334 0.852,0.124 0.974,-0.091 1.177,-0.345 1.501,-0.689 2.07,-1.217 4.058,-2.713 4.139,-2.654 3.288,-1.84 3.53,-1.715 8.279,-3.893 1.583,-1.073 1.095,-1.009 0.731,-0.953 0.527,-1.035 0.366,-1.212 0.243,-1.721 0.122,-2.747 0.04,-4.051 0.082,-54.634 0.04,2.112 0.284,42.249 0.284,40.096 0.081,-0.416 0.284,-3.681 0.812,-14.695 0.203,-6.053 0.081,-60.624 0.163,10.243 0.324,38.925 0.162,39.698 0.041,0.34 0.041,-0.048 0.162,-1.27 0.406,-5.477 1.177,-20.125 0.04,-2.05 0.081,-60.14 0.163,11.452 0.324,48.344 0.163,29.332 0.04,0.183 0.041,-0.048 0.162,-0.919 0.447,-4.261 0.892,-8.521 0.447,-2.372 0.406,-1.078 0.324,-0.3 0.284,0.041 0.325,0.302 0.487,0.798 0.852,1.918 2.719,6.398 0.893,1.44 0.812,0.902 0.771,0.536 0.811,0.29 0.893,0.068 1.015,-0.154 1.258,-0.431 1.623,-0.809 2.313,-1.425 9.05,-5.813 3.328,-1.738 4.18,-1.908 4.91,-2.272 1.948,-1.153 1.298,-1.017 0.893,-0.965 0.65,-1.028 0.446,-1.136 0.284,-1.337 0.162,-1.743 0.082,-2.7 0.04,-8.062 0.081,-49.497 0.041,2.885 0.325,54.249 0.162,26.444 0.081,0.458 0.041,-0.188 0.203,-2.257 0.568,-9.756 0.527,-11.011 0.041,-2.857 0.081,-59.21 0.041,1.21 0.162,15.488 0.284,36.211 0.162,35.961 0.041,0.178 0.04,-0.115 0.203,-1.789 0.447,-6.447 1.095,-19.065 0.041,-2.809 0.081,-58.725 0.041,1.321 0.162,17.217 0.284,48.901 0.163,21.612 0.04,0.09 0.041,-0.09 0.203,-1.294 0.527,-5.308 0.731,-6.863 0.487,-2.616 0.405,-1.05 0.325,-0.284 0.284,0.052 0.325,0.311 0.487,0.806 0.852,1.926 2.678,6.314 0.893,1.454 0.812,0.915 0.771,0.547 0.812,0.298 0.852,0.077 1.014,-0.14 1.218,-0.402 1.582,-0.771 0.528,-0.3 0,0"
       clip-path="url(#p8ca55fdb04-5)"
       inkscape:connector-curvature="0"
       transform="matrix(0.62587534,0,0,0.97998557,12.317142,-35.524358)" />
    <path
       style="fill:none;stroke:#000000;stroke-width:2.5;stroke-linecap:butt;stroke-linejoin:miter;stroke-miterlimit:4;stroke-opacity:1;stroke-dasharray:none"
       d="m 406.94735,290.91455 0,42.96318"
       id="path6197"
       inkscape:connector-curvature="0" />
    <path
       style="fill:none;stroke:#000000;stroke-width:2.5;stroke-linecap:butt;stroke-linejoin:miter;stroke-miterlimit:4;stroke-opacity:1;stroke-dasharray:none"
       d="m 58.499246,288.71954 0,42.96317"
       id="path6197-9"
       inkscape:connector-curvature="0" />
    <g
       id="g7211"
       transform="translate(-14.394674,-9.5964492)">
      <path
         inkscape:connector-curvature="0"
         d="m 624.17106,365.28242 63.4979,0"
         style="fill:none;stroke:#000000;stroke-width:2.5;stroke-linecap:square;stroke-linejoin:miter;stroke-miterlimit:4;stroke-dasharray:none"
         id="path297-6" />
      <text
         transform="scale(1.0002112,0.99978886)"
         sodipodi:linespacing="125%"
         id="text6172-9-3"
         y="387.47311"
         x="633.07495"
         style="font-size:16.72771072px;font-style:normal;font-weight:normal;line-height:125%;letter-spacing:0px;word-spacing:0px;fill:#000000;fill-opacity:1;stroke:none;font-family:Sans"
         xml:space="preserve"><tspan
           style="font-weight:bold"
           y="387.47311"
           x="633.07495"
           id="tspan6174-7-9"
           sodipodi:role="line">0.5 s</tspan></text>
    </g>
    <text
       xml:space="preserve"
       style="font-size:18.48374939px;font-style:normal;font-weight:normal;line-height:125%;letter-spacing:0px;word-spacing:0px;fill:#000000;fill-opacity:1;stroke:none;font-family:Sans"
       x="361.6102"
       y="318.13492"
       id="text6172-8"
       sodipodi:linespacing="125%"
       transform="scale(1.0002112,0.99978885)"><tspan
         sodipodi:role="line"
         id="tspan6174-8"
         x="361.6102"
         y="318.13492"
         style="font-weight:bold">mV</tspan></text>
    <text
       xml:space="preserve"
       style="font-size:24.18722534px;font-style:normal;font-weight:normal;line-height:125%;letter-spacing:0px;word-spacing:0px;fill:#000000;fill-opacity:1;stroke:none;font-family:Sans"
       x="77.145332"
       y="121.38399"
       id="text6249-1-6"
       sodipodi:linespacing="125%"
       transform="scale(1.0002112,0.99978885)"><tspan
         sodipodi:role="line"
         id="tspan6251-9-5"
         x="77.145332"
         y="121.38399"
         style="font-weight:bold">parameter set #1</tspan></text>
    <text
       xml:space="preserve"
       style="font-size:24.18722534px;font-style:normal;font-weight:normal;line-height:125%;letter-spacing:0px;word-spacing:0px;fill:#000000;fill-opacity:1;stroke:none;font-family:Sans"
       x="427.30127"
       y="121.38399"
       id="text6249-1-6-4"
       sodipodi:linespacing="125%"
       transform="scale(1.0002112,0.99978885)"><tspan
         sodipodi:role="line"
         id="tspan6251-9-5-6"
         x="427.30127"
         y="121.38399"
         style="font-weight:bold">parameter set #2</tspan></text>
    <text
       xml:space="preserve"
       style="font-size:24.18722534px;font-style:normal;font-weight:normal;line-height:125%;letter-spacing:0px;word-spacing:0px;fill:#000000;fill-opacity:1;stroke:none;font-family:Sans"
       x="121.58266"
       y="444.88385"
       id="text6249-1-8"
       sodipodi:linespacing="125%"
       transform="scale(1.0002112,0.99978885)"><tspan
         sodipodi:role="line"
         id="tspan6251-9-1"
         x="121.58266"
         y="444.88385"
         style="font-weight:bold">soma</tspan></text>
  </g>
</svg>
