<?xml version="1.0" encoding="utf-8" standalone="no"?>
<!DOCTYPE svg PUBLIC "-//W3C//DTD SVG 1.1//EN"
  "http://www.w3.org/Graphics/SVG/1.1/DTD/svg11.dtd">
<!-- Created with matplotlib (http://matplotlib.org/) -->
<svg height="432pt" version="1.1" viewBox="0 0 576 432" width="576pt" xmlns="http://www.w3.org/2000/svg" xmlns:xlink="http://www.w3.org/1999/xlink">
 <defs>
  <style type="text/css">
*{stroke-linecap:butt;stroke-linejoin:round;}
  </style>
 </defs>
 <g id="figure_1">
  <g id="patch_1">
   <path d="
M0 432
L576 432
L576 0
L0 0
z
" style="fill:#ffffff;"/>
  </g>
  <g id="axes_1">
   <g id="patch_2">
    <path d="
M72 378
L518.4 378
L518.4 43.2
L72 43.2
z
" style="fill:#ffffff;"/>
   </g>
   <g id="line2d_1">
    <path clip-path="url(#p332b41defa)" d="
M72 361.079
L72.5952 360.967
L73.7856 358.669
L75.5712 357.762
L77.3568 357.713
L78.5472 357.778
L79.1424 358.151
L80.3328 355.71
L80.928 355.095
L82.7136 355.02
L85.0944 355.021
L85.6896 355.024
L86.88 353.774
L88.0704 354.09
L89.856 354.806
L91.6416 355.763
L93.4272 356.511
L94.6176 356.752
L95.2128 353.814
L101.76 353.998
L104.141 354.376
L104.736 354.415
L105.331 353.51
L105.926 353.243
L107.117 353.239
L107.712 351.763
L108.307 346.365
L108.902 334.621
L109.498 328.277
L110.093 327.067
L111.283 332.449
L112.474 336.23
L113.069 337.576
L113.664 338.581
L114.259 339.251
L114.854 339.589
L115.45 320.291
L116.045 310.882
L116.64 303.492
L117.235 301.938
L117.83 299.294
L118.426 349.869
L119.021 347.594
L120.211 330.561
L120.806 325.398
L121.402 322.798
L121.997 323.962
L122.592 324.661
L123.187 324.895
L123.782 324.657
L124.378 323.932
L124.973 322.7
L125.568 320.929
L126.163 322.079
L126.758 322.656
L127.354 314.843
L127.949 308.649
L128.544 307.603
L129.139 307.614
L129.734 308.556
L130.33 308.392
L130.925 307.094
L131.52 306.527
L132.115 306.629
L132.71 302.439
L133.306 300.351
L133.901 301.211
L134.496 301.198
L135.091 300.285
L135.686 301.927
L136.282 302.677
L136.877 302.55
L137.472 303.419
L138.067 301.051
L138.662 302.594
L139.258 303.246
L139.853 303.022
L140.448 303.897
L141.043 350.097
L141.638 350.581
L144.019 350.899
L144.614 350.619
L146.4 350.761
L146.995 350.721
L147.59 350.913
L150.566 353.246
L151.757 353.884
L153.542 354.492
L154.138 354.592
L154.733 351.406
L156.518 353.409
L157.709 354.641
L158.899 356.039
L160.09 357.164
L161.28 357.999
L162.47 358.591
L163.066 358.719
L163.661 350.88
L164.851 351.431
L166.637 352.382
L169.613 354.274
L170.208 354.493
L170.803 351.034
L171.398 351.146
L174.374 352.829
L174.97 353.128
L177.35 354.9
L177.946 355.2
L178.541 355.355
L179.136 351.134
L179.731 351.306
L181.517 353.386
L182.707 354.776
L183.898 355.519
L185.683 356.241
L186.278 356.354
L186.874 354.779
L188.064 355.535
L189.85 356.326
L190.445 356.444
L191.04 351.249
L191.635 351.395
L194.611 354.704
L195.802 355.633
L196.992 356.341
L198.182 356.836
L199.373 357.095
L199.968 353.611
L201.754 355.619
L202.349 355.92
L204.134 356.15
L205.325 357.098
L206.515 357.742
L207.706 358.039
L208.301 354.029
L209.491 354.423
L210.682 354.605
L211.277 351.278
L213.062 351.214
L214.253 352.453
L215.443 353.631
L216.634 354.736
L217.824 355.61
L219.014 356.044
L219.61 351.101
L220.205 351.178
L221.99 353.021
L223.181 354.731
L224.371 355.902
L225.562 356.552
L226.157 356.739
L226.752 350.759
L227.942 349.654
L228.538 349.41
L229.133 349.896
L229.728 350.142
L230.323 349.193
L230.918 349.781
L232.704 354.892
L233.299 356.469
L233.894 357.445
L236.275 359.652
L237.466 360.899
L239.251 362.268
L240.442 363.023
L241.632 363.423
L242.227 363.515
L242.822 357.697
L244.013 359.647
L245.203 361.213
L246.394 362.239
L247.584 363.519
L248.774 365.079
L249.965 366.349
L251.155 367.339
L252.346 368.034
L253.536 368.429
L254.131 368.521
L254.726 361.723
L256.512 363.137
L257.702 363.92
L260.083 364.831
L261.274 365.048
L261.869 363.896
L263.059 364.557
L264.845 365.23
L266.035 365.487
L266.63 365.538
L267.226 348.395
L267.821 347.563
L268.416 348.058
L269.011 348.307
L269.606 346.579
L270.202 344.181
L271.392 336.896
L272.582 329.028
L273.773 317.815
L274.368 315.733
L276.749 333.023
L277.344 336.354
L277.939 338.973
L279.13 342.574
L279.725 343.674
L280.32 344.214
L280.915 311.38
L281.51 306.968
L282.106 305.543
L282.701 306.248
L283.296 308.642
L283.891 309.96
L284.486 312.333
L285.082 315.961
L286.272 321.442
L286.867 323.361
L287.462 324.475
L288.058 304.494
L289.248 296.167
L289.843 294.3
L290.438 295.964
L291.034 295.803
L291.629 295.804
L292.224 327.957
L292.819 312.885
L293.414 305.664
L294.01 302.358
L294.605 322.382
L295.2 322.353
L295.795 321.418
L296.39 319.438
L296.986 315.68
L297.581 309.21
L298.176 304.199
L298.771 300.201
L299.366 298.933
L299.962 296.372
L300.557 295.741
L301.152 297.261
L301.747 315.449
L302.938 323.257
L303.533 325.995
L304.128 328
L304.723 329.297
L305.318 330.008
L305.914 357.038
L306.509 348.001
L307.104 341.869
L307.699 342.243
L310.08 344.378
L311.27 345.083
L312.461 345.413
L313.056 342.262
L317.222 345.534
L318.413 346.003
L319.008 346.104
L319.603 335.526
L320.198 334.396
L321.389 336.55
L322.579 338.252
L323.77 339.324
L324.365 339.689
L324.96 339.878
L325.555 331.797
L327.341 312.032
L327.936 313.37
L328.531 314.257
L329.126 314.7
L329.722 345.213
L330.317 335.343
L331.507 328.115
L332.102 324.01
L332.698 321.753
L333.293 322.94
L333.888 323.537
L334.483 326.845
L335.078 316.361
L335.674 314.167
L336.269 311.318
L336.864 307.721
L337.459 303.14
L338.054 305.249
L338.65 306.238
L339.245 306.138
L339.84 304.923
L340.435 313.66
L341.626 307.37
L342.221 305.881
L342.816 308.014
L343.411 309.557
L344.006 310.637
L344.602 311.231
L345.197 312.981
L345.792 313.834
L346.387 314.135
L346.982 313.807
L347.578 315.642
L348.173 316.856
L348.768 317.463
L349.363 360.305
L349.958 359.976
L350.554 359.878
L351.744 359.398
L352.339 359.347
L355.315 359.796
L355.91 359.466
L356.506 359.565
L361.267 361.426
L361.862 361.508
L362.458 359.778
L364.243 360.249
L366.624 361.281
L367.814 361.629
L368.41 361.717
L369.005 360.248
L371.981 361.828
L373.766 362.435
L374.957 362.63
L375.552 361.623
L377.338 362.537
L378.528 362.935
L379.123 363.028
L379.718 361.338
L382.099 362.582
L383.885 363.219
L384.48 363.311
L385.075 359.785
L388.051 359.771
L388.646 359.998
L391.027 362.427
L391.622 362.832
L392.813 363.251
L394.003 363.467
L394.598 362.828
L396.384 363.503
L397.574 363.779
L398.17 363.841
L398.765 359.918
L399.955 359.984
L401.146 360.324
L405.312 362.365
L406.502 362.725
L407.098 362.82
L407.693 361.441
L410.074 362.066
L411.264 362.203
L411.859 360.102
L412.454 360.228
L415.43 361.675
L416.621 362.047
L417.216 362.147
L417.811 360.21
L421.382 360.698
L421.978 360.726
L422.573 360.574
L425.549 361.259
L426.739 361.392
L427.334 361.052
L429.12 361.527
L429.715 361.595
L430.31 359.849
L430.906 359.553
L431.501 359.413
L432.096 360.585
L434.477 360.261
L435.072 360.209
L436.262 360.623
L437.453 361.308
L438.643 361.465
L441.024 361.863
L441.619 361.624
L442.214 362.093
L446.381 363.669
L447.571 363.826
L448.166 363.675
L449.357 363.863
L449.952 362.148
L452.928 363.798
L454.118 364.09
L454.714 364.162
L455.309 363.715
L457.69 365.2
L458.88 365.717
L460.07 365.974
L460.666 363.175
L463.046 364.475
L464.237 364.947
L465.427 365.184
L466.022 360.407
L467.213 359.878
L468.403 359.646
L470.189 359.929
L473.76 360.718
L474.355 360.112
L475.546 359.993
L477.331 359.995
L479.712 360.506
L481.498 360.853
L482.093 360.905
L482.688 359.972
L485.069 360.165
L486.259 360.248
L486.854 360.055
L488.64 361.054
L491.616 363.032
L493.402 364.191
L494.592 364.722
L495.782 364.98
L496.378 362.462
L498.163 362.884
L498.758 362.942
L499.354 359.993
L499.949 360.036
L501.139 360.483
L502.925 361.33
L505.306 361.541
L505.901 361.418
L507.686 362.006
L508.282 362.091
L508.877 360.331
L510.067 360.349
L510.662 362.355
L511.258 365.357
L511.853 367.505
L512.448 368.92
L513.043 369.63
L513.043 369.63" style="fill:none;stroke:#000000;stroke-linecap:square;stroke-width:8;"/>
   </g>
   <g id="line2d_2">
    <path clip-path="url(#p332b41defa)" d="
M72 139.871
L72.5952 236.659
L73.1904 240.55
L73.7856 226.506
L74.3808 222.453
L74.976 221.281
L75.5712 224.243
L76.7616 236.653
L77.3568 242.878
L77.952 247.704
L78.5472 250.367
L79.1424 253.926
L79.7376 274.978
L80.3328 300.565
L80.928 301.107
L81.5232 300.389
L82.1184 300.109
L82.7136 300.029
L83.3088 304.682
L84.4992 311.654
L85.0944 314.088
L85.6896 315.386
L86.88 338.556
L89.2608 357.167
L90.4512 364.48
L91.6416 369.749
L92.2368 371.639
L92.832 373.092
L93.4272 374.135
L94.0224 374.807
L94.6176 375.136
L95.2128 347.59
L95.808 348.979
L96.4032 349.978
L96.9984 350.505
L97.5936 354.972
L98.784 360.826
L99.3792 362.892
L99.9744 364.3
L100.57 365.013
L101.165 358.777
L102.355 364.953
L102.95 367.215
L103.546 368.911
L104.141 370.04
L104.736 370.603
L105.331 340.709
L105.926 340.312
L107.117 340.473
L107.712 355.018
L108.307 357.872
L108.902 358.42
L109.498 362.53
L110.093 364.927
L110.688 367.926
L111.283 370.319
L111.878 372.19
L112.474 373.618
L113.069 374.673
L113.664 375.411
L114.259 375.878
L114.854 376.104
L115.45 363.68
L116.64 365.295
L117.235 366.56
L117.83 366.948
L118.426 363.223
L119.021 366.816
L119.616 368.818
L120.211 371.643
L120.806 372.393
L123.187 375.959
L124.378 376.865
L125.568 377.333
L126.758 377.547
L127.354 372.843
L127.949 373.561
L129.139 375.247
L129.734 375.878
L130.33 376.309
L130.925 376.565
L131.52 376.694
L132.115 373.753
L133.306 375.909
L134.496 376.848
L135.686 377.377
L136.877 377.631
L137.472 377.68
L138.067 376.409
L139.258 377.07
L140.448 377.323
L141.043 368.159
L141.638 369.599
L142.234 370.711
L142.829 371.578
L143.424 372.178
L144.019 372.482
L144.614 371.718
L145.21 372.322
L145.805 372.74
L146.4 372.957
L146.995 374.403
L147.59 375.555
L148.781 376.566
L149.971 377.209
L151.162 377.586
L152.947 377.845
L154.138 377.897
L154.733 376.106
L155.923 376.932
L157.114 377.431
L158.304 377.717
L160.09 377.911
L163.066 377.984
L163.661 375.84
L164.851 376.709
L166.042 377.276
L167.232 377.617
L169.018 377.857
L170.208 377.905
L170.803 376.724
L171.994 377.261
L173.184 377.6
L174.97 377.858
L177.946 377.977
L178.541 377.981
L179.136 377.249
L180.922 377.717
L182.707 377.925
L186.278 377.99
L187.469 377.949
L190.445 377.99
L191.04 377.547
L192.826 377.885
L196.397 377.989
L207.706 377.999
L208.896 377.967
L210.682 377.985
L211.277 377.681
L213.062 377.916
L217.229 377.995
L258.298 378
L305.318 378
L305.914 279.503
L306.509 275.548
L307.104 269.785
L308.294 287.501
L310.08 315.157
L310.675 322.431
L311.27 328.153
L311.866 332.097
L312.461 334.112
L313.056 278.768
L316.032 328.279
L317.222 342.481
L317.818 347.377
L318.413 350.682
L319.008 352.346
L319.603 256.65
L320.198 262.4
L321.984 298.192
L323.174 316.625
L323.77 323.153
L324.365 327.691
L324.96 329.998
L325.555 258.368
L327.341 249.041
L327.936 260.172
L328.531 267.772
L329.126 271.629
L329.722 273.453
L330.317 246.407
L332.102 231.174
L332.698 230.549
L333.293 237.582
L333.888 241.186
L334.483 261.579
L335.078 252.365
L336.269 270.848
L336.864 278.609
L337.459 284.512
L338.054 297.196
L338.65 306.269
L339.245 311.733
L339.84 313.499
L340.435 258.734
L341.626 272.957
L342.221 281.8
L342.816 293.81
L343.411 302.889
L344.006 309.059
L344.602 312.214
L345.197 268.938
L346.387 291.525
L348.173 314.256
L348.768 317.206
L349.363 242.192
L349.958 276.534
L350.554 302.748
L351.149 311.438
L351.744 315.406
L354.125 334.224
L354.72 337.046
L355.315 338.517
L355.91 316.877
L358.886 349.981
L359.482 354.966
L360.077 358.997
L360.672 362.033
L361.267 364.06
L361.862 365.075
L362.458 320.887
L363.053 333.432
L365.434 352.903
L366.624 360.166
L367.219 362.682
L367.814 364.399
L368.41 365.266
L369.005 342.093
L370.195 359.236
L370.79 364.493
L371.981 369.128
L372.576 370.885
L373.171 372.269
L373.766 373.289
L374.362 373.96
L374.957 374.292
L375.552 366.998
L376.742 370.934
L377.338 372.326
L377.933 373.35
L378.528 374.022
L379.123 374.355
L379.718 362.483
L380.909 367.833
L382.099 371.619
L382.694 372.937
L383.29 373.908
L383.885 374.541
L384.48 374.854
L385.075 328.047
L386.266 343.228
L386.861 345.019
L387.456 346.271
L388.051 346.975
L388.646 349.112
L389.837 360.587
L391.027 369.618
L391.622 371.47
L392.218 372.848
L392.813 373.849
L393.408 374.5
L394.003 374.82
L394.598 371.6
L395.194 373.128
L395.789 374.318
L396.384 375.206
L396.979 375.834
L397.574 376.233
L398.17 376.427
L398.765 289.126
L399.955 321.795
L401.146 335.608
L402.931 358.399
L404.122 365.118
L404.717 367.709
L405.312 369.753
L405.907 371.261
L406.502 372.258
L407.098 372.755
L407.693 361.964
L408.883 367.592
L409.478 369.623
L410.074 371.129
L410.669 372.123
L411.264 372.616
L411.859 333.975
L414.835 358.162
L415.43 361.478
L416.026 363.997
L416.621 365.701
L417.216 366.564
L417.811 341.757
L419.002 357.294
L420.192 362.714
L420.787 364.65
L421.382 365.977
L421.978 366.651
L422.573 361.803
L423.763 369.69
L424.358 371.395
L424.954 372.731
L425.549 373.714
L426.144 374.357
L426.739 374.675
L427.334 371.399
L427.93 372.749
L428.525 373.738
L429.12 374.385
L429.715 374.704
L430.31 217.658
L430.906 200.352
L431.501 191.472
L432.096 229.489
L432.691 229.676
L433.286 234.573
L433.882 223.264
L434.477 215.242
L435.072 211.144
L435.667 254.533
L436.858 305.126
L438.048 320.894
L439.238 334.088
L439.834 338.991
L440.429 342.422
L441.024 344.192
L441.619 324.918
L442.81 341.046
L444 354.332
L445.19 364.697
L445.786 368.784
L446.381 370.536
L446.976 371.675
L447.571 372.238
L448.166 370.537
L448.762 371.683
L449.357 372.25
L449.952 336.766
L451.142 357.951
L451.738 364.11
L452.333 366.887
L452.928 368.997
L453.523 370.567
L454.118 371.605
L454.714 372.122
L455.309 367.21
L455.904 369.733
L456.499 371.761
L457.094 373.349
L457.69 374.557
L458.285 375.444
L458.88 376.061
L459.475 376.449
L460.07 376.635
L460.666 361.914
L461.856 368.165
L462.451 370.467
L463.046 372.272
L463.642 373.632
L464.237 374.598
L464.832 375.216
L465.427 375.516
L466.022 247.405
L466.618 242.89
L467.213 242.807
L467.808 246.675
L468.403 254.257
L469.594 276.677
L471.379 311.906
L471.974 321.292
L472.57 328.812
L473.165 333.961
L473.76 336.58
L474.355 266.892
L474.95 282.469
L476.141 307.182
L476.736 321.019
L478.522 342.277
L479.712 353.506
L480.307 357.722
L480.902 360.911
L481.498 363.046
L482.093 364.117
L482.688 327.685
L483.878 339.96
L484.474 344.962
L485.069 348.895
L485.664 351.602
L486.259 352.984
L486.854 288.914
L488.045 308.517
L490.426 351.574
L491.616 361.455
L492.211 365.254
L492.806 368.305
L493.402 370.679
L493.997 372.456
L494.592 373.712
L495.187 374.511
L495.782 374.899
L496.378 356.148
L496.973 359.804
L497.568 362.587
L498.163 364.46
L498.758 365.401
L499.354 274.322
L499.949 284.828
L502.33 337.065
L502.925 343.17
L503.52 348.03
L504.115 351.78
L504.71 354.329
L505.306 355.619
L505.901 343.254
L506.496 348.318
L507.091 352.209
L507.686 354.846
L508.282 356.181
L508.877 297.731
L510.067 298.054
L510.662 74.867
L511.258 70.0181
L511.853 74.5784
L512.448 83.2989
L513.043 89.8873
L513.043 89.8873" style="fill:none;stroke:#0000ff;stroke-linecap:square;stroke-width:4;"/>
   </g>
   <g id="line2d_3">
    <path clip-path="url(#p332b41defa)" d="
M72 145.687
L72.5952 239.271
L73.1904 242.75
L73.7856 228.606
L74.3808 224.223
L74.976 222.611
L75.5712 225.043
L76.7616 236.376
L77.3568 242.163
L77.952 246.675
L78.5472 249.175
L79.1424 255.781
L79.7376 276.287
L80.3328 301.199
L80.928 301.383
L81.5232 300.56
L82.1184 300.197
L82.7136 300.071
L83.3088 304.698
L84.4992 311.238
L85.0944 313.534
L85.6896 314.759
L86.88 338.591
L89.2608 356.968
L90.4512 364.246
L91.6416 369.525
L92.2368 371.43
L92.832 372.9
L93.4272 373.958
L94.0224 374.641
L94.6176 374.976
L95.2128 347.466
L95.808 348.793
L96.4032 349.747
L96.9984 350.251
L97.5936 354.76
L98.784 360.53
L99.3792 362.569
L99.9744 363.959
L100.57 364.664
L101.165 358.536
L102.355 364.682
L102.95 366.94
L103.546 368.634
L104.141 369.763
L104.736 370.328
L105.331 340.814
L105.926 340.357
L107.117 340.443
L107.712 355.024
L108.307 357.819
L108.902 358.289
L109.498 362.335
L110.093 364.719
L110.688 367.729
L111.283 370.137
L111.878 372.025
L112.474 373.47
L113.069 374.54
L113.664 375.292
L114.259 375.768
L114.854 375.999
L115.45 363.428
L116.64 364.938
L117.235 366.19
L117.83 366.563
L118.426 363.183
L119.021 366.765
L119.616 368.751
L120.211 371.565
L120.806 372.303
L123.187 375.889
L124.378 376.813
L125.568 377.293
L126.758 377.515
L127.354 372.751
L127.949 373.462
L129.139 375.158
L129.734 375.797
L130.33 376.233
L130.925 376.492
L131.52 376.623
L132.115 373.662
L133.306 375.841
L134.496 376.799
L135.686 377.343
L136.877 377.605
L137.472 377.657
L138.067 376.349
L139.258 377.023
L140.448 377.282
L141.043 368.086
L141.638 369.502
L142.234 370.593
L142.829 371.446
L143.424 372.037
L144.019 372.336
L144.614 371.644
L145.21 372.233
L145.805 372.642
L146.4 372.853
L146.995 374.346
L147.59 375.504
L148.781 376.524
L149.971 377.178
L151.162 377.565
L152.947 377.834
L154.138 377.889
L154.733 376.058
L155.923 376.896
L157.114 377.406
L158.304 377.702
L160.09 377.905
L163.066 377.982
L163.661 375.796
L164.851 376.673
L166.042 377.249
L167.232 377.599
L169.018 377.847
L170.208 377.898
L170.803 376.692
L171.994 377.237
L173.184 377.583
L174.97 377.85
L177.946 377.975
L178.541 377.979
L179.136 377.227
L180.922 377.705
L182.707 377.921
L186.278 377.989
L187.469 377.945
L190.445 377.989
L191.04 377.531
L192.826 377.88
L196.397 377.988
L207.706 377.999
L208.896 377.965
L210.682 377.983
L211.277 377.669
L213.062 377.912
L217.229 377.995
L255.322 378
L305.318 378
L305.914 280.812
L306.509 276.391
L307.104 270.407
L308.294 287.668
L310.08 314.661
L310.675 321.769
L311.27 327.364
L311.866 331.223
L312.461 333.194
L313.056 279.204
L316.032 327.794
L317.222 341.801
L317.818 346.642
L318.413 349.912
L319.008 351.56
L319.603 257.184
L320.198 262.729
L321.984 297.803
L323.174 315.864
L323.77 322.263
L324.365 326.715
L324.96 328.978
L325.555 258.567
L327.341 248.02
L327.936 258.904
L328.531 266.334
L329.722 274.287
L330.317 247.124
L332.102 230.816
L332.698 229.853
L333.293 236.675
L333.888 240.17
L334.483 262.003
L335.078 252.615
L336.269 270.552
L336.864 278.017
L337.459 283.624
L338.054 296.125
L338.65 305.048
L339.245 310.398
L339.84 312.083
L340.435 258.719
L341.626 272.399
L342.221 280.989
L342.816 292.821
L343.411 301.762
L344.006 307.839
L344.602 310.949
L345.197 268.682
L346.387 290.817
L348.173 313.147
L348.768 316.056
L349.363 244.629
L349.958 278.046
L350.554 303.526
L351.149 311.843
L351.744 315.59
L354.125 333.696
L354.72 336.429
L355.315 337.856
L355.91 317.116
L358.886 349.609
L359.482 354.546
L360.077 358.548
L360.672 361.569
L361.267 363.589
L361.862 364.602
L362.458 321.276
L363.053 333.596
L365.434 352.659
L366.624 359.821
L367.219 362.309
L367.814 364.011
L368.41 364.87
L369.005 342.157
L370.195 359.126
L370.79 364.344
L371.981 368.958
L372.576 370.715
L373.171 372.101
L373.766 373.125
L374.362 373.799
L374.957 374.134
L375.552 366.836
L376.742 370.765
L377.338 372.16
L377.933 373.189
L378.528 373.865
L379.123 374.2
L379.718 362.343
L380.909 367.663
L382.099 371.451
L382.694 372.774
L383.29 373.752
L383.885 374.392
L384.48 374.707
L385.075 328.255
L386.266 343.09
L386.861 344.786
L387.456 345.969
L388.051 346.639
L388.646 348.923
L389.837 360.368
L391.027 369.426
L391.622 371.287
L392.218 372.674
L392.813 373.685
L393.408 374.343
L394.003 374.668
L394.598 371.425
L395.194 372.971
L395.789 374.179
L396.384 375.084
L396.979 375.725
L397.574 376.134
L398.17 376.333
L398.765 290.341
L399.955 322.245
L401.146 335.773
L402.931 358.227
L404.122 364.887
L404.717 367.468
L405.312 369.511
L405.907 371.022
L406.502 372.023
L407.098 372.523
L407.693 361.754
L408.883 367.347
L409.478 369.376
L410.074 370.885
L410.669 371.882
L411.264 372.378
L411.859 334.156
L414.835 357.847
L415.43 361.125
L416.026 363.622
L416.621 365.313
L417.216 366.171
L417.811 341.814
L419.002 357.141
L420.192 362.453
L420.787 364.356
L421.382 365.661
L421.978 366.326
L422.573 361.63
L423.763 369.51
L424.358 371.218
L424.954 372.56
L425.549 373.55
L426.144 374.199
L426.739 374.521
L427.334 371.222
L427.93 372.579
L428.525 373.575
L429.12 374.228
L429.715 374.551
L430.31 220.713
L430.906 203.837
L431.501 195.177
L432.096 231.989
L432.691 231.878
L433.286 236.369
L433.882 225.081
L434.477 217.059
L435.072 212.955
L435.667 255.845
L436.858 305.372
L438.048 320.654
L439.238 333.501
L439.834 338.291
L440.429 341.65
L441.024 343.385
L441.619 324.911
L442.81 340.821
L444 354.013
L445.19 364.38
L445.786 368.486
L446.381 370.25
L446.976 371.399
L447.571 371.967
L448.166 370.251
L448.762 371.408
L449.357 371.98
L449.952 336.66
L451.142 357.722
L451.738 363.868
L452.333 366.638
L452.928 368.746
L453.523 370.319
L454.118 371.36
L454.714 371.879
L455.309 366.979
L455.904 369.52
L456.499 371.57
L457.094 373.182
L457.69 374.414
L458.285 375.321
L458.88 375.954
L459.475 376.353
L460.07 376.546
L460.666 361.669
L461.856 367.929
L462.451 370.248
L463.046 372.073
L463.642 373.453
L464.237 374.436
L464.832 375.066
L465.427 375.373
L466.022 249.419
L466.618 244.818
L467.213 244.528
L467.808 248.09
L468.403 255.294
L469.594 276.894
L471.379 311.161
L471.974 320.349
L472.57 327.732
L473.165 332.797
L473.76 335.376
L474.355 268.259
L474.95 283.419
L476.141 307.527
L476.736 321.041
L478.522 341.941
L479.712 353.05
L480.307 357.235
L480.902 360.408
L481.498 362.536
L482.093 363.604
L482.688 327.538
L483.878 339.536
L484.474 344.44
L485.069 348.301
L485.664 350.963
L486.259 352.322
L486.854 289.686
L488.045 308.865
L490.426 351.277
L491.616 361.129
L492.211 364.941
L492.806 368.015
L493.402 370.416
L493.997 372.221
L494.592 373.501
L495.187 374.317
L495.782 374.714
L496.378 355.791
L496.973 359.405
L497.568 362.163
L498.163 364.022
L498.758 364.957
L499.354 275.371
L499.949 285.501
L501.734 323.995
L502.33 336.685
L502.925 342.706
L503.52 347.499
L504.115 351.202
L504.71 353.721
L505.306 354.996
L505.901 342.792
L506.496 347.795
L507.091 351.643
L507.686 354.255
L508.282 355.577
L508.877 297.858
L510.067 298.009
L510.662 82.9716
L511.258 78.626
L511.853 83.2727
L512.448 91.8578
L513.043 98.3046
L513.043 98.3046" style="fill:none;stroke:#ff0000;stroke-linecap:square;stroke-width:2;"/>
   </g>
   <g id="patch_3">
    <path d="
M72 43.2
L518.4 43.2" style="fill:none;stroke:#000000;stroke-linecap:square;stroke-linejoin:miter;"/>
   </g>
   <g id="patch_4">
    <path d="
M518.4 378
L518.4 43.2" style="fill:none;stroke:#000000;stroke-linecap:square;stroke-linejoin:miter;"/>
   </g>
   <g id="patch_5">
    <path d="
M72 378
L518.4 378" style="fill:none;stroke:#000000;stroke-linecap:square;stroke-linejoin:miter;"/>
   </g>
   <g id="patch_6">
    <path d="
M72 378
L72 43.2" style="fill:none;stroke:#000000;stroke-linecap:square;stroke-linejoin:miter;"/>
   </g>
   <g id="matplotlib.axis_1">
    <g id="xtick_1">
     <g id="line2d_4">
      <defs>
       <path d="
M0 0
L0 -4" id="m93b0483c22" style="stroke:#000000;stroke-width:0.5;"/>
      </defs>
      <g>
       <use style="stroke:#000000;stroke-width:0.5;" x="72.0" xlink:href="#m93b0483c22" y="378.0"/>
      </g>
     </g>
     <g id="line2d_5">
      <defs>
       <path d="
M0 0
L0 4" id="m741efc42ff" style="stroke:#000000;stroke-width:0.5;"/>
      </defs>
      <g>
       <use style="stroke:#000000;stroke-width:0.5;" x="72.0" xlink:href="#m741efc42ff" y="43.2"/>
      </g>
     </g>
     <g id="text_1">
      <!-- 0 -->
      <defs>
       <path d="
M31.7812 66.4062
Q24.1719 66.4062 20.3281 58.9062
Q16.5 51.4219 16.5 36.375
Q16.5 21.3906 20.3281 13.8906
Q24.1719 6.39062 31.7812 6.39062
Q39.4531 6.39062 43.2812 13.8906
Q47.125 21.3906 47.125 36.375
Q47.125 51.4219 43.2812 58.9062
Q39.4531 66.4062 31.7812 66.4062
M31.7812 74.2188
Q44.0469 74.2188 50.5156 64.5156
Q56.9844 54.8281 56.9844 36.375
Q56.9844 17.9688 50.5156 8.26562
Q44.0469 -1.42188 31.7812 -1.42188
Q19.5312 -1.42188 13.0625 8.26562
Q6.59375 17.9688 6.59375 36.375
Q6.59375 54.8281 13.0625 64.5156
Q19.5312 74.2188 31.7812 74.2188" id="BitstreamVeraSans-Roman-30"/>
      </defs>
      <g transform="translate(68.47265625 392.6378125)scale(0.14 -0.14)">
       <use xlink:href="#BitstreamVeraSans-Roman-30"/>
      </g>
     </g>
    </g>
    <g id="xtick_2">
     <g id="line2d_6">
      <g>
       <use style="stroke:#000000;stroke-width:0.5;" x="220.8" xlink:href="#m93b0483c22" y="378.0"/>
      </g>
     </g>
     <g id="line2d_7">
      <g>
       <use style="stroke:#000000;stroke-width:0.5;" x="220.8" xlink:href="#m741efc42ff" y="43.2"/>
      </g>
     </g>
     <g id="text_2">
      <!-- 250 -->
      <defs>
       <path d="
M19.1875 8.29688
L53.6094 8.29688
L53.6094 0
L7.32812 0
L7.32812 8.29688
Q12.9375 14.1094 22.625 23.8906
Q32.3281 33.6875 34.8125 36.5312
Q39.5469 41.8438 41.4219 45.5312
Q43.3125 49.2188 43.3125 52.7812
Q43.3125 58.5938 39.2344 62.25
Q35.1562 65.9219 28.6094 65.9219
Q23.9688 65.9219 18.8125 64.3125
Q13.6719 62.7031 7.8125 59.4219
L7.8125 69.3906
Q13.7656 71.7812 18.9375 73
Q24.125 74.2188 28.4219 74.2188
Q39.75 74.2188 46.4844 68.5469
Q53.2188 62.8906 53.2188 53.4219
Q53.2188 48.9219 51.5312 44.8906
Q49.8594 40.875 45.4062 35.4062
Q44.1875 33.9844 37.6406 27.2188
Q31.1094 20.4531 19.1875 8.29688" id="BitstreamVeraSans-Roman-32"/>
       <path d="
M10.7969 72.9062
L49.5156 72.9062
L49.5156 64.5938
L19.8281 64.5938
L19.8281 46.7344
Q21.9688 47.4688 24.1094 47.8281
Q26.2656 48.1875 28.4219 48.1875
Q40.625 48.1875 47.75 41.5
Q54.8906 34.8125 54.8906 23.3906
Q54.8906 11.625 47.5625 5.09375
Q40.2344 -1.42188 26.9062 -1.42188
Q22.3125 -1.42188 17.5469 -0.640625
Q12.7969 0.140625 7.71875 1.70312
L7.71875 11.625
Q12.1094 9.23438 16.7969 8.0625
Q21.4844 6.89062 26.7031 6.89062
Q35.1562 6.89062 40.0781 11.3281
Q45.0156 15.7656 45.0156 23.3906
Q45.0156 31 40.0781 35.4375
Q35.1562 39.8906 26.7031 39.8906
Q22.75 39.8906 18.8125 39.0156
Q14.8906 38.1406 10.7969 36.2812
z
" id="BitstreamVeraSans-Roman-35"/>
      </defs>
      <g transform="translate(208.4165625 392.6378125)scale(0.14 -0.14)">
       <use xlink:href="#BitstreamVeraSans-Roman-32"/>
       <use x="63.623046875" xlink:href="#BitstreamVeraSans-Roman-35"/>
       <use x="127.24609375" xlink:href="#BitstreamVeraSans-Roman-30"/>
      </g>
     </g>
    </g>
    <g id="xtick_3">
     <g id="line2d_8">
      <g>
       <use style="stroke:#000000;stroke-width:0.5;" x="369.6" xlink:href="#m93b0483c22" y="378.0"/>
      </g>
     </g>
     <g id="line2d_9">
      <g>
       <use style="stroke:#000000;stroke-width:0.5;" x="369.6" xlink:href="#m741efc42ff" y="43.2"/>
      </g>
     </g>
     <g id="text_3">
      <!-- 500 -->
      <g transform="translate(357.24390625 392.6378125)scale(0.14 -0.14)">
       <use xlink:href="#BitstreamVeraSans-Roman-35"/>
       <use x="63.623046875" xlink:href="#BitstreamVeraSans-Roman-30"/>
       <use x="127.24609375" xlink:href="#BitstreamVeraSans-Roman-30"/>
      </g>
     </g>
    </g>
    <g id="xtick_4">
     <g id="line2d_10">
      <g>
       <use style="stroke:#000000;stroke-width:0.5;" x="518.4" xlink:href="#m93b0483c22" y="378.0"/>
      </g>
     </g>
     <g id="line2d_11">
      <g>
       <use style="stroke:#000000;stroke-width:0.5;" x="518.4" xlink:href="#m741efc42ff" y="43.2"/>
      </g>
     </g>
     <g id="text_4">
      <!-- 750 -->
      <defs>
       <path d="
M8.20312 72.9062
L55.0781 72.9062
L55.0781 68.7031
L28.6094 0
L18.3125 0
L43.2188 64.5938
L8.20312 64.5938
z
" id="BitstreamVeraSans-Roman-37"/>
      </defs>
      <g transform="translate(506.0778125 392.6378125)scale(0.14 -0.14)">
       <use xlink:href="#BitstreamVeraSans-Roman-37"/>
       <use x="63.623046875" xlink:href="#BitstreamVeraSans-Roman-35"/>
       <use x="127.24609375" xlink:href="#BitstreamVeraSans-Roman-30"/>
      </g>
     </g>
    </g>
    <g id="text_5">
     <!-- compartment number -->
     <defs>
      <path d="
M32.9062 24.6094
Q27.4375 24.6094 24.6719 22.75
Q21.9219 20.9062 21.9219 17.2812
Q21.9219 13.9688 24.1406 12.0781
Q26.375 10.2031 30.3281 10.2031
Q35.25 10.2031 38.625 13.7344
Q42 17.2812 42 22.6094
L42 24.6094
z

M59.625 31.2031
L59.625 0
L42 0
L42 8.10938
Q38.4844 3.125 34.0781 0.84375
Q29.6875 -1.42188 23.3906 -1.42188
Q14.8906 -1.42188 9.59375 3.53125
Q4.29688 8.5 4.29688 16.4062
Q4.29688 26.0312 10.9062 30.5156
Q17.5312 35.0156 31.6875 35.0156
L42 35.0156
L42 36.375
Q42 40.5312 38.7188 42.4531
Q35.4531 44.3906 28.5156 44.3906
Q22.9062 44.3906 18.0625 43.2656
Q13.2344 42.1406 9.07812 39.8906
L9.07812 53.2188
Q14.7031 54.5938 20.3594 55.2969
Q26.0312 56 31.6875 56
Q46.4844 56 53.0469 50.1719
Q59.625 44.3438 59.625 31.2031" id="BitstreamVeraSans-Bold-61"/>
      <path id="BitstreamVeraSans-Bold-20"/>
      <path d="
M37.5 11.2812
Q43.1094 11.2812 46.0625 15.375
Q49.0312 19.4844 49.0312 27.2969
Q49.0312 35.1094 46.0625 39.2031
Q43.1094 43.3125 37.5 43.3125
Q31.8906 43.3125 28.875 39.1875
Q25.875 35.0625 25.875 27.2969
Q25.875 19.5312 28.875 15.4062
Q31.8906 11.2812 37.5 11.2812
M25.875 46.6875
Q29.5 51.4688 33.8906 53.7344
Q38.2812 56 44 56
Q54.1094 56 60.5938 47.9688
Q67.0938 39.9375 67.0938 27.2969
Q67.0938 14.6562 60.5938 6.60938
Q54.1094 -1.42188 44 -1.42188
Q38.2812 -1.42188 33.8906 0.84375
Q29.5 3.125 25.875 7.90625
L25.875 0
L8.40625 0
L8.40625 75.9844
L25.875 75.9844
z
" id="BitstreamVeraSans-Bold-62"/>
      <path d="
M52.5938 52.9844
L52.5938 38.7188
Q49.0312 41.1562 45.4375 42.3281
Q41.8438 43.5 37.9844 43.5
Q30.6719 43.5 26.5938 39.2344
Q22.5156 34.9688 22.5156 27.2969
Q22.5156 19.625 26.5938 15.3438
Q30.6719 11.0781 37.9844 11.0781
Q42.0938 11.0781 45.7812 12.2969
Q49.4688 13.5312 52.5938 15.9219
L52.5938 1.60938
Q48.4844 0.09375 44.2656 -0.65625
Q40.0469 -1.42188 35.7969 -1.42188
Q21 -1.42188 12.6406 6.17188
Q4.29688 13.7656 4.29688 27.2969
Q4.29688 40.8281 12.6406 48.4062
Q21 56 35.7969 56
Q40.0938 56 44.2656 55.25
Q48.4375 54.5 52.5938 52.9844" id="BitstreamVeraSans-Bold-63"/>
      <path d="
M49.0312 39.7969
Q46.7344 40.875 44.4531 41.375
Q42.1875 41.8906 39.8906 41.8906
Q33.1562 41.8906 29.5156 37.5625
Q25.875 33.25 25.875 25.2031
L25.875 0
L8.40625 0
L8.40625 54.6875
L25.875 54.6875
L25.875 45.7031
Q29.25 51.0781 33.6094 53.5312
Q37.9844 56 44.0938 56
Q44.9688 56 45.9844 55.9219
Q47.0156 55.8594 48.9688 55.6094
z
" id="BitstreamVeraSans-Bold-72"/>
      <path d="
M7.8125 21.2969
L7.8125 54.6875
L25.3906 54.6875
L25.3906 49.2188
Q25.3906 44.7812 25.3438 38.0625
Q25.2969 31.3438 25.2969 29.1094
Q25.2969 22.5156 25.6406 19.6094
Q25.9844 16.7031 26.8125 15.375
Q27.875 13.6719 29.6094 12.7344
Q31.3438 11.8125 33.5938 11.8125
Q39.0625 11.8125 42.1875 16.0156
Q45.3125 20.2188 45.3125 27.6875
L45.3125 54.6875
L62.7969 54.6875
L62.7969 0
L45.3125 0
L45.3125 7.90625
Q41.3594 3.125 36.9375 0.84375
Q32.5156 -1.42188 27.2031 -1.42188
Q17.7188 -1.42188 12.7656 4.39062
Q7.8125 10.2031 7.8125 21.2969" id="BitstreamVeraSans-Bold-75"/>
      <path d="
M27.4844 70.2188
L27.4844 54.6875
L45.5156 54.6875
L45.5156 42.1875
L27.4844 42.1875
L27.4844 19
Q27.4844 15.1875 29 13.8438
Q30.5156 12.5 35.0156 12.5
L44 12.5
L44 0
L29 0
Q18.6562 0 14.3281 4.3125
Q10.0156 8.64062 10.0156 19
L10.0156 42.1875
L1.3125 42.1875
L1.3125 54.6875
L10.0156 54.6875
L10.0156 70.2188
z
" id="BitstreamVeraSans-Bold-74"/>
      <path d="
M62.9844 27.4844
L62.9844 22.5156
L22.125 22.5156
Q22.75 16.3594 26.5625 13.2812
Q30.375 10.2031 37.2031 10.2031
Q42.7188 10.2031 48.5 11.8438
Q54.2969 13.4844 60.4062 16.7969
L60.4062 3.32812
Q54.2031 0.984375 48 -0.21875
Q41.7969 -1.42188 35.5938 -1.42188
Q20.75 -1.42188 12.5156 6.125
Q4.29688 13.6719 4.29688 27.2969
Q4.29688 40.6719 12.375 48.3281
Q20.4531 56 34.625 56
Q47.5156 56 55.25 48.2344
Q62.9844 40.4844 62.9844 27.4844
M45.0156 33.2969
Q45.0156 38.2812 42.1094 41.3281
Q39.2031 44.3906 34.5156 44.3906
Q29.4375 44.3906 26.2656 41.5312
Q23.0938 38.6719 22.3125 33.2969
z
" id="BitstreamVeraSans-Bold-65"/>
      <path d="
M25.875 7.90625
L25.875 -20.7969
L8.40625 -20.7969
L8.40625 54.6875
L25.875 54.6875
L25.875 46.6875
Q29.5 51.4688 33.8906 53.7344
Q38.2812 56 44 56
Q54.1094 56 60.5938 47.9688
Q67.0938 39.9375 67.0938 27.2969
Q67.0938 14.6562 60.5938 6.60938
Q54.1094 -1.42188 44 -1.42188
Q38.2812 -1.42188 33.8906 0.84375
Q29.5 3.125 25.875 7.90625
M37.5 43.3125
Q31.8906 43.3125 28.875 39.1875
Q25.875 35.0625 25.875 27.2969
Q25.875 19.5312 28.875 15.4062
Q31.8906 11.2812 37.5 11.2812
Q43.1094 11.2812 46.0625 15.375
Q49.0312 19.4844 49.0312 27.2969
Q49.0312 35.1094 46.0625 39.2031
Q43.1094 43.3125 37.5 43.3125" id="BitstreamVeraSans-Bold-70"/>
      <path d="
M34.4219 43.5
Q28.6094 43.5 25.5625 39.3281
Q22.5156 35.1562 22.5156 27.2969
Q22.5156 19.4375 25.5625 15.25
Q28.6094 11.0781 34.4219 11.0781
Q40.1406 11.0781 43.1562 15.25
Q46.1875 19.4375 46.1875 27.2969
Q46.1875 35.1562 43.1562 39.3281
Q40.1406 43.5 34.4219 43.5
M34.4219 56
Q48.5312 56 56.4688 48.375
Q64.4062 40.7656 64.4062 27.2969
Q64.4062 13.8125 56.4688 6.1875
Q48.5312 -1.42188 34.4219 -1.42188
Q20.2656 -1.42188 12.2812 6.1875
Q4.29688 13.8125 4.29688 27.2969
Q4.29688 40.7656 12.2812 48.375
Q20.2656 56 34.4219 56" id="BitstreamVeraSans-Bold-6f"/>
      <path d="
M59.0781 45.6094
Q62.4062 50.6875 66.9688 53.3438
Q71.5312 56 77 56
Q86.4219 56 91.3594 50.1875
Q96.2969 44.3906 96.2969 33.2969
L96.2969 0
L78.7188 0
L78.7188 28.5156
Q78.7656 29.1562 78.7812 29.8281
Q78.8125 30.5156 78.8125 31.7812
Q78.8125 37.5938 77.0938 40.2031
Q75.3906 42.8281 71.5781 42.8281
Q66.6094 42.8281 63.8906 38.7188
Q61.1875 34.625 61.0781 26.8594
L61.0781 0
L43.5 0
L43.5 28.5156
Q43.5 37.5938 41.9375 40.2031
Q40.375 42.8281 36.375 42.8281
Q31.3438 42.8281 28.6094 38.7031
Q25.875 34.5781 25.875 26.9062
L25.875 0
L8.29688 0
L8.29688 54.6875
L25.875 54.6875
L25.875 46.6875
Q29.1094 51.3125 33.2812 53.6562
Q37.4531 56 42.4844 56
Q48.1406 56 52.4844 53.2656
Q56.8438 50.5312 59.0781 45.6094" id="BitstreamVeraSans-Bold-6d"/>
      <path d="
M63.375 33.2969
L63.375 0
L45.7969 0
L45.7969 5.42188
L45.7969 25.4844
Q45.7969 32.5625 45.4844 35.25
Q45.1719 37.9375 44.3906 39.2031
Q43.3594 40.9219 41.5938 41.875
Q39.8438 42.8281 37.5938 42.8281
Q32.125 42.8281 29 38.5938
Q25.875 34.375 25.875 26.9062
L25.875 0
L8.40625 0
L8.40625 54.6875
L25.875 54.6875
L25.875 46.6875
Q29.8281 51.4688 34.2656 53.7344
Q38.7188 56 44.0938 56
Q53.5625 56 58.4688 50.1875
Q63.375 44.3906 63.375 33.2969" id="BitstreamVeraSans-Bold-6e"/>
     </defs>
     <g transform="translate(196.86375 412.706875)scale(0.16 -0.16)">
      <use xlink:href="#BitstreamVeraSans-Bold-63"/>
      <use x="59.27734375" xlink:href="#BitstreamVeraSans-Bold-6f"/>
      <use x="127.978515625" xlink:href="#BitstreamVeraSans-Bold-6d"/>
      <use x="232.177734375" xlink:href="#BitstreamVeraSans-Bold-70"/>
      <use x="303.759765625" xlink:href="#BitstreamVeraSans-Bold-61"/>
      <use x="371.240234375" xlink:href="#BitstreamVeraSans-Bold-72"/>
      <use x="420.556640625" xlink:href="#BitstreamVeraSans-Bold-74"/>
      <use x="468.359375" xlink:href="#BitstreamVeraSans-Bold-6d"/>
      <use x="572.55859375" xlink:href="#BitstreamVeraSans-Bold-65"/>
      <use x="640.380859375" xlink:href="#BitstreamVeraSans-Bold-6e"/>
      <use x="711.572265625" xlink:href="#BitstreamVeraSans-Bold-74"/>
      <use x="759.375" xlink:href="#BitstreamVeraSans-Bold-20"/>
      <use x="794.189453125" xlink:href="#BitstreamVeraSans-Bold-6e"/>
      <use x="865.380859375" xlink:href="#BitstreamVeraSans-Bold-75"/>
      <use x="936.572265625" xlink:href="#BitstreamVeraSans-Bold-6d"/>
      <use x="1040.77148438" xlink:href="#BitstreamVeraSans-Bold-62"/>
      <use x="1112.35351562" xlink:href="#BitstreamVeraSans-Bold-65"/>
      <use x="1180.17578125" xlink:href="#BitstreamVeraSans-Bold-72"/>
     </g>
    </g>
   </g>
   <g id="matplotlib.axis_2">
    <g id="ytick_1">
     <g id="line2d_12">
      <defs>
       <path d="
M0 0
L4 0" id="m728421d6d4" style="stroke:#000000;stroke-width:0.5;"/>
      </defs>
      <g>
       <use style="stroke:#000000;stroke-width:0.5;" x="72.0" xlink:href="#m728421d6d4" y="369.63"/>
      </g>
     </g>
     <g id="line2d_13">
      <defs>
       <path d="
M0 0
L-4 0" id="mcb0005524f" style="stroke:#000000;stroke-width:0.5;"/>
      </defs>
      <g>
       <use style="stroke:#000000;stroke-width:0.5;" x="518.4" xlink:href="#mcb0005524f" y="369.63"/>
      </g>
     </g>
     <g id="text_6">
      <!-- 0.05 -->
      <defs>
       <path d="
M10.6875 12.4062
L21 12.4062
L21 0
L10.6875 0
z
" id="BitstreamVeraSans-Roman-2e"/>
      </defs>
      <g transform="translate(38.9740625 373.493125)scale(0.14 -0.14)">
       <use xlink:href="#BitstreamVeraSans-Roman-30"/>
       <use x="63.623046875" xlink:href="#BitstreamVeraSans-Roman-2e"/>
       <use x="95.41015625" xlink:href="#BitstreamVeraSans-Roman-30"/>
       <use x="159.033203125" xlink:href="#BitstreamVeraSans-Roman-35"/>
      </g>
     </g>
    </g>
    <g id="ytick_2">
     <g id="line2d_14">
      <g>
       <use style="stroke:#000000;stroke-width:0.5;" x="72.0" xlink:href="#m728421d6d4" y="361.26"/>
      </g>
     </g>
     <g id="line2d_15">
      <g>
       <use style="stroke:#000000;stroke-width:0.5;" x="518.4" xlink:href="#mcb0005524f" y="361.26"/>
      </g>
     </g>
     <g id="text_7">
      <!-- 0.10 -->
      <defs>
       <path d="
M12.4062 8.29688
L28.5156 8.29688
L28.5156 63.9219
L10.9844 60.4062
L10.9844 69.3906
L28.4219 72.9062
L38.2812 72.9062
L38.2812 8.29688
L54.3906 8.29688
L54.3906 0
L12.4062 0
z
" id="BitstreamVeraSans-Roman-31"/>
      </defs>
      <g transform="translate(38.6809375 365.123125)scale(0.14 -0.14)">
       <use xlink:href="#BitstreamVeraSans-Roman-30"/>
       <use x="63.623046875" xlink:href="#BitstreamVeraSans-Roman-2e"/>
       <use x="95.41015625" xlink:href="#BitstreamVeraSans-Roman-31"/>
       <use x="159.033203125" xlink:href="#BitstreamVeraSans-Roman-30"/>
      </g>
     </g>
    </g>
    <g id="ytick_3">
     <g id="line2d_16">
      <g>
       <use style="stroke:#000000;stroke-width:0.5;" x="72.0" xlink:href="#m728421d6d4" y="352.89"/>
      </g>
     </g>
     <g id="line2d_17">
      <g>
       <use style="stroke:#000000;stroke-width:0.5;" x="518.4" xlink:href="#mcb0005524f" y="352.89"/>
      </g>
     </g>
     <g id="text_8">
      <!-- 0.15 -->
      <g transform="translate(38.9740625 356.753125)scale(0.14 -0.14)">
       <use xlink:href="#BitstreamVeraSans-Roman-30"/>
       <use x="63.623046875" xlink:href="#BitstreamVeraSans-Roman-2e"/>
       <use x="95.41015625" xlink:href="#BitstreamVeraSans-Roman-31"/>
       <use x="159.033203125" xlink:href="#BitstreamVeraSans-Roman-35"/>
      </g>
     </g>
    </g>
    <g id="text_9">
     <!-- normalized concentration -->
     <defs>
      <path d="
M5.71875 54.6875
L53.4219 54.6875
L53.4219 42.4844
L24.6094 12.5
L53.4219 12.5
L53.4219 0
L4.5 0
L4.5 12.2031
L33.2969 42.1875
L5.71875 42.1875
z
" id="BitstreamVeraSans-Bold-7a"/>
      <path d="
M8.40625 75.9844
L25.875 75.9844
L25.875 0
L8.40625 0
z
" id="BitstreamVeraSans-Bold-6c"/>
      <path d="
M8.40625 54.6875
L25.875 54.6875
L25.875 0
L8.40625 0
z

M8.40625 75.9844
L25.875 75.9844
L25.875 61.7188
L8.40625 61.7188
z
" id="BitstreamVeraSans-Bold-69"/>
      <path d="
M45.6094 46.6875
L45.6094 75.9844
L63.1875 75.9844
L63.1875 0
L45.6094 0
L45.6094 7.90625
Q42 3.07812 37.6406 0.828125
Q33.2969 -1.42188 27.5938 -1.42188
Q17.4844 -1.42188 10.9844 6.60938
Q4.5 14.6562 4.5 27.2969
Q4.5 39.9375 10.9844 47.9688
Q17.4844 56 27.5938 56
Q33.25 56 37.625 53.7344
Q42 51.4688 45.6094 46.6875
M34.0781 11.2812
Q39.7031 11.2812 42.6562 15.375
Q45.6094 19.4844 45.6094 27.2969
Q45.6094 35.1094 42.6562 39.2031
Q39.7031 43.3125 34.0781 43.3125
Q28.5156 43.3125 25.5625 39.2031
Q22.6094 35.1094 22.6094 27.2969
Q22.6094 19.4844 25.5625 15.375
Q28.5156 11.2812 34.0781 11.2812" id="BitstreamVeraSans-Bold-64"/>
     </defs>
     <g transform="translate(30.3534375 325.6475)rotate(-90.0)scale(0.16 -0.16)">
      <use xlink:href="#BitstreamVeraSans-Bold-6e"/>
      <use x="71.19140625" xlink:href="#BitstreamVeraSans-Bold-6f"/>
      <use x="139.892578125" xlink:href="#BitstreamVeraSans-Bold-72"/>
      <use x="189.208984375" xlink:href="#BitstreamVeraSans-Bold-6d"/>
      <use x="293.408203125" xlink:href="#BitstreamVeraSans-Bold-61"/>
      <use x="360.888671875" xlink:href="#BitstreamVeraSans-Bold-6c"/>
      <use x="395.166015625" xlink:href="#BitstreamVeraSans-Bold-69"/>
      <use x="429.443359375" xlink:href="#BitstreamVeraSans-Bold-7a"/>
      <use x="487.646484375" xlink:href="#BitstreamVeraSans-Bold-65"/>
      <use x="555.46875" xlink:href="#BitstreamVeraSans-Bold-64"/>
      <use x="627.05078125" xlink:href="#BitstreamVeraSans-Bold-20"/>
      <use x="661.865234375" xlink:href="#BitstreamVeraSans-Bold-63"/>
      <use x="721.142578125" xlink:href="#BitstreamVeraSans-Bold-6f"/>
      <use x="789.84375" xlink:href="#BitstreamVeraSans-Bold-6e"/>
      <use x="861.03515625" xlink:href="#BitstreamVeraSans-Bold-63"/>
      <use x="920.3125" xlink:href="#BitstreamVeraSans-Bold-65"/>
      <use x="988.134765625" xlink:href="#BitstreamVeraSans-Bold-6e"/>
      <use x="1059.32617188" xlink:href="#BitstreamVeraSans-Bold-74"/>
      <use x="1107.12890625" xlink:href="#BitstreamVeraSans-Bold-72"/>
      <use x="1156.4453125" xlink:href="#BitstreamVeraSans-Bold-61"/>
      <use x="1223.92578125" xlink:href="#BitstreamVeraSans-Bold-74"/>
      <use x="1271.72851562" xlink:href="#BitstreamVeraSans-Bold-69"/>
      <use x="1306.00585938" xlink:href="#BitstreamVeraSans-Bold-6f"/>
      <use x="1374.70703125" xlink:href="#BitstreamVeraSans-Bold-6e"/>
     </g>
    </g>
   </g>
  </g>
 </g>
 <defs>
  <clipPath id="p332b41defa">
   <rect height="334.8" width="446.4" x="72.0" y="43.2"/>
  </clipPath>
 </defs>
</svg>
