<?xml version="1.0" encoding="utf-8" standalone="no"?>
<!DOCTYPE svg PUBLIC "-//W3C//DTD SVG 1.1//EN"
  "http://www.w3.org/Graphics/SVG/1.1/DTD/svg11.dtd">
<!-- Created with matplotlib (http://matplotlib.org/) -->
<svg height="432pt" version="1.1" viewBox="0 0 576 432" width="576pt" xmlns="http://www.w3.org/2000/svg" xmlns:xlink="http://www.w3.org/1999/xlink">
 <defs>
  <style type="text/css">
*{stroke-linecap:butt;stroke-linejoin:round;}
  </style>
 </defs>
 <g id="figure_1">
  <g id="patch_1">
   <path d="
M0 432
L576 432
L576 0
L0 0
z
" style="fill:#ffffff;"/>
  </g>
  <g id="axes_1">
   <g id="patch_2">
    <path d="
M72 378
L518.4 378
L518.4 43.2
L72 43.2
z
" style="fill:#ffffff;"/>
   </g>
   <g id="line2d_1">
    <path clip-path="url(#p332b41defa)" d="
M72 329.655
L72.5952 329.334
L73.7856 322.768
L74.3808 321.909
L74.976 320.788
L75.5712 320.177
L76.7616 319.983
L78.5472 320.223
L79.1424 321.29
L80.3328 314.314
L80.928 312.557
L82.1184 312.358
L85.6896 312.355
L86.2848 310.762
L86.88 308.782
L87.4752 309.103
L89.2608 310.9
L90.4512 312.721
L91.6416 314.464
L93.4272 316.604
L94.0224 317.049
L94.6176 317.292
L95.2128 308.897
L98.784 309.187
L100.57 309.467
L101.165 309.119
L103.546 310.302
L104.736 310.615
L105.331 308.03
L105.926 307.266
L107.117 307.254
L107.712 303.037
L108.307 287.615
L108.902 254.061
L109.498 235.934
L110.093 232.477
L111.283 247.853
L112.474 258.658
L113.069 262.504
L113.664 265.373
L114.259 267.289
L114.854 268.255
L115.45 213.116
L116.045 186.235
L116.64 165.12
L117.235 160.68
L117.83 153.125
L118.426 297.627
L119.021 291.126
L120.211 242.459
L120.806 227.707
L121.402 220.281
L121.997 223.606
L122.592 225.604
L123.187 226.272
L123.782 225.591
L124.378 223.521
L124.973 220
L125.568 214.939
L126.163 218.227
L126.758 219.873
L127.354 197.553
L127.949 179.855
L128.544 176.867
L129.139 176.896
L129.734 179.589
L130.33 179.12
L130.925 175.411
L131.52 173.79
L132.115 174.084
L132.71 162.111
L133.306 156.144
L133.901 158.602
L134.496 158.565
L135.091 155.957
L135.686 160.65
L136.282 162.791
L136.877 162.428
L137.472 164.912
L138.067 158.146
L138.662 162.553
L139.258 164.418
L139.853 163.778
L140.448 166.276
L141.043 298.276
L141.638 299.659
L143.424 300.436
L144.019 300.569
L144.614 299.768
L145.805 300.082
L146.4 300.174
L146.995 300.061
L147.59 300.609
L150.566 307.275
L151.757 309.098
L152.947 310.3
L153.542 310.835
L154.138 311.121
L154.733 302.019
L155.923 305.992
L157.709 311.259
L158.899 315.254
L160.09 318.468
L161.28 320.856
L161.875 321.852
L162.47 322.547
L163.066 322.912
L163.661 300.513
L164.256 301.176
L166.637 304.805
L169.018 309.365
L169.613 310.212
L170.208 310.838
L170.803 300.953
L171.398 301.274
L172.589 303.223
L173.779 305.084
L175.565 308.302
L176.755 310.75
L177.35 311.999
L177.946 312.856
L178.541 313.301
L179.136 301.239
L179.731 301.731
L181.517 307.673
L182.707 311.645
L183.898 313.769
L185.088 315.209
L185.683 315.83
L186.278 316.154
L186.874 311.655
L188.064 313.814
L189.85 316.076
L190.445 316.411
L191.04 301.568
L191.635 301.985
L192.826 306.233
L194.016 309.887
L195.206 312.843
L196.397 315.187
L197.587 316.876
L198.182 317.532
L198.778 318.018
L199.373 318.271
L199.968 308.317
L201.754 314.056
L202.349 314.913
L203.539 315.091
L204.134 315.571
L205.325 318.28
L205.92 319.314
L206.515 320.119
L207.11 320.677
L207.706 320.969
L208.301 309.51
L209.491 310.636
L210.086 310.979
L210.682 311.158
L211.277 301.651
L212.467 301.37
L213.062 301.469
L214.253 305.008
L215.443 308.376
L216.038 309.751
L216.634 311.533
L217.229 312.96
L217.824 314.029
L218.419 314.799
L219.014 315.268
L219.61 301.145
L220.205 301.366
L221.99 306.63
L223.181 311.518
L223.776 313.378
L224.371 314.862
L224.966 315.968
L225.562 316.72
L226.157 317.254
L226.752 300.169
L227.942 297.012
L228.538 296.315
L229.133 297.702
L229.728 298.404
L230.323 295.695
L230.918 297.373
L232.704 311.978
L233.299 316.483
L233.894 319.272
L235.68 323.542
L236.87 327.491
L238.061 330.537
L239.251 333.053
L239.846 334.263
L240.442 335.21
L241.037 335.904
L241.632 336.352
L242.227 336.615
L242.822 319.991
L244.013 325.564
L245.203 330.037
L246.394 332.969
L247.584 336.626
L248.774 341.082
L249.965 344.712
L251.155 347.539
L252.346 349.526
L252.941 350.187
L253.536 350.656
L254.131 350.917
L254.726 331.494
L255.917 334.111
L257.107 336.819
L257.702 337.772
L258.893 339.064
L260.083 340.375
L260.678 340.783
L261.274 340.995
L261.869 337.703
L263.059 339.592
L264.25 340.956
L265.44 341.954
L266.035 342.248
L266.63 342.395
L267.226 293.415
L267.821 291.036
L268.416 292.451
L269.011 293.164
L269.606 288.225
L270.202 281.374
L271.392 260.56
L272.582 238.08
L273.773 206.042
L274.368 200.095
L276.749 249.494
L277.344 259.012
L277.939 266.493
L279.13 276.784
L279.725 279.924
L280.32 281.467
L280.915 187.658
L281.51 175.053
L282.106 170.98
L282.701 172.993
L283.296 179.833
L283.891 183.599
L284.486 190.381
L285.082 200.745
L286.272 216.405
L286.867 221.889
L287.462 225.07
L288.058 167.983
L289.248 144.192
L289.843 138.857
L290.438 143.612
L291.034 143.151
L291.629 143.155
L292.224 235.02
L292.819 191.958
L293.414 171.325
L294.01 161.88
L294.605 219.091
L295.2 219.01
L295.795 216.337
L296.39 210.681
L296.986 199.943
L297.581 181.457
L298.176 167.139
L298.771 155.717
L299.366 152.094
L299.962 144.777
L300.557 142.976
L301.152 147.317
L301.747 199.282
L302.342 211.589
L302.938 221.593
L303.533 229.414
L304.128 235.143
L304.723 238.848
L305.318 240.881
L305.914 318.11
L306.509 292.289
L307.104 274.77
L307.699 275.836
L310.08 281.937
L310.675 283.067
L311.27 283.951
L311.866 284.568
L312.461 284.894
L313.056 275.89
L315.437 281.557
L316.627 284.226
L317.222 285.241
L317.818 286.031
L318.413 286.581
L319.008 286.869
L319.603 256.646
L320.198 253.418
L321.389 259.572
L322.579 264.433
L323.174 266.189
L324.365 268.54
L324.96 269.081
L325.555 245.992
L327.341 189.521
L327.936 193.344
L328.531 195.876
L329.126 197.142
L329.722 284.322
L330.317 256.123
L331.507 235.47
L332.102 223.742
L332.698 217.293
L333.293 220.686
L333.888 222.393
L334.483 231.843
L335.078 201.888
L335.674 195.62
L336.269 187.481
L336.864 177.201
L337.459 164.115
L338.054 170.141
L338.65 172.967
L339.245 172.68
L339.84 169.209
L340.435 194.173
L341.626 176.199
L342.221 171.946
L342.816 178.039
L343.411 182.449
L344.006 185.533
L344.602 187.23
L345.197 192.23
L345.792 194.67
L346.387 195.527
L346.982 194.591
L347.578 199.833
L348.173 203.302
L348.768 205.038
L349.363 327.443
L349.958 326.503
L350.554 326.222
L351.149 325.43
L351.744 324.852
L352.339 324.705
L355.315 325.989
L355.91 325.045
L356.506 325.33
L358.886 328.173
L360.077 329.648
L361.267 330.646
L361.862 330.881
L362.458 325.938
L364.243 327.282
L366.029 329.599
L367.219 330.769
L367.814 331.225
L368.41 331.477
L369.005 327.28
L370.195 329.315
L370.79 330.372
L372.576 332.453
L373.766 333.528
L374.362 333.886
L374.957 334.084
L375.552 331.209
L376.742 333.031
L377.933 334.473
L378.528 334.956
L379.123 335.224
L379.718 330.394
L381.504 333.155
L382.694 334.635
L383.885 335.768
L384.48 336.032
L385.075 325.958
L388.051 325.919
L388.646 326.566
L391.027 333.505
L391.622 334.663
L392.813 335.861
L393.408 336.259
L394.003 336.478
L394.598 334.652
L396.384 336.579
L397.574 337.369
L398.17 337.546
L398.765 326.337
L399.36 326.302
L399.955 326.526
L400.55 326.907
L401.146 327.498
L405.312 333.329
L406.502 334.357
L407.098 334.628
L407.693 330.687
L409.478 332.124
L410.669 332.729
L411.264 332.867
L411.859 326.864
L412.454 327.223
L415.43 331.357
L416.621 332.42
L417.216 332.706
L417.811 327.172
L420.192 328.256
L421.382 328.567
L421.978 328.646
L422.573 328.211
L424.358 329.489
L425.549 330.169
L426.739 330.549
L427.334 329.577
L428.525 330.586
L429.12 330.934
L429.715 331.13
L430.31 326.14
L430.906 325.294
L431.501 324.895
L432.096 328.244
L433.286 327.701
L434.477 327.316
L435.072 327.167
L435.667 327.654
L436.262 328.351
L436.858 329.506
L437.453 330.31
L438.048 330.458
L441.024 331.893
L441.619 331.211
L442.214 332.551
L446.381 337.054
L446.976 337.344
L447.571 337.503
L448.166 337.071
L448.762 337.416
L449.357 337.608
L449.952 332.707
L451.142 334.71
L452.333 336.886
L453.523 337.897
L454.118 338.258
L454.714 338.462
L455.309 337.185
L457.094 340.485
L458.285 342.245
L458.88 342.907
L459.475 343.383
L460.07 343.64
L460.666 335.643
L463.046 339.358
L464.237 340.705
L464.832 341.144
L465.427 341.382
L466.022 327.736
L466.618 326.88
L467.808 325.729
L468.403 325.561
L469.594 326.034
L471.974 327.488
L473.165 328.403
L473.76 328.623
L474.355 326.891
L474.95 326.617
L476.736 326.483
L477.331 326.557
L478.522 327.208
L480.902 328.747
L482.093 329.157
L482.688 326.491
L483.878 326.701
L486.259 327.281
L486.854 326.727
L488.045 328.553
L490.426 332.83
L491.616 335.234
L492.806 337.559
L493.997 339.389
L494.592 340.063
L495.187 340.542
L495.782 340.799
L496.378 333.605
L497.568 334.509
L498.163 334.812
L498.758 334.978
L499.354 326.55
L499.949 326.675
L500.544 327.219
L501.734 328.854
L502.33 329.801
L502.925 330.372
L504.71 330.9
L505.306 330.975
L505.901 330.623
L507.091 331.871
L507.686 332.303
L508.282 332.545
L508.877 327.516
L510.067 327.57
L510.662 333.3
L511.258 341.878
L511.853 348.015
L512.448 352.058
L513.043 354.086
L513.043 354.086" style="fill:none;stroke:#000000;stroke-linecap:square;stroke-width:8;"/>
   </g>
   <g id="line2d_2">
    <path clip-path="url(#p332b41defa)" d="
M72 308.218
L72.5952 307.784
L73.1904 306.498
L73.7856 302.32
L74.3808 301.091
L74.976 299.51
L75.5712 298.634
L76.1664 298.4
L76.7616 298.31
L77.952 298.487
L78.5472 298.601
L79.1424 304.288
L79.7376 303.581
L80.3328 303.226
L80.928 301.144
L82.1184 300.899
L85.6896 300.875
L86.2848 302.962
L86.88 300.736
L87.4752 301.088
L89.2608 303.079
L90.4512 305.105
L91.6416 307.046
L93.4272 309.43
L94.0224 309.927
L94.6176 310.197
L95.2128 300.855
L98.784 301.167
L100.57 301.476
L101.165 301.092
L103.546 302.404
L104.736 302.752
L105.331 303.808
L105.926 303.001
L107.117 302.991
L107.712 302.465
L108.307 287.021
L108.902 253.345
L109.498 235.198
L110.093 231.763
L111.283 247.274
L112.474 258.17
L113.069 262.048
L113.664 264.94
L114.259 266.871
L114.854 267.845
L115.45 212.3
L116.045 185.317
L116.64 164.126
L117.235 159.681
L117.83 152.099
L118.426 300.874
L119.021 295.104
L120.211 249.772
L120.806 235.933
L121.402 229.016
L121.997 232.248
L122.592 234.215
L123.187 234.917
L123.782 234.336
L124.378 232.438
L124.973 229.163
L125.568 224.427
L126.163 227.544
L126.758 229.105
L127.354 207.662
L127.949 191.05
L128.544 188.31
L129.139 188.403
L129.734 190.994
L130.33 190.592
L130.925 187.124
L131.52 185.61
L132.115 185.739
L132.71 174.661
L133.306 169.234
L133.901 171.649
L134.496 171.702
L135.091 169.325
L135.686 173.794
L136.282 175.849
L136.877 175.537
L137.472 177.885
L138.067 171.19
L138.662 175.392
L139.258 177.188
L139.853 176.616
L140.448 178.979
L141.043 304.756
L141.638 306.05
L143.424 306.805
L144.019 306.932
L144.614 309.341
L145.805 309.644
L146.4 309.73
L146.995 312.814
L147.59 313.426
L149.971 318.268
L151.162 320.09
L152.352 321.406
L153.542 322.308
L154.138 322.55
L154.733 314.682
L155.923 318.135
L158.304 324.459
L159.494 327.523
L160.685 329.887
L161.875 331.652
L162.47 332.235
L163.066 332.541
L163.661 316.247
L164.256 316.848
L167.827 321.696
L168.422 322.838
L169.613 324.362
L170.208 324.863
L170.803 319.573
L171.398 319.909
L172.589 321.546
L174.97 324.581
L176.16 326.517
L177.35 328.503
L177.946 329.159
L178.541 329.499
L179.136 322.669
L179.731 323.161
L181.517 327.785
L182.707 330.772
L183.898 332.359
L185.088 333.431
L185.683 333.885
L186.278 334.122
L186.874 330.778
L188.064 332.391
L189.85 334.059
L190.445 334.304
L191.04 325.638
L191.635 326.177
L194.016 332.164
L195.206 334.278
L196.397 335.945
L197.587 337.141
L198.778 337.94
L199.373 338.116
L199.968 331.092
L201.754 335.21
L202.349 335.806
L203.539 335.948
L204.134 336.273
L205.325 338.16
L206.515 339.435
L207.11 339.821
L207.706 340.022
L208.301 331.935
L209.491 332.748
L210.682 333.122
L211.277 328.167
L212.467 332.915
L213.062 333.071
L214.253 335.312
L215.443 337.407
L216.038 338.259
L217.229 340.201
L217.824 340.847
L218.419 341.311
L219.014 341.591
L219.61 335.135
L220.205 335.357
L221.99 338.517
L223.181 341.328
L224.371 343.246
L224.966 343.88
L226.157 344.611
L226.752 336.843
L227.942 339.71
L228.538 339.415
L229.133 340.093
L229.728 340.436
L230.323 341.275
L230.918 342.444
L232.704 349.973
L233.299 352.252
L233.894 353.531
L236.275 356.5
L237.466 358.089
L239.251 359.82
L240.442 360.751
L241.632 361.244
L242.227 361.356
L242.822 353.971
L244.013 356.744
L245.203 358.994
L246.394 360.31
L248.179 362.837
L249.37 364.492
L250.56 365.806
L251.75 366.78
L252.941 367.401
L254.131 367.693
L254.726 359.702
L257.702 362.635
L259.488 363.48
L260.678 363.902
L261.274 363.988
L261.869 362.62
L263.059 363.428
L264.25 364.009
L265.44 364.426
L266.63 364.61
L267.226 342.016
L267.821 341.042
L268.416 341.669
L269.011 341.985
L269.606 341.541
L270.202 340.491
L270.797 338.518
L272.582 330.824
L273.773 321.984
L274.368 320.277
L276.154 332.94
L276.749 336.836
L277.344 339.984
L277.939 342.454
L279.13 345.842
L279.725 346.871
L280.32 347.376
L280.915 316.647
L281.51 313.192
L282.106 312.453
L282.701 313.35
L283.296 315.73
L283.891 317.106
L284.486 319.391
L285.082 322.758
L286.272 327.811
L286.867 329.563
L287.462 330.575
L288.058 311.767
L289.248 304.706
L289.843 303.189
L290.438 304.79
L291.629 304.762
L292.224 329.526
L292.819 315.039
L293.414 308.128
L294.01 304.97
L294.605 324.714
L295.2 325.219
L295.795 324.843
L296.39 323.472
L296.986 320.441
L297.581 314.729
L298.176 310.348
L298.771 306.875
L299.366 305.866
L299.962 303.645
L300.557 303.146
L301.152 304.566
L301.747 320.4
L302.342 324.506
L302.938 327.835
L303.533 330.434
L304.128 332.334
L304.723 333.563
L305.318 334.234
L306.509 250.843
L307.104 224.5
L307.699 225.948
L310.08 234.65
L310.675 236.278
L311.27 237.553
L311.866 238.445
L312.461 238.916
L313.056 226
L314.842 231.668
L316.032 236.004
L317.222 239.228
L317.818 240.366
L318.413 241.16
L319.008 241.577
L319.603 197.519
L320.198 192.553
L321.389 201.453
L322.579 208.509
L323.174 211.061
L323.77 212.964
L324.365 214.485
L324.96 215.275
L325.555 181.479
L327.341 96.8961
L327.936 102.512
L328.531 106.233
L329.126 108.094
L329.722 238.751
L330.317 196.649
L331.507 165.633
L332.102 148.054
L332.698 138.366
L333.293 143.376
L333.888 145.896
L334.483 159.763
L335.078 114.718
L335.674 105.083
L336.269 92.6671
L336.864 77.0665
L337.459 57.281
L338.054 66.1842
L338.65 70.3242
L339.245 69.8263
L339.84 64.5832
L340.435 103.003
L341.626 75.6807
L342.221 69.1502
L342.816 78.159
L343.411 84.6782
L344.006 89.2438
L344.602 91.7592
L345.197 99.893
L345.792 103.373
L346.387 104.514
L346.982 102.996
L347.578 110.773
L348.173 115.92
L348.768 118.497
L349.363 303.945
L349.958 301.499
L350.554 300.449
L351.149 299.107
L351.744 298.18
L352.339 297.909
L355.315 299.716
L355.91 298.441
L356.506 298.789
L358.886 302.837
L360.077 304.993
L360.672 305.839
L361.267 306.463
L361.862 306.81
L362.458 299.554
L363.053 299.884
L363.648 300.63
L364.243 301.167
L366.029 304.541
L367.219 306.262
L367.814 306.94
L368.41 307.315
L369.005 301.096
L369.6 302.316
L370.79 305.303
L372.576 308.348
L373.766 309.94
L374.362 310.474
L374.957 310.769
L375.552 306.529
L376.742 309.234
L377.933 311.389
L378.528 312.114
L379.123 312.516
L379.718 305.383
L381.504 309.445
L382.694 311.645
L383.29 312.616
L383.885 313.343
L384.48 313.741
L385.075 299.409
L385.67 299.205
L388.051 298.974
L388.646 299.884
L391.027 310.037
L391.622 311.771
L392.813 313.553
L393.408 314.148
L394.003 314.476
L394.598 311.741
L396.384 314.586
L396.979 315.27
L397.574 315.761
L398.17 316.026
L398.765 300.83
L399.36 300.365
L399.955 300.297
L400.55 300.726
L401.146 301.483
L403.526 306.249
L404.717 308.773
L405.907 310.685
L406.502 311.362
L407.098 311.768
L407.693 305.91
L409.478 307.987
L410.669 308.872
L411.264 309.076
L411.859 300.558
L412.454 301.031
L415.43 307.079
L416.621 308.657
L417.216 309.085
L417.811 300.854
L418.406 301.122
L419.597 301.867
L421.382 302.545
L421.978 302.659
L422.573 302.013
L424.954 304.25
L426.144 305.083
L426.739 305.284
L427.334 303.876
L428.525 305.366
L429.12 305.883
L429.715 306.175
L430.31 302.013
L430.906 300.758
L431.501 300.165
L432.096 305.82
L433.286 304.275
L433.882 304.048
L434.477 303.672
L435.072 303.447
L435.667 303.861
L436.262 304.554
L437.453 307.082
L438.048 307.258
L441.024 309.287
L441.619 308.207
L442.214 310.12
L444 312.982
L445.786 315.815
L446.381 316.467
L446.976 316.889
L447.571 317.122
L448.166 316.493
L448.762 316.998
L449.357 317.28
L449.952 310.268
L451.142 312.944
L452.333 316.091
L453.523 317.567
L454.118 318.099
L454.714 318.4
L455.309 316.518
L457.094 321.37
L458.285 323.975
L458.88 324.958
L459.475 325.666
L460.07 326.049
L460.666 314.289
L463.046 319.723
L464.237 321.712
L464.832 322.362
L465.427 322.715
L466.022 304.925
L466.618 303.583
L467.213 302.536
L467.808 301.735
L468.403 301.415
L468.998 301.631
L470.189 302.416
L471.974 303.947
L472.57 304.693
L473.165 305.253
L473.76 305.568
L474.355 303.252
L474.95 302.555
L476.736 301.942
L477.331 301.982
L478.522 302.832
L480.902 304.975
L481.498 305.348
L482.093 305.56
L482.688 301.9
L483.878 302.124
L486.259 302.905
L486.854 302.576
L488.045 305.007
L489.83 309.399
L491.021 312.5
L492.211 316.141
L493.402 319.201
L494.592 321.42
L495.187 322.124
L495.782 322.501
L496.378 312.027
L497.568 313.324
L498.163 313.76
L498.758 314.001
L499.354 302.616
L499.949 302.668
L500.544 303.344
L501.139 304.328
L502.33 306.892
L502.925 307.699
L504.115 308.229
L505.306 308.519
L505.901 308.071
L507.091 309.864
L507.686 310.489
L508.282 310.84
L508.877 303.76
L510.067 303.815
L510.662 313.458
L511.258 325.83
L511.853 334.684
L512.448 340.518
L513.043 343.444
L513.043 343.444" style="fill:none;stroke:#0000ff;stroke-linecap:square;stroke-width:4;"/>
   </g>
   <g id="line2d_3">
    <path clip-path="url(#p332b41defa)" d="
M72 308.221
L72.5952 307.787
L73.1904 306.501
L73.7856 302.323
L74.3808 301.094
L74.976 299.513
L75.5712 298.637
L76.1664 298.404
L76.7616 298.313
L77.952 298.49
L78.5472 298.604
L79.1424 304.29
L79.7376 303.583
L80.3328 303.227
L80.928 301.145
L82.1184 300.901
L85.6896 300.876
L86.2848 302.963
L86.88 300.736
L87.4752 301.089
L89.2608 303.079
L90.4512 305.105
L91.6416 307.046
L93.4272 309.43
L94.0224 309.927
L94.6176 310.197
L95.2128 300.856
L98.784 301.168
L100.57 301.477
L101.165 301.092
L103.546 302.405
L104.736 302.753
L105.331 303.808
L105.926 303.001
L107.117 302.991
L107.712 302.464
L108.307 287.02
L108.902 253.343
L109.498 235.196
L110.093 231.76
L111.283 247.272
L112.474 258.168
L113.069 262.046
L113.664 264.938
L114.259 266.869
L114.854 267.843
L115.45 212.297
L116.045 185.314
L116.64 164.122
L117.235 159.677
L117.83 152.095
L118.426 300.872
L119.021 295.102
L120.211 249.767
L120.806 235.928
L121.402 229.011
L121.997 232.243
L122.592 234.21
L123.187 234.912
L123.782 234.331
L124.378 232.433
L124.973 229.157
L125.568 224.421
L126.163 227.539
L126.758 229.099
L127.354 207.656
L127.949 191.044
L128.544 188.304
L129.139 188.397
L129.734 190.988
L130.33 190.586
L130.925 187.117
L131.52 185.603
L132.115 185.733
L132.71 174.654
L133.306 169.227
L133.901 171.642
L134.496 171.695
L135.091 169.318
L135.686 173.786
L136.282 175.841
L136.877 175.53
L137.472 177.877
L138.067 171.182
L138.662 175.385
L139.258 177.181
L139.853 176.609
L140.448 178.971
L141.043 304.754
L141.638 306.047
L143.424 306.802
L144.019 306.929
L144.614 309.338
L145.805 309.641
L146.4 309.727
L146.995 312.811
L147.59 313.423
L149.971 318.265
L151.162 320.087
L152.352 321.403
L153.542 322.305
L154.138 322.547
L154.733 314.679
L155.923 318.132
L158.304 324.457
L159.494 327.521
L160.685 329.885
L161.875 331.649
L162.47 332.233
L163.066 332.539
L163.661 316.244
L164.256 316.844
L167.827 321.693
L168.422 322.835
L169.613 324.358
L170.208 324.859
L170.803 319.57
L171.398 319.906
L172.589 321.542
L174.97 324.577
L176.16 326.514
L177.35 328.499
L177.946 329.155
L178.541 329.496
L179.136 322.665
L179.731 323.157
L181.517 327.781
L182.707 330.768
L183.898 332.356
L185.088 333.428
L185.683 333.882
L186.278 334.119
L186.874 330.775
L188.064 332.387
L189.85 334.056
L190.445 334.301
L191.04 325.633
L191.635 326.173
L194.016 332.16
L195.206 334.274
L196.397 335.941
L197.587 337.137
L198.778 337.936
L199.373 338.112
L199.968 331.088
L201.754 335.206
L202.349 335.802
L203.539 335.944
L204.134 336.269
L205.325 338.157
L206.515 339.432
L207.11 339.818
L207.706 340.019
L208.301 331.931
L209.491 332.744
L210.682 333.118
L211.277 328.163
L212.467 332.911
L213.062 333.066
L214.253 335.307
L215.443 337.403
L216.038 338.255
L217.229 340.197
L217.824 340.843
L218.419 341.307
L219.014 341.587
L219.61 335.13
L220.205 335.352
L221.99 338.512
L223.181 341.324
L224.371 343.242
L224.966 343.875
L226.157 344.607
L226.752 336.838
L227.942 339.704
L228.538 339.409
L229.133 340.088
L229.728 340.431
L230.323 341.269
L230.918 342.438
L232.704 349.968
L233.299 352.248
L233.894 353.526
L236.275 356.496
L237.466 358.086
L239.251 359.817
L240.442 360.748
L241.632 361.24
L242.227 361.353
L242.822 353.966
L244.013 356.74
L245.203 358.99
L246.394 360.307
L248.179 362.834
L249.37 364.489
L250.56 365.803
L251.75 366.778
L252.941 367.399
L254.131 367.69
L254.726 359.698
L257.702 362.632
L259.488 363.477
L260.678 363.899
L261.274 363.985
L261.869 362.617
L263.059 363.425
L264.25 364.006
L265.44 364.423
L266.63 364.607
L267.226 342.009
L267.821 341.036
L268.416 341.663
L269.011 341.978
L269.606 341.535
L270.202 340.484
L270.797 338.51
L272.582 330.812
L273.773 321.97
L274.368 320.262
L276.154 332.928
L276.749 336.826
L277.344 339.974
L277.939 342.445
L279.13 345.834
L279.725 346.863
L280.32 347.369
L280.915 316.632
L281.51 313.176
L282.106 312.436
L282.701 313.333
L283.296 315.714
L283.891 317.091
L284.486 319.376
L285.082 322.744
L286.272 327.797
L286.867 329.551
L287.462 330.563
L288.058 311.75
L289.248 304.687
L289.843 303.17
L290.438 304.771
L291.629 304.743
L292.224 329.515
L292.819 315.024
L293.414 308.111
L294.01 304.953
L294.605 324.702
L295.2 325.207
L295.795 324.83
L296.39 323.459
L296.986 320.426
L297.581 314.714
L298.176 310.331
L298.771 306.857
L299.366 305.848
L299.962 303.626
L300.557 303.127
L301.152 304.548
L301.747 320.386
L302.342 324.492
L302.938 327.823
L303.533 330.421
L304.128 332.322
L304.723 333.551
L305.318 334.223
L306.509 250.85
L307.104 224.508
L307.699 225.956
L310.08 234.657
L310.675 236.285
L311.27 237.56
L311.866 238.452
L312.461 238.923
L313.056 226.008
L314.842 231.676
L316.032 236.011
L317.222 239.235
L317.818 240.374
L318.413 241.167
L319.008 241.584
L319.603 197.528
L320.198 192.562
L321.389 201.462
L322.579 208.518
L323.174 211.07
L323.77 212.972
L324.365 214.493
L324.96 215.284
L325.555 181.489
L327.341 96.911
L327.936 102.527
L328.531 106.247
L329.126 108.108
L329.722 238.758
L330.317 196.658
L331.507 165.644
L332.102 148.066
L332.698 138.378
L333.293 143.388
L333.888 145.909
L334.483 159.774
L335.078 114.732
L335.674 105.098
L336.269 92.6824
L336.864 77.0826
L337.459 57.2982
L338.054 66.2009
L338.65 70.3407
L339.245 69.8429
L339.84 64.6001
L340.435 103.017
L341.626 75.6969
L342.221 69.1667
L342.816 78.1751
L343.411 84.6939
L344.006 89.2593
L344.602 91.7746
L345.197 99.9079
L345.792 103.388
L346.387 104.529
L346.982 103.011
L347.578 110.787
L348.173 115.935
L348.768 118.511
L349.363 303.948
L349.958 301.502
L350.554 300.453
L351.149 299.111
L351.744 298.184
L352.339 297.913
L355.315 299.72
L355.91 298.445
L356.506 298.793
L358.886 302.841
L360.077 304.997
L360.672 305.842
L361.267 306.467
L361.862 306.813
L362.458 299.558
L363.053 299.888
L363.648 300.634
L364.243 301.171
L366.029 304.545
L367.219 306.266
L367.814 306.944
L368.41 307.319
L369.005 301.1
L369.6 302.32
L370.79 305.307
L372.576 308.352
L373.766 309.943
L374.362 310.477
L374.957 310.773
L375.552 306.533
L376.742 309.238
L377.933 311.392
L378.528 312.117
L379.123 312.519
L379.718 305.387
L381.504 309.449
L382.694 311.649
L383.29 312.62
L383.885 313.347
L384.48 313.744
L385.075 299.413
L385.67 299.209
L388.051 298.978
L388.646 299.888
L391.027 310.041
L391.622 311.775
L392.813 313.557
L393.408 314.152
L394.003 314.479
L394.598 311.744
L396.384 314.589
L396.979 315.273
L397.574 315.764
L398.17 316.029
L398.765 300.834
L399.36 300.369
L399.955 300.301
L400.55 300.731
L401.146 301.487
L403.526 306.253
L404.717 308.777
L405.907 310.689
L406.502 311.366
L407.098 311.772
L407.693 305.914
L409.478 307.991
L410.669 308.876
L411.264 309.08
L411.859 300.562
L412.454 301.035
L415.43 307.083
L416.621 308.661
L417.216 309.088
L417.811 300.858
L418.406 301.126
L419.597 301.871
L421.382 302.55
L421.978 302.663
L422.573 302.017
L424.954 304.254
L426.144 305.087
L426.739 305.288
L427.334 303.88
L428.525 305.37
L429.12 305.887
L429.715 306.179
L430.31 302.017
L430.906 300.761
L431.501 300.169
L432.096 305.824
L433.286 304.279
L433.882 304.052
L434.477 303.676
L435.072 303.451
L435.667 303.865
L436.262 304.558
L437.453 307.086
L438.048 307.262
L441.024 309.291
L441.619 308.21
L442.214 310.123
L444 312.986
L445.786 315.819
L446.381 316.47
L446.976 316.892
L447.571 317.125
L448.166 316.496
L448.762 317.001
L449.357 317.283
L449.952 310.272
L451.142 312.948
L452.333 316.094
L453.523 317.57
L454.118 318.102
L454.714 318.404
L455.309 316.522
L457.094 321.373
L458.285 323.978
L458.88 324.961
L459.475 325.669
L460.07 326.052
L460.666 314.293
L463.046 319.726
L464.237 321.715
L464.832 322.365
L465.427 322.718
L466.022 304.928
L466.618 303.586
L467.213 302.54
L467.808 301.739
L468.403 301.419
L468.998 301.635
L470.189 302.42
L471.974 303.951
L472.57 304.696
L473.165 305.257
L473.76 305.572
L474.355 303.256
L474.95 302.559
L476.736 301.946
L477.331 301.986
L478.522 302.836
L480.902 304.979
L481.498 305.351
L482.093 305.564
L482.688 301.904
L483.878 302.128
L486.259 302.909
L486.854 302.58
L488.045 305.01
L489.83 309.402
L491.021 312.504
L492.211 316.144
L493.402 319.204
L494.592 321.423
L495.187 322.127
L495.782 322.504
L496.378 312.03
L497.568 313.327
L498.163 313.764
L498.758 314.005
L499.354 302.619
L499.949 302.672
L500.544 303.348
L501.139 304.332
L502.33 306.896
L502.925 307.702
L504.115 308.233
L505.306 308.522
L505.901 308.074
L507.091 309.868
L507.686 310.492
L508.282 310.843
L508.877 303.763
L510.067 303.819
L510.662 313.461
L511.258 325.833
L511.853 334.686
L512.448 340.519
L513.043 343.446
L513.043 343.446" style="fill:none;stroke:#ff0000;stroke-linecap:square;stroke-width:2;"/>
   </g>
   <g id="patch_3">
    <path d="
M72 43.2
L518.4 43.2" style="fill:none;stroke:#000000;stroke-linecap:square;stroke-linejoin:miter;"/>
   </g>
   <g id="patch_4">
    <path d="
M518.4 378
L518.4 43.2" style="fill:none;stroke:#000000;stroke-linecap:square;stroke-linejoin:miter;"/>
   </g>
   <g id="patch_5">
    <path d="
M72 378
L518.4 378" style="fill:none;stroke:#000000;stroke-linecap:square;stroke-linejoin:miter;"/>
   </g>
   <g id="patch_6">
    <path d="
M72 378
L72 43.2" style="fill:none;stroke:#000000;stroke-linecap:square;stroke-linejoin:miter;"/>
   </g>
   <g id="matplotlib.axis_1">
    <g id="xtick_1">
     <g id="line2d_4">
      <defs>
       <path d="
M0 0
L0 -4" id="m93b0483c22" style="stroke:#000000;stroke-width:0.5;"/>
      </defs>
      <g>
       <use style="stroke:#000000;stroke-width:0.5;" x="72.0" xlink:href="#m93b0483c22" y="378.0"/>
      </g>
     </g>
     <g id="line2d_5">
      <defs>
       <path d="
M0 0
L0 4" id="m741efc42ff" style="stroke:#000000;stroke-width:0.5;"/>
      </defs>
      <g>
       <use style="stroke:#000000;stroke-width:0.5;" x="72.0" xlink:href="#m741efc42ff" y="43.2"/>
      </g>
     </g>
     <g id="text_1">
      <!-- 0 -->
      <defs>
       <path d="
M31.7812 66.4062
Q24.1719 66.4062 20.3281 58.9062
Q16.5 51.4219 16.5 36.375
Q16.5 21.3906 20.3281 13.8906
Q24.1719 6.39062 31.7812 6.39062
Q39.4531 6.39062 43.2812 13.8906
Q47.125 21.3906 47.125 36.375
Q47.125 51.4219 43.2812 58.9062
Q39.4531 66.4062 31.7812 66.4062
M31.7812 74.2188
Q44.0469 74.2188 50.5156 64.5156
Q56.9844 54.8281 56.9844 36.375
Q56.9844 17.9688 50.5156 8.26562
Q44.0469 -1.42188 31.7812 -1.42188
Q19.5312 -1.42188 13.0625 8.26562
Q6.59375 17.9688 6.59375 36.375
Q6.59375 54.8281 13.0625 64.5156
Q19.5312 74.2188 31.7812 74.2188" id="BitstreamVeraSans-Roman-30"/>
      </defs>
      <g transform="translate(68.47265625 392.6378125)scale(0.14 -0.14)">
       <use xlink:href="#BitstreamVeraSans-Roman-30"/>
      </g>
     </g>
    </g>
    <g id="xtick_2">
     <g id="line2d_6">
      <g>
       <use style="stroke:#000000;stroke-width:0.5;" x="220.8" xlink:href="#m93b0483c22" y="378.0"/>
      </g>
     </g>
     <g id="line2d_7">
      <g>
       <use style="stroke:#000000;stroke-width:0.5;" x="220.8" xlink:href="#m741efc42ff" y="43.2"/>
      </g>
     </g>
     <g id="text_2">
      <!-- 250 -->
      <defs>
       <path d="
M19.1875 8.29688
L53.6094 8.29688
L53.6094 0
L7.32812 0
L7.32812 8.29688
Q12.9375 14.1094 22.625 23.8906
Q32.3281 33.6875 34.8125 36.5312
Q39.5469 41.8438 41.4219 45.5312
Q43.3125 49.2188 43.3125 52.7812
Q43.3125 58.5938 39.2344 62.25
Q35.1562 65.9219 28.6094 65.9219
Q23.9688 65.9219 18.8125 64.3125
Q13.6719 62.7031 7.8125 59.4219
L7.8125 69.3906
Q13.7656 71.7812 18.9375 73
Q24.125 74.2188 28.4219 74.2188
Q39.75 74.2188 46.4844 68.5469
Q53.2188 62.8906 53.2188 53.4219
Q53.2188 48.9219 51.5312 44.8906
Q49.8594 40.875 45.4062 35.4062
Q44.1875 33.9844 37.6406 27.2188
Q31.1094 20.4531 19.1875 8.29688" id="BitstreamVeraSans-Roman-32"/>
       <path d="
M10.7969 72.9062
L49.5156 72.9062
L49.5156 64.5938
L19.8281 64.5938
L19.8281 46.7344
Q21.9688 47.4688 24.1094 47.8281
Q26.2656 48.1875 28.4219 48.1875
Q40.625 48.1875 47.75 41.5
Q54.8906 34.8125 54.8906 23.3906
Q54.8906 11.625 47.5625 5.09375
Q40.2344 -1.42188 26.9062 -1.42188
Q22.3125 -1.42188 17.5469 -0.640625
Q12.7969 0.140625 7.71875 1.70312
L7.71875 11.625
Q12.1094 9.23438 16.7969 8.0625
Q21.4844 6.89062 26.7031 6.89062
Q35.1562 6.89062 40.0781 11.3281
Q45.0156 15.7656 45.0156 23.3906
Q45.0156 31 40.0781 35.4375
Q35.1562 39.8906 26.7031 39.8906
Q22.75 39.8906 18.8125 39.0156
Q14.8906 38.1406 10.7969 36.2812
z
" id="BitstreamVeraSans-Roman-35"/>
      </defs>
      <g transform="translate(208.4165625 392.6378125)scale(0.14 -0.14)">
       <use xlink:href="#BitstreamVeraSans-Roman-32"/>
       <use x="63.623046875" xlink:href="#BitstreamVeraSans-Roman-35"/>
       <use x="127.24609375" xlink:href="#BitstreamVeraSans-Roman-30"/>
      </g>
     </g>
    </g>
    <g id="xtick_3">
     <g id="line2d_8">
      <g>
       <use style="stroke:#000000;stroke-width:0.5;" x="369.6" xlink:href="#m93b0483c22" y="378.0"/>
      </g>
     </g>
     <g id="line2d_9">
      <g>
       <use style="stroke:#000000;stroke-width:0.5;" x="369.6" xlink:href="#m741efc42ff" y="43.2"/>
      </g>
     </g>
     <g id="text_3">
      <!-- 500 -->
      <g transform="translate(357.24390625 392.6378125)scale(0.14 -0.14)">
       <use xlink:href="#BitstreamVeraSans-Roman-35"/>
       <use x="63.623046875" xlink:href="#BitstreamVeraSans-Roman-30"/>
       <use x="127.24609375" xlink:href="#BitstreamVeraSans-Roman-30"/>
      </g>
     </g>
    </g>
    <g id="xtick_4">
     <g id="line2d_10">
      <g>
       <use style="stroke:#000000;stroke-width:0.5;" x="518.4" xlink:href="#m93b0483c22" y="378.0"/>
      </g>
     </g>
     <g id="line2d_11">
      <g>
       <use style="stroke:#000000;stroke-width:0.5;" x="518.4" xlink:href="#m741efc42ff" y="43.2"/>
      </g>
     </g>
     <g id="text_4">
      <!-- 750 -->
      <defs>
       <path d="
M8.20312 72.9062
L55.0781 72.9062
L55.0781 68.7031
L28.6094 0
L18.3125 0
L43.2188 64.5938
L8.20312 64.5938
z
" id="BitstreamVeraSans-Roman-37"/>
      </defs>
      <g transform="translate(506.0778125 392.6378125)scale(0.14 -0.14)">
       <use xlink:href="#BitstreamVeraSans-Roman-37"/>
       <use x="63.623046875" xlink:href="#BitstreamVeraSans-Roman-35"/>
       <use x="127.24609375" xlink:href="#BitstreamVeraSans-Roman-30"/>
      </g>
     </g>
    </g>
    <g id="text_5">
     <!-- compartment number -->
     <defs>
      <path d="
M32.9062 24.6094
Q27.4375 24.6094 24.6719 22.75
Q21.9219 20.9062 21.9219 17.2812
Q21.9219 13.9688 24.1406 12.0781
Q26.375 10.2031 30.3281 10.2031
Q35.25 10.2031 38.625 13.7344
Q42 17.2812 42 22.6094
L42 24.6094
z

M59.625 31.2031
L59.625 0
L42 0
L42 8.10938
Q38.4844 3.125 34.0781 0.84375
Q29.6875 -1.42188 23.3906 -1.42188
Q14.8906 -1.42188 9.59375 3.53125
Q4.29688 8.5 4.29688 16.4062
Q4.29688 26.0312 10.9062 30.5156
Q17.5312 35.0156 31.6875 35.0156
L42 35.0156
L42 36.375
Q42 40.5312 38.7188 42.4531
Q35.4531 44.3906 28.5156 44.3906
Q22.9062 44.3906 18.0625 43.2656
Q13.2344 42.1406 9.07812 39.8906
L9.07812 53.2188
Q14.7031 54.5938 20.3594 55.2969
Q26.0312 56 31.6875 56
Q46.4844 56 53.0469 50.1719
Q59.625 44.3438 59.625 31.2031" id="BitstreamVeraSans-Bold-61"/>
      <path id="BitstreamVeraSans-Bold-20"/>
      <path d="
M37.5 11.2812
Q43.1094 11.2812 46.0625 15.375
Q49.0312 19.4844 49.0312 27.2969
Q49.0312 35.1094 46.0625 39.2031
Q43.1094 43.3125 37.5 43.3125
Q31.8906 43.3125 28.875 39.1875
Q25.875 35.0625 25.875 27.2969
Q25.875 19.5312 28.875 15.4062
Q31.8906 11.2812 37.5 11.2812
M25.875 46.6875
Q29.5 51.4688 33.8906 53.7344
Q38.2812 56 44 56
Q54.1094 56 60.5938 47.9688
Q67.0938 39.9375 67.0938 27.2969
Q67.0938 14.6562 60.5938 6.60938
Q54.1094 -1.42188 44 -1.42188
Q38.2812 -1.42188 33.8906 0.84375
Q29.5 3.125 25.875 7.90625
L25.875 0
L8.40625 0
L8.40625 75.9844
L25.875 75.9844
z
" id="BitstreamVeraSans-Bold-62"/>
      <path d="
M52.5938 52.9844
L52.5938 38.7188
Q49.0312 41.1562 45.4375 42.3281
Q41.8438 43.5 37.9844 43.5
Q30.6719 43.5 26.5938 39.2344
Q22.5156 34.9688 22.5156 27.2969
Q22.5156 19.625 26.5938 15.3438
Q30.6719 11.0781 37.9844 11.0781
Q42.0938 11.0781 45.7812 12.2969
Q49.4688 13.5312 52.5938 15.9219
L52.5938 1.60938
Q48.4844 0.09375 44.2656 -0.65625
Q40.0469 -1.42188 35.7969 -1.42188
Q21 -1.42188 12.6406 6.17188
Q4.29688 13.7656 4.29688 27.2969
Q4.29688 40.8281 12.6406 48.4062
Q21 56 35.7969 56
Q40.0938 56 44.2656 55.25
Q48.4375 54.5 52.5938 52.9844" id="BitstreamVeraSans-Bold-63"/>
      <path d="
M49.0312 39.7969
Q46.7344 40.875 44.4531 41.375
Q42.1875 41.8906 39.8906 41.8906
Q33.1562 41.8906 29.5156 37.5625
Q25.875 33.25 25.875 25.2031
L25.875 0
L8.40625 0
L8.40625 54.6875
L25.875 54.6875
L25.875 45.7031
Q29.25 51.0781 33.6094 53.5312
Q37.9844 56 44.0938 56
Q44.9688 56 45.9844 55.9219
Q47.0156 55.8594 48.9688 55.6094
z
" id="BitstreamVeraSans-Bold-72"/>
      <path d="
M7.8125 21.2969
L7.8125 54.6875
L25.3906 54.6875
L25.3906 49.2188
Q25.3906 44.7812 25.3438 38.0625
Q25.2969 31.3438 25.2969 29.1094
Q25.2969 22.5156 25.6406 19.6094
Q25.9844 16.7031 26.8125 15.375
Q27.875 13.6719 29.6094 12.7344
Q31.3438 11.8125 33.5938 11.8125
Q39.0625 11.8125 42.1875 16.0156
Q45.3125 20.2188 45.3125 27.6875
L45.3125 54.6875
L62.7969 54.6875
L62.7969 0
L45.3125 0
L45.3125 7.90625
Q41.3594 3.125 36.9375 0.84375
Q32.5156 -1.42188 27.2031 -1.42188
Q17.7188 -1.42188 12.7656 4.39062
Q7.8125 10.2031 7.8125 21.2969" id="BitstreamVeraSans-Bold-75"/>
      <path d="
M27.4844 70.2188
L27.4844 54.6875
L45.5156 54.6875
L45.5156 42.1875
L27.4844 42.1875
L27.4844 19
Q27.4844 15.1875 29 13.8438
Q30.5156 12.5 35.0156 12.5
L44 12.5
L44 0
L29 0
Q18.6562 0 14.3281 4.3125
Q10.0156 8.64062 10.0156 19
L10.0156 42.1875
L1.3125 42.1875
L1.3125 54.6875
L10.0156 54.6875
L10.0156 70.2188
z
" id="BitstreamVeraSans-Bold-74"/>
      <path d="
M62.9844 27.4844
L62.9844 22.5156
L22.125 22.5156
Q22.75 16.3594 26.5625 13.2812
Q30.375 10.2031 37.2031 10.2031
Q42.7188 10.2031 48.5 11.8438
Q54.2969 13.4844 60.4062 16.7969
L60.4062 3.32812
Q54.2031 0.984375 48 -0.21875
Q41.7969 -1.42188 35.5938 -1.42188
Q20.75 -1.42188 12.5156 6.125
Q4.29688 13.6719 4.29688 27.2969
Q4.29688 40.6719 12.375 48.3281
Q20.4531 56 34.625 56
Q47.5156 56 55.25 48.2344
Q62.9844 40.4844 62.9844 27.4844
M45.0156 33.2969
Q45.0156 38.2812 42.1094 41.3281
Q39.2031 44.3906 34.5156 44.3906
Q29.4375 44.3906 26.2656 41.5312
Q23.0938 38.6719 22.3125 33.2969
z
" id="BitstreamVeraSans-Bold-65"/>
      <path d="
M25.875 7.90625
L25.875 -20.7969
L8.40625 -20.7969
L8.40625 54.6875
L25.875 54.6875
L25.875 46.6875
Q29.5 51.4688 33.8906 53.7344
Q38.2812 56 44 56
Q54.1094 56 60.5938 47.9688
Q67.0938 39.9375 67.0938 27.2969
Q67.0938 14.6562 60.5938 6.60938
Q54.1094 -1.42188 44 -1.42188
Q38.2812 -1.42188 33.8906 0.84375
Q29.5 3.125 25.875 7.90625
M37.5 43.3125
Q31.8906 43.3125 28.875 39.1875
Q25.875 35.0625 25.875 27.2969
Q25.875 19.5312 28.875 15.4062
Q31.8906 11.2812 37.5 11.2812
Q43.1094 11.2812 46.0625 15.375
Q49.0312 19.4844 49.0312 27.2969
Q49.0312 35.1094 46.0625 39.2031
Q43.1094 43.3125 37.5 43.3125" id="BitstreamVeraSans-Bold-70"/>
      <path d="
M34.4219 43.5
Q28.6094 43.5 25.5625 39.3281
Q22.5156 35.1562 22.5156 27.2969
Q22.5156 19.4375 25.5625 15.25
Q28.6094 11.0781 34.4219 11.0781
Q40.1406 11.0781 43.1562 15.25
Q46.1875 19.4375 46.1875 27.2969
Q46.1875 35.1562 43.1562 39.3281
Q40.1406 43.5 34.4219 43.5
M34.4219 56
Q48.5312 56 56.4688 48.375
Q64.4062 40.7656 64.4062 27.2969
Q64.4062 13.8125 56.4688 6.1875
Q48.5312 -1.42188 34.4219 -1.42188
Q20.2656 -1.42188 12.2812 6.1875
Q4.29688 13.8125 4.29688 27.2969
Q4.29688 40.7656 12.2812 48.375
Q20.2656 56 34.4219 56" id="BitstreamVeraSans-Bold-6f"/>
      <path d="
M59.0781 45.6094
Q62.4062 50.6875 66.9688 53.3438
Q71.5312 56 77 56
Q86.4219 56 91.3594 50.1875
Q96.2969 44.3906 96.2969 33.2969
L96.2969 0
L78.7188 0
L78.7188 28.5156
Q78.7656 29.1562 78.7812 29.8281
Q78.8125 30.5156 78.8125 31.7812
Q78.8125 37.5938 77.0938 40.2031
Q75.3906 42.8281 71.5781 42.8281
Q66.6094 42.8281 63.8906 38.7188
Q61.1875 34.625 61.0781 26.8594
L61.0781 0
L43.5 0
L43.5 28.5156
Q43.5 37.5938 41.9375 40.2031
Q40.375 42.8281 36.375 42.8281
Q31.3438 42.8281 28.6094 38.7031
Q25.875 34.5781 25.875 26.9062
L25.875 0
L8.29688 0
L8.29688 54.6875
L25.875 54.6875
L25.875 46.6875
Q29.1094 51.3125 33.2812 53.6562
Q37.4531 56 42.4844 56
Q48.1406 56 52.4844 53.2656
Q56.8438 50.5312 59.0781 45.6094" id="BitstreamVeraSans-Bold-6d"/>
      <path d="
M63.375 33.2969
L63.375 0
L45.7969 0
L45.7969 5.42188
L45.7969 25.4844
Q45.7969 32.5625 45.4844 35.25
Q45.1719 37.9375 44.3906 39.2031
Q43.3594 40.9219 41.5938 41.875
Q39.8438 42.8281 37.5938 42.8281
Q32.125 42.8281 29 38.5938
Q25.875 34.375 25.875 26.9062
L25.875 0
L8.40625 0
L8.40625 54.6875
L25.875 54.6875
L25.875 46.6875
Q29.8281 51.4688 34.2656 53.7344
Q38.7188 56 44.0938 56
Q53.5625 56 58.4688 50.1875
Q63.375 44.3906 63.375 33.2969" id="BitstreamVeraSans-Bold-6e"/>
     </defs>
     <g transform="translate(196.86375 412.706875)scale(0.16 -0.16)">
      <use xlink:href="#BitstreamVeraSans-Bold-63"/>
      <use x="59.27734375" xlink:href="#BitstreamVeraSans-Bold-6f"/>
      <use x="127.978515625" xlink:href="#BitstreamVeraSans-Bold-6d"/>
      <use x="232.177734375" xlink:href="#BitstreamVeraSans-Bold-70"/>
      <use x="303.759765625" xlink:href="#BitstreamVeraSans-Bold-61"/>
      <use x="371.240234375" xlink:href="#BitstreamVeraSans-Bold-72"/>
      <use x="420.556640625" xlink:href="#BitstreamVeraSans-Bold-74"/>
      <use x="468.359375" xlink:href="#BitstreamVeraSans-Bold-6d"/>
      <use x="572.55859375" xlink:href="#BitstreamVeraSans-Bold-65"/>
      <use x="640.380859375" xlink:href="#BitstreamVeraSans-Bold-6e"/>
      <use x="711.572265625" xlink:href="#BitstreamVeraSans-Bold-74"/>
      <use x="759.375" xlink:href="#BitstreamVeraSans-Bold-20"/>
      <use x="794.189453125" xlink:href="#BitstreamVeraSans-Bold-6e"/>
      <use x="865.380859375" xlink:href="#BitstreamVeraSans-Bold-75"/>
      <use x="936.572265625" xlink:href="#BitstreamVeraSans-Bold-6d"/>
      <use x="1040.77148438" xlink:href="#BitstreamVeraSans-Bold-62"/>
      <use x="1112.35351562" xlink:href="#BitstreamVeraSans-Bold-65"/>
      <use x="1180.17578125" xlink:href="#BitstreamVeraSans-Bold-72"/>
     </g>
    </g>
   </g>
   <g id="matplotlib.axis_2">
    <g id="ytick_1">
     <g id="line2d_12">
      <defs>
       <path d="
M0 0
L4 0" id="m728421d6d4" style="stroke:#000000;stroke-width:0.5;"/>
      </defs>
      <g>
       <use style="stroke:#000000;stroke-width:0.5;" x="72.0" xlink:href="#m728421d6d4" y="354.085714286"/>
      </g>
     </g>
     <g id="line2d_13">
      <defs>
       <path d="
M0 0
L-4 0" id="mcb0005524f" style="stroke:#000000;stroke-width:0.5;"/>
      </defs>
      <g>
       <use style="stroke:#000000;stroke-width:0.5;" x="518.4" xlink:href="#mcb0005524f" y="354.085714286"/>
      </g>
     </g>
     <g id="text_6">
      <!-- 0.05 -->
      <defs>
       <path d="
M10.6875 12.4062
L21 12.4062
L21 0
L10.6875 0
z
" id="BitstreamVeraSans-Roman-2e"/>
      </defs>
      <g transform="translate(38.9740625 357.948839286)scale(0.14 -0.14)">
       <use xlink:href="#BitstreamVeraSans-Roman-30"/>
       <use x="63.623046875" xlink:href="#BitstreamVeraSans-Roman-2e"/>
       <use x="95.41015625" xlink:href="#BitstreamVeraSans-Roman-30"/>
       <use x="159.033203125" xlink:href="#BitstreamVeraSans-Roman-35"/>
      </g>
     </g>
    </g>
    <g id="ytick_2">
     <g id="line2d_14">
      <g>
       <use style="stroke:#000000;stroke-width:0.5;" x="72.0" xlink:href="#m728421d6d4" y="330.171428571"/>
      </g>
     </g>
     <g id="line2d_15">
      <g>
       <use style="stroke:#000000;stroke-width:0.5;" x="518.4" xlink:href="#mcb0005524f" y="330.171428571"/>
      </g>
     </g>
     <g id="text_7">
      <!-- 0.10 -->
      <defs>
       <path d="
M12.4062 8.29688
L28.5156 8.29688
L28.5156 63.9219
L10.9844 60.4062
L10.9844 69.3906
L28.4219 72.9062
L38.2812 72.9062
L38.2812 8.29688
L54.3906 8.29688
L54.3906 0
L12.4062 0
z
" id="BitstreamVeraSans-Roman-31"/>
      </defs>
      <g transform="translate(38.6809375 334.034553571)scale(0.14 -0.14)">
       <use xlink:href="#BitstreamVeraSans-Roman-30"/>
       <use x="63.623046875" xlink:href="#BitstreamVeraSans-Roman-2e"/>
       <use x="95.41015625" xlink:href="#BitstreamVeraSans-Roman-31"/>
       <use x="159.033203125" xlink:href="#BitstreamVeraSans-Roman-30"/>
      </g>
     </g>
    </g>
    <g id="ytick_3">
     <g id="line2d_16">
      <g>
       <use style="stroke:#000000;stroke-width:0.5;" x="72.0" xlink:href="#m728421d6d4" y="306.257142857"/>
      </g>
     </g>
     <g id="line2d_17">
      <g>
       <use style="stroke:#000000;stroke-width:0.5;" x="518.4" xlink:href="#mcb0005524f" y="306.257142857"/>
      </g>
     </g>
     <g id="text_8">
      <!-- 0.15 -->
      <g transform="translate(38.9740625 310.120267857)scale(0.14 -0.14)">
       <use xlink:href="#BitstreamVeraSans-Roman-30"/>
       <use x="63.623046875" xlink:href="#BitstreamVeraSans-Roman-2e"/>
       <use x="95.41015625" xlink:href="#BitstreamVeraSans-Roman-31"/>
       <use x="159.033203125" xlink:href="#BitstreamVeraSans-Roman-35"/>
      </g>
     </g>
    </g>
    <g id="text_9">
     <!-- normalized concentration -->
     <defs>
      <path d="
M5.71875 54.6875
L53.4219 54.6875
L53.4219 42.4844
L24.6094 12.5
L53.4219 12.5
L53.4219 0
L4.5 0
L4.5 12.2031
L33.2969 42.1875
L5.71875 42.1875
z
" id="BitstreamVeraSans-Bold-7a"/>
      <path d="
M8.40625 75.9844
L25.875 75.9844
L25.875 0
L8.40625 0
z
" id="BitstreamVeraSans-Bold-6c"/>
      <path d="
M8.40625 54.6875
L25.875 54.6875
L25.875 0
L8.40625 0
z

M8.40625 75.9844
L25.875 75.9844
L25.875 61.7188
L8.40625 61.7188
z
" id="BitstreamVeraSans-Bold-69"/>
      <path d="
M45.6094 46.6875
L45.6094 75.9844
L63.1875 75.9844
L63.1875 0
L45.6094 0
L45.6094 7.90625
Q42 3.07812 37.6406 0.828125
Q33.2969 -1.42188 27.5938 -1.42188
Q17.4844 -1.42188 10.9844 6.60938
Q4.5 14.6562 4.5 27.2969
Q4.5 39.9375 10.9844 47.9688
Q17.4844 56 27.5938 56
Q33.25 56 37.625 53.7344
Q42 51.4688 45.6094 46.6875
M34.0781 11.2812
Q39.7031 11.2812 42.6562 15.375
Q45.6094 19.4844 45.6094 27.2969
Q45.6094 35.1094 42.6562 39.2031
Q39.7031 43.3125 34.0781 43.3125
Q28.5156 43.3125 25.5625 39.2031
Q22.6094 35.1094 22.6094 27.2969
Q22.6094 19.4844 25.5625 15.375
Q28.5156 11.2812 34.0781 11.2812" id="BitstreamVeraSans-Bold-64"/>
     </defs>
     <g transform="translate(30.3534375 325.6475)rotate(-90.0)scale(0.16 -0.16)">
      <use xlink:href="#BitstreamVeraSans-Bold-6e"/>
      <use x="71.19140625" xlink:href="#BitstreamVeraSans-Bold-6f"/>
      <use x="139.892578125" xlink:href="#BitstreamVeraSans-Bold-72"/>
      <use x="189.208984375" xlink:href="#BitstreamVeraSans-Bold-6d"/>
      <use x="293.408203125" xlink:href="#BitstreamVeraSans-Bold-61"/>
      <use x="360.888671875" xlink:href="#BitstreamVeraSans-Bold-6c"/>
      <use x="395.166015625" xlink:href="#BitstreamVeraSans-Bold-69"/>
      <use x="429.443359375" xlink:href="#BitstreamVeraSans-Bold-7a"/>
      <use x="487.646484375" xlink:href="#BitstreamVeraSans-Bold-65"/>
      <use x="555.46875" xlink:href="#BitstreamVeraSans-Bold-64"/>
      <use x="627.05078125" xlink:href="#BitstreamVeraSans-Bold-20"/>
      <use x="661.865234375" xlink:href="#BitstreamVeraSans-Bold-63"/>
      <use x="721.142578125" xlink:href="#BitstreamVeraSans-Bold-6f"/>
      <use x="789.84375" xlink:href="#BitstreamVeraSans-Bold-6e"/>
      <use x="861.03515625" xlink:href="#BitstreamVeraSans-Bold-63"/>
      <use x="920.3125" xlink:href="#BitstreamVeraSans-Bold-65"/>
      <use x="988.134765625" xlink:href="#BitstreamVeraSans-Bold-6e"/>
      <use x="1059.32617188" xlink:href="#BitstreamVeraSans-Bold-74"/>
      <use x="1107.12890625" xlink:href="#BitstreamVeraSans-Bold-72"/>
      <use x="1156.4453125" xlink:href="#BitstreamVeraSans-Bold-61"/>
      <use x="1223.92578125" xlink:href="#BitstreamVeraSans-Bold-74"/>
      <use x="1271.72851562" xlink:href="#BitstreamVeraSans-Bold-69"/>
      <use x="1306.00585938" xlink:href="#BitstreamVeraSans-Bold-6f"/>
      <use x="1374.70703125" xlink:href="#BitstreamVeraSans-Bold-6e"/>
     </g>
    </g>
   </g>
  </g>
 </g>
 <defs>
  <clipPath id="p332b41defa">
   <rect height="334.8" width="446.4" x="72.0" y="43.2"/>
  </clipPath>
 </defs>
</svg>
