<?xml version="1.0" encoding="utf-8" standalone="no"?>
<!DOCTYPE svg PUBLIC "-//W3C//DTD SVG 1.1//EN"
  "http://www.w3.org/Graphics/SVG/1.1/DTD/svg11.dtd">
<!-- Created with matplotlib (http://matplotlib.org/) -->
<svg height="432pt" version="1.1" viewBox="0 0 576 432" width="576pt" xmlns="http://www.w3.org/2000/svg" xmlns:xlink="http://www.w3.org/1999/xlink">
 <defs>
  <style type="text/css">
*{stroke-linecap:butt;stroke-linejoin:round;}
  </style>
 </defs>
 <g id="figure_1">
  <g id="patch_1">
   <path d="
M0 432
L576 432
L576 0
L0 0
z
" style="fill:#ffffff;"/>
  </g>
  <g id="axes_1">
   <g id="patch_2">
    <path d="
M72 378
L518.4 378
L518.4 43.2
L72 43.2
z
" style="fill:#ffffff;"/>
   </g>
   <g id="line2d_1">
    <path clip-path="url(#p332b41defa)" d="
M72 368.331
L72.5952 368.267
L73.7856 366.954
L75.5712 366.435
L77.952 366.427
L78.5472 366.445
L79.1424 366.658
L80.3328 365.263
L80.928 364.911
L83.904 364.873
L85.6896 364.871
L86.88 364.156
L88.6656 364.458
L89.856 364.746
L92.2368 365.444
L94.0224 365.81
L94.6176 365.858
L95.2128 364.179
L102.355 364.348
L104.736 364.523
L105.331 364.006
L105.926 363.853
L107.117 363.851
L107.712 363.007
L108.307 359.923
L108.902 353.212
L109.498 349.587
L110.093 348.895
L111.283 351.971
L112.474 354.132
L113.069 354.901
L113.664 355.475
L114.259 355.858
L114.854 356.051
L115.45 345.023
L116.045 339.647
L116.64 335.424
L117.235 334.536
L117.83 333.025
L118.426 361.925
L119.021 360.625
L120.211 350.892
L120.806 347.941
L121.402 346.456
L121.997 347.121
L122.592 347.521
L123.187 347.654
L123.782 347.518
L124.378 347.104
L124.973 346.4
L125.568 345.388
L126.163 346.045
L126.758 346.375
L127.354 341.911
L127.949 338.371
L128.544 337.773
L129.139 337.779
L129.734 338.318
L130.33 338.224
L130.925 337.482
L131.52 337.158
L132.115 337.217
L132.71 334.822
L133.306 333.629
L133.901 334.12
L134.496 334.113
L135.091 333.591
L135.686 334.53
L136.282 334.958
L136.877 334.886
L137.472 335.382
L138.067 334.029
L138.662 334.911
L139.258 335.284
L139.853 335.156
L140.448 335.655
L141.043 362.055
L141.638 362.332
L144.019 362.514
L144.614 362.354
L147.59 362.522
L150.566 363.855
L152.352 364.356
L154.138 364.624
L154.733 362.804
L156.518 363.948
L157.709 364.652
L159.494 365.793
L161.28 366.571
L162.47 366.909
L163.066 366.982
L163.661 362.503
L165.446 362.977
L167.827 363.783
L169.018 364.273
L170.208 364.568
L170.803 362.591
L171.398 362.655
L178.541 365.06
L179.136 362.648
L179.731 362.746
L183.302 364.959
L185.088 365.442
L186.278 365.631
L186.874 364.731
L188.659 365.321
L189.85 365.615
L190.445 365.682
L191.04 362.714
L191.635 362.797
L194.611 364.688
L196.397 365.437
L198.182 365.906
L199.373 366.054
L199.968 364.063
L201.754 365.211
L202.349 365.383
L204.134 365.514
L205.325 366.056
L206.515 366.424
L207.706 366.594
L208.301 364.302
L210.086 364.596
L210.682 364.632
L211.277 362.73
L213.062 362.694
L217.824 365.206
L219.014 365.454
L219.61 362.629
L220.205 362.673
L221.99 363.726
L223.181 364.704
L224.371 365.372
L225.562 365.744
L226.157 365.851
L226.752 362.434
L227.942 361.802
L228.538 361.663
L229.133 361.94
L229.728 362.081
L230.323 361.539
L230.918 361.875
L232.704 364.796
L233.299 365.697
L233.894 366.254
L236.275 367.515
L237.466 368.228
L239.846 369.253
L241.037 369.581
L242.227 369.723
L242.822 366.398
L244.608 367.982
L245.203 368.407
L246.989 369.36
L248.179 370.192
L249.965 371.342
L251.75 372.128
L252.941 372.437
L254.131 372.583
L254.726 368.699
L258.298 370.1
L261.274 370.599
L261.869 369.941
L263.654 370.468
L266.035 370.85
L266.63 370.879
L267.226 361.083
L267.821 360.607
L268.416 360.89
L269.011 361.033
L269.606 360.045
L270.202 358.675
L271.392 354.512
L272.582 350.016
L273.773 343.608
L274.368 342.419
L276.749 352.299
L277.344 354.202
L277.939 355.699
L279.13 357.757
L279.725 358.385
L280.32 358.693
L280.915 339.932
L281.51 337.411
L282.106 336.596
L282.701 336.999
L283.296 338.367
L283.891 339.12
L284.486 340.476
L285.082 342.549
L286.272 345.681
L286.867 346.778
L287.462 347.414
L288.058 335.997
L289.248 331.238
L289.843 330.171
L290.438 331.122
L291.629 331.031
L292.224 349.404
L292.819 340.792
L293.414 336.665
L294.01 334.776
L294.605 346.218
L295.2 346.202
L295.795 345.667
L296.39 344.536
L296.986 342.389
L297.581 338.691
L298.176 335.828
L298.771 333.543
L299.366 332.819
L299.962 331.355
L300.557 330.995
L301.152 331.863
L301.747 342.256
L302.938 346.719
L303.533 348.283
L304.128 349.429
L304.723 350.17
L305.318 350.576
L305.914 366.022
L306.509 360.858
L307.104 357.354
L308.294 357.876
L310.08 358.787
L311.27 359.19
L312.461 359.379
L313.056 357.578
L317.222 359.448
L318.413 359.716
L319.008 359.774
L319.603 353.729
L320.198 353.084
L321.389 354.314
L322.579 355.287
L323.77 355.9
L324.96 356.216
L325.555 351.598
L327.341 340.304
L327.936 341.069
L328.531 341.575
L329.126 341.828
L329.722 359.264
L330.317 353.625
L331.507 349.494
L332.102 347.148
L332.698 345.859
L333.293 346.537
L333.888 346.879
L334.483 348.769
L335.078 342.778
L335.674 341.524
L336.269 339.896
L336.864 337.84
L337.459 335.223
L338.054 336.428
L338.65 336.993
L339.245 336.936
L339.84 336.242
L340.435 341.235
L341.626 337.64
L342.221 336.789
L342.816 338.008
L343.411 338.89
L344.006 339.507
L344.602 339.846
L345.197 340.846
L345.792 341.334
L346.387 341.505
L346.982 341.318
L347.578 342.367
L348.173 343.06
L348.768 343.408
L349.363 367.889
L349.958 367.701
L351.149 367.486
L352.339 367.341
L355.315 367.598
L355.91 367.409
L357.101 367.603
L361.267 368.529
L361.862 368.576
L362.458 367.588
L364.838 368.019
L367.219 368.554
L368.41 368.695
L369.005 367.856
L372.576 368.891
L374.362 369.177
L374.957 369.217
L375.552 368.642
L377.933 369.295
L379.123 369.445
L379.718 368.479
L382.694 369.327
L384.48 369.606
L385.075 367.592
L388.051 367.584
L388.646 367.713
L391.027 369.101
L392.218 369.464
L394.003 369.696
L394.598 369.33
L396.979 369.808
L398.17 369.909
L398.765 367.667
L399.955 367.705
L401.146 367.9
L405.907 369.181
L407.098 369.326
L407.693 368.537
L410.669 368.946
L411.264 368.973
L411.859 367.773
L413.05 368.017
L416.026 368.79
L417.216 368.941
L417.811 367.834
L421.978 368.129
L422.573 368.042
L426.144 368.483
L426.739 368.51
L427.334 368.315
L429.12 368.587
L429.715 368.626
L430.31 367.628
L431.501 367.379
L432.096 368.049
L435.072 367.833
L436.262 368.07
L437.453 368.462
L439.834 368.685
L441.024 368.779
L441.619 368.642
L442.214 368.91
L446.976 369.869
L447.571 369.901
L448.166 369.814
L449.357 369.922
L449.952 368.941
L452.928 369.885
L454.714 370.092
L455.309 369.837
L457.69 370.686
L459.475 371.077
L460.07 371.128
L460.666 369.529
L463.642 370.42
L465.427 370.676
L466.022 367.947
L467.808 367.546
L468.998 367.551
L471.974 367.898
L473.76 368.125
L474.355 367.778
L476.141 367.695
L477.926 367.77
L482.093 368.231
L482.688 367.698
L487.45 367.918
L491.021 369.188
L493.402 370.109
L495.187 370.508
L495.782 370.56
L496.378 369.121
L498.163 369.362
L498.758 369.396
L499.354 367.71
L500.544 367.844
L503.52 368.517
L505.306 368.595
L505.901 368.525
L507.686 368.861
L508.282 368.909
L508.877 367.903
L510.067 367.914
L510.662 369.06
L511.258 370.776
L511.853 372.003
L512.448 372.812
L513.043 373.217
L513.043 373.217" style="fill:none;stroke:#000000;stroke-linecap:square;stroke-width:8;"/>
   </g>
   <g id="line2d_2">
    <path clip-path="url(#p332b41defa)" d="
M72 279.234
L72.5952 314.489
L73.1904 315.375
L73.7856 309.408
L74.3808 307.4
L74.976 306.243
L75.5712 306.644
L76.1664 308.189
L77.3568 311.889
L77.952 313.349
L78.5472 314.172
L79.1424 320.019
L79.7376 328.452
L80.3328 339.384
L80.928 339.443
L81.5232 339.129
L82.7136 338.946
L83.3088 340.915
L84.4992 343.761
L85.0944 344.748
L85.6896 345.274
L86.88 357.361
L88.6656 364.847
L89.856 368.996
L91.0464 372.194
L92.2368 374.36
L92.832 375.104
L93.4272 375.641
L94.0224 375.989
L94.6176 376.159
L95.2128 361.941
L95.808 362.624
L96.4032 363.106
L96.9984 363.359
L97.5936 365.682
L98.784 368.591
L99.3792 369.611
L99.9744 370.305
L100.57 370.657
L101.165 367.629
L102.355 370.78
L102.95 371.931
L103.546 372.793
L104.141 373.366
L104.736 373.652
L105.331 357.525
L105.926 357.397
L107.117 357.553
L107.712 364.073
L108.307 364.677
L108.902 364.373
L109.498 367.432
L111.283 373.552
L111.878 374.819
L112.474 375.73
L113.069 376.367
L113.664 376.794
L114.259 377.055
L114.854 377.179
L115.45 368.544
L116.64 371.048
L117.235 372.414
L117.83 373.007
L118.426 368.546
L119.021 370.183
L119.616 370.954
L120.211 372.828
L121.402 374.546
L121.997 375.521
L122.592 376.245
L123.187 376.774
L124.378 377.423
L125.568 377.728
L126.758 377.848
L127.354 373.826
L129.139 376.351
L129.734 376.886
L130.33 377.231
L131.52 377.534
L132.115 374.737
L133.306 376.739
L133.901 377.174
L135.091 377.658
L136.282 377.869
L137.472 377.934
L138.067 377.166
L139.258 377.645
L140.448 377.804
L141.043 371.776
L141.638 372.705
L142.829 373.956
L143.424 374.33
L144.019 374.519
L144.614 374.059
L145.805 374.705
L146.4 374.841
L147.59 376.491
L148.781 377.119
L149.971 377.511
L151.757 377.811
L154.138 377.929
L154.733 376.838
L155.923 377.348
L157.709 377.75
L160.09 377.941
L163.066 377.987
L163.661 376.661
L164.851 377.201
L166.637 377.669
L168.422 377.874
L170.208 377.936
L170.803 377.211
L172.589 377.661
L174.374 377.872
L177.35 377.979
L178.541 377.986
L179.136 377.537
L180.922 377.827
L183.302 377.968
L190.445 377.993
L191.04 377.72
L193.421 377.951
L199.373 377.999
L201.158 377.983
L210.682 377.99
L211.277 377.802
L213.658 377.963
L219.014 377.999
L220.8 377.979
L232.109 377.999
L305.318 378
L305.914 321.266
L306.509 313.134
L307.104 309.908
L308.294 322.699
L309.485 335.994
L310.675 346.57
L311.27 350.307
L311.866 352.854
L312.461 354.145
L313.056 316.297
L315.437 343.96
L316.627 354.681
L317.222 358.647
L317.818 361.629
L318.413 363.617
L319.008 364.61
L319.603 299.288
L320.198 304.266
L321.984 331.373
L323.174 344.716
L323.77 349.311
L324.365 352.445
L324.96 354.021
L325.555 300.602
L326.15 300.175
L326.746 302
L327.341 305.117
L327.936 316.165
L328.531 323.688
L329.126 327.492
L330.317 288.677
L330.912 286.792
L331.507 286.474
L332.102 286.86
L332.698 290.461
L333.293 297.677
L333.888 301.368
L334.483 292.785
L335.078 286.377
L337.459 325.535
L338.054 337.839
L338.65 346.584
L339.245 352.099
L339.84 354.533
L340.435 293.911
L341.626 312.145
L343.411 343.261
L344.006 348.924
L344.602 351.74
L345.197 304.786
L346.387 327.78
L347.578 344.364
L348.173 349.528
L348.768 352.071
L349.363 319.51
L349.958 334.111
L350.554 344.853
L351.149 348.035
L351.744 349.263
L354.125 355.672
L354.72 356.652
L355.315 357.166
L355.91 350.256
L358.886 363.754
L360.077 367.452
L360.672 368.704
L361.267 369.543
L361.862 369.965
L362.458 352.576
L363.053 357.998
L365.434 365.649
L366.624 368.474
L367.219 369.452
L367.814 370.124
L368.41 370.464
L369.005 361.837
L370.195 369.211
L370.79 371.426
L371.981 373.366
L373.171 374.698
L373.766 375.135
L374.362 375.425
L374.957 375.569
L375.552 372.481
L376.742 374.149
L377.933 375.182
L378.528 375.472
L379.123 375.616
L379.718 370.58
L380.909 372.83
L382.099 374.441
L383.29 375.434
L383.885 375.714
L384.48 375.852
L385.075 355.486
L386.266 361.621
L386.861 362.111
L387.456 362.444
L388.051 362.642
L388.646 364.286
L389.837 369.511
L391.027 373.568
L391.622 374.369
L392.218 374.965
L392.813 375.402
L393.408 375.689
L394.003 375.832
L394.598 374.472
L395.789 375.739
L396.979 376.477
L398.17 376.774
L398.765 339.75
L399.955 353.55
L401.146 359.366
L402.931 368.606
L404.122 371.334
L405.312 373.248
L405.907 373.879
L406.502 374.301
L407.098 374.513
L407.693 370.028
L408.883 372.307
L409.478 373.147
L410.074 373.778
L410.669 374.198
L411.264 374.409
L411.859 358.469
L414.835 367.798
L415.43 369.08
L416.026 370.057
L416.621 370.722
L417.216 371.061
L417.811 361.667
L419.002 368.009
L420.192 369.991
L420.787 370.705
L421.382 371.196
L421.978 371.446
L422.573 369.981
L423.763 373.471
L424.954 374.834
L425.549 375.284
L426.144 375.581
L426.739 375.729
L427.334 374.236
L427.93 374.85
L428.525 375.303
L429.12 375.602
L429.715 375.751
L430.31 311.512
L430.906 305.826
L431.501 302.898
L432.096 313.123
L432.691 314.454
L433.286 317.399
L433.882 313.197
L434.477 310.147
L435.072 308.568
L435.667 325.865
L436.858 346.502
L438.048 351.695
L439.238 356.056
L439.834 357.694
L440.429 358.853
L441.024 359.455
L441.619 354.835
L442.81 361.217
L444 366.542
L445.19 370.824
L445.786 372.542
L446.381 373.285
L446.976 373.772
L447.571 374.015
L448.166 373.286
L448.762 373.779
L449.357 374.024
L449.952 359.837
L451.142 368.6
L451.738 371.133
L452.333 372.21
L452.928 373.022
L453.523 373.634
L454.118 374.042
L454.714 374.246
L455.309 372.484
L456.499 374.514
L457.69 375.82
L458.88 376.557
L460.07 376.849
L460.666 370.219
L461.856 372.83
L463.046 374.611
L463.642 375.22
L464.237 375.661
L464.832 375.947
L465.427 376.088
L466.022 320.389
L466.618 319.097
L467.213 319.292
L467.808 320.817
L468.403 323.649
L469.594 331.884
L471.379 344.753
L472.57 351.041
L473.165 352.976
L473.76 353.963
L474.355 329.198
L474.95 336.155
L476.141 346.098
L476.736 351.549
L478.522 360.218
L479.712 364.841
L480.307 366.594
L480.902 367.929
L481.498 368.828
L482.093 369.28
L482.688 354.064
L483.878 358.697
L484.474 360.594
L485.069 362.089
L485.664 363.122
L486.259 363.65
L486.854 339.266
L488.64 352.36
L490.426 365.255
L491.616 369.481
L492.806 372.496
L493.402 373.572
L493.997 374.394
L494.592 374.986
L495.187 375.368
L495.782 375.556
L496.378 366.935
L496.973 368.27
L497.568 369.295
L498.163 369.988
L498.758 370.338
L499.354 332.387
L500.544 341.703
L502.33 357.804
L502.925 360.208
L503.52 362.088
L504.115 363.54
L504.71 364.527
L505.306 365.026
L505.901 360.283
L506.496 362.291
L507.091 363.827
L507.686 364.866
L508.282 365.392
L508.877 341.637
L510.067 341.466
L510.662 257.079
L511.258 260.318
L512.448 274.838
L513.043 279.384
L513.043 279.384" style="fill:none;stroke:#0000ff;stroke-linecap:square;stroke-width:4;"/>
   </g>
   <g id="line2d_3">
    <path clip-path="url(#p332b41defa)" d="
M72 214.43
L72.5952 273.033
L73.1904 281.374
L73.7856 277.782
L74.3808 276.234
L74.976 276.375
L75.5712 277.774
L77.952 286.481
L78.5472 287.432
L79.1424 295.568
L80.3328 328.861
L80.928 330.087
L81.5232 329.759
L82.7136 329.531
L83.3088 331.892
L84.4992 335.266
L85.0944 336.425
L85.6896 337.038
L86.88 353.684
L88.6656 362.063
L89.856 366.792
L91.0464 370.508
L92.2368 373.144
L92.832 374.07
L93.4272 374.751
L94.0224 375.197
L94.6176 375.418
L95.2128 358.968
L95.808 359.736
L96.4032 360.281
L96.9984 360.565
L97.5936 363.319
L98.784 366.676
L99.3792 367.854
L99.9744 368.655
L100.57 369.06
L101.165 365.579
L102.355 369.213
L102.95 370.553
L103.546 371.561
L104.141 372.234
L104.736 372.571
L105.331 354.175
L107.117 354.404
L107.712 362.838
L109.498 371.834
L110.688 374.23
L111.878 375.831
L113.069 376.787
L114.259 377.258
L114.854 377.346
L115.45 373.203
L116.045 374.334
L116.64 375.193
L117.235 375.762
L117.83 376.047
L118.426 368.371
L120.211 374.833
L121.402 376.155
L122.592 377.016
L123.782 377.518
L124.973 377.779
L126.758 377.912
L127.354 376.056
L128.544 376.984
L129.734 377.507
L130.925 377.749
L131.52 377.792
L132.115 376.641
L133.306 377.505
L134.496 377.783
L136.282 377.944
L137.472 377.971
L138.067 377.666
L139.853 377.894
L140.448 377.914
L141.043 371.58
L142.234 373.127
L142.829 373.675
L143.424 374.05
L144.019 374.239
L144.614 373.841
L145.805 374.487
L146.4 374.622
L146.995 375.619
L147.59 376.377
L148.781 377.009
L149.971 377.425
L151.757 377.765
L154.138 377.907
L154.733 376.723
L155.923 377.239
L157.709 377.681
L160.09 377.915
L163.066 377.98
L163.661 376.562
L164.851 377.119
L166.042 377.488
L167.827 377.79
L170.208 377.916
L170.803 377.144
L172.589 377.617
L174.374 377.848
L177.35 377.972
L178.541 377.981
L179.136 377.494
L180.922 377.798
L183.302 377.957
L189.85 377.988
L190.445 377.989
L191.04 377.692
L193.421 377.94
L199.373 377.998
L200.563 377.966
L207.706 377.999
L209.491 377.98
L210.682 377.986
L211.277 377.781
L213.062 377.941
L219.014 377.998
L220.205 377.966
L227.942 377.989
L252.346 378
L305.318 378
L305.914 301.626
L306.509 316.867
L307.104 324.601
L308.294 333.275
L310.08 346.933
L310.675 350.619
L311.27 353.538
L311.866 355.558
L312.461 356.589
L313.056 328.984
L316.627 357.383
L317.222 360.61
L317.818 363.083
L318.413 364.755
L319.008 365.598
L319.603 325.499
L320.794 334.925
L322.579 349.454
L323.174 353.314
L323.77 356.354
L324.365 358.447
L324.96 359.513
L325.555 330.407
L327.341 346.029
L327.936 350.098
L328.531 352.982
L329.126 354.475
L329.722 316.678
L330.317 318.778
L330.912 321.928
L332.698 333.13
L333.293 335.745
L333.888 337.137
L334.483 330.859
L335.674 341.387
L337.459 357.59
L338.054 361.765
L338.65 364.987
L339.245 367.173
L339.84 368.281
L340.435 340.828
L342.221 355.883
L342.816 359.889
L343.411 363.017
L344.006 365.152
L344.602 366.234
L345.197 345.82
L346.387 355.234
L346.982 359.1
L347.578 362.127
L348.173 364.198
L348.768 365.249
L349.363 284.941
L349.958 309.29
L350.554 326.207
L351.149 331.738
L354.125 343.016
L354.72 344.319
L355.315 344.995
L355.91 335.411
L358.886 354.47
L360.077 359.926
L360.672 361.828
L361.267 363.118
L361.862 363.769
L362.458 338.387
L363.053 346.514
L365.434 357.357
L366.624 361.526
L367.219 363.007
L367.814 364.02
L368.41 364.534
L369.005 352.049
L370.195 363.215
L370.79 366.654
L371.981 369.712
L373.171 371.892
L373.766 372.626
L374.362 373.117
L374.957 373.363
L375.552 368.28
L376.742 370.901
L377.338 371.87
L377.933 372.601
L378.528 373.089
L379.123 373.334
L379.718 365.208
L380.909 368.673
L382.099 371.295
L382.694 372.258
L383.29 372.982
L383.885 373.465
L384.48 373.707
L385.075 342.843
L386.266 352.267
L386.861 352.993
L387.456 353.528
L388.051 353.811
L388.646 356.173
L390.432 366.716
L391.027 369.751
L392.218 372.072
L392.813 372.844
L393.408 373.358
L394.003 373.614
L394.598 371.242
L395.789 373.5
L396.384 374.289
L396.979 374.869
L397.574 375.249
L398.17 375.436
L398.765 318.257
L399.955 339.511
L401.146 348.015
L402.931 361.922
L404.122 366.094
L405.312 369.16
L405.907 370.208
L406.502 370.913
L407.098 371.268
L407.693 364.141
L408.883 367.819
L409.478 369.208
L410.074 370.265
L410.669 370.976
L411.264 371.333
L411.859 346.961
L414.24 357.946
L415.43 362.189
L416.026 363.696
L416.621 364.725
L417.216 365.247
L417.811 351.836
L419.002 361.679
L420.192 364.722
L420.787 365.827
L421.382 366.588
L421.978 366.977
L422.573 364.768
L423.763 370.327
L424.954 372.518
L425.549 373.248
L426.144 373.734
L426.739 373.977
L427.334 371.541
L427.93 372.513
L428.525 373.241
L429.12 373.725
L429.715 373.967
L430.31 274.998
L430.906 268.064
L431.501 264.504
L432.096 273.041
L432.691 275.72
L433.286 280.778
L433.882 274.306
L434.477 269.939
L435.072 267.74
L435.667 294.309
L436.858 325.203
L438.643 336.373
L439.238 339.531
L439.834 342.066
L440.429 343.835
L441.024 344.744
L441.619 337.656
L443.405 351.963
L444.595 360.274
L445.786 367.025
L446.381 368.385
L446.976 369.294
L447.571 369.749
L448.166 368.384
L448.762 369.292
L449.357 369.747
L449.952 345.266
L451.142 360.162
L451.738 364.548
L452.928 367.821
L453.523 368.939
L454.118 369.692
L454.714 370.07
L455.309 366.828
L456.499 370.487
L457.69 373.015
L458.285 373.894
L458.88 374.537
L459.475 374.958
L460.07 375.166
L460.666 362.874
L461.856 367.41
L463.046 370.694
L463.642 371.868
L464.237 372.739
L464.832 373.315
L465.427 373.601
L466.022 285.612
L466.618 285.043
L467.213 286.423
L467.808 289.518
L468.403 294.022
L469.594 305.77
L471.379 324.367
L471.974 329.407
L472.57 333.406
L473.165 336.176
L473.76 337.592
L474.355 300.853
L474.95 312.087
L476.141 327.683
L476.736 336.136
L478.522 349.256
L479.712 356.249
L480.307 358.933
L480.902 360.993
L481.498 362.387
L482.093 363.091
L482.688 340.019
L483.878 347.072
L484.474 349.935
L485.069 352.187
L485.664 353.74
L486.259 354.532
L486.854 316.805
L488.045 328.419
L490.426 354.827
L491.616 361.556
L492.806 366.696
L493.402 368.645
L493.997 370.185
L494.592 371.328
L495.187 372.082
L495.782 372.457
L496.378 357.464
L496.973 359.681
L497.568 361.404
L498.163 362.581
L498.758 363.179
L499.354 306.254
L500.544 319.878
L502.33 343.591
L503.52 350.293
L504.115 352.66
L504.71 354.275
L505.306 355.093
L505.901 347.209
L506.496 350.232
L507.091 352.574
L507.686 354.169
L508.282 354.978
L508.877 319.381
L509.472 319.108
L510.067 318.989
L510.662 161.72
L511.258 117.422
L511.853 83.0595
L512.448 59.6499
L513.043 47.8042
L513.043 47.8042" style="fill:none;stroke:#ff0000;stroke-linecap:square;stroke-width:2;"/>
   </g>
   <g id="patch_3">
    <path d="
M72 43.2
L518.4 43.2" style="fill:none;stroke:#000000;stroke-linecap:square;stroke-linejoin:miter;"/>
   </g>
   <g id="patch_4">
    <path d="
M518.4 378
L518.4 43.2" style="fill:none;stroke:#000000;stroke-linecap:square;stroke-linejoin:miter;"/>
   </g>
   <g id="patch_5">
    <path d="
M72 378
L518.4 378" style="fill:none;stroke:#000000;stroke-linecap:square;stroke-linejoin:miter;"/>
   </g>
   <g id="patch_6">
    <path d="
M72 378
L72 43.2" style="fill:none;stroke:#000000;stroke-linecap:square;stroke-linejoin:miter;"/>
   </g>
   <g id="matplotlib.axis_1">
    <g id="xtick_1">
     <g id="line2d_4">
      <defs>
       <path d="
M0 0
L0 -4" id="m93b0483c22" style="stroke:#000000;stroke-width:0.5;"/>
      </defs>
      <g>
       <use style="stroke:#000000;stroke-width:0.5;" x="72.0" xlink:href="#m93b0483c22" y="378.0"/>
      </g>
     </g>
     <g id="line2d_5">
      <defs>
       <path d="
M0 0
L0 4" id="m741efc42ff" style="stroke:#000000;stroke-width:0.5;"/>
      </defs>
      <g>
       <use style="stroke:#000000;stroke-width:0.5;" x="72.0" xlink:href="#m741efc42ff" y="43.2"/>
      </g>
     </g>
     <g id="text_1">
      <!-- 0 -->
      <defs>
       <path d="
M31.7812 66.4062
Q24.1719 66.4062 20.3281 58.9062
Q16.5 51.4219 16.5 36.375
Q16.5 21.3906 20.3281 13.8906
Q24.1719 6.39062 31.7812 6.39062
Q39.4531 6.39062 43.2812 13.8906
Q47.125 21.3906 47.125 36.375
Q47.125 51.4219 43.2812 58.9062
Q39.4531 66.4062 31.7812 66.4062
M31.7812 74.2188
Q44.0469 74.2188 50.5156 64.5156
Q56.9844 54.8281 56.9844 36.375
Q56.9844 17.9688 50.5156 8.26562
Q44.0469 -1.42188 31.7812 -1.42188
Q19.5312 -1.42188 13.0625 8.26562
Q6.59375 17.9688 6.59375 36.375
Q6.59375 54.8281 13.0625 64.5156
Q19.5312 74.2188 31.7812 74.2188" id="BitstreamVeraSans-Roman-30"/>
      </defs>
      <g transform="translate(68.47265625 392.6378125)scale(0.14 -0.14)">
       <use xlink:href="#BitstreamVeraSans-Roman-30"/>
      </g>
     </g>
    </g>
    <g id="xtick_2">
     <g id="line2d_6">
      <g>
       <use style="stroke:#000000;stroke-width:0.5;" x="220.8" xlink:href="#m93b0483c22" y="378.0"/>
      </g>
     </g>
     <g id="line2d_7">
      <g>
       <use style="stroke:#000000;stroke-width:0.5;" x="220.8" xlink:href="#m741efc42ff" y="43.2"/>
      </g>
     </g>
     <g id="text_2">
      <!-- 250 -->
      <defs>
       <path d="
M19.1875 8.29688
L53.6094 8.29688
L53.6094 0
L7.32812 0
L7.32812 8.29688
Q12.9375 14.1094 22.625 23.8906
Q32.3281 33.6875 34.8125 36.5312
Q39.5469 41.8438 41.4219 45.5312
Q43.3125 49.2188 43.3125 52.7812
Q43.3125 58.5938 39.2344 62.25
Q35.1562 65.9219 28.6094 65.9219
Q23.9688 65.9219 18.8125 64.3125
Q13.6719 62.7031 7.8125 59.4219
L7.8125 69.3906
Q13.7656 71.7812 18.9375 73
Q24.125 74.2188 28.4219 74.2188
Q39.75 74.2188 46.4844 68.5469
Q53.2188 62.8906 53.2188 53.4219
Q53.2188 48.9219 51.5312 44.8906
Q49.8594 40.875 45.4062 35.4062
Q44.1875 33.9844 37.6406 27.2188
Q31.1094 20.4531 19.1875 8.29688" id="BitstreamVeraSans-Roman-32"/>
       <path d="
M10.7969 72.9062
L49.5156 72.9062
L49.5156 64.5938
L19.8281 64.5938
L19.8281 46.7344
Q21.9688 47.4688 24.1094 47.8281
Q26.2656 48.1875 28.4219 48.1875
Q40.625 48.1875 47.75 41.5
Q54.8906 34.8125 54.8906 23.3906
Q54.8906 11.625 47.5625 5.09375
Q40.2344 -1.42188 26.9062 -1.42188
Q22.3125 -1.42188 17.5469 -0.640625
Q12.7969 0.140625 7.71875 1.70312
L7.71875 11.625
Q12.1094 9.23438 16.7969 8.0625
Q21.4844 6.89062 26.7031 6.89062
Q35.1562 6.89062 40.0781 11.3281
Q45.0156 15.7656 45.0156 23.3906
Q45.0156 31 40.0781 35.4375
Q35.1562 39.8906 26.7031 39.8906
Q22.75 39.8906 18.8125 39.0156
Q14.8906 38.1406 10.7969 36.2812
z
" id="BitstreamVeraSans-Roman-35"/>
      </defs>
      <g transform="translate(208.4165625 392.6378125)scale(0.14 -0.14)">
       <use xlink:href="#BitstreamVeraSans-Roman-32"/>
       <use x="63.623046875" xlink:href="#BitstreamVeraSans-Roman-35"/>
       <use x="127.24609375" xlink:href="#BitstreamVeraSans-Roman-30"/>
      </g>
     </g>
    </g>
    <g id="xtick_3">
     <g id="line2d_8">
      <g>
       <use style="stroke:#000000;stroke-width:0.5;" x="369.6" xlink:href="#m93b0483c22" y="378.0"/>
      </g>
     </g>
     <g id="line2d_9">
      <g>
       <use style="stroke:#000000;stroke-width:0.5;" x="369.6" xlink:href="#m741efc42ff" y="43.2"/>
      </g>
     </g>
     <g id="text_3">
      <!-- 500 -->
      <g transform="translate(357.24390625 392.6378125)scale(0.14 -0.14)">
       <use xlink:href="#BitstreamVeraSans-Roman-35"/>
       <use x="63.623046875" xlink:href="#BitstreamVeraSans-Roman-30"/>
       <use x="127.24609375" xlink:href="#BitstreamVeraSans-Roman-30"/>
      </g>
     </g>
    </g>
    <g id="xtick_4">
     <g id="line2d_10">
      <g>
       <use style="stroke:#000000;stroke-width:0.5;" x="518.4" xlink:href="#m93b0483c22" y="378.0"/>
      </g>
     </g>
     <g id="line2d_11">
      <g>
       <use style="stroke:#000000;stroke-width:0.5;" x="518.4" xlink:href="#m741efc42ff" y="43.2"/>
      </g>
     </g>
     <g id="text_4">
      <!-- 750 -->
      <defs>
       <path d="
M8.20312 72.9062
L55.0781 72.9062
L55.0781 68.7031
L28.6094 0
L18.3125 0
L43.2188 64.5938
L8.20312 64.5938
z
" id="BitstreamVeraSans-Roman-37"/>
      </defs>
      <g transform="translate(506.0778125 392.6378125)scale(0.14 -0.14)">
       <use xlink:href="#BitstreamVeraSans-Roman-37"/>
       <use x="63.623046875" xlink:href="#BitstreamVeraSans-Roman-35"/>
       <use x="127.24609375" xlink:href="#BitstreamVeraSans-Roman-30"/>
      </g>
     </g>
    </g>
    <g id="text_5">
     <!-- compartment number -->
     <defs>
      <path d="
M32.9062 24.6094
Q27.4375 24.6094 24.6719 22.75
Q21.9219 20.9062 21.9219 17.2812
Q21.9219 13.9688 24.1406 12.0781
Q26.375 10.2031 30.3281 10.2031
Q35.25 10.2031 38.625 13.7344
Q42 17.2812 42 22.6094
L42 24.6094
z

M59.625 31.2031
L59.625 0
L42 0
L42 8.10938
Q38.4844 3.125 34.0781 0.84375
Q29.6875 -1.42188 23.3906 -1.42188
Q14.8906 -1.42188 9.59375 3.53125
Q4.29688 8.5 4.29688 16.4062
Q4.29688 26.0312 10.9062 30.5156
Q17.5312 35.0156 31.6875 35.0156
L42 35.0156
L42 36.375
Q42 40.5312 38.7188 42.4531
Q35.4531 44.3906 28.5156 44.3906
Q22.9062 44.3906 18.0625 43.2656
Q13.2344 42.1406 9.07812 39.8906
L9.07812 53.2188
Q14.7031 54.5938 20.3594 55.2969
Q26.0312 56 31.6875 56
Q46.4844 56 53.0469 50.1719
Q59.625 44.3438 59.625 31.2031" id="BitstreamVeraSans-Bold-61"/>
      <path id="BitstreamVeraSans-Bold-20"/>
      <path d="
M37.5 11.2812
Q43.1094 11.2812 46.0625 15.375
Q49.0312 19.4844 49.0312 27.2969
Q49.0312 35.1094 46.0625 39.2031
Q43.1094 43.3125 37.5 43.3125
Q31.8906 43.3125 28.875 39.1875
Q25.875 35.0625 25.875 27.2969
Q25.875 19.5312 28.875 15.4062
Q31.8906 11.2812 37.5 11.2812
M25.875 46.6875
Q29.5 51.4688 33.8906 53.7344
Q38.2812 56 44 56
Q54.1094 56 60.5938 47.9688
Q67.0938 39.9375 67.0938 27.2969
Q67.0938 14.6562 60.5938 6.60938
Q54.1094 -1.42188 44 -1.42188
Q38.2812 -1.42188 33.8906 0.84375
Q29.5 3.125 25.875 7.90625
L25.875 0
L8.40625 0
L8.40625 75.9844
L25.875 75.9844
z
" id="BitstreamVeraSans-Bold-62"/>
      <path d="
M52.5938 52.9844
L52.5938 38.7188
Q49.0312 41.1562 45.4375 42.3281
Q41.8438 43.5 37.9844 43.5
Q30.6719 43.5 26.5938 39.2344
Q22.5156 34.9688 22.5156 27.2969
Q22.5156 19.625 26.5938 15.3438
Q30.6719 11.0781 37.9844 11.0781
Q42.0938 11.0781 45.7812 12.2969
Q49.4688 13.5312 52.5938 15.9219
L52.5938 1.60938
Q48.4844 0.09375 44.2656 -0.65625
Q40.0469 -1.42188 35.7969 -1.42188
Q21 -1.42188 12.6406 6.17188
Q4.29688 13.7656 4.29688 27.2969
Q4.29688 40.8281 12.6406 48.4062
Q21 56 35.7969 56
Q40.0938 56 44.2656 55.25
Q48.4375 54.5 52.5938 52.9844" id="BitstreamVeraSans-Bold-63"/>
      <path d="
M49.0312 39.7969
Q46.7344 40.875 44.4531 41.375
Q42.1875 41.8906 39.8906 41.8906
Q33.1562 41.8906 29.5156 37.5625
Q25.875 33.25 25.875 25.2031
L25.875 0
L8.40625 0
L8.40625 54.6875
L25.875 54.6875
L25.875 45.7031
Q29.25 51.0781 33.6094 53.5312
Q37.9844 56 44.0938 56
Q44.9688 56 45.9844 55.9219
Q47.0156 55.8594 48.9688 55.6094
z
" id="BitstreamVeraSans-Bold-72"/>
      <path d="
M7.8125 21.2969
L7.8125 54.6875
L25.3906 54.6875
L25.3906 49.2188
Q25.3906 44.7812 25.3438 38.0625
Q25.2969 31.3438 25.2969 29.1094
Q25.2969 22.5156 25.6406 19.6094
Q25.9844 16.7031 26.8125 15.375
Q27.875 13.6719 29.6094 12.7344
Q31.3438 11.8125 33.5938 11.8125
Q39.0625 11.8125 42.1875 16.0156
Q45.3125 20.2188 45.3125 27.6875
L45.3125 54.6875
L62.7969 54.6875
L62.7969 0
L45.3125 0
L45.3125 7.90625
Q41.3594 3.125 36.9375 0.84375
Q32.5156 -1.42188 27.2031 -1.42188
Q17.7188 -1.42188 12.7656 4.39062
Q7.8125 10.2031 7.8125 21.2969" id="BitstreamVeraSans-Bold-75"/>
      <path d="
M27.4844 70.2188
L27.4844 54.6875
L45.5156 54.6875
L45.5156 42.1875
L27.4844 42.1875
L27.4844 19
Q27.4844 15.1875 29 13.8438
Q30.5156 12.5 35.0156 12.5
L44 12.5
L44 0
L29 0
Q18.6562 0 14.3281 4.3125
Q10.0156 8.64062 10.0156 19
L10.0156 42.1875
L1.3125 42.1875
L1.3125 54.6875
L10.0156 54.6875
L10.0156 70.2188
z
" id="BitstreamVeraSans-Bold-74"/>
      <path d="
M62.9844 27.4844
L62.9844 22.5156
L22.125 22.5156
Q22.75 16.3594 26.5625 13.2812
Q30.375 10.2031 37.2031 10.2031
Q42.7188 10.2031 48.5 11.8438
Q54.2969 13.4844 60.4062 16.7969
L60.4062 3.32812
Q54.2031 0.984375 48 -0.21875
Q41.7969 -1.42188 35.5938 -1.42188
Q20.75 -1.42188 12.5156 6.125
Q4.29688 13.6719 4.29688 27.2969
Q4.29688 40.6719 12.375 48.3281
Q20.4531 56 34.625 56
Q47.5156 56 55.25 48.2344
Q62.9844 40.4844 62.9844 27.4844
M45.0156 33.2969
Q45.0156 38.2812 42.1094 41.3281
Q39.2031 44.3906 34.5156 44.3906
Q29.4375 44.3906 26.2656 41.5312
Q23.0938 38.6719 22.3125 33.2969
z
" id="BitstreamVeraSans-Bold-65"/>
      <path d="
M25.875 7.90625
L25.875 -20.7969
L8.40625 -20.7969
L8.40625 54.6875
L25.875 54.6875
L25.875 46.6875
Q29.5 51.4688 33.8906 53.7344
Q38.2812 56 44 56
Q54.1094 56 60.5938 47.9688
Q67.0938 39.9375 67.0938 27.2969
Q67.0938 14.6562 60.5938 6.60938
Q54.1094 -1.42188 44 -1.42188
Q38.2812 -1.42188 33.8906 0.84375
Q29.5 3.125 25.875 7.90625
M37.5 43.3125
Q31.8906 43.3125 28.875 39.1875
Q25.875 35.0625 25.875 27.2969
Q25.875 19.5312 28.875 15.4062
Q31.8906 11.2812 37.5 11.2812
Q43.1094 11.2812 46.0625 15.375
Q49.0312 19.4844 49.0312 27.2969
Q49.0312 35.1094 46.0625 39.2031
Q43.1094 43.3125 37.5 43.3125" id="BitstreamVeraSans-Bold-70"/>
      <path d="
M34.4219 43.5
Q28.6094 43.5 25.5625 39.3281
Q22.5156 35.1562 22.5156 27.2969
Q22.5156 19.4375 25.5625 15.25
Q28.6094 11.0781 34.4219 11.0781
Q40.1406 11.0781 43.1562 15.25
Q46.1875 19.4375 46.1875 27.2969
Q46.1875 35.1562 43.1562 39.3281
Q40.1406 43.5 34.4219 43.5
M34.4219 56
Q48.5312 56 56.4688 48.375
Q64.4062 40.7656 64.4062 27.2969
Q64.4062 13.8125 56.4688 6.1875
Q48.5312 -1.42188 34.4219 -1.42188
Q20.2656 -1.42188 12.2812 6.1875
Q4.29688 13.8125 4.29688 27.2969
Q4.29688 40.7656 12.2812 48.375
Q20.2656 56 34.4219 56" id="BitstreamVeraSans-Bold-6f"/>
      <path d="
M59.0781 45.6094
Q62.4062 50.6875 66.9688 53.3438
Q71.5312 56 77 56
Q86.4219 56 91.3594 50.1875
Q96.2969 44.3906 96.2969 33.2969
L96.2969 0
L78.7188 0
L78.7188 28.5156
Q78.7656 29.1562 78.7812 29.8281
Q78.8125 30.5156 78.8125 31.7812
Q78.8125 37.5938 77.0938 40.2031
Q75.3906 42.8281 71.5781 42.8281
Q66.6094 42.8281 63.8906 38.7188
Q61.1875 34.625 61.0781 26.8594
L61.0781 0
L43.5 0
L43.5 28.5156
Q43.5 37.5938 41.9375 40.2031
Q40.375 42.8281 36.375 42.8281
Q31.3438 42.8281 28.6094 38.7031
Q25.875 34.5781 25.875 26.9062
L25.875 0
L8.29688 0
L8.29688 54.6875
L25.875 54.6875
L25.875 46.6875
Q29.1094 51.3125 33.2812 53.6562
Q37.4531 56 42.4844 56
Q48.1406 56 52.4844 53.2656
Q56.8438 50.5312 59.0781 45.6094" id="BitstreamVeraSans-Bold-6d"/>
      <path d="
M63.375 33.2969
L63.375 0
L45.7969 0
L45.7969 5.42188
L45.7969 25.4844
Q45.7969 32.5625 45.4844 35.25
Q45.1719 37.9375 44.3906 39.2031
Q43.3594 40.9219 41.5938 41.875
Q39.8438 42.8281 37.5938 42.8281
Q32.125 42.8281 29 38.5938
Q25.875 34.375 25.875 26.9062
L25.875 0
L8.40625 0
L8.40625 54.6875
L25.875 54.6875
L25.875 46.6875
Q29.8281 51.4688 34.2656 53.7344
Q38.7188 56 44.0938 56
Q53.5625 56 58.4688 50.1875
Q63.375 44.3906 63.375 33.2969" id="BitstreamVeraSans-Bold-6e"/>
     </defs>
     <g transform="translate(196.86375 412.706875)scale(0.16 -0.16)">
      <use xlink:href="#BitstreamVeraSans-Bold-63"/>
      <use x="59.27734375" xlink:href="#BitstreamVeraSans-Bold-6f"/>
      <use x="127.978515625" xlink:href="#BitstreamVeraSans-Bold-6d"/>
      <use x="232.177734375" xlink:href="#BitstreamVeraSans-Bold-70"/>
      <use x="303.759765625" xlink:href="#BitstreamVeraSans-Bold-61"/>
      <use x="371.240234375" xlink:href="#BitstreamVeraSans-Bold-72"/>
      <use x="420.556640625" xlink:href="#BitstreamVeraSans-Bold-74"/>
      <use x="468.359375" xlink:href="#BitstreamVeraSans-Bold-6d"/>
      <use x="572.55859375" xlink:href="#BitstreamVeraSans-Bold-65"/>
      <use x="640.380859375" xlink:href="#BitstreamVeraSans-Bold-6e"/>
      <use x="711.572265625" xlink:href="#BitstreamVeraSans-Bold-74"/>
      <use x="759.375" xlink:href="#BitstreamVeraSans-Bold-20"/>
      <use x="794.189453125" xlink:href="#BitstreamVeraSans-Bold-6e"/>
      <use x="865.380859375" xlink:href="#BitstreamVeraSans-Bold-75"/>
      <use x="936.572265625" xlink:href="#BitstreamVeraSans-Bold-6d"/>
      <use x="1040.77148438" xlink:href="#BitstreamVeraSans-Bold-62"/>
      <use x="1112.35351562" xlink:href="#BitstreamVeraSans-Bold-65"/>
      <use x="1180.17578125" xlink:href="#BitstreamVeraSans-Bold-72"/>
     </g>
    </g>
   </g>
   <g id="matplotlib.axis_2">
    <g id="ytick_1">
     <g id="line2d_12">
      <defs>
       <path d="
M0 0
L4 0" id="m728421d6d4" style="stroke:#000000;stroke-width:0.5;"/>
      </defs>
      <g>
       <use style="stroke:#000000;stroke-width:0.5;" x="72.0" xlink:href="#m728421d6d4" y="373.217142857"/>
      </g>
     </g>
     <g id="line2d_13">
      <defs>
       <path d="
M0 0
L-4 0" id="mcb0005524f" style="stroke:#000000;stroke-width:0.5;"/>
      </defs>
      <g>
       <use style="stroke:#000000;stroke-width:0.5;" x="518.4" xlink:href="#mcb0005524f" y="373.217142857"/>
      </g>
     </g>
     <g id="text_6">
      <!-- 0.05 -->
      <defs>
       <path d="
M10.6875 12.4062
L21 12.4062
L21 0
L10.6875 0
z
" id="BitstreamVeraSans-Roman-2e"/>
      </defs>
      <g transform="translate(38.9740625 377.080267857)scale(0.14 -0.14)">
       <use xlink:href="#BitstreamVeraSans-Roman-30"/>
       <use x="63.623046875" xlink:href="#BitstreamVeraSans-Roman-2e"/>
       <use x="95.41015625" xlink:href="#BitstreamVeraSans-Roman-30"/>
       <use x="159.033203125" xlink:href="#BitstreamVeraSans-Roman-35"/>
      </g>
     </g>
    </g>
    <g id="ytick_2">
     <g id="line2d_14">
      <g>
       <use style="stroke:#000000;stroke-width:0.5;" x="72.0" xlink:href="#m728421d6d4" y="368.434285714"/>
      </g>
     </g>
     <g id="line2d_15">
      <g>
       <use style="stroke:#000000;stroke-width:0.5;" x="518.4" xlink:href="#mcb0005524f" y="368.434285714"/>
      </g>
     </g>
     <g id="text_7">
      <!-- 0.10 -->
      <defs>
       <path d="
M12.4062 8.29688
L28.5156 8.29688
L28.5156 63.9219
L10.9844 60.4062
L10.9844 69.3906
L28.4219 72.9062
L38.2812 72.9062
L38.2812 8.29688
L54.3906 8.29688
L54.3906 0
L12.4062 0
z
" id="BitstreamVeraSans-Roman-31"/>
      </defs>
      <g transform="translate(38.6809375 372.297410714)scale(0.14 -0.14)">
       <use xlink:href="#BitstreamVeraSans-Roman-30"/>
       <use x="63.623046875" xlink:href="#BitstreamVeraSans-Roman-2e"/>
       <use x="95.41015625" xlink:href="#BitstreamVeraSans-Roman-31"/>
       <use x="159.033203125" xlink:href="#BitstreamVeraSans-Roman-30"/>
      </g>
     </g>
    </g>
    <g id="ytick_3">
     <g id="line2d_16">
      <g>
       <use style="stroke:#000000;stroke-width:0.5;" x="72.0" xlink:href="#m728421d6d4" y="363.651428571"/>
      </g>
     </g>
     <g id="line2d_17">
      <g>
       <use style="stroke:#000000;stroke-width:0.5;" x="518.4" xlink:href="#mcb0005524f" y="363.651428571"/>
      </g>
     </g>
     <g id="text_8">
      <!-- 0.15 -->
      <g transform="translate(38.9740625 367.514553571)scale(0.14 -0.14)">
       <use xlink:href="#BitstreamVeraSans-Roman-30"/>
       <use x="63.623046875" xlink:href="#BitstreamVeraSans-Roman-2e"/>
       <use x="95.41015625" xlink:href="#BitstreamVeraSans-Roman-31"/>
       <use x="159.033203125" xlink:href="#BitstreamVeraSans-Roman-35"/>
      </g>
     </g>
    </g>
    <g id="text_9">
     <!-- normalized concentration -->
     <defs>
      <path d="
M5.71875 54.6875
L53.4219 54.6875
L53.4219 42.4844
L24.6094 12.5
L53.4219 12.5
L53.4219 0
L4.5 0
L4.5 12.2031
L33.2969 42.1875
L5.71875 42.1875
z
" id="BitstreamVeraSans-Bold-7a"/>
      <path d="
M8.40625 75.9844
L25.875 75.9844
L25.875 0
L8.40625 0
z
" id="BitstreamVeraSans-Bold-6c"/>
      <path d="
M8.40625 54.6875
L25.875 54.6875
L25.875 0
L8.40625 0
z

M8.40625 75.9844
L25.875 75.9844
L25.875 61.7188
L8.40625 61.7188
z
" id="BitstreamVeraSans-Bold-69"/>
      <path d="
M45.6094 46.6875
L45.6094 75.9844
L63.1875 75.9844
L63.1875 0
L45.6094 0
L45.6094 7.90625
Q42 3.07812 37.6406 0.828125
Q33.2969 -1.42188 27.5938 -1.42188
Q17.4844 -1.42188 10.9844 6.60938
Q4.5 14.6562 4.5 27.2969
Q4.5 39.9375 10.9844 47.9688
Q17.4844 56 27.5938 56
Q33.25 56 37.625 53.7344
Q42 51.4688 45.6094 46.6875
M34.0781 11.2812
Q39.7031 11.2812 42.6562 15.375
Q45.6094 19.4844 45.6094 27.2969
Q45.6094 35.1094 42.6562 39.2031
Q39.7031 43.3125 34.0781 43.3125
Q28.5156 43.3125 25.5625 39.2031
Q22.6094 35.1094 22.6094 27.2969
Q22.6094 19.4844 25.5625 15.375
Q28.5156 11.2812 34.0781 11.2812" id="BitstreamVeraSans-Bold-64"/>
     </defs>
     <g transform="translate(30.3534375 325.6475)rotate(-90.0)scale(0.16 -0.16)">
      <use xlink:href="#BitstreamVeraSans-Bold-6e"/>
      <use x="71.19140625" xlink:href="#BitstreamVeraSans-Bold-6f"/>
      <use x="139.892578125" xlink:href="#BitstreamVeraSans-Bold-72"/>
      <use x="189.208984375" xlink:href="#BitstreamVeraSans-Bold-6d"/>
      <use x="293.408203125" xlink:href="#BitstreamVeraSans-Bold-61"/>
      <use x="360.888671875" xlink:href="#BitstreamVeraSans-Bold-6c"/>
      <use x="395.166015625" xlink:href="#BitstreamVeraSans-Bold-69"/>
      <use x="429.443359375" xlink:href="#BitstreamVeraSans-Bold-7a"/>
      <use x="487.646484375" xlink:href="#BitstreamVeraSans-Bold-65"/>
      <use x="555.46875" xlink:href="#BitstreamVeraSans-Bold-64"/>
      <use x="627.05078125" xlink:href="#BitstreamVeraSans-Bold-20"/>
      <use x="661.865234375" xlink:href="#BitstreamVeraSans-Bold-63"/>
      <use x="721.142578125" xlink:href="#BitstreamVeraSans-Bold-6f"/>
      <use x="789.84375" xlink:href="#BitstreamVeraSans-Bold-6e"/>
      <use x="861.03515625" xlink:href="#BitstreamVeraSans-Bold-63"/>
      <use x="920.3125" xlink:href="#BitstreamVeraSans-Bold-65"/>
      <use x="988.134765625" xlink:href="#BitstreamVeraSans-Bold-6e"/>
      <use x="1059.32617188" xlink:href="#BitstreamVeraSans-Bold-74"/>
      <use x="1107.12890625" xlink:href="#BitstreamVeraSans-Bold-72"/>
      <use x="1156.4453125" xlink:href="#BitstreamVeraSans-Bold-61"/>
      <use x="1223.92578125" xlink:href="#BitstreamVeraSans-Bold-74"/>
      <use x="1271.72851562" xlink:href="#BitstreamVeraSans-Bold-69"/>
      <use x="1306.00585938" xlink:href="#BitstreamVeraSans-Bold-6f"/>
      <use x="1374.70703125" xlink:href="#BitstreamVeraSans-Bold-6e"/>
     </g>
    </g>
   </g>
  </g>
 </g>
 <defs>
  <clipPath id="p332b41defa">
   <rect height="334.8" width="446.4" x="72.0" y="43.2"/>
  </clipPath>
 </defs>
</svg>
