<?xml version="1.0" encoding="utf-8" standalone="no"?>
<!DOCTYPE svg PUBLIC "-//W3C//DTD SVG 1.1//EN"
  "http://www.w3.org/Graphics/SVG/1.1/DTD/svg11.dtd">
<!-- Created with matplotlib (http://matplotlib.org/) -->
<svg height="432pt" version="1.1" viewBox="0 0 576 432" width="576pt" xmlns="http://www.w3.org/2000/svg" xmlns:xlink="http://www.w3.org/1999/xlink">
 <defs>
  <style type="text/css">
*{stroke-linecap:butt;stroke-linejoin:round;}
  </style>
 </defs>
 <g id="figure_1">
  <g id="patch_1">
   <path d="
M0 432
L576 432
L576 0
L0 0
z
" style="fill:#ffffff;"/>
  </g>
  <g id="axes_1">
   <g id="patch_2">
    <path d="
M72 378
L518.4 378
L518.4 43.2
L72 43.2
z
" style="fill:#ffffff;"/>
   </g>
   <g id="line2d_1">
    <path clip-path="url(#p332b41defa)" d="
M72 329.655
L72.5952 329.334
L73.7856 322.768
L74.3808 321.909
L74.976 320.788
L75.5712 320.177
L76.7616 319.983
L78.5472 320.223
L79.1424 321.29
L80.3328 314.314
L80.928 312.557
L82.1184 312.358
L85.6896 312.355
L86.2848 310.762
L86.88 308.782
L87.4752 309.103
L89.2608 310.9
L90.4512 312.721
L91.6416 314.464
L93.4272 316.604
L94.0224 317.049
L94.6176 317.292
L95.2128 308.897
L98.784 309.187
L100.57 309.467
L101.165 309.119
L103.546 310.302
L104.736 310.615
L105.331 308.03
L105.926 307.266
L107.117 307.254
L107.712 303.037
L108.307 287.615
L108.902 254.061
L109.498 235.934
L110.093 232.477
L111.283 247.853
L112.474 258.658
L113.069 262.504
L113.664 265.373
L114.259 267.289
L114.854 268.255
L115.45 213.116
L116.045 186.235
L116.64 165.12
L117.235 160.68
L117.83 153.125
L118.426 297.627
L119.021 291.126
L120.211 242.459
L120.806 227.707
L121.402 220.281
L121.997 223.606
L122.592 225.604
L123.187 226.272
L123.782 225.591
L124.378 223.521
L124.973 220
L125.568 214.939
L126.163 218.227
L126.758 219.873
L127.354 197.553
L127.949 179.855
L128.544 176.867
L129.139 176.896
L129.734 179.589
L130.33 179.12
L130.925 175.411
L131.52 173.79
L132.115 174.084
L132.71 162.111
L133.306 156.144
L133.901 158.602
L134.496 158.565
L135.091 155.957
L135.686 160.65
L136.282 162.791
L136.877 162.428
L137.472 164.912
L138.067 158.146
L138.662 162.553
L139.258 164.418
L139.853 163.778
L140.448 166.276
L141.043 298.276
L141.638 299.659
L143.424 300.436
L144.019 300.569
L144.614 299.768
L145.805 300.082
L146.4 300.174
L146.995 300.061
L147.59 300.609
L150.566 307.275
L151.757 309.098
L152.947 310.3
L153.542 310.835
L154.138 311.121
L154.733 302.019
L155.923 305.992
L157.709 311.259
L158.899 315.254
L160.09 318.468
L161.28 320.856
L161.875 321.852
L162.47 322.547
L163.066 322.912
L163.661 300.513
L164.256 301.176
L166.637 304.805
L169.018 309.365
L169.613 310.212
L170.208 310.838
L170.803 300.953
L171.398 301.274
L172.589 303.223
L173.779 305.084
L175.565 308.302
L176.755 310.75
L177.35 311.999
L177.946 312.856
L178.541 313.301
L179.136 301.239
L179.731 301.731
L181.517 307.673
L182.707 311.645
L183.898 313.769
L185.088 315.209
L185.683 315.83
L186.278 316.154
L186.874 311.655
L188.064 313.814
L189.85 316.076
L190.445 316.411
L191.04 301.568
L191.635 301.985
L192.826 306.233
L194.016 309.887
L195.206 312.843
L196.397 315.187
L197.587 316.876
L198.182 317.532
L198.778 318.018
L199.373 318.271
L199.968 308.317
L201.754 314.056
L202.349 314.913
L203.539 315.091
L204.134 315.571
L205.325 318.28
L205.92 319.314
L206.515 320.119
L207.11 320.677
L207.706 320.969
L208.301 309.51
L209.491 310.636
L210.086 310.979
L210.682 311.158
L211.277 301.651
L212.467 301.37
L213.062 301.469
L214.253 305.008
L215.443 308.376
L216.038 309.751
L216.634 311.533
L217.229 312.96
L217.824 314.029
L218.419 314.799
L219.014 315.268
L219.61 301.145
L220.205 301.366
L221.99 306.63
L223.181 311.518
L223.776 313.378
L224.371 314.862
L224.966 315.968
L225.562 316.72
L226.157 317.254
L226.752 300.169
L227.942 297.012
L228.538 296.315
L229.133 297.702
L229.728 298.404
L230.323 295.695
L230.918 297.373
L232.704 311.978
L233.299 316.483
L233.894 319.272
L235.68 323.542
L236.87 327.491
L238.061 330.537
L239.251 333.053
L239.846 334.263
L240.442 335.21
L241.037 335.904
L241.632 336.352
L242.227 336.615
L242.822 319.991
L244.013 325.564
L245.203 330.037
L246.394 332.969
L247.584 336.626
L248.774 341.082
L249.965 344.712
L251.155 347.539
L252.346 349.526
L252.941 350.187
L253.536 350.656
L254.131 350.917
L254.726 331.494
L255.917 334.111
L257.107 336.819
L257.702 337.772
L258.893 339.064
L260.083 340.375
L260.678 340.783
L261.274 340.995
L261.869 337.703
L263.059 339.592
L264.25 340.956
L265.44 341.954
L266.035 342.248
L266.63 342.395
L267.226 293.415
L267.821 291.036
L268.416 292.451
L269.011 293.164
L269.606 288.225
L270.202 281.374
L271.392 260.56
L272.582 238.08
L273.773 206.042
L274.368 200.095
L276.749 249.494
L277.344 259.012
L277.939 266.493
L279.13 276.784
L279.725 279.924
L280.32 281.467
L280.915 187.658
L281.51 175.053
L282.106 170.98
L282.701 172.993
L283.296 179.833
L283.891 183.599
L284.486 190.381
L285.082 200.745
L286.272 216.405
L286.867 221.889
L287.462 225.07
L288.058 167.983
L289.248 144.192
L289.843 138.857
L290.438 143.612
L291.034 143.151
L291.629 143.155
L292.224 235.02
L292.819 191.958
L293.414 171.325
L294.01 161.88
L294.605 219.091
L295.2 219.01
L295.795 216.337
L296.39 210.681
L296.986 199.943
L297.581 181.457
L298.176 167.139
L298.771 155.717
L299.366 152.094
L299.962 144.777
L300.557 142.976
L301.152 147.317
L301.747 199.282
L302.342 211.589
L302.938 221.593
L303.533 229.414
L304.128 235.143
L304.723 238.848
L305.318 240.881
L305.914 318.11
L306.509 292.289
L307.104 274.77
L307.699 275.836
L310.08 281.937
L310.675 283.067
L311.27 283.951
L311.866 284.568
L312.461 284.894
L313.056 275.89
L315.437 281.557
L316.627 284.226
L317.222 285.241
L317.818 286.031
L318.413 286.581
L319.008 286.869
L319.603 256.646
L320.198 253.418
L321.389 259.572
L322.579 264.433
L323.174 266.189
L324.365 268.54
L324.96 269.081
L325.555 245.992
L327.341 189.521
L327.936 193.344
L328.531 195.876
L329.126 197.142
L329.722 284.322
L330.317 256.123
L331.507 235.47
L332.102 223.742
L332.698 217.293
L333.293 220.686
L333.888 222.393
L334.483 231.843
L335.078 201.888
L335.674 195.62
L336.269 187.481
L336.864 177.201
L337.459 164.115
L338.054 170.141
L338.65 172.967
L339.245 172.68
L339.84 169.209
L340.435 194.173
L341.626 176.199
L342.221 171.946
L342.816 178.039
L343.411 182.449
L344.006 185.533
L344.602 187.23
L345.197 192.23
L345.792 194.67
L346.387 195.527
L346.982 194.591
L347.578 199.833
L348.173 203.302
L348.768 205.038
L349.363 327.443
L349.958 326.503
L350.554 326.222
L351.149 325.43
L351.744 324.852
L352.339 324.705
L355.315 325.989
L355.91 325.045
L356.506 325.33
L358.886 328.173
L360.077 329.648
L361.267 330.646
L361.862 330.881
L362.458 325.938
L364.243 327.282
L366.029 329.599
L367.219 330.769
L367.814 331.225
L368.41 331.477
L369.005 327.28
L370.195 329.315
L370.79 330.372
L372.576 332.453
L373.766 333.528
L374.362 333.886
L374.957 334.084
L375.552 331.209
L376.742 333.031
L377.933 334.473
L378.528 334.956
L379.123 335.224
L379.718 330.394
L381.504 333.155
L382.694 334.635
L383.885 335.768
L384.48 336.032
L385.075 325.958
L388.051 325.919
L388.646 326.566
L391.027 333.505
L391.622 334.663
L392.813 335.861
L393.408 336.259
L394.003 336.478
L394.598 334.652
L396.384 336.579
L397.574 337.369
L398.17 337.546
L398.765 326.337
L399.36 326.302
L399.955 326.526
L400.55 326.907
L401.146 327.498
L405.312 333.329
L406.502 334.357
L407.098 334.628
L407.693 330.687
L409.478 332.124
L410.669 332.729
L411.264 332.867
L411.859 326.864
L412.454 327.223
L415.43 331.357
L416.621 332.42
L417.216 332.706
L417.811 327.172
L420.192 328.256
L421.382 328.567
L421.978 328.646
L422.573 328.211
L424.358 329.489
L425.549 330.169
L426.739 330.549
L427.334 329.577
L428.525 330.586
L429.12 330.934
L429.715 331.13
L430.31 326.14
L430.906 325.294
L431.501 324.895
L432.096 328.244
L433.286 327.701
L434.477 327.316
L435.072 327.167
L435.667 327.654
L436.262 328.351
L436.858 329.506
L437.453 330.31
L438.048 330.458
L441.024 331.893
L441.619 331.211
L442.214 332.551
L446.381 337.054
L446.976 337.344
L447.571 337.503
L448.166 337.071
L448.762 337.416
L449.357 337.608
L449.952 332.707
L451.142 334.71
L452.333 336.886
L453.523 337.897
L454.118 338.258
L454.714 338.462
L455.309 337.185
L457.094 340.485
L458.285 342.245
L458.88 342.907
L459.475 343.383
L460.07 343.64
L460.666 335.643
L463.046 339.358
L464.237 340.705
L464.832 341.144
L465.427 341.382
L466.022 327.736
L466.618 326.88
L467.808 325.729
L468.403 325.561
L469.594 326.034
L471.974 327.488
L473.165 328.403
L473.76 328.623
L474.355 326.891
L474.95 326.617
L476.736 326.483
L477.331 326.557
L478.522 327.208
L480.902 328.747
L482.093 329.157
L482.688 326.491
L483.878 326.701
L486.259 327.281
L486.854 326.727
L488.045 328.553
L490.426 332.83
L491.616 335.234
L492.806 337.559
L493.997 339.389
L494.592 340.063
L495.187 340.542
L495.782 340.799
L496.378 333.605
L497.568 334.509
L498.163 334.812
L498.758 334.978
L499.354 326.55
L499.949 326.675
L500.544 327.219
L501.734 328.854
L502.33 329.801
L502.925 330.372
L504.71 330.9
L505.306 330.975
L505.901 330.623
L507.091 331.871
L507.686 332.303
L508.282 332.545
L508.877 327.516
L510.067 327.57
L510.662 333.3
L511.258 341.878
L511.853 348.015
L512.448 352.058
L513.043 354.086
L513.043 354.086" style="fill:none;stroke:#000000;stroke-linecap:square;stroke-width:8;"/>
   </g>
   <g id="line2d_2">
    <path clip-path="url(#p332b41defa)" d="
M72 314.163
L72.5952 313.763
L73.1904 311.162
L73.7856 307.271
L74.3808 306.134
L74.976 304.666
L75.5712 303.855
L76.1664 303.643
L76.7616 303.563
L77.952 303.735
L78.5472 303.843
L79.1424 307.738
L79.7376 305.819
L80.3328 304.315
L80.928 302.26
L82.1184 302.017
L85.6896 301.989
L86.2848 302.987
L86.88 300.732
L87.4752 301.072
L89.2608 303.033
L90.4512 305.045
L91.6416 306.976
L93.4272 309.353
L94.0224 309.848
L94.6176 310.118
L95.2128 300.835
L98.784 301.127
L100.57 301.43
L101.165 301.053
L103.546 302.349
L104.736 302.695
L105.331 302.882
L105.926 302.061
L107.117 302.048
L107.712 300.677
L108.307 284.798
L108.902 250.235
L109.498 231.588
L110.093 228.047
L111.283 243.924
L112.474 255.076
L113.069 259.046
L113.664 262.006
L114.259 263.983
L114.854 264.98
L115.45 208.091
L116.045 180.408
L116.64 158.667
L117.235 154.103
L117.83 146.325
L118.426 298.455
L119.021 292.239
L120.211 244.858
L120.806 230.463
L121.402 223.265
L121.997 226.609
L122.592 228.639
L123.187 229.356
L123.782 228.744
L124.378 226.763
L124.973 223.354
L125.568 218.43
L126.163 221.667
L126.758 223.287
L127.354 201.063
L127.949 183.806
L128.544 180.962
L129.139 181.062
L129.734 183.755
L130.33 183.338
L130.925 179.736
L131.52 178.165
L132.115 178.296
L132.71 166.814
L133.306 161.212
L133.901 163.739
L134.496 163.811
L135.091 161.358
L135.686 166.009
L136.282 168.15
L136.877 167.832
L137.472 170.271
L138.067 163.255
L138.662 167.628
L139.258 169.5
L139.853 168.91
L140.448 171.365
L141.043 302.227
L141.638 303.557
L143.424 304.323
L144.019 304.452
L144.614 306.698
L145.805 307.004
L146.4 307.092
L146.995 309.99
L147.59 310.601
L149.971 315.606
L151.162 317.489
L152.352 318.85
L153.542 319.784
L154.138 320.036
L154.733 311.899
L155.923 315.477
L158.304 322.035
L159.494 325.217
L160.685 327.672
L161.875 329.506
L162.47 330.113
L163.066 330.432
L163.661 313.256
L164.256 313.872
L167.827 318.9
L168.422 320.092
L169.613 321.684
L170.208 322.208
L170.803 316.409
L171.398 316.75
L172.589 318.45
L173.779 320.048
L175.565 322.728
L176.755 324.72
L177.35 325.725
L177.946 326.415
L178.541 326.773
L179.136 319.323
L179.731 319.832
L181.517 324.693
L182.707 327.837
L183.898 329.507
L185.088 330.634
L185.683 331.114
L186.278 331.364
L186.874 327.844
L188.064 329.541
L189.85 331.299
L190.445 331.557
L191.04 322.107
L191.635 322.667
L194.016 328.999
L195.206 331.237
L196.397 333.001
L197.587 334.266
L198.778 335.112
L199.373 335.299
L199.968 327.855
L201.754 332.216
L202.349 332.85
L203.539 332.996
L204.134 333.345
L205.325 335.348
L206.515 336.701
L207.11 337.111
L207.706 337.324
L208.301 328.75
L209.491 329.608
L210.086 329.868
L210.682 330.004
L211.277 324.433
L212.467 328.76
L213.062 328.923
L214.253 331.356
L215.443 333.63
L216.038 334.554
L217.229 336.665
L217.824 337.366
L218.419 337.87
L219.014 338.175
L219.61 330.769
L220.205 331.009
L221.99 334.472
L223.181 337.557
L224.371 339.66
L224.966 340.353
L226.157 341.155
L226.752 332.235
L227.942 334.645
L228.538 334.309
L229.133 335.074
L229.728 335.462
L230.323 336.053
L230.918 337.559
L232.704 346.422
L233.299 349.035
L233.894 350.467
L236.275 353.771
L237.466 355.539
L239.251 357.46
L240.442 358.495
L241.632 359.043
L242.227 359.168
L242.822 350.994
L244.013 354.122
L245.203 356.621
L246.394 358.09
L248.179 360.911
L249.37 362.758
L250.56 364.221
L251.75 365.306
L252.941 365.997
L254.131 366.322
L254.726 357.397
L257.702 360.6
L259.488 361.531
L260.678 361.998
L261.274 362.094
L261.869 360.581
L263.059 361.471
L264.25 362.11
L265.44 362.57
L266.63 362.773
L267.226 336.367
L267.821 335.238
L268.416 335.961
L269.011 336.325
L269.606 335.32
L270.202 333.67
L271.392 327.962
L272.582 321.921
L273.773 312.125
L274.368 310.294
L276.154 325.442
L276.749 330.036
L277.344 333.734
L277.939 336.63
L279.13 340.588
L279.725 341.787
L280.32 342.376
L280.915 306.214
L281.51 302.605
L282.106 302.195
L282.701 303.464
L283.296 306.401
L283.891 308.143
L284.486 310.891
L285.082 314.838
L286.272 320.719
L286.867 322.745
L287.462 323.911
L288.058 301.606
L289.248 293.855
L289.843 292.273
L290.438 294.223
L291.629 294.308
L292.224 320.323
L292.819 303.125
L293.414 294.953
L294.01 291.227
L294.605 314.767
L295.2 315.563
L295.795 315.314
L296.39 313.905
L296.986 310.579
L297.581 304.04
L298.176 299.082
L298.771 295.188
L299.366 294.15
L299.962 291.677
L300.557 291.173
L301.152 292.856
L301.747 310.65
L302.342 315.538
L302.938 319.487
L303.533 322.558
L304.128 324.799
L304.723 326.246
L305.318 327.035
L305.914 298.213
L306.509 263.326
L307.104 239.599
L307.699 240.906
L310.08 248.763
L310.675 250.235
L311.27 251.387
L311.866 252.194
L312.461 252.619
L313.056 240.952
L314.842 246.071
L316.032 249.988
L317.222 252.903
L317.818 253.932
L318.413 254.65
L319.008 255.028
L319.603 215.301
L320.198 210.808
L321.389 218.81
L322.579 225.164
L323.174 227.463
L323.77 229.178
L324.365 230.549
L324.96 231.262
L325.555 200.844
L327.341 124.506
L327.936 129.538
L328.531 132.874
L329.126 134.542
L329.722 252.593
L330.317 214.698
L331.507 186.755
L332.102 170.908
L332.698 162.165
L333.293 166.667
L333.888 168.932
L334.483 181.581
L335.078 140.985
L335.674 132.234
L336.269 120.974
L336.864 106.84
L337.459 88.9294
L338.054 96.8893
L338.65 100.575
L339.245 100.096
L339.84 95.3516
L340.435 130.389
L341.626 105.619
L342.221 99.6597
L342.816 107.722
L343.411 113.558
L344.006 117.649
L344.602 119.905
L345.197 127.513
L345.792 130.584
L346.387 131.561
L346.982 130.15
L347.578 137.13
L348.173 141.752
L348.768 144.066
L349.363 310.53
L349.958 308.545
L350.554 307.727
L351.149 306.549
L351.744 305.723
L352.339 305.49
L355.315 307.155
L355.91 305.965
L356.506 306.297
L358.886 310.014
L360.077 311.981
L360.672 312.752
L361.267 313.32
L361.862 313.636
L362.458 307.009
L363.053 307.363
L363.648 308.054
L364.243 308.554
L366.029 311.636
L367.219 313.205
L367.814 313.821
L368.41 314.162
L369.005 308.499
L369.6 309.642
L370.79 312.405
L372.576 315.187
L373.766 316.636
L374.362 317.121
L374.957 317.39
L375.552 313.525
L376.742 315.984
L377.933 317.941
L378.528 318.599
L379.123 318.963
L379.718 312.467
L381.504 316.169
L382.694 318.17
L383.29 319.052
L383.885 319.712
L384.48 320.072
L385.075 306.911
L385.67 306.757
L388.051 306.59
L388.646 307.42
L391.027 316.676
L391.622 318.25
L392.813 319.871
L393.408 320.412
L394.003 320.709
L394.598 318.226
L396.384 320.82
L396.979 321.443
L397.574 321.89
L398.17 322.131
L398.765 308.031
L399.36 307.7
L399.955 307.726
L400.55 308.145
L401.146 308.858
L403.526 313.257
L404.717 315.555
L405.907 317.293
L406.502 317.908
L407.098 318.277
L407.693 312.953
L409.478 314.856
L410.669 315.664
L411.264 315.85
L411.859 308.018
L412.454 308.462
L415.43 313.979
L416.621 315.413
L417.216 315.801
L417.811 308.326
L418.406 308.606
L419.597 309.325
L421.382 309.956
L421.978 310.06
L422.573 309.472
L424.358 311.084
L425.549 311.986
L426.144 312.312
L426.739 312.495
L427.334 311.206
L428.525 312.562
L429.12 313.033
L429.715 313.297
L430.31 308.777
L430.906 307.637
L431.501 307.099
L432.096 312.049
L433.286 310.787
L433.882 310.586
L434.477 310.247
L435.072 310.044
L435.667 310.473
L436.262 311.166
L436.858 312.491
L437.453 313.543
L438.048 313.715
L441.024 315.588
L441.619 314.606
L442.214 316.365
L444 319.022
L445.786 321.637
L446.381 322.233
L446.976 322.62
L447.571 322.833
L448.166 322.257
L448.762 322.718
L449.357 322.976
L449.952 316.516
L451.142 319.021
L452.333 321.906
L453.523 323.258
L454.118 323.743
L454.714 324.019
L455.309 322.298
L457.094 326.727
L458.285 329.103
L458.88 329.998
L459.475 330.642
L460.07 330.991
L460.666 320.255
L463.046 325.224
L464.237 327.039
L464.832 327.631
L465.427 327.952
L466.022 311.293
L466.618 310.094
L467.213 309.163
L467.808 308.452
L468.403 308.179
L468.998 308.393
L470.189 309.135
L471.974 310.558
L472.57 311.242
L473.165 311.757
L473.76 312.045
L474.355 309.874
L474.95 309.306
L476.736 308.854
L477.331 308.907
L478.522 309.708
L480.902 311.691
L481.498 312.033
L482.093 312.228
L482.688 308.829
L483.878 309.055
L486.259 309.785
L486.854 309.352
L488.045 311.615
L490.426 317.078
L491.616 320.253
L492.806 323.344
L493.997 325.786
L494.592 326.686
L495.187 327.328
L495.782 327.672
L496.378 318.102
L497.568 319.293
L498.163 319.693
L498.758 319.914
L499.354 309.326
L499.949 309.405
L500.544 310.05
L501.139 310.967
L502.33 313.341
L502.925 314.084
L504.115 314.58
L505.306 314.849
L505.901 314.422
L507.091 316.066
L507.686 316.637
L508.282 316.958
L508.877 310.434
L510.067 310.49
L510.662 318.959
L511.258 330.279
L511.853 338.38
L512.448 343.719
L513.043 346.396
L513.043 346.396" style="fill:none;stroke:#0000ff;stroke-linecap:square;stroke-width:4;"/>
   </g>
   <g id="line2d_3">
    <path clip-path="url(#p332b41defa)" d="
M72 270.346
L72.5952 270.385
L73.1904 273.653
L76.7616 273.396
L78.5472 273.356
L80.3328 283.668
L83.904 283.613
L85.6896 283.594
L86.2848 287.041
L88.6656 286.926
L94.6176 286.834
L95.2128 286.957
L104.736 286.885
L105.331 290.47
L107.117 290.467
L107.712 293.902
L113.069 294.026
L117.83 294.001
L118.426 297.307
L120.211 297.909
L124.378 298.176
L126.758 298.226
L127.354 298.051
L130.925 298.206
L133.306 298.327
L136.877 298.508
L137.472 298.515
L138.067 298.359
L140.448 298.424
L141.043 300.507
L144.019 300.555
L144.614 303.688
L146.4 303.713
L146.995 306.852
L148.186 307.049
L152.352 307.303
L154.138 307.333
L154.733 307.068
L158.899 307.456
L163.066 307.595
L163.661 309.872
L167.232 310.179
L170.208 310.268
L170.803 312.82
L174.374 313.252
L177.946 313.434
L178.541 313.441
L179.136 315.672
L182.112 316.307
L185.088 316.493
L186.278 316.515
L186.874 316.359
L189.85 316.507
L190.445 316.515
L191.04 318.373
L192.826 319.168
L195.802 319.537
L198.778 319.7
L199.373 319.708
L199.968 319.325
L202.349 319.644
L207.706 319.845
L208.301 319.367
L210.682 319.451
L211.277 320.793
L212.467 325.605
L215.443 326.037
L218.419 326.226
L219.014 326.235
L219.61 327.89
L222.586 328.338
L225.562 328.533
L226.157 328.543
L226.752 330.054
L227.942 334.348
L229.728 334.42
L230.323 336.441
L233.299 339.605
L235.68 340.193
L238.656 340.673
L241.632 340.883
L242.227 340.893
L242.822 340.037
L245.203 341.652
L248.179 342.305
L251.155 342.695
L254.131 342.839
L254.726 341.874
L257.107 342.656
L260.083 342.919
L261.274 342.95
L261.869 342.75
L264.845 343.063
L266.63 343.125
L267.226 337.863
L269.011 337.942
L271.987 344.562
L273.773 346.755
L275.558 347.301
L277.344 347.66
L279.725 347.888
L280.32 347.904
L280.915 347.239
L282.106 348.132
L283.891 348.689
L285.677 349.023
L287.462 349.152
L288.058 348.329
L289.843 348.758
L291.629 348.93
L292.224 345.101
L294.01 345.252
L294.605 345.546
L296.986 347.116
L298.771 347.612
L300.557 347.865
L301.152 347.893
L301.747 347.263
L303.533 347.568
L305.318 347.686
L305.914 269.386
L306.509 268.922
L307.104 268.695
L310.08 268.318
L312.461 268.211
L313.056 268.576
L316.032 268.145
L319.008 267.985
L319.603 268.696
L321.984 268.34
L324.365 268.176
L324.96 268.165
L325.555 268.59
L327.936 268.303
L329.126 268.255
L329.722 268.858
L332.102 268.55
L335.078 268.28
L337.459 267.816
L339.84 267.636
L340.435 268.186
L342.816 267.805
L344.602 267.703
L345.197 268.072
L347.578 267.782
L348.768 267.734
L349.363 269.197
L349.958 268.041
L350.554 267.349
L351.744 267.128
L354.72 266.957
L355.315 266.948
L355.91 267.095
L358.886 266.758
L361.862 266.632
L362.458 266.828
L363.053 266.512
L366.029 266.213
L368.41 266.128
L369.005 266.281
L370.79 265.717
L373.766 265.504
L374.957 265.478
L375.552 265.657
L378.528 265.488
L379.123 265.48
L379.718 265.769
L382.694 265.515
L384.48 265.465
L385.075 266.632
L386.266 266.266
L388.646 266.123
L391.027 265.636
L394.003 265.51
L394.598 265.577
L397.574 265.411
L398.17 265.403
L398.765 267.584
L399.955 266.694
L402.931 265.97
L405.907 265.759
L407.098 265.734
L407.693 265.91
L410.669 265.74
L411.264 265.731
L411.859 266.425
L414.835 266.127
L417.216 266.043
L417.811 266.241
L419.002 265.899
L421.978 265.767
L422.573 265.785
L424.358 265.539
L426.739 265.452
L427.334 265.54
L429.715 265.452
L430.31 269.174
L431.501 269.15
L432.096 269.934
L433.286 269.054
L435.072 269.007
L436.858 267.863
L439.834 267.662
L441.619 267.538
L444.595 267.102
L446.976 266.944
L449.357 266.936
L449.952 267.325
L451.738 266.805
L454.714 266.686
L455.904 266.673
L458.88 266.48
L460.07 266.457
L460.666 266.852
L463.642 266.617
L465.427 266.571
L466.022 269.801
L468.998 269.377
L471.974 269.145
L473.76 269.099
L474.355 269.325
L474.95 269.004
L477.331 268.5
L480.307 268.26
L482.093 268.213
L482.688 268.516
L485.664 268.355
L486.259 268.347
L486.854 268.842
L489.83 268.153
L491.616 267.91
L494.592 267.724
L495.782 267.702
L496.378 268
L498.758 267.923
L499.354 269.177
L501.734 268.713
L503.52 268.558
L505.306 268.512
L506.496 268.559
L508.282 268.513
L508.877 268.882
L510.067 268.859
L510.662 270.315
L513.043 270.254
L513.043 270.254" style="fill:none;stroke:#ff0000;stroke-linecap:square;stroke-width:2;"/>
   </g>
   <g id="patch_3">
    <path d="
M72 43.2
L518.4 43.2" style="fill:none;stroke:#000000;stroke-linecap:square;stroke-linejoin:miter;"/>
   </g>
   <g id="patch_4">
    <path d="
M518.4 378
L518.4 43.2" style="fill:none;stroke:#000000;stroke-linecap:square;stroke-linejoin:miter;"/>
   </g>
   <g id="patch_5">
    <path d="
M72 378
L518.4 378" style="fill:none;stroke:#000000;stroke-linecap:square;stroke-linejoin:miter;"/>
   </g>
   <g id="patch_6">
    <path d="
M72 378
L72 43.2" style="fill:none;stroke:#000000;stroke-linecap:square;stroke-linejoin:miter;"/>
   </g>
   <g id="matplotlib.axis_1">
    <g id="xtick_1">
     <g id="line2d_4">
      <defs>
       <path d="
M0 0
L0 -4" id="m93b0483c22" style="stroke:#000000;stroke-width:0.5;"/>
      </defs>
      <g>
       <use style="stroke:#000000;stroke-width:0.5;" x="72.0" xlink:href="#m93b0483c22" y="378.0"/>
      </g>
     </g>
     <g id="line2d_5">
      <defs>
       <path d="
M0 0
L0 4" id="m741efc42ff" style="stroke:#000000;stroke-width:0.5;"/>
      </defs>
      <g>
       <use style="stroke:#000000;stroke-width:0.5;" x="72.0" xlink:href="#m741efc42ff" y="43.2"/>
      </g>
     </g>
     <g id="text_1">
      <!-- 0 -->
      <defs>
       <path d="
M31.7812 66.4062
Q24.1719 66.4062 20.3281 58.9062
Q16.5 51.4219 16.5 36.375
Q16.5 21.3906 20.3281 13.8906
Q24.1719 6.39062 31.7812 6.39062
Q39.4531 6.39062 43.2812 13.8906
Q47.125 21.3906 47.125 36.375
Q47.125 51.4219 43.2812 58.9062
Q39.4531 66.4062 31.7812 66.4062
M31.7812 74.2188
Q44.0469 74.2188 50.5156 64.5156
Q56.9844 54.8281 56.9844 36.375
Q56.9844 17.9688 50.5156 8.26562
Q44.0469 -1.42188 31.7812 -1.42188
Q19.5312 -1.42188 13.0625 8.26562
Q6.59375 17.9688 6.59375 36.375
Q6.59375 54.8281 13.0625 64.5156
Q19.5312 74.2188 31.7812 74.2188" id="BitstreamVeraSans-Roman-30"/>
      </defs>
      <g transform="translate(68.47265625 392.6378125)scale(0.14 -0.14)">
       <use xlink:href="#BitstreamVeraSans-Roman-30"/>
      </g>
     </g>
    </g>
    <g id="xtick_2">
     <g id="line2d_6">
      <g>
       <use style="stroke:#000000;stroke-width:0.5;" x="220.8" xlink:href="#m93b0483c22" y="378.0"/>
      </g>
     </g>
     <g id="line2d_7">
      <g>
       <use style="stroke:#000000;stroke-width:0.5;" x="220.8" xlink:href="#m741efc42ff" y="43.2"/>
      </g>
     </g>
     <g id="text_2">
      <!-- 250 -->
      <defs>
       <path d="
M19.1875 8.29688
L53.6094 8.29688
L53.6094 0
L7.32812 0
L7.32812 8.29688
Q12.9375 14.1094 22.625 23.8906
Q32.3281 33.6875 34.8125 36.5312
Q39.5469 41.8438 41.4219 45.5312
Q43.3125 49.2188 43.3125 52.7812
Q43.3125 58.5938 39.2344 62.25
Q35.1562 65.9219 28.6094 65.9219
Q23.9688 65.9219 18.8125 64.3125
Q13.6719 62.7031 7.8125 59.4219
L7.8125 69.3906
Q13.7656 71.7812 18.9375 73
Q24.125 74.2188 28.4219 74.2188
Q39.75 74.2188 46.4844 68.5469
Q53.2188 62.8906 53.2188 53.4219
Q53.2188 48.9219 51.5312 44.8906
Q49.8594 40.875 45.4062 35.4062
Q44.1875 33.9844 37.6406 27.2188
Q31.1094 20.4531 19.1875 8.29688" id="BitstreamVeraSans-Roman-32"/>
       <path d="
M10.7969 72.9062
L49.5156 72.9062
L49.5156 64.5938
L19.8281 64.5938
L19.8281 46.7344
Q21.9688 47.4688 24.1094 47.8281
Q26.2656 48.1875 28.4219 48.1875
Q40.625 48.1875 47.75 41.5
Q54.8906 34.8125 54.8906 23.3906
Q54.8906 11.625 47.5625 5.09375
Q40.2344 -1.42188 26.9062 -1.42188
Q22.3125 -1.42188 17.5469 -0.640625
Q12.7969 0.140625 7.71875 1.70312
L7.71875 11.625
Q12.1094 9.23438 16.7969 8.0625
Q21.4844 6.89062 26.7031 6.89062
Q35.1562 6.89062 40.0781 11.3281
Q45.0156 15.7656 45.0156 23.3906
Q45.0156 31 40.0781 35.4375
Q35.1562 39.8906 26.7031 39.8906
Q22.75 39.8906 18.8125 39.0156
Q14.8906 38.1406 10.7969 36.2812
z
" id="BitstreamVeraSans-Roman-35"/>
      </defs>
      <g transform="translate(208.4165625 392.6378125)scale(0.14 -0.14)">
       <use xlink:href="#BitstreamVeraSans-Roman-32"/>
       <use x="63.623046875" xlink:href="#BitstreamVeraSans-Roman-35"/>
       <use x="127.24609375" xlink:href="#BitstreamVeraSans-Roman-30"/>
      </g>
     </g>
    </g>
    <g id="xtick_3">
     <g id="line2d_8">
      <g>
       <use style="stroke:#000000;stroke-width:0.5;" x="369.6" xlink:href="#m93b0483c22" y="378.0"/>
      </g>
     </g>
     <g id="line2d_9">
      <g>
       <use style="stroke:#000000;stroke-width:0.5;" x="369.6" xlink:href="#m741efc42ff" y="43.2"/>
      </g>
     </g>
     <g id="text_3">
      <!-- 500 -->
      <g transform="translate(357.24390625 392.6378125)scale(0.14 -0.14)">
       <use xlink:href="#BitstreamVeraSans-Roman-35"/>
       <use x="63.623046875" xlink:href="#BitstreamVeraSans-Roman-30"/>
       <use x="127.24609375" xlink:href="#BitstreamVeraSans-Roman-30"/>
      </g>
     </g>
    </g>
    <g id="xtick_4">
     <g id="line2d_10">
      <g>
       <use style="stroke:#000000;stroke-width:0.5;" x="518.4" xlink:href="#m93b0483c22" y="378.0"/>
      </g>
     </g>
     <g id="line2d_11">
      <g>
       <use style="stroke:#000000;stroke-width:0.5;" x="518.4" xlink:href="#m741efc42ff" y="43.2"/>
      </g>
     </g>
     <g id="text_4">
      <!-- 750 -->
      <defs>
       <path d="
M8.20312 72.9062
L55.0781 72.9062
L55.0781 68.7031
L28.6094 0
L18.3125 0
L43.2188 64.5938
L8.20312 64.5938
z
" id="BitstreamVeraSans-Roman-37"/>
      </defs>
      <g transform="translate(506.0778125 392.6378125)scale(0.14 -0.14)">
       <use xlink:href="#BitstreamVeraSans-Roman-37"/>
       <use x="63.623046875" xlink:href="#BitstreamVeraSans-Roman-35"/>
       <use x="127.24609375" xlink:href="#BitstreamVeraSans-Roman-30"/>
      </g>
     </g>
    </g>
    <g id="text_5">
     <!-- compartment number -->
     <defs>
      <path d="
M32.9062 24.6094
Q27.4375 24.6094 24.6719 22.75
Q21.9219 20.9062 21.9219 17.2812
Q21.9219 13.9688 24.1406 12.0781
Q26.375 10.2031 30.3281 10.2031
Q35.25 10.2031 38.625 13.7344
Q42 17.2812 42 22.6094
L42 24.6094
z

M59.625 31.2031
L59.625 0
L42 0
L42 8.10938
Q38.4844 3.125 34.0781 0.84375
Q29.6875 -1.42188 23.3906 -1.42188
Q14.8906 -1.42188 9.59375 3.53125
Q4.29688 8.5 4.29688 16.4062
Q4.29688 26.0312 10.9062 30.5156
Q17.5312 35.0156 31.6875 35.0156
L42 35.0156
L42 36.375
Q42 40.5312 38.7188 42.4531
Q35.4531 44.3906 28.5156 44.3906
Q22.9062 44.3906 18.0625 43.2656
Q13.2344 42.1406 9.07812 39.8906
L9.07812 53.2188
Q14.7031 54.5938 20.3594 55.2969
Q26.0312 56 31.6875 56
Q46.4844 56 53.0469 50.1719
Q59.625 44.3438 59.625 31.2031" id="BitstreamVeraSans-Bold-61"/>
      <path id="BitstreamVeraSans-Bold-20"/>
      <path d="
M37.5 11.2812
Q43.1094 11.2812 46.0625 15.375
Q49.0312 19.4844 49.0312 27.2969
Q49.0312 35.1094 46.0625 39.2031
Q43.1094 43.3125 37.5 43.3125
Q31.8906 43.3125 28.875 39.1875
Q25.875 35.0625 25.875 27.2969
Q25.875 19.5312 28.875 15.4062
Q31.8906 11.2812 37.5 11.2812
M25.875 46.6875
Q29.5 51.4688 33.8906 53.7344
Q38.2812 56 44 56
Q54.1094 56 60.5938 47.9688
Q67.0938 39.9375 67.0938 27.2969
Q67.0938 14.6562 60.5938 6.60938
Q54.1094 -1.42188 44 -1.42188
Q38.2812 -1.42188 33.8906 0.84375
Q29.5 3.125 25.875 7.90625
L25.875 0
L8.40625 0
L8.40625 75.9844
L25.875 75.9844
z
" id="BitstreamVeraSans-Bold-62"/>
      <path d="
M52.5938 52.9844
L52.5938 38.7188
Q49.0312 41.1562 45.4375 42.3281
Q41.8438 43.5 37.9844 43.5
Q30.6719 43.5 26.5938 39.2344
Q22.5156 34.9688 22.5156 27.2969
Q22.5156 19.625 26.5938 15.3438
Q30.6719 11.0781 37.9844 11.0781
Q42.0938 11.0781 45.7812 12.2969
Q49.4688 13.5312 52.5938 15.9219
L52.5938 1.60938
Q48.4844 0.09375 44.2656 -0.65625
Q40.0469 -1.42188 35.7969 -1.42188
Q21 -1.42188 12.6406 6.17188
Q4.29688 13.7656 4.29688 27.2969
Q4.29688 40.8281 12.6406 48.4062
Q21 56 35.7969 56
Q40.0938 56 44.2656 55.25
Q48.4375 54.5 52.5938 52.9844" id="BitstreamVeraSans-Bold-63"/>
      <path d="
M49.0312 39.7969
Q46.7344 40.875 44.4531 41.375
Q42.1875 41.8906 39.8906 41.8906
Q33.1562 41.8906 29.5156 37.5625
Q25.875 33.25 25.875 25.2031
L25.875 0
L8.40625 0
L8.40625 54.6875
L25.875 54.6875
L25.875 45.7031
Q29.25 51.0781 33.6094 53.5312
Q37.9844 56 44.0938 56
Q44.9688 56 45.9844 55.9219
Q47.0156 55.8594 48.9688 55.6094
z
" id="BitstreamVeraSans-Bold-72"/>
      <path d="
M7.8125 21.2969
L7.8125 54.6875
L25.3906 54.6875
L25.3906 49.2188
Q25.3906 44.7812 25.3438 38.0625
Q25.2969 31.3438 25.2969 29.1094
Q25.2969 22.5156 25.6406 19.6094
Q25.9844 16.7031 26.8125 15.375
Q27.875 13.6719 29.6094 12.7344
Q31.3438 11.8125 33.5938 11.8125
Q39.0625 11.8125 42.1875 16.0156
Q45.3125 20.2188 45.3125 27.6875
L45.3125 54.6875
L62.7969 54.6875
L62.7969 0
L45.3125 0
L45.3125 7.90625
Q41.3594 3.125 36.9375 0.84375
Q32.5156 -1.42188 27.2031 -1.42188
Q17.7188 -1.42188 12.7656 4.39062
Q7.8125 10.2031 7.8125 21.2969" id="BitstreamVeraSans-Bold-75"/>
      <path d="
M27.4844 70.2188
L27.4844 54.6875
L45.5156 54.6875
L45.5156 42.1875
L27.4844 42.1875
L27.4844 19
Q27.4844 15.1875 29 13.8438
Q30.5156 12.5 35.0156 12.5
L44 12.5
L44 0
L29 0
Q18.6562 0 14.3281 4.3125
Q10.0156 8.64062 10.0156 19
L10.0156 42.1875
L1.3125 42.1875
L1.3125 54.6875
L10.0156 54.6875
L10.0156 70.2188
z
" id="BitstreamVeraSans-Bold-74"/>
      <path d="
M62.9844 27.4844
L62.9844 22.5156
L22.125 22.5156
Q22.75 16.3594 26.5625 13.2812
Q30.375 10.2031 37.2031 10.2031
Q42.7188 10.2031 48.5 11.8438
Q54.2969 13.4844 60.4062 16.7969
L60.4062 3.32812
Q54.2031 0.984375 48 -0.21875
Q41.7969 -1.42188 35.5938 -1.42188
Q20.75 -1.42188 12.5156 6.125
Q4.29688 13.6719 4.29688 27.2969
Q4.29688 40.6719 12.375 48.3281
Q20.4531 56 34.625 56
Q47.5156 56 55.25 48.2344
Q62.9844 40.4844 62.9844 27.4844
M45.0156 33.2969
Q45.0156 38.2812 42.1094 41.3281
Q39.2031 44.3906 34.5156 44.3906
Q29.4375 44.3906 26.2656 41.5312
Q23.0938 38.6719 22.3125 33.2969
z
" id="BitstreamVeraSans-Bold-65"/>
      <path d="
M25.875 7.90625
L25.875 -20.7969
L8.40625 -20.7969
L8.40625 54.6875
L25.875 54.6875
L25.875 46.6875
Q29.5 51.4688 33.8906 53.7344
Q38.2812 56 44 56
Q54.1094 56 60.5938 47.9688
Q67.0938 39.9375 67.0938 27.2969
Q67.0938 14.6562 60.5938 6.60938
Q54.1094 -1.42188 44 -1.42188
Q38.2812 -1.42188 33.8906 0.84375
Q29.5 3.125 25.875 7.90625
M37.5 43.3125
Q31.8906 43.3125 28.875 39.1875
Q25.875 35.0625 25.875 27.2969
Q25.875 19.5312 28.875 15.4062
Q31.8906 11.2812 37.5 11.2812
Q43.1094 11.2812 46.0625 15.375
Q49.0312 19.4844 49.0312 27.2969
Q49.0312 35.1094 46.0625 39.2031
Q43.1094 43.3125 37.5 43.3125" id="BitstreamVeraSans-Bold-70"/>
      <path d="
M34.4219 43.5
Q28.6094 43.5 25.5625 39.3281
Q22.5156 35.1562 22.5156 27.2969
Q22.5156 19.4375 25.5625 15.25
Q28.6094 11.0781 34.4219 11.0781
Q40.1406 11.0781 43.1562 15.25
Q46.1875 19.4375 46.1875 27.2969
Q46.1875 35.1562 43.1562 39.3281
Q40.1406 43.5 34.4219 43.5
M34.4219 56
Q48.5312 56 56.4688 48.375
Q64.4062 40.7656 64.4062 27.2969
Q64.4062 13.8125 56.4688 6.1875
Q48.5312 -1.42188 34.4219 -1.42188
Q20.2656 -1.42188 12.2812 6.1875
Q4.29688 13.8125 4.29688 27.2969
Q4.29688 40.7656 12.2812 48.375
Q20.2656 56 34.4219 56" id="BitstreamVeraSans-Bold-6f"/>
      <path d="
M59.0781 45.6094
Q62.4062 50.6875 66.9688 53.3438
Q71.5312 56 77 56
Q86.4219 56 91.3594 50.1875
Q96.2969 44.3906 96.2969 33.2969
L96.2969 0
L78.7188 0
L78.7188 28.5156
Q78.7656 29.1562 78.7812 29.8281
Q78.8125 30.5156 78.8125 31.7812
Q78.8125 37.5938 77.0938 40.2031
Q75.3906 42.8281 71.5781 42.8281
Q66.6094 42.8281 63.8906 38.7188
Q61.1875 34.625 61.0781 26.8594
L61.0781 0
L43.5 0
L43.5 28.5156
Q43.5 37.5938 41.9375 40.2031
Q40.375 42.8281 36.375 42.8281
Q31.3438 42.8281 28.6094 38.7031
Q25.875 34.5781 25.875 26.9062
L25.875 0
L8.29688 0
L8.29688 54.6875
L25.875 54.6875
L25.875 46.6875
Q29.1094 51.3125 33.2812 53.6562
Q37.4531 56 42.4844 56
Q48.1406 56 52.4844 53.2656
Q56.8438 50.5312 59.0781 45.6094" id="BitstreamVeraSans-Bold-6d"/>
      <path d="
M63.375 33.2969
L63.375 0
L45.7969 0
L45.7969 5.42188
L45.7969 25.4844
Q45.7969 32.5625 45.4844 35.25
Q45.1719 37.9375 44.3906 39.2031
Q43.3594 40.9219 41.5938 41.875
Q39.8438 42.8281 37.5938 42.8281
Q32.125 42.8281 29 38.5938
Q25.875 34.375 25.875 26.9062
L25.875 0
L8.40625 0
L8.40625 54.6875
L25.875 54.6875
L25.875 46.6875
Q29.8281 51.4688 34.2656 53.7344
Q38.7188 56 44.0938 56
Q53.5625 56 58.4688 50.1875
Q63.375 44.3906 63.375 33.2969" id="BitstreamVeraSans-Bold-6e"/>
     </defs>
     <g transform="translate(196.86375 412.706875)scale(0.16 -0.16)">
      <use xlink:href="#BitstreamVeraSans-Bold-63"/>
      <use x="59.27734375" xlink:href="#BitstreamVeraSans-Bold-6f"/>
      <use x="127.978515625" xlink:href="#BitstreamVeraSans-Bold-6d"/>
      <use x="232.177734375" xlink:href="#BitstreamVeraSans-Bold-70"/>
      <use x="303.759765625" xlink:href="#BitstreamVeraSans-Bold-61"/>
      <use x="371.240234375" xlink:href="#BitstreamVeraSans-Bold-72"/>
      <use x="420.556640625" xlink:href="#BitstreamVeraSans-Bold-74"/>
      <use x="468.359375" xlink:href="#BitstreamVeraSans-Bold-6d"/>
      <use x="572.55859375" xlink:href="#BitstreamVeraSans-Bold-65"/>
      <use x="640.380859375" xlink:href="#BitstreamVeraSans-Bold-6e"/>
      <use x="711.572265625" xlink:href="#BitstreamVeraSans-Bold-74"/>
      <use x="759.375" xlink:href="#BitstreamVeraSans-Bold-20"/>
      <use x="794.189453125" xlink:href="#BitstreamVeraSans-Bold-6e"/>
      <use x="865.380859375" xlink:href="#BitstreamVeraSans-Bold-75"/>
      <use x="936.572265625" xlink:href="#BitstreamVeraSans-Bold-6d"/>
      <use x="1040.77148438" xlink:href="#BitstreamVeraSans-Bold-62"/>
      <use x="1112.35351562" xlink:href="#BitstreamVeraSans-Bold-65"/>
      <use x="1180.17578125" xlink:href="#BitstreamVeraSans-Bold-72"/>
     </g>
    </g>
   </g>
   <g id="matplotlib.axis_2">
    <g id="ytick_1">
     <g id="line2d_12">
      <defs>
       <path d="
M0 0
L4 0" id="m728421d6d4" style="stroke:#000000;stroke-width:0.5;"/>
      </defs>
      <g>
       <use style="stroke:#000000;stroke-width:0.5;" x="72.0" xlink:href="#m728421d6d4" y="354.085714286"/>
      </g>
     </g>
     <g id="line2d_13">
      <defs>
       <path d="
M0 0
L-4 0" id="mcb0005524f" style="stroke:#000000;stroke-width:0.5;"/>
      </defs>
      <g>
       <use style="stroke:#000000;stroke-width:0.5;" x="518.4" xlink:href="#mcb0005524f" y="354.085714286"/>
      </g>
     </g>
     <g id="text_6">
      <!-- 0.05 -->
      <defs>
       <path d="
M10.6875 12.4062
L21 12.4062
L21 0
L10.6875 0
z
" id="BitstreamVeraSans-Roman-2e"/>
      </defs>
      <g transform="translate(38.9740625 357.948839286)scale(0.14 -0.14)">
       <use xlink:href="#BitstreamVeraSans-Roman-30"/>
       <use x="63.623046875" xlink:href="#BitstreamVeraSans-Roman-2e"/>
       <use x="95.41015625" xlink:href="#BitstreamVeraSans-Roman-30"/>
       <use x="159.033203125" xlink:href="#BitstreamVeraSans-Roman-35"/>
      </g>
     </g>
    </g>
    <g id="ytick_2">
     <g id="line2d_14">
      <g>
       <use style="stroke:#000000;stroke-width:0.5;" x="72.0" xlink:href="#m728421d6d4" y="330.171428571"/>
      </g>
     </g>
     <g id="line2d_15">
      <g>
       <use style="stroke:#000000;stroke-width:0.5;" x="518.4" xlink:href="#mcb0005524f" y="330.171428571"/>
      </g>
     </g>
     <g id="text_7">
      <!-- 0.10 -->
      <defs>
       <path d="
M12.4062 8.29688
L28.5156 8.29688
L28.5156 63.9219
L10.9844 60.4062
L10.9844 69.3906
L28.4219 72.9062
L38.2812 72.9062
L38.2812 8.29688
L54.3906 8.29688
L54.3906 0
L12.4062 0
z
" id="BitstreamVeraSans-Roman-31"/>
      </defs>
      <g transform="translate(38.6809375 334.034553571)scale(0.14 -0.14)">
       <use xlink:href="#BitstreamVeraSans-Roman-30"/>
       <use x="63.623046875" xlink:href="#BitstreamVeraSans-Roman-2e"/>
       <use x="95.41015625" xlink:href="#BitstreamVeraSans-Roman-31"/>
       <use x="159.033203125" xlink:href="#BitstreamVeraSans-Roman-30"/>
      </g>
     </g>
    </g>
    <g id="ytick_3">
     <g id="line2d_16">
      <g>
       <use style="stroke:#000000;stroke-width:0.5;" x="72.0" xlink:href="#m728421d6d4" y="306.257142857"/>
      </g>
     </g>
     <g id="line2d_17">
      <g>
       <use style="stroke:#000000;stroke-width:0.5;" x="518.4" xlink:href="#mcb0005524f" y="306.257142857"/>
      </g>
     </g>
     <g id="text_8">
      <!-- 0.15 -->
      <g transform="translate(38.9740625 310.120267857)scale(0.14 -0.14)">
       <use xlink:href="#BitstreamVeraSans-Roman-30"/>
       <use x="63.623046875" xlink:href="#BitstreamVeraSans-Roman-2e"/>
       <use x="95.41015625" xlink:href="#BitstreamVeraSans-Roman-31"/>
       <use x="159.033203125" xlink:href="#BitstreamVeraSans-Roman-35"/>
      </g>
     </g>
    </g>
    <g id="text_9">
     <!-- normalized concentration -->
     <defs>
      <path d="
M5.71875 54.6875
L53.4219 54.6875
L53.4219 42.4844
L24.6094 12.5
L53.4219 12.5
L53.4219 0
L4.5 0
L4.5 12.2031
L33.2969 42.1875
L5.71875 42.1875
z
" id="BitstreamVeraSans-Bold-7a"/>
      <path d="
M8.40625 75.9844
L25.875 75.9844
L25.875 0
L8.40625 0
z
" id="BitstreamVeraSans-Bold-6c"/>
      <path d="
M8.40625 54.6875
L25.875 54.6875
L25.875 0
L8.40625 0
z

M8.40625 75.9844
L25.875 75.9844
L25.875 61.7188
L8.40625 61.7188
z
" id="BitstreamVeraSans-Bold-69"/>
      <path d="
M45.6094 46.6875
L45.6094 75.9844
L63.1875 75.9844
L63.1875 0
L45.6094 0
L45.6094 7.90625
Q42 3.07812 37.6406 0.828125
Q33.2969 -1.42188 27.5938 -1.42188
Q17.4844 -1.42188 10.9844 6.60938
Q4.5 14.6562 4.5 27.2969
Q4.5 39.9375 10.9844 47.9688
Q17.4844 56 27.5938 56
Q33.25 56 37.625 53.7344
Q42 51.4688 45.6094 46.6875
M34.0781 11.2812
Q39.7031 11.2812 42.6562 15.375
Q45.6094 19.4844 45.6094 27.2969
Q45.6094 35.1094 42.6562 39.2031
Q39.7031 43.3125 34.0781 43.3125
Q28.5156 43.3125 25.5625 39.2031
Q22.6094 35.1094 22.6094 27.2969
Q22.6094 19.4844 25.5625 15.375
Q28.5156 11.2812 34.0781 11.2812" id="BitstreamVeraSans-Bold-64"/>
     </defs>
     <g transform="translate(30.3534375 325.6475)rotate(-90.0)scale(0.16 -0.16)">
      <use xlink:href="#BitstreamVeraSans-Bold-6e"/>
      <use x="71.19140625" xlink:href="#BitstreamVeraSans-Bold-6f"/>
      <use x="139.892578125" xlink:href="#BitstreamVeraSans-Bold-72"/>
      <use x="189.208984375" xlink:href="#BitstreamVeraSans-Bold-6d"/>
      <use x="293.408203125" xlink:href="#BitstreamVeraSans-Bold-61"/>
      <use x="360.888671875" xlink:href="#BitstreamVeraSans-Bold-6c"/>
      <use x="395.166015625" xlink:href="#BitstreamVeraSans-Bold-69"/>
      <use x="429.443359375" xlink:href="#BitstreamVeraSans-Bold-7a"/>
      <use x="487.646484375" xlink:href="#BitstreamVeraSans-Bold-65"/>
      <use x="555.46875" xlink:href="#BitstreamVeraSans-Bold-64"/>
      <use x="627.05078125" xlink:href="#BitstreamVeraSans-Bold-20"/>
      <use x="661.865234375" xlink:href="#BitstreamVeraSans-Bold-63"/>
      <use x="721.142578125" xlink:href="#BitstreamVeraSans-Bold-6f"/>
      <use x="789.84375" xlink:href="#BitstreamVeraSans-Bold-6e"/>
      <use x="861.03515625" xlink:href="#BitstreamVeraSans-Bold-63"/>
      <use x="920.3125" xlink:href="#BitstreamVeraSans-Bold-65"/>
      <use x="988.134765625" xlink:href="#BitstreamVeraSans-Bold-6e"/>
      <use x="1059.32617188" xlink:href="#BitstreamVeraSans-Bold-74"/>
      <use x="1107.12890625" xlink:href="#BitstreamVeraSans-Bold-72"/>
      <use x="1156.4453125" xlink:href="#BitstreamVeraSans-Bold-61"/>
      <use x="1223.92578125" xlink:href="#BitstreamVeraSans-Bold-74"/>
      <use x="1271.72851562" xlink:href="#BitstreamVeraSans-Bold-69"/>
      <use x="1306.00585938" xlink:href="#BitstreamVeraSans-Bold-6f"/>
      <use x="1374.70703125" xlink:href="#BitstreamVeraSans-Bold-6e"/>
     </g>
    </g>
   </g>
  </g>
 </g>
 <defs>
  <clipPath id="p332b41defa">
   <rect height="334.8" width="446.4" x="72.0" y="43.2"/>
  </clipPath>
 </defs>
</svg>
