<?xml version="1.0" encoding="utf-8" standalone="no"?>
<!DOCTYPE svg PUBLIC "-//W3C//DTD SVG 1.1//EN"
  "http://www.w3.org/Graphics/SVG/1.1/DTD/svg11.dtd">
<!-- Created with matplotlib (http://matplotlib.org/) -->
<svg height="432pt" version="1.1" viewBox="0 0 576 432" width="576pt" xmlns="http://www.w3.org/2000/svg" xmlns:xlink="http://www.w3.org/1999/xlink">
 <defs>
  <style type="text/css">
*{stroke-linecap:butt;stroke-linejoin:round;}
  </style>
 </defs>
 <g id="figure_1">
  <g id="patch_1">
   <path d="
M0 432
L576 432
L576 0
L0 0
z
" style="fill:#ffffff;"/>
  </g>
  <g id="axes_1">
   <g id="patch_2">
    <path d="
M72 378
L518.4 378
L518.4 43.2
L72 43.2
z
" style="fill:#ffffff;"/>
   </g>
   <g id="line2d_1">
    <path clip-path="url(#p332b41defa)" d="
M72 366.719
L72.5952 366.645
L73.7856 365.113
L75.5712 364.508
L77.3568 364.475
L78.5472 364.519
L79.1424 364.768
L80.3328 363.14
L80.928 362.73
L83.3088 362.697
L85.6896 362.683
L86.88 361.849
L88.0704 362.06
L89.856 362.537
L92.2368 363.352
L94.0224 363.778
L94.6176 363.835
L95.2128 361.876
L102.355 362.073
L104.736 362.277
L105.331 361.674
L105.926 361.495
L107.117 361.493
L107.712 360.509
L108.307 356.91
L108.902 349.081
L109.498 344.851
L110.093 344.045
L111.283 347.632
L112.474 350.153
L113.069 351.051
L113.664 351.72
L114.259 352.167
L114.854 352.393
L115.45 339.527
L116.045 333.255
L116.64 328.328
L117.235 327.292
L117.83 325.529
L118.426 359.246
L119.021 357.729
L120.211 346.374
L120.806 342.932
L121.402 341.199
L121.997 341.975
L122.592 342.441
L123.187 342.597
L123.782 342.438
L124.378 341.955
L124.973 341.133
L125.568 339.952
L126.163 340.72
L126.758 341.104
L127.354 335.896
L127.949 331.766
L128.544 331.069
L129.139 331.076
L129.734 331.704
L130.33 331.595
L130.925 330.729
L131.52 330.351
L132.115 330.42
L132.71 327.626
L133.306 326.234
L133.901 326.807
L134.496 326.798
L135.091 326.19
L135.686 327.285
L136.282 327.784
L136.877 327.7
L137.472 328.279
L138.067 326.701
L138.662 327.729
L139.258 328.164
L139.853 328.015
L140.448 328.598
L141.043 359.398
L141.638 359.72
L144.019 359.933
L144.614 359.746
L147.59 359.942
L150.566 361.498
L152.352 362.083
L154.138 362.395
L154.733 360.271
L156.518 361.606
L157.709 362.427
L159.494 363.758
L160.685 364.41
L162.47 365.061
L163.066 365.146
L163.661 359.92
L165.446 360.473
L167.827 361.414
L169.018 361.985
L170.208 362.329
L170.803 360.022
L171.398 360.097
L176.755 362.308
L177.946 362.8
L178.541 362.904
L179.136 360.089
L179.731 360.204
L182.112 362.07
L182.707 362.517
L183.898 363.013
L185.683 363.494
L186.278 363.569
L186.874 362.519
L188.064 363.023
L189.85 363.551
L190.445 363.629
L191.04 360.166
L191.635 360.263
L194.611 362.469
L196.397 363.344
L198.182 363.891
L199.373 364.063
L199.968 361.741
L201.754 363.08
L202.349 363.28
L204.134 363.433
L205.325 364.065
L206.515 364.494
L207.706 364.693
L208.301 362.019
L210.086 362.362
L210.682 362.404
L211.277 360.185
L213.062 360.143
L217.824 363.073
L219.014 363.362
L219.61 360.067
L220.205 360.119
L221.99 361.347
L223.181 362.487
L224.371 363.268
L225.562 363.701
L226.157 363.826
L226.752 359.839
L227.942 359.103
L228.538 358.94
L229.133 359.264
L229.728 359.428
L230.323 358.795
L230.918 359.187
L232.704 362.595
L233.299 363.646
L233.894 364.297
L236.275 365.768
L237.466 366.599
L239.846 367.795
L241.037 368.178
L242.227 368.344
L242.822 364.465
L244.013 365.765
L245.203 366.809
L246.394 367.493
L248.179 368.891
L249.965 370.233
L251.155 370.892
L252.346 371.356
L253.536 371.62
L254.131 371.681
L254.726 367.149
L258.298 368.783
L261.274 369.365
L261.869 368.597
L263.654 369.213
L265.44 369.589
L266.63 369.692
L267.226 358.264
L267.821 357.708
L268.416 358.039
L269.011 358.205
L269.606 357.053
L270.202 355.454
L271.392 350.597
L272.582 345.352
L273.773 337.876
L274.368 336.489
L276.749 348.015
L277.344 350.236
L277.939 351.982
L279.13 354.383
L279.725 355.116
L280.32 355.476
L280.915 333.587
L281.51 330.646
L282.106 329.695
L282.701 330.165
L283.296 331.761
L283.891 332.64
L284.486 334.222
L285.082 336.64
L286.272 340.294
L286.867 341.574
L287.462 342.316
L288.058 328.996
L289.248 323.445
L289.843 322.2
L290.438 323.309
L291.629 323.203
L292.224 344.638
L292.819 334.59
L293.414 329.776
L294.01 327.572
L294.605 340.921
L295.2 340.902
L295.795 340.279
L296.39 338.959
L296.986 336.453
L297.581 332.14
L298.176 328.799
L298.771 326.134
L299.366 325.289
L299.962 323.581
L300.557 323.161
L301.152 324.174
L301.747 336.299
L302.938 341.505
L303.533 343.33
L304.128 344.667
L304.723 345.531
L305.318 346.006
L305.914 364.026
L306.509 358.001
L307.104 353.913
L308.294 354.523
L310.08 355.585
L311.27 356.055
L312.461 356.275
L313.056 354.174
L317.222 356.356
L318.413 356.669
L319.008 356.736
L319.603 349.684
L320.198 348.931
L321.389 350.367
L322.579 351.501
L323.77 352.216
L324.96 352.585
L325.555 347.198
L327.341 334.022
L327.936 334.914
L328.531 335.504
L329.126 335.8
L329.722 356.142
L330.317 349.562
L331.507 344.743
L332.102 342.006
L332.698 340.502
L333.293 341.293
L333.888 341.692
L334.483 343.897
L335.078 336.907
L335.674 335.445
L336.269 333.546
L336.864 331.147
L337.459 328.094
L338.054 329.499
L338.65 330.159
L339.245 330.092
L339.84 329.282
L340.435 335.107
L341.626 330.913
L342.221 329.921
L342.816 331.343
L343.411 332.371
L344.006 333.091
L344.602 333.487
L345.197 334.654
L345.792 335.223
L346.387 335.423
L346.982 335.204
L347.578 336.428
L348.173 337.237
L348.768 337.642
L349.363 366.203
L349.958 365.984
L350.554 365.918
L351.744 365.599
L352.934 365.628
L355.315 365.864
L355.91 365.644
L357.101 365.87
L361.267 366.951
L361.862 367.006
L362.458 365.852
L364.243 366.166
L366.624 366.854
L368.41 367.145
L369.005 366.165
L372.576 367.372
L374.362 367.707
L374.957 367.753
L375.552 367.082
L377.933 367.844
L379.123 368.019
L379.718 366.892
L382.099 367.722
L383.885 368.146
L384.48 368.208
L385.075 365.857
L388.051 365.848
L388.646 365.999
L391.027 367.618
L392.218 368.041
L394.003 368.311
L394.598 367.885
L396.979 368.443
L398.17 368.561
L398.765 365.945
L399.955 365.989
L401.146 366.216
L405.907 367.711
L407.098 367.88
L407.693 366.96
L410.074 367.377
L411.264 367.469
L411.859 366.068
L412.454 366.152
L416.026 367.255
L417.216 367.431
L417.811 366.14
L421.382 366.466
L421.978 366.484
L422.573 366.383
L425.549 366.839
L426.739 366.928
L427.334 366.701
L429.12 367.018
L429.715 367.064
L430.31 365.899
L431.501 365.609
L432.096 366.39
L434.477 366.174
L435.072 366.139
L436.262 366.415
L437.453 366.872
L439.238 367.057
L441.024 367.242
L441.619 367.082
L442.214 367.395
L446.976 368.514
L447.571 368.551
L448.166 368.45
L449.357 368.575
L449.952 367.432
L452.928 368.532
L454.714 368.775
L455.309 368.476
L457.69 369.467
L459.475 369.923
L460.07 369.983
L460.666 368.117
L463.642 369.157
L464.832 369.4
L465.427 369.456
L466.022 366.272
L467.213 365.919
L468.403 365.764
L470.784 366.036
L473.76 366.479
L474.355 366.075
L476.141 365.978
L477.926 366.065
L482.093 366.603
L482.688 365.981
L486.854 366.036
L489.235 366.953
L494.592 369.148
L495.782 369.32
L496.378 367.641
L498.163 367.923
L498.758 367.962
L499.354 365.995
L500.544 366.151
L503.52 366.936
L505.306 367.028
L505.901 366.945
L507.686 367.337
L508.282 367.394
L508.877 366.221
L510.067 366.233
L510.662 367.57
L511.258 369.572
L511.853 371.004
L512.448 371.947
L513.043 372.42
L513.043 372.42" style="fill:none;stroke:#000000;stroke-linecap:square;stroke-width:8;"/>
   </g>
   <g id="line2d_2">
    <path clip-path="url(#p332b41defa)" d="
M72 245.514
L72.5952 295.999
L73.1904 297.54
L73.7856 289.598
L74.3808 287.049
L74.976 285.834
L75.5712 286.799
L76.7616 292.285
L77.3568 295.147
L77.952 297.395
L78.5472 298.649
L79.1424 304.277
L79.7376 315.767
L80.3328 330.256
L80.928 330.401
L81.5232 329.969
L82.1184 329.783
L82.7136 329.72
L83.3088 332.372
L84.4992 336.206
L85.0944 337.542
L85.6896 338.253
L86.88 353.034
L88.6656 362.082
L89.856 367.161
L91.0464 371.092
L92.2368 373.754
L92.832 374.666
L93.4272 375.323
L94.0224 375.747
L94.6176 375.955
L95.2128 358.643
L95.808 359.485
L96.4032 360.085
L96.9984 360.401
L97.5936 363.231
L98.784 366.831
L99.3792 368.098
L99.9744 368.961
L100.57 369.398
L101.165 365.61
L102.355 369.467
L102.95 370.879
L103.546 371.937
L104.141 372.641
L104.736 372.992
L105.331 353.838
L105.926 353.626
L107.117 353.759
L107.712 362.367
L108.307 363.718
L108.902 363.791
L109.498 366.866
L111.878 374.153
L112.474 375.161
L113.069 375.89
L113.664 376.392
L114.259 376.706
L114.854 376.856
L115.45 367.831
L116.64 369.496
L117.235 370.579
L117.83 370.97
L118.426 367.683
L119.021 369.867
L119.616 371.04
L120.211 373.072
L121.402 374.502
L122.592 376.06
L123.782 376.971
L124.973 377.461
L126.163 377.698
L126.758 377.744
L127.354 374.011
L129.734 376.573
L130.33 376.913
L131.52 377.219
L132.115 374.77
L133.306 376.527
L134.496 377.251
L135.686 377.633
L136.877 377.805
L137.472 377.837
L138.067 376.927
L139.258 377.431
L140.448 377.617
L141.043 371.162
L141.638 372.169
L142.829 373.537
L143.424 373.949
L144.019 374.158
L144.614 373.649
L145.805 374.355
L146.4 374.504
L147.59 376.319
L148.781 377.015
L149.971 377.454
L151.757 377.792
L154.138 377.924
L154.733 376.7
L155.923 377.268
L157.114 377.608
L158.899 377.864
L161.875 377.979
L163.066 377.987
L163.661 376.511
L164.851 377.11
L166.042 377.499
L167.827 377.808
L170.208 377.931
L170.803 377.121
L172.589 377.622
L174.374 377.858
L177.35 377.977
L178.541 377.986
L179.136 377.483
L180.922 377.806
L183.302 377.964
L190.445 377.992
L191.04 377.688
L193.421 377.945
L198.778 377.998
L210.682 377.989
L211.277 377.78
L213.062 377.942
L218.419 377.998
L305.318 378
L305.914 312.744
L306.509 306.711
L307.104 302.961
L308.294 316.102
L310.08 336.144
L310.675 341.32
L311.27 345.364
L311.866 348.136
L312.461 349.547
L313.056 309.576
L316.032 345.122
L317.222 354.954
L317.818 358.302
L318.413 360.549
L319.008 361.676
L319.603 292.736
L320.198 297.352
L321.984 324.305
L323.174 337.96
L323.77 342.745
L324.365 346.045
L324.96 347.715
L325.555 294.182
L326.15 292.714
L327.341 291.911
L327.936 301.051
L328.531 307.301
L329.126 310.475
L329.722 302.833
L330.317 283.662
L330.912 280.721
L332.102 276.398
L332.698 277.448
L333.293 283.361
L333.888 286.393
L334.483 291.933
L335.078 285.386
L336.864 308.655
L337.459 314.825
L338.054 325.319
L338.65 332.893
L339.245 337.596
L339.84 339.387
L340.435 291.235
L341.626 304.57
L342.221 312.634
L342.816 322.553
L343.411 330.032
L344.006 335.084
L344.602 337.649
L345.197 299.984
L346.387 319.024
L347.578 333.141
L348.173 337.873
L348.768 340.237
L349.363 301.119
L349.958 320.346
L350.554 334.723
L351.149 339.182
L351.744 341.045
L354.125 350.395
L354.72 351.815
L355.315 352.557
L355.91 342.159
L358.886 360.372
L360.077 365.371
L360.672 367.062
L361.267 368.195
L361.862 368.763
L362.458 344.918
L363.053 352.045
L365.434 362.52
L366.624 366.416
L367.219 367.767
L367.814 368.693
L368.41 369.161
L369.005 357.047
L370.195 366.777
L370.79 369.727
L371.981 372.319
L373.171 374.093
L373.766 374.675
L374.362 375.058
L374.957 375.249
L375.552 371.132
L376.742 373.351
L377.338 374.141
L377.933 374.723
L378.528 375.107
L379.123 375.298
L379.718 368.596
L380.909 371.594
L382.099 373.736
L382.694 374.49
L383.29 375.05
L383.885 375.418
L384.48 375.6
L385.075 348.829
L386.266 357.108
L386.861 357.894
L387.456 358.435
L388.051 358.748
L388.646 360.557
L389.837 367.313
L391.027 372.591
L391.622 373.65
L392.218 374.437
L392.813 375.014
L393.408 375.392
L394.003 375.578
L394.598 373.76
L395.789 375.387
L396.384 375.931
L396.979 376.321
L397.574 376.572
L398.17 376.694
L398.765 327.623
L399.955 345.885
L401.146 353.599
L402.931 366.093
L404.122 369.788
L404.717 371.227
L405.312 372.37
L405.907 373.219
L406.502 373.784
L407.098 374.068
L407.693 368.032
L408.883 371.129
L409.478 372.264
L410.074 373.114
L410.669 373.679
L411.264 373.961
L411.859 352.528
L414.835 365.408
L415.43 367.183
L416.026 368.536
L416.621 369.454
L417.216 369.921
L417.811 356.823
L419.002 365.381
L420.192 368.19
L420.787 369.199
L421.382 369.893
L421.978 370.247
L422.573 367.973
L423.763 372.544
L424.954 374.323
L425.549 374.907
L426.144 375.291
L426.739 375.482
L427.334 373.543
L427.93 374.339
L428.525 374.927
L429.12 375.313
L429.715 375.505
L430.31 289.21
L430.906 280.759
L431.501 276.41
L432.096 293.181
L432.691 294.153
L433.286 297.472
L433.882 291.486
L434.477 287.179
L435.072 284.961
L435.667 308.682
L436.858 336.472
L438.048 344.13
L439.238 350.563
L439.834 352.971
L440.429 354.666
L441.024 355.544
L441.619 347.556
L442.81 356.247
L444 363.488
L445.19 369.264
L445.786 371.571
L446.381 372.566
L446.976 373.217
L447.571 373.54
L448.166 372.567
L448.762 373.224
L449.357 373.55
L449.952 354.21
L451.142 365.966
L451.738 369.375
L452.333 370.86
L452.928 371.985
L453.523 372.829
L454.118 373.39
L454.714 373.671
L455.309 371.152
L456.499 373.802
L457.094 374.75
L457.69 375.483
L458.285 376.031
L458.88 376.419
L459.475 376.665
L460.07 376.785
L460.666 368.147
L461.856 371.64
L463.046 373.997
L463.642 374.796
L464.237 375.371
L464.832 375.743
L465.427 375.925
L466.022 302.969
L466.618 300.876
L467.213 300.96
L467.808 302.994
L468.403 306.912
L469.594 318.468
L471.379 336.671
L471.974 341.572
L472.57 345.531
L473.165 348.249
L473.76 349.634
L474.355 314.26
L474.95 323.245
L476.141 336.689
L476.736 344.135
L478.522 355.827
L479.712 362.06
L480.307 364.418
L480.902 366.212
L481.498 367.417
L482.093 368.024
L482.688 347.638
L483.878 354.105
L484.474 356.753
L485.069 358.839
L485.664 360.279
L486.259 361.015
L486.854 327.135
L488.045 338.298
L490.426 361.864
L491.616 367.462
L492.806 371.423
L493.402 372.824
L493.997 373.888
L494.592 374.65
L495.187 375.14
L495.782 375.38
L496.378 364.233
L496.973 366.124
L497.568 367.572
L498.163 368.551
L498.758 369.045
L499.354 318.422
L500.544 330.939
L502.33 352.728
L502.925 356.02
L503.52 358.616
L504.115 360.62
L504.71 361.984
L505.306 362.674
L505.901 356.098
L506.496 358.839
L507.091 360.939
L507.686 362.361
L508.282 363.08
L508.877 330.916
L510.067 330.795
L510.662 212.843
L511.258 214.7
L513.043 236.74
L513.043 236.74" style="fill:none;stroke:#0000ff;stroke-linecap:square;stroke-width:4;"/>
   </g>
   <g id="line2d_3">
    <path clip-path="url(#p332b41defa)" d="
M72 203.705
L72.5952 270.008
L73.1904 276.348
L73.7856 269.832
L74.3808 267.491
L74.976 267.043
L75.5712 268.588
L76.7616 274.779
L77.3568 277.914
L77.952 280.343
L78.5472 281.676
L79.1424 289.284
L80.3328 323.946
L80.928 324.713
L81.5232 324.235
L82.1184 324.006
L82.7136 323.919
L83.3088 326.827
L84.4992 330.894
L85.0944 332.307
L85.6896 333.058
L86.88 350.821
L88.6656 360.348
L89.856 365.764
L91.0464 370.014
L92.2368 372.975
L92.832 374.005
L93.4272 374.756
L94.0224 375.246
L94.6176 375.487
L95.2128 356.812
L95.808 357.688
L96.4032 358.314
L96.9984 358.642
L97.5936 361.747
L98.784 365.6
L99.3792 366.956
L99.9744 367.881
L100.57 368.349
L101.165 364.309
L102.355 368.454
L102.95 369.98
L103.546 371.128
L104.141 371.894
L104.736 372.277
L105.331 351.897
L105.926 351.784
L107.117 351.885
L107.712 361.677
L108.307 364.376
L108.902 366.136
L109.498 369.116
L111.283 373.659
L111.878 374.711
L112.474 375.52
L113.069 376.121
L113.664 376.543
L114.259 376.812
L114.854 376.942
L115.45 370.248
L117.235 372.686
L117.83 372.993
L118.426 367.574
L119.021 370.076
L120.211 373.998
L122.592 376.459
L123.782 377.172
L124.973 377.565
L126.758 377.789
L127.354 375.042
L129.139 376.587
L130.33 377.19
L131.52 377.415
L132.115 375.679
L133.306 376.951
L134.496 377.458
L136.282 377.807
L137.472 377.877
L138.067 377.229
L139.258 377.582
L140.448 377.714
L141.043 371.03
L142.234 372.742
L142.829 373.337
L143.424 373.746
L144.019 373.953
L144.614 373.504
L145.805 374.201
L146.4 374.348
L146.995 375.419
L147.59 376.237
L148.781 376.939
L149.971 377.396
L151.757 377.761
L154.138 377.91
L154.733 376.62
L155.923 377.195
L157.114 377.554
L158.899 377.835
L161.875 377.973
L163.066 377.983
L163.661 376.441
L164.851 377.051
L166.042 377.455
L167.827 377.783
L170.208 377.918
L170.803 377.073
L172.589 377.59
L174.374 377.841
L177.35 377.973
L178.541 377.982
L179.136 377.451
L180.922 377.785
L183.302 377.957
L189.85 377.988
L190.445 377.99
L191.04 377.666
L192.826 377.912
L196.992 377.993
L210.682 377.987
L211.277 377.764
L213.062 377.937
L218.419 377.998
L305.318 378
L305.914 301.882
L306.509 309.054
L307.104 311.27
L308.294 322.076
L310.08 338.972
L310.675 343.464
L311.27 347.01
L311.866 349.459
L312.461 350.709
L313.056 316.758
L316.032 347.126
L317.222 355.903
L317.818 358.942
L318.413 360.995
L319.008 362.03
L319.603 307.118
L320.198 311.528
L321.984 331.992
L323.174 342.887
L323.77 346.79
L324.365 349.493
L324.96 350.868
L325.555 310.385
L327.341 315.729
L327.936 321.76
L328.531 325.93
L329.126 328.061
L329.722 308.33
L330.317 299.806
L330.912 299.585
L332.102 300.098
L332.698 301.718
L333.293 305.497
L333.888 307.456
L334.483 311.317
L335.078 310.489
L336.864 328.907
L337.459 333.841
L338.054 340.681
L338.65 345.743
L339.245 348.975
L339.84 350.31
L340.435 315.436
L342.221 331.907
L342.816 338.375
L343.411 343.329
L344.006 346.707
L344.602 348.428
L345.197 321.759
L346.387 334.91
L347.578 344.67
L348.173 347.883
L348.768 349.501
L349.363 279.104
L349.958 304.481
L350.554 322.779
L351.149 328.747
L352.339 334.25
L353.53 340.107
L354.125 342.41
L354.72 344.059
L355.315 344.919
L355.91 332.644
L358.886 354.515
L360.077 360.719
L360.672 362.861
L361.267 364.307
L361.862 365.036
L362.458 335.803
L363.053 344.645
L365.434 357.251
L366.624 362.082
L367.219 363.788
L367.814 364.956
L368.41 365.549
L369.005 350.724
L370.195 362.917
L370.79 366.68
L371.981 370.026
L373.171 372.377
L373.766 373.161
L374.362 373.683
L374.957 373.944
L375.552 368.469
L376.742 371.336
L377.338 372.383
L377.933 373.166
L378.528 373.688
L379.123 373.948
L379.718 365.152
L380.909 368.967
L382.099 371.797
L382.694 372.819
L383.29 373.585
L383.885 374.093
L384.48 374.346
L385.075 340.702
L386.266 351.104
L386.861 352.057
L387.456 352.74
L388.051 353.114
L388.646 355.343
L389.837 363.42
L391.027 370.201
L391.622 371.595
L392.218 372.68
L392.813 373.486
L393.408 374.018
L394.003 374.283
L394.598 371.762
L395.789 374.044
L396.384 374.826
L396.979 375.393
L397.574 375.762
L398.17 375.943
L398.765 313.82
L399.955 336.798
L401.146 346.22
L402.931 361.809
L404.122 366.49
L405.312 369.868
L405.907 371.006
L406.502 371.769
L407.098 372.152
L407.693 364.289
L408.883 368.343
L409.478 369.854
L410.074 370.996
L410.669 371.76
L411.264 372.143
L411.859 345.08
L414.835 360.653
L415.43 362.892
L416.026 364.622
L416.621 365.801
L417.216 366.401
L417.811 350.471
L419.002 361.34
L420.192 364.881
L420.787 366.162
L421.382 367.045
L421.978 367.496
L422.573 364.662
L423.763 370.592
L424.954 372.92
L425.549 373.689
L426.144 374.199
L426.739 374.453
L427.334 371.888
L427.93 372.923
L428.525 373.694
L429.12 374.204
L429.715 374.458
L430.31 265.695
L430.906 256.299
L431.501 251.478
L432.096 267.707
L432.691 269.233
L433.286 273.657
L433.882 266.051
L434.477 260.799
L435.072 258.134
L435.667 288.082
L436.858 322.506
L438.643 336.23
L439.238 340.053
L439.834 343.119
L440.429 345.269
L441.024 346.377
L441.619 336.27
L443.405 352.233
L444.595 361.147
L445.786 368.22
L446.381 369.64
L446.976 370.581
L447.571 371.05
L448.166 369.64
L448.762 370.583
L449.357 371.054
L449.952 344.641
L451.142 360.5
L451.738 365.167
L452.333 367.169
L452.928 368.76
L453.523 369.964
L454.118 370.77
L454.714 371.175
L455.309 367.57
L456.499 371.314
L457.094 372.707
L457.69 373.812
L458.285 374.658
L458.88 375.269
L459.475 375.664
L460.07 375.858
L460.666 363.425
L461.856 368.233
L463.046 371.616
L463.642 372.8
L464.237 373.667
L464.832 374.235
L465.427 374.516
L466.022 280.91
L466.618 279.139
L467.213 279.89
L467.808 282.878
L468.403 287.843
L469.594 301.685
L471.379 323.777
L471.974 329.768
L472.57 334.565
L473.165 337.879
L473.76 339.573
L474.355 296.147
L474.95 307.774
L476.141 324.87
L476.736 334.278
L478.522 348.892
L479.712 356.711
L480.307 359.698
L480.902 361.983
L481.498 363.525
L482.093 364.303
L482.688 338.689
L483.878 346.781
L484.474 350.083
L485.069 352.686
L485.664 354.483
L486.259 355.4
L486.854 312.613
L488.045 325.654
L490.426 355.177
L491.616 362.46
L492.806 367.861
L493.402 369.853
L493.997 371.403
L494.592 372.536
L495.187 373.277
L495.782 373.643
L496.378 358.233
L496.973 360.756
L497.568 362.706
L498.163 364.034
L498.758 364.707
L499.354 301.661
L500.544 316.875
L502.33 343.719
L503.52 351.262
L504.115 353.894
L504.71 355.689
L505.306 356.599
L505.901 347.873
L506.496 351.317
L507.091 353.982
L507.686 355.796
L508.282 356.716
L508.877 316.552
L509.472 316.338
L510.067 316.272
L510.662 149.988
L511.258 117.919
L511.853 94.7676
L512.448 80.0853
L513.043 73.0584
L513.043 73.0584" style="fill:none;stroke:#ff0000;stroke-linecap:square;stroke-width:2;"/>
   </g>
   <g id="patch_3">
    <path d="
M72 43.2
L518.4 43.2" style="fill:none;stroke:#000000;stroke-linecap:square;stroke-linejoin:miter;"/>
   </g>
   <g id="patch_4">
    <path d="
M518.4 378
L518.4 43.2" style="fill:none;stroke:#000000;stroke-linecap:square;stroke-linejoin:miter;"/>
   </g>
   <g id="patch_5">
    <path d="
M72 378
L518.4 378" style="fill:none;stroke:#000000;stroke-linecap:square;stroke-linejoin:miter;"/>
   </g>
   <g id="patch_6">
    <path d="
M72 378
L72 43.2" style="fill:none;stroke:#000000;stroke-linecap:square;stroke-linejoin:miter;"/>
   </g>
   <g id="matplotlib.axis_1">
    <g id="xtick_1">
     <g id="line2d_4">
      <defs>
       <path d="
M0 0
L0 -4" id="m93b0483c22" style="stroke:#000000;stroke-width:0.5;"/>
      </defs>
      <g>
       <use style="stroke:#000000;stroke-width:0.5;" x="72.0" xlink:href="#m93b0483c22" y="378.0"/>
      </g>
     </g>
     <g id="line2d_5">
      <defs>
       <path d="
M0 0
L0 4" id="m741efc42ff" style="stroke:#000000;stroke-width:0.5;"/>
      </defs>
      <g>
       <use style="stroke:#000000;stroke-width:0.5;" x="72.0" xlink:href="#m741efc42ff" y="43.2"/>
      </g>
     </g>
     <g id="text_1">
      <!-- 0 -->
      <defs>
       <path d="
M31.7812 66.4062
Q24.1719 66.4062 20.3281 58.9062
Q16.5 51.4219 16.5 36.375
Q16.5 21.3906 20.3281 13.8906
Q24.1719 6.39062 31.7812 6.39062
Q39.4531 6.39062 43.2812 13.8906
Q47.125 21.3906 47.125 36.375
Q47.125 51.4219 43.2812 58.9062
Q39.4531 66.4062 31.7812 66.4062
M31.7812 74.2188
Q44.0469 74.2188 50.5156 64.5156
Q56.9844 54.8281 56.9844 36.375
Q56.9844 17.9688 50.5156 8.26562
Q44.0469 -1.42188 31.7812 -1.42188
Q19.5312 -1.42188 13.0625 8.26562
Q6.59375 17.9688 6.59375 36.375
Q6.59375 54.8281 13.0625 64.5156
Q19.5312 74.2188 31.7812 74.2188" id="BitstreamVeraSans-Roman-30"/>
      </defs>
      <g transform="translate(68.47265625 392.6378125)scale(0.14 -0.14)">
       <use xlink:href="#BitstreamVeraSans-Roman-30"/>
      </g>
     </g>
    </g>
    <g id="xtick_2">
     <g id="line2d_6">
      <g>
       <use style="stroke:#000000;stroke-width:0.5;" x="220.8" xlink:href="#m93b0483c22" y="378.0"/>
      </g>
     </g>
     <g id="line2d_7">
      <g>
       <use style="stroke:#000000;stroke-width:0.5;" x="220.8" xlink:href="#m741efc42ff" y="43.2"/>
      </g>
     </g>
     <g id="text_2">
      <!-- 250 -->
      <defs>
       <path d="
M19.1875 8.29688
L53.6094 8.29688
L53.6094 0
L7.32812 0
L7.32812 8.29688
Q12.9375 14.1094 22.625 23.8906
Q32.3281 33.6875 34.8125 36.5312
Q39.5469 41.8438 41.4219 45.5312
Q43.3125 49.2188 43.3125 52.7812
Q43.3125 58.5938 39.2344 62.25
Q35.1562 65.9219 28.6094 65.9219
Q23.9688 65.9219 18.8125 64.3125
Q13.6719 62.7031 7.8125 59.4219
L7.8125 69.3906
Q13.7656 71.7812 18.9375 73
Q24.125 74.2188 28.4219 74.2188
Q39.75 74.2188 46.4844 68.5469
Q53.2188 62.8906 53.2188 53.4219
Q53.2188 48.9219 51.5312 44.8906
Q49.8594 40.875 45.4062 35.4062
Q44.1875 33.9844 37.6406 27.2188
Q31.1094 20.4531 19.1875 8.29688" id="BitstreamVeraSans-Roman-32"/>
       <path d="
M10.7969 72.9062
L49.5156 72.9062
L49.5156 64.5938
L19.8281 64.5938
L19.8281 46.7344
Q21.9688 47.4688 24.1094 47.8281
Q26.2656 48.1875 28.4219 48.1875
Q40.625 48.1875 47.75 41.5
Q54.8906 34.8125 54.8906 23.3906
Q54.8906 11.625 47.5625 5.09375
Q40.2344 -1.42188 26.9062 -1.42188
Q22.3125 -1.42188 17.5469 -0.640625
Q12.7969 0.140625 7.71875 1.70312
L7.71875 11.625
Q12.1094 9.23438 16.7969 8.0625
Q21.4844 6.89062 26.7031 6.89062
Q35.1562 6.89062 40.0781 11.3281
Q45.0156 15.7656 45.0156 23.3906
Q45.0156 31 40.0781 35.4375
Q35.1562 39.8906 26.7031 39.8906
Q22.75 39.8906 18.8125 39.0156
Q14.8906 38.1406 10.7969 36.2812
z
" id="BitstreamVeraSans-Roman-35"/>
      </defs>
      <g transform="translate(208.4165625 392.6378125)scale(0.14 -0.14)">
       <use xlink:href="#BitstreamVeraSans-Roman-32"/>
       <use x="63.623046875" xlink:href="#BitstreamVeraSans-Roman-35"/>
       <use x="127.24609375" xlink:href="#BitstreamVeraSans-Roman-30"/>
      </g>
     </g>
    </g>
    <g id="xtick_3">
     <g id="line2d_8">
      <g>
       <use style="stroke:#000000;stroke-width:0.5;" x="369.6" xlink:href="#m93b0483c22" y="378.0"/>
      </g>
     </g>
     <g id="line2d_9">
      <g>
       <use style="stroke:#000000;stroke-width:0.5;" x="369.6" xlink:href="#m741efc42ff" y="43.2"/>
      </g>
     </g>
     <g id="text_3">
      <!-- 500 -->
      <g transform="translate(357.24390625 392.6378125)scale(0.14 -0.14)">
       <use xlink:href="#BitstreamVeraSans-Roman-35"/>
       <use x="63.623046875" xlink:href="#BitstreamVeraSans-Roman-30"/>
       <use x="127.24609375" xlink:href="#BitstreamVeraSans-Roman-30"/>
      </g>
     </g>
    </g>
    <g id="xtick_4">
     <g id="line2d_10">
      <g>
       <use style="stroke:#000000;stroke-width:0.5;" x="518.4" xlink:href="#m93b0483c22" y="378.0"/>
      </g>
     </g>
     <g id="line2d_11">
      <g>
       <use style="stroke:#000000;stroke-width:0.5;" x="518.4" xlink:href="#m741efc42ff" y="43.2"/>
      </g>
     </g>
     <g id="text_4">
      <!-- 750 -->
      <defs>
       <path d="
M8.20312 72.9062
L55.0781 72.9062
L55.0781 68.7031
L28.6094 0
L18.3125 0
L43.2188 64.5938
L8.20312 64.5938
z
" id="BitstreamVeraSans-Roman-37"/>
      </defs>
      <g transform="translate(506.0778125 392.6378125)scale(0.14 -0.14)">
       <use xlink:href="#BitstreamVeraSans-Roman-37"/>
       <use x="63.623046875" xlink:href="#BitstreamVeraSans-Roman-35"/>
       <use x="127.24609375" xlink:href="#BitstreamVeraSans-Roman-30"/>
      </g>
     </g>
    </g>
    <g id="text_5">
     <!-- compartment number -->
     <defs>
      <path d="
M32.9062 24.6094
Q27.4375 24.6094 24.6719 22.75
Q21.9219 20.9062 21.9219 17.2812
Q21.9219 13.9688 24.1406 12.0781
Q26.375 10.2031 30.3281 10.2031
Q35.25 10.2031 38.625 13.7344
Q42 17.2812 42 22.6094
L42 24.6094
z

M59.625 31.2031
L59.625 0
L42 0
L42 8.10938
Q38.4844 3.125 34.0781 0.84375
Q29.6875 -1.42188 23.3906 -1.42188
Q14.8906 -1.42188 9.59375 3.53125
Q4.29688 8.5 4.29688 16.4062
Q4.29688 26.0312 10.9062 30.5156
Q17.5312 35.0156 31.6875 35.0156
L42 35.0156
L42 36.375
Q42 40.5312 38.7188 42.4531
Q35.4531 44.3906 28.5156 44.3906
Q22.9062 44.3906 18.0625 43.2656
Q13.2344 42.1406 9.07812 39.8906
L9.07812 53.2188
Q14.7031 54.5938 20.3594 55.2969
Q26.0312 56 31.6875 56
Q46.4844 56 53.0469 50.1719
Q59.625 44.3438 59.625 31.2031" id="BitstreamVeraSans-Bold-61"/>
      <path id="BitstreamVeraSans-Bold-20"/>
      <path d="
M37.5 11.2812
Q43.1094 11.2812 46.0625 15.375
Q49.0312 19.4844 49.0312 27.2969
Q49.0312 35.1094 46.0625 39.2031
Q43.1094 43.3125 37.5 43.3125
Q31.8906 43.3125 28.875 39.1875
Q25.875 35.0625 25.875 27.2969
Q25.875 19.5312 28.875 15.4062
Q31.8906 11.2812 37.5 11.2812
M25.875 46.6875
Q29.5 51.4688 33.8906 53.7344
Q38.2812 56 44 56
Q54.1094 56 60.5938 47.9688
Q67.0938 39.9375 67.0938 27.2969
Q67.0938 14.6562 60.5938 6.60938
Q54.1094 -1.42188 44 -1.42188
Q38.2812 -1.42188 33.8906 0.84375
Q29.5 3.125 25.875 7.90625
L25.875 0
L8.40625 0
L8.40625 75.9844
L25.875 75.9844
z
" id="BitstreamVeraSans-Bold-62"/>
      <path d="
M52.5938 52.9844
L52.5938 38.7188
Q49.0312 41.1562 45.4375 42.3281
Q41.8438 43.5 37.9844 43.5
Q30.6719 43.5 26.5938 39.2344
Q22.5156 34.9688 22.5156 27.2969
Q22.5156 19.625 26.5938 15.3438
Q30.6719 11.0781 37.9844 11.0781
Q42.0938 11.0781 45.7812 12.2969
Q49.4688 13.5312 52.5938 15.9219
L52.5938 1.60938
Q48.4844 0.09375 44.2656 -0.65625
Q40.0469 -1.42188 35.7969 -1.42188
Q21 -1.42188 12.6406 6.17188
Q4.29688 13.7656 4.29688 27.2969
Q4.29688 40.8281 12.6406 48.4062
Q21 56 35.7969 56
Q40.0938 56 44.2656 55.25
Q48.4375 54.5 52.5938 52.9844" id="BitstreamVeraSans-Bold-63"/>
      <path d="
M49.0312 39.7969
Q46.7344 40.875 44.4531 41.375
Q42.1875 41.8906 39.8906 41.8906
Q33.1562 41.8906 29.5156 37.5625
Q25.875 33.25 25.875 25.2031
L25.875 0
L8.40625 0
L8.40625 54.6875
L25.875 54.6875
L25.875 45.7031
Q29.25 51.0781 33.6094 53.5312
Q37.9844 56 44.0938 56
Q44.9688 56 45.9844 55.9219
Q47.0156 55.8594 48.9688 55.6094
z
" id="BitstreamVeraSans-Bold-72"/>
      <path d="
M7.8125 21.2969
L7.8125 54.6875
L25.3906 54.6875
L25.3906 49.2188
Q25.3906 44.7812 25.3438 38.0625
Q25.2969 31.3438 25.2969 29.1094
Q25.2969 22.5156 25.6406 19.6094
Q25.9844 16.7031 26.8125 15.375
Q27.875 13.6719 29.6094 12.7344
Q31.3438 11.8125 33.5938 11.8125
Q39.0625 11.8125 42.1875 16.0156
Q45.3125 20.2188 45.3125 27.6875
L45.3125 54.6875
L62.7969 54.6875
L62.7969 0
L45.3125 0
L45.3125 7.90625
Q41.3594 3.125 36.9375 0.84375
Q32.5156 -1.42188 27.2031 -1.42188
Q17.7188 -1.42188 12.7656 4.39062
Q7.8125 10.2031 7.8125 21.2969" id="BitstreamVeraSans-Bold-75"/>
      <path d="
M27.4844 70.2188
L27.4844 54.6875
L45.5156 54.6875
L45.5156 42.1875
L27.4844 42.1875
L27.4844 19
Q27.4844 15.1875 29 13.8438
Q30.5156 12.5 35.0156 12.5
L44 12.5
L44 0
L29 0
Q18.6562 0 14.3281 4.3125
Q10.0156 8.64062 10.0156 19
L10.0156 42.1875
L1.3125 42.1875
L1.3125 54.6875
L10.0156 54.6875
L10.0156 70.2188
z
" id="BitstreamVeraSans-Bold-74"/>
      <path d="
M62.9844 27.4844
L62.9844 22.5156
L22.125 22.5156
Q22.75 16.3594 26.5625 13.2812
Q30.375 10.2031 37.2031 10.2031
Q42.7188 10.2031 48.5 11.8438
Q54.2969 13.4844 60.4062 16.7969
L60.4062 3.32812
Q54.2031 0.984375 48 -0.21875
Q41.7969 -1.42188 35.5938 -1.42188
Q20.75 -1.42188 12.5156 6.125
Q4.29688 13.6719 4.29688 27.2969
Q4.29688 40.6719 12.375 48.3281
Q20.4531 56 34.625 56
Q47.5156 56 55.25 48.2344
Q62.9844 40.4844 62.9844 27.4844
M45.0156 33.2969
Q45.0156 38.2812 42.1094 41.3281
Q39.2031 44.3906 34.5156 44.3906
Q29.4375 44.3906 26.2656 41.5312
Q23.0938 38.6719 22.3125 33.2969
z
" id="BitstreamVeraSans-Bold-65"/>
      <path d="
M25.875 7.90625
L25.875 -20.7969
L8.40625 -20.7969
L8.40625 54.6875
L25.875 54.6875
L25.875 46.6875
Q29.5 51.4688 33.8906 53.7344
Q38.2812 56 44 56
Q54.1094 56 60.5938 47.9688
Q67.0938 39.9375 67.0938 27.2969
Q67.0938 14.6562 60.5938 6.60938
Q54.1094 -1.42188 44 -1.42188
Q38.2812 -1.42188 33.8906 0.84375
Q29.5 3.125 25.875 7.90625
M37.5 43.3125
Q31.8906 43.3125 28.875 39.1875
Q25.875 35.0625 25.875 27.2969
Q25.875 19.5312 28.875 15.4062
Q31.8906 11.2812 37.5 11.2812
Q43.1094 11.2812 46.0625 15.375
Q49.0312 19.4844 49.0312 27.2969
Q49.0312 35.1094 46.0625 39.2031
Q43.1094 43.3125 37.5 43.3125" id="BitstreamVeraSans-Bold-70"/>
      <path d="
M34.4219 43.5
Q28.6094 43.5 25.5625 39.3281
Q22.5156 35.1562 22.5156 27.2969
Q22.5156 19.4375 25.5625 15.25
Q28.6094 11.0781 34.4219 11.0781
Q40.1406 11.0781 43.1562 15.25
Q46.1875 19.4375 46.1875 27.2969
Q46.1875 35.1562 43.1562 39.3281
Q40.1406 43.5 34.4219 43.5
M34.4219 56
Q48.5312 56 56.4688 48.375
Q64.4062 40.7656 64.4062 27.2969
Q64.4062 13.8125 56.4688 6.1875
Q48.5312 -1.42188 34.4219 -1.42188
Q20.2656 -1.42188 12.2812 6.1875
Q4.29688 13.8125 4.29688 27.2969
Q4.29688 40.7656 12.2812 48.375
Q20.2656 56 34.4219 56" id="BitstreamVeraSans-Bold-6f"/>
      <path d="
M59.0781 45.6094
Q62.4062 50.6875 66.9688 53.3438
Q71.5312 56 77 56
Q86.4219 56 91.3594 50.1875
Q96.2969 44.3906 96.2969 33.2969
L96.2969 0
L78.7188 0
L78.7188 28.5156
Q78.7656 29.1562 78.7812 29.8281
Q78.8125 30.5156 78.8125 31.7812
Q78.8125 37.5938 77.0938 40.2031
Q75.3906 42.8281 71.5781 42.8281
Q66.6094 42.8281 63.8906 38.7188
Q61.1875 34.625 61.0781 26.8594
L61.0781 0
L43.5 0
L43.5 28.5156
Q43.5 37.5938 41.9375 40.2031
Q40.375 42.8281 36.375 42.8281
Q31.3438 42.8281 28.6094 38.7031
Q25.875 34.5781 25.875 26.9062
L25.875 0
L8.29688 0
L8.29688 54.6875
L25.875 54.6875
L25.875 46.6875
Q29.1094 51.3125 33.2812 53.6562
Q37.4531 56 42.4844 56
Q48.1406 56 52.4844 53.2656
Q56.8438 50.5312 59.0781 45.6094" id="BitstreamVeraSans-Bold-6d"/>
      <path d="
M63.375 33.2969
L63.375 0
L45.7969 0
L45.7969 5.42188
L45.7969 25.4844
Q45.7969 32.5625 45.4844 35.25
Q45.1719 37.9375 44.3906 39.2031
Q43.3594 40.9219 41.5938 41.875
Q39.8438 42.8281 37.5938 42.8281
Q32.125 42.8281 29 38.5938
Q25.875 34.375 25.875 26.9062
L25.875 0
L8.40625 0
L8.40625 54.6875
L25.875 54.6875
L25.875 46.6875
Q29.8281 51.4688 34.2656 53.7344
Q38.7188 56 44.0938 56
Q53.5625 56 58.4688 50.1875
Q63.375 44.3906 63.375 33.2969" id="BitstreamVeraSans-Bold-6e"/>
     </defs>
     <g transform="translate(196.86375 412.706875)scale(0.16 -0.16)">
      <use xlink:href="#BitstreamVeraSans-Bold-63"/>
      <use x="59.27734375" xlink:href="#BitstreamVeraSans-Bold-6f"/>
      <use x="127.978515625" xlink:href="#BitstreamVeraSans-Bold-6d"/>
      <use x="232.177734375" xlink:href="#BitstreamVeraSans-Bold-70"/>
      <use x="303.759765625" xlink:href="#BitstreamVeraSans-Bold-61"/>
      <use x="371.240234375" xlink:href="#BitstreamVeraSans-Bold-72"/>
      <use x="420.556640625" xlink:href="#BitstreamVeraSans-Bold-74"/>
      <use x="468.359375" xlink:href="#BitstreamVeraSans-Bold-6d"/>
      <use x="572.55859375" xlink:href="#BitstreamVeraSans-Bold-65"/>
      <use x="640.380859375" xlink:href="#BitstreamVeraSans-Bold-6e"/>
      <use x="711.572265625" xlink:href="#BitstreamVeraSans-Bold-74"/>
      <use x="759.375" xlink:href="#BitstreamVeraSans-Bold-20"/>
      <use x="794.189453125" xlink:href="#BitstreamVeraSans-Bold-6e"/>
      <use x="865.380859375" xlink:href="#BitstreamVeraSans-Bold-75"/>
      <use x="936.572265625" xlink:href="#BitstreamVeraSans-Bold-6d"/>
      <use x="1040.77148438" xlink:href="#BitstreamVeraSans-Bold-62"/>
      <use x="1112.35351562" xlink:href="#BitstreamVeraSans-Bold-65"/>
      <use x="1180.17578125" xlink:href="#BitstreamVeraSans-Bold-72"/>
     </g>
    </g>
   </g>
   <g id="matplotlib.axis_2">
    <g id="ytick_1">
     <g id="line2d_12">
      <defs>
       <path d="
M0 0
L4 0" id="m728421d6d4" style="stroke:#000000;stroke-width:0.5;"/>
      </defs>
      <g>
       <use style="stroke:#000000;stroke-width:0.5;" x="72.0" xlink:href="#m728421d6d4" y="372.42"/>
      </g>
     </g>
     <g id="line2d_13">
      <defs>
       <path d="
M0 0
L-4 0" id="mcb0005524f" style="stroke:#000000;stroke-width:0.5;"/>
      </defs>
      <g>
       <use style="stroke:#000000;stroke-width:0.5;" x="518.4" xlink:href="#mcb0005524f" y="372.42"/>
      </g>
     </g>
     <g id="text_6">
      <!-- 0.05 -->
      <defs>
       <path d="
M10.6875 12.4062
L21 12.4062
L21 0
L10.6875 0
z
" id="BitstreamVeraSans-Roman-2e"/>
      </defs>
      <g transform="translate(38.9740625 376.283125)scale(0.14 -0.14)">
       <use xlink:href="#BitstreamVeraSans-Roman-30"/>
       <use x="63.623046875" xlink:href="#BitstreamVeraSans-Roman-2e"/>
       <use x="95.41015625" xlink:href="#BitstreamVeraSans-Roman-30"/>
       <use x="159.033203125" xlink:href="#BitstreamVeraSans-Roman-35"/>
      </g>
     </g>
    </g>
    <g id="ytick_2">
     <g id="line2d_14">
      <g>
       <use style="stroke:#000000;stroke-width:0.5;" x="72.0" xlink:href="#m728421d6d4" y="366.84"/>
      </g>
     </g>
     <g id="line2d_15">
      <g>
       <use style="stroke:#000000;stroke-width:0.5;" x="518.4" xlink:href="#mcb0005524f" y="366.84"/>
      </g>
     </g>
     <g id="text_7">
      <!-- 0.10 -->
      <defs>
       <path d="
M12.4062 8.29688
L28.5156 8.29688
L28.5156 63.9219
L10.9844 60.4062
L10.9844 69.3906
L28.4219 72.9062
L38.2812 72.9062
L38.2812 8.29688
L54.3906 8.29688
L54.3906 0
L12.4062 0
z
" id="BitstreamVeraSans-Roman-31"/>
      </defs>
      <g transform="translate(38.6809375 370.703125)scale(0.14 -0.14)">
       <use xlink:href="#BitstreamVeraSans-Roman-30"/>
       <use x="63.623046875" xlink:href="#BitstreamVeraSans-Roman-2e"/>
       <use x="95.41015625" xlink:href="#BitstreamVeraSans-Roman-31"/>
       <use x="159.033203125" xlink:href="#BitstreamVeraSans-Roman-30"/>
      </g>
     </g>
    </g>
    <g id="ytick_3">
     <g id="line2d_16">
      <g>
       <use style="stroke:#000000;stroke-width:0.5;" x="72.0" xlink:href="#m728421d6d4" y="361.26"/>
      </g>
     </g>
     <g id="line2d_17">
      <g>
       <use style="stroke:#000000;stroke-width:0.5;" x="518.4" xlink:href="#mcb0005524f" y="361.26"/>
      </g>
     </g>
     <g id="text_8">
      <!-- 0.15 -->
      <g transform="translate(38.9740625 365.123125)scale(0.14 -0.14)">
       <use xlink:href="#BitstreamVeraSans-Roman-30"/>
       <use x="63.623046875" xlink:href="#BitstreamVeraSans-Roman-2e"/>
       <use x="95.41015625" xlink:href="#BitstreamVeraSans-Roman-31"/>
       <use x="159.033203125" xlink:href="#BitstreamVeraSans-Roman-35"/>
      </g>
     </g>
    </g>
    <g id="text_9">
     <!-- normalized concentration -->
     <defs>
      <path d="
M5.71875 54.6875
L53.4219 54.6875
L53.4219 42.4844
L24.6094 12.5
L53.4219 12.5
L53.4219 0
L4.5 0
L4.5 12.2031
L33.2969 42.1875
L5.71875 42.1875
z
" id="BitstreamVeraSans-Bold-7a"/>
      <path d="
M8.40625 75.9844
L25.875 75.9844
L25.875 0
L8.40625 0
z
" id="BitstreamVeraSans-Bold-6c"/>
      <path d="
M8.40625 54.6875
L25.875 54.6875
L25.875 0
L8.40625 0
z

M8.40625 75.9844
L25.875 75.9844
L25.875 61.7188
L8.40625 61.7188
z
" id="BitstreamVeraSans-Bold-69"/>
      <path d="
M45.6094 46.6875
L45.6094 75.9844
L63.1875 75.9844
L63.1875 0
L45.6094 0
L45.6094 7.90625
Q42 3.07812 37.6406 0.828125
Q33.2969 -1.42188 27.5938 -1.42188
Q17.4844 -1.42188 10.9844 6.60938
Q4.5 14.6562 4.5 27.2969
Q4.5 39.9375 10.9844 47.9688
Q17.4844 56 27.5938 56
Q33.25 56 37.625 53.7344
Q42 51.4688 45.6094 46.6875
M34.0781 11.2812
Q39.7031 11.2812 42.6562 15.375
Q45.6094 19.4844 45.6094 27.2969
Q45.6094 35.1094 42.6562 39.2031
Q39.7031 43.3125 34.0781 43.3125
Q28.5156 43.3125 25.5625 39.2031
Q22.6094 35.1094 22.6094 27.2969
Q22.6094 19.4844 25.5625 15.375
Q28.5156 11.2812 34.0781 11.2812" id="BitstreamVeraSans-Bold-64"/>
     </defs>
     <g transform="translate(30.3534375 325.6475)rotate(-90.0)scale(0.16 -0.16)">
      <use xlink:href="#BitstreamVeraSans-Bold-6e"/>
      <use x="71.19140625" xlink:href="#BitstreamVeraSans-Bold-6f"/>
      <use x="139.892578125" xlink:href="#BitstreamVeraSans-Bold-72"/>
      <use x="189.208984375" xlink:href="#BitstreamVeraSans-Bold-6d"/>
      <use x="293.408203125" xlink:href="#BitstreamVeraSans-Bold-61"/>
      <use x="360.888671875" xlink:href="#BitstreamVeraSans-Bold-6c"/>
      <use x="395.166015625" xlink:href="#BitstreamVeraSans-Bold-69"/>
      <use x="429.443359375" xlink:href="#BitstreamVeraSans-Bold-7a"/>
      <use x="487.646484375" xlink:href="#BitstreamVeraSans-Bold-65"/>
      <use x="555.46875" xlink:href="#BitstreamVeraSans-Bold-64"/>
      <use x="627.05078125" xlink:href="#BitstreamVeraSans-Bold-20"/>
      <use x="661.865234375" xlink:href="#BitstreamVeraSans-Bold-63"/>
      <use x="721.142578125" xlink:href="#BitstreamVeraSans-Bold-6f"/>
      <use x="789.84375" xlink:href="#BitstreamVeraSans-Bold-6e"/>
      <use x="861.03515625" xlink:href="#BitstreamVeraSans-Bold-63"/>
      <use x="920.3125" xlink:href="#BitstreamVeraSans-Bold-65"/>
      <use x="988.134765625" xlink:href="#BitstreamVeraSans-Bold-6e"/>
      <use x="1059.32617188" xlink:href="#BitstreamVeraSans-Bold-74"/>
      <use x="1107.12890625" xlink:href="#BitstreamVeraSans-Bold-72"/>
      <use x="1156.4453125" xlink:href="#BitstreamVeraSans-Bold-61"/>
      <use x="1223.92578125" xlink:href="#BitstreamVeraSans-Bold-74"/>
      <use x="1271.72851562" xlink:href="#BitstreamVeraSans-Bold-69"/>
      <use x="1306.00585938" xlink:href="#BitstreamVeraSans-Bold-6f"/>
      <use x="1374.70703125" xlink:href="#BitstreamVeraSans-Bold-6e"/>
     </g>
    </g>
   </g>
  </g>
 </g>
 <defs>
  <clipPath id="p332b41defa">
   <rect height="334.8" width="446.4" x="72.0" y="43.2"/>
  </clipPath>
 </defs>
</svg>
