<?xml version="1.0" encoding="utf-8" standalone="no"?>
<!DOCTYPE svg PUBLIC "-//W3C//DTD SVG 1.1//EN"
  "http://www.w3.org/Graphics/SVG/1.1/DTD/svg11.dtd">
<!-- Created with matplotlib (http://matplotlib.org/) -->
<svg height="432pt" version="1.1" viewBox="0 0 576 432" width="576pt" xmlns="http://www.w3.org/2000/svg" xmlns:xlink="http://www.w3.org/1999/xlink">
 <defs>
  <style type="text/css">
*{stroke-linecap:butt;stroke-linejoin:round;}
  </style>
 </defs>
 <g id="figure_1">
  <g id="patch_1">
   <path d="
M0 432
L576 432
L576 0
L0 0
z
" style="fill:#ffffff;"/>
  </g>
  <g id="axes_1">
   <g id="patch_2">
    <path d="
M72 378
L518.4 378
L518.4 43.2
L72 43.2
z
" style="fill:#ffffff;"/>
   </g>
   <g id="line2d_1">
    <path clip-path="url(#p332b41defa)" d="
M72 329.655
L72.5952 329.334
L73.7856 322.768
L74.3808 321.909
L74.976 320.788
L75.5712 320.177
L76.7616 319.983
L78.5472 320.223
L79.1424 321.29
L80.3328 314.314
L80.928 312.557
L82.1184 312.358
L85.6896 312.355
L86.2848 310.762
L86.88 308.782
L87.4752 309.103
L89.2608 310.9
L90.4512 312.721
L91.6416 314.464
L93.4272 316.604
L94.0224 317.049
L94.6176 317.292
L95.2128 308.897
L98.784 309.187
L100.57 309.467
L101.165 309.119
L103.546 310.302
L104.736 310.615
L105.331 308.03
L105.926 307.266
L107.117 307.254
L107.712 303.037
L108.307 287.615
L108.902 254.061
L109.498 235.934
L110.093 232.477
L111.283 247.853
L112.474 258.658
L113.069 262.504
L113.664 265.373
L114.259 267.289
L114.854 268.255
L115.45 213.116
L116.045 186.235
L116.64 165.12
L117.235 160.68
L117.83 153.125
L118.426 297.627
L119.021 291.126
L120.211 242.459
L120.806 227.707
L121.402 220.281
L121.997 223.606
L122.592 225.604
L123.187 226.272
L123.782 225.591
L124.378 223.521
L124.973 220
L125.568 214.939
L126.163 218.227
L126.758 219.873
L127.354 197.553
L127.949 179.855
L128.544 176.867
L129.139 176.896
L129.734 179.589
L130.33 179.12
L130.925 175.411
L131.52 173.79
L132.115 174.084
L132.71 162.111
L133.306 156.144
L133.901 158.602
L134.496 158.565
L135.091 155.957
L135.686 160.65
L136.282 162.791
L136.877 162.428
L137.472 164.912
L138.067 158.146
L138.662 162.553
L139.258 164.418
L139.853 163.778
L140.448 166.276
L141.043 298.276
L141.638 299.659
L143.424 300.436
L144.019 300.569
L144.614 299.768
L145.805 300.082
L146.4 300.174
L146.995 300.061
L147.59 300.609
L150.566 307.275
L151.757 309.098
L152.947 310.3
L153.542 310.835
L154.138 311.121
L154.733 302.019
L155.923 305.992
L157.709 311.259
L158.899 315.254
L160.09 318.468
L161.28 320.856
L161.875 321.852
L162.47 322.547
L163.066 322.912
L163.661 300.513
L164.256 301.176
L166.637 304.805
L169.018 309.365
L169.613 310.212
L170.208 310.838
L170.803 300.953
L171.398 301.274
L172.589 303.223
L173.779 305.084
L175.565 308.302
L176.755 310.75
L177.35 311.999
L177.946 312.856
L178.541 313.301
L179.136 301.239
L179.731 301.731
L181.517 307.673
L182.707 311.645
L183.898 313.769
L185.088 315.209
L185.683 315.83
L186.278 316.154
L186.874 311.655
L188.064 313.814
L189.85 316.076
L190.445 316.411
L191.04 301.568
L191.635 301.985
L192.826 306.233
L194.016 309.887
L195.206 312.843
L196.397 315.187
L197.587 316.876
L198.182 317.532
L198.778 318.018
L199.373 318.271
L199.968 308.317
L201.754 314.056
L202.349 314.913
L203.539 315.091
L204.134 315.571
L205.325 318.28
L205.92 319.314
L206.515 320.119
L207.11 320.677
L207.706 320.969
L208.301 309.51
L209.491 310.636
L210.086 310.979
L210.682 311.158
L211.277 301.651
L212.467 301.37
L213.062 301.469
L214.253 305.008
L215.443 308.376
L216.038 309.751
L216.634 311.533
L217.229 312.96
L217.824 314.029
L218.419 314.799
L219.014 315.268
L219.61 301.145
L220.205 301.366
L221.99 306.63
L223.181 311.518
L223.776 313.378
L224.371 314.862
L224.966 315.968
L225.562 316.72
L226.157 317.254
L226.752 300.169
L227.942 297.012
L228.538 296.315
L229.133 297.702
L229.728 298.404
L230.323 295.695
L230.918 297.373
L232.704 311.978
L233.299 316.483
L233.894 319.272
L235.68 323.542
L236.87 327.491
L238.061 330.537
L239.251 333.053
L239.846 334.263
L240.442 335.21
L241.037 335.904
L241.632 336.352
L242.227 336.615
L242.822 319.991
L244.013 325.564
L245.203 330.037
L246.394 332.969
L247.584 336.626
L248.774 341.082
L249.965 344.712
L251.155 347.539
L252.346 349.526
L252.941 350.187
L253.536 350.656
L254.131 350.917
L254.726 331.494
L255.917 334.111
L257.107 336.819
L257.702 337.772
L258.893 339.064
L260.083 340.375
L260.678 340.783
L261.274 340.995
L261.869 337.703
L263.059 339.592
L264.25 340.956
L265.44 341.954
L266.035 342.248
L266.63 342.395
L267.226 293.415
L267.821 291.036
L268.416 292.451
L269.011 293.164
L269.606 288.225
L270.202 281.374
L271.392 260.56
L272.582 238.08
L273.773 206.042
L274.368 200.095
L276.749 249.494
L277.344 259.012
L277.939 266.493
L279.13 276.784
L279.725 279.924
L280.32 281.467
L280.915 187.658
L281.51 175.053
L282.106 170.98
L282.701 172.993
L283.296 179.833
L283.891 183.599
L284.486 190.381
L285.082 200.745
L286.272 216.405
L286.867 221.889
L287.462 225.07
L288.058 167.983
L289.248 144.192
L289.843 138.857
L290.438 143.612
L291.034 143.151
L291.629 143.155
L292.224 235.02
L292.819 191.958
L293.414 171.325
L294.01 161.88
L294.605 219.091
L295.2 219.01
L295.795 216.337
L296.39 210.681
L296.986 199.943
L297.581 181.457
L298.176 167.139
L298.771 155.717
L299.366 152.094
L299.962 144.777
L300.557 142.976
L301.152 147.317
L301.747 199.282
L302.342 211.589
L302.938 221.593
L303.533 229.414
L304.128 235.143
L304.723 238.848
L305.318 240.881
L305.914 318.11
L306.509 292.289
L307.104 274.77
L307.699 275.836
L310.08 281.937
L310.675 283.067
L311.27 283.951
L311.866 284.568
L312.461 284.894
L313.056 275.89
L315.437 281.557
L316.627 284.226
L317.222 285.241
L317.818 286.031
L318.413 286.581
L319.008 286.869
L319.603 256.646
L320.198 253.418
L321.389 259.572
L322.579 264.433
L323.174 266.189
L324.365 268.54
L324.96 269.081
L325.555 245.992
L327.341 189.521
L327.936 193.344
L328.531 195.876
L329.126 197.142
L329.722 284.322
L330.317 256.123
L331.507 235.47
L332.102 223.742
L332.698 217.293
L333.293 220.686
L333.888 222.393
L334.483 231.843
L335.078 201.888
L335.674 195.62
L336.269 187.481
L336.864 177.201
L337.459 164.115
L338.054 170.141
L338.65 172.967
L339.245 172.68
L339.84 169.209
L340.435 194.173
L341.626 176.199
L342.221 171.946
L342.816 178.039
L343.411 182.449
L344.006 185.533
L344.602 187.23
L345.197 192.23
L345.792 194.67
L346.387 195.527
L346.982 194.591
L347.578 199.833
L348.173 203.302
L348.768 205.038
L349.363 327.443
L349.958 326.503
L350.554 326.222
L351.149 325.43
L351.744 324.852
L352.339 324.705
L355.315 325.989
L355.91 325.045
L356.506 325.33
L358.886 328.173
L360.077 329.648
L361.267 330.646
L361.862 330.881
L362.458 325.938
L364.243 327.282
L366.029 329.599
L367.219 330.769
L367.814 331.225
L368.41 331.477
L369.005 327.28
L370.195 329.315
L370.79 330.372
L372.576 332.453
L373.766 333.528
L374.362 333.886
L374.957 334.084
L375.552 331.209
L376.742 333.031
L377.933 334.473
L378.528 334.956
L379.123 335.224
L379.718 330.394
L381.504 333.155
L382.694 334.635
L383.885 335.768
L384.48 336.032
L385.075 325.958
L388.051 325.919
L388.646 326.566
L391.027 333.505
L391.622 334.663
L392.813 335.861
L393.408 336.259
L394.003 336.478
L394.598 334.652
L396.384 336.579
L397.574 337.369
L398.17 337.546
L398.765 326.337
L399.36 326.302
L399.955 326.526
L400.55 326.907
L401.146 327.498
L405.312 333.329
L406.502 334.357
L407.098 334.628
L407.693 330.687
L409.478 332.124
L410.669 332.729
L411.264 332.867
L411.859 326.864
L412.454 327.223
L415.43 331.357
L416.621 332.42
L417.216 332.706
L417.811 327.172
L420.192 328.256
L421.382 328.567
L421.978 328.646
L422.573 328.211
L424.358 329.489
L425.549 330.169
L426.739 330.549
L427.334 329.577
L428.525 330.586
L429.12 330.934
L429.715 331.13
L430.31 326.14
L430.906 325.294
L431.501 324.895
L432.096 328.244
L433.286 327.701
L434.477 327.316
L435.072 327.167
L435.667 327.654
L436.262 328.351
L436.858 329.506
L437.453 330.31
L438.048 330.458
L441.024 331.893
L441.619 331.211
L442.214 332.551
L446.381 337.054
L446.976 337.344
L447.571 337.503
L448.166 337.071
L448.762 337.416
L449.357 337.608
L449.952 332.707
L451.142 334.71
L452.333 336.886
L453.523 337.897
L454.118 338.258
L454.714 338.462
L455.309 337.185
L457.094 340.485
L458.285 342.245
L458.88 342.907
L459.475 343.383
L460.07 343.64
L460.666 335.643
L463.046 339.358
L464.237 340.705
L464.832 341.144
L465.427 341.382
L466.022 327.736
L466.618 326.88
L467.808 325.729
L468.403 325.561
L469.594 326.034
L471.974 327.488
L473.165 328.403
L473.76 328.623
L474.355 326.891
L474.95 326.617
L476.736 326.483
L477.331 326.557
L478.522 327.208
L480.902 328.747
L482.093 329.157
L482.688 326.491
L483.878 326.701
L486.259 327.281
L486.854 326.727
L488.045 328.553
L490.426 332.83
L491.616 335.234
L492.806 337.559
L493.997 339.389
L494.592 340.063
L495.187 340.542
L495.782 340.799
L496.378 333.605
L497.568 334.509
L498.163 334.812
L498.758 334.978
L499.354 326.55
L499.949 326.675
L500.544 327.219
L501.734 328.854
L502.33 329.801
L502.925 330.372
L504.71 330.9
L505.306 330.975
L505.901 330.623
L507.091 331.871
L507.686 332.303
L508.282 332.545
L508.877 327.516
L510.067 327.57
L510.662 333.3
L511.258 341.878
L511.853 348.015
L512.448 352.058
L513.043 354.086
L513.043 354.086" style="fill:none;stroke:#000000;stroke-linecap:square;stroke-width:8;"/>
   </g>
   <g id="line2d_2">
    <path clip-path="url(#p332b41defa)" d="
M72 311.544
L72.5952 311.129
L73.1904 308.998
L73.7856 304.974
L74.3808 303.795
L74.976 302.275
L75.5712 301.433
L76.1664 301.212
L76.7616 301.127
L77.952 301.301
L78.5472 301.412
L79.1424 306.027
L79.7376 304.592
L80.3328 303.563
L80.928 301.488
L82.1184 301.243
L85.6896 301.216
L86.2848 302.689
L86.88 300.436
L87.4752 300.782
L89.2608 302.761
L90.4512 304.785
L91.6416 306.728
L93.4272 309.116
L94.0224 309.614
L94.6176 309.885
L95.2128 300.545
L98.784 300.845
L100.57 301.152
L101.165 300.771
L103.546 302.077
L104.736 302.425
L105.331 303.005
L105.926 302.187
L107.117 302.175
L107.712 301.181
L108.307 285.432
L108.902 251.13
L109.498 232.634
L110.093 229.126
L111.283 244.901
L112.474 255.982
L113.069 259.926
L113.664 262.867
L114.259 264.831
L114.854 265.822
L115.45 209.313
L116.045 181.835
L116.64 160.254
L117.235 155.725
L117.83 148.004
L118.426 299.245
L119.021 293.197
L120.211 246.541
L120.806 232.337
L121.402 225.233
L121.997 228.536
L122.592 230.543
L123.187 231.254
L123.782 230.652
L124.378 228.698
L124.973 225.334
L125.568 220.473
L126.163 223.669
L126.758 225.268
L127.354 203.316
L127.949 186.272
L128.544 183.457
L129.139 183.547
L129.734 186.201
L130.33 185.785
L130.925 182.226
L131.52 180.673
L132.115 180.816
L132.71 169.442
L133.306 163.869
L133.901 166.342
L134.496 166.393
L135.091 163.953
L135.686 168.534
L136.282 170.64
L136.877 170.319
L137.472 172.727
L138.067 165.872
L138.662 170.18
L139.258 172.02
L139.853 171.432
L140.448 173.855
L141.043 303.101
L141.638 304.419
L143.424 305.182
L144.019 305.311
L144.614 307.662
L145.805 307.967
L146.4 308.054
L146.995 311.07
L147.59 311.683
L149.971 316.629
L151.162 318.49
L152.352 319.834
L153.542 320.756
L154.138 321.005
L154.733 312.967
L155.923 316.498
L158.304 322.97
L159.494 326.107
L160.685 328.528
L161.875 330.335
L162.47 330.933
L163.066 331.247
L163.661 314.446
L164.256 315.057
L167.827 320.017
L168.422 321.189
L169.613 322.754
L170.208 323.269
L170.803 317.712
L171.398 318.052
L172.589 319.727
L174.97 322.838
L176.16 324.829
L177.35 326.874
L177.946 327.55
L178.541 327.901
L179.136 320.742
L179.731 321.244
L181.517 326.008
L182.707 329.086
L183.898 330.721
L185.088 331.825
L185.683 332.294
L186.278 332.539
L186.874 329.093
L188.064 330.754
L189.85 332.474
L190.445 332.727
L191.04 323.643
L191.635 324.195
L194.016 330.38
L195.206 332.565
L196.397 334.287
L197.587 335.522
L198.778 336.348
L199.373 336.53
L199.968 329.268
L201.754 333.524
L202.349 334.142
L203.539 334.286
L204.134 334.624
L205.325 336.577
L206.515 337.896
L207.11 338.296
L207.706 338.504
L208.301 330.14
L209.491 330.979
L210.086 331.233
L210.682 331.366
L211.277 326.093
L212.467 330.673
L213.062 330.833
L214.253 333.179
L215.443 335.371
L216.038 336.262
L217.229 338.295
L217.824 338.971
L218.419 339.457
L219.014 339.75
L219.61 332.808
L220.205 333.04
L221.99 336.363
L223.181 339.321
L224.371 341.337
L224.966 342.003
L226.157 342.772
L226.752 334.415
L227.942 337.095
L228.538 336.779
L229.133 337.502
L229.728 337.868
L230.323 338.604
L230.918 339.943
L232.704 348.159
L233.299 350.614
L233.894 351.971
L236.275 355.112
L237.466 356.791
L239.251 358.617
L240.442 359.6
L241.632 360.12
L242.227 360.238
L242.822 352.458
L244.013 355.416
L245.203 357.793
L246.394 359.188
L248.179 361.862
L249.37 363.612
L250.56 364.999
L251.75 366.028
L252.941 366.683
L254.131 366.99
L254.726 358.535
L257.702 361.598
L259.488 362.484
L260.678 362.928
L261.274 363.019
L261.869 361.581
L263.059 362.428
L264.25 363.036
L265.44 363.474
L266.63 363.666
L267.226 339.155
L267.821 338.104
L268.416 338.78
L269.011 339.12
L269.606 338.421
L270.202 337.099
L270.797 334.821
L272.582 326.409
L273.773 316.964
L274.368 315.156
L276.154 329.035
L276.749 333.286
L277.344 336.717
L277.939 339.407
L279.13 343.092
L279.725 344.21
L280.32 344.759
L280.915 311.252
L281.51 307.609
L282.106 306.923
L282.701 307.955
L283.296 310.585
L283.891 312.118
L284.486 314.625
L285.082 318.292
L286.272 323.784
L286.867 325.685
L287.462 326.782
L288.058 306.231
L289.248 298.676
L289.843 297.071
L290.438 298.83
L291.629 298.827
L292.224 324.971
L292.819 309.134
L293.414 301.587
L294.01 298.14
L294.605 319.761
L295.2 320.373
L295.795 320.023
L296.39 318.59
L296.986 315.357
L297.581 309.182
L298.176 304.459
L298.771 300.723
L299.366 299.66
L299.962 297.274
L300.557 296.75
L301.152 298.3
L301.747 315.347
L302.342 319.839
L302.938 323.478
L303.533 326.315
L304.128 328.388
L304.723 329.729
L305.318 330.46
L306.509 257.955
L307.104 233.102
L307.699 234.47
L310.08 242.69
L310.675 244.229
L311.27 245.434
L311.866 246.277
L312.461 246.722
L313.056 234.518
L314.842 239.874
L316.032 243.97
L317.222 247.018
L317.818 248.094
L318.413 248.845
L319.008 249.239
L319.603 207.65
L320.198 202.957
L321.389 211.35
L322.579 218.008
L323.174 220.417
L323.77 222.213
L324.365 223.648
L324.96 224.395
L325.555 192.514
L327.341 112.656
L327.936 117.949
L328.531 121.455
L329.126 123.209
L329.722 246.644
L330.317 206.941
L331.507 177.683
L332.102 161.097
L332.698 151.953
L333.293 156.676
L333.888 159.052
L334.483 172.21
L335.078 129.721
L335.674 120.614
L336.269 108.883
L336.864 94.1473
L337.459 75.4635
L338.054 83.8452
L338.65 87.7386
L339.245 87.2609
L339.84 82.3102
L340.435 118.659
L341.626 92.8472
L342.221 86.6676
L342.816 95.1503
L343.411 101.289
L344.006 105.589
L344.602 107.959
L345.197 115.705
L345.792 118.97
L346.387 120.032
L346.982 118.587
L347.578 125.915
L348.173 130.766
L348.768 133.194
L349.363 307.64
L349.958 305.459
L350.554 304.542
L351.149 303.293
L351.744 302.423
L352.339 302.174
L355.315 303.902
L355.91 302.674
L356.506 303.013
L358.886 306.876
L360.077 308.927
L360.672 309.73
L361.267 310.324
L361.862 310.653
L362.458 303.747
L363.053 304.092
L363.648 304.807
L364.243 305.324
L366.029 308.535
L367.219 310.171
L367.814 310.814
L368.41 311.17
L369.005 305.261
L369.6 306.439
L370.79 309.302
L372.576 312.2
L373.766 313.712
L374.362 314.219
L374.957 314.5
L375.552 310.468
L376.742 313.036
L377.933 315.08
L378.528 315.768
L379.123 316.149
L379.718 309.371
L381.504 313.232
L382.694 315.321
L383.29 316.243
L383.885 316.932
L384.48 317.309
L385.075 303.629
L385.67 303.453
L388.051 303.258
L388.646 304.123
L391.027 313.774
L391.622 315.419
L392.813 317.111
L393.408 317.676
L394.003 317.987
L394.598 315.392
L396.384 318.098
L396.979 318.748
L397.574 319.215
L398.17 319.466
L398.765 304.879
L399.36 304.491
L399.955 304.478
L400.55 304.902
L401.146 305.634
L403.526 310.197
L404.717 312.595
L405.907 314.41
L406.502 315.053
L407.098 315.437
L407.693 309.878
L409.478 311.859
L410.669 312.701
L411.264 312.895
L411.859 304.758
L412.454 305.215
L415.43 310.966
L416.621 312.464
L417.216 312.869
L417.811 305.062
L418.406 305.338
L419.597 306.07
L421.382 306.722
L421.978 306.83
L422.573 306.216
L424.954 308.367
L426.144 309.16
L426.739 309.351
L427.334 308.009
L428.525 309.424
L429.12 309.916
L429.715 310.192
L430.31 305.808
L430.906 304.618
L431.501 304.056
L432.096 309.307
L433.286 307.923
L433.882 307.711
L434.477 307.356
L435.072 307.144
L435.667 307.566
L436.262 308.26
L437.453 310.706
L438.048 310.88
L441.024 312.824
L441.619 311.797
L442.214 313.625
L444 316.376
L445.786 319.09
L446.381 319.711
L446.976 320.113
L447.571 320.335
L448.166 319.735
L448.762 320.217
L449.357 320.485
L449.952 313.775
L451.142 316.359
L452.333 319.362
L453.523 320.769
L454.118 321.275
L454.714 321.562
L455.309 319.769
L457.094 324.386
L458.285 326.864
L458.88 327.798
L459.475 328.471
L460.07 328.835
L460.666 317.643
L463.046 322.819
L464.237 324.712
L464.832 325.329
L465.427 325.665
L466.022 308.495
L466.618 307.234
L467.213 306.253
L467.808 305.503
L468.403 305.21
L468.998 305.426
L470.189 306.188
L471.974 307.659
L472.57 308.371
L473.165 308.905
L473.76 309.206
L474.355 306.968
L474.95 306.346
L476.736 305.827
L477.331 305.876
L478.522 306.699
L480.902 308.754
L481.498 309.109
L482.093 309.312
L482.688 305.796
L483.878 306.022
L486.259 306.775
L486.854 306.381
L488.045 308.719
L490.426 314.379
L491.616 317.684
L492.806 320.903
L493.997 323.448
L494.592 324.387
L495.187 325.056
L495.782 325.415
L496.378 315.444
L497.568 316.683
L498.163 317.099
L498.758 317.329
L499.354 306.383
L499.949 306.451
L500.544 307.11
L501.139 308.058
L502.33 310.517
L502.925 311.289
L504.115 311.801
L505.306 312.079
L505.901 311.641
L507.091 313.351
L507.686 313.946
L508.282 314.281
L508.877 307.509
L510.067 307.565
L510.662 316.535
L511.258 328.319
L511.853 336.752
L512.448 342.309
L513.043 345.096
L513.043 345.096" style="fill:none;stroke:#0000ff;stroke-linecap:square;stroke-width:4;"/>
   </g>
   <g id="line2d_3">
    <path clip-path="url(#p332b41defa)" d="
M72 288.738
L72.5952 288.552
L73.1904 289.637
L73.7856 287.591
L74.3808 286.97
L74.976 286.183
L75.5712 285.739
L76.7616 285.551
L78.5472 285.671
L79.1424 290.279
L80.3328 293.135
L80.928 292.084
L82.1184 291.954
L85.6896 291.925
L86.2848 294.685
L86.88 293.537
L87.4752 293.702
L89.2608 294.67
L90.4512 295.671
L92.2368 297.053
L93.4272 297.821
L94.6176 298.204
L95.2128 293.58
L99.3792 293.778
L100.57 293.864
L101.165 293.679
L104.141 294.43
L104.736 294.492
L105.331 296.809
L105.926 296.4
L107.117 296.394
L107.712 297.815
L108.307 289.964
L108.902 272.834
L109.498 263.603
L110.093 261.857
L111.283 269.759
L112.474 275.31
L113.069 277.286
L113.664 278.759
L114.259 279.743
L114.854 280.24
L115.45 251.949
L116.045 238.214
L116.64 227.427
L117.235 225.165
L117.83 221.306
L118.426 298.675
L119.021 295.802
L120.211 272.729
L120.806 265.655
L121.402 262.127
L121.997 263.8
L122.592 264.823
L123.187 265.196
L123.782 264.91
L124.378 263.946
L124.973 262.274
L125.568 259.85
L126.163 261.453
L126.758 262.255
L127.354 251.19
L127.949 242.686
L128.544 241.293
L129.139 241.351
L129.734 242.688
L130.33 242.488
L130.925 240.714
L131.52 239.94
L132.115 239.983
L132.71 234.335
L133.306 231.583
L133.901 232.838
L134.496 232.88
L135.091 231.673
L135.686 233.975
L136.282 235.036
L136.877 234.881
L137.472 236.087
L138.067 232.597
L138.662 234.762
L139.258 235.69
L139.853 235.401
L140.448 236.616
L141.043 302.25
L141.638 302.918
L143.424 303.318
L144.019 303.384
L144.614 306.176
L146.4 306.386
L146.995 309.525
L147.59 309.906
L149.971 312.488
L151.162 313.456
L152.352 314.155
L154.138 314.758
L154.733 310.588
L155.923 312.428
L160.09 318.062
L161.28 319.121
L162.47 319.863
L163.066 320.023
L163.661 312.784
L164.851 313.561
L166.637 314.822
L169.018 316.792
L170.208 317.411
L170.803 315.954
L171.398 316.17
L173.779 317.947
L176.16 319.807
L177.35 320.855
L177.946 321.201
L178.541 321.38
L179.136 318.958
L179.731 319.282
L182.707 323.488
L183.898 324.35
L185.088 324.93
L186.278 325.299
L186.874 323.491
L188.064 324.366
L189.85 325.263
L190.445 325.393
L191.04 321.825
L191.635 322.238
L193.421 325.01
L194.611 326.299
L195.802 327.342
L196.992 328.132
L198.182 328.678
L199.373 328.958
L199.968 325.121
L201.754 327.404
L202.349 327.726
L204.134 327.984
L205.325 329.009
L206.515 329.699
L207.706 330.016
L208.301 325.579
L209.491 326.03
L210.682 326.237
L211.277 324.326
L212.467 329.154
L213.062 329.287
L216.634 332.785
L217.824 333.61
L219.014 334.014
L219.61 331.428
L220.205 331.598
L222.586 334.23
L223.776 335.524
L224.966 336.34
L226.157 336.74
L226.752 333.373
L227.942 336.951
L228.538 336.811
L229.133 337.185
L229.728 337.374
L230.323 338.783
L230.918 339.723
L232.704 344.648
L233.299 346.153
L233.894 346.912
L238.061 350.068
L240.442 351.266
L241.632 351.554
L242.227 351.619
L242.822 347.274
L244.608 349.962
L245.203 350.717
L246.989 352.04
L250.56 354.816
L251.75 355.386
L252.941 355.75
L254.131 355.919
L254.726 351.201
L257.107 352.921
L258.298 353.371
L260.678 353.951
L261.274 354.002
L261.869 353.175
L263.654 353.882
L265.44 354.305
L266.63 354.418
L267.226 339.85
L267.821 339.343
L268.416 339.694
L269.011 339.87
L269.606 340.231
L270.202 340.286
L270.797 339.825
L271.987 338.279
L272.582 337.163
L273.773 332.999
L274.368 332.164
L276.154 339.276
L277.344 343.205
L277.939 344.585
L279.13 346.478
L279.725 347.052
L280.32 347.333
L280.915 330.316
L281.51 328.65
L282.106 328.45
L282.701 329.034
L283.296 330.41
L283.891 331.229
L284.486 332.529
L285.082 334.401
L286.272 337.203
L286.867 338.169
L287.462 338.726
L288.058 328.169
L289.248 324.491
L289.843 323.723
L290.438 324.629
L291.629 324.653
L292.224 336.355
L292.819 328.463
L293.414 324.706
L294.01 322.991
L294.605 333.928
L295.2 334.399
L295.795 334.379
L296.39 333.808
L296.986 332.323
L297.581 329.303
L298.176 326.997
L298.771 325.173
L299.366 324.677
L299.962 323.51
L300.557 323.265
L301.152 324.049
L301.747 332.369
L302.938 336.516
L303.533 337.966
L304.128 339.026
L304.723 339.712
L305.318 340.086
L305.914 279.495
L306.509 260.888
L307.104 248.336
L307.699 248.969
L310.08 252.93
L311.27 254.262
L311.866 254.672
L312.461 254.888
L313.056 248.982
L314.842 251.506
L316.032 253.479
L317.222 254.951
L317.818 255.471
L318.413 255.835
L319.008 256.026
L319.603 235.608
L320.198 233.209
L321.389 237.317
L322.579 240.58
L323.174 241.761
L324.365 243.346
L324.96 243.713
L326.15 215.155
L327.341 187.948
L327.936 190.574
L328.531 192.314
L329.126 193.184
L329.722 255.166
L330.317 235.262
L331.507 220.556
L332.102 212.236
L332.698 207.645
L333.293 209.994
L333.888 211.175
L334.483 217.716
L335.078 196.4
L335.674 191.786
L336.269 185.869
L336.864 178.458
L337.459 169.081
L338.054 173.244
L338.65 175.17
L339.245 174.917
L339.84 172.435
L340.435 190.828
L341.626 177.832
L342.221 174.708
L342.816 178.922
L343.411 181.971
L344.006 184.107
L344.602 185.285
L345.197 189.305
L345.792 190.897
L346.387 191.394
L346.982 190.645
L347.578 194.289
L348.173 196.701
L348.768 197.908
L349.363 286.09
L349.958 284.309
L351.149 282.718
L351.744 282.247
L352.339 282.091
L355.315 282.877
L355.91 282.353
L356.506 282.472
L358.886 284.252
L360.077 285.231
L361.267 285.904
L361.862 286.064
L362.458 282.736
L363.053 282.722
L364.838 283.777
L366.624 285.185
L367.814 285.856
L368.41 286.029
L369.005 283.171
L370.195 284.216
L370.79 284.855
L373.171 286.602
L374.362 287.173
L374.957 287.308
L375.552 285.402
L377.338 287.166
L378.528 287.949
L379.123 288.134
L379.718 284.921
L382.099 287.279
L383.29 288.187
L383.885 288.522
L384.48 288.705
L385.075 282.562
L386.266 282.234
L388.051 282.13
L388.646 282.512
L391.027 287.048
L391.622 287.845
L392.813 288.655
L394.003 289.077
L394.598 287.821
L396.384 289.098
L397.574 289.63
L398.17 289.751
L398.765 283.746
L399.36 283.285
L399.955 283.016
L400.55 283.132
L401.146 283.407
L403.526 285.407
L404.717 286.55
L405.907 287.421
L407.098 287.919
L407.693 285.247
L409.478 286.159
L410.669 286.554
L411.264 286.646
L411.859 282.994
L412.454 283.177
L415.43 285.899
L416.621 286.622
L417.216 286.819
L417.811 283.035
L419.002 283.171
L420.787 283.503
L421.978 283.633
L422.573 283.338
L426.144 284.612
L426.739 284.702
L427.334 284.085
L428.525 284.755
L429.715 285.123
L430.31 285.16
L430.906 284.555
L431.501 284.269
L432.096 287.376
L433.286 286.17
L435.667 285.756
L436.262 285.872
L437.453 286.833
L438.048 286.891
L441.024 287.788
L441.619 287.222
L442.214 288.074
L444 289.29
L445.786 290.53
L446.976 291.017
L447.571 291.123
L448.166 290.838
L449.357 291.198
L449.952 288.085
L451.142 289.137
L452.333 290.542
L453.523 291.211
L454.714 291.593
L455.309 290.728
L457.094 292.937
L458.285 294.133
L459.475 294.912
L460.07 295.09
L460.666 289.736
L463.046 292.199
L464.237 293.111
L464.832 293.41
L465.427 293.573
L466.022 286.88
L467.213 285.642
L467.808 285.215
L468.403 285.022
L469.594 285.221
L471.379 285.807
L473.76 286.81
L474.355 285.831
L474.95 285.328
L476.736 284.807
L477.331 284.787
L478.522 285.126
L481.498 286.234
L482.093 286.331
L482.688 284.757
L483.878 284.816
L486.854 285.252
L488.045 286.245
L489.83 288.119
L491.021 289.492
L492.806 291.9
L493.997 293.13
L495.187 293.911
L495.782 294.086
L496.378 289.283
L497.568 289.869
L498.758 290.178
L499.354 285.45
L499.949 285.4
L500.544 285.651
L501.734 286.606
L502.33 287.186
L502.925 287.548
L504.71 287.85
L505.306 287.895
L505.901 287.725
L507.091 288.547
L507.686 288.835
L508.282 288.997
L508.877 285.835
L510.067 285.849
L511.853 301.299
L512.448 304.07
L513.043 305.46
L513.043 305.46" style="fill:none;stroke:#ff0000;stroke-linecap:square;stroke-width:2;"/>
   </g>
   <g id="patch_3">
    <path d="
M72 43.2
L518.4 43.2" style="fill:none;stroke:#000000;stroke-linecap:square;stroke-linejoin:miter;"/>
   </g>
   <g id="patch_4">
    <path d="
M518.4 378
L518.4 43.2" style="fill:none;stroke:#000000;stroke-linecap:square;stroke-linejoin:miter;"/>
   </g>
   <g id="patch_5">
    <path d="
M72 378
L518.4 378" style="fill:none;stroke:#000000;stroke-linecap:square;stroke-linejoin:miter;"/>
   </g>
   <g id="patch_6">
    <path d="
M72 378
L72 43.2" style="fill:none;stroke:#000000;stroke-linecap:square;stroke-linejoin:miter;"/>
   </g>
   <g id="matplotlib.axis_1">
    <g id="xtick_1">
     <g id="line2d_4">
      <defs>
       <path d="
M0 0
L0 -4" id="m93b0483c22" style="stroke:#000000;stroke-width:0.5;"/>
      </defs>
      <g>
       <use style="stroke:#000000;stroke-width:0.5;" x="72.0" xlink:href="#m93b0483c22" y="378.0"/>
      </g>
     </g>
     <g id="line2d_5">
      <defs>
       <path d="
M0 0
L0 4" id="m741efc42ff" style="stroke:#000000;stroke-width:0.5;"/>
      </defs>
      <g>
       <use style="stroke:#000000;stroke-width:0.5;" x="72.0" xlink:href="#m741efc42ff" y="43.2"/>
      </g>
     </g>
     <g id="text_1">
      <!-- 0 -->
      <defs>
       <path d="
M31.7812 66.4062
Q24.1719 66.4062 20.3281 58.9062
Q16.5 51.4219 16.5 36.375
Q16.5 21.3906 20.3281 13.8906
Q24.1719 6.39062 31.7812 6.39062
Q39.4531 6.39062 43.2812 13.8906
Q47.125 21.3906 47.125 36.375
Q47.125 51.4219 43.2812 58.9062
Q39.4531 66.4062 31.7812 66.4062
M31.7812 74.2188
Q44.0469 74.2188 50.5156 64.5156
Q56.9844 54.8281 56.9844 36.375
Q56.9844 17.9688 50.5156 8.26562
Q44.0469 -1.42188 31.7812 -1.42188
Q19.5312 -1.42188 13.0625 8.26562
Q6.59375 17.9688 6.59375 36.375
Q6.59375 54.8281 13.0625 64.5156
Q19.5312 74.2188 31.7812 74.2188" id="BitstreamVeraSans-Roman-30"/>
      </defs>
      <g transform="translate(68.47265625 392.6378125)scale(0.14 -0.14)">
       <use xlink:href="#BitstreamVeraSans-Roman-30"/>
      </g>
     </g>
    </g>
    <g id="xtick_2">
     <g id="line2d_6">
      <g>
       <use style="stroke:#000000;stroke-width:0.5;" x="220.8" xlink:href="#m93b0483c22" y="378.0"/>
      </g>
     </g>
     <g id="line2d_7">
      <g>
       <use style="stroke:#000000;stroke-width:0.5;" x="220.8" xlink:href="#m741efc42ff" y="43.2"/>
      </g>
     </g>
     <g id="text_2">
      <!-- 250 -->
      <defs>
       <path d="
M19.1875 8.29688
L53.6094 8.29688
L53.6094 0
L7.32812 0
L7.32812 8.29688
Q12.9375 14.1094 22.625 23.8906
Q32.3281 33.6875 34.8125 36.5312
Q39.5469 41.8438 41.4219 45.5312
Q43.3125 49.2188 43.3125 52.7812
Q43.3125 58.5938 39.2344 62.25
Q35.1562 65.9219 28.6094 65.9219
Q23.9688 65.9219 18.8125 64.3125
Q13.6719 62.7031 7.8125 59.4219
L7.8125 69.3906
Q13.7656 71.7812 18.9375 73
Q24.125 74.2188 28.4219 74.2188
Q39.75 74.2188 46.4844 68.5469
Q53.2188 62.8906 53.2188 53.4219
Q53.2188 48.9219 51.5312 44.8906
Q49.8594 40.875 45.4062 35.4062
Q44.1875 33.9844 37.6406 27.2188
Q31.1094 20.4531 19.1875 8.29688" id="BitstreamVeraSans-Roman-32"/>
       <path d="
M10.7969 72.9062
L49.5156 72.9062
L49.5156 64.5938
L19.8281 64.5938
L19.8281 46.7344
Q21.9688 47.4688 24.1094 47.8281
Q26.2656 48.1875 28.4219 48.1875
Q40.625 48.1875 47.75 41.5
Q54.8906 34.8125 54.8906 23.3906
Q54.8906 11.625 47.5625 5.09375
Q40.2344 -1.42188 26.9062 -1.42188
Q22.3125 -1.42188 17.5469 -0.640625
Q12.7969 0.140625 7.71875 1.70312
L7.71875 11.625
Q12.1094 9.23438 16.7969 8.0625
Q21.4844 6.89062 26.7031 6.89062
Q35.1562 6.89062 40.0781 11.3281
Q45.0156 15.7656 45.0156 23.3906
Q45.0156 31 40.0781 35.4375
Q35.1562 39.8906 26.7031 39.8906
Q22.75 39.8906 18.8125 39.0156
Q14.8906 38.1406 10.7969 36.2812
z
" id="BitstreamVeraSans-Roman-35"/>
      </defs>
      <g transform="translate(208.4165625 392.6378125)scale(0.14 -0.14)">
       <use xlink:href="#BitstreamVeraSans-Roman-32"/>
       <use x="63.623046875" xlink:href="#BitstreamVeraSans-Roman-35"/>
       <use x="127.24609375" xlink:href="#BitstreamVeraSans-Roman-30"/>
      </g>
     </g>
    </g>
    <g id="xtick_3">
     <g id="line2d_8">
      <g>
       <use style="stroke:#000000;stroke-width:0.5;" x="369.6" xlink:href="#m93b0483c22" y="378.0"/>
      </g>
     </g>
     <g id="line2d_9">
      <g>
       <use style="stroke:#000000;stroke-width:0.5;" x="369.6" xlink:href="#m741efc42ff" y="43.2"/>
      </g>
     </g>
     <g id="text_3">
      <!-- 500 -->
      <g transform="translate(357.24390625 392.6378125)scale(0.14 -0.14)">
       <use xlink:href="#BitstreamVeraSans-Roman-35"/>
       <use x="63.623046875" xlink:href="#BitstreamVeraSans-Roman-30"/>
       <use x="127.24609375" xlink:href="#BitstreamVeraSans-Roman-30"/>
      </g>
     </g>
    </g>
    <g id="xtick_4">
     <g id="line2d_10">
      <g>
       <use style="stroke:#000000;stroke-width:0.5;" x="518.4" xlink:href="#m93b0483c22" y="378.0"/>
      </g>
     </g>
     <g id="line2d_11">
      <g>
       <use style="stroke:#000000;stroke-width:0.5;" x="518.4" xlink:href="#m741efc42ff" y="43.2"/>
      </g>
     </g>
     <g id="text_4">
      <!-- 750 -->
      <defs>
       <path d="
M8.20312 72.9062
L55.0781 72.9062
L55.0781 68.7031
L28.6094 0
L18.3125 0
L43.2188 64.5938
L8.20312 64.5938
z
" id="BitstreamVeraSans-Roman-37"/>
      </defs>
      <g transform="translate(506.0778125 392.6378125)scale(0.14 -0.14)">
       <use xlink:href="#BitstreamVeraSans-Roman-37"/>
       <use x="63.623046875" xlink:href="#BitstreamVeraSans-Roman-35"/>
       <use x="127.24609375" xlink:href="#BitstreamVeraSans-Roman-30"/>
      </g>
     </g>
    </g>
    <g id="text_5">
     <!-- compartment number -->
     <defs>
      <path d="
M32.9062 24.6094
Q27.4375 24.6094 24.6719 22.75
Q21.9219 20.9062 21.9219 17.2812
Q21.9219 13.9688 24.1406 12.0781
Q26.375 10.2031 30.3281 10.2031
Q35.25 10.2031 38.625 13.7344
Q42 17.2812 42 22.6094
L42 24.6094
z

M59.625 31.2031
L59.625 0
L42 0
L42 8.10938
Q38.4844 3.125 34.0781 0.84375
Q29.6875 -1.42188 23.3906 -1.42188
Q14.8906 -1.42188 9.59375 3.53125
Q4.29688 8.5 4.29688 16.4062
Q4.29688 26.0312 10.9062 30.5156
Q17.5312 35.0156 31.6875 35.0156
L42 35.0156
L42 36.375
Q42 40.5312 38.7188 42.4531
Q35.4531 44.3906 28.5156 44.3906
Q22.9062 44.3906 18.0625 43.2656
Q13.2344 42.1406 9.07812 39.8906
L9.07812 53.2188
Q14.7031 54.5938 20.3594 55.2969
Q26.0312 56 31.6875 56
Q46.4844 56 53.0469 50.1719
Q59.625 44.3438 59.625 31.2031" id="BitstreamVeraSans-Bold-61"/>
      <path id="BitstreamVeraSans-Bold-20"/>
      <path d="
M37.5 11.2812
Q43.1094 11.2812 46.0625 15.375
Q49.0312 19.4844 49.0312 27.2969
Q49.0312 35.1094 46.0625 39.2031
Q43.1094 43.3125 37.5 43.3125
Q31.8906 43.3125 28.875 39.1875
Q25.875 35.0625 25.875 27.2969
Q25.875 19.5312 28.875 15.4062
Q31.8906 11.2812 37.5 11.2812
M25.875 46.6875
Q29.5 51.4688 33.8906 53.7344
Q38.2812 56 44 56
Q54.1094 56 60.5938 47.9688
Q67.0938 39.9375 67.0938 27.2969
Q67.0938 14.6562 60.5938 6.60938
Q54.1094 -1.42188 44 -1.42188
Q38.2812 -1.42188 33.8906 0.84375
Q29.5 3.125 25.875 7.90625
L25.875 0
L8.40625 0
L8.40625 75.9844
L25.875 75.9844
z
" id="BitstreamVeraSans-Bold-62"/>
      <path d="
M52.5938 52.9844
L52.5938 38.7188
Q49.0312 41.1562 45.4375 42.3281
Q41.8438 43.5 37.9844 43.5
Q30.6719 43.5 26.5938 39.2344
Q22.5156 34.9688 22.5156 27.2969
Q22.5156 19.625 26.5938 15.3438
Q30.6719 11.0781 37.9844 11.0781
Q42.0938 11.0781 45.7812 12.2969
Q49.4688 13.5312 52.5938 15.9219
L52.5938 1.60938
Q48.4844 0.09375 44.2656 -0.65625
Q40.0469 -1.42188 35.7969 -1.42188
Q21 -1.42188 12.6406 6.17188
Q4.29688 13.7656 4.29688 27.2969
Q4.29688 40.8281 12.6406 48.4062
Q21 56 35.7969 56
Q40.0938 56 44.2656 55.25
Q48.4375 54.5 52.5938 52.9844" id="BitstreamVeraSans-Bold-63"/>
      <path d="
M49.0312 39.7969
Q46.7344 40.875 44.4531 41.375
Q42.1875 41.8906 39.8906 41.8906
Q33.1562 41.8906 29.5156 37.5625
Q25.875 33.25 25.875 25.2031
L25.875 0
L8.40625 0
L8.40625 54.6875
L25.875 54.6875
L25.875 45.7031
Q29.25 51.0781 33.6094 53.5312
Q37.9844 56 44.0938 56
Q44.9688 56 45.9844 55.9219
Q47.0156 55.8594 48.9688 55.6094
z
" id="BitstreamVeraSans-Bold-72"/>
      <path d="
M7.8125 21.2969
L7.8125 54.6875
L25.3906 54.6875
L25.3906 49.2188
Q25.3906 44.7812 25.3438 38.0625
Q25.2969 31.3438 25.2969 29.1094
Q25.2969 22.5156 25.6406 19.6094
Q25.9844 16.7031 26.8125 15.375
Q27.875 13.6719 29.6094 12.7344
Q31.3438 11.8125 33.5938 11.8125
Q39.0625 11.8125 42.1875 16.0156
Q45.3125 20.2188 45.3125 27.6875
L45.3125 54.6875
L62.7969 54.6875
L62.7969 0
L45.3125 0
L45.3125 7.90625
Q41.3594 3.125 36.9375 0.84375
Q32.5156 -1.42188 27.2031 -1.42188
Q17.7188 -1.42188 12.7656 4.39062
Q7.8125 10.2031 7.8125 21.2969" id="BitstreamVeraSans-Bold-75"/>
      <path d="
M27.4844 70.2188
L27.4844 54.6875
L45.5156 54.6875
L45.5156 42.1875
L27.4844 42.1875
L27.4844 19
Q27.4844 15.1875 29 13.8438
Q30.5156 12.5 35.0156 12.5
L44 12.5
L44 0
L29 0
Q18.6562 0 14.3281 4.3125
Q10.0156 8.64062 10.0156 19
L10.0156 42.1875
L1.3125 42.1875
L1.3125 54.6875
L10.0156 54.6875
L10.0156 70.2188
z
" id="BitstreamVeraSans-Bold-74"/>
      <path d="
M62.9844 27.4844
L62.9844 22.5156
L22.125 22.5156
Q22.75 16.3594 26.5625 13.2812
Q30.375 10.2031 37.2031 10.2031
Q42.7188 10.2031 48.5 11.8438
Q54.2969 13.4844 60.4062 16.7969
L60.4062 3.32812
Q54.2031 0.984375 48 -0.21875
Q41.7969 -1.42188 35.5938 -1.42188
Q20.75 -1.42188 12.5156 6.125
Q4.29688 13.6719 4.29688 27.2969
Q4.29688 40.6719 12.375 48.3281
Q20.4531 56 34.625 56
Q47.5156 56 55.25 48.2344
Q62.9844 40.4844 62.9844 27.4844
M45.0156 33.2969
Q45.0156 38.2812 42.1094 41.3281
Q39.2031 44.3906 34.5156 44.3906
Q29.4375 44.3906 26.2656 41.5312
Q23.0938 38.6719 22.3125 33.2969
z
" id="BitstreamVeraSans-Bold-65"/>
      <path d="
M25.875 7.90625
L25.875 -20.7969
L8.40625 -20.7969
L8.40625 54.6875
L25.875 54.6875
L25.875 46.6875
Q29.5 51.4688 33.8906 53.7344
Q38.2812 56 44 56
Q54.1094 56 60.5938 47.9688
Q67.0938 39.9375 67.0938 27.2969
Q67.0938 14.6562 60.5938 6.60938
Q54.1094 -1.42188 44 -1.42188
Q38.2812 -1.42188 33.8906 0.84375
Q29.5 3.125 25.875 7.90625
M37.5 43.3125
Q31.8906 43.3125 28.875 39.1875
Q25.875 35.0625 25.875 27.2969
Q25.875 19.5312 28.875 15.4062
Q31.8906 11.2812 37.5 11.2812
Q43.1094 11.2812 46.0625 15.375
Q49.0312 19.4844 49.0312 27.2969
Q49.0312 35.1094 46.0625 39.2031
Q43.1094 43.3125 37.5 43.3125" id="BitstreamVeraSans-Bold-70"/>
      <path d="
M34.4219 43.5
Q28.6094 43.5 25.5625 39.3281
Q22.5156 35.1562 22.5156 27.2969
Q22.5156 19.4375 25.5625 15.25
Q28.6094 11.0781 34.4219 11.0781
Q40.1406 11.0781 43.1562 15.25
Q46.1875 19.4375 46.1875 27.2969
Q46.1875 35.1562 43.1562 39.3281
Q40.1406 43.5 34.4219 43.5
M34.4219 56
Q48.5312 56 56.4688 48.375
Q64.4062 40.7656 64.4062 27.2969
Q64.4062 13.8125 56.4688 6.1875
Q48.5312 -1.42188 34.4219 -1.42188
Q20.2656 -1.42188 12.2812 6.1875
Q4.29688 13.8125 4.29688 27.2969
Q4.29688 40.7656 12.2812 48.375
Q20.2656 56 34.4219 56" id="BitstreamVeraSans-Bold-6f"/>
      <path d="
M59.0781 45.6094
Q62.4062 50.6875 66.9688 53.3438
Q71.5312 56 77 56
Q86.4219 56 91.3594 50.1875
Q96.2969 44.3906 96.2969 33.2969
L96.2969 0
L78.7188 0
L78.7188 28.5156
Q78.7656 29.1562 78.7812 29.8281
Q78.8125 30.5156 78.8125 31.7812
Q78.8125 37.5938 77.0938 40.2031
Q75.3906 42.8281 71.5781 42.8281
Q66.6094 42.8281 63.8906 38.7188
Q61.1875 34.625 61.0781 26.8594
L61.0781 0
L43.5 0
L43.5 28.5156
Q43.5 37.5938 41.9375 40.2031
Q40.375 42.8281 36.375 42.8281
Q31.3438 42.8281 28.6094 38.7031
Q25.875 34.5781 25.875 26.9062
L25.875 0
L8.29688 0
L8.29688 54.6875
L25.875 54.6875
L25.875 46.6875
Q29.1094 51.3125 33.2812 53.6562
Q37.4531 56 42.4844 56
Q48.1406 56 52.4844 53.2656
Q56.8438 50.5312 59.0781 45.6094" id="BitstreamVeraSans-Bold-6d"/>
      <path d="
M63.375 33.2969
L63.375 0
L45.7969 0
L45.7969 5.42188
L45.7969 25.4844
Q45.7969 32.5625 45.4844 35.25
Q45.1719 37.9375 44.3906 39.2031
Q43.3594 40.9219 41.5938 41.875
Q39.8438 42.8281 37.5938 42.8281
Q32.125 42.8281 29 38.5938
Q25.875 34.375 25.875 26.9062
L25.875 0
L8.40625 0
L8.40625 54.6875
L25.875 54.6875
L25.875 46.6875
Q29.8281 51.4688 34.2656 53.7344
Q38.7188 56 44.0938 56
Q53.5625 56 58.4688 50.1875
Q63.375 44.3906 63.375 33.2969" id="BitstreamVeraSans-Bold-6e"/>
     </defs>
     <g transform="translate(196.86375 412.706875)scale(0.16 -0.16)">
      <use xlink:href="#BitstreamVeraSans-Bold-63"/>
      <use x="59.27734375" xlink:href="#BitstreamVeraSans-Bold-6f"/>
      <use x="127.978515625" xlink:href="#BitstreamVeraSans-Bold-6d"/>
      <use x="232.177734375" xlink:href="#BitstreamVeraSans-Bold-70"/>
      <use x="303.759765625" xlink:href="#BitstreamVeraSans-Bold-61"/>
      <use x="371.240234375" xlink:href="#BitstreamVeraSans-Bold-72"/>
      <use x="420.556640625" xlink:href="#BitstreamVeraSans-Bold-74"/>
      <use x="468.359375" xlink:href="#BitstreamVeraSans-Bold-6d"/>
      <use x="572.55859375" xlink:href="#BitstreamVeraSans-Bold-65"/>
      <use x="640.380859375" xlink:href="#BitstreamVeraSans-Bold-6e"/>
      <use x="711.572265625" xlink:href="#BitstreamVeraSans-Bold-74"/>
      <use x="759.375" xlink:href="#BitstreamVeraSans-Bold-20"/>
      <use x="794.189453125" xlink:href="#BitstreamVeraSans-Bold-6e"/>
      <use x="865.380859375" xlink:href="#BitstreamVeraSans-Bold-75"/>
      <use x="936.572265625" xlink:href="#BitstreamVeraSans-Bold-6d"/>
      <use x="1040.77148438" xlink:href="#BitstreamVeraSans-Bold-62"/>
      <use x="1112.35351562" xlink:href="#BitstreamVeraSans-Bold-65"/>
      <use x="1180.17578125" xlink:href="#BitstreamVeraSans-Bold-72"/>
     </g>
    </g>
   </g>
   <g id="matplotlib.axis_2">
    <g id="ytick_1">
     <g id="line2d_12">
      <defs>
       <path d="
M0 0
L4 0" id="m728421d6d4" style="stroke:#000000;stroke-width:0.5;"/>
      </defs>
      <g>
       <use style="stroke:#000000;stroke-width:0.5;" x="72.0" xlink:href="#m728421d6d4" y="354.085714286"/>
      </g>
     </g>
     <g id="line2d_13">
      <defs>
       <path d="
M0 0
L-4 0" id="mcb0005524f" style="stroke:#000000;stroke-width:0.5;"/>
      </defs>
      <g>
       <use style="stroke:#000000;stroke-width:0.5;" x="518.4" xlink:href="#mcb0005524f" y="354.085714286"/>
      </g>
     </g>
     <g id="text_6">
      <!-- 0.05 -->
      <defs>
       <path d="
M10.6875 12.4062
L21 12.4062
L21 0
L10.6875 0
z
" id="BitstreamVeraSans-Roman-2e"/>
      </defs>
      <g transform="translate(38.9740625 357.948839286)scale(0.14 -0.14)">
       <use xlink:href="#BitstreamVeraSans-Roman-30"/>
       <use x="63.623046875" xlink:href="#BitstreamVeraSans-Roman-2e"/>
       <use x="95.41015625" xlink:href="#BitstreamVeraSans-Roman-30"/>
       <use x="159.033203125" xlink:href="#BitstreamVeraSans-Roman-35"/>
      </g>
     </g>
    </g>
    <g id="ytick_2">
     <g id="line2d_14">
      <g>
       <use style="stroke:#000000;stroke-width:0.5;" x="72.0" xlink:href="#m728421d6d4" y="330.171428571"/>
      </g>
     </g>
     <g id="line2d_15">
      <g>
       <use style="stroke:#000000;stroke-width:0.5;" x="518.4" xlink:href="#mcb0005524f" y="330.171428571"/>
      </g>
     </g>
     <g id="text_7">
      <!-- 0.10 -->
      <defs>
       <path d="
M12.4062 8.29688
L28.5156 8.29688
L28.5156 63.9219
L10.9844 60.4062
L10.9844 69.3906
L28.4219 72.9062
L38.2812 72.9062
L38.2812 8.29688
L54.3906 8.29688
L54.3906 0
L12.4062 0
z
" id="BitstreamVeraSans-Roman-31"/>
      </defs>
      <g transform="translate(38.6809375 334.034553571)scale(0.14 -0.14)">
       <use xlink:href="#BitstreamVeraSans-Roman-30"/>
       <use x="63.623046875" xlink:href="#BitstreamVeraSans-Roman-2e"/>
       <use x="95.41015625" xlink:href="#BitstreamVeraSans-Roman-31"/>
       <use x="159.033203125" xlink:href="#BitstreamVeraSans-Roman-30"/>
      </g>
     </g>
    </g>
    <g id="ytick_3">
     <g id="line2d_16">
      <g>
       <use style="stroke:#000000;stroke-width:0.5;" x="72.0" xlink:href="#m728421d6d4" y="306.257142857"/>
      </g>
     </g>
     <g id="line2d_17">
      <g>
       <use style="stroke:#000000;stroke-width:0.5;" x="518.4" xlink:href="#mcb0005524f" y="306.257142857"/>
      </g>
     </g>
     <g id="text_8">
      <!-- 0.15 -->
      <g transform="translate(38.9740625 310.120267857)scale(0.14 -0.14)">
       <use xlink:href="#BitstreamVeraSans-Roman-30"/>
       <use x="63.623046875" xlink:href="#BitstreamVeraSans-Roman-2e"/>
       <use x="95.41015625" xlink:href="#BitstreamVeraSans-Roman-31"/>
       <use x="159.033203125" xlink:href="#BitstreamVeraSans-Roman-35"/>
      </g>
     </g>
    </g>
    <g id="text_9">
     <!-- normalized concentration -->
     <defs>
      <path d="
M5.71875 54.6875
L53.4219 54.6875
L53.4219 42.4844
L24.6094 12.5
L53.4219 12.5
L53.4219 0
L4.5 0
L4.5 12.2031
L33.2969 42.1875
L5.71875 42.1875
z
" id="BitstreamVeraSans-Bold-7a"/>
      <path d="
M8.40625 75.9844
L25.875 75.9844
L25.875 0
L8.40625 0
z
" id="BitstreamVeraSans-Bold-6c"/>
      <path d="
M8.40625 54.6875
L25.875 54.6875
L25.875 0
L8.40625 0
z

M8.40625 75.9844
L25.875 75.9844
L25.875 61.7188
L8.40625 61.7188
z
" id="BitstreamVeraSans-Bold-69"/>
      <path d="
M45.6094 46.6875
L45.6094 75.9844
L63.1875 75.9844
L63.1875 0
L45.6094 0
L45.6094 7.90625
Q42 3.07812 37.6406 0.828125
Q33.2969 -1.42188 27.5938 -1.42188
Q17.4844 -1.42188 10.9844 6.60938
Q4.5 14.6562 4.5 27.2969
Q4.5 39.9375 10.9844 47.9688
Q17.4844 56 27.5938 56
Q33.25 56 37.625 53.7344
Q42 51.4688 45.6094 46.6875
M34.0781 11.2812
Q39.7031 11.2812 42.6562 15.375
Q45.6094 19.4844 45.6094 27.2969
Q45.6094 35.1094 42.6562 39.2031
Q39.7031 43.3125 34.0781 43.3125
Q28.5156 43.3125 25.5625 39.2031
Q22.6094 35.1094 22.6094 27.2969
Q22.6094 19.4844 25.5625 15.375
Q28.5156 11.2812 34.0781 11.2812" id="BitstreamVeraSans-Bold-64"/>
     </defs>
     <g transform="translate(30.3534375 325.6475)rotate(-90.0)scale(0.16 -0.16)">
      <use xlink:href="#BitstreamVeraSans-Bold-6e"/>
      <use x="71.19140625" xlink:href="#BitstreamVeraSans-Bold-6f"/>
      <use x="139.892578125" xlink:href="#BitstreamVeraSans-Bold-72"/>
      <use x="189.208984375" xlink:href="#BitstreamVeraSans-Bold-6d"/>
      <use x="293.408203125" xlink:href="#BitstreamVeraSans-Bold-61"/>
      <use x="360.888671875" xlink:href="#BitstreamVeraSans-Bold-6c"/>
      <use x="395.166015625" xlink:href="#BitstreamVeraSans-Bold-69"/>
      <use x="429.443359375" xlink:href="#BitstreamVeraSans-Bold-7a"/>
      <use x="487.646484375" xlink:href="#BitstreamVeraSans-Bold-65"/>
      <use x="555.46875" xlink:href="#BitstreamVeraSans-Bold-64"/>
      <use x="627.05078125" xlink:href="#BitstreamVeraSans-Bold-20"/>
      <use x="661.865234375" xlink:href="#BitstreamVeraSans-Bold-63"/>
      <use x="721.142578125" xlink:href="#BitstreamVeraSans-Bold-6f"/>
      <use x="789.84375" xlink:href="#BitstreamVeraSans-Bold-6e"/>
      <use x="861.03515625" xlink:href="#BitstreamVeraSans-Bold-63"/>
      <use x="920.3125" xlink:href="#BitstreamVeraSans-Bold-65"/>
      <use x="988.134765625" xlink:href="#BitstreamVeraSans-Bold-6e"/>
      <use x="1059.32617188" xlink:href="#BitstreamVeraSans-Bold-74"/>
      <use x="1107.12890625" xlink:href="#BitstreamVeraSans-Bold-72"/>
      <use x="1156.4453125" xlink:href="#BitstreamVeraSans-Bold-61"/>
      <use x="1223.92578125" xlink:href="#BitstreamVeraSans-Bold-74"/>
      <use x="1271.72851562" xlink:href="#BitstreamVeraSans-Bold-69"/>
      <use x="1306.00585938" xlink:href="#BitstreamVeraSans-Bold-6f"/>
      <use x="1374.70703125" xlink:href="#BitstreamVeraSans-Bold-6e"/>
     </g>
    </g>
   </g>
  </g>
 </g>
 <defs>
  <clipPath id="p332b41defa">
   <rect height="334.8" width="446.4" x="72.0" y="43.2"/>
  </clipPath>
 </defs>
</svg>
