<?xml version="1.0" encoding="utf-8" standalone="no"?>
<!DOCTYPE svg PUBLIC "-//W3C//DTD SVG 1.1//EN"
  "http://www.w3.org/Graphics/SVG/1.1/DTD/svg11.dtd">
<!-- Created with matplotlib (http://matplotlib.org/) -->
<svg height="432pt" version="1.1" viewBox="0 0 576 432" width="576pt" xmlns="http://www.w3.org/2000/svg" xmlns:xlink="http://www.w3.org/1999/xlink">
 <defs>
  <style type="text/css">
*{stroke-linecap:butt;stroke-linejoin:round;}
  </style>
 </defs>
 <g id="figure_1">
  <g id="patch_1">
   <path d="
M0 432
L576 432
L576 0
L0 0
z
" style="fill:#ffffff;"/>
  </g>
  <g id="axes_1">
   <g id="patch_2">
    <path d="
M72 378
L518.4 378
L518.4 43.2
L72 43.2
z
" style="fill:#ffffff;"/>
   </g>
   <g id="line2d_1">
    <path clip-path="url(#p332b41defa)" d="
M72 310.316
L72.5952 309.867
L73.7856 300.676
L74.3808 299.472
L74.976 297.903
L75.5712 297.048
L76.1664 296.843
L76.7616 296.776
L78.5472 297.112
L79.1424 298.606
L80.3328 288.84
L80.928 286.38
L81.5232 286.176
L82.7136 286.078
L83.3088 286.183
L84.4992 286.082
L85.6896 286.097
L86.2848 283.867
L86.88 281.094
L87.4752 281.545
L89.2608 284.06
L90.4512 286.61
L91.6416 289.05
L93.4272 292.045
L94.0224 292.669
L94.6176 293.009
L95.2128 281.256
L98.784 281.662
L100.57 282.054
L101.165 281.566
L103.546 283.223
L104.736 283.661
L105.331 280.042
L105.926 278.973
L107.117 278.956
L107.712 273.051
L108.307 251.461
L108.902 204.486
L109.498 179.108
L110.093 174.268
L111.283 195.794
L112.474 210.921
L113.069 216.306
L113.664 220.322
L114.259 223.004
L114.854 224.357
L115.45 147.163
L116.045 109.528
L116.64 79.9677
L117.235 73.7522
L117.83 63.175
L118.426 265.477
L119.021 256.377
L120.211 188.242
L120.806 167.59
L121.402 157.193
L121.997 161.849
L122.592 164.645
L123.187 165.581
L123.782 164.627
L124.378 161.729
L124.973 156.8
L125.568 149.714
L126.163 154.318
L126.758 156.622
L127.354 125.374
L127.949 100.596
L128.544 96.4135
L129.139 96.4544
L129.734 100.225
L130.33 99.5682
L130.925 94.3754
L131.52 92.1061
L132.115 92.5178
L132.71 75.755
L133.306 67.4023
L133.901 70.8429
L134.496 70.7904
L135.091 67.1402
L135.686 73.71
L136.282 76.7068
L136.877 76.1985
L137.472 79.6765
L138.067 70.2049
L138.662 76.3743
L139.258 78.9849
L139.853 78.0899
L140.448 81.587
L141.043 266.386
L141.638 268.323
L143.424 269.411
L144.019 269.597
L144.614 268.476
L145.805 268.915
L146.4 269.043
L146.995 268.885
L147.59 269.653
L150.566 278.985
L151.757 281.537
L152.352 282.495
L153.542 283.969
L154.138 284.369
L154.733 271.626
L155.923 277.189
L157.709 284.563
L158.899 290.156
L160.09 294.655
L161.28 297.998
L161.875 299.393
L162.47 300.366
L163.066 300.877
L163.661 269.518
L164.256 270.446
L166.637 275.527
L169.018 281.91
L169.613 283.097
L170.208 283.973
L170.803 270.134
L171.398 270.583
L172.589 273.312
L173.779 275.917
L174.97 278.512
L176.16 281.982
L177.35 285.598
L177.946 286.799
L178.541 287.422
L179.136 270.535
L179.731 271.223
L181.517 279.543
L182.707 285.103
L183.898 288.076
L185.088 290.093
L185.683 290.962
L186.278 291.416
L186.874 285.117
L188.064 288.139
L189.85 291.306
L190.445 291.775
L191.04 270.996
L191.635 271.58
L192.23 274.292
L193.421 280.255
L194.611 284.817
L195.802 288.531
L196.992 291.365
L198.182 293.344
L198.778 294.025
L199.373 294.379
L199.968 280.443
L201.754 288.478
L202.349 289.678
L203.539 289.927
L204.134 290.599
L205.325 294.392
L205.92 295.84
L206.515 296.966
L207.11 297.748
L207.706 298.157
L208.301 282.115
L209.491 283.691
L210.086 284.171
L210.682 284.422
L211.277 271.111
L212.467 270.718
L213.062 270.856
L214.253 275.812
L215.443 280.526
L216.038 282.451
L216.634 284.946
L217.229 286.943
L217.824 288.441
L218.419 289.519
L219.014 290.175
L219.61 270.403
L220.205 270.712
L221.99 278.082
L223.181 284.925
L223.776 287.529
L224.371 289.607
L224.966 291.155
L225.562 292.207
L226.157 292.955
L226.752 269.036
L227.942 264.617
L228.538 263.641
L229.133 265.582
L229.728 266.566
L230.323 262.773
L230.918 265.122
L232.704 285.569
L233.299 291.877
L233.894 295.781
L235.68 301.758
L236.87 307.288
L238.061 311.551
L239.251 315.074
L239.846 316.768
L240.442 318.094
L241.037 319.065
L241.632 319.693
L242.227 320.061
L242.822 296.788
L244.013 304.59
L245.203 310.852
L246.394 314.957
L247.584 320.076
L248.774 326.314
L249.965 331.396
L251.155 335.355
L252.346 338.137
L252.941 339.062
L253.536 339.718
L254.131 340.084
L254.726 312.892
L255.917 316.555
L257.107 320.347
L257.702 321.68
L258.298 322.697
L259.488 324.452
L260.083 325.325
L260.678 325.896
L261.274 326.192
L261.869 321.585
L263.059 324.229
L264.25 326.138
L265.44 327.535
L266.035 327.947
L266.63 328.153
L267.226 259.582
L267.821 256.25
L268.416 258.231
L269.011 259.229
L269.606 252.315
L270.202 242.723
L271.392 213.584
L272.582 182.112
L273.773 137.259
L274.368 128.933
L276.749 198.091
L277.344 211.417
L277.939 221.89
L279.13 236.297
L279.725 240.694
L280.32 242.854
L280.915 111.521
L281.51 93.8738
L282.106 88.1715
L282.701 90.9906
L283.296 100.567
L283.891 105.838
L284.486 115.333
L285.082 129.843
L286.272 151.766
L286.867 159.445
L287.462 163.899
L288.058 83.9759
L289.248 50.6684
L289.843 43.2
L290.438 49.8563
L291.034 49.2109
L291.629 49.2171
L292.224 177.828
L292.819 117.541
L293.414 88.6549
L294.01 75.432
L294.605 155.527
L295.2 155.413
L295.795 151.672
L296.39 143.754
L296.986 128.72
L297.581 102.84
L298.176 82.7941
L298.771 66.8038
L299.366 61.7314
L299.962 51.4875
L300.557 48.9659
L301.152 55.0444
L301.747 127.795
L302.342 145.024
L302.938 159.03
L303.533 169.979
L304.128 178
L304.723 183.188
L305.318 186.033
L305.914 294.154
L306.509 258.004
L307.104 233.478
L307.699 234.97
L310.08 243.512
L310.675 245.094
L311.27 246.332
L311.866 247.196
L312.461 247.651
L313.056 235.046
L315.437 242.98
L316.627 246.716
L317.222 248.137
L317.818 249.244
L318.413 250.013
L319.008 250.417
L319.603 208.104
L320.198 203.585
L321.389 212.201
L322.579 219.006
L323.174 221.465
L323.77 223.298
L324.365 224.756
L324.96 225.513
L325.555 193.188
L327.341 114.13
L327.936 119.482
L328.531 123.027
L329.126 124.799
L329.722 246.85
L330.317 207.372
L331.507 178.459
L332.102 162.038
L332.698 153.011
L333.293 157.761
L333.888 160.15
L334.483 173.38
L335.078 131.443
L335.674 122.668
L336.269 111.273
L336.864 96.882
L337.459 78.5614
L338.054 86.9969
L338.65 90.9533
L339.245 90.5513
L339.84 85.6926
L340.435 120.642
L341.626 95.478
L342.221 89.525
L342.816 98.0552
L343.411 104.228
L344.006 108.547
L344.602 110.922
L345.197 117.922
L345.792 121.338
L346.387 122.538
L346.982 121.227
L347.578 128.566
L348.173 133.423
L348.768 135.853
L349.363 307.22
L349.958 305.904
L350.554 305.511
L351.149 304.402
L351.744 303.592
L352.339 303.387
L355.315 305.185
L355.91 303.864
L356.506 304.261
L358.886 308.243
L360.077 310.307
L360.672 311.112
L361.267 311.705
L361.862 312.033
L362.458 305.113
L363.053 305.683
L363.648 306.439
L364.243 306.995
L366.029 310.239
L367.219 311.876
L367.814 312.515
L368.41 312.868
L369.005 306.993
L370.195 309.841
L370.79 311.32
L372.576 314.235
L373.766 315.739
L374.362 316.241
L374.957 316.518
L375.552 312.493
L376.742 315.044
L377.933 317.063
L378.528 317.739
L379.123 318.113
L379.718 311.352
L381.504 315.216
L382.694 317.289
L383.29 318.197
L383.885 318.875
L384.48 319.245
L385.075 305.141
L385.67 305.106
L386.861 305.185
L387.456 305.053
L388.051 305.086
L388.646 305.993
L391.027 315.706
L391.622 317.328
L392.813 319.005
L393.408 319.562
L394.003 319.869
L394.598 317.312
L396.384 320.011
L396.979 320.655
L397.574 321.116
L398.17 321.365
L398.765 305.671
L399.36 305.623
L399.955 305.936
L400.55 306.47
L401.146 307.297
L405.312 315.46
L406.502 316.9
L407.098 317.279
L407.693 311.762
L409.478 313.774
L410.669 314.62
L411.264 314.814
L411.859 306.409
L412.454 306.912
L414.835 311.695
L416.026 313.529
L416.621 314.187
L417.216 314.588
L417.811 306.841
L420.192 308.359
L421.382 308.794
L421.978 308.905
L422.573 308.296
L424.358 310.085
L425.549 311.036
L426.144 311.378
L426.739 311.568
L427.334 310.208
L428.525 311.621
L429.12 312.108
L429.715 312.382
L430.31 305.396
L430.906 304.211
L431.501 303.653
L432.096 308.342
L433.286 307.582
L433.882 307.386
L434.477 307.042
L435.072 306.834
L435.667 307.515
L436.262 308.491
L436.858 310.109
L437.453 311.234
L438.048 311.441
L441.024 313.451
L441.619 312.495
L442.214 314.372
L444 317.259
L445.786 320.05
L446.381 320.676
L446.976 321.081
L447.571 321.304
L448.166 320.7
L448.762 321.183
L449.357 321.452
L449.952 314.59
L451.142 317.394
L452.333 320.441
L453.523 321.855
L454.118 322.361
L454.714 322.647
L455.309 320.858
L457.094 325.479
L458.285 327.943
L458.88 328.869
L459.475 329.536
L460.07 329.896
L460.666 318.7
L463.046 323.902
L464.237 325.788
L464.832 326.401
L465.427 326.735
L466.022 307.63
L466.618 306.431
L467.213 305.512
L467.808 304.821
L468.403 304.585
L469.594 305.248
L471.379 306.704
L473.76 308.872
L474.355 306.447
L474.95 306.063
L476.736 305.876
L477.331 305.979
L478.522 306.892
L480.902 309.046
L481.498 309.412
L482.093 309.62
L482.688 305.887
L483.878 306.181
L485.664 306.867
L486.259 306.993
L486.854 306.218
L488.045 308.774
L490.426 314.762
L491.616 318.128
L492.806 321.382
L493.997 323.945
L494.592 324.888
L495.187 325.559
L495.782 325.919
L496.378 315.847
L497.568 317.113
L498.163 317.536
L498.758 317.769
L499.354 305.97
L499.949 306.145
L500.544 306.906
L501.139 307.93
L502.33 310.522
L502.925 311.321
L504.115 311.871
L505.306 312.165
L505.901 311.673
L507.091 313.419
L507.686 314.024
L508.282 314.364
L508.877 307.323
L510.067 307.397
L510.662 315.42
L511.258 327.43
L511.853 336.022
L512.448 341.682
L513.043 344.52
L513.043 344.52" style="fill:none;stroke:#000000;stroke-linecap:square;stroke-width:8;"/>
   </g>
   <g id="line2d_2">
    <path clip-path="url(#p332b41defa)" d="
M72 310.316
L72.5952 309.867
L73.7856 300.676
L74.3808 299.472
L74.976 297.903
L75.5712 297.048
L76.1664 296.843
L76.7616 296.776
L78.5472 297.112
L79.1424 298.606
L80.3328 288.84
L80.928 286.38
L81.5232 286.176
L82.7136 286.078
L83.3088 286.183
L84.4992 286.082
L85.6896 286.097
L86.2848 283.867
L86.88 281.094
L87.4752 281.545
L89.2608 284.06
L90.4512 286.61
L91.6416 289.05
L93.4272 292.045
L94.0224 292.669
L94.6176 293.009
L95.2128 281.256
L98.784 281.662
L100.57 282.054
L101.165 281.566
L103.546 283.223
L104.736 283.661
L105.331 280.042
L105.926 278.973
L107.117 278.956
L107.712 273.051
L108.307 251.461
L108.902 204.486
L109.498 179.108
L110.093 174.268
L111.283 195.794
L112.474 210.921
L113.069 216.306
L113.664 220.322
L114.259 223.004
L114.854 224.357
L115.45 147.163
L116.045 109.528
L116.64 79.9677
L117.235 73.7522
L117.83 63.175
L118.426 265.477
L119.021 256.377
L120.211 188.242
L120.806 167.59
L121.402 157.193
L121.997 161.849
L122.592 164.645
L123.187 165.581
L123.782 164.627
L124.378 161.729
L124.973 156.8
L125.568 149.714
L126.163 154.318
L126.758 156.622
L127.354 125.374
L127.949 100.596
L128.544 96.4135
L129.139 96.4544
L129.734 100.225
L130.33 99.5682
L130.925 94.3754
L131.52 92.1061
L132.115 92.5178
L132.71 75.755
L133.306 67.4023
L133.901 70.8429
L134.496 70.7904
L135.091 67.1402
L135.686 73.71
L136.282 76.7068
L136.877 76.1985
L137.472 79.6765
L138.067 70.2049
L138.662 76.3743
L139.258 78.9849
L139.853 78.0899
L140.448 81.587
L141.043 266.386
L141.638 268.323
L143.424 269.411
L144.019 269.597
L144.614 268.476
L145.805 268.915
L146.4 269.043
L146.995 268.885
L147.59 269.653
L150.566 278.985
L151.757 281.537
L152.352 282.495
L153.542 283.969
L154.138 284.369
L154.733 271.626
L155.923 277.189
L157.709 284.563
L158.899 290.156
L160.09 294.655
L161.28 297.998
L161.875 299.393
L162.47 300.366
L163.066 300.877
L163.661 269.518
L164.256 270.446
L166.637 275.527
L169.018 281.91
L169.613 283.097
L170.208 283.973
L170.803 270.134
L171.398 270.583
L172.589 273.312
L173.779 275.917
L174.97 278.512
L176.16 281.982
L177.35 285.598
L177.946 286.799
L178.541 287.422
L179.136 270.535
L179.731 271.223
L181.517 279.543
L182.707 285.103
L183.898 288.076
L185.088 290.093
L185.683 290.962
L186.278 291.416
L186.874 285.117
L188.064 288.139
L189.85 291.306
L190.445 291.775
L191.04 270.996
L191.635 271.58
L192.23 274.292
L193.421 280.255
L194.611 284.817
L195.802 288.531
L196.992 291.365
L198.182 293.344
L198.778 294.025
L199.373 294.379
L199.968 280.443
L201.754 288.478
L202.349 289.678
L203.539 289.927
L204.134 290.599
L205.325 294.392
L205.92 295.84
L206.515 296.966
L207.11 297.748
L207.706 298.157
L208.301 282.115
L209.491 283.691
L210.086 284.171
L210.682 284.422
L211.277 271.111
L212.467 270.718
L213.062 270.856
L214.253 275.812
L215.443 280.526
L216.038 282.451
L216.634 284.946
L217.229 286.943
L217.824 288.441
L218.419 289.519
L219.014 290.175
L219.61 270.403
L220.205 270.712
L221.99 278.082
L223.181 284.925
L223.776 287.529
L224.371 289.607
L224.966 291.155
L225.562 292.207
L226.157 292.955
L226.752 269.036
L227.942 264.617
L228.538 263.641
L229.133 265.582
L229.728 266.566
L230.323 262.773
L230.918 265.122
L232.704 285.569
L233.299 291.877
L233.894 295.781
L235.68 301.758
L236.87 307.288
L238.061 311.551
L239.251 315.074
L239.846 316.768
L240.442 318.094
L241.037 319.065
L241.632 319.693
L242.227 320.061
L242.822 296.788
L244.013 304.59
L245.203 310.852
L246.394 314.957
L247.584 320.076
L248.774 326.314
L249.965 331.396
L251.155 335.355
L252.346 338.137
L252.941 339.062
L253.536 339.718
L254.131 340.084
L254.726 312.892
L255.917 316.555
L257.107 320.347
L257.702 321.68
L258.298 322.697
L259.488 324.452
L260.083 325.325
L260.678 325.896
L261.274 326.192
L261.869 321.585
L263.059 324.229
L264.25 326.138
L265.44 327.535
L266.035 327.947
L266.63 328.153
L267.226 259.582
L267.821 256.25
L268.416 258.231
L269.011 259.229
L269.606 252.315
L270.202 242.723
L271.392 213.584
L272.582 182.112
L273.773 137.259
L274.368 128.933
L276.749 198.091
L277.344 211.417
L277.939 221.89
L279.13 236.297
L279.725 240.694
L280.32 242.854
L280.915 111.521
L281.51 93.8738
L282.106 88.1715
L282.701 90.9906
L283.296 100.567
L283.891 105.838
L284.486 115.333
L285.082 129.843
L286.272 151.766
L286.867 159.445
L287.462 163.899
L288.058 83.9759
L289.248 50.6684
L289.843 43.2
L290.438 49.8563
L291.034 49.2109
L291.629 49.2171
L292.224 177.828
L292.819 117.541
L293.414 88.6549
L294.01 75.432
L294.605 155.527
L295.2 155.413
L295.795 151.672
L296.39 143.754
L296.986 128.72
L297.581 102.84
L298.176 82.7941
L298.771 66.8038
L299.366 61.7314
L299.962 51.4875
L300.557 48.9659
L301.152 55.0444
L301.747 127.795
L302.342 145.024
L302.938 159.03
L303.533 169.979
L304.128 178
L304.723 183.188
L305.318 186.033
L305.914 294.154
L306.509 258.004
L307.104 233.478
L307.699 234.97
L310.08 243.512
L310.675 245.094
L311.27 246.332
L311.866 247.196
L312.461 247.651
L313.056 235.046
L315.437 242.98
L316.627 246.716
L317.222 248.137
L317.818 249.244
L318.413 250.013
L319.008 250.417
L319.603 208.104
L320.198 203.585
L321.389 212.201
L322.579 219.006
L323.174 221.465
L323.77 223.298
L324.365 224.756
L324.96 225.513
L325.555 193.188
L327.341 114.13
L327.936 119.482
L328.531 123.027
L329.126 124.799
L329.722 246.85
L330.317 207.372
L331.507 178.459
L332.102 162.038
L332.698 153.011
L333.293 157.761
L333.888 160.15
L334.483 173.38
L335.078 131.443
L335.674 122.668
L336.269 111.273
L336.864 96.882
L337.459 78.5614
L338.054 86.9969
L338.65 90.9533
L339.245 90.5513
L339.84 85.6926
L340.435 120.642
L341.626 95.478
L342.221 89.525
L342.816 98.0552
L343.411 104.228
L344.006 108.547
L344.602 110.922
L345.197 117.922
L345.792 121.338
L346.387 122.538
L346.982 121.227
L347.578 128.566
L348.173 133.423
L348.768 135.853
L349.363 307.22
L349.958 305.904
L350.554 305.511
L351.149 304.402
L351.744 303.592
L352.339 303.387
L355.315 305.185
L355.91 303.864
L356.506 304.261
L358.886 308.243
L360.077 310.307
L360.672 311.112
L361.267 311.705
L361.862 312.033
L362.458 305.113
L363.053 305.683
L363.648 306.439
L364.243 306.995
L366.029 310.239
L367.219 311.876
L367.814 312.515
L368.41 312.868
L369.005 306.993
L370.195 309.841
L370.79 311.32
L372.576 314.235
L373.766 315.739
L374.362 316.241
L374.957 316.518
L375.552 312.493
L376.742 315.044
L377.933 317.063
L378.528 317.739
L379.123 318.113
L379.718 311.352
L381.504 315.216
L382.694 317.289
L383.29 318.197
L383.885 318.875
L384.48 319.245
L385.075 305.141
L385.67 305.106
L386.861 305.185
L387.456 305.053
L388.051 305.086
L388.646 305.993
L391.027 315.706
L391.622 317.328
L392.813 319.005
L393.408 319.562
L394.003 319.869
L394.598 317.312
L396.384 320.011
L396.979 320.655
L397.574 321.116
L398.17 321.365
L398.765 305.671
L399.36 305.623
L399.955 305.936
L400.55 306.47
L401.146 307.297
L405.312 315.46
L406.502 316.9
L407.098 317.279
L407.693 311.762
L409.478 313.774
L410.669 314.62
L411.264 314.814
L411.859 306.409
L412.454 306.912
L414.835 311.695
L416.026 313.529
L416.621 314.187
L417.216 314.588
L417.811 306.841
L420.192 308.359
L421.382 308.794
L421.978 308.905
L422.573 308.296
L424.358 310.085
L425.549 311.036
L426.144 311.378
L426.739 311.568
L427.334 310.208
L428.525 311.621
L429.12 312.108
L429.715 312.382
L430.31 305.396
L430.906 304.211
L431.501 303.653
L432.096 308.342
L433.286 307.582
L433.882 307.386
L434.477 307.042
L435.072 306.834
L435.667 307.515
L436.262 308.491
L436.858 310.109
L437.453 311.234
L438.048 311.441
L441.024 313.451
L441.619 312.495
L442.214 314.372
L444 317.259
L445.786 320.05
L446.381 320.676
L446.976 321.081
L447.571 321.304
L448.166 320.7
L448.762 321.183
L449.357 321.452
L449.952 314.59
L451.142 317.394
L452.333 320.441
L453.523 321.855
L454.118 322.361
L454.714 322.647
L455.309 320.858
L457.094 325.479
L458.285 327.943
L458.88 328.869
L459.475 329.536
L460.07 329.896
L460.666 318.7
L463.046 323.902
L464.237 325.788
L464.832 326.401
L465.427 326.735
L466.022 307.63
L466.618 306.431
L467.213 305.512
L467.808 304.821
L468.403 304.585
L469.594 305.248
L471.379 306.704
L473.76 308.872
L474.355 306.447
L474.95 306.063
L476.736 305.876
L477.331 305.979
L478.522 306.892
L480.902 309.046
L481.498 309.412
L482.093 309.62
L482.688 305.887
L483.878 306.181
L485.664 306.867
L486.259 306.993
L486.854 306.218
L488.045 308.774
L490.426 314.762
L491.616 318.128
L492.806 321.382
L493.997 323.945
L494.592 324.888
L495.187 325.559
L495.782 325.919
L496.378 315.847
L497.568 317.113
L498.163 317.536
L498.758 317.769
L499.354 305.97
L499.949 306.145
L500.544 306.906
L501.139 307.93
L502.33 310.522
L502.925 311.321
L504.115 311.871
L505.306 312.165
L505.901 311.673
L507.091 313.419
L507.686 314.024
L508.282 314.364
L508.877 307.323
L510.067 307.397
L510.662 315.42
L511.258 327.43
L511.853 336.022
L512.448 341.682
L513.043 344.52
L513.043 344.52" style="fill:none;stroke:#0000ff;stroke-linecap:square;stroke-width:4;"/>
   </g>
   <g id="line2d_3">
    <path clip-path="url(#p332b41defa)" d="
M72 287.086
L72.5952 286.861
L73.7856 282.265
L74.3808 281.663
L74.976 280.879
L75.5712 280.452
L76.7616 280.316
L78.5472 280.484
L79.1424 281.23
L80.3328 276.348
L80.928 275.117
L82.1184 274.978
L85.6896 274.976
L86.2848 273.861
L86.88 272.475
L87.4752 272.7
L89.2608 273.958
L90.4512 275.232
L91.6416 276.453
L93.4272 277.95
L94.0224 278.262
L94.6176 278.432
L95.2128 272.555
L99.3792 272.842
L100.57 272.954
L101.165 272.711
L104.141 273.679
L104.736 273.758
L105.331 271.948
L105.926 271.414
L107.117 271.406
L107.712 268.453
L108.307 257.658
L108.902 234.17
L109.498 221.481
L110.093 219.061
L111.283 229.825
L112.474 237.388
L113.069 240.08
L113.664 242.088
L114.259 243.43
L114.854 244.106
L115.45 205.509
L116.045 186.692
L116.64 171.911
L117.235 168.804
L117.83 163.515
L118.426 264.666
L119.021 260.116
L120.211 226.048
L120.806 215.723
L121.402 210.524
L121.997 212.852
L122.592 214.25
L123.187 214.718
L123.782 214.241
L124.378 212.792
L124.973 210.328
L125.568 206.785
L126.163 209.086
L126.758 210.238
L127.354 194.614
L127.949 182.226
L128.544 180.134
L129.139 180.155
L129.734 182.04
L130.33 181.712
L130.925 179.115
L131.52 177.981
L132.115 178.186
L132.71 169.805
L133.306 165.629
L133.901 167.349
L134.496 167.323
L135.091 165.498
L135.686 168.782
L136.282 170.281
L136.877 170.027
L137.472 171.766
L138.067 167.03
L138.662 170.115
L139.258 171.42
L139.853 170.972
L140.448 172.721
L141.043 265.121
L141.638 266.089
L143.424 266.633
L144.019 266.726
L144.614 266.165
L145.805 266.385
L146.4 266.449
L146.995 266.37
L147.59 266.754
L150.566 271.42
L151.757 272.696
L152.947 273.537
L153.542 273.912
L154.138 274.112
L154.733 267.74
L155.923 270.522
L157.709 274.209
L158.899 277.006
L160.09 279.255
L161.28 280.926
L161.875 281.624
L162.47 282.11
L163.066 282.366
L163.661 266.687
L164.256 267.151
L167.232 270.487
L167.827 271.169
L168.422 272.156
L169.613 273.476
L170.208 273.914
L170.803 266.995
L171.398 267.219
L173.779 269.886
L175.565 272.139
L176.755 273.853
L177.35 274.727
L177.946 275.327
L178.541 275.638
L179.136 267.195
L179.731 267.539
L181.517 271.699
L182.707 274.479
L183.898 275.966
L185.088 276.974
L185.683 277.409
L186.278 277.636
L186.874 274.486
L188.064 275.997
L189.85 277.58
L190.445 277.815
L191.04 267.425
L191.635 267.717
L194.611 274.336
L195.802 276.193
L196.992 277.61
L198.182 278.6
L198.778 278.94
L199.373 279.117
L199.968 272.149
L201.754 276.166
L202.349 276.767
L203.539 276.891
L204.134 277.227
L205.325 279.124
L206.515 280.411
L207.11 280.802
L207.706 281.006
L208.301 272.985
L209.491 273.773
L210.682 274.138
L211.277 267.483
L212.467 267.286
L213.062 267.355
L214.253 269.833
L215.443 272.19
L216.038 273.153
L217.229 275.399
L217.824 276.148
L218.419 276.687
L219.014 277.015
L219.61 267.129
L220.205 267.283
L221.99 270.969
L223.181 274.39
L224.371 276.731
L224.966 277.505
L225.562 278.031
L226.157 278.405
L226.752 266.446
L227.942 264.236
L228.538 263.748
L229.133 264.719
L229.728 265.211
L230.323 263.314
L230.918 264.489
L232.704 274.712
L233.299 277.866
L233.894 279.818
L235.68 282.807
L236.87 285.571
L238.061 287.703
L240.442 290.974
L241.037 291.46
L241.632 291.774
L242.227 291.958
L242.822 280.321
L244.013 284.222
L245.203 287.353
L246.394 289.406
L247.584 291.965
L248.774 295.085
L249.965 297.626
L251.155 299.605
L252.346 300.996
L253.536 301.786
L254.131 301.97
L254.726 288.373
L255.917 290.205
L257.107 292.101
L258.298 293.276
L260.678 294.875
L261.274 295.024
L261.869 292.72
L263.059 294.042
L264.25 294.996
L265.44 295.695
L266.63 296.004
L267.226 261.718
L267.821 260.053
L268.416 261.043
L269.011 261.542
L269.606 258.085
L270.202 253.289
L271.392 238.719
L272.582 222.984
L273.773 200.557
L274.368 196.394
L276.749 230.973
L277.344 237.636
L277.939 242.873
L279.13 250.076
L279.725 252.275
L280.32 253.355
L280.915 187.688
L281.51 178.864
L282.106 176.013
L282.701 177.423
L283.296 182.211
L283.891 184.847
L284.486 189.594
L285.082 196.849
L286.272 207.811
L286.867 211.65
L287.462 213.877
L288.058 173.915
L289.248 157.262
L289.843 153.527
L290.438 156.856
L291.034 156.533
L291.629 156.536
L292.224 220.841
L292.819 190.698
L293.414 176.255
L294.01 169.643
L294.605 209.691
L295.2 209.634
L295.795 207.764
L296.39 203.804
L296.986 196.287
L297.581 183.347
L298.176 173.325
L298.771 165.329
L299.366 162.793
L299.962 157.671
L300.557 156.41
L301.152 159.45
L301.747 195.825
L302.938 211.442
L303.533 216.917
L304.128 220.927
L304.723 223.521
L305.318 224.944
L305.914 279.004
L306.509 260.93
L307.104 248.666
L307.699 249.413
L310.08 253.683
L311.27 255.093
L311.866 255.525
L312.461 255.753
L313.056 249.451
L317.222 255.996
L317.818 256.549
L318.413 256.934
L319.008 257.136
L319.603 235.979
L320.198 233.72
L321.389 238.028
L322.579 241.431
L323.174 242.66
L324.365 244.305
L324.96 244.684
L325.555 228.522
L327.341 188.992
L327.936 191.668
L328.531 193.441
L329.126 194.327
L329.722 255.353
L330.317 235.613
L331.507 221.157
L332.102 212.947
L332.698 208.433
L333.293 210.808
L333.888 212.002
L334.483 218.617
L335.078 197.649
L335.674 193.262
L336.269 187.564
L336.864 180.368
L337.459 171.208
L338.054 175.426
L338.65 177.404
L339.245 177.203
L339.84 174.774
L340.435 192.248
L341.626 179.666
L342.221 176.69
L342.816 180.955
L343.411 184.041
L344.006 186.201
L344.602 187.389
L345.197 190.889
L345.792 192.596
L346.387 193.197
L346.982 192.541
L347.578 196.211
L348.173 198.639
L348.768 199.854
L349.363 285.537
L349.958 284.88
L350.554 284.683
L351.744 283.724
L352.339 283.621
L355.315 284.52
L355.91 283.859
L356.506 284.058
L361.267 287.78
L361.862 287.944
L362.458 284.484
L364.243 285.425
L366.029 287.047
L367.219 287.866
L367.814 288.185
L368.41 288.361
L369.005 285.424
L370.195 286.848
L370.79 287.588
L372.576 289.045
L373.766 289.797
L374.957 290.186
L375.552 288.174
L377.338 290
L378.528 290.797
L379.123 290.984
L379.718 287.603
L381.504 289.536
L382.694 290.572
L383.885 291.365
L384.48 291.55
L385.075 284.498
L388.051 284.47
L388.646 284.924
L391.027 289.781
L391.622 290.591
L392.813 291.43
L393.408 291.709
L394.003 291.862
L394.598 290.584
L396.384 291.933
L397.574 292.486
L398.17 292.61
L398.765 284.763
L399.36 284.739
L400.55 285.162
L401.146 285.576
L405.312 289.658
L406.502 290.378
L407.098 290.567
L407.693 287.809
L409.478 288.814
L410.669 289.238
L411.264 289.334
L411.859 285.132
L412.454 285.383
L415.43 288.278
L416.621 289.021
L417.216 289.221
L417.811 285.348
L420.787 286.228
L421.978 286.38
L422.573 286.075
L424.954 287.217
L426.144 287.616
L426.739 287.712
L427.334 287.032
L428.525 287.738
L429.715 288.118
L430.31 284.625
L430.906 284.033
L431.501 283.754
L432.096 286.098
L433.286 285.718
L435.072 285.345
L435.667 285.685
L436.262 286.173
L436.858 286.982
L437.453 287.544
L438.643 287.858
L440.429 288.527
L441.024 288.653
L441.619 288.175
L442.214 289.113
L446.381 292.265
L447.571 292.58
L448.166 292.277
L449.357 292.653
L449.952 289.223
L452.928 292.523
L454.118 293.108
L454.714 293.251
L455.309 292.357
L457.094 294.667
L458.285 295.899
L459.475 296.695
L460.07 296.875
L460.666 291.278
L463.046 293.878
L464.237 294.821
L464.832 295.128
L465.427 295.295
L466.022 285.742
L467.213 284.683
L467.808 284.338
L468.403 284.22
L469.594 284.551
L471.974 285.569
L473.165 286.209
L473.76 286.363
L474.355 285.151
L474.95 284.959
L476.736 284.865
L477.331 284.917
L478.522 285.373
L480.902 286.45
L482.093 286.737
L482.688 284.871
L483.878 285.018
L486.259 285.424
L486.854 285.037
L488.045 286.315
L491.021 290.084
L492.806 292.618
L493.997 293.9
L495.187 294.707
L495.782 294.887
L496.378 289.851
L497.568 290.484
L498.758 290.812
L499.354 284.913
L499.949 285
L501.139 285.893
L502.33 287.188
L502.925 287.588
L504.71 287.958
L505.306 288.01
L505.901 287.764
L507.091 288.637
L507.686 288.94
L508.282 289.109
L508.877 285.589
L510.067 285.626
L510.662 289.637
L511.258 295.642
L511.853 299.938
L512.448 302.768
L513.043 304.187
L513.043 304.187" style="fill:none;stroke:#ff0000;stroke-linecap:square;stroke-width:2;"/>
   </g>
   <g id="patch_3">
    <path d="
M72 43.2
L518.4 43.2" style="fill:none;stroke:#000000;stroke-linecap:square;stroke-linejoin:miter;"/>
   </g>
   <g id="patch_4">
    <path d="
M518.4 378
L518.4 43.2" style="fill:none;stroke:#000000;stroke-linecap:square;stroke-linejoin:miter;"/>
   </g>
   <g id="patch_5">
    <path d="
M72 378
L518.4 378" style="fill:none;stroke:#000000;stroke-linecap:square;stroke-linejoin:miter;"/>
   </g>
   <g id="patch_6">
    <path d="
M72 378
L72 43.2" style="fill:none;stroke:#000000;stroke-linecap:square;stroke-linejoin:miter;"/>
   </g>
   <g id="matplotlib.axis_1">
    <g id="xtick_1">
     <g id="line2d_4">
      <defs>
       <path d="
M0 0
L0 -4" id="m93b0483c22" style="stroke:#000000;stroke-width:0.5;"/>
      </defs>
      <g>
       <use style="stroke:#000000;stroke-width:0.5;" x="72.0" xlink:href="#m93b0483c22" y="378.0"/>
      </g>
     </g>
     <g id="line2d_5">
      <defs>
       <path d="
M0 0
L0 4" id="m741efc42ff" style="stroke:#000000;stroke-width:0.5;"/>
      </defs>
      <g>
       <use style="stroke:#000000;stroke-width:0.5;" x="72.0" xlink:href="#m741efc42ff" y="43.2"/>
      </g>
     </g>
     <g id="text_1">
      <!-- 0 -->
      <defs>
       <path d="
M31.7812 66.4062
Q24.1719 66.4062 20.3281 58.9062
Q16.5 51.4219 16.5 36.375
Q16.5 21.3906 20.3281 13.8906
Q24.1719 6.39062 31.7812 6.39062
Q39.4531 6.39062 43.2812 13.8906
Q47.125 21.3906 47.125 36.375
Q47.125 51.4219 43.2812 58.9062
Q39.4531 66.4062 31.7812 66.4062
M31.7812 74.2188
Q44.0469 74.2188 50.5156 64.5156
Q56.9844 54.8281 56.9844 36.375
Q56.9844 17.9688 50.5156 8.26562
Q44.0469 -1.42188 31.7812 -1.42188
Q19.5312 -1.42188 13.0625 8.26562
Q6.59375 17.9688 6.59375 36.375
Q6.59375 54.8281 13.0625 64.5156
Q19.5312 74.2188 31.7812 74.2188" id="BitstreamVeraSans-Roman-30"/>
      </defs>
      <g transform="translate(68.47265625 392.6378125)scale(0.14 -0.14)">
       <use xlink:href="#BitstreamVeraSans-Roman-30"/>
      </g>
     </g>
    </g>
    <g id="xtick_2">
     <g id="line2d_6">
      <g>
       <use style="stroke:#000000;stroke-width:0.5;" x="220.8" xlink:href="#m93b0483c22" y="378.0"/>
      </g>
     </g>
     <g id="line2d_7">
      <g>
       <use style="stroke:#000000;stroke-width:0.5;" x="220.8" xlink:href="#m741efc42ff" y="43.2"/>
      </g>
     </g>
     <g id="text_2">
      <!-- 250 -->
      <defs>
       <path d="
M19.1875 8.29688
L53.6094 8.29688
L53.6094 0
L7.32812 0
L7.32812 8.29688
Q12.9375 14.1094 22.625 23.8906
Q32.3281 33.6875 34.8125 36.5312
Q39.5469 41.8438 41.4219 45.5312
Q43.3125 49.2188 43.3125 52.7812
Q43.3125 58.5938 39.2344 62.25
Q35.1562 65.9219 28.6094 65.9219
Q23.9688 65.9219 18.8125 64.3125
Q13.6719 62.7031 7.8125 59.4219
L7.8125 69.3906
Q13.7656 71.7812 18.9375 73
Q24.125 74.2188 28.4219 74.2188
Q39.75 74.2188 46.4844 68.5469
Q53.2188 62.8906 53.2188 53.4219
Q53.2188 48.9219 51.5312 44.8906
Q49.8594 40.875 45.4062 35.4062
Q44.1875 33.9844 37.6406 27.2188
Q31.1094 20.4531 19.1875 8.29688" id="BitstreamVeraSans-Roman-32"/>
       <path d="
M10.7969 72.9062
L49.5156 72.9062
L49.5156 64.5938
L19.8281 64.5938
L19.8281 46.7344
Q21.9688 47.4688 24.1094 47.8281
Q26.2656 48.1875 28.4219 48.1875
Q40.625 48.1875 47.75 41.5
Q54.8906 34.8125 54.8906 23.3906
Q54.8906 11.625 47.5625 5.09375
Q40.2344 -1.42188 26.9062 -1.42188
Q22.3125 -1.42188 17.5469 -0.640625
Q12.7969 0.140625 7.71875 1.70312
L7.71875 11.625
Q12.1094 9.23438 16.7969 8.0625
Q21.4844 6.89062 26.7031 6.89062
Q35.1562 6.89062 40.0781 11.3281
Q45.0156 15.7656 45.0156 23.3906
Q45.0156 31 40.0781 35.4375
Q35.1562 39.8906 26.7031 39.8906
Q22.75 39.8906 18.8125 39.0156
Q14.8906 38.1406 10.7969 36.2812
z
" id="BitstreamVeraSans-Roman-35"/>
      </defs>
      <g transform="translate(208.4165625 392.6378125)scale(0.14 -0.14)">
       <use xlink:href="#BitstreamVeraSans-Roman-32"/>
       <use x="63.623046875" xlink:href="#BitstreamVeraSans-Roman-35"/>
       <use x="127.24609375" xlink:href="#BitstreamVeraSans-Roman-30"/>
      </g>
     </g>
    </g>
    <g id="xtick_3">
     <g id="line2d_8">
      <g>
       <use style="stroke:#000000;stroke-width:0.5;" x="369.6" xlink:href="#m93b0483c22" y="378.0"/>
      </g>
     </g>
     <g id="line2d_9">
      <g>
       <use style="stroke:#000000;stroke-width:0.5;" x="369.6" xlink:href="#m741efc42ff" y="43.2"/>
      </g>
     </g>
     <g id="text_3">
      <!-- 500 -->
      <g transform="translate(357.24390625 392.6378125)scale(0.14 -0.14)">
       <use xlink:href="#BitstreamVeraSans-Roman-35"/>
       <use x="63.623046875" xlink:href="#BitstreamVeraSans-Roman-30"/>
       <use x="127.24609375" xlink:href="#BitstreamVeraSans-Roman-30"/>
      </g>
     </g>
    </g>
    <g id="xtick_4">
     <g id="line2d_10">
      <g>
       <use style="stroke:#000000;stroke-width:0.5;" x="518.4" xlink:href="#m93b0483c22" y="378.0"/>
      </g>
     </g>
     <g id="line2d_11">
      <g>
       <use style="stroke:#000000;stroke-width:0.5;" x="518.4" xlink:href="#m741efc42ff" y="43.2"/>
      </g>
     </g>
     <g id="text_4">
      <!-- 750 -->
      <defs>
       <path d="
M8.20312 72.9062
L55.0781 72.9062
L55.0781 68.7031
L28.6094 0
L18.3125 0
L43.2188 64.5938
L8.20312 64.5938
z
" id="BitstreamVeraSans-Roman-37"/>
      </defs>
      <g transform="translate(506.0778125 392.6378125)scale(0.14 -0.14)">
       <use xlink:href="#BitstreamVeraSans-Roman-37"/>
       <use x="63.623046875" xlink:href="#BitstreamVeraSans-Roman-35"/>
       <use x="127.24609375" xlink:href="#BitstreamVeraSans-Roman-30"/>
      </g>
     </g>
    </g>
    <g id="text_5">
     <!-- compartment number -->
     <defs>
      <path d="
M32.9062 24.6094
Q27.4375 24.6094 24.6719 22.75
Q21.9219 20.9062 21.9219 17.2812
Q21.9219 13.9688 24.1406 12.0781
Q26.375 10.2031 30.3281 10.2031
Q35.25 10.2031 38.625 13.7344
Q42 17.2812 42 22.6094
L42 24.6094
z

M59.625 31.2031
L59.625 0
L42 0
L42 8.10938
Q38.4844 3.125 34.0781 0.84375
Q29.6875 -1.42188 23.3906 -1.42188
Q14.8906 -1.42188 9.59375 3.53125
Q4.29688 8.5 4.29688 16.4062
Q4.29688 26.0312 10.9062 30.5156
Q17.5312 35.0156 31.6875 35.0156
L42 35.0156
L42 36.375
Q42 40.5312 38.7188 42.4531
Q35.4531 44.3906 28.5156 44.3906
Q22.9062 44.3906 18.0625 43.2656
Q13.2344 42.1406 9.07812 39.8906
L9.07812 53.2188
Q14.7031 54.5938 20.3594 55.2969
Q26.0312 56 31.6875 56
Q46.4844 56 53.0469 50.1719
Q59.625 44.3438 59.625 31.2031" id="BitstreamVeraSans-Bold-61"/>
      <path id="BitstreamVeraSans-Bold-20"/>
      <path d="
M37.5 11.2812
Q43.1094 11.2812 46.0625 15.375
Q49.0312 19.4844 49.0312 27.2969
Q49.0312 35.1094 46.0625 39.2031
Q43.1094 43.3125 37.5 43.3125
Q31.8906 43.3125 28.875 39.1875
Q25.875 35.0625 25.875 27.2969
Q25.875 19.5312 28.875 15.4062
Q31.8906 11.2812 37.5 11.2812
M25.875 46.6875
Q29.5 51.4688 33.8906 53.7344
Q38.2812 56 44 56
Q54.1094 56 60.5938 47.9688
Q67.0938 39.9375 67.0938 27.2969
Q67.0938 14.6562 60.5938 6.60938
Q54.1094 -1.42188 44 -1.42188
Q38.2812 -1.42188 33.8906 0.84375
Q29.5 3.125 25.875 7.90625
L25.875 0
L8.40625 0
L8.40625 75.9844
L25.875 75.9844
z
" id="BitstreamVeraSans-Bold-62"/>
      <path d="
M52.5938 52.9844
L52.5938 38.7188
Q49.0312 41.1562 45.4375 42.3281
Q41.8438 43.5 37.9844 43.5
Q30.6719 43.5 26.5938 39.2344
Q22.5156 34.9688 22.5156 27.2969
Q22.5156 19.625 26.5938 15.3438
Q30.6719 11.0781 37.9844 11.0781
Q42.0938 11.0781 45.7812 12.2969
Q49.4688 13.5312 52.5938 15.9219
L52.5938 1.60938
Q48.4844 0.09375 44.2656 -0.65625
Q40.0469 -1.42188 35.7969 -1.42188
Q21 -1.42188 12.6406 6.17188
Q4.29688 13.7656 4.29688 27.2969
Q4.29688 40.8281 12.6406 48.4062
Q21 56 35.7969 56
Q40.0938 56 44.2656 55.25
Q48.4375 54.5 52.5938 52.9844" id="BitstreamVeraSans-Bold-63"/>
      <path d="
M49.0312 39.7969
Q46.7344 40.875 44.4531 41.375
Q42.1875 41.8906 39.8906 41.8906
Q33.1562 41.8906 29.5156 37.5625
Q25.875 33.25 25.875 25.2031
L25.875 0
L8.40625 0
L8.40625 54.6875
L25.875 54.6875
L25.875 45.7031
Q29.25 51.0781 33.6094 53.5312
Q37.9844 56 44.0938 56
Q44.9688 56 45.9844 55.9219
Q47.0156 55.8594 48.9688 55.6094
z
" id="BitstreamVeraSans-Bold-72"/>
      <path d="
M7.8125 21.2969
L7.8125 54.6875
L25.3906 54.6875
L25.3906 49.2188
Q25.3906 44.7812 25.3438 38.0625
Q25.2969 31.3438 25.2969 29.1094
Q25.2969 22.5156 25.6406 19.6094
Q25.9844 16.7031 26.8125 15.375
Q27.875 13.6719 29.6094 12.7344
Q31.3438 11.8125 33.5938 11.8125
Q39.0625 11.8125 42.1875 16.0156
Q45.3125 20.2188 45.3125 27.6875
L45.3125 54.6875
L62.7969 54.6875
L62.7969 0
L45.3125 0
L45.3125 7.90625
Q41.3594 3.125 36.9375 0.84375
Q32.5156 -1.42188 27.2031 -1.42188
Q17.7188 -1.42188 12.7656 4.39062
Q7.8125 10.2031 7.8125 21.2969" id="BitstreamVeraSans-Bold-75"/>
      <path d="
M27.4844 70.2188
L27.4844 54.6875
L45.5156 54.6875
L45.5156 42.1875
L27.4844 42.1875
L27.4844 19
Q27.4844 15.1875 29 13.8438
Q30.5156 12.5 35.0156 12.5
L44 12.5
L44 0
L29 0
Q18.6562 0 14.3281 4.3125
Q10.0156 8.64062 10.0156 19
L10.0156 42.1875
L1.3125 42.1875
L1.3125 54.6875
L10.0156 54.6875
L10.0156 70.2188
z
" id="BitstreamVeraSans-Bold-74"/>
      <path d="
M62.9844 27.4844
L62.9844 22.5156
L22.125 22.5156
Q22.75 16.3594 26.5625 13.2812
Q30.375 10.2031 37.2031 10.2031
Q42.7188 10.2031 48.5 11.8438
Q54.2969 13.4844 60.4062 16.7969
L60.4062 3.32812
Q54.2031 0.984375 48 -0.21875
Q41.7969 -1.42188 35.5938 -1.42188
Q20.75 -1.42188 12.5156 6.125
Q4.29688 13.6719 4.29688 27.2969
Q4.29688 40.6719 12.375 48.3281
Q20.4531 56 34.625 56
Q47.5156 56 55.25 48.2344
Q62.9844 40.4844 62.9844 27.4844
M45.0156 33.2969
Q45.0156 38.2812 42.1094 41.3281
Q39.2031 44.3906 34.5156 44.3906
Q29.4375 44.3906 26.2656 41.5312
Q23.0938 38.6719 22.3125 33.2969
z
" id="BitstreamVeraSans-Bold-65"/>
      <path d="
M25.875 7.90625
L25.875 -20.7969
L8.40625 -20.7969
L8.40625 54.6875
L25.875 54.6875
L25.875 46.6875
Q29.5 51.4688 33.8906 53.7344
Q38.2812 56 44 56
Q54.1094 56 60.5938 47.9688
Q67.0938 39.9375 67.0938 27.2969
Q67.0938 14.6562 60.5938 6.60938
Q54.1094 -1.42188 44 -1.42188
Q38.2812 -1.42188 33.8906 0.84375
Q29.5 3.125 25.875 7.90625
M37.5 43.3125
Q31.8906 43.3125 28.875 39.1875
Q25.875 35.0625 25.875 27.2969
Q25.875 19.5312 28.875 15.4062
Q31.8906 11.2812 37.5 11.2812
Q43.1094 11.2812 46.0625 15.375
Q49.0312 19.4844 49.0312 27.2969
Q49.0312 35.1094 46.0625 39.2031
Q43.1094 43.3125 37.5 43.3125" id="BitstreamVeraSans-Bold-70"/>
      <path d="
M34.4219 43.5
Q28.6094 43.5 25.5625 39.3281
Q22.5156 35.1562 22.5156 27.2969
Q22.5156 19.4375 25.5625 15.25
Q28.6094 11.0781 34.4219 11.0781
Q40.1406 11.0781 43.1562 15.25
Q46.1875 19.4375 46.1875 27.2969
Q46.1875 35.1562 43.1562 39.3281
Q40.1406 43.5 34.4219 43.5
M34.4219 56
Q48.5312 56 56.4688 48.375
Q64.4062 40.7656 64.4062 27.2969
Q64.4062 13.8125 56.4688 6.1875
Q48.5312 -1.42188 34.4219 -1.42188
Q20.2656 -1.42188 12.2812 6.1875
Q4.29688 13.8125 4.29688 27.2969
Q4.29688 40.7656 12.2812 48.375
Q20.2656 56 34.4219 56" id="BitstreamVeraSans-Bold-6f"/>
      <path d="
M59.0781 45.6094
Q62.4062 50.6875 66.9688 53.3438
Q71.5312 56 77 56
Q86.4219 56 91.3594 50.1875
Q96.2969 44.3906 96.2969 33.2969
L96.2969 0
L78.7188 0
L78.7188 28.5156
Q78.7656 29.1562 78.7812 29.8281
Q78.8125 30.5156 78.8125 31.7812
Q78.8125 37.5938 77.0938 40.2031
Q75.3906 42.8281 71.5781 42.8281
Q66.6094 42.8281 63.8906 38.7188
Q61.1875 34.625 61.0781 26.8594
L61.0781 0
L43.5 0
L43.5 28.5156
Q43.5 37.5938 41.9375 40.2031
Q40.375 42.8281 36.375 42.8281
Q31.3438 42.8281 28.6094 38.7031
Q25.875 34.5781 25.875 26.9062
L25.875 0
L8.29688 0
L8.29688 54.6875
L25.875 54.6875
L25.875 46.6875
Q29.1094 51.3125 33.2812 53.6562
Q37.4531 56 42.4844 56
Q48.1406 56 52.4844 53.2656
Q56.8438 50.5312 59.0781 45.6094" id="BitstreamVeraSans-Bold-6d"/>
      <path d="
M63.375 33.2969
L63.375 0
L45.7969 0
L45.7969 5.42188
L45.7969 25.4844
Q45.7969 32.5625 45.4844 35.25
Q45.1719 37.9375 44.3906 39.2031
Q43.3594 40.9219 41.5938 41.875
Q39.8438 42.8281 37.5938 42.8281
Q32.125 42.8281 29 38.5938
Q25.875 34.375 25.875 26.9062
L25.875 0
L8.40625 0
L8.40625 54.6875
L25.875 54.6875
L25.875 46.6875
Q29.8281 51.4688 34.2656 53.7344
Q38.7188 56 44.0938 56
Q53.5625 56 58.4688 50.1875
Q63.375 44.3906 63.375 33.2969" id="BitstreamVeraSans-Bold-6e"/>
     </defs>
     <g transform="translate(196.86375 412.706875)scale(0.16 -0.16)">
      <use xlink:href="#BitstreamVeraSans-Bold-63"/>
      <use x="59.27734375" xlink:href="#BitstreamVeraSans-Bold-6f"/>
      <use x="127.978515625" xlink:href="#BitstreamVeraSans-Bold-6d"/>
      <use x="232.177734375" xlink:href="#BitstreamVeraSans-Bold-70"/>
      <use x="303.759765625" xlink:href="#BitstreamVeraSans-Bold-61"/>
      <use x="371.240234375" xlink:href="#BitstreamVeraSans-Bold-72"/>
      <use x="420.556640625" xlink:href="#BitstreamVeraSans-Bold-74"/>
      <use x="468.359375" xlink:href="#BitstreamVeraSans-Bold-6d"/>
      <use x="572.55859375" xlink:href="#BitstreamVeraSans-Bold-65"/>
      <use x="640.380859375" xlink:href="#BitstreamVeraSans-Bold-6e"/>
      <use x="711.572265625" xlink:href="#BitstreamVeraSans-Bold-74"/>
      <use x="759.375" xlink:href="#BitstreamVeraSans-Bold-20"/>
      <use x="794.189453125" xlink:href="#BitstreamVeraSans-Bold-6e"/>
      <use x="865.380859375" xlink:href="#BitstreamVeraSans-Bold-75"/>
      <use x="936.572265625" xlink:href="#BitstreamVeraSans-Bold-6d"/>
      <use x="1040.77148438" xlink:href="#BitstreamVeraSans-Bold-62"/>
      <use x="1112.35351562" xlink:href="#BitstreamVeraSans-Bold-65"/>
      <use x="1180.17578125" xlink:href="#BitstreamVeraSans-Bold-72"/>
     </g>
    </g>
   </g>
   <g id="matplotlib.axis_2">
    <g id="ytick_1">
     <g id="line2d_12">
      <defs>
       <path d="
M0 0
L4 0" id="m728421d6d4" style="stroke:#000000;stroke-width:0.5;"/>
      </defs>
      <g>
       <use style="stroke:#000000;stroke-width:0.5;" x="72.0" xlink:href="#m728421d6d4" y="344.52"/>
      </g>
     </g>
     <g id="line2d_13">
      <defs>
       <path d="
M0 0
L-4 0" id="mcb0005524f" style="stroke:#000000;stroke-width:0.5;"/>
      </defs>
      <g>
       <use style="stroke:#000000;stroke-width:0.5;" x="518.4" xlink:href="#mcb0005524f" y="344.52"/>
      </g>
     </g>
     <g id="text_6">
      <!-- 0.05 -->
      <defs>
       <path d="
M10.6875 12.4062
L21 12.4062
L21 0
L10.6875 0
z
" id="BitstreamVeraSans-Roman-2e"/>
      </defs>
      <g transform="translate(38.9740625 348.383125)scale(0.14 -0.14)">
       <use xlink:href="#BitstreamVeraSans-Roman-30"/>
       <use x="63.623046875" xlink:href="#BitstreamVeraSans-Roman-2e"/>
       <use x="95.41015625" xlink:href="#BitstreamVeraSans-Roman-30"/>
       <use x="159.033203125" xlink:href="#BitstreamVeraSans-Roman-35"/>
      </g>
     </g>
    </g>
    <g id="ytick_2">
     <g id="line2d_14">
      <g>
       <use style="stroke:#000000;stroke-width:0.5;" x="72.0" xlink:href="#m728421d6d4" y="311.04"/>
      </g>
     </g>
     <g id="line2d_15">
      <g>
       <use style="stroke:#000000;stroke-width:0.5;" x="518.4" xlink:href="#mcb0005524f" y="311.04"/>
      </g>
     </g>
     <g id="text_7">
      <!-- 0.10 -->
      <defs>
       <path d="
M12.4062 8.29688
L28.5156 8.29688
L28.5156 63.9219
L10.9844 60.4062
L10.9844 69.3906
L28.4219 72.9062
L38.2812 72.9062
L38.2812 8.29688
L54.3906 8.29688
L54.3906 0
L12.4062 0
z
" id="BitstreamVeraSans-Roman-31"/>
      </defs>
      <g transform="translate(38.6809375 314.903125)scale(0.14 -0.14)">
       <use xlink:href="#BitstreamVeraSans-Roman-30"/>
       <use x="63.623046875" xlink:href="#BitstreamVeraSans-Roman-2e"/>
       <use x="95.41015625" xlink:href="#BitstreamVeraSans-Roman-31"/>
       <use x="159.033203125" xlink:href="#BitstreamVeraSans-Roman-30"/>
      </g>
     </g>
    </g>
    <g id="ytick_3">
     <g id="line2d_16">
      <g>
       <use style="stroke:#000000;stroke-width:0.5;" x="72.0" xlink:href="#m728421d6d4" y="277.56"/>
      </g>
     </g>
     <g id="line2d_17">
      <g>
       <use style="stroke:#000000;stroke-width:0.5;" x="518.4" xlink:href="#mcb0005524f" y="277.56"/>
      </g>
     </g>
     <g id="text_8">
      <!-- 0.15 -->
      <g transform="translate(38.9740625 281.423125)scale(0.14 -0.14)">
       <use xlink:href="#BitstreamVeraSans-Roman-30"/>
       <use x="63.623046875" xlink:href="#BitstreamVeraSans-Roman-2e"/>
       <use x="95.41015625" xlink:href="#BitstreamVeraSans-Roman-31"/>
       <use x="159.033203125" xlink:href="#BitstreamVeraSans-Roman-35"/>
      </g>
     </g>
    </g>
    <g id="text_9">
     <!-- normalized concentration -->
     <defs>
      <path d="
M5.71875 54.6875
L53.4219 54.6875
L53.4219 42.4844
L24.6094 12.5
L53.4219 12.5
L53.4219 0
L4.5 0
L4.5 12.2031
L33.2969 42.1875
L5.71875 42.1875
z
" id="BitstreamVeraSans-Bold-7a"/>
      <path d="
M8.40625 75.9844
L25.875 75.9844
L25.875 0
L8.40625 0
z
" id="BitstreamVeraSans-Bold-6c"/>
      <path d="
M8.40625 54.6875
L25.875 54.6875
L25.875 0
L8.40625 0
z

M8.40625 75.9844
L25.875 75.9844
L25.875 61.7188
L8.40625 61.7188
z
" id="BitstreamVeraSans-Bold-69"/>
      <path d="
M45.6094 46.6875
L45.6094 75.9844
L63.1875 75.9844
L63.1875 0
L45.6094 0
L45.6094 7.90625
Q42 3.07812 37.6406 0.828125
Q33.2969 -1.42188 27.5938 -1.42188
Q17.4844 -1.42188 10.9844 6.60938
Q4.5 14.6562 4.5 27.2969
Q4.5 39.9375 10.9844 47.9688
Q17.4844 56 27.5938 56
Q33.25 56 37.625 53.7344
Q42 51.4688 45.6094 46.6875
M34.0781 11.2812
Q39.7031 11.2812 42.6562 15.375
Q45.6094 19.4844 45.6094 27.2969
Q45.6094 35.1094 42.6562 39.2031
Q39.7031 43.3125 34.0781 43.3125
Q28.5156 43.3125 25.5625 39.2031
Q22.6094 35.1094 22.6094 27.2969
Q22.6094 19.4844 25.5625 15.375
Q28.5156 11.2812 34.0781 11.2812" id="BitstreamVeraSans-Bold-64"/>
     </defs>
     <g transform="translate(30.3534375 325.6475)rotate(-90.0)scale(0.16 -0.16)">
      <use xlink:href="#BitstreamVeraSans-Bold-6e"/>
      <use x="71.19140625" xlink:href="#BitstreamVeraSans-Bold-6f"/>
      <use x="139.892578125" xlink:href="#BitstreamVeraSans-Bold-72"/>
      <use x="189.208984375" xlink:href="#BitstreamVeraSans-Bold-6d"/>
      <use x="293.408203125" xlink:href="#BitstreamVeraSans-Bold-61"/>
      <use x="360.888671875" xlink:href="#BitstreamVeraSans-Bold-6c"/>
      <use x="395.166015625" xlink:href="#BitstreamVeraSans-Bold-69"/>
      <use x="429.443359375" xlink:href="#BitstreamVeraSans-Bold-7a"/>
      <use x="487.646484375" xlink:href="#BitstreamVeraSans-Bold-65"/>
      <use x="555.46875" xlink:href="#BitstreamVeraSans-Bold-64"/>
      <use x="627.05078125" xlink:href="#BitstreamVeraSans-Bold-20"/>
      <use x="661.865234375" xlink:href="#BitstreamVeraSans-Bold-63"/>
      <use x="721.142578125" xlink:href="#BitstreamVeraSans-Bold-6f"/>
      <use x="789.84375" xlink:href="#BitstreamVeraSans-Bold-6e"/>
      <use x="861.03515625" xlink:href="#BitstreamVeraSans-Bold-63"/>
      <use x="920.3125" xlink:href="#BitstreamVeraSans-Bold-65"/>
      <use x="988.134765625" xlink:href="#BitstreamVeraSans-Bold-6e"/>
      <use x="1059.32617188" xlink:href="#BitstreamVeraSans-Bold-74"/>
      <use x="1107.12890625" xlink:href="#BitstreamVeraSans-Bold-72"/>
      <use x="1156.4453125" xlink:href="#BitstreamVeraSans-Bold-61"/>
      <use x="1223.92578125" xlink:href="#BitstreamVeraSans-Bold-74"/>
      <use x="1271.72851562" xlink:href="#BitstreamVeraSans-Bold-69"/>
      <use x="1306.00585938" xlink:href="#BitstreamVeraSans-Bold-6f"/>
      <use x="1374.70703125" xlink:href="#BitstreamVeraSans-Bold-6e"/>
     </g>
    </g>
   </g>
  </g>
 </g>
 <defs>
  <clipPath id="p332b41defa">
   <rect height="334.8" width="446.4" x="72.0" y="43.2"/>
  </clipPath>
 </defs>
</svg>
