<?xml version="1.0" encoding="utf-8" standalone="no"?>
<!DOCTYPE svg PUBLIC "-//W3C//DTD SVG 1.1//EN"
  "http://www.w3.org/Graphics/SVG/1.1/DTD/svg11.dtd">
<!-- Created with matplotlib (http://matplotlib.org/) -->
<svg height="720pt" version="1.1" viewBox="0 0 720 720" width="720pt" xmlns="http://www.w3.org/2000/svg" xmlns:xlink="http://www.w3.org/1999/xlink">
 <defs>
  <style type="text/css">
*{stroke-linecap:butt;stroke-linejoin:round;}
  </style>
 </defs>
 <g id="figure_1">
  <g id="patch_1">
   <path d="
M0 720
L720 720
L720 0
L0 0
z
" style="fill:#ffffff;"/>
  </g>
  <g id="axes_1">
   <g id="patch_2">
    <path d="
M58.7306 129.24
L697.268 129.24
L697.268 10.8
L58.7306 10.8
z
" style="fill:#ffffff;"/>
   </g>
   <g id="line2d_1">
    <path clip-path="url(#p0ca233ff5b)" d="
M58.7306 109.5
L60.0103 113.063
L61.2899 108.263
L62.5695 104.302
L63.8492 101.29
L65.1288 98.7653
L67.6881 94.5016
L70.2473 90.9732
L72.8066 88.0296
L75.3659 85.5745
L77.9251 83.5356
L80.4844 81.8581
L83.0437 80.5
L85.6029 79.4287
L88.1622 78.6188
L90.7215 78.0504
L93.2807 77.708
L95.84 77.5791
L98.3993 77.654
L100.959 77.9245
L103.518 78.3835
L106.077 79.0244
L108.636 79.8402
L111.196 80.8225
L115.035 82.5847
L118.873 84.6481
L126.551 88.9859
L134.229 92.2043
L143.186 95.7294
L152.144 99.0191
L154.703 99.9104
L155.983 100.233
L158.542 100.453
L161.101 100.387
L163.661 100.143
L167.5 99.5217
L172.618 98.3818
L189.253 94.3491
L194.372 93.4232
L199.49 92.7298
L204.609 92.2737
L209.727 92.0427
L214.846 92.0118
L221.244 92.202
L228.922 92.66
L251.955 94.2114
L260.913 94.498
L269.87 94.5543
L281.387 94.3879
L313.378 93.7835
L330.013 93.771
L393.995 93.9793
L457.976 93.9393
L625.608 93.9437
L697.268 93.9437
L697.268 93.9437" style="fill:none;stroke:#666666;stroke-linecap:square;stroke-width:2;"/>
   </g>
   <g id="line2d_2">
    <path clip-path="url(#p0ca233ff5b)" d="
M58.7306 109.5
L60.0103 114.628
L62.5695 105.52
L63.8492 101.729
L65.1288 98.4368
L67.6881 92.7603
L70.2473 87.992
L72.8066 83.9643
L75.3659 80.56
L77.9251 77.6876
L80.4844 75.2752
L83.0437 73.2662
L85.6029 71.6159
L88.1622 70.2887
L90.7215 69.2564
L93.2807 68.4967
L95.84 67.9919
L98.3993 67.7278
L100.959 67.6933
L103.518 67.8792
L106.077 68.2778
L108.636 68.8819
L111.196 69.6841
L113.755 70.676
L116.314 71.8466
L120.153 73.9055
L127.831 78.3693
L136.788 82.8463
L145.746 87.0875
L154.703 91.0784
L155.983 91.5549
L158.542 92.1348
L161.101 92.4006
L163.661 92.4359
L166.22 92.2746
L170.059 91.7331
L173.898 90.9287
L180.296 89.2761
L189.253 86.911
L194.372 85.7558
L199.49 84.8253
L204.609 84.1451
L209.727 83.7167
L214.846 83.5242
L219.965 83.5384
L226.363 83.7877
L235.32 84.4099
L253.235 85.7377
L262.192 86.1185
L271.15 86.2454
L281.387 86.1448
L324.894 85.385
L345.369 85.4831
L379.919 85.6532
L697.268 85.5892
L697.268 85.5892" style="fill:none;stroke:#575771;stroke-linecap:square;stroke-width:2;"/>
   </g>
   <g id="line2d_3">
    <path clip-path="url(#p0ca233ff5b)" d="
M58.7306 109.5
L60.0103 116.368
L61.2899 112.038
L62.5695 106.658
L63.8492 101.852
L65.1288 97.5518
L67.6881 90.0773
L70.2473 83.8114
L72.8066 78.5395
L75.3659 74.0968
L77.9251 70.3517
L80.4844 67.1998
L83.0437 64.5587
L85.6029 62.3627
L88.1622 60.5599
L90.7215 59.1091
L93.2807 57.9775
L95.84 57.1393
L98.3993 56.5742
L100.959 56.2663
L103.518 56.2031
L106.077 56.3749
L108.636 56.7737
L111.196 57.3926
L113.755 58.2244
L116.314 59.2612
L118.873 60.4926
L121.433 61.9046
L132.949 68.719
L143.186 74.4226
L153.424 79.858
L155.983 81.1304
L158.542 82.0626
L161.101 82.6687
L163.661 82.9971
L166.22 83.0738
L168.779 82.9287
L171.338 82.5959
L175.177 81.8228
L180.296 80.4628
L194.372 76.4446
L199.49 75.2837
L204.609 74.3854
L209.727 73.7644
L214.846 73.4128
L219.965 73.306
L225.083 73.4072
L231.481 73.7567
L241.718 74.5989
L254.515 75.6364
L262.192 76.0533
L269.87 76.2637
L278.828 76.273
L290.344 76.0406
L317.217 75.4222
L332.572 75.3604
L358.165 75.5474
L385.037 75.6489
L697.268 75.5792
L697.268 75.5792" style="fill:none;stroke:#49497c;stroke-linecap:square;stroke-width:2;"/>
   </g>
   <g id="line2d_4">
    <path clip-path="url(#p0ca233ff5b)" d="
M58.7306 109.5
L60.0103 117.517
L61.2899 113.385
L63.8492 101.396
L65.1288 96.0539
L66.4084 91.2017
L67.6881 86.7922
L70.2473 79.1309
L72.8066 72.7716
L75.3659 67.4753
L77.9251 63.0535
L80.4844 59.3586
L83.0437 56.2755
L85.6029 53.7143
L88.1622 51.6043
L90.7215 49.8903
L93.2807 48.5288
L95.84 47.4859
L98.3993 46.7349
L100.959 46.2554
L103.518 46.0317
L106.077 46.0519
L108.636 46.3071
L111.196 46.7901
L113.755 47.4948
L116.314 48.4153
L118.873 49.5441
L121.433 50.8714
L125.272 53.1774
L138.068 60.9397
L150.864 68.4728
L155.983 71.3754
L158.542 72.5583
L161.101 73.4184
L163.661 73.9703
L166.22 74.2318
L168.779 74.2296
L171.338 73.9982
L173.898 73.5759
L177.737 72.6714
L182.855 71.1552
L194.372 67.5767
L199.49 66.254
L204.609 65.2028
L209.727 64.4466
L214.846 63.9823
L219.965 63.788
L225.083 63.8282
L231.481 64.1383
L239.159 64.7566
L257.074 66.3181
L264.752 66.7385
L272.429 66.9383
L281.387 66.9253
L292.904 66.6626
L317.217 66.0509
L331.293 65.9572
L351.767 66.089
L382.478 66.2691
L423.426 66.1859
L481.01 66.2
L697.268 66.1956
L697.268 66.1956" style="fill:none;stroke:#3a3a87;stroke-linecap:square;stroke-width:2;"/>
   </g>
   <g id="line2d_5">
    <path clip-path="url(#p0ca233ff5b)" d="
M58.7306 109.5
L60.0103 118.442
L61.2899 114.081
L65.1288 93.9794
L66.4084 88.2571
L67.6881 83.1027
L68.9677 78.4588
L70.2473 74.2701
L71.527 70.4867
L72.8066 67.0642
L75.3659 61.1518
L77.9251 56.277
L80.4844 52.2446
L83.0437 48.906
L85.6029 46.147
L88.1622 43.8798
L90.7215 42.0367
L93.2807 40.5649
L95.84 39.4237
L98.3993 38.5818
L100.959 38.015
L103.518 37.7052
L106.077 37.6389
L108.636 37.8061
L111.196 38.1998
L113.755 38.8144
L116.314 39.6451
L118.873 40.6869
L121.433 41.9328
L125.272 44.1472
L155.983 62.903
L158.542 64.2394
L161.101 65.2634
L163.661 65.963
L166.22 66.3485
L168.779 66.4439
L171.338 66.2828
L173.898 65.905
L177.737 65.025
L181.575 63.8926
L198.211 58.6281
L203.329 57.4135
L207.168 56.6995
L211.007 56.1589
L216.126 55.7005
L221.244 55.5182
L226.363 55.5744
L232.761 55.9074
L240.439 56.5535
L258.354 58.1601
L266.031 58.5857
L273.709 58.7829
L282.667 58.7603
L294.183 58.4822
L317.217 57.8734
L331.293 57.7618
L350.487 57.877
L382.478 58.0839
L419.587 58.0086
L469.493 58.005
L606.414 58.0094
L697.268 58.0087
L697.268 58.0087" style="fill:none;stroke:#2c2c92;stroke-linecap:square;stroke-width:2;"/>
   </g>
   <g id="line2d_6">
    <path clip-path="url(#p0ca233ff5b)" d="
M58.7306 109.5
L60.0103 118.665
L61.2899 114.095
L65.1288 91.4447
L66.4084 84.9703
L67.6881 79.1961
L68.9677 74.0458
L70.2473 69.4443
L71.527 65.3247
L72.8066 61.6285
L74.0862 58.3054
L75.3659 55.3119
L76.6455 52.6106
L79.2048 47.9604
L81.764 44.1466
L84.3233 41.0138
L86.8826 38.4447
L89.4418 36.3502
L92.0011 34.6625
L94.5604 33.3294
L97.1196 32.3113
L99.6789 31.5776
L102.238 31.1055
L104.797 30.878
L107.357 30.8828
L109.916 31.1113
L112.475 31.5574
L115.035 32.217
L117.594 33.0863
L120.153 34.1614
L122.712 35.4362
L126.551 37.659
L141.907 47.0538
L157.262 56.4808
L159.822 57.7591
L162.381 58.7133
L164.94 59.3358
L167.5 59.6405
L170.059 59.6548
L172.618 59.4159
L175.177 58.9666
L179.016 57.9954
L184.135 56.3654
L195.651 52.5429
L200.77 51.141
L204.609 50.2791
L208.448 49.5922
L212.287 49.0811
L217.405 48.6626
L222.524 48.5178
L227.642 48.6068
L234.04 48.9722
L242.998 49.7672
L257.074 51.064
L264.752 51.5481
L272.429 51.8018
L280.107 51.8394
L290.344 51.6496
L323.615 50.8298
L337.691 50.8051
L411.91 51.0645
L460.536 51.0298
L589.779 51.0427
L697.268 51.0424
L697.268 51.0424" style="fill:none;stroke:#1d1d9d;stroke-linecap:square;stroke-width:2;"/>
   </g>
   <g id="line2d_7">
    <path clip-path="url(#p0ca233ff5b)" d="
M58.7306 109.5
L60.0103 117.747
L61.2899 113.501
L65.1288 88.71
L66.4084 81.6306
L67.6881 75.375
L68.9677 69.8455
L70.2473 64.947
L71.527 60.5959
L72.8066 56.7202
L74.0862 53.2589
L75.3659 50.1598
L76.6455 47.3788
L77.9251 44.8783
L80.4844 40.5948
L83.0437 37.1041
L85.6029 34.255
L88.1622 31.9346
L90.7215 30.0582
L93.2807 28.5615
L95.84 27.3959
L98.3993 26.5245
L100.959 25.9194
L103.518 25.5602
L106.077 25.4317
L108.636 25.5235
L111.196 25.8284
L113.755 26.3419
L116.314 27.0609
L118.873 27.9828
L121.433 29.1042
L123.992 30.4194
L129.11 33.3993
L141.907 41.1486
L158.542 51.3327
L161.101 52.5025
L163.661 53.338
L166.22 53.84
L168.779 54.0281
L171.338 53.9343
L173.898 53.5996
L176.457 53.0689
L180.296 52.0053
L185.414 50.306
L194.372 47.2728
L199.49 45.7848
L204.609 44.5798
L208.448 43.8803
L212.287 43.3577
L217.405 42.925
L222.524 42.7677
L227.642 42.846
L234.04 43.2014
L242.998 43.9902
L258.354 45.3918
L266.031 45.8481
L273.709 46.072
L282.667 46.0695
L294.183 45.7985
L318.496 45.147
L332.572 45.0418
L351.767 45.164
L383.758 45.37
L420.867 45.2917
L470.773 45.2896
L607.694 45.2936
L697.268 45.2929
L697.268 45.2929" style="fill:none;stroke:#0f0fa8;stroke-linecap:square;stroke-width:2;"/>
   </g>
   <g id="line2d_8">
    <path clip-path="url(#p0ca233ff5b)" d="
M58.7306 109.5
L60.0103 116.907
L61.2899 112.762
L65.1288 86.4247
L66.4084 78.9419
L67.6881 72.3711
L68.9677 66.598
L70.2473 61.5128
L71.527 57.0195
L72.8066 53.0368
L74.0862 49.4958
L75.3659 46.3387
L76.6455 43.5163
L77.9251 40.9875
L79.2048 38.7171
L81.764 34.837
L84.3233 31.6865
L86.8826 29.1266
L89.4418 27.0541
L92.0011 25.3916
L94.5604 24.0811
L97.1196 23.0784
L99.6789 22.3508
L102.238 21.8735
L104.797 21.6287
L107.357 21.6035
L109.916 21.7894
L112.475 22.1808
L115.035 22.7745
L117.594 23.5684
L120.153 24.5604
L122.712 25.7474
L126.551 27.8496
L136.788 33.9058
L149.585 41.7607
L158.542 47.2432
L161.101 48.4381
L163.661 49.2967
L166.22 49.818
L168.779 50.0203
L171.338 49.9357
L173.898 49.6052
L176.457 49.0748
L180.296 48.006
L185.414 46.2943
L194.372 43.2379
L199.49 41.7395
L204.609 40.5263
L208.448 39.8218
L212.287 39.2947
L217.405 38.8567
L222.524 38.6946
L227.642 38.7686
L234.04 39.1199
L242.998 39.9061
L258.354 41.3118
L266.031 41.7721
L273.709 41.9997
L281.387 42.0145
L291.624 41.8053
L322.335 41.0232
L336.411 40.9752
L360.724 41.1762
L386.317 41.2988
L697.268 41.22
L697.268 41.22" style="fill:none;stroke:#0000b2;stroke-linecap:square;stroke-width:2;"/>
   </g>
   <g id="patch_3">
    <path d="
M58.7306 10.8
L697.268 10.8" style="fill:none;stroke:#000000;stroke-linecap:square;stroke-linejoin:miter;"/>
   </g>
   <g id="patch_4">
    <path d="
M697.268 129.24
L697.268 10.8" style="fill:none;stroke:#000000;stroke-linecap:square;stroke-linejoin:miter;"/>
   </g>
   <g id="patch_5">
    <path d="
M58.7306 129.24
L697.268 129.24" style="fill:none;stroke:#000000;stroke-linecap:square;stroke-linejoin:miter;"/>
   </g>
   <g id="patch_6">
    <path d="
M58.7306 129.24
L58.7306 10.8" style="fill:none;stroke:#000000;stroke-linecap:square;stroke-linejoin:miter;"/>
   </g>
   <g id="matplotlib.axis_1"/>
   <g id="matplotlib.axis_2">
    <g id="ytick_1">
     <g id="line2d_9">
      <defs>
       <path d="
M0 0
L4 0" id="m728421d6d4" style="stroke:#000000;stroke-width:0.5;"/>
      </defs>
      <g>
       <use style="stroke:#000000;stroke-width:0.5;" x="58.730625" xlink:href="#m728421d6d4" y="109.5"/>
      </g>
     </g>
     <g id="line2d_10">
      <defs>
       <path d="
M0 0
L-4 0" id="mcb0005524f" style="stroke:#000000;stroke-width:0.5;"/>
      </defs>
      <g>
       <use style="stroke:#000000;stroke-width:0.5;" x="697.26796875" xlink:href="#mcb0005524f" y="109.5"/>
      </g>
     </g>
     <g id="text_1">
      <!-- −60 -->
      <defs>
       <path d="
M10.5938 35.5
L73.1875 35.5
L73.1875 27.2031
L10.5938 27.2031
z
" id="BitstreamVeraSans-Roman-2212"/>
       <path d="
M31.7812 66.4062
Q24.1719 66.4062 20.3281 58.9062
Q16.5 51.4219 16.5 36.375
Q16.5 21.3906 20.3281 13.8906
Q24.1719 6.39062 31.7812 6.39062
Q39.4531 6.39062 43.2812 13.8906
Q47.125 21.3906 47.125 36.375
Q47.125 51.4219 43.2812 58.9062
Q39.4531 66.4062 31.7812 66.4062
M31.7812 74.2188
Q44.0469 74.2188 50.5156 64.5156
Q56.9844 54.8281 56.9844 36.375
Q56.9844 17.9688 50.5156 8.26562
Q44.0469 -1.42188 31.7812 -1.42188
Q19.5312 -1.42188 13.0625 8.26562
Q6.59375 17.9688 6.59375 36.375
Q6.59375 54.8281 13.0625 64.5156
Q19.5312 74.2188 31.7812 74.2188" id="BitstreamVeraSans-Roman-30"/>
       <path d="
M33.0156 40.375
Q26.375 40.375 22.4844 35.8281
Q18.6094 31.2969 18.6094 23.3906
Q18.6094 15.5312 22.4844 10.9531
Q26.375 6.39062 33.0156 6.39062
Q39.6562 6.39062 43.5312 10.9531
Q47.4062 15.5312 47.4062 23.3906
Q47.4062 31.2969 43.5312 35.8281
Q39.6562 40.375 33.0156 40.375
M52.5938 71.2969
L52.5938 62.3125
Q48.875 64.0625 45.0938 64.9844
Q41.3125 65.9219 37.5938 65.9219
Q27.8281 65.9219 22.6719 59.3281
Q17.5312 52.7344 16.7969 39.4062
Q19.6719 43.6562 24.0156 45.9219
Q28.375 48.1875 33.5938 48.1875
Q44.5781 48.1875 50.9531 41.5156
Q57.3281 34.8594 57.3281 23.3906
Q57.3281 12.1562 50.6875 5.35938
Q44.0469 -1.42188 33.0156 -1.42188
Q20.3594 -1.42188 13.6719 8.26562
Q6.98438 17.9688 6.98438 36.375
Q6.98438 53.6562 15.1875 63.9375
Q23.3906 74.2188 37.2031 74.2188
Q40.9219 74.2188 44.7031 73.4844
Q48.4844 72.75 52.5938 71.2969" id="BitstreamVeraSans-Roman-36"/>
      </defs>
      <g transform="translate(35.349375 112.259375)scale(0.1 -0.1)">
       <use xlink:href="#BitstreamVeraSans-Roman-2212"/>
       <use x="83.7890625" xlink:href="#BitstreamVeraSans-Roman-36"/>
       <use x="147.412109375" xlink:href="#BitstreamVeraSans-Roman-30"/>
      </g>
     </g>
    </g>
    <g id="ytick_2">
     <g id="line2d_11">
      <g>
       <use style="stroke:#000000;stroke-width:0.5;" x="58.730625" xlink:href="#m728421d6d4" y="79.89"/>
      </g>
     </g>
     <g id="line2d_12">
      <g>
       <use style="stroke:#000000;stroke-width:0.5;" x="697.26796875" xlink:href="#mcb0005524f" y="79.89"/>
      </g>
     </g>
     <g id="text_2">
      <!-- −30 -->
      <defs>
       <path d="
M40.5781 39.3125
Q47.6562 37.7969 51.625 33
Q55.6094 28.2188 55.6094 21.1875
Q55.6094 10.4062 48.1875 4.48438
Q40.7656 -1.42188 27.0938 -1.42188
Q22.5156 -1.42188 17.6562 -0.515625
Q12.7969 0.390625 7.625 2.20312
L7.625 11.7188
Q11.7188 9.32812 16.5938 8.10938
Q21.4844 6.89062 26.8125 6.89062
Q36.0781 6.89062 40.9375 10.5469
Q45.7969 14.2031 45.7969 21.1875
Q45.7969 27.6406 41.2812 31.2656
Q36.7656 34.9062 28.7188 34.9062
L20.2188 34.9062
L20.2188 43.0156
L29.1094 43.0156
Q36.375 43.0156 40.2344 45.9219
Q44.0938 48.8281 44.0938 54.2969
Q44.0938 59.9062 40.1094 62.9062
Q36.1406 65.9219 28.7188 65.9219
Q24.6562 65.9219 20.0156 65.0312
Q15.375 64.1562 9.8125 62.3125
L9.8125 71.0938
Q15.4375 72.6562 20.3438 73.4375
Q25.25 74.2188 29.5938 74.2188
Q40.8281 74.2188 47.3594 69.1094
Q53.9062 64.0156 53.9062 55.3281
Q53.9062 49.2656 50.4375 45.0938
Q46.9688 40.9219 40.5781 39.3125" id="BitstreamVeraSans-Roman-33"/>
      </defs>
      <g transform="translate(35.349375 82.649375)scale(0.1 -0.1)">
       <use xlink:href="#BitstreamVeraSans-Roman-2212"/>
       <use x="83.7890625" xlink:href="#BitstreamVeraSans-Roman-33"/>
       <use x="147.412109375" xlink:href="#BitstreamVeraSans-Roman-30"/>
      </g>
     </g>
    </g>
    <g id="ytick_3">
     <g id="line2d_13">
      <g>
       <use style="stroke:#000000;stroke-width:0.5;" x="58.730625" xlink:href="#m728421d6d4" y="50.28"/>
      </g>
     </g>
     <g id="line2d_14">
      <g>
       <use style="stroke:#000000;stroke-width:0.5;" x="697.26796875" xlink:href="#mcb0005524f" y="50.28"/>
      </g>
     </g>
     <g id="text_3">
      <!-- 0 -->
      <g transform="translate(49.6915625 53.039375)scale(0.1 -0.1)">
       <use xlink:href="#BitstreamVeraSans-Roman-30"/>
      </g>
     </g>
    </g>
    <g id="text_4">
     <!-- membrane -->
     <defs>
      <path d="
M49.0312 39.7969
Q46.7344 40.875 44.4531 41.375
Q42.1875 41.8906 39.8906 41.8906
Q33.1562 41.8906 29.5156 37.5625
Q25.875 33.25 25.875 25.2031
L25.875 0
L8.40625 0
L8.40625 54.6875
L25.875 54.6875
L25.875 45.7031
Q29.25 51.0781 33.6094 53.5312
Q37.9844 56 44.0938 56
Q44.9688 56 45.9844 55.9219
Q47.0156 55.8594 48.9688 55.6094
z
" id="BitstreamVeraSans-Bold-72"/>
      <path d="
M37.5 11.2812
Q43.1094 11.2812 46.0625 15.375
Q49.0312 19.4844 49.0312 27.2969
Q49.0312 35.1094 46.0625 39.2031
Q43.1094 43.3125 37.5 43.3125
Q31.8906 43.3125 28.875 39.1875
Q25.875 35.0625 25.875 27.2969
Q25.875 19.5312 28.875 15.4062
Q31.8906 11.2812 37.5 11.2812
M25.875 46.6875
Q29.5 51.4688 33.8906 53.7344
Q38.2812 56 44 56
Q54.1094 56 60.5938 47.9688
Q67.0938 39.9375 67.0938 27.2969
Q67.0938 14.6562 60.5938 6.60938
Q54.1094 -1.42188 44 -1.42188
Q38.2812 -1.42188 33.8906 0.84375
Q29.5 3.125 25.875 7.90625
L25.875 0
L8.40625 0
L8.40625 75.9844
L25.875 75.9844
z
" id="BitstreamVeraSans-Bold-62"/>
      <path d="
M32.9062 24.6094
Q27.4375 24.6094 24.6719 22.75
Q21.9219 20.9062 21.9219 17.2812
Q21.9219 13.9688 24.1406 12.0781
Q26.375 10.2031 30.3281 10.2031
Q35.25 10.2031 38.625 13.7344
Q42 17.2812 42 22.6094
L42 24.6094
z

M59.625 31.2031
L59.625 0
L42 0
L42 8.10938
Q38.4844 3.125 34.0781 0.84375
Q29.6875 -1.42188 23.3906 -1.42188
Q14.8906 -1.42188 9.59375 3.53125
Q4.29688 8.5 4.29688 16.4062
Q4.29688 26.0312 10.9062 30.5156
Q17.5312 35.0156 31.6875 35.0156
L42 35.0156
L42 36.375
Q42 40.5312 38.7188 42.4531
Q35.4531 44.3906 28.5156 44.3906
Q22.9062 44.3906 18.0625 43.2656
Q13.2344 42.1406 9.07812 39.8906
L9.07812 53.2188
Q14.7031 54.5938 20.3594 55.2969
Q26.0312 56 31.6875 56
Q46.4844 56 53.0469 50.1719
Q59.625 44.3438 59.625 31.2031" id="BitstreamVeraSans-Bold-61"/>
      <path d="
M62.9844 27.4844
L62.9844 22.5156
L22.125 22.5156
Q22.75 16.3594 26.5625 13.2812
Q30.375 10.2031 37.2031 10.2031
Q42.7188 10.2031 48.5 11.8438
Q54.2969 13.4844 60.4062 16.7969
L60.4062 3.32812
Q54.2031 0.984375 48 -0.21875
Q41.7969 -1.42188 35.5938 -1.42188
Q20.75 -1.42188 12.5156 6.125
Q4.29688 13.6719 4.29688 27.2969
Q4.29688 40.6719 12.375 48.3281
Q20.4531 56 34.625 56
Q47.5156 56 55.25 48.2344
Q62.9844 40.4844 62.9844 27.4844
M45.0156 33.2969
Q45.0156 38.2812 42.1094 41.3281
Q39.2031 44.3906 34.5156 44.3906
Q29.4375 44.3906 26.2656 41.5312
Q23.0938 38.6719 22.3125 33.2969
z
" id="BitstreamVeraSans-Bold-65"/>
      <path d="
M59.0781 45.6094
Q62.4062 50.6875 66.9688 53.3438
Q71.5312 56 77 56
Q86.4219 56 91.3594 50.1875
Q96.2969 44.3906 96.2969 33.2969
L96.2969 0
L78.7188 0
L78.7188 28.5156
Q78.7656 29.1562 78.7812 29.8281
Q78.8125 30.5156 78.8125 31.7812
Q78.8125 37.5938 77.0938 40.2031
Q75.3906 42.8281 71.5781 42.8281
Q66.6094 42.8281 63.8906 38.7188
Q61.1875 34.625 61.0781 26.8594
L61.0781 0
L43.5 0
L43.5 28.5156
Q43.5 37.5938 41.9375 40.2031
Q40.375 42.8281 36.375 42.8281
Q31.3438 42.8281 28.6094 38.7031
Q25.875 34.5781 25.875 26.9062
L25.875 0
L8.29688 0
L8.29688 54.6875
L25.875 54.6875
L25.875 46.6875
Q29.1094 51.3125 33.2812 53.6562
Q37.4531 56 42.4844 56
Q48.1406 56 52.4844 53.2656
Q56.8438 50.5312 59.0781 45.6094" id="BitstreamVeraSans-Bold-6d"/>
      <path d="
M63.375 33.2969
L63.375 0
L45.7969 0
L45.7969 5.42188
L45.7969 25.4844
Q45.7969 32.5625 45.4844 35.25
Q45.1719 37.9375 44.3906 39.2031
Q43.3594 40.9219 41.5938 41.875
Q39.8438 42.8281 37.5938 42.8281
Q32.125 42.8281 29 38.5938
Q25.875 34.375 25.875 26.9062
L25.875 0
L8.40625 0
L8.40625 54.6875
L25.875 54.6875
L25.875 46.6875
Q29.8281 51.4688 34.2656 53.7344
Q38.7188 56 44.0938 56
Q53.5625 56 58.4688 50.1875
Q63.375 44.3906 63.375 33.2969" id="BitstreamVeraSans-Bold-6e"/>
     </defs>
     <g transform="translate(17.071875 99.54421875)rotate(-90.0)scale(0.1 -0.1)">
      <use xlink:href="#BitstreamVeraSans-Bold-6d"/>
      <use x="104.19921875" xlink:href="#BitstreamVeraSans-Bold-65"/>
      <use x="172.021484375" xlink:href="#BitstreamVeraSans-Bold-6d"/>
      <use x="276.220703125" xlink:href="#BitstreamVeraSans-Bold-62"/>
      <use x="347.802734375" xlink:href="#BitstreamVeraSans-Bold-72"/>
      <use x="397.119140625" xlink:href="#BitstreamVeraSans-Bold-61"/>
      <use x="464.599609375" xlink:href="#BitstreamVeraSans-Bold-6e"/>
      <use x="535.791015625" xlink:href="#BitstreamVeraSans-Bold-65"/>
     </g>
     <!-- potential (mV) -->
     <defs>
      <path d="
M8.40625 54.6875
L25.875 54.6875
L25.875 0
L8.40625 0
z

M8.40625 75.9844
L25.875 75.9844
L25.875 61.7188
L8.40625 61.7188
z
" id="BitstreamVeraSans-Bold-69"/>
      <path id="BitstreamVeraSans-Bold-20"/>
      <path d="
M25.875 7.90625
L25.875 -20.7969
L8.40625 -20.7969
L8.40625 54.6875
L25.875 54.6875
L25.875 46.6875
Q29.5 51.4688 33.8906 53.7344
Q38.2812 56 44 56
Q54.1094 56 60.5938 47.9688
Q67.0938 39.9375 67.0938 27.2969
Q67.0938 14.6562 60.5938 6.60938
Q54.1094 -1.42188 44 -1.42188
Q38.2812 -1.42188 33.8906 0.84375
Q29.5 3.125 25.875 7.90625
M37.5 43.3125
Q31.8906 43.3125 28.875 39.1875
Q25.875 35.0625 25.875 27.2969
Q25.875 19.5312 28.875 15.4062
Q31.8906 11.2812 37.5 11.2812
Q43.1094 11.2812 46.0625 15.375
Q49.0312 19.4844 49.0312 27.2969
Q49.0312 35.1094 46.0625 39.2031
Q43.1094 43.3125 37.5 43.3125" id="BitstreamVeraSans-Bold-70"/>
      <path d="
M27.4844 70.2188
L27.4844 54.6875
L45.5156 54.6875
L45.5156 42.1875
L27.4844 42.1875
L27.4844 19
Q27.4844 15.1875 29 13.8438
Q30.5156 12.5 35.0156 12.5
L44 12.5
L44 0
L29 0
Q18.6562 0 14.3281 4.3125
Q10.0156 8.64062 10.0156 19
L10.0156 42.1875
L1.3125 42.1875
L1.3125 54.6875
L10.0156 54.6875
L10.0156 70.2188
z
" id="BitstreamVeraSans-Bold-74"/>
      <path d="
M37.7031 -13.1875
L23.1875 -13.1875
Q15.7188 -1.125 12.1562 9.73438
Q8.59375 20.6094 8.59375 31.2969
Q8.59375 42 12.1719 52.9531
Q15.7656 63.9219 23.1875 75.875
L37.7031 75.875
Q31.4531 64.3125 28.3281 53.25
Q25.2031 42.1875 25.2031 31.3906
Q25.2031 20.6094 28.2969 9.51562
Q31.3906 -1.5625 37.7031 -13.1875" id="BitstreamVeraSans-Bold-28"/>
      <path d="
M8.01562 -13.1875
Q14.2656 -1.5625 17.3906 9.51562
Q20.5156 20.6094 20.5156 31.3906
Q20.5156 42.1875 17.3906 53.25
Q14.2656 64.3125 8.01562 75.875
L22.5156 75.875
Q29.9375 63.9219 33.5156 52.9531
Q37.1094 42 37.1094 31.2969
Q37.1094 20.6094 33.5469 9.73438
Q29.9844 -1.125 22.5156 -13.1875
z
" id="BitstreamVeraSans-Bold-29"/>
      <path d="
M0.484375 72.9062
L19.3906 72.9062
L38.7188 19.0938
L58.0156 72.9062
L76.9062 72.9062
L49.9062 0
L27.4844 0
z
" id="BitstreamVeraSans-Bold-56"/>
      <path d="
M8.40625 75.9844
L25.875 75.9844
L25.875 0
L8.40625 0
z
" id="BitstreamVeraSans-Bold-6c"/>
      <path d="
M34.4219 43.5
Q28.6094 43.5 25.5625 39.3281
Q22.5156 35.1562 22.5156 27.2969
Q22.5156 19.4375 25.5625 15.25
Q28.6094 11.0781 34.4219 11.0781
Q40.1406 11.0781 43.1562 15.25
Q46.1875 19.4375 46.1875 27.2969
Q46.1875 35.1562 43.1562 39.3281
Q40.1406 43.5 34.4219 43.5
M34.4219 56
Q48.5312 56 56.4688 48.375
Q64.4062 40.7656 64.4062 27.2969
Q64.4062 13.8125 56.4688 6.1875
Q48.5312 -1.42188 34.4219 -1.42188
Q20.2656 -1.42188 12.2812 6.1875
Q4.29688 13.8125 4.29688 27.2969
Q4.29688 40.7656 12.2812 48.375
Q20.2656 56 34.4219 56" id="BitstreamVeraSans-Bold-6f"/>
     </defs>
     <g transform="translate(28.2696875 110.5278125)rotate(-90.0)scale(0.1 -0.1)">
      <use xlink:href="#BitstreamVeraSans-Bold-70"/>
      <use x="71.58203125" xlink:href="#BitstreamVeraSans-Bold-6f"/>
      <use x="140.283203125" xlink:href="#BitstreamVeraSans-Bold-74"/>
      <use x="188.0859375" xlink:href="#BitstreamVeraSans-Bold-65"/>
      <use x="255.908203125" xlink:href="#BitstreamVeraSans-Bold-6e"/>
      <use x="327.099609375" xlink:href="#BitstreamVeraSans-Bold-74"/>
      <use x="374.90234375" xlink:href="#BitstreamVeraSans-Bold-69"/>
      <use x="409.1796875" xlink:href="#BitstreamVeraSans-Bold-61"/>
      <use x="476.66015625" xlink:href="#BitstreamVeraSans-Bold-6c"/>
      <use x="510.9375" xlink:href="#BitstreamVeraSans-Bold-20"/>
      <use x="545.751953125" xlink:href="#BitstreamVeraSans-Bold-28"/>
      <use x="591.455078125" xlink:href="#BitstreamVeraSans-Bold-6d"/>
      <use x="695.654296875" xlink:href="#BitstreamVeraSans-Bold-56"/>
      <use x="773.046875" xlink:href="#BitstreamVeraSans-Bold-29"/>
     </g>
    </g>
   </g>
   <g id="legend_1">
    <g id="patch_7">
     <path d="
M604.045 142.275
L691.268 142.275
L691.268 -2.235
L604.045 -2.235
z
" style="fill:#ffffff;stroke:#000000;stroke-linejoin:miter;"/>
    </g>
    <g id="line2d_15">
     <path d="
M612.445 7.48313
L629.245 7.48313" style="fill:none;stroke:#666666;stroke-linecap:square;stroke-width:2;"/>
    </g>
    <g id="line2d_16"/>
    <g id="text_5">
     <!-- comp 0 -->
     <defs>
      <path d="
M52 44.1875
Q55.375 50.25 60.0625 53.125
Q64.75 56 71.0938 56
Q79.6406 56 84.2812 50.0156
Q88.9219 44.0469 88.9219 33.0156
L88.9219 0
L79.8906 0
L79.8906 32.7188
Q79.8906 40.5781 77.0938 44.375
Q74.3125 48.1875 68.6094 48.1875
Q61.625 48.1875 57.5625 43.5469
Q53.5156 38.9219 53.5156 30.9062
L53.5156 0
L44.4844 0
L44.4844 32.7188
Q44.4844 40.625 41.7031 44.4062
Q38.9219 48.1875 33.1094 48.1875
Q26.2188 48.1875 22.1562 43.5312
Q18.1094 38.875 18.1094 30.9062
L18.1094 0
L9.07812 0
L9.07812 54.6875
L18.1094 54.6875
L18.1094 46.1875
Q21.1875 51.2188 25.4844 53.6094
Q29.7812 56 35.6875 56
Q41.6562 56 45.8281 52.9688
Q50 49.9531 52 44.1875" id="BitstreamVeraSans-Roman-6d"/>
      <path d="
M30.6094 48.3906
Q23.3906 48.3906 19.1875 42.75
Q14.9844 37.1094 14.9844 27.2969
Q14.9844 17.4844 19.1562 11.8438
Q23.3438 6.20312 30.6094 6.20312
Q37.7969 6.20312 41.9844 11.8594
Q46.1875 17.5312 46.1875 27.2969
Q46.1875 37.0156 41.9844 42.7031
Q37.7969 48.3906 30.6094 48.3906
M30.6094 56
Q42.3281 56 49.0156 48.375
Q55.7188 40.7656 55.7188 27.2969
Q55.7188 13.875 49.0156 6.21875
Q42.3281 -1.42188 30.6094 -1.42188
Q18.8438 -1.42188 12.1719 6.21875
Q5.51562 13.875 5.51562 27.2969
Q5.51562 40.7656 12.1719 48.375
Q18.8438 56 30.6094 56" id="BitstreamVeraSans-Roman-6f"/>
      <path d="
M18.1094 8.20312
L18.1094 -20.7969
L9.07812 -20.7969
L9.07812 54.6875
L18.1094 54.6875
L18.1094 46.3906
Q20.9531 51.2656 25.2656 53.625
Q29.5938 56 35.5938 56
Q45.5625 56 51.7812 48.0938
Q58.0156 40.1875 58.0156 27.2969
Q58.0156 14.4062 51.7812 6.48438
Q45.5625 -1.42188 35.5938 -1.42188
Q29.5938 -1.42188 25.2656 0.953125
Q20.9531 3.32812 18.1094 8.20312
M48.6875 27.2969
Q48.6875 37.2031 44.6094 42.8438
Q40.5312 48.4844 33.4062 48.4844
Q26.2656 48.4844 22.1875 42.8438
Q18.1094 37.2031 18.1094 27.2969
Q18.1094 17.3906 22.1875 11.75
Q26.2656 6.10938 33.4062 6.10938
Q40.5312 6.10938 44.6094 11.75
Q48.6875 17.3906 48.6875 27.2969" id="BitstreamVeraSans-Roman-70"/>
      <path d="
M48.7812 52.5938
L48.7812 44.1875
Q44.9688 46.2969 41.1406 47.3438
Q37.3125 48.3906 33.4062 48.3906
Q24.6562 48.3906 19.8125 42.8438
Q14.9844 37.3125 14.9844 27.2969
Q14.9844 17.2812 19.8125 11.7344
Q24.6562 6.20312 33.4062 6.20312
Q37.3125 6.20312 41.1406 7.25
Q44.9688 8.29688 48.7812 10.4062
L48.7812 2.09375
Q45.0156 0.34375 40.9844 -0.53125
Q36.9688 -1.42188 32.4219 -1.42188
Q20.0625 -1.42188 12.7812 6.34375
Q5.51562 14.1094 5.51562 27.2969
Q5.51562 40.6719 12.8594 48.3281
Q20.2188 56 33.0156 56
Q37.1562 56 41.1094 55.1406
Q45.0625 54.2969 48.7812 52.5938" id="BitstreamVeraSans-Roman-63"/>
      <path id="BitstreamVeraSans-Roman-20"/>
     </defs>
     <g transform="translate(642.44484375 11.683125)scale(0.12 -0.12)">
      <use xlink:href="#BitstreamVeraSans-Roman-63"/>
      <use x="54.98046875" xlink:href="#BitstreamVeraSans-Roman-6f"/>
      <use x="116.162109375" xlink:href="#BitstreamVeraSans-Roman-6d"/>
      <use x="213.57421875" xlink:href="#BitstreamVeraSans-Roman-70"/>
      <use x="277.05078125" xlink:href="#BitstreamVeraSans-Roman-20"/>
      <use x="308.837890625" xlink:href="#BitstreamVeraSans-Roman-30"/>
     </g>
    </g>
    <g id="line2d_17">
     <path d="
M612.445 25.0969
L629.245 25.0969" style="fill:none;stroke:#575771;stroke-linecap:square;stroke-width:2;"/>
    </g>
    <g id="line2d_18"/>
    <g id="text_6">
     <!-- comp 1 -->
     <defs>
      <path d="
M12.4062 8.29688
L28.5156 8.29688
L28.5156 63.9219
L10.9844 60.4062
L10.9844 69.3906
L28.4219 72.9062
L38.2812 72.9062
L38.2812 8.29688
L54.3906 8.29688
L54.3906 0
L12.4062 0
z
" id="BitstreamVeraSans-Roman-31"/>
     </defs>
     <g transform="translate(642.44484375 29.296875)scale(0.12 -0.12)">
      <use xlink:href="#BitstreamVeraSans-Roman-63"/>
      <use x="54.98046875" xlink:href="#BitstreamVeraSans-Roman-6f"/>
      <use x="116.162109375" xlink:href="#BitstreamVeraSans-Roman-6d"/>
      <use x="213.57421875" xlink:href="#BitstreamVeraSans-Roman-70"/>
      <use x="277.05078125" xlink:href="#BitstreamVeraSans-Roman-20"/>
      <use x="308.837890625" xlink:href="#BitstreamVeraSans-Roman-31"/>
     </g>
    </g>
    <g id="line2d_19">
     <path d="
M612.445 42.7106
L629.245 42.7106" style="fill:none;stroke:#49497c;stroke-linecap:square;stroke-width:2;"/>
    </g>
    <g id="line2d_20"/>
    <g id="text_7">
     <!-- comp 2 -->
     <defs>
      <path d="
M19.1875 8.29688
L53.6094 8.29688
L53.6094 0
L7.32812 0
L7.32812 8.29688
Q12.9375 14.1094 22.625 23.8906
Q32.3281 33.6875 34.8125 36.5312
Q39.5469 41.8438 41.4219 45.5312
Q43.3125 49.2188 43.3125 52.7812
Q43.3125 58.5938 39.2344 62.25
Q35.1562 65.9219 28.6094 65.9219
Q23.9688 65.9219 18.8125 64.3125
Q13.6719 62.7031 7.8125 59.4219
L7.8125 69.3906
Q13.7656 71.7812 18.9375 73
Q24.125 74.2188 28.4219 74.2188
Q39.75 74.2188 46.4844 68.5469
Q53.2188 62.8906 53.2188 53.4219
Q53.2188 48.9219 51.5312 44.8906
Q49.8594 40.875 45.4062 35.4062
Q44.1875 33.9844 37.6406 27.2188
Q31.1094 20.4531 19.1875 8.29688" id="BitstreamVeraSans-Roman-32"/>
     </defs>
     <g transform="translate(642.44484375 46.910625)scale(0.12 -0.12)">
      <use xlink:href="#BitstreamVeraSans-Roman-63"/>
      <use x="54.98046875" xlink:href="#BitstreamVeraSans-Roman-6f"/>
      <use x="116.162109375" xlink:href="#BitstreamVeraSans-Roman-6d"/>
      <use x="213.57421875" xlink:href="#BitstreamVeraSans-Roman-70"/>
      <use x="277.05078125" xlink:href="#BitstreamVeraSans-Roman-20"/>
      <use x="308.837890625" xlink:href="#BitstreamVeraSans-Roman-32"/>
     </g>
    </g>
    <g id="line2d_21">
     <path d="
M612.445 60.3244
L629.245 60.3244" style="fill:none;stroke:#3a3a87;stroke-linecap:square;stroke-width:2;"/>
    </g>
    <g id="line2d_22"/>
    <g id="text_8">
     <!-- comp 3 -->
     <g transform="translate(642.44484375 64.524375)scale(0.12 -0.12)">
      <use xlink:href="#BitstreamVeraSans-Roman-63"/>
      <use x="54.98046875" xlink:href="#BitstreamVeraSans-Roman-6f"/>
      <use x="116.162109375" xlink:href="#BitstreamVeraSans-Roman-6d"/>
      <use x="213.57421875" xlink:href="#BitstreamVeraSans-Roman-70"/>
      <use x="277.05078125" xlink:href="#BitstreamVeraSans-Roman-20"/>
      <use x="308.837890625" xlink:href="#BitstreamVeraSans-Roman-33"/>
     </g>
    </g>
    <g id="line2d_23">
     <path d="
M612.445 77.9381
L629.245 77.9381" style="fill:none;stroke:#2c2c92;stroke-linecap:square;stroke-width:2;"/>
    </g>
    <g id="line2d_24"/>
    <g id="text_9">
     <!-- comp 4 -->
     <defs>
      <path d="
M37.7969 64.3125
L12.8906 25.3906
L37.7969 25.3906
z

M35.2031 72.9062
L47.6094 72.9062
L47.6094 25.3906
L58.0156 25.3906
L58.0156 17.1875
L47.6094 17.1875
L47.6094 0
L37.7969 0
L37.7969 17.1875
L4.89062 17.1875
L4.89062 26.7031
z
" id="BitstreamVeraSans-Roman-34"/>
     </defs>
     <g transform="translate(642.44484375 82.138125)scale(0.12 -0.12)">
      <use xlink:href="#BitstreamVeraSans-Roman-63"/>
      <use x="54.98046875" xlink:href="#BitstreamVeraSans-Roman-6f"/>
      <use x="116.162109375" xlink:href="#BitstreamVeraSans-Roman-6d"/>
      <use x="213.57421875" xlink:href="#BitstreamVeraSans-Roman-70"/>
      <use x="277.05078125" xlink:href="#BitstreamVeraSans-Roman-20"/>
      <use x="308.837890625" xlink:href="#BitstreamVeraSans-Roman-34"/>
     </g>
    </g>
    <g id="line2d_25">
     <path d="
M612.445 95.5519
L629.245 95.5519" style="fill:none;stroke:#1d1d9d;stroke-linecap:square;stroke-width:2;"/>
    </g>
    <g id="line2d_26"/>
    <g id="text_10">
     <!-- comp 5 -->
     <defs>
      <path d="
M10.7969 72.9062
L49.5156 72.9062
L49.5156 64.5938
L19.8281 64.5938
L19.8281 46.7344
Q21.9688 47.4688 24.1094 47.8281
Q26.2656 48.1875 28.4219 48.1875
Q40.625 48.1875 47.75 41.5
Q54.8906 34.8125 54.8906 23.3906
Q54.8906 11.625 47.5625 5.09375
Q40.2344 -1.42188 26.9062 -1.42188
Q22.3125 -1.42188 17.5469 -0.640625
Q12.7969 0.140625 7.71875 1.70312
L7.71875 11.625
Q12.1094 9.23438 16.7969 8.0625
Q21.4844 6.89062 26.7031 6.89062
Q35.1562 6.89062 40.0781 11.3281
Q45.0156 15.7656 45.0156 23.3906
Q45.0156 31 40.0781 35.4375
Q35.1562 39.8906 26.7031 39.8906
Q22.75 39.8906 18.8125 39.0156
Q14.8906 38.1406 10.7969 36.2812
z
" id="BitstreamVeraSans-Roman-35"/>
     </defs>
     <g transform="translate(642.44484375 99.751875)scale(0.12 -0.12)">
      <use xlink:href="#BitstreamVeraSans-Roman-63"/>
      <use x="54.98046875" xlink:href="#BitstreamVeraSans-Roman-6f"/>
      <use x="116.162109375" xlink:href="#BitstreamVeraSans-Roman-6d"/>
      <use x="213.57421875" xlink:href="#BitstreamVeraSans-Roman-70"/>
      <use x="277.05078125" xlink:href="#BitstreamVeraSans-Roman-20"/>
      <use x="308.837890625" xlink:href="#BitstreamVeraSans-Roman-35"/>
     </g>
    </g>
    <g id="line2d_27">
     <path d="
M612.445 113.166
L629.245 113.166" style="fill:none;stroke:#0f0fa8;stroke-linecap:square;stroke-width:2;"/>
    </g>
    <g id="line2d_28"/>
    <g id="text_11">
     <!-- comp 6 -->
     <g transform="translate(642.44484375 117.365625)scale(0.12 -0.12)">
      <use xlink:href="#BitstreamVeraSans-Roman-63"/>
      <use x="54.98046875" xlink:href="#BitstreamVeraSans-Roman-6f"/>
      <use x="116.162109375" xlink:href="#BitstreamVeraSans-Roman-6d"/>
      <use x="213.57421875" xlink:href="#BitstreamVeraSans-Roman-70"/>
      <use x="277.05078125" xlink:href="#BitstreamVeraSans-Roman-20"/>
      <use x="308.837890625" xlink:href="#BitstreamVeraSans-Roman-36"/>
     </g>
    </g>
    <g id="line2d_29">
     <path d="
M612.445 130.779
L629.245 130.779" style="fill:none;stroke:#0000b2;stroke-linecap:square;stroke-width:2;"/>
    </g>
    <g id="line2d_30"/>
    <g id="text_12">
     <!-- comp 7 -->
     <defs>
      <path d="
M8.20312 72.9062
L55.0781 72.9062
L55.0781 68.7031
L28.6094 0
L18.3125 0
L43.2188 64.5938
L8.20312 64.5938
z
" id="BitstreamVeraSans-Roman-37"/>
     </defs>
     <g transform="translate(642.44484375 134.979375)scale(0.12 -0.12)">
      <use xlink:href="#BitstreamVeraSans-Roman-63"/>
      <use x="54.98046875" xlink:href="#BitstreamVeraSans-Roman-6f"/>
      <use x="116.162109375" xlink:href="#BitstreamVeraSans-Roman-6d"/>
      <use x="213.57421875" xlink:href="#BitstreamVeraSans-Roman-70"/>
      <use x="277.05078125" xlink:href="#BitstreamVeraSans-Roman-20"/>
      <use x="308.837890625" xlink:href="#BitstreamVeraSans-Roman-37"/>
     </g>
    </g>
   </g>
  </g>
  <g id="axes_2">
   <g id="patch_8">
    <path d="
M58.7306 267.48
L697.268 267.48
L697.268 149.04
L58.7306 149.04
z
" style="fill:#ffffff;"/>
   </g>
   <g id="line2d_31">
    <path clip-path="url(#p7d0fb9ec0d)" d="
M58.7306 264.503
L60.0103 260.045
L61.2899 258.821
L63.8492 257.26
L66.4084 255.997
L70.2473 254.415
L74.0862 253.155
L77.9251 252.182
L81.764 251.477
L85.6029 251.027
L89.4418 250.822
L93.2807 250.85
L97.1196 251.1
L100.959 251.56
L104.797 252.212
L109.916 253.336
L116.314 255.042
L123.992 257.179
L130.39 258.179
L140.627 259.557
L152.144 260.864
L154.703 261.093
L158.542 260.964
L164.94 260.442
L189.253 258.118
L196.931 257.731
L204.609 257.565
L213.566 257.606
L225.083 257.9
L248.116 258.544
L260.913 258.656
L277.548 258.564
L313.378 258.312
L349.208 258.391
L396.554 258.4
L519.399 258.392
L697.268 258.393
L697.268 258.393" style="fill:none;stroke:#e31a1a;stroke-linecap:square;"/>
   </g>
   <g id="line2d_32">
    <path clip-path="url(#p7d0fb9ec0d)" d="
M58.7306 263.662
L60.0103 261.597
L61.2899 259.871
L63.8492 257.323
L67.6881 253.949
L71.527 250.93
L75.3659 248.286
L77.9251 246.739
L80.4844 245.369
L83.0437 244.176
L85.6029 243.162
L88.1622 242.327
L90.7215 241.67
L93.2807 241.188
L95.84 240.881
L98.3993 240.743
L100.959 240.771
L103.518 240.959
L107.357 241.525
L111.196 242.401
L115.035 243.545
L118.873 244.902
L126.551 247.725
L132.949 249.609
L140.627 251.634
L148.305 253.429
L154.703 254.757
L157.262 255.029
L161.101 255.169
L164.94 255.087
L170.059 254.719
L176.457 253.998
L194.372 251.783
L200.77 251.235
L207.168 250.885
L213.566 250.734
L221.244 250.777
L231.481 251.095
L257.074 252.027
L268.591 252.159
L282.667 252.083
L323.615 251.717
L356.885 251.818
L396.554 251.843
L496.365 251.826
L697.268 251.823
L697.268 251.823" style="fill:none;stroke:#e31a1a;stroke-linecap:square;"/>
   </g>
   <g id="line2d_33">
    <path clip-path="url(#p7d0fb9ec0d)" d="
M58.7306 264.975
L60.0103 262.574
L61.2899 260.522
L65.1288 255.371
L68.9677 250.571
L72.8066 246.158
L75.3659 243.473
L77.9251 241.011
L80.4844 238.784
L83.0437 236.799
L85.6029 235.061
L88.1622 233.572
L90.7215 232.334
L93.2807 231.347
L95.84 230.608
L98.3993 230.115
L100.959 229.863
L103.518 229.845
L106.077 230.053
L108.636 230.478
L111.196 231.106
L113.755 231.921
L117.594 233.455
L121.433 235.289
L126.551 237.848
L132.949 240.673
L139.348 243.229
L145.746 245.541
L152.144 247.633
L155.983 248.727
L158.542 249.197
L161.101 249.494
L164.94 249.656
L168.779 249.53
L172.618 249.179
L177.737 248.467
L186.694 246.914
L195.651 245.428
L202.05 244.598
L208.448 244.031
L214.846 243.737
L221.244 243.693
L228.922 243.899
L240.439 244.502
L255.794 245.291
L266.031 245.572
L276.268 245.627
L290.344 245.459
L319.776 245.053
L340.25 245.062
L393.995 245.211
L493.806 245.179
L697.268 245.175
L697.268 245.175" style="fill:none;stroke:#e31a1a;stroke-linecap:square;"/>
   </g>
   <g id="line2d_34">
    <path clip-path="url(#p7d0fb9ec0d)" d="
M58.7306 264.499
L60.0103 263.144
L63.8492 256.44
L68.9677 247.926
L72.8066 242.007
L75.3659 238.365
L77.9251 235
L80.4844 231.928
L83.0437 229.164
L85.6029 226.717
L88.1622 224.59
L90.7215 222.789
L93.2807 221.313
L95.84 220.161
L98.3993 219.331
L100.959 218.817
L103.518 218.613
L106.077 218.708
L108.636 219.092
L111.196 219.75
L113.755 220.662
L116.314 221.807
L118.873 223.159
L122.712 225.505
L127.831 228.755
L132.949 231.738
L138.068 234.491
L143.186 237.032
L149.585 239.935
L154.703 242.055
L157.262 242.919
L159.822 243.546
L162.381 243.955
L164.94 244.166
L167.5 244.197
L171.338 243.96
L175.177 243.452
L180.296 242.489
L189.253 240.473
L196.931 238.84
L202.05 237.947
L207.168 237.264
L212.287 236.808
L217.405 236.574
L222.524 236.541
L228.922 236.732
L237.879 237.28
L257.074 238.585
L266.031 238.926
L274.989 239.04
L286.505 238.929
L327.454 238.27
L347.928 238.347
L385.037 238.51
L697.268 238.453
L697.268 238.453" style="fill:none;stroke:#e31a1a;stroke-linecap:square;"/>
   </g>
   <g id="line2d_35">
    <path clip-path="url(#p7d0fb9ec0d)" d="
M58.7306 265.879
L62.5695 258.22
L68.9677 244.977
L72.8066 237.557
L75.3659 232.966
L77.9251 228.706
L80.4844 224.802
L83.0437 221.271
L85.6029 218.128
L88.1622 215.379
L90.7215 213.03
L93.2807 211.082
L95.84 209.534
L98.3993 208.385
L100.959 207.628
L103.518 207.255
L106.077 207.256
L108.636 207.618
L111.196 208.323
L113.755 209.35
L116.314 210.673
L118.873 212.261
L121.433 214.078
L132.949 222.802
L138.068 226.244
L143.186 229.421
L148.305 232.352
L153.424 235.058
L155.983 236.302
L158.542 237.302
L161.101 238.026
L163.661 238.486
L166.22 238.706
L168.779 238.71
L171.338 238.528
L175.177 237.968
L179.016 237.151
L184.135 235.818
L196.931 232.335
L202.05 231.199
L207.168 230.314
L212.287 229.706
L217.405 229.374
L222.524 229.296
L227.642 229.433
L234.04 229.827
L245.557 230.838
L255.794 231.68
L263.472 232.115
L271.15 232.341
L280.107 232.363
L291.624 232.138
L319.776 231.489
L335.132 231.437
L363.284 231.651
L388.876 231.727
L568.025 231.656
L697.268 231.658
L697.268 231.658" style="fill:none;stroke:#e31a1a;stroke-linecap:square;"/>
   </g>
   <g id="line2d_36">
    <path clip-path="url(#p7d0fb9ec0d)" d="
M58.7306 267.085
L60.0103 263.419
L61.2899 260.616
L66.4084 247.979
L70.2473 238.683
L74.0862 229.998
L76.6455 224.653
L79.2048 219.713
L81.764 215.205
L84.3233 211.148
L86.8826 207.556
L89.4418 204.436
L92.0011 201.793
L94.5604 199.628
L97.1196 197.94
L99.6789 196.724
L102.238 195.972
L104.797 195.676
L107.357 195.819
L109.916 196.386
L112.475 197.354
L115.035 198.697
L117.594 200.38
L120.153 202.366
L122.712 204.608
L130.39 211.675
L135.509 215.973
L140.627 219.941
L145.746 223.603
L150.864 226.983
L155.983 230.08
L158.542 231.327
L161.101 232.245
L163.661 232.847
L166.22 233.157
L168.779 233.205
L171.338 233.024
L173.898 232.65
L177.737 231.801
L181.575 230.707
L187.974 228.612
L195.651 226.112
L200.77 224.67
L204.609 223.771
L208.448 223.05
L212.287 222.517
L216.126 222.17
L219.965 221.999
L225.083 222.018
L230.202 222.269
L236.6 222.811
L260.913 225.162
L268.591 225.529
L276.268 225.652
L285.226 225.551
L299.302 225.123
L315.937 224.659
L328.733 224.523
L345.369 224.599
L385.037 224.876
L433.663 224.767
L565.466 224.789
L697.268 224.791
L697.268 224.791" style="fill:none;stroke:#e31a1a;stroke-linecap:square;"/>
   </g>
   <g id="line2d_37">
    <path clip-path="url(#p7d0fb9ec0d)" d="
M58.7306 264.638
L60.0103 263.219
L61.2899 260.105
L65.1288 249.165
L70.2473 234.626
L74.0862 224.481
L76.6455 218.228
L79.2048 212.442
L81.764 207.156
L84.3233 202.393
L86.8826 198.168
L89.4418 194.492
L92.0011 191.37
L94.5604 188.804
L97.1196 186.793
L98.3993 185.994
L99.6789 185.331
L100.959 184.803
L102.238 184.41
L103.518 184.149
L104.797 184.019
L106.077 184.017
L107.357 184.141
L108.636 184.389
L109.916 184.757
L112.475 185.842
L115.035 187.365
L117.594 189.289
L120.153 191.567
L122.712 194.15
L130.39 202.374
L135.509 207.389
L140.627 212.018
L145.746 216.29
L150.864 220.233
L155.983 223.854
L158.542 225.336
L161.101 226.437
L163.661 227.169
L166.22 227.558
L168.779 227.639
L171.338 227.451
L173.898 227.035
L176.457 226.43
L180.296 225.255
L185.414 223.381
L196.931 219.022
L202.05 217.407
L205.889 216.417
L209.727 215.638
L213.566 215.078
L217.405 214.732
L221.244 214.588
L226.363 214.671
L231.481 215.008
L237.879 215.674
L258.354 218.058
L264.752 218.522
L271.15 218.783
L278.828 218.849
L287.785 218.671
L326.174 217.556
L340.25 217.577
L393.995 217.941
L472.052 217.851
L587.219 217.854
L697.268 217.853
L697.268 217.853" style="fill:none;stroke:#e31a1a;stroke-linecap:square;"/>
   </g>
   <g id="line2d_38">
    <path clip-path="url(#p7d0fb9ec0d)" d="
M58.7306 263.788
L60.0103 262.824
L61.2899 259.339
L65.1288 246.88
L70.2473 230.272
L74.0862 218.671
L76.6455 211.518
L79.2048 204.895
L81.764 198.842
L84.3233 193.384
L86.8826 188.541
L89.4418 184.323
L92.0011 180.738
L94.5604 177.787
L95.84 176.549
L97.1196 175.469
L98.3993 174.546
L99.6789 173.778
L100.959 173.165
L102.238 172.706
L103.518 172.397
L104.797 172.238
L106.077 172.225
L107.357 172.357
L108.636 172.63
L109.916 173.041
L111.196 173.586
L113.755 175.061
L116.314 177.017
L118.873 179.407
L121.433 182.176
L125.272 186.869
L130.39 193.073
L134.229 197.414
L139.348 202.812
L144.466 207.793
L149.585 212.391
L154.703 216.634
L157.262 218.531
L159.822 220.022
L162.381 221.079
L164.94 221.728
L167.5 222.004
L170.059 221.948
L172.618 221.607
L175.177 221.026
L177.737 220.251
L181.575 218.822
L186.694 216.627
L195.651 212.726
L200.77 210.794
L204.609 209.582
L208.448 208.606
L212.287 207.877
L216.126 207.397
L219.965 207.152
L223.803 207.122
L227.642 207.279
L232.761 207.72
L239.159 208.52
L257.074 210.935
L263.472 211.513
L269.87 211.861
L276.268 211.986
L283.946 211.897
L294.183 211.527
L315.937 210.678
L327.454 210.497
L340.25 210.529
L392.715 210.949
L475.891 210.847
L592.338 210.845
L697.268 210.845
L697.268 210.845" style="fill:none;stroke:#e31a1a;stroke-linecap:square;"/>
   </g>
   <g id="patch_9">
    <path d="
M58.7306 149.04
L697.268 149.04" style="fill:none;stroke:#000000;stroke-linecap:square;stroke-linejoin:miter;"/>
   </g>
   <g id="patch_10">
    <path d="
M697.268 267.48
L697.268 149.04" style="fill:none;stroke:#000000;stroke-linecap:square;stroke-linejoin:miter;"/>
   </g>
   <g id="patch_11">
    <path d="
M58.7306 267.48
L697.268 267.48" style="fill:none;stroke:#000000;stroke-linecap:square;stroke-linejoin:miter;"/>
   </g>
   <g id="patch_12">
    <path d="
M58.7306 267.48
L58.7306 149.04" style="fill:none;stroke:#000000;stroke-linecap:square;stroke-linejoin:miter;"/>
   </g>
   <g id="matplotlib.axis_3"/>
   <g id="matplotlib.axis_4">
    <g id="ytick_4">
     <g id="line2d_39">
      <g>
       <use style="stroke:#000000;stroke-width:0.5;" x="58.730625" xlink:href="#m728421d6d4" y="267.48"/>
      </g>
     </g>
     <g id="line2d_40">
      <g>
       <use style="stroke:#000000;stroke-width:0.5;" x="697.26796875" xlink:href="#mcb0005524f" y="267.48"/>
      </g>
     </g>
     <g id="text_13">
      <!-- 0.0 -->
      <defs>
       <path d="
M10.6875 12.4062
L21 12.4062
L21 0
L10.6875 0
z
" id="BitstreamVeraSans-Roman-2e"/>
      </defs>
      <g transform="translate(40.1509375 270.239375)scale(0.1 -0.1)">
       <use xlink:href="#BitstreamVeraSans-Roman-30"/>
       <use x="63.623046875" xlink:href="#BitstreamVeraSans-Roman-2e"/>
       <use x="95.41015625" xlink:href="#BitstreamVeraSans-Roman-30"/>
      </g>
     </g>
    </g>
    <g id="ytick_5">
     <g id="line2d_41">
      <g>
       <use style="stroke:#000000;stroke-width:0.5;" x="58.730625" xlink:href="#m728421d6d4" y="243.792"/>
      </g>
     </g>
     <g id="line2d_42">
      <g>
       <use style="stroke:#000000;stroke-width:0.5;" x="697.26796875" xlink:href="#mcb0005524f" y="243.792"/>
      </g>
     </g>
     <g id="text_14">
      <!-- 0.5 -->
      <g transform="translate(40.3603125 246.551375)scale(0.1 -0.1)">
       <use xlink:href="#BitstreamVeraSans-Roman-30"/>
       <use x="63.623046875" xlink:href="#BitstreamVeraSans-Roman-2e"/>
       <use x="95.41015625" xlink:href="#BitstreamVeraSans-Roman-35"/>
      </g>
     </g>
    </g>
    <g id="ytick_6">
     <g id="line2d_43">
      <g>
       <use style="stroke:#000000;stroke-width:0.5;" x="58.730625" xlink:href="#m728421d6d4" y="220.104"/>
      </g>
     </g>
     <g id="line2d_44">
      <g>
       <use style="stroke:#000000;stroke-width:0.5;" x="697.26796875" xlink:href="#mcb0005524f" y="220.104"/>
      </g>
     </g>
     <g id="text_15">
      <!-- 1.0 -->
      <g transform="translate(40.59 222.863375)scale(0.1 -0.1)">
       <use xlink:href="#BitstreamVeraSans-Roman-31"/>
       <use x="63.623046875" xlink:href="#BitstreamVeraSans-Roman-2e"/>
       <use x="95.41015625" xlink:href="#BitstreamVeraSans-Roman-30"/>
      </g>
     </g>
    </g>
    <g id="ytick_7">
     <g id="line2d_45">
      <g>
       <use style="stroke:#000000;stroke-width:0.5;" x="58.730625" xlink:href="#m728421d6d4" y="196.416"/>
      </g>
     </g>
     <g id="line2d_46">
      <g>
       <use style="stroke:#000000;stroke-width:0.5;" x="697.26796875" xlink:href="#mcb0005524f" y="196.416"/>
      </g>
     </g>
     <g id="text_16">
      <!-- 1.5 -->
      <g transform="translate(40.799375 199.175375)scale(0.1 -0.1)">
       <use xlink:href="#BitstreamVeraSans-Roman-31"/>
       <use x="63.623046875" xlink:href="#BitstreamVeraSans-Roman-2e"/>
       <use x="95.41015625" xlink:href="#BitstreamVeraSans-Roman-35"/>
      </g>
     </g>
    </g>
    <g id="ytick_8">
     <g id="line2d_47">
      <g>
       <use style="stroke:#000000;stroke-width:0.5;" x="58.730625" xlink:href="#m728421d6d4" y="172.728"/>
      </g>
     </g>
     <g id="line2d_48">
      <g>
       <use style="stroke:#000000;stroke-width:0.5;" x="697.26796875" xlink:href="#mcb0005524f" y="172.728"/>
      </g>
     </g>
     <g id="text_17">
      <!-- 2.0 -->
      <g transform="translate(40.224375 175.487375)scale(0.1 -0.1)">
       <use xlink:href="#BitstreamVeraSans-Roman-32"/>
       <use x="63.623046875" xlink:href="#BitstreamVeraSans-Roman-2e"/>
       <use x="95.41015625" xlink:href="#BitstreamVeraSans-Roman-30"/>
      </g>
     </g>
    </g>
    <g id="ytick_9">
     <g id="line2d_49">
      <g>
       <use style="stroke:#000000;stroke-width:0.5;" x="58.730625" xlink:href="#m728421d6d4" y="149.04"/>
      </g>
     </g>
     <g id="line2d_50">
      <g>
       <use style="stroke:#000000;stroke-width:0.5;" x="697.26796875" xlink:href="#mcb0005524f" y="149.04"/>
      </g>
     </g>
     <g id="text_18">
      <!-- 2.5 -->
      <g transform="translate(40.43375 151.799375)scale(0.1 -0.1)">
       <use xlink:href="#BitstreamVeraSans-Roman-32"/>
       <use x="63.623046875" xlink:href="#BitstreamVeraSans-Roman-2e"/>
       <use x="95.41015625" xlink:href="#BitstreamVeraSans-Roman-35"/>
      </g>
     </g>
    </g>
    <g id="text_19">
     <!-- mRNA conc. -->
     <defs>
      <path d="
M53.4219 13.2812
L24.0312 13.2812
L19.3906 0
L0.484375 0
L27.4844 72.9062
L49.9062 72.9062
L76.9062 0
L58.0156 0
z

M28.7188 26.8125
L48.6875 26.8125
L38.7188 55.8125
z
" id="BitstreamVeraSans-Bold-41"/>
      <path d="
M10.2031 18.8906
L27.7812 18.8906
L27.7812 0
L10.2031 0
z
" id="BitstreamVeraSans-Bold-2e"/>
      <path d="
M35.8906 40.5781
Q41.7969 40.5781 44.3594 42.7656
Q46.9219 44.9688 46.9219 50
Q46.9219 54.9844 44.3594 57.125
Q41.7969 59.2812 35.8906 59.2812
L27.9844 59.2812
L27.9844 40.5781
z

M27.9844 27.5938
L27.9844 0
L9.1875 0
L9.1875 72.9062
L37.8906 72.9062
Q52.2969 72.9062 59 68.0625
Q65.7188 63.2344 65.7188 52.7812
Q65.7188 45.5625 62.2188 40.9219
Q58.7344 36.2812 51.7031 34.0781
Q55.5625 33.2031 58.6094 30.0938
Q61.6719 27 64.7969 20.7031
L75 0
L54.9844 0
L46.0938 18.1094
Q43.4062 23.5781 40.6406 25.5781
Q37.8906 27.5938 33.2969 27.5938
z
" id="BitstreamVeraSans-Bold-52"/>
      <path d="
M52.5938 52.9844
L52.5938 38.7188
Q49.0312 41.1562 45.4375 42.3281
Q41.8438 43.5 37.9844 43.5
Q30.6719 43.5 26.5938 39.2344
Q22.5156 34.9688 22.5156 27.2969
Q22.5156 19.625 26.5938 15.3438
Q30.6719 11.0781 37.9844 11.0781
Q42.0938 11.0781 45.7812 12.2969
Q49.4688 13.5312 52.5938 15.9219
L52.5938 1.60938
Q48.4844 0.09375 44.2656 -0.65625
Q40.0469 -1.42188 35.7969 -1.42188
Q21 -1.42188 12.6406 6.17188
Q4.29688 13.7656 4.29688 27.2969
Q4.29688 40.8281 12.6406 48.4062
Q21 56 35.7969 56
Q40.0938 56 44.2656 55.25
Q48.4375 54.5 52.5938 52.9844" id="BitstreamVeraSans-Bold-63"/>
      <path d="
M9.1875 72.9062
L30.1719 72.9062
L56.6875 22.9062
L56.6875 72.9062
L74.5156 72.9062
L74.5156 0
L53.5156 0
L27 50
L27 0
L9.1875 0
z
" id="BitstreamVeraSans-Bold-4e"/>
     </defs>
     <g transform="translate(33.07125 241.42640625)rotate(-90.0)scale(0.1 -0.1)">
      <use xlink:href="#BitstreamVeraSans-Bold-6d"/>
      <use x="104.19921875" xlink:href="#BitstreamVeraSans-Bold-52"/>
      <use x="181.201171875" xlink:href="#BitstreamVeraSans-Bold-4e"/>
      <use x="264.892578125" xlink:href="#BitstreamVeraSans-Bold-41"/>
      <use x="342.28515625" xlink:href="#BitstreamVeraSans-Bold-20"/>
      <use x="377.099609375" xlink:href="#BitstreamVeraSans-Bold-63"/>
      <use x="436.376953125" xlink:href="#BitstreamVeraSans-Bold-6f"/>
      <use x="505.078125" xlink:href="#BitstreamVeraSans-Bold-6e"/>
      <use x="576.26953125" xlink:href="#BitstreamVeraSans-Bold-63"/>
      <use x="635.546875" xlink:href="#BitstreamVeraSans-Bold-2e"/>
     </g>
    </g>
   </g>
  </g>
  <g id="axes_3">
   <g id="patch_13">
    <path d="
M58.7306 405.72
L697.268 405.72
L697.268 287.28
L58.7306 287.28
z
" style="fill:#ffffff;"/>
   </g>
   <g id="line2d_51">
    <path clip-path="url(#p64d642aa21)" d="
M58.7306 402.743
L60.0103 399.646
L61.2899 397.729
L62.5695 396.661
L65.1288 395.173
L67.6881 393.954
L71.527 392.428
L75.3659 391.217
L79.2048 390.29
L83.0437 389.628
L86.8826 389.22
L90.7215 389.053
L94.5604 389.119
L98.3993 389.406
L102.238 389.899
L106.077 390.58
L111.196 391.736
L117.594 393.465
L123.992 395.275
L127.831 395.94
L138.068 397.39
L148.305 398.624
L154.703 399.291
L157.262 399.297
L162.381 398.971
L170.059 398.218
L184.135 396.793
L191.813 396.241
L199.49 395.911
L207.168 395.795
L216.126 395.881
L230.202 396.286
L248.116 396.773
L260.913 396.895
L277.548 396.81
L314.657 396.551
L353.046 396.639
L402.952 396.634
L541.153 396.632
L697.268 396.633
L697.268 396.633" style="fill:none;stroke:#e31a1a;stroke-linecap:square;"/>
   </g>
   <g id="line2d_52">
    <path clip-path="url(#p64d642aa21)" d="
M58.7306 401.902
L60.0103 400.88
L61.2899 398.95
L62.5695 397.456
L65.1288 394.981
L68.9677 391.664
L72.8066 388.707
L76.6455 386.128
L79.2048 384.625
L81.764 383.299
L84.3233 382.151
L86.8826 381.182
L89.4418 380.391
L92.0011 379.778
L94.5604 379.341
L97.1196 379.076
L99.6789 378.98
L102.238 379.049
L104.797 379.275
L108.636 379.895
L112.475 380.819
L116.314 382.002
L121.433 383.882
L125.272 385.347
L130.39 386.93
L138.068 389.059
L145.746 390.947
L153.424 392.62
L155.983 393.078
L158.542 393.306
L162.381 393.407
L166.22 393.293
L171.338 392.896
L177.737 392.156
L194.372 390.089
L200.77 389.522
L207.168 389.152
L213.566 388.981
L221.244 389.006
L231.481 389.31
L258.354 390.279
L269.87 390.4
L285.226 390.301
L322.335 389.959
L351.767 390.037
L392.715 390.088
L511.721 390.064
L697.268 390.063
L697.268 390.063" style="fill:none;stroke:#e31a1a;stroke-linecap:square;"/>
   </g>
   <g id="line2d_53">
    <path clip-path="url(#p64d642aa21)" d="
M58.7306 403.215
L60.0103 401.861
L61.2899 399.758
L63.8492 396.133
L67.6881 391.172
L71.527 386.555
L75.3659 382.369
L77.9251 379.851
L80.4844 377.565
L83.0437 375.519
L85.6029 373.719
L88.1622 372.168
L90.7215 370.867
L93.2807 369.818
L95.84 369.017
L98.3993 368.463
L100.959 368.151
L103.518 368.075
L106.077 368.227
L108.636 368.599
L111.196 369.177
L113.755 369.947
L116.314 370.89
L120.153 372.584
L131.67 378.095
L138.068 380.729
L144.466 383.111
L150.864 385.267
L155.983 386.809
L158.542 387.331
L161.101 387.67
L164.94 387.886
L168.779 387.805
L172.618 387.488
L177.737 386.806
L185.414 385.496
L195.651 383.764
L202.05 382.911
L208.448 382.316
L214.846 381.996
L221.244 381.928
L228.922 382.115
L239.159 382.631
L257.074 383.555
L267.311 383.821
L277.548 383.864
L292.904 383.665
L319.776 383.297
L338.97 383.294
L399.113 383.444
L481.01 383.418
L697.268 383.415
L697.268 383.415" style="fill:none;stroke:#e31a1a;stroke-linecap:square;"/>
   </g>
   <g id="line2d_54">
    <path clip-path="url(#p64d642aa21)" d="
M58.7306 402.739
L60.0103 402.24
L62.5695 397.971
L68.9677 387.202
L72.8066 381.203
L76.6455 375.744
L79.2048 372.451
L81.764 369.456
L84.3233 366.771
L86.8826 364.404
L89.4418 362.359
L92.0011 360.639
L94.5604 359.244
L97.1196 358.173
L99.6789 357.423
L102.238 356.987
L104.797 356.858
L107.357 357.027
L109.916 357.48
L112.475 358.203
L115.035 359.175
L117.594 360.374
L120.153 361.772
L123.992 364.169
L129.11 367.38
L134.229 370.333
L139.348 373.059
L144.466 375.575
L150.864 378.449
L155.983 380.529
L158.542 381.33
L161.101 381.901
L163.661 382.26
L166.22 382.424
L168.779 382.415
L172.618 382.128
L176.457 381.584
L181.575 380.592
L200.77 376.501
L205.889 375.736
L211.007 375.194
L216.126 374.878
L221.244 374.773
L227.642 374.893
L235.32 375.3
L262.192 377.024
L271.15 377.25
L281.387 377.252
L295.463 376.993
L318.496 376.566
L335.132 376.514
L423.426 376.685
L498.925 376.698
L697.268 376.693
L697.268 376.693" style="fill:none;stroke:#e31a1a;stroke-linecap:square;"/>
   </g>
   <g id="line2d_55">
    <path clip-path="url(#p64d642aa21)" d="
M58.7306 404.119
L60.0103 402.647
L61.2899 400.35
L65.1288 392.438
L70.2473 381.946
L74.0862 374.627
L76.6455 370.117
L79.2048 365.945
L81.764 362.133
L84.3233 358.699
L86.8826 355.654
L89.4418 353.005
L92.0011 350.757
L94.5604 348.909
L97.1196 347.462
L99.6789 346.411
L102.238 345.751
L104.797 345.472
L107.357 345.565
L109.916 346.014
L112.475 346.801
L115.035 347.904
L117.594 349.295
L120.153 350.943
L122.712 352.81
L131.67 359.678
L136.788 363.224
L141.907 366.498
L147.025 369.519
L152.144 372.308
L155.983 374.244
L158.542 375.31
L161.101 376.102
L163.661 376.627
L166.22 376.905
L168.779 376.961
L171.338 376.824
L175.177 376.317
L179.016 375.538
L184.135 374.233
L198.211 370.422
L203.329 369.315
L208.448 368.464
L213.566 367.892
L218.685 367.593
L223.803 367.544
L228.922 367.704
L235.32 368.117
L248.116 369.25
L258.354 370.047
L266.031 370.431
L273.709 370.605
L282.667 370.58
L295.463 370.29
L317.217 369.771
L331.293 369.67
L350.487 369.778
L383.758 369.968
L431.104 369.88
L542.432 369.896
L697.268 369.898
L697.268 369.898" style="fill:none;stroke:#e31a1a;stroke-linecap:square;"/>
   </g>
   <g id="line2d_56">
    <path clip-path="url(#p64d642aa21)" d="
M58.7306 405.325
L61.2899 400.256
L63.8492 394.17
L70.2473 378.441
L74.0862 369.641
L76.6455 364.202
L79.2048 359.159
L81.764 354.542
L84.3233 350.372
L86.8826 346.663
L89.4418 343.424
L92.0011 340.662
L94.5604 338.378
L97.1196 336.571
L99.6789 335.238
L102.238 334.371
L104.797 333.962
L107.357 333.997
L109.916 334.459
L112.475 335.329
L115.035 336.579
L117.594 338.18
L120.153 340.093
L122.712 342.274
L132.949 351.565
L138.068 355.737
L143.186 359.587
L148.305 363.141
L153.424 366.421
L157.262 368.654
L159.822 369.817
L162.381 370.655
L164.94 371.182
L167.5 371.424
L170.059 371.413
L172.618 371.181
L175.177 370.765
L179.016 369.869
L184.135 368.339
L199.49 363.423
L204.609 362.151
L208.448 361.4
L212.287 360.835
L216.126 360.457
L219.965 360.258
L225.083 360.244
L230.202 360.468
L236.6 360.99
L262.192 363.441
L269.87 363.787
L277.548 363.892
L286.505 363.776
L301.861 363.299
L317.217 362.888
L330.013 362.762
L346.648 362.845
L385.037 363.115
L427.265 363.015
L483.569 363.037
L697.268 363.031
L697.268 363.031" style="fill:none;stroke:#e31a1a;stroke-linecap:square;"/>
   </g>
   <g id="line2d_57">
    <path clip-path="url(#p64d642aa21)" d="
M58.7306 402.878
L60.0103 402.311
L61.2899 399.853
L63.8492 392.942
L71.527 371.125
L75.3659 361.126
L77.9251 354.988
L80.4844 349.326
L83.0437 344.17
L85.6029 339.54
L88.1622 335.453
L90.7215 331.915
L93.2807 328.933
L95.84 326.506
L98.3993 324.633
L99.6789 323.902
L100.959 323.307
L102.238 322.846
L103.518 322.519
L104.797 322.324
L106.077 322.258
L107.357 322.319
L108.636 322.505
L109.916 322.814
L112.475 323.783
L115.035 325.199
L117.594 327.025
L120.153 329.218
L122.712 331.729
L134.229 343.793
L139.348 348.564
L144.466 352.966
L149.585 357.03
L154.703 360.781
L157.262 362.49
L159.822 363.876
L162.381 364.883
L164.94 365.526
L167.5 365.836
L170.059 365.848
L172.618 365.6
L175.177 365.134
L179.016 364.112
L182.855 362.819
L189.253 360.373
L196.931 357.485
L202.05 355.834
L205.889 354.81
L209.727 353.996
L213.566 353.399
L217.405 353.018
L221.244 352.841
L225.083 352.848
L230.202 353.098
L236.6 353.695
L246.837 354.954
L255.794 355.993
L263.472 356.643
L269.87 356.964
L277.548 357.094
L285.226 356.998
L296.743 356.613
L315.937 355.96
L327.454 355.792
L341.53 355.823
L392.715 356.186
L486.128 356.101
L697.268 356.093
L697.268 356.093" style="fill:none;stroke:#e31a1a;stroke-linecap:square;"/>
   </g>
   <g id="line2d_58">
    <path clip-path="url(#p64d642aa21)" d="
M58.7306 402.028
L60.0103 401.887
L61.2899 399.256
L62.5695 395.529
L67.6881 378.795
L71.527 366.522
L75.3659 355.087
L77.9251 348.064
L80.4844 341.582
L83.0437 335.677
L85.6029 330.372
L88.1622 325.685
L90.7215 321.625
L93.2807 318.199
L95.84 315.407
L97.1196 314.248
L98.3993 313.247
L99.6789 312.401
L100.959 311.711
L102.238 311.175
L103.518 310.791
L104.797 310.557
L106.077 310.471
L107.357 310.531
L108.636 310.734
L109.916 311.076
L111.196 311.554
L112.475 312.164
L115.035 313.762
L117.594 315.83
L120.153 318.319
L122.712 321.172
L134.229 334.947
L139.348 340.398
L144.466 345.43
L149.585 350.074
L154.703 354.361
L157.262 356.321
L159.822 357.917
L162.381 359.082
L164.94 359.83
L167.5 360.197
L170.059 360.221
L172.618 359.948
L175.177 359.424
L177.737 358.695
L181.575 357.314
L186.694 355.149
L196.931 350.709
L200.77 349.259
L204.609 348.011
L208.448 346.994
L212.287 346.225
L216.126 345.703
L219.965 345.42
L223.803 345.356
L227.642 345.484
L232.761 345.895
L239.159 346.673
L258.354 349.242
L264.752 349.798
L271.15 350.122
L277.548 350.226
L285.226 350.12
L296.743 349.682
L315.937 348.935
L327.454 348.742
L340.25 348.763
L396.554 349.18
L461.815 349.068
L551.39 349.081
L697.268 349.085
L697.268 349.085" style="fill:none;stroke:#e31a1a;stroke-linecap:square;"/>
   </g>
   <g id="patch_14">
    <path d="
M58.7306 287.28
L697.268 287.28" style="fill:none;stroke:#000000;stroke-linecap:square;stroke-linejoin:miter;"/>
   </g>
   <g id="patch_15">
    <path d="
M697.268 405.72
L697.268 287.28" style="fill:none;stroke:#000000;stroke-linecap:square;stroke-linejoin:miter;"/>
   </g>
   <g id="patch_16">
    <path d="
M58.7306 405.72
L697.268 405.72" style="fill:none;stroke:#000000;stroke-linecap:square;stroke-linejoin:miter;"/>
   </g>
   <g id="patch_17">
    <path d="
M58.7306 405.72
L58.7306 287.28" style="fill:none;stroke:#000000;stroke-linecap:square;stroke-linejoin:miter;"/>
   </g>
   <g id="matplotlib.axis_5"/>
   <g id="matplotlib.axis_6">
    <g id="ytick_10">
     <g id="line2d_59">
      <g>
       <use style="stroke:#000000;stroke-width:0.5;" x="58.730625" xlink:href="#m728421d6d4" y="405.72"/>
      </g>
     </g>
     <g id="line2d_60">
      <g>
       <use style="stroke:#000000;stroke-width:0.5;" x="697.26796875" xlink:href="#mcb0005524f" y="405.72"/>
      </g>
     </g>
     <g id="text_20">
      <!-- 0.0 -->
      <g transform="translate(40.1509375 408.479375)scale(0.1 -0.1)">
       <use xlink:href="#BitstreamVeraSans-Roman-30"/>
       <use x="63.623046875" xlink:href="#BitstreamVeraSans-Roman-2e"/>
       <use x="95.41015625" xlink:href="#BitstreamVeraSans-Roman-30"/>
      </g>
     </g>
    </g>
    <g id="ytick_11">
     <g id="line2d_61">
      <g>
       <use style="stroke:#000000;stroke-width:0.5;" x="58.730625" xlink:href="#m728421d6d4" y="382.032"/>
      </g>
     </g>
     <g id="line2d_62">
      <g>
       <use style="stroke:#000000;stroke-width:0.5;" x="697.26796875" xlink:href="#mcb0005524f" y="382.032"/>
      </g>
     </g>
     <g id="text_21">
      <!-- 0.5 -->
      <g transform="translate(40.3603125 384.791375)scale(0.1 -0.1)">
       <use xlink:href="#BitstreamVeraSans-Roman-30"/>
       <use x="63.623046875" xlink:href="#BitstreamVeraSans-Roman-2e"/>
       <use x="95.41015625" xlink:href="#BitstreamVeraSans-Roman-35"/>
      </g>
     </g>
    </g>
    <g id="ytick_12">
     <g id="line2d_63">
      <g>
       <use style="stroke:#000000;stroke-width:0.5;" x="58.730625" xlink:href="#m728421d6d4" y="358.344"/>
      </g>
     </g>
     <g id="line2d_64">
      <g>
       <use style="stroke:#000000;stroke-width:0.5;" x="697.26796875" xlink:href="#mcb0005524f" y="358.344"/>
      </g>
     </g>
     <g id="text_22">
      <!-- 1.0 -->
      <g transform="translate(40.59 361.103375)scale(0.1 -0.1)">
       <use xlink:href="#BitstreamVeraSans-Roman-31"/>
       <use x="63.623046875" xlink:href="#BitstreamVeraSans-Roman-2e"/>
       <use x="95.41015625" xlink:href="#BitstreamVeraSans-Roman-30"/>
      </g>
     </g>
    </g>
    <g id="ytick_13">
     <g id="line2d_65">
      <g>
       <use style="stroke:#000000;stroke-width:0.5;" x="58.730625" xlink:href="#m728421d6d4" y="334.656"/>
      </g>
     </g>
     <g id="line2d_66">
      <g>
       <use style="stroke:#000000;stroke-width:0.5;" x="697.26796875" xlink:href="#mcb0005524f" y="334.656"/>
      </g>
     </g>
     <g id="text_23">
      <!-- 1.5 -->
      <g transform="translate(40.799375 337.415375)scale(0.1 -0.1)">
       <use xlink:href="#BitstreamVeraSans-Roman-31"/>
       <use x="63.623046875" xlink:href="#BitstreamVeraSans-Roman-2e"/>
       <use x="95.41015625" xlink:href="#BitstreamVeraSans-Roman-35"/>
      </g>
     </g>
    </g>
    <g id="ytick_14">
     <g id="line2d_67">
      <g>
       <use style="stroke:#000000;stroke-width:0.5;" x="58.730625" xlink:href="#m728421d6d4" y="310.968"/>
      </g>
     </g>
     <g id="line2d_68">
      <g>
       <use style="stroke:#000000;stroke-width:0.5;" x="697.26796875" xlink:href="#mcb0005524f" y="310.968"/>
      </g>
     </g>
     <g id="text_24">
      <!-- 2.0 -->
      <g transform="translate(40.224375 313.727375)scale(0.1 -0.1)">
       <use xlink:href="#BitstreamVeraSans-Roman-32"/>
       <use x="63.623046875" xlink:href="#BitstreamVeraSans-Roman-2e"/>
       <use x="95.41015625" xlink:href="#BitstreamVeraSans-Roman-30"/>
      </g>
     </g>
    </g>
    <g id="ytick_15">
     <g id="line2d_69">
      <g>
       <use style="stroke:#000000;stroke-width:0.5;" x="58.730625" xlink:href="#m728421d6d4" y="287.28"/>
      </g>
     </g>
     <g id="line2d_70">
      <g>
       <use style="stroke:#000000;stroke-width:0.5;" x="697.26796875" xlink:href="#mcb0005524f" y="287.28"/>
      </g>
     </g>
     <g id="text_25">
      <!-- 2.5 -->
      <g transform="translate(40.43375 290.039375)scale(0.1 -0.1)">
       <use xlink:href="#BitstreamVeraSans-Roman-32"/>
       <use x="63.623046875" xlink:href="#BitstreamVeraSans-Roman-2e"/>
       <use x="95.41015625" xlink:href="#BitstreamVeraSans-Roman-35"/>
      </g>
     </g>
    </g>
    <g id="text_26">
     <!-- g (uS/nF) -->
     <defs>
      <path d="
M25.6875 72.9062
L36.5312 72.9062
L10.7969 -9.28125
L0 -9.28125
z
" id="BitstreamVeraSans-Bold-2f"/>
      <path d="
M59.9062 70.6094
L59.9062 55.1719
Q53.9062 57.8594 48.1875 59.2188
Q42.4844 60.5938 37.4062 60.5938
Q30.6719 60.5938 27.4375 58.7344
Q24.2188 56.8906 24.2188 52.9844
Q24.2188 50.0469 26.3906 48.4062
Q28.5625 46.7812 34.2812 45.6094
L42.2812 44
Q54.4375 41.5469 59.5625 36.5625
Q64.7031 31.5938 64.7031 22.4062
Q64.7031 10.3594 57.5469 4.46875
Q50.3906 -1.42188 35.6875 -1.42188
Q28.7656 -1.42188 21.7812 -0.09375
Q14.7969 1.21875 7.8125 3.8125
L7.8125 19.6719
Q14.7969 15.9688 21.3125 14.0781
Q27.8281 12.2031 33.8906 12.2031
Q40.0469 12.2031 43.3125 14.25
Q46.5781 16.3125 46.5781 20.125
Q46.5781 23.5312 44.3594 25.3906
Q42.1406 27.25 35.5 28.7188
L28.2188 30.3281
Q17.2812 32.6719 12.2188 37.7969
Q7.17188 42.9219 7.17188 51.6094
Q7.17188 62.5 14.2031 68.3594
Q21.2344 74.2188 34.4219 74.2188
Q40.4375 74.2188 46.7812 73.3125
Q53.125 72.4062 59.9062 70.6094" id="BitstreamVeraSans-Bold-53"/>
      <path d="
M7.8125 21.2969
L7.8125 54.6875
L25.3906 54.6875
L25.3906 49.2188
Q25.3906 44.7812 25.3438 38.0625
Q25.2969 31.3438 25.2969 29.1094
Q25.2969 22.5156 25.6406 19.6094
Q25.9844 16.7031 26.8125 15.375
Q27.875 13.6719 29.6094 12.7344
Q31.3438 11.8125 33.5938 11.8125
Q39.0625 11.8125 42.1875 16.0156
Q45.3125 20.2188 45.3125 27.6875
L45.3125 54.6875
L62.7969 54.6875
L62.7969 0
L45.3125 0
L45.3125 7.90625
Q41.3594 3.125 36.9375 0.84375
Q32.5156 -1.42188 27.2031 -1.42188
Q17.7188 -1.42188 12.7656 4.39062
Q7.8125 10.2031 7.8125 21.2969" id="BitstreamVeraSans-Bold-75"/>
      <path d="
M45.6094 9.28125
Q42 4.5 37.6406 2.25
Q33.2969 0 27.5938 0
Q17.5781 0 11.0312 7.875
Q4.5 15.7656 4.5 27.9844
Q4.5 40.2344 11.0312 48.0625
Q17.5781 55.9062 27.5938 55.9062
Q33.2969 55.9062 37.6406 53.6562
Q42 51.4219 45.6094 46.5781
L45.6094 54.6875
L63.1875 54.6875
L63.1875 5.51562
Q63.1875 -7.67188 54.8594 -14.625
Q46.5312 -21.5781 30.7188 -21.5781
Q25.5938 -21.5781 20.7969 -20.7969
Q16.0156 -20.0156 11.1875 -18.4062
L11.1875 -4.78125
Q15.7656 -7.42188 20.1562 -8.71875
Q24.5625 -10.0156 29 -10.0156
Q37.5938 -10.0156 41.5938 -6.25
Q45.6094 -2.48438 45.6094 5.51562
z

M34.0781 43.3125
Q28.6562 43.3125 25.625 39.2969
Q22.6094 35.2969 22.6094 27.9844
Q22.6094 20.4531 25.5312 16.5781
Q28.4688 12.7031 34.0781 12.7031
Q39.5469 12.7031 42.5781 16.7031
Q45.6094 20.7031 45.6094 27.9844
Q45.6094 35.2969 42.5781 39.2969
Q39.5469 43.3125 34.0781 43.3125" id="BitstreamVeraSans-Bold-67"/>
      <path d="
M9.1875 72.9062
L59.9062 72.9062
L59.9062 58.6875
L27.9844 58.6875
L27.9844 45.125
L58.0156 45.125
L58.0156 30.9062
L27.9844 30.9062
L27.9844 0
L9.1875 0
z
" id="BitstreamVeraSans-Bold-46"/>
     </defs>
     <g transform="translate(32.993125 371.921875)rotate(-90.0)scale(0.1 -0.1)">
      <use xlink:href="#BitstreamVeraSans-Bold-67"/>
      <use x="71.58203125" xlink:href="#BitstreamVeraSans-Bold-20"/>
      <use x="106.396484375" xlink:href="#BitstreamVeraSans-Bold-28"/>
      <use x="152.099609375" xlink:href="#BitstreamVeraSans-Bold-75"/>
      <use x="223.291015625" xlink:href="#BitstreamVeraSans-Bold-53"/>
      <use x="295.3125" xlink:href="#BitstreamVeraSans-Bold-2f"/>
      <use x="331.8359375" xlink:href="#BitstreamVeraSans-Bold-6e"/>
      <use x="403.02734375" xlink:href="#BitstreamVeraSans-Bold-46"/>
      <use x="471.337890625" xlink:href="#BitstreamVeraSans-Bold-29"/>
     </g>
    </g>
   </g>
  </g>
  <g id="axes_4">
   <g id="patch_18">
    <path d="
M58.7306 543.96
L697.268 543.96
L697.268 425.52
L58.7306 425.52
z
" style="fill:#ffffff;"/>
   </g>
   <g id="line2d_71">
    <path clip-path="url(#p05ad1eb429)" d="
M58.7306 455.13
L60.0103 450.924
L61.2899 447.2
L62.5695 444.457
L63.8492 442.499
L65.1288 441.171
L66.4084 440.376
L67.6881 440.047
L68.9677 440.125
L70.2473 440.558
L71.527 441.3
L72.8066 442.314
L74.0862 443.563
L75.3659 445.018
L77.9251 448.446
L80.4844 452.426
L83.0437 456.828
L86.8826 464
L92.0011 474.228
L106.077 502.867
L109.916 510.063
L113.755 516.683
L116.314 520.687
L118.873 524.295
L121.433 527.449
L123.992 530.096
L126.551 532.244
L129.11 533.973
L131.67 535.297
L134.229 536.211
L136.788 536.711
L139.348 536.794
L141.907 536.458
L144.466 535.702
L147.025 534.526
L149.585 532.934
L152.144 530.928
L154.703 528.513
L158.542 524.335
L163.661 518.694
L167.5 514.808
L170.059 512.487
L172.618 510.425
L175.177 508.643
L177.737 507.152
L180.296 505.951
L182.855 505.032
L185.414 504.383
L187.974 503.984
L190.533 503.814
L193.092 503.849
L195.651 504.062
L199.49 504.664
L203.329 505.526
L208.448 506.941
L223.803 511.459
L228.922 512.646
L232.761 513.35
L236.6 513.879
L240.439 514.232
L245.557 514.439
L250.676 514.382
L255.794 514.115
L263.472 513.461
L281.387 511.801
L289.065 511.355
L296.743 511.137
L305.7 511.137
L317.217 511.396
L342.809 512.061
L356.885 512.15
L377.359 512.007
L406.791 511.826
L443.9 511.903
L493.806 511.905
L630.727 511.901
L697.268 511.902
L697.268 511.902" style="fill:none;stroke:#0000ff;stroke-linecap:square;stroke-width:2;"/>
   </g>
   <g id="patch_19">
    <path d="
M58.7306 425.52
L697.268 425.52" style="fill:none;stroke:#000000;stroke-linecap:square;stroke-linejoin:miter;"/>
   </g>
   <g id="patch_20">
    <path d="
M697.268 543.96
L697.268 425.52" style="fill:none;stroke:#000000;stroke-linecap:square;stroke-linejoin:miter;"/>
   </g>
   <g id="patch_21">
    <path d="
M58.7306 543.96
L697.268 543.96" style="fill:none;stroke:#000000;stroke-linecap:square;stroke-linejoin:miter;"/>
   </g>
   <g id="patch_22">
    <path d="
M58.7306 543.96
L58.7306 425.52" style="fill:none;stroke:#000000;stroke-linecap:square;stroke-linejoin:miter;"/>
   </g>
   <g id="matplotlib.axis_7"/>
   <g id="matplotlib.axis_8">
    <g id="ytick_16">
     <g id="line2d_72">
      <g>
       <use style="stroke:#000000;stroke-width:0.5;" x="58.730625" xlink:href="#m728421d6d4" y="543.96"/>
      </g>
     </g>
     <g id="line2d_73">
      <g>
       <use style="stroke:#000000;stroke-width:0.5;" x="697.26796875" xlink:href="#mcb0005524f" y="543.96"/>
      </g>
     </g>
     <g id="text_27">
      <!-- −0.2 -->
      <g transform="translate(32.50875 546.719375)scale(0.1 -0.1)">
       <use xlink:href="#BitstreamVeraSans-Roman-2212"/>
       <use x="83.7890625" xlink:href="#BitstreamVeraSans-Roman-30"/>
       <use x="147.412109375" xlink:href="#BitstreamVeraSans-Roman-2e"/>
       <use x="179.19921875" xlink:href="#BitstreamVeraSans-Roman-32"/>
      </g>
     </g>
    </g>
    <g id="ytick_17">
     <g id="line2d_74">
      <g>
       <use style="stroke:#000000;stroke-width:0.5;" x="58.730625" xlink:href="#m728421d6d4" y="529.155"/>
      </g>
     </g>
     <g id="line2d_75">
      <g>
       <use style="stroke:#000000;stroke-width:0.5;" x="697.26796875" xlink:href="#mcb0005524f" y="529.155"/>
      </g>
     </g>
     <g id="text_28">
      <!-- 0.0 -->
      <g transform="translate(40.1509375 531.914375)scale(0.1 -0.1)">
       <use xlink:href="#BitstreamVeraSans-Roman-30"/>
       <use x="63.623046875" xlink:href="#BitstreamVeraSans-Roman-2e"/>
       <use x="95.41015625" xlink:href="#BitstreamVeraSans-Roman-30"/>
      </g>
     </g>
    </g>
    <g id="ytick_18">
     <g id="line2d_76">
      <g>
       <use style="stroke:#000000;stroke-width:0.5;" x="58.730625" xlink:href="#m728421d6d4" y="514.35"/>
      </g>
     </g>
     <g id="line2d_77">
      <g>
       <use style="stroke:#000000;stroke-width:0.5;" x="697.26796875" xlink:href="#mcb0005524f" y="514.35"/>
      </g>
     </g>
     <g id="text_29">
      <!-- 0.2 -->
      <g transform="translate(40.4884375 517.109375)scale(0.1 -0.1)">
       <use xlink:href="#BitstreamVeraSans-Roman-30"/>
       <use x="63.623046875" xlink:href="#BitstreamVeraSans-Roman-2e"/>
       <use x="95.41015625" xlink:href="#BitstreamVeraSans-Roman-32"/>
      </g>
     </g>
    </g>
    <g id="ytick_19">
     <g id="line2d_78">
      <g>
       <use style="stroke:#000000;stroke-width:0.5;" x="58.730625" xlink:href="#m728421d6d4" y="499.545"/>
      </g>
     </g>
     <g id="line2d_79">
      <g>
       <use style="stroke:#000000;stroke-width:0.5;" x="697.26796875" xlink:href="#mcb0005524f" y="499.545"/>
      </g>
     </g>
     <g id="text_30">
      <!-- 0.4 -->
      <g transform="translate(40.0478125 502.304375)scale(0.1 -0.1)">
       <use xlink:href="#BitstreamVeraSans-Roman-30"/>
       <use x="63.623046875" xlink:href="#BitstreamVeraSans-Roman-2e"/>
       <use x="95.41015625" xlink:href="#BitstreamVeraSans-Roman-34"/>
      </g>
     </g>
    </g>
    <g id="ytick_20">
     <g id="line2d_80">
      <g>
       <use style="stroke:#000000;stroke-width:0.5;" x="58.730625" xlink:href="#m728421d6d4" y="484.74"/>
      </g>
     </g>
     <g id="line2d_81">
      <g>
       <use style="stroke:#000000;stroke-width:0.5;" x="697.26796875" xlink:href="#mcb0005524f" y="484.74"/>
      </g>
     </g>
     <g id="text_31">
      <!-- 0.6 -->
      <g transform="translate(40.1165625 487.499375)scale(0.1 -0.1)">
       <use xlink:href="#BitstreamVeraSans-Roman-30"/>
       <use x="63.623046875" xlink:href="#BitstreamVeraSans-Roman-2e"/>
       <use x="95.41015625" xlink:href="#BitstreamVeraSans-Roman-36"/>
      </g>
     </g>
    </g>
    <g id="ytick_21">
     <g id="line2d_82">
      <g>
       <use style="stroke:#000000;stroke-width:0.5;" x="58.730625" xlink:href="#m728421d6d4" y="469.935"/>
      </g>
     </g>
     <g id="line2d_83">
      <g>
       <use style="stroke:#000000;stroke-width:0.5;" x="697.26796875" xlink:href="#mcb0005524f" y="469.935"/>
      </g>
     </g>
     <g id="text_32">
      <!-- 0.8 -->
      <defs>
       <path d="
M31.7812 34.625
Q24.75 34.625 20.7188 30.8594
Q16.7031 27.0938 16.7031 20.5156
Q16.7031 13.9219 20.7188 10.1562
Q24.75 6.39062 31.7812 6.39062
Q38.8125 6.39062 42.8594 10.1719
Q46.9219 13.9688 46.9219 20.5156
Q46.9219 27.0938 42.8906 30.8594
Q38.875 34.625 31.7812 34.625
M21.9219 38.8125
Q15.5781 40.375 12.0312 44.7188
Q8.5 49.0781 8.5 55.3281
Q8.5 64.0625 14.7188 69.1406
Q20.9531 74.2188 31.7812 74.2188
Q42.6719 74.2188 48.875 69.1406
Q55.0781 64.0625 55.0781 55.3281
Q55.0781 49.0781 51.5312 44.7188
Q48 40.375 41.7031 38.8125
Q48.8281 37.1562 52.7969 32.3125
Q56.7812 27.4844 56.7812 20.5156
Q56.7812 9.90625 50.3125 4.23438
Q43.8438 -1.42188 31.7812 -1.42188
Q19.7344 -1.42188 13.25 4.23438
Q6.78125 9.90625 6.78125 20.5156
Q6.78125 27.4844 10.7812 32.3125
Q14.7969 37.1562 21.9219 38.8125
M18.3125 54.3906
Q18.3125 48.7344 21.8438 45.5625
Q25.3906 42.3906 31.7812 42.3906
Q38.1406 42.3906 41.7188 45.5625
Q45.3125 48.7344 45.3125 54.3906
Q45.3125 60.0625 41.7188 63.2344
Q38.1406 66.4062 31.7812 66.4062
Q25.3906 66.4062 21.8438 63.2344
Q18.3125 60.0625 18.3125 54.3906" id="BitstreamVeraSans-Roman-38"/>
      </defs>
      <g transform="translate(40.17125 472.694375)scale(0.1 -0.1)">
       <use xlink:href="#BitstreamVeraSans-Roman-30"/>
       <use x="63.623046875" xlink:href="#BitstreamVeraSans-Roman-2e"/>
       <use x="95.41015625" xlink:href="#BitstreamVeraSans-Roman-38"/>
      </g>
     </g>
    </g>
    <g id="ytick_22">
     <g id="line2d_84">
      <g>
       <use style="stroke:#000000;stroke-width:0.5;" x="58.730625" xlink:href="#m728421d6d4" y="455.13"/>
      </g>
     </g>
     <g id="line2d_85">
      <g>
       <use style="stroke:#000000;stroke-width:0.5;" x="697.26796875" xlink:href="#mcb0005524f" y="455.13"/>
      </g>
     </g>
     <g id="text_33">
      <!-- 1.0 -->
      <g transform="translate(40.59 457.889375)scale(0.1 -0.1)">
       <use xlink:href="#BitstreamVeraSans-Roman-31"/>
       <use x="63.623046875" xlink:href="#BitstreamVeraSans-Roman-2e"/>
       <use x="95.41015625" xlink:href="#BitstreamVeraSans-Roman-30"/>
      </g>
     </g>
    </g>
    <g id="ytick_23">
     <g id="line2d_86">
      <g>
       <use style="stroke:#000000;stroke-width:0.5;" x="58.730625" xlink:href="#m728421d6d4" y="440.325"/>
      </g>
     </g>
     <g id="line2d_87">
      <g>
       <use style="stroke:#000000;stroke-width:0.5;" x="697.26796875" xlink:href="#mcb0005524f" y="440.325"/>
      </g>
     </g>
     <g id="text_34">
      <!-- 1.2 -->
      <g transform="translate(40.9275 443.084375)scale(0.1 -0.1)">
       <use xlink:href="#BitstreamVeraSans-Roman-31"/>
       <use x="63.623046875" xlink:href="#BitstreamVeraSans-Roman-2e"/>
       <use x="95.41015625" xlink:href="#BitstreamVeraSans-Roman-32"/>
      </g>
     </g>
    </g>
    <g id="ytick_24">
     <g id="line2d_88">
      <g>
       <use style="stroke:#000000;stroke-width:0.5;" x="58.730625" xlink:href="#m728421d6d4" y="425.52"/>
      </g>
     </g>
     <g id="line2d_89">
      <g>
       <use style="stroke:#000000;stroke-width:0.5;" x="697.26796875" xlink:href="#mcb0005524f" y="425.52"/>
      </g>
     </g>
     <g id="text_35">
      <!-- 1.4 -->
      <g transform="translate(40.486875 428.279375)scale(0.1 -0.1)">
       <use xlink:href="#BitstreamVeraSans-Roman-31"/>
       <use x="63.623046875" xlink:href="#BitstreamVeraSans-Roman-2e"/>
       <use x="95.41015625" xlink:href="#BitstreamVeraSans-Roman-34"/>
      </g>
     </g>
    </g>
    <g id="text_36">
     <!-- T conc. -->
     <defs>
      <path d="
M0.484375 72.9062
L67.6719 72.9062
L67.6719 58.6875
L43.5 58.6875
L43.5 0
L24.7031 0
L24.7031 58.6875
L0.484375 58.6875
z
" id="BitstreamVeraSans-Bold-54"/>
     </defs>
     <g transform="translate(25.4290625 504.20328125)rotate(-90.0)scale(0.1 -0.1)">
      <use xlink:href="#BitstreamVeraSans-Bold-54"/>
      <use x="68.212890625" xlink:href="#BitstreamVeraSans-Bold-20"/>
      <use x="103.02734375" xlink:href="#BitstreamVeraSans-Bold-63"/>
      <use x="162.3046875" xlink:href="#BitstreamVeraSans-Bold-6f"/>
      <use x="231.005859375" xlink:href="#BitstreamVeraSans-Bold-6e"/>
      <use x="302.197265625" xlink:href="#BitstreamVeraSans-Bold-63"/>
      <use x="361.474609375" xlink:href="#BitstreamVeraSans-Bold-2e"/>
     </g>
    </g>
   </g>
  </g>
  <g id="axes_5">
   <g id="patch_23">
    <path d="
M58.7306 682.2
L697.268 682.2
L697.268 563.76
L58.7306 563.76
z
" style="fill:#ffffff;"/>
   </g>
   <g id="line2d_90">
    <path clip-path="url(#pd2799e3616)" d="
M58.7306 664.055
L60.0103 672.997
L61.2899 660.765
L62.5695 649.635
L63.8492 640.616
L65.1288 632.748
L67.6881 618.97
L70.2473 607.283
L72.8066 597.476
L74.0862 593.213
L75.3659 589.34
L76.6455 585.832
L77.9251 582.662
L79.2048 579.808
L80.4844 577.247
L81.764 574.959
L83.0437 572.927
L84.3233 571.135
L85.6029 569.567
L86.8826 568.212
L88.1622 567.058
L89.4418 566.095
L90.7215 565.314
L92.0011 564.707
L93.2807 564.27
L94.5604 563.995
L95.84 563.878
L97.1196 563.916
L98.3993 564.106
L99.6789 564.444
L100.959 564.929
L102.238 565.56
L103.518 566.334
L104.797 567.252
L107.357 569.512
L109.916 572.332
L112.475 575.696
L115.035 579.582
L117.594 583.949
L120.153 588.736
L125.272 598.697
L127.831 602.513
L132.949 609.641
L138.068 616.474
L143.186 622.988
L148.305 629.158
L153.424 634.968
L154.703 636.348
L155.983 637.354
L157.262 637.855
L158.542 638.038
L159.822 638.015
L161.101 637.833
L162.381 637.514
L164.94 636.52
L167.5 635.132
L170.059 633.44
L173.898 630.52
L186.694 620.249
L190.533 617.638
L193.092 616.11
L195.651 614.769
L198.211 613.621
L200.77 612.67
L203.329 611.914
L205.889 611.349
L208.448 610.966
L211.007 610.757
L213.566 610.707
L217.405 610.901
L221.244 611.37
L225.083 612.053
L230.202 613.192
L246.837 617.125
L251.955 618.015
L257.074 618.653
L262.192 619.028
L267.311 619.158
L272.429 619.081
L278.828 618.768
L289.065 618.007
L301.861 617.088
L310.819 616.678
L319.776 616.509
L330.013 616.564
L346.648 616.933
L364.563 617.267
L379.919 617.328
L408.071 617.147
L436.223 617.074
L588.499 617.135
L697.268 617.134
L697.268 617.134" style="fill:none;stroke:#0000ff;stroke-linecap:square;stroke-width:2;"/>
   </g>
   <g id="line2d_91">
    <path clip-path="url(#pd2799e3616)" d="
M58.7306 618.131
L697.268 618.131" style="fill:none;stroke:#ff0000;stroke-dasharray:6.000000,6.000000;stroke-dashoffset:0.0;stroke-width:2;"/>
   </g>
   <g id="patch_24">
    <path d="
M58.7306 563.76
L697.268 563.76" style="fill:none;stroke:#000000;stroke-linecap:square;stroke-linejoin:miter;"/>
   </g>
   <g id="patch_25">
    <path d="
M697.268 682.2
L697.268 563.76" style="fill:none;stroke:#000000;stroke-linecap:square;stroke-linejoin:miter;"/>
   </g>
   <g id="patch_26">
    <path d="
M58.7306 682.2
L697.268 682.2" style="fill:none;stroke:#000000;stroke-linecap:square;stroke-linejoin:miter;"/>
   </g>
   <g id="patch_27">
    <path d="
M58.7306 682.2
L58.7306 563.76" style="fill:none;stroke:#000000;stroke-linecap:square;stroke-linejoin:miter;"/>
   </g>
   <g id="matplotlib.axis_9">
    <g id="xtick_1">
     <g id="line2d_92">
      <defs>
       <path d="
M0 0
L0 -4" id="m93b0483c22" style="stroke:#000000;stroke-width:0.5;"/>
      </defs>
      <g>
       <use style="stroke:#000000;stroke-width:0.5;" x="58.730625" xlink:href="#m93b0483c22" y="682.2"/>
      </g>
     </g>
     <g id="line2d_93">
      <defs>
       <path d="
M0 0
L0 4" id="m741efc42ff" style="stroke:#000000;stroke-width:0.5;"/>
      </defs>
      <g>
       <use style="stroke:#000000;stroke-width:0.5;" x="58.730625" xlink:href="#m741efc42ff" y="563.76"/>
      </g>
     </g>
     <g id="text_37">
      <!-- 0 -->
      <g transform="translate(56.21109375 693.7984375)scale(0.1 -0.1)">
       <use xlink:href="#BitstreamVeraSans-Roman-30"/>
      </g>
     </g>
    </g>
    <g id="xtick_2">
     <g id="line2d_94">
      <g>
       <use style="stroke:#000000;stroke-width:0.5;" x="186.43809375" xlink:href="#m93b0483c22" y="682.2"/>
      </g>
     </g>
     <g id="line2d_95">
      <g>
       <use style="stroke:#000000;stroke-width:0.5;" x="186.43809375" xlink:href="#m741efc42ff" y="563.76"/>
      </g>
     </g>
     <g id="text_38">
      <!-- 200 -->
      <g transform="translate(177.59278125 693.7984375)scale(0.1 -0.1)">
       <use xlink:href="#BitstreamVeraSans-Roman-32"/>
       <use x="63.623046875" xlink:href="#BitstreamVeraSans-Roman-30"/>
       <use x="127.24609375" xlink:href="#BitstreamVeraSans-Roman-30"/>
      </g>
     </g>
    </g>
    <g id="xtick_3">
     <g id="line2d_96">
      <g>
       <use style="stroke:#000000;stroke-width:0.5;" x="314.1455625" xlink:href="#m93b0483c22" y="682.2"/>
      </g>
     </g>
     <g id="line2d_97">
      <g>
       <use style="stroke:#000000;stroke-width:0.5;" x="314.1455625" xlink:href="#m741efc42ff" y="563.76"/>
      </g>
     </g>
     <g id="text_39">
      <!-- 400 -->
      <g transform="translate(305.178375 693.7984375)scale(0.1 -0.1)">
       <use xlink:href="#BitstreamVeraSans-Roman-34"/>
       <use x="63.623046875" xlink:href="#BitstreamVeraSans-Roman-30"/>
       <use x="127.24609375" xlink:href="#BitstreamVeraSans-Roman-30"/>
      </g>
     </g>
    </g>
    <g id="xtick_4">
     <g id="line2d_98">
      <g>
       <use style="stroke:#000000;stroke-width:0.5;" x="441.85303125" xlink:href="#m93b0483c22" y="682.2"/>
      </g>
     </g>
     <g id="line2d_99">
      <g>
       <use style="stroke:#000000;stroke-width:0.5;" x="441.85303125" xlink:href="#m741efc42ff" y="563.76"/>
      </g>
     </g>
     <g id="text_40">
      <!-- 600 -->
      <g transform="translate(432.99053125 693.7984375)scale(0.1 -0.1)">
       <use xlink:href="#BitstreamVeraSans-Roman-36"/>
       <use x="63.623046875" xlink:href="#BitstreamVeraSans-Roman-30"/>
       <use x="127.24609375" xlink:href="#BitstreamVeraSans-Roman-30"/>
      </g>
     </g>
    </g>
    <g id="xtick_5">
     <g id="line2d_100">
      <g>
       <use style="stroke:#000000;stroke-width:0.5;" x="569.5605" xlink:href="#m93b0483c22" y="682.2"/>
      </g>
     </g>
     <g id="line2d_101">
      <g>
       <use style="stroke:#000000;stroke-width:0.5;" x="569.5605" xlink:href="#m741efc42ff" y="563.76"/>
      </g>
     </g>
     <g id="text_41">
      <!-- 800 -->
      <g transform="translate(560.68784375 693.7984375)scale(0.1 -0.1)">
       <use xlink:href="#BitstreamVeraSans-Roman-38"/>
       <use x="63.623046875" xlink:href="#BitstreamVeraSans-Roman-30"/>
       <use x="127.24609375" xlink:href="#BitstreamVeraSans-Roman-30"/>
      </g>
     </g>
    </g>
    <g id="xtick_6">
     <g id="line2d_102">
      <g>
       <use style="stroke:#000000;stroke-width:0.5;" x="697.26796875" xlink:href="#m93b0483c22" y="682.2"/>
      </g>
     </g>
     <g id="line2d_103">
      <g>
       <use style="stroke:#000000;stroke-width:0.5;" x="697.26796875" xlink:href="#m741efc42ff" y="563.76"/>
      </g>
     </g>
     <g id="text_42">
      <!-- 1000 -->
      <g transform="translate(685.42421875 693.7984375)scale(0.1 -0.1)">
       <use xlink:href="#BitstreamVeraSans-Roman-31"/>
       <use x="63.623046875" xlink:href="#BitstreamVeraSans-Roman-30"/>
       <use x="127.24609375" xlink:href="#BitstreamVeraSans-Roman-30"/>
       <use x="190.869140625" xlink:href="#BitstreamVeraSans-Roman-30"/>
      </g>
     </g>
    </g>
    <g id="text_43">
     <!-- time (a.u.) -->
     <g transform="translate(348.680546875 708.4765625)scale(0.1 -0.1)">
      <use xlink:href="#BitstreamVeraSans-Bold-74"/>
      <use x="47.802734375" xlink:href="#BitstreamVeraSans-Bold-69"/>
      <use x="82.080078125" xlink:href="#BitstreamVeraSans-Bold-6d"/>
      <use x="186.279296875" xlink:href="#BitstreamVeraSans-Bold-65"/>
      <use x="254.1015625" xlink:href="#BitstreamVeraSans-Bold-20"/>
      <use x="288.916015625" xlink:href="#BitstreamVeraSans-Bold-28"/>
      <use x="334.619140625" xlink:href="#BitstreamVeraSans-Bold-61"/>
      <use x="402.099609375" xlink:href="#BitstreamVeraSans-Bold-2e"/>
      <use x="440.087890625" xlink:href="#BitstreamVeraSans-Bold-75"/>
      <use x="511.279296875" xlink:href="#BitstreamVeraSans-Bold-2e"/>
      <use x="549.267578125" xlink:href="#BitstreamVeraSans-Bold-29"/>
     </g>
    </g>
   </g>
   <g id="matplotlib.axis_10">
    <g id="ytick_25">
     <g id="line2d_104">
      <g>
       <use style="stroke:#000000;stroke-width:0.5;" x="58.730625" xlink:href="#m728421d6d4" y="682.2"/>
      </g>
     </g>
     <g id="line2d_105">
      <g>
       <use style="stroke:#000000;stroke-width:0.5;" x="697.26796875" xlink:href="#mcb0005524f" y="682.2"/>
      </g>
     </g>
     <g id="text_44">
      <!-- 0.20 -->
      <g transform="translate(33.7884375 684.959375)scale(0.1 -0.1)">
       <use xlink:href="#BitstreamVeraSans-Roman-30"/>
       <use x="63.623046875" xlink:href="#BitstreamVeraSans-Roman-2e"/>
       <use x="95.41015625" xlink:href="#BitstreamVeraSans-Roman-32"/>
       <use x="159.033203125" xlink:href="#BitstreamVeraSans-Roman-30"/>
      </g>
     </g>
    </g>
    <g id="ytick_26">
     <g id="line2d_106">
      <g>
       <use style="stroke:#000000;stroke-width:0.5;" x="58.730625" xlink:href="#m728421d6d4" y="669.04"/>
      </g>
     </g>
     <g id="line2d_107">
      <g>
       <use style="stroke:#000000;stroke-width:0.5;" x="697.26796875" xlink:href="#mcb0005524f" y="669.04"/>
      </g>
     </g>
     <g id="text_45">
      <!-- 0.25 -->
      <g transform="translate(33.9978125 671.799375)scale(0.1 -0.1)">
       <use xlink:href="#BitstreamVeraSans-Roman-30"/>
       <use x="63.623046875" xlink:href="#BitstreamVeraSans-Roman-2e"/>
       <use x="95.41015625" xlink:href="#BitstreamVeraSans-Roman-32"/>
       <use x="159.033203125" xlink:href="#BitstreamVeraSans-Roman-35"/>
      </g>
     </g>
    </g>
    <g id="ytick_27">
     <g id="line2d_108">
      <g>
       <use style="stroke:#000000;stroke-width:0.5;" x="58.730625" xlink:href="#m728421d6d4" y="655.88"/>
      </g>
     </g>
     <g id="line2d_109">
      <g>
       <use style="stroke:#000000;stroke-width:0.5;" x="697.26796875" xlink:href="#mcb0005524f" y="655.88"/>
      </g>
     </g>
     <g id="text_46">
      <!-- 0.30 -->
      <g transform="translate(33.7884375 658.639375)scale(0.1 -0.1)">
       <use xlink:href="#BitstreamVeraSans-Roman-30"/>
       <use x="63.623046875" xlink:href="#BitstreamVeraSans-Roman-2e"/>
       <use x="95.41015625" xlink:href="#BitstreamVeraSans-Roman-33"/>
       <use x="159.033203125" xlink:href="#BitstreamVeraSans-Roman-30"/>
      </g>
     </g>
    </g>
    <g id="ytick_28">
     <g id="line2d_110">
      <g>
       <use style="stroke:#000000;stroke-width:0.5;" x="58.730625" xlink:href="#m728421d6d4" y="642.72"/>
      </g>
     </g>
     <g id="line2d_111">
      <g>
       <use style="stroke:#000000;stroke-width:0.5;" x="697.26796875" xlink:href="#mcb0005524f" y="642.72"/>
      </g>
     </g>
     <g id="text_47">
      <!-- 0.35 -->
      <g transform="translate(33.9978125 645.479375)scale(0.1 -0.1)">
       <use xlink:href="#BitstreamVeraSans-Roman-30"/>
       <use x="63.623046875" xlink:href="#BitstreamVeraSans-Roman-2e"/>
       <use x="95.41015625" xlink:href="#BitstreamVeraSans-Roman-33"/>
       <use x="159.033203125" xlink:href="#BitstreamVeraSans-Roman-35"/>
      </g>
     </g>
    </g>
    <g id="ytick_29">
     <g id="line2d_112">
      <g>
       <use style="stroke:#000000;stroke-width:0.5;" x="58.730625" xlink:href="#m728421d6d4" y="629.56"/>
      </g>
     </g>
     <g id="line2d_113">
      <g>
       <use style="stroke:#000000;stroke-width:0.5;" x="697.26796875" xlink:href="#mcb0005524f" y="629.56"/>
      </g>
     </g>
     <g id="text_48">
      <!-- 0.40 -->
      <g transform="translate(33.7884375 632.319375)scale(0.1 -0.1)">
       <use xlink:href="#BitstreamVeraSans-Roman-30"/>
       <use x="63.623046875" xlink:href="#BitstreamVeraSans-Roman-2e"/>
       <use x="95.41015625" xlink:href="#BitstreamVeraSans-Roman-34"/>
       <use x="159.033203125" xlink:href="#BitstreamVeraSans-Roman-30"/>
      </g>
     </g>
    </g>
    <g id="ytick_30">
     <g id="line2d_114">
      <g>
       <use style="stroke:#000000;stroke-width:0.5;" x="58.730625" xlink:href="#m728421d6d4" y="616.4"/>
      </g>
     </g>
     <g id="line2d_115">
      <g>
       <use style="stroke:#000000;stroke-width:0.5;" x="697.26796875" xlink:href="#mcb0005524f" y="616.4"/>
      </g>
     </g>
     <g id="text_49">
      <!-- 0.45 -->
      <g transform="translate(33.9978125 619.159375)scale(0.1 -0.1)">
       <use xlink:href="#BitstreamVeraSans-Roman-30"/>
       <use x="63.623046875" xlink:href="#BitstreamVeraSans-Roman-2e"/>
       <use x="95.41015625" xlink:href="#BitstreamVeraSans-Roman-34"/>
       <use x="159.033203125" xlink:href="#BitstreamVeraSans-Roman-35"/>
      </g>
     </g>
    </g>
    <g id="ytick_31">
     <g id="line2d_116">
      <g>
       <use style="stroke:#000000;stroke-width:0.5;" x="58.730625" xlink:href="#m728421d6d4" y="603.24"/>
      </g>
     </g>
     <g id="line2d_117">
      <g>
       <use style="stroke:#000000;stroke-width:0.5;" x="697.26796875" xlink:href="#mcb0005524f" y="603.24"/>
      </g>
     </g>
     <g id="text_50">
      <!-- 0.50 -->
      <g transform="translate(33.7884375 605.999375)scale(0.1 -0.1)">
       <use xlink:href="#BitstreamVeraSans-Roman-30"/>
       <use x="63.623046875" xlink:href="#BitstreamVeraSans-Roman-2e"/>
       <use x="95.41015625" xlink:href="#BitstreamVeraSans-Roman-35"/>
       <use x="159.033203125" xlink:href="#BitstreamVeraSans-Roman-30"/>
      </g>
     </g>
    </g>
    <g id="ytick_32">
     <g id="line2d_118">
      <g>
       <use style="stroke:#000000;stroke-width:0.5;" x="58.730625" xlink:href="#m728421d6d4" y="590.08"/>
      </g>
     </g>
     <g id="line2d_119">
      <g>
       <use style="stroke:#000000;stroke-width:0.5;" x="697.26796875" xlink:href="#mcb0005524f" y="590.08"/>
      </g>
     </g>
     <g id="text_51">
      <!-- 0.55 -->
      <g transform="translate(33.9978125 592.839375)scale(0.1 -0.1)">
       <use xlink:href="#BitstreamVeraSans-Roman-30"/>
       <use x="63.623046875" xlink:href="#BitstreamVeraSans-Roman-2e"/>
       <use x="95.41015625" xlink:href="#BitstreamVeraSans-Roman-35"/>
       <use x="159.033203125" xlink:href="#BitstreamVeraSans-Roman-35"/>
      </g>
     </g>
    </g>
    <g id="ytick_33">
     <g id="line2d_120">
      <g>
       <use style="stroke:#000000;stroke-width:0.5;" x="58.730625" xlink:href="#m728421d6d4" y="576.92"/>
      </g>
     </g>
     <g id="line2d_121">
      <g>
       <use style="stroke:#000000;stroke-width:0.5;" x="697.26796875" xlink:href="#mcb0005524f" y="576.92"/>
      </g>
     </g>
     <g id="text_52">
      <!-- 0.60 -->
      <g transform="translate(33.7884375 579.679375)scale(0.1 -0.1)">
       <use xlink:href="#BitstreamVeraSans-Roman-30"/>
       <use x="63.623046875" xlink:href="#BitstreamVeraSans-Roman-2e"/>
       <use x="95.41015625" xlink:href="#BitstreamVeraSans-Roman-36"/>
       <use x="159.033203125" xlink:href="#BitstreamVeraSans-Roman-30"/>
      </g>
     </g>
    </g>
    <g id="ytick_34">
     <g id="line2d_122">
      <g>
       <use style="stroke:#000000;stroke-width:0.5;" x="58.730625" xlink:href="#m728421d6d4" y="563.76"/>
      </g>
     </g>
     <g id="line2d_123">
      <g>
       <use style="stroke:#000000;stroke-width:0.5;" x="697.26796875" xlink:href="#mcb0005524f" y="563.76"/>
      </g>
     </g>
     <g id="text_53">
      <!-- 0.65 -->
      <g transform="translate(33.9978125 566.519375)scale(0.1 -0.1)">
       <use xlink:href="#BitstreamVeraSans-Roman-30"/>
       <use x="63.623046875" xlink:href="#BitstreamVeraSans-Roman-2e"/>
       <use x="95.41015625" xlink:href="#BitstreamVeraSans-Roman-36"/>
       <use x="159.033203125" xlink:href="#BitstreamVeraSans-Roman-35"/>
      </g>
     </g>
    </g>
    <g id="text_54">
     <!-- ca conc. -->
     <g transform="translate(26.70875 645.370625)rotate(-90.0)scale(0.1 -0.1)">
      <use xlink:href="#BitstreamVeraSans-Bold-63"/>
      <use x="59.27734375" xlink:href="#BitstreamVeraSans-Bold-61"/>
      <use x="126.7578125" xlink:href="#BitstreamVeraSans-Bold-20"/>
      <use x="161.572265625" xlink:href="#BitstreamVeraSans-Bold-63"/>
      <use x="220.849609375" xlink:href="#BitstreamVeraSans-Bold-6f"/>
      <use x="289.55078125" xlink:href="#BitstreamVeraSans-Bold-6e"/>
      <use x="360.7421875" xlink:href="#BitstreamVeraSans-Bold-63"/>
      <use x="420.01953125" xlink:href="#BitstreamVeraSans-Bold-2e"/>
     </g>
    </g>
   </g>
   <g id="legend_2">
    <g id="patch_28">
     <path d="
M595.598 676.2
L691.268 676.2
L691.268 654.986
L595.598 654.986
z
" style="fill:#ffffff;stroke:#000000;stroke-linejoin:miter;"/>
    </g>
    <g id="line2d_124">
     <path d="
M603.998 664.704
L620.798 664.704" style="fill:none;stroke:#ff0000;stroke-dasharray:6.000000,6.000000;stroke-dashoffset:0.0;stroke-width:2;"/>
    </g>
    <g id="line2d_125"/>
    <g id="text_55">
     <!-- set point -->
     <defs>
      <path d="
M56.2031 29.5938
L56.2031 25.2031
L14.8906 25.2031
Q15.4844 15.9219 20.4844 11.0625
Q25.4844 6.20312 34.4219 6.20312
Q39.5938 6.20312 44.4531 7.46875
Q49.3125 8.73438 54.1094 11.2812
L54.1094 2.78125
Q49.2656 0.734375 44.1875 -0.34375
Q39.1094 -1.42188 33.8906 -1.42188
Q20.7969 -1.42188 13.1562 6.1875
Q5.51562 13.8125 5.51562 26.8125
Q5.51562 40.2344 12.7656 48.1094
Q20.0156 56 32.3281 56
Q43.3594 56 49.7812 48.8906
Q56.2031 41.7969 56.2031 29.5938
M47.2188 32.2344
Q47.125 39.5938 43.0938 43.9844
Q39.0625 48.3906 32.4219 48.3906
Q24.9062 48.3906 20.3906 44.1406
Q15.875 39.8906 15.1875 32.1719
z
" id="BitstreamVeraSans-Roman-65"/>
      <path d="
M54.8906 33.0156
L54.8906 0
L45.9062 0
L45.9062 32.7188
Q45.9062 40.4844 42.875 44.3281
Q39.8438 48.1875 33.7969 48.1875
Q26.5156 48.1875 22.3125 43.5469
Q18.1094 38.9219 18.1094 30.9062
L18.1094 0
L9.07812 0
L9.07812 54.6875
L18.1094 54.6875
L18.1094 46.1875
Q21.3438 51.125 25.7031 53.5625
Q30.0781 56 35.7969 56
Q45.2188 56 50.0469 50.1719
Q54.8906 44.3438 54.8906 33.0156" id="BitstreamVeraSans-Roman-6e"/>
      <path d="
M18.3125 70.2188
L18.3125 54.6875
L36.8125 54.6875
L36.8125 47.7031
L18.3125 47.7031
L18.3125 18.0156
Q18.3125 11.3281 20.1406 9.42188
Q21.9688 7.51562 27.5938 7.51562
L36.8125 7.51562
L36.8125 0
L27.5938 0
Q17.1875 0 13.2344 3.875
Q9.28125 7.76562 9.28125 18.0156
L9.28125 47.7031
L2.6875 47.7031
L2.6875 54.6875
L9.28125 54.6875
L9.28125 70.2188
z
" id="BitstreamVeraSans-Roman-74"/>
      <path d="
M9.42188 54.6875
L18.4062 54.6875
L18.4062 0
L9.42188 0
z

M9.42188 75.9844
L18.4062 75.9844
L18.4062 64.5938
L9.42188 64.5938
z
" id="BitstreamVeraSans-Roman-69"/>
      <path d="
M44.2812 53.0781
L44.2812 44.5781
Q40.4844 46.5312 36.375 47.5
Q32.2812 48.4844 27.875 48.4844
Q21.1875 48.4844 17.8438 46.4375
Q14.5 44.3906 14.5 40.2812
Q14.5 37.1562 16.8906 35.375
Q19.2812 33.5938 26.5156 31.9844
L29.5938 31.2969
Q39.1562 29.25 43.1875 25.5156
Q47.2188 21.7812 47.2188 15.0938
Q47.2188 7.46875 41.1875 3.01562
Q35.1562 -1.42188 24.6094 -1.42188
Q20.2188 -1.42188 15.4531 -0.5625
Q10.6875 0.296875 5.42188 2
L5.42188 11.2812
Q10.4062 8.6875 15.2344 7.39062
Q20.0625 6.10938 24.8125 6.10938
Q31.1562 6.10938 34.5625 8.28125
Q37.9844 10.4531 37.9844 14.4062
Q37.9844 18.0625 35.5156 20.0156
Q33.0625 21.9688 24.7031 23.7812
L21.5781 24.5156
Q13.2344 26.2656 9.51562 29.9062
Q5.8125 33.5469 5.8125 39.8906
Q5.8125 47.6094 11.2812 51.7969
Q16.75 56 26.8125 56
Q31.7812 56 36.1719 55.2656
Q40.5781 54.5469 44.2812 53.0781" id="BitstreamVeraSans-Roman-73"/>
     </defs>
     <g transform="translate(633.99796875 668.904375)scale(0.12 -0.12)">
      <use xlink:href="#BitstreamVeraSans-Roman-73"/>
      <use x="52.099609375" xlink:href="#BitstreamVeraSans-Roman-65"/>
      <use x="113.623046875" xlink:href="#BitstreamVeraSans-Roman-74"/>
      <use x="152.83203125" xlink:href="#BitstreamVeraSans-Roman-20"/>
      <use x="184.619140625" xlink:href="#BitstreamVeraSans-Roman-70"/>
      <use x="248.095703125" xlink:href="#BitstreamVeraSans-Roman-6f"/>
      <use x="309.27734375" xlink:href="#BitstreamVeraSans-Roman-69"/>
      <use x="337.060546875" xlink:href="#BitstreamVeraSans-Roman-6e"/>
      <use x="400.439453125" xlink:href="#BitstreamVeraSans-Roman-74"/>
     </g>
    </g>
   </g>
  </g>
 </g>
 <defs>
  <clipPath id="pd2799e3616">
   <rect height="118.44" width="638.53734375" x="58.730625" y="563.76"/>
  </clipPath>
  <clipPath id="p0ca233ff5b">
   <rect height="118.44" width="638.53734375" x="58.730625" y="10.8"/>
  </clipPath>
  <clipPath id="p64d642aa21">
   <rect height="118.44" width="638.53734375" x="58.730625" y="287.28"/>
  </clipPath>
  <clipPath id="p7d0fb9ec0d">
   <rect height="118.44" width="638.53734375" x="58.730625" y="149.04"/>
  </clipPath>
  <clipPath id="p05ad1eb429">
   <rect height="118.44" width="638.53734375" x="58.730625" y="425.52"/>
  </clipPath>
 </defs>
</svg>
