<?xml version="1.0" encoding="utf-8" standalone="no"?>
<!DOCTYPE svg PUBLIC "-//W3C//DTD SVG 1.1//EN"
  "http://www.w3.org/Graphics/SVG/1.1/DTD/svg11.dtd">
<!-- Created with matplotlib (http://matplotlib.org/) -->
<svg height="432pt" version="1.1" viewBox="0 0 576 432" width="576pt" xmlns="http://www.w3.org/2000/svg" xmlns:xlink="http://www.w3.org/1999/xlink">
 <defs>
  <style type="text/css">
*{stroke-linecap:butt;stroke-linejoin:round;}
  </style>
 </defs>
 <g id="figure_1">
  <g id="patch_1">
   <path d="
M0 432
L576 432
L576 0
L0 0
z
" style="fill:#ffffff;"/>
  </g>
  <g id="axes_1">
   <g id="patch_2">
    <path d="
M72 144.847
L274.909 144.847
L274.909 43.2
L72 43.2
z
" style="fill:#ffffff;"/>
   </g>
   <g id="line2d_1">
    <path clip-path="url(#pdf2bc2c95a)" d="
M72 126.696
L76.4234 125.772
L81.5773 124.922
L87.4617 124.183
L94.32 123.553
L102.518 123.03
L112.744 122.611
L126.258 122.293
L146.062 122.068
L182.585 121.913
L274.869 121.723
L274.869 121.723" style="fill:none;stroke:#0000ff;stroke-linecap:square;"/>
   </g>
   <g id="patch_3">
    <path d="
M72 43.2
L274.909 43.2" style="fill:none;stroke:#000000;stroke-linecap:square;stroke-linejoin:miter;"/>
   </g>
   <g id="patch_4">
    <path d="
M274.909 144.847
L274.909 43.2" style="fill:none;stroke:#000000;stroke-linecap:square;stroke-linejoin:miter;"/>
   </g>
   <g id="patch_5">
    <path d="
M72 144.847
L274.909 144.847" style="fill:none;stroke:#000000;stroke-linecap:square;stroke-linejoin:miter;"/>
   </g>
   <g id="patch_6">
    <path d="
M72 144.847
L72 43.2" style="fill:none;stroke:#000000;stroke-linecap:square;stroke-linejoin:miter;"/>
   </g>
   <g id="matplotlib.axis_1"/>
   <g id="matplotlib.axis_2">
    <g id="ytick_1">
     <g id="line2d_2">
      <defs>
       <path d="
M0 0
L4 0" id="m728421d6d4" style="stroke:#000000;stroke-width:0.5;"/>
      </defs>
      <g>
       <use style="stroke:#000000;stroke-width:0.5;" x="72.0" xlink:href="#m728421d6d4" y="130.32605042"/>
      </g>
     </g>
     <g id="line2d_3">
      <defs>
       <path d="
M0 0
L-4 0" id="mcb0005524f" style="stroke:#000000;stroke-width:0.5;"/>
      </defs>
      <g>
       <use style="stroke:#000000;stroke-width:0.5;" x="274.909090909" xlink:href="#mcb0005524f" y="130.32605042"/>
      </g>
     </g>
     <g id="text_1">
      <!-- −60 -->
      <defs>
       <path d="
M10.5938 35.5
L73.1875 35.5
L73.1875 27.2031
L10.5938 27.2031
z
" id="BitstreamVeraSans-Roman-2212"/>
       <path d="
M31.7812 66.4062
Q24.1719 66.4062 20.3281 58.9062
Q16.5 51.4219 16.5 36.375
Q16.5 21.3906 20.3281 13.8906
Q24.1719 6.39062 31.7812 6.39062
Q39.4531 6.39062 43.2812 13.8906
Q47.125 21.3906 47.125 36.375
Q47.125 51.4219 43.2812 58.9062
Q39.4531 66.4062 31.7812 66.4062
M31.7812 74.2188
Q44.0469 74.2188 50.5156 64.5156
Q56.9844 54.8281 56.9844 36.375
Q56.9844 17.9688 50.5156 8.26562
Q44.0469 -1.42188 31.7812 -1.42188
Q19.5312 -1.42188 13.0625 8.26562
Q6.59375 17.9688 6.59375 36.375
Q6.59375 54.8281 13.0625 64.5156
Q19.5312 74.2188 31.7812 74.2188" id="BitstreamVeraSans-Roman-30"/>
       <path d="
M33.0156 40.375
Q26.375 40.375 22.4844 35.8281
Q18.6094 31.2969 18.6094 23.3906
Q18.6094 15.5312 22.4844 10.9531
Q26.375 6.39062 33.0156 6.39062
Q39.6562 6.39062 43.5312 10.9531
Q47.4062 15.5312 47.4062 23.3906
Q47.4062 31.2969 43.5312 35.8281
Q39.6562 40.375 33.0156 40.375
M52.5938 71.2969
L52.5938 62.3125
Q48.875 64.0625 45.0938 64.9844
Q41.3125 65.9219 37.5938 65.9219
Q27.8281 65.9219 22.6719 59.3281
Q17.5312 52.7344 16.7969 39.4062
Q19.6719 43.6562 24.0156 45.9219
Q28.375 48.1875 33.5938 48.1875
Q44.5781 48.1875 50.9531 41.5156
Q57.3281 34.8594 57.3281 23.3906
Q57.3281 12.1562 50.6875 5.35938
Q44.0469 -1.42188 33.0156 -1.42188
Q20.3594 -1.42188 13.6719 8.26562
Q6.98438 17.9688 6.98438 36.375
Q6.98438 53.6562 15.1875 63.9375
Q23.3906 74.2188 37.2031 74.2188
Q40.9219 74.2188 44.7031 73.4844
Q48.4844 72.75 52.5938 71.2969" id="BitstreamVeraSans-Roman-36"/>
      </defs>
      <g transform="translate(44.7425 133.63730042)scale(0.12 -0.12)">
       <use xlink:href="#BitstreamVeraSans-Roman-2212"/>
       <use x="83.7890625" xlink:href="#BitstreamVeraSans-Roman-36"/>
       <use x="147.412109375" xlink:href="#BitstreamVeraSans-Roman-30"/>
      </g>
     </g>
    </g>
    <g id="ytick_2">
     <g id="line2d_4">
      <g>
       <use style="stroke:#000000;stroke-width:0.5;" x="72.0" xlink:href="#m728421d6d4" y="86.7630252101"/>
      </g>
     </g>
     <g id="line2d_5">
      <g>
       <use style="stroke:#000000;stroke-width:0.5;" x="274.909090909" xlink:href="#mcb0005524f" y="86.7630252101"/>
      </g>
     </g>
     <g id="text_2">
      <!-- 0 -->
      <g transform="translate(61.953125 90.0742752101)scale(0.12 -0.12)">
       <use xlink:href="#BitstreamVeraSans-Roman-30"/>
      </g>
     </g>
    </g>
   </g>
   <g id="text_3">
    <!-- soma -->
    <defs>
     <path d="
M51.125 52.9844
L51.125 39.7031
Q45.5156 42.0469 40.2812 43.2188
Q35.0625 44.3906 30.4219 44.3906
Q25.4375 44.3906 23.0156 43.1406
Q20.6094 41.8906 20.6094 39.3125
Q20.6094 37.2031 22.4375 36.0781
Q24.2656 34.9688 29 34.4219
L32.0781 33.9844
Q45.5156 32.2812 50.1406 28.375
Q54.7812 24.4688 54.7812 16.1094
Q54.7812 7.375 48.3281 2.96875
Q41.8906 -1.42188 29.1094 -1.42188
Q23.6875 -1.42188 17.8906 -0.5625
Q12.1094 0.296875 6 2
L6 15.2812
Q11.2344 12.75 16.7188 11.4688
Q22.2188 10.2031 27.875 10.2031
Q33.0156 10.2031 35.5938 11.6094
Q38.1875 13.0312 38.1875 15.8281
Q38.1875 18.1719 36.4062 19.3125
Q34.625 20.4531 29.2969 21.0938
L26.2188 21.4844
Q14.5469 22.9531 9.85938 26.9062
Q5.17188 30.8594 5.17188 38.9219
Q5.17188 47.6094 11.125 51.7969
Q17.0938 56 29.3906 56
Q34.2344 56 39.5469 55.2656
Q44.875 54.5469 51.125 52.9844" id="BitstreamVeraSans-Bold-73"/>
     <path d="
M32.9062 24.6094
Q27.4375 24.6094 24.6719 22.75
Q21.9219 20.9062 21.9219 17.2812
Q21.9219 13.9688 24.1406 12.0781
Q26.375 10.2031 30.3281 10.2031
Q35.25 10.2031 38.625 13.7344
Q42 17.2812 42 22.6094
L42 24.6094
z

M59.625 31.2031
L59.625 0
L42 0
L42 8.10938
Q38.4844 3.125 34.0781 0.84375
Q29.6875 -1.42188 23.3906 -1.42188
Q14.8906 -1.42188 9.59375 3.53125
Q4.29688 8.5 4.29688 16.4062
Q4.29688 26.0312 10.9062 30.5156
Q17.5312 35.0156 31.6875 35.0156
L42 35.0156
L42 36.375
Q42 40.5312 38.7188 42.4531
Q35.4531 44.3906 28.5156 44.3906
Q22.9062 44.3906 18.0625 43.2656
Q13.2344 42.1406 9.07812 39.8906
L9.07812 53.2188
Q14.7031 54.5938 20.3594 55.2969
Q26.0312 56 31.6875 56
Q46.4844 56 53.0469 50.1719
Q59.625 44.3438 59.625 31.2031" id="BitstreamVeraSans-Bold-61"/>
     <path d="
M34.4219 43.5
Q28.6094 43.5 25.5625 39.3281
Q22.5156 35.1562 22.5156 27.2969
Q22.5156 19.4375 25.5625 15.25
Q28.6094 11.0781 34.4219 11.0781
Q40.1406 11.0781 43.1562 15.25
Q46.1875 19.4375 46.1875 27.2969
Q46.1875 35.1562 43.1562 39.3281
Q40.1406 43.5 34.4219 43.5
M34.4219 56
Q48.5312 56 56.4688 48.375
Q64.4062 40.7656 64.4062 27.2969
Q64.4062 13.8125 56.4688 6.1875
Q48.5312 -1.42188 34.4219 -1.42188
Q20.2656 -1.42188 12.2812 6.1875
Q4.29688 13.8125 4.29688 27.2969
Q4.29688 40.7656 12.2812 48.375
Q20.2656 56 34.4219 56" id="BitstreamVeraSans-Bold-6f"/>
     <path d="
M59.0781 45.6094
Q62.4062 50.6875 66.9688 53.3438
Q71.5312 56 77 56
Q86.4219 56 91.3594 50.1875
Q96.2969 44.3906 96.2969 33.2969
L96.2969 0
L78.7188 0
L78.7188 28.5156
Q78.7656 29.1562 78.7812 29.8281
Q78.8125 30.5156 78.8125 31.7812
Q78.8125 37.5938 77.0938 40.2031
Q75.3906 42.8281 71.5781 42.8281
Q66.6094 42.8281 63.8906 38.7188
Q61.1875 34.625 61.0781 26.8594
L61.0781 0
L43.5 0
L43.5 28.5156
Q43.5 37.5938 41.9375 40.2031
Q40.375 42.8281 36.375 42.8281
Q31.3438 42.8281 28.6094 38.7031
Q25.875 34.5781 25.875 26.9062
L25.875 0
L8.29688 0
L8.29688 54.6875
L25.875 54.6875
L25.875 46.6875
Q29.1094 51.3125 33.2812 53.6562
Q37.4531 56 42.4844 56
Q48.1406 56 52.4844 53.2656
Q56.8438 50.5312 59.0781 45.6094" id="BitstreamVeraSans-Bold-6d"/>
    </defs>
    <g transform="translate(152.799545455 38.2)scale(0.144 -0.144)">
     <use xlink:href="#BitstreamVeraSans-Bold-73"/>
     <use x="59.521484375" xlink:href="#BitstreamVeraSans-Bold-6f"/>
     <use x="128.22265625" xlink:href="#BitstreamVeraSans-Bold-6d"/>
     <use x="232.421875" xlink:href="#BitstreamVeraSans-Bold-61"/>
    </g>
   </g>
  </g>
  <g id="axes_2">
   <g id="patch_7">
    <path d="
M315.491 144.847
L518.4 144.847
L518.4 43.2
L315.491 43.2
z
" style="fill:#ffffff;"/>
   </g>
   <g id="line2d_6">
    <path clip-path="url(#pbd5a3a9a46)" d="
M315.491 126.696
L320.32 125.698
L325.515 124.859
L331.48 124.128
L338.42 123.508
L346.739 122.994
L357.168 122.584
L371.047 122.273
L391.582 122.057
L430.703 121.905
L518.359 121.73
L518.359 121.73" style="fill:none;stroke:#0000ff;stroke-linecap:square;"/>
   </g>
   <g id="patch_8">
    <path d="
M315.491 43.2
L518.4 43.2" style="fill:none;stroke:#000000;stroke-linecap:square;stroke-linejoin:miter;"/>
   </g>
   <g id="patch_9">
    <path d="
M518.4 144.847
L518.4 43.2" style="fill:none;stroke:#000000;stroke-linecap:square;stroke-linejoin:miter;"/>
   </g>
   <g id="patch_10">
    <path d="
M315.491 144.847
L518.4 144.847" style="fill:none;stroke:#000000;stroke-linecap:square;stroke-linejoin:miter;"/>
   </g>
   <g id="patch_11">
    <path d="
M315.491 144.847
L315.491 43.2" style="fill:none;stroke:#000000;stroke-linecap:square;stroke-linejoin:miter;"/>
   </g>
   <g id="matplotlib.axis_3"/>
   <g id="matplotlib.axis_4">
    <g id="ytick_3">
     <g id="line2d_7">
      <g>
       <use style="stroke:#000000;stroke-width:0.5;" x="315.490909091" xlink:href="#m728421d6d4" y="130.32605042"/>
      </g>
     </g>
     <g id="line2d_8">
      <g>
       <use style="stroke:#000000;stroke-width:0.5;" x="518.4" xlink:href="#mcb0005524f" y="130.32605042"/>
      </g>
     </g>
     <g id="text_4">
      <!-- −60 -->
      <g transform="translate(288.233409091 133.63730042)scale(0.12 -0.12)">
       <use xlink:href="#BitstreamVeraSans-Roman-2212"/>
       <use x="83.7890625" xlink:href="#BitstreamVeraSans-Roman-36"/>
       <use x="147.412109375" xlink:href="#BitstreamVeraSans-Roman-30"/>
      </g>
     </g>
    </g>
    <g id="ytick_4">
     <g id="line2d_9">
      <g>
       <use style="stroke:#000000;stroke-width:0.5;" x="315.490909091" xlink:href="#m728421d6d4" y="86.7630252101"/>
      </g>
     </g>
     <g id="line2d_10">
      <g>
       <use style="stroke:#000000;stroke-width:0.5;" x="518.4" xlink:href="#mcb0005524f" y="86.7630252101"/>
      </g>
     </g>
     <g id="text_5">
      <!-- 0 -->
      <g transform="translate(305.444034091 90.0742752101)scale(0.12 -0.12)">
       <use xlink:href="#BitstreamVeraSans-Roman-30"/>
      </g>
     </g>
    </g>
   </g>
   <g id="text_6">
    <!-- axon -->
    <defs>
     <path d="
M22.2188 27.9844
L2.48438 54.6875
L21 54.6875
L32.1719 38.4844
L43.5 54.6875
L62.0156 54.6875
L42.2812 28.0781
L62.9844 0
L44.4844 0
L32.1719 17.2812
L20.0156 0
L1.51562 0
z
" id="BitstreamVeraSans-Bold-78"/>
     <path d="
M63.375 33.2969
L63.375 0
L45.7969 0
L45.7969 5.42188
L45.7969 25.4844
Q45.7969 32.5625 45.4844 35.25
Q45.1719 37.9375 44.3906 39.2031
Q43.3594 40.9219 41.5938 41.875
Q39.8438 42.8281 37.5938 42.8281
Q32.125 42.8281 29 38.5938
Q25.875 34.375 25.875 26.9062
L25.875 0
L8.40625 0
L8.40625 54.6875
L25.875 54.6875
L25.875 46.6875
Q29.8281 51.4688 34.2656 53.7344
Q38.7188 56 44.0938 56
Q53.5625 56 58.4688 50.1875
Q63.375 44.3906 63.375 33.2969" id="BitstreamVeraSans-Bold-6e"/>
    </defs>
    <g transform="translate(398.242329545 38.2)scale(0.144 -0.144)">
     <use xlink:href="#BitstreamVeraSans-Bold-61"/>
     <use x="67.48046875" xlink:href="#BitstreamVeraSans-Bold-78"/>
     <use x="131.982421875" xlink:href="#BitstreamVeraSans-Bold-6f"/>
     <use x="200.68359375" xlink:href="#BitstreamVeraSans-Bold-6e"/>
    </g>
   </g>
  </g>
  <g id="axes_3">
   <g id="patch_12">
    <path d="
M72 266.824
L274.909 266.824
L274.909 165.176
L72 165.176
z
" style="fill:#ffffff;"/>
   </g>
   <g id="line2d_11">
    <path clip-path="url(#p68273c1835)" d="
M72.0406 243.594
L74.5161 242.291
L76.0988 241.223
L77.2351 240.201
L78.0467 239.18
L78.6148 238.112
L78.9801 236.955
L79.1424 235.93
L79.183 235.383
L79.3453 218.117
L79.5482 210.063
L79.6294 211.348
L80.0352 227.796
L80.3193 230.051
L80.4816 230.261
L80.6033 230.064
L80.8468 228.99
L81.2121 226.107
L81.2932 223.733
L81.4961 208.712
L81.5773 210.057
L82.2672 231.831
L82.5107 232.385
L82.673 232.355
L82.9165 231.953
L83.5658 230.141
L83.8093 229.351
L83.8499 229.035
L84.134 212.045
L84.2151 213.886
L84.4586 225.795
L84.7021 236.355
L84.9862 239.807
L85.3514 241.622
L85.7167 242.4
L86.2036 242.857
L86.8124 243.46
L87.3805 244.382
L88.1921 246.192
L91.9663 255.245
L92.8185 256.467
L93.5895 257.205
L94.3606 257.646
L95.1722 257.855
L96.065 257.857
L97.1201 257.635
L98.4593 257.112
L100.204 256.173
L102.842 254.473
L109.741 249.94
L112.988 248.129
L116.518 246.421
L125.325 242.307
L126.948 241.212
L128.084 240.186
L128.896 239.158
L129.464 238.077
L129.829 236.888
L129.991 235.769
L130.032 234.988
L130.357 210.141
L130.397 210.117
L130.478 211.972
L130.803 226.71
L131.087 229.78
L131.29 230.271
L131.412 230.131
L131.615 229.361
L131.98 226.778
L132.102 225.301
L132.345 208.726
L132.386 209.329
L132.67 219.885
L132.913 230.214
L133.157 232.045
L133.36 232.391
L133.522 232.34
L133.766 231.919
L134.537 229.765
L134.658 229.263
L134.699 228.81
L134.942 211.97
L135.024 213.097
L135.267 223.691
L135.511 235.794
L135.795 239.605
L136.16 241.537
L136.525 242.363
L136.971 242.806
L137.661 243.48
L138.23 244.412
L139.041 246.229
L142.775 255.204
L143.627 256.44
L144.398 257.189
L145.169 257.639
L145.981 257.855
L146.873 257.862
L147.929 257.645
L149.268 257.126
L151.013 256.19
L153.651 254.492
L160.59 249.93
L163.837 248.12
L167.367 246.413
L176.133 242.317
L177.756 241.225
L178.893 240.203
L179.704 239.183
L180.272 238.115
L180.638 236.959
L180.8 235.938
L180.84 235.395
L180.962 222.344
L181.165 210.293
L181.206 210.064
L181.206 210.064
L181.206 210.064
L181.287 211.333
L181.693 227.797
L181.977 230.057
L182.139 230.269
L182.261 230.073
L182.504 229
L182.87 226.122
L182.951 223.886
L183.154 208.722
L183.235 210.027
L183.925 231.824
L184.168 232.382
L184.33 232.354
L184.574 231.954
L185.223 230.144
L185.467 229.359
L185.507 229.053
L185.629 217.864
L185.791 212.041
L185.913 215.281
L186.157 228.639
L186.4 237.08
L186.684 240.085
L187.049 241.74
L187.415 242.451
L187.942 242.921
L188.51 243.513
L189.079 244.461
L189.931 246.393
L193.502 255.039
L194.354 256.325
L195.125 257.116
L195.896 257.599
L196.708 257.844
L197.601 257.874
L198.656 257.675
L199.954 257.19
L201.659 256.296
L204.175 254.694
L211.804 249.698
L215.051 247.917
L218.703 246.18
L226.536 242.556
L228.281 241.445
L229.498 240.418
L230.35 239.428
L230.959 238.401
L231.365 237.307
L231.608 235.992
L231.649 235.496
L231.73 228.063
L231.974 210.368
L232.014 210.064
L232.055 210.301
L232.136 213.076
L232.42 226.299
L232.704 229.674
L232.907 230.272
L233.029 230.182
L233.232 229.473
L233.556 227.32
L233.719 225.682
L233.759 224.517
L233.962 208.759
L234.003 208.919
L234.206 216.118
L234.733 231.797
L234.977 232.377
L235.139 232.358
L235.382 231.967
L235.991 230.269
L236.316 229.115
L236.356 227.745
L236.559 212.17
L236.6 212.003
L236.722 215.064
L236.965 228.244
L237.209 236.979
L237.493 240.045
L237.858 241.723
L238.223 242.443
L238.751 242.917
L239.319 243.506
L239.887 244.45
L240.699 246.279
L244.392 255.174
L245.244 256.42
L246.015 257.179
L246.786 257.635
L247.598 257.857
L248.49 257.869
L249.545 257.656
L250.844 257.158
L252.549 256.253
L255.105 254.617
L262.45 249.796
L265.697 248.002
L269.268 246.29
L274.869 243.81
L274.869 243.81" style="fill:none;stroke:#0000ff;stroke-linecap:square;"/>
   </g>
   <g id="patch_13">
    <path d="
M72 165.176
L274.909 165.176" style="fill:none;stroke:#000000;stroke-linecap:square;stroke-linejoin:miter;"/>
   </g>
   <g id="patch_14">
    <path d="
M274.909 266.824
L274.909 165.176" style="fill:none;stroke:#000000;stroke-linecap:square;stroke-linejoin:miter;"/>
   </g>
   <g id="patch_15">
    <path d="
M72 266.824
L274.909 266.824" style="fill:none;stroke:#000000;stroke-linecap:square;stroke-linejoin:miter;"/>
   </g>
   <g id="patch_16">
    <path d="
M72 266.824
L72 165.176" style="fill:none;stroke:#000000;stroke-linecap:square;stroke-linejoin:miter;"/>
   </g>
   <g id="matplotlib.axis_5"/>
   <g id="matplotlib.axis_6">
    <g id="ytick_5">
     <g id="line2d_12">
      <g>
       <use style="stroke:#000000;stroke-width:0.5;" x="72.0" xlink:href="#m728421d6d4" y="252.302521008"/>
      </g>
     </g>
     <g id="line2d_13">
      <g>
       <use style="stroke:#000000;stroke-width:0.5;" x="274.909090909" xlink:href="#mcb0005524f" y="252.302521008"/>
      </g>
     </g>
     <g id="text_7">
      <!-- −60 -->
      <g transform="translate(44.7425 255.613771008)scale(0.12 -0.12)">
       <use xlink:href="#BitstreamVeraSans-Roman-2212"/>
       <use x="83.7890625" xlink:href="#BitstreamVeraSans-Roman-36"/>
       <use x="147.412109375" xlink:href="#BitstreamVeraSans-Roman-30"/>
      </g>
     </g>
    </g>
    <g id="ytick_6">
     <g id="line2d_14">
      <g>
       <use style="stroke:#000000;stroke-width:0.5;" x="72.0" xlink:href="#m728421d6d4" y="208.739495798"/>
      </g>
     </g>
     <g id="line2d_15">
      <g>
       <use style="stroke:#000000;stroke-width:0.5;" x="274.909090909" xlink:href="#mcb0005524f" y="208.739495798"/>
      </g>
     </g>
     <g id="text_8">
      <!-- 0 -->
      <g transform="translate(61.953125 212.050745798)scale(0.12 -0.12)">
       <use xlink:href="#BitstreamVeraSans-Roman-30"/>
      </g>
     </g>
    </g>
   </g>
  </g>
  <g id="axes_4">
   <g id="patch_17">
    <path d="
M315.491 266.824
L518.4 266.824
L518.4 165.176
L315.491 165.176
z
" style="fill:#ffffff;"/>
   </g>
   <g id="line2d_16">
    <path clip-path="url(#pf4132cbc21)" d="
M315.531 243.748
L317.966 242.479
L319.509 241.442
L320.604 240.447
L321.375 239.449
L321.903 238.409
L322.268 237.188
L322.471 235.869
L322.593 234.015
L322.674 227.571
L322.755 174.225
L322.796 176.598
L323.12 228.318
L323.283 257.684
L323.364 258.351
L323.404 258.204
L323.607 256.004
L324.135 246.999
L324.703 235.132
L324.744 231.971
L324.825 173.319
L324.865 174.624
L325.028 190.435
L325.312 227.625
L325.474 262.052
L325.515 262.207
L325.555 262.083
L325.758 260.269
L326.205 253.778
L327.3 234.445
L327.341 230.616
L327.422 173.544
L327.463 175.139
L327.625 193.174
L327.909 245.219
L328.071 262.343
L328.112 262.389
L328.152 262.28
L328.355 260.947
L328.883 255.601
L329.613 248.788
L330.1 246.216
L330.466 245.257
L330.79 244.934
L331.074 244.959
L331.399 245.246
L331.886 246.025
L332.698 247.822
L335.538 254.431
L336.431 255.837
L337.243 256.717
L338.014 257.239
L338.825 257.52
L339.718 257.586
L340.733 257.431
L341.991 257.005
L343.614 256.205
L345.968 254.771
L354.855 249.129
L358.183 247.405
L362.282 245.552
L367.679 243.101
L369.627 241.96
L370.926 240.954
L371.818 240.003
L372.468 238.999
L372.914 237.909
L373.198 236.679
L373.361 235.243
L373.482 231.518
L373.563 174.566
L373.685 183.913
L374.172 258.33
L374.213 258.324
L374.335 257.364
L374.7 251.895
L375.511 236.153
L375.593 228.45
L375.633 173.077
L375.714 175.366
L375.917 197.629
L376.161 236.088
L376.323 262.159
L376.364 262.185
L376.526 260.987
L376.891 256.186
L378.109 235.489
L378.149 233.612
L378.19 224.754
L378.23 173.165
L378.312 176.024
L378.555 205.546
L378.717 230.271
L378.88 262.151
L378.92 262.388
L379.001 262.222
L379.245 260.477
L380.016 252.469
L380.584 247.903
L381.031 245.896
L381.396 245.118
L381.68 244.921
L381.964 244.992
L382.329 245.373
L382.857 246.296
L383.79 248.457
L386.103 253.921
L387.037 255.524
L387.848 256.509
L388.619 257.116
L389.431 257.468
L390.283 257.591
L391.257 257.502
L392.434 257.162
L393.936 256.483
L396.005 255.281
L400.104 252.575
L404.243 249.957
L407.53 248.143
L411.102 246.435
L419.543 242.529
L421.125 241.476
L422.221 240.493
L422.992 239.515
L423.52 238.512
L423.885 237.372
L424.128 235.876
L424.25 234.031
L424.331 227.728
L424.413 174.209
L424.453 176.549
L424.778 228.122
L424.94 257.683
L425.021 258.362
L425.062 258.218
L425.265 256.022
L425.792 247.022
L426.36 235.187
L426.401 232.138
L426.482 173.296
L426.523 174.57
L426.685 190.279
L426.969 227.098
L427.131 262.045
L427.172 262.212
L427.213 262.093
L427.416 260.287
L427.862 253.804
L428.958 234.518
L428.998 230.904
L429.079 173.509
L429.12 175.058
L429.282 192.966
L429.566 244.538
L429.729 262.342
L429.769 262.396
L429.81 262.29
L430.013 260.964
L430.54 255.623
L431.271 248.802
L431.758 246.225
L432.123 245.263
L432.448 244.938
L432.732 244.962
L433.056 245.247
L433.543 246.026
L434.355 247.822
L437.196 254.435
L438.089 255.842
L438.9 256.722
L439.671 257.245
L440.483 257.526
L441.376 257.591
L442.39 257.436
L443.648 257.009
L445.272 256.209
L447.625 254.773
L456.513 249.127
L459.84 247.402
L463.939 245.548
L469.296 243.114
L471.244 241.976
L472.543 240.975
L473.476 239.98
L474.125 238.963
L474.572 237.847
L474.856 236.557
L475.018 234.958
L475.099 232.819
L475.14 229.041
L475.221 174.085
L475.262 176.083
L475.546 218.286
L475.83 258.371
L475.911 257.976
L476.154 254.919
L476.885 241.85
L477.169 235.443
L477.209 232.844
L477.291 173.196
L477.372 176.561
L477.696 212.92
L477.778 224.842
L477.94 261.981
L477.981 262.214
L478.021 262.122
L478.224 260.355
L478.67 253.905
L479.766 234.79
L479.807 231.846
L479.888 173.381
L479.928 174.75
L480.091 192.125
L480.375 241.453
L480.537 262.314
L480.578 262.403
L480.618 262.314
L480.821 261.015
L481.349 255.69
L482.079 248.846
L482.566 246.249
L482.972 245.208
L483.297 244.929
L483.581 244.982
L483.946 245.346
L484.474 246.255
L485.407 248.407
L487.761 253.964
L488.694 255.558
L489.506 256.534
L490.277 257.133
L491.088 257.479
L491.941 257.597
L492.915 257.503
L494.091 257.159
L495.593 256.476
L497.663 255.271
L501.802 252.535
L505.901 249.944
L509.188 248.13
L512.759 246.422
L518.359 243.963
L518.359 243.963" style="fill:none;stroke:#0000ff;stroke-linecap:square;"/>
   </g>
   <g id="patch_18">
    <path d="
M315.491 165.176
L518.4 165.176" style="fill:none;stroke:#000000;stroke-linecap:square;stroke-linejoin:miter;"/>
   </g>
   <g id="patch_19">
    <path d="
M518.4 266.824
L518.4 165.176" style="fill:none;stroke:#000000;stroke-linecap:square;stroke-linejoin:miter;"/>
   </g>
   <g id="patch_20">
    <path d="
M315.491 266.824
L518.4 266.824" style="fill:none;stroke:#000000;stroke-linecap:square;stroke-linejoin:miter;"/>
   </g>
   <g id="patch_21">
    <path d="
M315.491 266.824
L315.491 165.176" style="fill:none;stroke:#000000;stroke-linecap:square;stroke-linejoin:miter;"/>
   </g>
   <g id="matplotlib.axis_7"/>
   <g id="matplotlib.axis_8">
    <g id="ytick_7">
     <g id="line2d_17">
      <g>
       <use style="stroke:#000000;stroke-width:0.5;" x="315.490909091" xlink:href="#m728421d6d4" y="252.302521008"/>
      </g>
     </g>
     <g id="line2d_18">
      <g>
       <use style="stroke:#000000;stroke-width:0.5;" x="518.4" xlink:href="#mcb0005524f" y="252.302521008"/>
      </g>
     </g>
     <g id="text_9">
      <!-- −60 -->
      <g transform="translate(288.233409091 255.613771008)scale(0.12 -0.12)">
       <use xlink:href="#BitstreamVeraSans-Roman-2212"/>
       <use x="83.7890625" xlink:href="#BitstreamVeraSans-Roman-36"/>
       <use x="147.412109375" xlink:href="#BitstreamVeraSans-Roman-30"/>
      </g>
     </g>
    </g>
    <g id="ytick_8">
     <g id="line2d_19">
      <g>
       <use style="stroke:#000000;stroke-width:0.5;" x="315.490909091" xlink:href="#m728421d6d4" y="208.739495798"/>
      </g>
     </g>
     <g id="line2d_20">
      <g>
       <use style="stroke:#000000;stroke-width:0.5;" x="518.4" xlink:href="#mcb0005524f" y="208.739495798"/>
      </g>
     </g>
     <g id="text_10">
      <!-- 0 -->
      <g transform="translate(305.444034091 212.050745798)scale(0.12 -0.12)">
       <use xlink:href="#BitstreamVeraSans-Roman-30"/>
      </g>
     </g>
    </g>
   </g>
  </g>
  <g id="axes_5">
   <g id="patch_22">
    <path d="
M72 388.8
L274.909 388.8
L274.909 287.153
L72 287.153
z
" style="fill:#ffffff;"/>
   </g>
   <g id="line2d_21">
    <path clip-path="url(#p5df05f4a8e)" d="
M72.0406 378.627
L74.232 377.27
L84.2963 370.732
L87.624 369.012
L92.1286 366.964
L96.3897 364.961
L98.3782 363.784
L99.7174 362.751
L100.691 361.73
L101.381 360.691
L101.828 359.655
L102.112 358.481
L102.233 357.122
L102.599 332.111
L102.68 333.862
L103.045 349.485
L103.329 352.06
L103.491 352.376
L103.532 352.363
L103.654 352.139
L103.897 351.027
L104.263 348.122
L104.344 345.801
L104.547 330.786
L104.628 332.148
L105.318 353.787
L105.561 354.326
L105.723 354.295
L105.967 353.898
L106.657 352.016
L106.9 351.092
L106.982 344.4
L107.184 334.135
L107.306 337.265
L107.55 350.45
L107.793 359.021
L108.077 362.034
L108.442 363.7
L108.808 364.425
L109.335 364.912
L109.903 365.516
L110.472 366.473
L111.324 368.419
L114.895 377.131
L115.747 378.418
L116.518 379.204
L117.289 379.68
L118.101 379.915
L118.994 379.935
L120.049 379.725
L121.347 379.226
L123.052 378.314
L125.568 376.689
L133.076 371.706
L136.322 369.898
L139.934 368.153
L147.685 364.507
L149.39 363.401
L150.607 362.353
L151.459 361.333
L152.068 360.252
L152.433 359.201
L152.636 358.097
L152.717 356.543
L153.001 332.533
L153.042 332.092
L153.082 332.202
L153.164 334.498
L153.488 349.004
L153.772 351.937
L153.975 352.376
L154.097 352.213
L154.3 351.415
L154.665 348.813
L154.787 347.366
L155.03 330.791
L155.071 331.361
L155.355 341.82
L155.599 352.172
L155.842 353.989
L156.045 354.332
L156.207 354.283
L156.451 353.87
L157.222 351.765
L157.384 350.946
L157.628 334.128
L157.709 335.037
L157.952 345.174
L158.196 357.647
L158.48 361.525
L158.845 363.482
L159.21 364.33
L159.657 364.79
L160.347 365.478
L160.915 366.417
L161.726 368.247
L165.501 377.364
L166.353 378.58
L167.124 379.308
L167.895 379.736
L168.706 379.932
L169.599 379.921
L170.695 379.671
L172.034 379.124
L173.82 378.136
L176.579 376.319
L182.951 372.067
L186.197 370.211
L189.647 368.501
L198.737 364.161
L200.279 363.076
L201.375 362.037
L202.146 361.002
L202.673 359.926
L202.998 358.793
L203.16 357.474
L203.242 349.816
L203.485 332.335
L203.526 332.069
L203.526 332.069
L203.526 332.069
L203.607 333.254
L204.053 350.399
L204.297 352.151
L204.459 352.372
L204.581 352.182
L204.824 351.119
L205.19 348.293
L205.271 347.037
L205.514 330.882
L205.636 334.64
L206.204 353.491
L206.448 354.277
L206.61 354.331
L206.813 354.095
L207.178 353.188
L207.827 351.222
L207.868 350.69
L208.111 334.084
L208.193 335.379
L208.436 346.187
L208.68 357.934
L208.964 361.625
L209.329 363.525
L209.694 364.348
L210.141 364.801
L210.83 365.495
L211.399 366.442
L212.21 368.278
L215.944 377.316
L216.796 378.547
L217.567 379.287
L218.338 379.725
L219.15 379.929
L220.042 379.924
L221.098 379.692
L222.437 379.157
L224.182 378.202
L226.82 376.478
L233.637 371.935
L236.884 370.097
L240.374 368.383
L249.018 364.277
L250.601 363.196
L251.737 362.157
L252.549 361.111
L253.076 360.099
L253.441 358.925
L253.604 357.853
L253.644 357.204
L254.009 332.097
L254.091 333.734
L254.456 349.439
L254.74 352.049
L254.943 352.365
L255.065 352.147
L255.308 351.044
L255.673 348.154
L255.754 346.157
L255.957 330.798
L255.998 331.056
L256.241 339.741
L256.728 353.774
L256.972 354.324
L257.134 354.297
L257.378 353.905
L258.068 352.024
L258.311 351.12
L258.352 349.901
L258.555 334.292
L258.595 334.117
L258.717 337.158
L258.96 350.254
L259.204 358.972
L259.488 362.014
L259.853 363.692
L260.218 364.421
L260.746 364.909
L261.314 365.512
L261.882 366.467
L262.735 368.412
L266.306 377.126
L267.158 378.414
L267.929 379.202
L268.7 379.679
L269.512 379.915
L270.405 379.935
L271.46 379.726
L272.758 379.227
L274.463 378.316
L274.909 378.046
L274.909 378.046" style="fill:none;stroke:#0000ff;stroke-linecap:square;"/>
   </g>
   <g id="patch_23">
    <path d="
M72 287.153
L274.909 287.153" style="fill:none;stroke:#000000;stroke-linecap:square;stroke-linejoin:miter;"/>
   </g>
   <g id="patch_24">
    <path d="
M274.909 388.8
L274.909 287.153" style="fill:none;stroke:#000000;stroke-linecap:square;stroke-linejoin:miter;"/>
   </g>
   <g id="patch_25">
    <path d="
M72 388.8
L274.909 388.8" style="fill:none;stroke:#000000;stroke-linecap:square;stroke-linejoin:miter;"/>
   </g>
   <g id="patch_26">
    <path d="
M72 388.8
L72 287.153" style="fill:none;stroke:#000000;stroke-linecap:square;stroke-linejoin:miter;"/>
   </g>
   <g id="matplotlib.axis_9">
    <g id="text_11">
     <!-- 1 s -->
     <defs>
      <path d="
M11.7188 12.9844
L28.3281 12.9844
L28.3281 60.1094
L11.2812 56.5938
L11.2812 69.3906
L28.2188 72.9062
L46.0938 72.9062
L46.0938 12.9844
L62.7031 12.9844
L62.7031 0
L11.7188 0
z
" id="BitstreamVeraSans-Bold-31"/>
      <path id="BitstreamVeraSans-Bold-20"/>
     </defs>
     <g transform="translate(163.904232955 402.918125)scale(0.12 -0.12)">
      <use xlink:href="#BitstreamVeraSans-Bold-31"/>
      <use x="69.580078125" xlink:href="#BitstreamVeraSans-Bold-20"/>
      <use x="104.39453125" xlink:href="#BitstreamVeraSans-Bold-73"/>
     </g>
    </g>
   </g>
   <g id="matplotlib.axis_10">
    <g id="ytick_9">
     <g id="line2d_22">
      <g>
       <use style="stroke:#000000;stroke-width:0.5;" x="72.0" xlink:href="#m728421d6d4" y="374.278991597"/>
      </g>
     </g>
     <g id="line2d_23">
      <g>
       <use style="stroke:#000000;stroke-width:0.5;" x="274.909090909" xlink:href="#mcb0005524f" y="374.278991597"/>
      </g>
     </g>
     <g id="text_12">
      <!-- −60 -->
      <g transform="translate(44.7425 377.590241597)scale(0.12 -0.12)">
       <use xlink:href="#BitstreamVeraSans-Roman-2212"/>
       <use x="83.7890625" xlink:href="#BitstreamVeraSans-Roman-36"/>
       <use x="147.412109375" xlink:href="#BitstreamVeraSans-Roman-30"/>
      </g>
     </g>
    </g>
    <g id="ytick_10">
     <g id="line2d_24">
      <g>
       <use style="stroke:#000000;stroke-width:0.5;" x="72.0" xlink:href="#m728421d6d4" y="330.715966387"/>
      </g>
     </g>
     <g id="line2d_25">
      <g>
       <use style="stroke:#000000;stroke-width:0.5;" x="274.909090909" xlink:href="#mcb0005524f" y="330.715966387"/>
      </g>
     </g>
     <g id="text_13">
      <!-- 0 -->
      <g transform="translate(61.953125 334.027216387)scale(0.12 -0.12)">
       <use xlink:href="#BitstreamVeraSans-Roman-30"/>
      </g>
     </g>
    </g>
   </g>
  </g>
  <g id="axes_6">
   <g id="patch_27">
    <path d="
M315.491 388.8
L518.4 388.8
L518.4 287.153
L315.491 287.153
z
" style="fill:#ffffff;"/>
   </g>
   <g id="line2d_26">
    <path clip-path="url(#p8ca55fdb04)" d="
M315.531 378.588
L317.561 377.408
L321.294 374.92
L325.718 372.06
L329.005 370.205
L332.495 368.498
L341.179 364.393
L342.681 363.35
L343.736 362.356
L344.466 361.375
L344.994 360.284
L345.319 359.145
L345.521 357.771
L345.643 355.712
L345.684 353.821
L345.724 343.842
L345.806 296.59
L345.846 299.654
L346.171 354.863
L346.333 380.094
L346.414 380.494
L346.455 380.295
L346.658 378.016
L347.226 368.247
L347.753 357.159
L347.794 354.049
L347.875 295.276
L347.916 296.561
L348.078 312.301
L348.362 349.371
L348.525 384.122
L348.565 384.269
L348.606 384.142
L348.809 382.334
L349.255 375.871
L350.351 356.731
L350.391 353.657
L350.472 295.377
L350.513 296.785
L350.675 314.267
L350.959 364.38
L351.122 384.388
L351.162 384.46
L351.203 384.361
L351.406 383.054
L351.933 377.738
L352.664 370.886
L353.151 368.28
L353.557 367.236
L353.881 366.956
L354.165 367.011
L354.531 367.378
L355.058 368.294
L355.992 370.461
L358.345 376.058
L359.279 377.654
L360.09 378.624
L360.861 379.216
L361.632 379.54
L362.485 379.658
L363.459 379.56
L364.635 379.21
L366.137 378.517
L368.207 377.297
L372.346 374.529
L376.445 371.907
L379.732 370.072
L383.303 368.344
L391.379 364.555
L392.962 363.5
L394.057 362.519
L394.828 361.548
L395.356 360.559
L395.721 359.447
L395.965 358.035
L396.086 356.426
L396.168 352.685
L396.249 296.003
L396.33 301.109
L396.857 380.517
L396.939 380.206
L397.182 377.244
L397.872 364.998
L398.237 356.519
L398.278 351.429
L398.318 295.111
L398.4 297.177
L398.562 313.933
L398.846 356.429
L399.008 384.213
L399.049 384.25
L399.211 383.068
L399.576 378.303
L400.794 357.746
L400.875 350.978
L400.916 295.355
L400.997 297.472
L401.2 321.528
L401.403 348.439
L401.565 384.131
L401.646 384.442
L401.687 384.312
L401.93 382.605
L402.62 375.439
L403.229 370.255
L403.675 368.092
L404.04 367.217
L404.365 366.953
L404.649 367.018
L405.014 367.395
L405.542 368.32
L406.475 370.492
L408.789 376.002
L409.722 377.613
L410.534 378.597
L411.305 379.199
L412.076 379.533
L412.928 379.657
L413.902 379.566
L415.079 379.221
L416.58 378.532
L418.65 377.315
L422.708 374.602
L426.847 371.948
L430.135 370.108
L433.665 368.393
L441.944 364.5
L443.527 363.427
L444.622 362.418
L445.353 361.465
L445.88 360.43
L446.246 359.218
L446.489 357.497
L446.611 354.75
L446.651 350.699
L446.733 296.065
L446.773 298.177
L447.057 340.426
L447.341 380.522
L447.422 380.106
L447.706 376.425
L448.518 361.73
L448.721 355.677
L448.802 295.053
L448.965 305.296
L449.289 344.221
L449.451 383.919
L449.492 384.259
L449.533 384.211
L449.695 382.941
L450.101 377.464
L451.278 357.339
L451.318 355.289
L451.399 295.149
L451.562 306.601
L451.886 354.945
L452.049 384.277
L452.089 384.46
L452.13 384.412
L452.292 383.493
L452.739 379.232
L453.631 370.711
L454.078 368.339
L454.484 367.261
L454.808 366.961
L455.092 367.002
L455.417 367.304
L455.904 368.102
L456.756 370.02
L459.475 376.418
L460.368 377.858
L461.18 378.76
L461.951 379.296
L462.762 379.586
L463.655 379.654
L464.67 379.5
L465.928 379.069
L467.551 378.26
L469.864 376.835
L478.914 371.022
L482.242 369.284
L486.422 367.376
L491.332 365.104
L493.28 363.951
L494.578 362.934
L495.471 361.969
L496.121 360.941
L496.567 359.805
L496.851 358.468
L497.013 356.725
L497.095 354.025
L497.135 345.963
L497.216 296.466
L497.257 299.351
L497.582 353.6
L497.744 380.044
L497.825 380.502
L497.866 380.314
L498.069 378.057
L498.637 368.301
L499.164 357.29
L499.205 354.433
L499.286 295.223
L499.327 296.433
L499.489 311.921
L499.773 348.132
L499.935 384.093
L499.976 384.271
L500.016 384.156
L500.219 382.367
L500.666 375.92
L501.761 356.855
L501.802 354.046
L501.883 295.321
L501.924 296.642
L502.086 313.859
L502.37 362.76
L502.533 384.372
L502.573 384.462
L502.614 384.372
L502.817 383.078
L503.344 377.77
L504.075 370.907
L504.562 368.291
L504.967 367.241
L505.292 366.957
L505.576 367.009
L505.901 367.32
L506.388 368.126
L507.24 370.052
L509.918 376.366
L510.811 377.82
L511.623 378.735
L512.394 379.282
L513.206 379.58
L514.058 379.657
L515.072 379.517
L516.29 379.115
L517.872 378.344
L518.4 378.044
L518.4 378.044" style="fill:none;stroke:#0000ff;stroke-linecap:square;"/>
   </g>
   <g id="patch_28">
    <path d="
M315.491 287.153
L518.4 287.153" style="fill:none;stroke:#000000;stroke-linecap:square;stroke-linejoin:miter;"/>
   </g>
   <g id="patch_29">
    <path d="
M518.4 388.8
L518.4 287.153" style="fill:none;stroke:#000000;stroke-linecap:square;stroke-linejoin:miter;"/>
   </g>
   <g id="patch_30">
    <path d="
M315.491 388.8
L518.4 388.8" style="fill:none;stroke:#000000;stroke-linecap:square;stroke-linejoin:miter;"/>
   </g>
   <g id="patch_31">
    <path d="
M315.491 388.8
L315.491 287.153" style="fill:none;stroke:#000000;stroke-linecap:square;stroke-linejoin:miter;"/>
   </g>
   <g id="matplotlib.axis_11">
    <g id="text_14">
     <!-- 1 s -->
     <g transform="translate(407.395142045 402.918125)scale(0.12 -0.12)">
      <use xlink:href="#BitstreamVeraSans-Bold-31"/>
      <use x="69.580078125" xlink:href="#BitstreamVeraSans-Bold-20"/>
      <use x="104.39453125" xlink:href="#BitstreamVeraSans-Bold-73"/>
     </g>
    </g>
   </g>
   <g id="matplotlib.axis_12">
    <g id="ytick_11">
     <g id="line2d_27">
      <g>
       <use style="stroke:#000000;stroke-width:0.5;" x="315.490909091" xlink:href="#m728421d6d4" y="374.278991597"/>
      </g>
     </g>
     <g id="line2d_28">
      <g>
       <use style="stroke:#000000;stroke-width:0.5;" x="518.4" xlink:href="#mcb0005524f" y="374.278991597"/>
      </g>
     </g>
     <g id="text_15">
      <!-- −60 -->
      <g transform="translate(288.233409091 377.590241597)scale(0.12 -0.12)">
       <use xlink:href="#BitstreamVeraSans-Roman-2212"/>
       <use x="83.7890625" xlink:href="#BitstreamVeraSans-Roman-36"/>
       <use x="147.412109375" xlink:href="#BitstreamVeraSans-Roman-30"/>
      </g>
     </g>
    </g>
    <g id="ytick_12">
     <g id="line2d_29">
      <g>
       <use style="stroke:#000000;stroke-width:0.5;" x="315.490909091" xlink:href="#m728421d6d4" y="330.715966387"/>
      </g>
     </g>
     <g id="line2d_30">
      <g>
       <use style="stroke:#000000;stroke-width:0.5;" x="518.4" xlink:href="#mcb0005524f" y="330.715966387"/>
      </g>
     </g>
     <g id="text_16">
      <!-- 0 -->
      <g transform="translate(305.444034091 334.027216387)scale(0.12 -0.12)">
       <use xlink:href="#BitstreamVeraSans-Roman-30"/>
      </g>
     </g>
    </g>
   </g>
  </g>
 </g>
 <defs>
  <clipPath id="pf4132cbc21">
   <rect height="101.647058824" width="202.909090909" x="315.490909091" y="165.176470588"/>
  </clipPath>
  <clipPath id="p5df05f4a8e">
   <rect height="101.647058824" width="202.909090909" x="72.0" y="287.152941176"/>
  </clipPath>
  <clipPath id="pdf2bc2c95a">
   <rect height="101.647058824" width="202.909090909" x="72.0" y="43.2"/>
  </clipPath>
  <clipPath id="pbd5a3a9a46">
   <rect height="101.647058824" width="202.909090909" x="315.490909091" y="43.2"/>
  </clipPath>
  <clipPath id="p68273c1835">
   <rect height="101.647058824" width="202.909090909" x="72.0" y="165.176470588"/>
  </clipPath>
  <clipPath id="p8ca55fdb04">
   <rect height="101.647058824" width="202.909090909" x="315.490909091" y="287.152941176"/>
  </clipPath>
 </defs>
</svg>
