<?xml version="1.0" encoding="utf-8" standalone="no"?>
<!DOCTYPE svg PUBLIC "-//W3C//DTD SVG 1.1//EN"
  "http://www.w3.org/Graphics/SVG/1.1/DTD/svg11.dtd">
<!-- Created with matplotlib (http://matplotlib.org/) -->
<svg height="432pt" version="1.1" viewBox="0 0 576 432" width="576pt" xmlns="http://www.w3.org/2000/svg" xmlns:xlink="http://www.w3.org/1999/xlink">
 <defs>
  <style type="text/css">
*{stroke-linecap:butt;stroke-linejoin:round;}
  </style>
 </defs>
 <g id="figure_1">
  <g id="patch_1">
   <path d="
M0 432
L576 432
L576 0
L0 0
z
" style="fill:#ffffff;"/>
  </g>
  <g id="axes_1">
   <g id="patch_2">
    <path d="
M72 144.847
L274.909 144.847
L274.909 43.2
L72 43.2
z
" style="fill:#ffffff;"/>
   </g>
   <g id="line2d_1">
    <path clip-path="url(#pdf2bc2c95a)" d="
M72 126.696
L76.7075 125.831
L82.2266 125.043
L88.598 124.364
L96.1462 123.79
L105.358 123.323
L117.168 122.958
L133.522 122.691
L159.9 122.508
L224.506 122.348
L274.869 122.257
L274.869 122.257" style="fill:none;stroke:#0000ff;stroke-linecap:square;"/>
   </g>
   <g id="patch_3">
    <path d="
M72 43.2
L274.909 43.2" style="fill:none;stroke:#000000;stroke-linecap:square;stroke-linejoin:miter;"/>
   </g>
   <g id="patch_4">
    <path d="
M274.909 144.847
L274.909 43.2" style="fill:none;stroke:#000000;stroke-linecap:square;stroke-linejoin:miter;"/>
   </g>
   <g id="patch_5">
    <path d="
M72 144.847
L274.909 144.847" style="fill:none;stroke:#000000;stroke-linecap:square;stroke-linejoin:miter;"/>
   </g>
   <g id="patch_6">
    <path d="
M72 144.847
L72 43.2" style="fill:none;stroke:#000000;stroke-linecap:square;stroke-linejoin:miter;"/>
   </g>
   <g id="matplotlib.axis_1"/>
   <g id="matplotlib.axis_2">
    <g id="ytick_1">
     <g id="line2d_2">
      <defs>
       <path d="
M0 0
L4 0" id="m728421d6d4" style="stroke:#000000;stroke-width:0.5;"/>
      </defs>
      <g>
       <use style="stroke:#000000;stroke-width:0.5;" x="72.0" xlink:href="#m728421d6d4" y="130.32605042"/>
      </g>
     </g>
     <g id="line2d_3">
      <defs>
       <path d="
M0 0
L-4 0" id="mcb0005524f" style="stroke:#000000;stroke-width:0.5;"/>
      </defs>
      <g>
       <use style="stroke:#000000;stroke-width:0.5;" x="274.909090909" xlink:href="#mcb0005524f" y="130.32605042"/>
      </g>
     </g>
     <g id="text_1">
      <!-- −60 -->
      <defs>
       <path d="
M10.5938 35.5
L73.1875 35.5
L73.1875 27.2031
L10.5938 27.2031
z
" id="BitstreamVeraSans-Roman-2212"/>
       <path d="
M31.7812 66.4062
Q24.1719 66.4062 20.3281 58.9062
Q16.5 51.4219 16.5 36.375
Q16.5 21.3906 20.3281 13.8906
Q24.1719 6.39062 31.7812 6.39062
Q39.4531 6.39062 43.2812 13.8906
Q47.125 21.3906 47.125 36.375
Q47.125 51.4219 43.2812 58.9062
Q39.4531 66.4062 31.7812 66.4062
M31.7812 74.2188
Q44.0469 74.2188 50.5156 64.5156
Q56.9844 54.8281 56.9844 36.375
Q56.9844 17.9688 50.5156 8.26562
Q44.0469 -1.42188 31.7812 -1.42188
Q19.5312 -1.42188 13.0625 8.26562
Q6.59375 17.9688 6.59375 36.375
Q6.59375 54.8281 13.0625 64.5156
Q19.5312 74.2188 31.7812 74.2188" id="BitstreamVeraSans-Roman-30"/>
       <path d="
M33.0156 40.375
Q26.375 40.375 22.4844 35.8281
Q18.6094 31.2969 18.6094 23.3906
Q18.6094 15.5312 22.4844 10.9531
Q26.375 6.39062 33.0156 6.39062
Q39.6562 6.39062 43.5312 10.9531
Q47.4062 15.5312 47.4062 23.3906
Q47.4062 31.2969 43.5312 35.8281
Q39.6562 40.375 33.0156 40.375
M52.5938 71.2969
L52.5938 62.3125
Q48.875 64.0625 45.0938 64.9844
Q41.3125 65.9219 37.5938 65.9219
Q27.8281 65.9219 22.6719 59.3281
Q17.5312 52.7344 16.7969 39.4062
Q19.6719 43.6562 24.0156 45.9219
Q28.375 48.1875 33.5938 48.1875
Q44.5781 48.1875 50.9531 41.5156
Q57.3281 34.8594 57.3281 23.3906
Q57.3281 12.1562 50.6875 5.35938
Q44.0469 -1.42188 33.0156 -1.42188
Q20.3594 -1.42188 13.6719 8.26562
Q6.98438 17.9688 6.98438 36.375
Q6.98438 53.6562 15.1875 63.9375
Q23.3906 74.2188 37.2031 74.2188
Q40.9219 74.2188 44.7031 73.4844
Q48.4844 72.75 52.5938 71.2969" id="BitstreamVeraSans-Roman-36"/>
      </defs>
      <g transform="translate(44.7425 133.63730042)scale(0.12 -0.12)">
       <use xlink:href="#BitstreamVeraSans-Roman-2212"/>
       <use x="83.7890625" xlink:href="#BitstreamVeraSans-Roman-36"/>
       <use x="147.412109375" xlink:href="#BitstreamVeraSans-Roman-30"/>
      </g>
     </g>
    </g>
    <g id="ytick_2">
     <g id="line2d_4">
      <g>
       <use style="stroke:#000000;stroke-width:0.5;" x="72.0" xlink:href="#m728421d6d4" y="86.7630252101"/>
      </g>
     </g>
     <g id="line2d_5">
      <g>
       <use style="stroke:#000000;stroke-width:0.5;" x="274.909090909" xlink:href="#mcb0005524f" y="86.7630252101"/>
      </g>
     </g>
     <g id="text_2">
      <!-- 0 -->
      <g transform="translate(61.953125 90.0742752101)scale(0.12 -0.12)">
       <use xlink:href="#BitstreamVeraSans-Roman-30"/>
      </g>
     </g>
    </g>
   </g>
   <g id="text_3">
    <!-- soma -->
    <defs>
     <path d="
M51.125 52.9844
L51.125 39.7031
Q45.5156 42.0469 40.2812 43.2188
Q35.0625 44.3906 30.4219 44.3906
Q25.4375 44.3906 23.0156 43.1406
Q20.6094 41.8906 20.6094 39.3125
Q20.6094 37.2031 22.4375 36.0781
Q24.2656 34.9688 29 34.4219
L32.0781 33.9844
Q45.5156 32.2812 50.1406 28.375
Q54.7812 24.4688 54.7812 16.1094
Q54.7812 7.375 48.3281 2.96875
Q41.8906 -1.42188 29.1094 -1.42188
Q23.6875 -1.42188 17.8906 -0.5625
Q12.1094 0.296875 6 2
L6 15.2812
Q11.2344 12.75 16.7188 11.4688
Q22.2188 10.2031 27.875 10.2031
Q33.0156 10.2031 35.5938 11.6094
Q38.1875 13.0312 38.1875 15.8281
Q38.1875 18.1719 36.4062 19.3125
Q34.625 20.4531 29.2969 21.0938
L26.2188 21.4844
Q14.5469 22.9531 9.85938 26.9062
Q5.17188 30.8594 5.17188 38.9219
Q5.17188 47.6094 11.125 51.7969
Q17.0938 56 29.3906 56
Q34.2344 56 39.5469 55.2656
Q44.875 54.5469 51.125 52.9844" id="BitstreamVeraSans-Bold-73"/>
     <path d="
M32.9062 24.6094
Q27.4375 24.6094 24.6719 22.75
Q21.9219 20.9062 21.9219 17.2812
Q21.9219 13.9688 24.1406 12.0781
Q26.375 10.2031 30.3281 10.2031
Q35.25 10.2031 38.625 13.7344
Q42 17.2812 42 22.6094
L42 24.6094
z

M59.625 31.2031
L59.625 0
L42 0
L42 8.10938
Q38.4844 3.125 34.0781 0.84375
Q29.6875 -1.42188 23.3906 -1.42188
Q14.8906 -1.42188 9.59375 3.53125
Q4.29688 8.5 4.29688 16.4062
Q4.29688 26.0312 10.9062 30.5156
Q17.5312 35.0156 31.6875 35.0156
L42 35.0156
L42 36.375
Q42 40.5312 38.7188 42.4531
Q35.4531 44.3906 28.5156 44.3906
Q22.9062 44.3906 18.0625 43.2656
Q13.2344 42.1406 9.07812 39.8906
L9.07812 53.2188
Q14.7031 54.5938 20.3594 55.2969
Q26.0312 56 31.6875 56
Q46.4844 56 53.0469 50.1719
Q59.625 44.3438 59.625 31.2031" id="BitstreamVeraSans-Bold-61"/>
     <path d="
M34.4219 43.5
Q28.6094 43.5 25.5625 39.3281
Q22.5156 35.1562 22.5156 27.2969
Q22.5156 19.4375 25.5625 15.25
Q28.6094 11.0781 34.4219 11.0781
Q40.1406 11.0781 43.1562 15.25
Q46.1875 19.4375 46.1875 27.2969
Q46.1875 35.1562 43.1562 39.3281
Q40.1406 43.5 34.4219 43.5
M34.4219 56
Q48.5312 56 56.4688 48.375
Q64.4062 40.7656 64.4062 27.2969
Q64.4062 13.8125 56.4688 6.1875
Q48.5312 -1.42188 34.4219 -1.42188
Q20.2656 -1.42188 12.2812 6.1875
Q4.29688 13.8125 4.29688 27.2969
Q4.29688 40.7656 12.2812 48.375
Q20.2656 56 34.4219 56" id="BitstreamVeraSans-Bold-6f"/>
     <path d="
M59.0781 45.6094
Q62.4062 50.6875 66.9688 53.3438
Q71.5312 56 77 56
Q86.4219 56 91.3594 50.1875
Q96.2969 44.3906 96.2969 33.2969
L96.2969 0
L78.7188 0
L78.7188 28.5156
Q78.7656 29.1562 78.7812 29.8281
Q78.8125 30.5156 78.8125 31.7812
Q78.8125 37.5938 77.0938 40.2031
Q75.3906 42.8281 71.5781 42.8281
Q66.6094 42.8281 63.8906 38.7188
Q61.1875 34.625 61.0781 26.8594
L61.0781 0
L43.5 0
L43.5 28.5156
Q43.5 37.5938 41.9375 40.2031
Q40.375 42.8281 36.375 42.8281
Q31.3438 42.8281 28.6094 38.7031
Q25.875 34.5781 25.875 26.9062
L25.875 0
L8.29688 0
L8.29688 54.6875
L25.875 54.6875
L25.875 46.6875
Q29.1094 51.3125 33.2812 53.6562
Q37.4531 56 42.4844 56
Q48.1406 56 52.4844 53.2656
Q56.8438 50.5312 59.0781 45.6094" id="BitstreamVeraSans-Bold-6d"/>
    </defs>
    <g transform="translate(152.799545455 38.2)scale(0.144 -0.144)">
     <use xlink:href="#BitstreamVeraSans-Bold-73"/>
     <use x="59.521484375" xlink:href="#BitstreamVeraSans-Bold-6f"/>
     <use x="128.22265625" xlink:href="#BitstreamVeraSans-Bold-6d"/>
     <use x="232.421875" xlink:href="#BitstreamVeraSans-Bold-61"/>
    </g>
   </g>
  </g>
  <g id="axes_2">
   <g id="patch_7">
    <path d="
M315.491 144.847
L518.4 144.847
L518.4 43.2
L315.491 43.2
z
" style="fill:#ffffff;"/>
   </g>
   <g id="line2d_6">
    <path clip-path="url(#pbd5a3a9a46)" d="
M315.491 126.696
L320.645 125.76
L326.245 124.98
L332.698 124.31
L340.327 123.749
L349.701 123.291
L361.795 122.934
L378.717 122.675
L406.516 122.499
L479.523 122.332
L518.359 122.263
L518.359 122.263" style="fill:none;stroke:#0000ff;stroke-linecap:square;"/>
   </g>
   <g id="patch_8">
    <path d="
M315.491 43.2
L518.4 43.2" style="fill:none;stroke:#000000;stroke-linecap:square;stroke-linejoin:miter;"/>
   </g>
   <g id="patch_9">
    <path d="
M518.4 144.847
L518.4 43.2" style="fill:none;stroke:#000000;stroke-linecap:square;stroke-linejoin:miter;"/>
   </g>
   <g id="patch_10">
    <path d="
M315.491 144.847
L518.4 144.847" style="fill:none;stroke:#000000;stroke-linecap:square;stroke-linejoin:miter;"/>
   </g>
   <g id="patch_11">
    <path d="
M315.491 144.847
L315.491 43.2" style="fill:none;stroke:#000000;stroke-linecap:square;stroke-linejoin:miter;"/>
   </g>
   <g id="matplotlib.axis_3"/>
   <g id="matplotlib.axis_4">
    <g id="ytick_3">
     <g id="line2d_7">
      <g>
       <use style="stroke:#000000;stroke-width:0.5;" x="315.490909091" xlink:href="#m728421d6d4" y="130.32605042"/>
      </g>
     </g>
     <g id="line2d_8">
      <g>
       <use style="stroke:#000000;stroke-width:0.5;" x="518.4" xlink:href="#mcb0005524f" y="130.32605042"/>
      </g>
     </g>
     <g id="text_4">
      <!-- −60 -->
      <g transform="translate(288.233409091 133.63730042)scale(0.12 -0.12)">
       <use xlink:href="#BitstreamVeraSans-Roman-2212"/>
       <use x="83.7890625" xlink:href="#BitstreamVeraSans-Roman-36"/>
       <use x="147.412109375" xlink:href="#BitstreamVeraSans-Roman-30"/>
      </g>
     </g>
    </g>
    <g id="ytick_4">
     <g id="line2d_9">
      <g>
       <use style="stroke:#000000;stroke-width:0.5;" x="315.490909091" xlink:href="#m728421d6d4" y="86.7630252101"/>
      </g>
     </g>
     <g id="line2d_10">
      <g>
       <use style="stroke:#000000;stroke-width:0.5;" x="518.4" xlink:href="#mcb0005524f" y="86.7630252101"/>
      </g>
     </g>
     <g id="text_5">
      <!-- 0 -->
      <g transform="translate(305.444034091 90.0742752101)scale(0.12 -0.12)">
       <use xlink:href="#BitstreamVeraSans-Roman-30"/>
      </g>
     </g>
    </g>
   </g>
   <g id="text_6">
    <!-- axon -->
    <defs>
     <path d="
M22.2188 27.9844
L2.48438 54.6875
L21 54.6875
L32.1719 38.4844
L43.5 54.6875
L62.0156 54.6875
L42.2812 28.0781
L62.9844 0
L44.4844 0
L32.1719 17.2812
L20.0156 0
L1.51562 0
z
" id="BitstreamVeraSans-Bold-78"/>
     <path d="
M63.375 33.2969
L63.375 0
L45.7969 0
L45.7969 5.42188
L45.7969 25.4844
Q45.7969 32.5625 45.4844 35.25
Q45.1719 37.9375 44.3906 39.2031
Q43.3594 40.9219 41.5938 41.875
Q39.8438 42.8281 37.5938 42.8281
Q32.125 42.8281 29 38.5938
Q25.875 34.375 25.875 26.9062
L25.875 0
L8.40625 0
L8.40625 54.6875
L25.875 54.6875
L25.875 46.6875
Q29.8281 51.4688 34.2656 53.7344
Q38.7188 56 44.0938 56
Q53.5625 56 58.4688 50.1875
Q63.375 44.3906 63.375 33.2969" id="BitstreamVeraSans-Bold-6e"/>
    </defs>
    <g transform="translate(398.242329545 38.2)scale(0.144 -0.144)">
     <use xlink:href="#BitstreamVeraSans-Bold-61"/>
     <use x="67.48046875" xlink:href="#BitstreamVeraSans-Bold-78"/>
     <use x="131.982421875" xlink:href="#BitstreamVeraSans-Bold-6f"/>
     <use x="200.68359375" xlink:href="#BitstreamVeraSans-Bold-6e"/>
    </g>
   </g>
  </g>
  <g id="axes_3">
   <g id="patch_12">
    <path d="
M72 266.824
L274.909 266.824
L274.909 165.176
L72 165.176
z
" style="fill:#ffffff;"/>
   </g>
   <g id="line2d_11">
    <path clip-path="url(#p68273c1835)" d="
M72.0406 243.078
L74.1103 241.901
L75.5306 240.844
L76.5452 239.814
L77.2351 238.816
L77.722 237.736
L78.0061 236.639
L78.1279 235.65
L78.1684 234.469
L78.4525 210.47
L78.4931 210.013
L78.5337 210.1
L78.6148 212.363
L78.9395 226.702
L79.2236 229.581
L79.4265 230
L79.5482 229.829
L79.7511 229.015
L80.1164 226.362
L80.2381 224.133
L80.441 208.806
L80.4816 209.056
L80.7251 217.667
L81.2527 231.884
L81.4961 232.299
L81.6585 232.225
L81.902 231.794
L82.7136 229.598
L82.7948 229.171
L82.8353 228.014
L83.0383 212.36
L83.0788 212.167
L83.2006 215.167
L83.4441 228.25
L83.6876 237.046
L83.9716 240.118
L84.3369 241.81
L84.7021 242.551
L85.2297 243.054
L85.8384 243.725
L86.4471 244.793
L87.3399 246.888
L90.5865 254.925
L91.4387 256.31
L92.2097 257.177
L92.9808 257.72
L93.7519 258.002
L94.6041 258.08
L95.6186 257.94
L96.8361 257.536
L98.4188 256.76
L100.651 255.392
L110.472 249.085
L113.759 247.4
L117.857 245.569
L123.539 243.024
L125.568 241.858
L126.948 240.822
L127.922 239.833
L128.612 238.842
L129.099 237.778
L129.383 236.717
L129.504 235.83
L129.545 235.149
L129.91 210.008
L129.991 211.641
L130.357 227.148
L130.641 229.697
L130.803 230.005
L130.925 229.866
L131.128 229.095
L131.452 226.863
L131.615 224.941
L131.858 208.868
L131.98 212.522
L132.548 231.418
L132.792 232.228
L132.954 232.294
L133.157 232.073
L133.522 231.191
L134.171 229.286
L134.212 228.814
L134.455 212.146
L134.537 213.345
L134.78 223.998
L135.024 235.949
L135.308 239.708
L135.673 241.634
L136.038 242.473
L136.525 242.974
L137.174 243.648
L137.743 244.601
L138.554 246.441
L142.247 255.415
L143.099 256.657
L143.87 257.404
L144.641 257.848
L145.453 258.058
L146.346 258.059
L147.401 257.836
L148.74 257.311
L150.485 256.372
L153.123 254.672
L160.022 250.14
L163.269 248.333
L166.759 246.653
L176.458 242.17
L178 241.099
L179.095 240.073
L179.866 239.055
L180.394 238.008
L180.719 236.939
L180.881 235.883
L180.922 235.274
L181.287 209.993
L181.327 210.371
L181.409 213.708
L181.693 226.35
L181.977 229.493
L182.18 230.008
L182.301 229.88
L182.504 229.123
L182.829 226.907
L182.991 225.069
L183.235 208.831
L183.357 212.32
L183.925 231.386
L184.168 232.221
L184.33 232.295
L184.533 232.08
L184.899 231.205
L185.548 229.319
L185.589 228.921
L185.832 212.166
L185.873 212.37
L186.035 217.498
L186.238 229.582
L186.481 237.389
L186.806 240.508
L187.171 241.98
L187.536 242.627
L189.119 244.592
L189.931 246.43
L193.664 255.479
L194.517 256.701
L195.288 257.433
L196.059 257.865
L196.87 258.064
L197.804 258.052
L198.899 257.801
L200.279 257.238
L202.105 256.23
L204.946 254.373
L211.033 250.362
L214.28 248.524
L217.689 246.856
L223.005 244.55
L226.495 242.921
L228.443 241.779
L229.782 240.753
L230.756 239.735
L231.446 238.697
L231.892 237.661
L232.176 236.488
L232.298 235.154
L232.663 210.009
L232.745 211.641
L233.11 227.153
L233.394 229.703
L233.556 230.011
L233.678 229.873
L233.881 229.102
L234.206 226.871
L234.368 224.961
L234.611 208.867
L234.733 212.501
L235.301 231.414
L235.545 232.226
L235.707 232.293
L235.91 232.072
L236.275 231.192
L236.925 229.293
L236.965 228.837
L237.209 212.155
L237.29 213.327
L237.533 223.929
L237.777 235.931
L238.061 239.701
L238.426 241.63
L238.791 242.472
L239.278 242.974
L239.928 243.648
L240.496 244.601
L241.307 246.442
L245 255.42
L245.853 256.662
L246.624 257.409
L247.395 257.853
L248.206 258.062
L249.099 258.063
L250.154 257.839
L251.493 257.314
L253.238 256.374
L255.876 254.673
L262.735 250.163
L265.981 248.351
L269.431 246.686
L274.869 244.333
L274.869 244.333" style="fill:none;stroke:#0000ff;stroke-linecap:square;"/>
   </g>
   <g id="patch_13">
    <path d="
M72 165.176
L274.909 165.176" style="fill:none;stroke:#000000;stroke-linecap:square;stroke-linejoin:miter;"/>
   </g>
   <g id="patch_14">
    <path d="
M274.909 266.824
L274.909 165.176" style="fill:none;stroke:#000000;stroke-linecap:square;stroke-linejoin:miter;"/>
   </g>
   <g id="patch_15">
    <path d="
M72 266.824
L274.909 266.824" style="fill:none;stroke:#000000;stroke-linecap:square;stroke-linejoin:miter;"/>
   </g>
   <g id="patch_16">
    <path d="
M72 266.824
L72 165.176" style="fill:none;stroke:#000000;stroke-linecap:square;stroke-linejoin:miter;"/>
   </g>
   <g id="matplotlib.axis_5"/>
   <g id="matplotlib.axis_6">
    <g id="ytick_5">
     <g id="line2d_12">
      <g>
       <use style="stroke:#000000;stroke-width:0.5;" x="72.0" xlink:href="#m728421d6d4" y="252.302521008"/>
      </g>
     </g>
     <g id="line2d_13">
      <g>
       <use style="stroke:#000000;stroke-width:0.5;" x="274.909090909" xlink:href="#mcb0005524f" y="252.302521008"/>
      </g>
     </g>
     <g id="text_7">
      <!-- −60 -->
      <g transform="translate(44.7425 255.613771008)scale(0.12 -0.12)">
       <use xlink:href="#BitstreamVeraSans-Roman-2212"/>
       <use x="83.7890625" xlink:href="#BitstreamVeraSans-Roman-36"/>
       <use x="147.412109375" xlink:href="#BitstreamVeraSans-Roman-30"/>
      </g>
     </g>
    </g>
    <g id="ytick_6">
     <g id="line2d_14">
      <g>
       <use style="stroke:#000000;stroke-width:0.5;" x="72.0" xlink:href="#m728421d6d4" y="208.739495798"/>
      </g>
     </g>
     <g id="line2d_15">
      <g>
       <use style="stroke:#000000;stroke-width:0.5;" x="274.909090909" xlink:href="#mcb0005524f" y="208.739495798"/>
      </g>
     </g>
     <g id="text_8">
      <!-- 0 -->
      <g transform="translate(61.953125 212.050745798)scale(0.12 -0.12)">
       <use xlink:href="#BitstreamVeraSans-Roman-30"/>
      </g>
     </g>
    </g>
   </g>
  </g>
  <g id="axes_4">
   <g id="patch_17">
    <path d="
M315.491 266.824
L518.4 266.824
L518.4 165.176
L315.491 165.176
z
" style="fill:#ffffff;"/>
   </g>
   <g id="line2d_16">
    <path clip-path="url(#pf4132cbc21)" d="
M315.531 243.245
L317.561 242.099
L318.9 241.105
L319.874 240.11
L320.523 239.151
L321.01 238.024
L321.335 236.637
L321.497 235.126
L321.578 233.258
L321.619 230.574
L321.7 174.032
L321.781 179.27
L322.309 258.42
L322.39 258.095
L322.633 255.077
L323.323 242.662
L323.648 235.398
L323.688 232.672
L323.77 173.221
L323.851 176.671
L324.175 212.974
L324.257 225.063
L324.419 262.054
L324.459 262.268
L324.5 262.167
L324.703 260.39
L325.149 253.935
L326.245 234.888
L326.286 232.128
L326.367 173.339
L326.407 174.646
L326.57 191.838
L326.854 240.496
L327.016 262.355
L327.057 262.453
L327.097 262.368
L327.3 261.083
L327.828 255.793
L328.558 248.984
L329.045 246.404
L329.41 245.441
L329.735 245.118
L330.019 245.143
L330.344 245.432
L330.831 246.216
L331.642 248.028
L334.483 254.696
L335.376 256.096
L336.188 256.963
L336.959 257.47
L337.77 257.737
L338.663 257.788
L339.718 257.612
L341.017 257.151
L342.681 256.31
L345.116 254.806
L353.273 249.602
L356.56 247.868
L360.293 246.161
L367.598 242.895
L369.384 241.809
L370.601 240.825
L371.453 239.868
L372.062 238.866
L372.468 237.81
L372.752 236.465
L372.914 234.7
L372.995 231.902
L373.036 222.687
L373.117 174.577
L373.158 177.578
L373.482 232.387
L373.645 257.98
L373.726 258.403
L373.766 258.205
L373.969 255.897
L374.537 245.994
L375.065 233.992
L375.106 224.794
L375.146 173.052
L375.227 175.704
L375.43 198.275
L375.674 239.299
L375.836 262.244
L375.877 262.228
L376.039 260.986
L376.445 255.517
L377.622 235.443
L377.662 233.506
L377.703 223.199
L377.743 173.162
L377.825 176.138
L378.068 205.747
L378.23 231.412
L378.393 262.235
L378.433 262.448
L378.474 262.415
L378.636 261.514
L379.083 257.275
L379.975 248.808
L380.422 246.461
L380.828 245.401
L381.152 245.111
L381.436 245.158
L381.761 245.465
L382.248 246.268
L383.1 248.193
L385.779 254.521
L386.671 255.972
L387.483 256.882
L388.254 257.425
L389.066 257.72
L389.959 257.795
L390.973 257.648
L392.231 257.227
L393.854 256.432
L396.168 255.028
L405.298 249.246
L408.586 247.559
L412.563 245.783
L418.569 243.112
L420.517 241.98
L421.815 240.98
L422.749 239.982
L423.398 238.959
L423.844 237.827
L424.128 236.499
L424.291 234.786
L424.372 232.22
L424.413 225.551
L424.494 174.385
L424.534 177.093
L424.859 230.366
L425.021 257.898
L425.102 258.419
L425.143 258.24
L425.346 255.969
L425.914 246.089
L426.442 234.328
L426.482 228.039
L426.523 173.053
L426.604 175.409
L426.807 197.638
L427.05 236.078
L427.213 262.227
L427.253 262.245
L427.416 261.039
L427.781 256.241
L428.998 235.613
L429.039 233.853
L429.079 227.079
L429.12 173.191
L429.201 175.793
L429.404 200.189
L429.607 228.624
L429.769 262.179
L429.81 262.441
L429.891 262.291
L430.135 260.57
L430.865 253.015
L431.474 248.062
L431.92 246.065
L432.285 245.296
L432.569 245.104
L432.854 245.182
L433.219 245.569
L433.746 246.503
L434.68 248.686
L436.993 254.2
L437.926 255.798
L438.738 256.767
L439.509 257.357
L440.28 257.681
L441.132 257.799
L442.106 257.704
L443.283 257.36
L444.785 256.676
L446.854 255.472
L451.034 252.712
L455.133 250.127
L458.42 248.321
L461.951 246.645
L471.163 242.438
L472.705 241.389
L473.76 240.412
L474.49 239.454
L475.018 238.405
L475.383 237.162
L475.586 235.793
L475.708 233.756
L475.749 231.912
L475.789 222.77
L475.87 174.571
L475.911 177.565
L476.235 232.34
L476.398 257.989
L476.479 258.412
L476.52 258.214
L476.722 255.907
L477.291 246.007
L477.818 234.04
L477.859 225.367
L477.899 173.048
L477.981 175.663
L478.183 198.188
L478.427 238.884
L478.589 262.246
L478.63 262.234
L478.792 260.997
L479.198 255.532
L480.375 235.476
L480.415 233.574
L480.456 224.125
L480.497 173.16
L480.578 176.073
L480.821 205.639
L480.984 230.876
L481.146 262.23
L481.186 262.451
L481.227 262.421
L481.389 261.525
L481.836 257.289
L482.729 248.818
L483.175 246.468
L483.581 245.405
L483.905 245.114
L484.19 245.161
L484.514 245.467
L485.001 246.269
L485.853 248.194
L488.532 254.525
L489.425 255.976
L490.236 256.887
L491.007 257.429
L491.819 257.724
L492.712 257.799
L493.726 257.652
L494.984 257.231
L496.608 256.435
L498.921 255.029
L508.052 249.244
L511.339 247.556
L515.316 245.779
L518.359 244.486
L518.359 244.486" style="fill:none;stroke:#0000ff;stroke-linecap:square;"/>
   </g>
   <g id="patch_18">
    <path d="
M315.491 165.176
L518.4 165.176" style="fill:none;stroke:#000000;stroke-linecap:square;stroke-linejoin:miter;"/>
   </g>
   <g id="patch_19">
    <path d="
M518.4 266.824
L518.4 165.176" style="fill:none;stroke:#000000;stroke-linecap:square;stroke-linejoin:miter;"/>
   </g>
   <g id="patch_20">
    <path d="
M315.491 266.824
L518.4 266.824" style="fill:none;stroke:#000000;stroke-linecap:square;stroke-linejoin:miter;"/>
   </g>
   <g id="patch_21">
    <path d="
M315.491 266.824
L315.491 165.176" style="fill:none;stroke:#000000;stroke-linecap:square;stroke-linejoin:miter;"/>
   </g>
   <g id="matplotlib.axis_7"/>
   <g id="matplotlib.axis_8">
    <g id="ytick_7">
     <g id="line2d_17">
      <g>
       <use style="stroke:#000000;stroke-width:0.5;" x="315.490909091" xlink:href="#m728421d6d4" y="252.302521008"/>
      </g>
     </g>
     <g id="line2d_18">
      <g>
       <use style="stroke:#000000;stroke-width:0.5;" x="518.4" xlink:href="#mcb0005524f" y="252.302521008"/>
      </g>
     </g>
     <g id="text_9">
      <!-- −60 -->
      <g transform="translate(288.233409091 255.613771008)scale(0.12 -0.12)">
       <use xlink:href="#BitstreamVeraSans-Roman-2212"/>
       <use x="83.7890625" xlink:href="#BitstreamVeraSans-Roman-36"/>
       <use x="147.412109375" xlink:href="#BitstreamVeraSans-Roman-30"/>
      </g>
     </g>
    </g>
    <g id="ytick_8">
     <g id="line2d_19">
      <g>
       <use style="stroke:#000000;stroke-width:0.5;" x="315.490909091" xlink:href="#m728421d6d4" y="208.739495798"/>
      </g>
     </g>
     <g id="line2d_20">
      <g>
       <use style="stroke:#000000;stroke-width:0.5;" x="518.4" xlink:href="#mcb0005524f" y="208.739495798"/>
      </g>
     </g>
     <g id="text_10">
      <!-- 0 -->
      <g transform="translate(305.444034091 212.050745798)scale(0.12 -0.12)">
       <use xlink:href="#BitstreamVeraSans-Roman-30"/>
      </g>
     </g>
    </g>
   </g>
  </g>
  <g id="axes_5">
   <g id="patch_22">
    <path d="
M72 388.8
L274.909 388.8
L274.909 287.153
L72 287.153
z
" style="fill:#ffffff;"/>
   </g>
   <g id="line2d_21">
    <path clip-path="url(#p5df05f4a8e)" d="
M72.0406 370.242
L75.5306 368.548
L84.7833 364.227
L86.3254 363.168
L87.4211 362.164
L88.2327 361.12
L88.7603 360.108
L89.1255 358.939
L89.2879 357.879
L89.3284 357.263
L89.6937 332.002
L89.7343 332.407
L89.856 338.69
L90.0995 348.473
L90.3836 351.591
L90.5865 352.097
L90.7082 351.965
L90.9111 351.205
L91.2764 348.642
L91.3981 347.26
L91.6416 330.853
L91.7228 332.514
L92.3721 353.538
L92.6156 354.206
L92.7779 354.227
L92.9808 353.973
L93.3866 352.964
L93.9953 351.1
L94.0765 344.106
L94.2794 334.33
L94.4012 337.552
L94.6447 350.799
L94.8881 359.175
L95.1722 362.142
L95.5375 363.803
L95.9027 364.54
L96.4708 365.089
L97.039 365.741
L97.6477 366.825
L98.5405 368.94
L101.746 376.95
L102.599 378.353
L103.37 379.23
L104.141 379.777
L104.912 380.06
L105.764 380.136
L106.779 379.991
L107.996 379.58
L109.579 378.793
L111.811 377.409
L121.591 371.053
L124.878 369.347
L128.977 367.491
L134.415 365.02
L136.444 363.843
L137.824 362.796
L138.798 361.792
L139.488 360.781
L139.975 359.677
L140.259 358.521
L140.38 357.285
L140.746 331.999
L140.786 332.392
L140.908 338.627
L141.151 348.455
L141.435 351.586
L141.638 352.097
L141.76 351.967
L141.963 351.209
L142.328 348.65
L142.45 347.276
L142.694 330.851
L142.775 332.483
L143.424 353.533
L143.667 354.205
L143.83 354.228
L144.033 353.975
L144.439 352.967
L145.047 351.109
L145.128 344.211
L145.331 334.322
L145.453 337.518
L145.697 350.738
L145.94 359.159
L146.224 362.136
L146.589 363.801
L146.955 364.538
L147.523 365.088
L148.091 365.74
L148.7 366.823
L149.592 368.938
L152.798 376.948
L153.651 378.352
L154.422 379.229
L155.193 379.777
L155.964 380.059
L156.816 380.136
L157.831 379.991
L159.048 379.58
L160.631 378.794
L162.863 377.41
L172.643 371.053
L175.93 369.347
L180.029 367.492
L185.507 364.999
L187.496 363.843
L188.876 362.797
L189.85 361.793
L190.539 360.782
L191.026 359.679
L191.311 358.526
L191.432 357.303
L191.798 331.997
L191.838 332.378
L191.919 335.713
L192.203 348.439
L192.487 351.582
L192.69 352.097
L192.812 351.969
L193.015 351.214
L193.38 348.657
L193.502 347.29
L193.745 330.85
L193.827 332.456
L194.476 353.529
L194.719 354.204
L194.882 354.228
L195.085 353.976
L195.49 352.969
L196.099 351.117
L196.18 344.302
L196.383 334.316
L196.505 337.489
L196.749 350.685
L196.992 359.146
L197.276 362.131
L197.641 363.798
L198.007 364.537
L198.575 365.087
L199.143 365.738
L199.752 366.822
L200.644 368.935
L203.891 377.024
L204.743 378.406
L205.514 379.265
L206.285 379.797
L207.056 380.068
L207.909 380.135
L208.923 379.981
L210.141 379.564
L211.723 378.771
L213.955 377.383
L223.614 371.099
L226.901 369.387
L230.918 367.562
L236.6 364.978
L238.588 363.817
L239.968 362.761
L240.942 361.744
L241.632 360.71
L242.078 359.681
L242.362 358.53
L242.484 357.318
L242.849 331.995
L242.89 332.367
L242.971 335.667
L243.255 348.426
L243.539 351.579
L243.742 352.097
L243.864 351.971
L244.067 351.217
L244.432 348.664
L244.554 347.302
L244.797 330.85
L244.879 332.433
L245.528 353.525
L245.771 354.204
L245.934 354.229
L246.137 353.977
L246.542 352.971
L247.151 351.124
L247.232 344.38
L247.435 334.311
L247.557 337.464
L247.8 350.64
L248.044 359.135
L248.328 362.126
L248.693 363.796
L249.058 364.536
L249.627 365.087
L250.195 365.737
L250.803 366.82
L251.696 368.934
L254.943 377.022
L255.795 378.405
L256.566 379.264
L257.337 379.797
L258.108 380.068
L258.96 380.135
L259.975 379.982
L261.192 379.564
L262.775 378.772
L265.007 377.384
L274.666 371.099
L274.909 370.964
L274.909 370.964" style="fill:none;stroke:#0000ff;stroke-linecap:square;"/>
   </g>
   <g id="patch_23">
    <path d="
M72 287.153
L274.909 287.153" style="fill:none;stroke:#000000;stroke-linecap:square;stroke-linejoin:miter;"/>
   </g>
   <g id="patch_24">
    <path d="
M274.909 388.8
L274.909 287.153" style="fill:none;stroke:#000000;stroke-linecap:square;stroke-linejoin:miter;"/>
   </g>
   <g id="patch_25">
    <path d="
M72 388.8
L274.909 388.8" style="fill:none;stroke:#000000;stroke-linecap:square;stroke-linejoin:miter;"/>
   </g>
   <g id="patch_26">
    <path d="
M72 388.8
L72 287.153" style="fill:none;stroke:#000000;stroke-linecap:square;stroke-linejoin:miter;"/>
   </g>
   <g id="matplotlib.axis_9">
    <g id="text_11">
     <!-- 1 s -->
     <defs>
      <path d="
M11.7188 12.9844
L28.3281 12.9844
L28.3281 60.1094
L11.2812 56.5938
L11.2812 69.3906
L28.2188 72.9062
L46.0938 72.9062
L46.0938 12.9844
L62.7031 12.9844
L62.7031 0
L11.7188 0
z
" id="BitstreamVeraSans-Bold-31"/>
      <path id="BitstreamVeraSans-Bold-20"/>
     </defs>
     <g transform="translate(163.904232955 402.918125)scale(0.12 -0.12)">
      <use xlink:href="#BitstreamVeraSans-Bold-31"/>
      <use x="69.580078125" xlink:href="#BitstreamVeraSans-Bold-20"/>
      <use x="104.39453125" xlink:href="#BitstreamVeraSans-Bold-73"/>
     </g>
    </g>
   </g>
   <g id="matplotlib.axis_10">
    <g id="ytick_9">
     <g id="line2d_22">
      <g>
       <use style="stroke:#000000;stroke-width:0.5;" x="72.0" xlink:href="#m728421d6d4" y="374.278991597"/>
      </g>
     </g>
     <g id="line2d_23">
      <g>
       <use style="stroke:#000000;stroke-width:0.5;" x="274.909090909" xlink:href="#mcb0005524f" y="374.278991597"/>
      </g>
     </g>
     <g id="text_12">
      <!-- −60 -->
      <g transform="translate(44.7425 377.590241597)scale(0.12 -0.12)">
       <use xlink:href="#BitstreamVeraSans-Roman-2212"/>
       <use x="83.7890625" xlink:href="#BitstreamVeraSans-Roman-36"/>
       <use x="147.412109375" xlink:href="#BitstreamVeraSans-Roman-30"/>
      </g>
     </g>
    </g>
    <g id="ytick_10">
     <g id="line2d_24">
      <g>
       <use style="stroke:#000000;stroke-width:0.5;" x="72.0" xlink:href="#m728421d6d4" y="330.715966387"/>
      </g>
     </g>
     <g id="line2d_25">
      <g>
       <use style="stroke:#000000;stroke-width:0.5;" x="274.909090909" xlink:href="#mcb0005524f" y="330.715966387"/>
      </g>
     </g>
     <g id="text_13">
      <!-- 0 -->
      <g transform="translate(61.953125 334.027216387)scale(0.12 -0.12)">
       <use xlink:href="#BitstreamVeraSans-Roman-30"/>
      </g>
     </g>
    </g>
   </g>
  </g>
  <g id="axes_6">
   <g id="patch_27">
    <path d="
M315.491 388.8
L518.4 388.8
L518.4 287.153
L315.491 287.153
z
" style="fill:#ffffff;"/>
   </g>
   <g id="line2d_26">
    <path clip-path="url(#p8ca55fdb04)" d="
M315.531 370.378
L318.981 368.706
L328.437 364.302
L329.897 363.266
L330.912 362.283
L331.642 361.261
L332.129 360.202
L332.454 358.983
L332.657 357.386
L332.779 354.188
L332.819 347.225
L332.901 296.366
L332.941 299.115
L333.266 352.59
L333.428 380.063
L333.509 380.549
L333.55 380.364
L333.753 378.096
L334.321 368.252
L334.848 356.85
L334.889 352.887
L334.97 295.418
L335.011 296.882
L335.173 313.116
L335.457 352.361
L335.619 384.226
L335.66 384.309
L335.66 384.309
L335.66 384.309
L335.782 383.551
L336.106 379.66
L336.878 366.701
L337.446 356.598
L337.486 353.185
L337.567 295.442
L337.608 296.944
L337.77 314.716
L338.054 366.22
L338.217 384.451
L338.257 384.5
L338.298 384.392
L338.501 383.076
L339.028 377.78
L339.759 370.983
L340.246 368.413
L340.611 367.458
L340.936 367.141
L341.22 367.172
L341.544 367.467
L342.031 368.261
L342.843 370.088
L345.643 376.719
L346.536 378.138
L347.348 379.014
L348.119 379.525
L348.93 379.792
L349.823 379.841
L350.878 379.66
L352.177 379.192
L353.841 378.339
L356.276 376.818
L364.392 371.578
L367.639 369.842
L371.331 368.128
L378.514 364.868
L380.3 363.765
L381.518 362.757
L382.37 361.768
L382.978 360.708
L383.384 359.537
L383.628 358.206
L383.79 355.906
L383.831 354.245
L383.871 347.669
L383.952 296.332
L383.993 299.025
L384.318 352.207
L384.48 380.045
L384.561 380.551
L384.602 380.37
L384.805 378.109
L385.373 368.269
L385.9 356.898
L385.941 353.075
L386.022 295.397
L386.063 296.837
L386.225 312.995
L386.509 351.841
L386.671 384.219
L386.712 384.311
L386.712 384.311
L386.712 384.311
L386.834 383.559
L387.158 379.674
L387.929 366.717
L388.498 356.641
L388.538 353.337
L388.619 295.421
L388.66 296.896
L388.822 314.586
L389.106 365.755
L389.269 384.447
L389.309 384.501
L389.35 384.395
L389.553 383.083
L390.08 377.79
L390.811 370.99
L391.298 368.417
L391.663 367.459
L391.988 367.141
L392.272 367.171
L392.596 367.466
L393.083 368.259
L393.895 370.085
L396.695 376.718
L397.588 378.136
L398.4 379.013
L399.171 379.525
L399.982 379.792
L400.875 379.841
L401.93 379.66
L403.229 379.192
L404.893 378.34
L407.328 376.818
L415.444 371.578
L418.69 369.842
L422.383 368.129
L429.566 364.868
L431.352 363.765
L432.569 362.758
L433.422 361.769
L434.03 360.71
L434.436 359.54
L434.68 358.212
L434.842 355.928
L434.883 354.294
L434.923 348.024
L435.004 296.303
L435.045 298.947
L435.37 351.88
L435.532 380.03
L435.613 380.553
L435.654 380.375
L435.857 378.12
L436.384 369.048
L436.952 356.939
L436.993 353.23
L437.074 295.379
L437.115 296.797
L437.277 312.89
L437.561 351.402
L437.723 384.213
L437.764 384.312
L437.764 384.312
L437.764 384.312
L437.886 383.567
L438.21 379.685
L438.981 366.73
L439.55 356.677
L439.59 353.464
L439.671 295.404
L439.712 296.855
L439.874 314.473
L440.158 365.342
L440.321 384.443
L440.361 384.502
L440.402 384.398
L440.605 383.09
L441.132 377.799
L441.863 370.995
L442.35 368.42
L442.715 367.461
L443.04 367.141
L443.324 367.171
L443.648 367.465
L444.135 368.257
L444.947 370.083
L447.747 376.716
L448.64 378.135
L449.451 379.013
L450.223 379.525
L451.034 379.792
L451.927 379.842
L452.982 379.661
L454.281 379.193
L455.945 378.34
L458.379 376.819
L466.496 371.579
L469.742 369.843
L473.435 368.129
L480.618 364.868
L482.404 363.766
L483.621 362.759
L484.474 361.77
L485.082 360.712
L485.488 359.542
L485.732 358.218
L485.894 355.946
L485.975 348.307
L486.056 296.279
L486.097 298.882
L486.422 351.605
L486.584 380.016
L486.665 380.555
L486.706 380.379
L486.909 378.13
L487.436 369.061
L488.004 356.973
L488.045 353.356
L488.126 295.364
L488.167 296.765
L488.329 312.801
L488.613 351.038
L488.775 384.208
L488.816 384.313
L488.816 384.313
L488.816 384.313
L488.938 383.573
L489.262 379.695
L490.033 366.741
L490.601 356.707
L490.642 353.567
L490.723 295.39
L490.764 296.82
L490.926 314.377
L491.21 364.984
L491.373 384.44
L491.413 384.502
L491.454 384.401
L491.657 383.095
L492.184 377.806
L492.915 371
L493.402 368.422
L493.767 367.462
L494.091 367.141
L494.376 367.171
L494.7 367.464
L495.187 368.256
L495.999 370.082
L498.799 376.715
L499.692 378.134
L500.503 379.012
L501.274 379.524
L502.086 379.792
L502.979 379.842
L504.034 379.661
L505.333 379.193
L506.997 378.341
L509.431 376.819
L517.548 371.579
L518.4 371.099
L518.4 371.099" style="fill:none;stroke:#0000ff;stroke-linecap:square;"/>
   </g>
   <g id="patch_28">
    <path d="
M315.491 287.153
L518.4 287.153" style="fill:none;stroke:#000000;stroke-linecap:square;stroke-linejoin:miter;"/>
   </g>
   <g id="patch_29">
    <path d="
M518.4 388.8
L518.4 287.153" style="fill:none;stroke:#000000;stroke-linecap:square;stroke-linejoin:miter;"/>
   </g>
   <g id="patch_30">
    <path d="
M315.491 388.8
L518.4 388.8" style="fill:none;stroke:#000000;stroke-linecap:square;stroke-linejoin:miter;"/>
   </g>
   <g id="patch_31">
    <path d="
M315.491 388.8
L315.491 287.153" style="fill:none;stroke:#000000;stroke-linecap:square;stroke-linejoin:miter;"/>
   </g>
   <g id="matplotlib.axis_11">
    <g id="text_14">
     <!-- 1 s -->
     <g transform="translate(407.395142045 402.918125)scale(0.12 -0.12)">
      <use xlink:href="#BitstreamVeraSans-Bold-31"/>
      <use x="69.580078125" xlink:href="#BitstreamVeraSans-Bold-20"/>
      <use x="104.39453125" xlink:href="#BitstreamVeraSans-Bold-73"/>
     </g>
    </g>
   </g>
   <g id="matplotlib.axis_12">
    <g id="ytick_11">
     <g id="line2d_27">
      <g>
       <use style="stroke:#000000;stroke-width:0.5;" x="315.490909091" xlink:href="#m728421d6d4" y="374.278991597"/>
      </g>
     </g>
     <g id="line2d_28">
      <g>
       <use style="stroke:#000000;stroke-width:0.5;" x="518.4" xlink:href="#mcb0005524f" y="374.278991597"/>
      </g>
     </g>
     <g id="text_15">
      <!-- −60 -->
      <g transform="translate(288.233409091 377.590241597)scale(0.12 -0.12)">
       <use xlink:href="#BitstreamVeraSans-Roman-2212"/>
       <use x="83.7890625" xlink:href="#BitstreamVeraSans-Roman-36"/>
       <use x="147.412109375" xlink:href="#BitstreamVeraSans-Roman-30"/>
      </g>
     </g>
    </g>
    <g id="ytick_12">
     <g id="line2d_29">
      <g>
       <use style="stroke:#000000;stroke-width:0.5;" x="315.490909091" xlink:href="#m728421d6d4" y="330.715966387"/>
      </g>
     </g>
     <g id="line2d_30">
      <g>
       <use style="stroke:#000000;stroke-width:0.5;" x="518.4" xlink:href="#mcb0005524f" y="330.715966387"/>
      </g>
     </g>
     <g id="text_16">
      <!-- 0 -->
      <g transform="translate(305.444034091 334.027216387)scale(0.12 -0.12)">
       <use xlink:href="#BitstreamVeraSans-Roman-30"/>
      </g>
     </g>
    </g>
   </g>
  </g>
 </g>
 <defs>
  <clipPath id="pf4132cbc21">
   <rect height="101.647058824" width="202.909090909" x="315.490909091" y="165.176470588"/>
  </clipPath>
  <clipPath id="p5df05f4a8e">
   <rect height="101.647058824" width="202.909090909" x="72.0" y="287.152941176"/>
  </clipPath>
  <clipPath id="pdf2bc2c95a">
   <rect height="101.647058824" width="202.909090909" x="72.0" y="43.2"/>
  </clipPath>
  <clipPath id="pbd5a3a9a46">
   <rect height="101.647058824" width="202.909090909" x="315.490909091" y="43.2"/>
  </clipPath>
  <clipPath id="p68273c1835">
   <rect height="101.647058824" width="202.909090909" x="72.0" y="165.176470588"/>
  </clipPath>
  <clipPath id="p8ca55fdb04">
   <rect height="101.647058824" width="202.909090909" x="315.490909091" y="287.152941176"/>
  </clipPath>
 </defs>
</svg>
