<?xml version="1.0" encoding="utf-8" standalone="no"?>
<!DOCTYPE svg PUBLIC "-//W3C//DTD SVG 1.1//EN"
  "http://www.w3.org/Graphics/SVG/1.1/DTD/svg11.dtd">
<!-- Created with matplotlib (http://matplotlib.org/) -->
<svg height="432pt" version="1.1" viewBox="0 0 576 432" width="576pt" xmlns="http://www.w3.org/2000/svg" xmlns:xlink="http://www.w3.org/1999/xlink">
 <defs>
  <style type="text/css">
*{stroke-linecap:butt;stroke-linejoin:round;}
  </style>
 </defs>
 <g id="figure_1">
  <g id="patch_1">
   <path d="
M0 432
L576 432
L576 0
L0 0
z
" style="fill:#ffffff;"/>
  </g>
  <g id="axes_1">
   <g id="patch_2">
    <path d="
M72 144.847
L274.909 144.847
L274.909 43.2
L72 43.2
z
" style="fill:#ffffff;"/>
   </g>
   <g id="line2d_1">
    <path clip-path="url(#pdf2bc2c95a)" d="
M72 126.696
L77.9655 126.265
L87.0964 125.814
L98.9057 125.466
L115.707 125.211
L144.966 125.021
L226.941 124.781
L274.869 124.696
L274.869 124.696" style="fill:none;stroke:#0000ff;stroke-linecap:square;"/>
   </g>
   <g id="patch_3">
    <path d="
M72 43.2
L274.909 43.2" style="fill:none;stroke:#000000;stroke-linecap:square;stroke-linejoin:miter;"/>
   </g>
   <g id="patch_4">
    <path d="
M274.909 144.847
L274.909 43.2" style="fill:none;stroke:#000000;stroke-linecap:square;stroke-linejoin:miter;"/>
   </g>
   <g id="patch_5">
    <path d="
M72 144.847
L274.909 144.847" style="fill:none;stroke:#000000;stroke-linecap:square;stroke-linejoin:miter;"/>
   </g>
   <g id="patch_6">
    <path d="
M72 144.847
L72 43.2" style="fill:none;stroke:#000000;stroke-linecap:square;stroke-linejoin:miter;"/>
   </g>
   <g id="matplotlib.axis_1"/>
   <g id="matplotlib.axis_2">
    <g id="ytick_1">
     <g id="line2d_2">
      <defs>
       <path d="
M0 0
L4 0" id="m728421d6d4" style="stroke:#000000;stroke-width:0.5;"/>
      </defs>
      <g>
       <use style="stroke:#000000;stroke-width:0.5;" x="72.0" xlink:href="#m728421d6d4" y="130.32605042"/>
      </g>
     </g>
     <g id="line2d_3">
      <defs>
       <path d="
M0 0
L-4 0" id="mcb0005524f" style="stroke:#000000;stroke-width:0.5;"/>
      </defs>
      <g>
       <use style="stroke:#000000;stroke-width:0.5;" x="274.909090909" xlink:href="#mcb0005524f" y="130.32605042"/>
      </g>
     </g>
     <g id="text_1">
      <!-- −60 -->
      <defs>
       <path d="
M10.5938 35.5
L73.1875 35.5
L73.1875 27.2031
L10.5938 27.2031
z
" id="BitstreamVeraSans-Roman-2212"/>
       <path d="
M31.7812 66.4062
Q24.1719 66.4062 20.3281 58.9062
Q16.5 51.4219 16.5 36.375
Q16.5 21.3906 20.3281 13.8906
Q24.1719 6.39062 31.7812 6.39062
Q39.4531 6.39062 43.2812 13.8906
Q47.125 21.3906 47.125 36.375
Q47.125 51.4219 43.2812 58.9062
Q39.4531 66.4062 31.7812 66.4062
M31.7812 74.2188
Q44.0469 74.2188 50.5156 64.5156
Q56.9844 54.8281 56.9844 36.375
Q56.9844 17.9688 50.5156 8.26562
Q44.0469 -1.42188 31.7812 -1.42188
Q19.5312 -1.42188 13.0625 8.26562
Q6.59375 17.9688 6.59375 36.375
Q6.59375 54.8281 13.0625 64.5156
Q19.5312 74.2188 31.7812 74.2188" id="BitstreamVeraSans-Roman-30"/>
       <path d="
M33.0156 40.375
Q26.375 40.375 22.4844 35.8281
Q18.6094 31.2969 18.6094 23.3906
Q18.6094 15.5312 22.4844 10.9531
Q26.375 6.39062 33.0156 6.39062
Q39.6562 6.39062 43.5312 10.9531
Q47.4062 15.5312 47.4062 23.3906
Q47.4062 31.2969 43.5312 35.8281
Q39.6562 40.375 33.0156 40.375
M52.5938 71.2969
L52.5938 62.3125
Q48.875 64.0625 45.0938 64.9844
Q41.3125 65.9219 37.5938 65.9219
Q27.8281 65.9219 22.6719 59.3281
Q17.5312 52.7344 16.7969 39.4062
Q19.6719 43.6562 24.0156 45.9219
Q28.375 48.1875 33.5938 48.1875
Q44.5781 48.1875 50.9531 41.5156
Q57.3281 34.8594 57.3281 23.3906
Q57.3281 12.1562 50.6875 5.35938
Q44.0469 -1.42188 33.0156 -1.42188
Q20.3594 -1.42188 13.6719 8.26562
Q6.98438 17.9688 6.98438 36.375
Q6.98438 53.6562 15.1875 63.9375
Q23.3906 74.2188 37.2031 74.2188
Q40.9219 74.2188 44.7031 73.4844
Q48.4844 72.75 52.5938 71.2969" id="BitstreamVeraSans-Roman-36"/>
      </defs>
      <g transform="translate(44.7425 133.63730042)scale(0.12 -0.12)">
       <use xlink:href="#BitstreamVeraSans-Roman-2212"/>
       <use x="83.7890625" xlink:href="#BitstreamVeraSans-Roman-36"/>
       <use x="147.412109375" xlink:href="#BitstreamVeraSans-Roman-30"/>
      </g>
     </g>
    </g>
    <g id="ytick_2">
     <g id="line2d_4">
      <g>
       <use style="stroke:#000000;stroke-width:0.5;" x="72.0" xlink:href="#m728421d6d4" y="86.7630252101"/>
      </g>
     </g>
     <g id="line2d_5">
      <g>
       <use style="stroke:#000000;stroke-width:0.5;" x="274.909090909" xlink:href="#mcb0005524f" y="86.7630252101"/>
      </g>
     </g>
     <g id="text_2">
      <!-- 0 -->
      <g transform="translate(61.953125 90.0742752101)scale(0.12 -0.12)">
       <use xlink:href="#BitstreamVeraSans-Roman-30"/>
      </g>
     </g>
    </g>
   </g>
   <g id="text_3">
    <!-- soma -->
    <defs>
     <path d="
M51.125 52.9844
L51.125 39.7031
Q45.5156 42.0469 40.2812 43.2188
Q35.0625 44.3906 30.4219 44.3906
Q25.4375 44.3906 23.0156 43.1406
Q20.6094 41.8906 20.6094 39.3125
Q20.6094 37.2031 22.4375 36.0781
Q24.2656 34.9688 29 34.4219
L32.0781 33.9844
Q45.5156 32.2812 50.1406 28.375
Q54.7812 24.4688 54.7812 16.1094
Q54.7812 7.375 48.3281 2.96875
Q41.8906 -1.42188 29.1094 -1.42188
Q23.6875 -1.42188 17.8906 -0.5625
Q12.1094 0.296875 6 2
L6 15.2812
Q11.2344 12.75 16.7188 11.4688
Q22.2188 10.2031 27.875 10.2031
Q33.0156 10.2031 35.5938 11.6094
Q38.1875 13.0312 38.1875 15.8281
Q38.1875 18.1719 36.4062 19.3125
Q34.625 20.4531 29.2969 21.0938
L26.2188 21.4844
Q14.5469 22.9531 9.85938 26.9062
Q5.17188 30.8594 5.17188 38.9219
Q5.17188 47.6094 11.125 51.7969
Q17.0938 56 29.3906 56
Q34.2344 56 39.5469 55.2656
Q44.875 54.5469 51.125 52.9844" id="BitstreamVeraSans-Bold-73"/>
     <path d="
M32.9062 24.6094
Q27.4375 24.6094 24.6719 22.75
Q21.9219 20.9062 21.9219 17.2812
Q21.9219 13.9688 24.1406 12.0781
Q26.375 10.2031 30.3281 10.2031
Q35.25 10.2031 38.625 13.7344
Q42 17.2812 42 22.6094
L42 24.6094
z

M59.625 31.2031
L59.625 0
L42 0
L42 8.10938
Q38.4844 3.125 34.0781 0.84375
Q29.6875 -1.42188 23.3906 -1.42188
Q14.8906 -1.42188 9.59375 3.53125
Q4.29688 8.5 4.29688 16.4062
Q4.29688 26.0312 10.9062 30.5156
Q17.5312 35.0156 31.6875 35.0156
L42 35.0156
L42 36.375
Q42 40.5312 38.7188 42.4531
Q35.4531 44.3906 28.5156 44.3906
Q22.9062 44.3906 18.0625 43.2656
Q13.2344 42.1406 9.07812 39.8906
L9.07812 53.2188
Q14.7031 54.5938 20.3594 55.2969
Q26.0312 56 31.6875 56
Q46.4844 56 53.0469 50.1719
Q59.625 44.3438 59.625 31.2031" id="BitstreamVeraSans-Bold-61"/>
     <path d="
M34.4219 43.5
Q28.6094 43.5 25.5625 39.3281
Q22.5156 35.1562 22.5156 27.2969
Q22.5156 19.4375 25.5625 15.25
Q28.6094 11.0781 34.4219 11.0781
Q40.1406 11.0781 43.1562 15.25
Q46.1875 19.4375 46.1875 27.2969
Q46.1875 35.1562 43.1562 39.3281
Q40.1406 43.5 34.4219 43.5
M34.4219 56
Q48.5312 56 56.4688 48.375
Q64.4062 40.7656 64.4062 27.2969
Q64.4062 13.8125 56.4688 6.1875
Q48.5312 -1.42188 34.4219 -1.42188
Q20.2656 -1.42188 12.2812 6.1875
Q4.29688 13.8125 4.29688 27.2969
Q4.29688 40.7656 12.2812 48.375
Q20.2656 56 34.4219 56" id="BitstreamVeraSans-Bold-6f"/>
     <path d="
M59.0781 45.6094
Q62.4062 50.6875 66.9688 53.3438
Q71.5312 56 77 56
Q86.4219 56 91.3594 50.1875
Q96.2969 44.3906 96.2969 33.2969
L96.2969 0
L78.7188 0
L78.7188 28.5156
Q78.7656 29.1562 78.7812 29.8281
Q78.8125 30.5156 78.8125 31.7812
Q78.8125 37.5938 77.0938 40.2031
Q75.3906 42.8281 71.5781 42.8281
Q66.6094 42.8281 63.8906 38.7188
Q61.1875 34.625 61.0781 26.8594
L61.0781 0
L43.5 0
L43.5 28.5156
Q43.5 37.5938 41.9375 40.2031
Q40.375 42.8281 36.375 42.8281
Q31.3438 42.8281 28.6094 38.7031
Q25.875 34.5781 25.875 26.9062
L25.875 0
L8.29688 0
L8.29688 54.6875
L25.875 54.6875
L25.875 46.6875
Q29.1094 51.3125 33.2812 53.6562
Q37.4531 56 42.4844 56
Q48.1406 56 52.4844 53.2656
Q56.8438 50.5312 59.0781 45.6094" id="BitstreamVeraSans-Bold-6d"/>
    </defs>
    <g transform="translate(152.799545455 38.2)scale(0.144 -0.144)">
     <use xlink:href="#BitstreamVeraSans-Bold-73"/>
     <use x="59.521484375" xlink:href="#BitstreamVeraSans-Bold-6f"/>
     <use x="128.22265625" xlink:href="#BitstreamVeraSans-Bold-6d"/>
     <use x="232.421875" xlink:href="#BitstreamVeraSans-Bold-61"/>
    </g>
   </g>
  </g>
  <g id="axes_2">
   <g id="patch_7">
    <path d="
M315.491 144.847
L518.4 144.847
L518.4 43.2
L315.491 43.2
z
" style="fill:#ffffff;"/>
   </g>
   <g id="line2d_6">
    <path clip-path="url(#pbd5a3a9a46)" d="
M315.491 126.696
L325.596 126.038
L335.822 125.638
L349.58 125.337
L370.682 125.12
L415.282 124.933
L518.359 124.708
L518.359 124.708" style="fill:none;stroke:#0000ff;stroke-linecap:square;"/>
   </g>
   <g id="patch_8">
    <path d="
M315.491 43.2
L518.4 43.2" style="fill:none;stroke:#000000;stroke-linecap:square;stroke-linejoin:miter;"/>
   </g>
   <g id="patch_9">
    <path d="
M518.4 144.847
L518.4 43.2" style="fill:none;stroke:#000000;stroke-linecap:square;stroke-linejoin:miter;"/>
   </g>
   <g id="patch_10">
    <path d="
M315.491 144.847
L518.4 144.847" style="fill:none;stroke:#000000;stroke-linecap:square;stroke-linejoin:miter;"/>
   </g>
   <g id="patch_11">
    <path d="
M315.491 144.847
L315.491 43.2" style="fill:none;stroke:#000000;stroke-linecap:square;stroke-linejoin:miter;"/>
   </g>
   <g id="matplotlib.axis_3"/>
   <g id="matplotlib.axis_4">
    <g id="ytick_3">
     <g id="line2d_7">
      <g>
       <use style="stroke:#000000;stroke-width:0.5;" x="315.490909091" xlink:href="#m728421d6d4" y="130.32605042"/>
      </g>
     </g>
     <g id="line2d_8">
      <g>
       <use style="stroke:#000000;stroke-width:0.5;" x="518.4" xlink:href="#mcb0005524f" y="130.32605042"/>
      </g>
     </g>
     <g id="text_4">
      <!-- −60 -->
      <g transform="translate(288.233409091 133.63730042)scale(0.12 -0.12)">
       <use xlink:href="#BitstreamVeraSans-Roman-2212"/>
       <use x="83.7890625" xlink:href="#BitstreamVeraSans-Roman-36"/>
       <use x="147.412109375" xlink:href="#BitstreamVeraSans-Roman-30"/>
      </g>
     </g>
    </g>
    <g id="ytick_4">
     <g id="line2d_9">
      <g>
       <use style="stroke:#000000;stroke-width:0.5;" x="315.490909091" xlink:href="#m728421d6d4" y="86.7630252101"/>
      </g>
     </g>
     <g id="line2d_10">
      <g>
       <use style="stroke:#000000;stroke-width:0.5;" x="518.4" xlink:href="#mcb0005524f" y="86.7630252101"/>
      </g>
     </g>
     <g id="text_5">
      <!-- 0 -->
      <g transform="translate(305.444034091 90.0742752101)scale(0.12 -0.12)">
       <use xlink:href="#BitstreamVeraSans-Roman-30"/>
      </g>
     </g>
    </g>
   </g>
   <g id="text_6">
    <!-- axon -->
    <defs>
     <path d="
M22.2188 27.9844
L2.48438 54.6875
L21 54.6875
L32.1719 38.4844
L43.5 54.6875
L62.0156 54.6875
L42.2812 28.0781
L62.9844 0
L44.4844 0
L32.1719 17.2812
L20.0156 0
L1.51562 0
z
" id="BitstreamVeraSans-Bold-78"/>
     <path d="
M63.375 33.2969
L63.375 0
L45.7969 0
L45.7969 5.42188
L45.7969 25.4844
Q45.7969 32.5625 45.4844 35.25
Q45.1719 37.9375 44.3906 39.2031
Q43.3594 40.9219 41.5938 41.875
Q39.8438 42.8281 37.5938 42.8281
Q32.125 42.8281 29 38.5938
Q25.875 34.375 25.875 26.9062
L25.875 0
L8.40625 0
L8.40625 54.6875
L25.875 54.6875
L25.875 46.6875
Q29.8281 51.4688 34.2656 53.7344
Q38.7188 56 44.0938 56
Q53.5625 56 58.4688 50.1875
Q63.375 44.3906 63.375 33.2969" id="BitstreamVeraSans-Bold-6e"/>
    </defs>
    <g transform="translate(398.242329545 38.2)scale(0.144 -0.144)">
     <use xlink:href="#BitstreamVeraSans-Bold-61"/>
     <use x="67.48046875" xlink:href="#BitstreamVeraSans-Bold-78"/>
     <use x="131.982421875" xlink:href="#BitstreamVeraSans-Bold-6f"/>
     <use x="200.68359375" xlink:href="#BitstreamVeraSans-Bold-6e"/>
    </g>
   </g>
  </g>
  <g id="axes_3">
   <g id="patch_12">
    <path d="
M72 266.824
L274.909 266.824
L274.909 165.176
L72 165.176
z
" style="fill:#ffffff;"/>
   </g>
   <g id="line2d_11">
    <path clip-path="url(#p68273c1835)" d="
M72.0406 240.428
L73.0957 239.517
L73.8262 238.608
L74.3537 237.595
L74.6784 236.519
L74.8407 235.396
L74.8813 234.654
L75.2871 205.344
L75.3277 205.237
L75.977 220.297
L76.2611 221.503
L76.4234 221.572
L76.5046 221.383
L76.5452 221.098
L76.7481 209.119
L76.7887 209.184
L76.951 213.011
L77.1945 222.238
L77.438 230.067
L77.8032 234.422
L78.1279 236.1
L78.3713 236.445
L78.5337 236.382
L78.8177 235.948
L79.5482 234.281
L79.7511 233.318
L79.7917 232.553
L80.0758 211.313
L80.1164 211.152
L80.1164 211.152
L80.1164 211.152
L80.1975 211.892
L80.2787 214.113
L80.6439 229.673
L81.0903 237.741
L81.4961 241.438
L81.902 243.212
L82.3889 244.359
L83.647 246.476
L86.6095 251.281
L87.6646 252.488
L88.598 253.225
L89.4908 253.65
L90.4241 253.841
L91.4387 253.811
L92.6156 253.541
L94.0765 252.963
L96.1056 251.896
L105.764 246.493
L109.173 245.03
L118.06 241.373
L119.562 240.435
L120.617 239.526
L121.347 238.621
L121.875 237.616
L122.2 236.556
L122.362 235.485
L122.403 234.868
L122.849 205.169
L122.89 206.057
L123.255 217.603
L123.579 220.768
L123.823 221.564
L123.945 221.592
L124.026 221.428
L124.066 221.199
L124.31 209.128
L124.391 210.504
L124.716 221.738
L124.959 229.92
L125.325 234.358
L125.649 236.078
L125.893 236.444
L126.055 236.391
L126.339 235.966
L127.07 234.307
L127.272 233.4
L127.313 232.847
L127.638 211.151
L127.719 211.762
L127.8 213.712
L128.206 230.424
L128.652 238.14
L129.058 241.629
L129.464 243.31
L129.991 244.495
L132.183 248.212
L133.887 250.939
L134.983 252.28
L135.916 253.087
L136.809 253.574
L137.702 253.814
L138.676 253.843
L139.772 253.651
L141.111 253.184
L142.896 252.309
L145.94 250.526
L150.648 247.807
L153.813 246.251
L157.344 244.773
L165.095 241.625
L166.759 240.656
L167.895 239.756
L168.706 238.841
L169.275 237.872
L169.64 236.847
L169.843 235.761
L169.924 234.524
L170.289 206.14
L170.37 205.291
L170.979 220.038
L171.263 221.451
L171.425 221.621
L171.507 221.527
L171.588 221.092
L171.791 209.122
L171.831 209.219
L171.994 213.087
L172.237 222.381
L172.481 230.114
L172.846 234.445
L173.17 236.11
L173.414 236.448
L173.576 236.383
L173.86 235.946
L174.631 234.151
L174.794 233.305
L174.834 232.479
L175.118 211.302
L175.159 211.159
L175.159 211.159
L175.159 211.159
L175.24 211.922
L175.321 214.198
L175.687 229.716
L176.133 237.765
L176.539 241.452
L176.945 243.22
L177.432 244.365
L178.69 246.482
L181.652 251.287
L182.707 252.494
L183.641 253.23
L184.533 253.655
L185.467 253.845
L186.481 253.814
L187.658 253.543
L189.119 252.963
L191.148 251.895
L200.807 246.485
L204.216 245.022
L213.062 241.376
L214.564 240.436
L215.619 239.528
L216.35 238.622
L216.877 237.616
L217.202 236.555
L217.364 235.479
L217.405 234.853
L217.851 205.176
L217.892 206.09
L218.257 217.632
L218.582 220.793
L218.825 221.588
L218.947 221.616
L219.028 221.454
L219.069 221.227
L219.312 209.139
L219.393 210.5
L219.718 221.71
L219.961 229.916
L220.327 234.358
L220.651 236.08
L220.895 236.447
L221.057 236.395
L221.341 235.97
L222.072 234.312
L222.274 233.413
L222.315 232.88
L222.64 211.157
L222.721 211.749
L222.802 213.663
L223.208 230.399
L223.654 238.128
L224.06 241.625
L224.466 243.309
L224.993 244.496
L227.185 248.213
L228.889 250.941
L229.985 252.283
L230.918 253.091
L231.811 253.578
L232.704 253.818
L233.678 253.846
L234.774 253.654
L236.113 253.186
L237.898 252.31
L240.942 250.524
L245.609 247.824
L248.774 246.263
L252.305 244.781
L260.056 241.629
L261.72 240.661
L262.856 239.761
L263.668 238.847
L264.236 237.881
L264.601 236.861
L264.804 235.789
L264.885 234.639
L265.291 205.337
L265.332 205.251
L265.981 220.339
L266.265 221.55
L266.427 221.621
L266.509 221.438
L266.549 221.17
L266.752 209.166
L266.833 209.759
L267.158 219.576
L267.401 229.275
L267.767 234.08
L268.091 235.977
L268.335 236.434
L268.497 236.422
L268.741 236.109
L269.39 234.712
L269.715 233.654
L269.796 232.696
L270.08 211.359
L270.12 211.157
L270.161 211.357
L270.283 213.956
L270.648 229.599
L271.094 237.704
L271.5 241.424
L271.906 243.208
L272.393 244.359
L273.651 246.476
L274.869 248.575
L274.869 248.575" style="fill:none;stroke:#0000ff;stroke-linecap:square;"/>
   </g>
   <g id="patch_13">
    <path d="
M72 165.176
L274.909 165.176" style="fill:none;stroke:#000000;stroke-linecap:square;stroke-linejoin:miter;"/>
   </g>
   <g id="patch_14">
    <path d="
M274.909 266.824
L274.909 165.176" style="fill:none;stroke:#000000;stroke-linecap:square;stroke-linejoin:miter;"/>
   </g>
   <g id="patch_15">
    <path d="
M72 266.824
L274.909 266.824" style="fill:none;stroke:#000000;stroke-linecap:square;stroke-linejoin:miter;"/>
   </g>
   <g id="patch_16">
    <path d="
M72 266.824
L72 165.176" style="fill:none;stroke:#000000;stroke-linecap:square;stroke-linejoin:miter;"/>
   </g>
   <g id="matplotlib.axis_5"/>
   <g id="matplotlib.axis_6">
    <g id="ytick_5">
     <g id="line2d_12">
      <g>
       <use style="stroke:#000000;stroke-width:0.5;" x="72.0" xlink:href="#m728421d6d4" y="252.302521008"/>
      </g>
     </g>
     <g id="line2d_13">
      <g>
       <use style="stroke:#000000;stroke-width:0.5;" x="274.909090909" xlink:href="#mcb0005524f" y="252.302521008"/>
      </g>
     </g>
     <g id="text_7">
      <!-- −60 -->
      <g transform="translate(44.7425 255.613771008)scale(0.12 -0.12)">
       <use xlink:href="#BitstreamVeraSans-Roman-2212"/>
       <use x="83.7890625" xlink:href="#BitstreamVeraSans-Roman-36"/>
       <use x="147.412109375" xlink:href="#BitstreamVeraSans-Roman-30"/>
      </g>
     </g>
    </g>
    <g id="ytick_6">
     <g id="line2d_14">
      <g>
       <use style="stroke:#000000;stroke-width:0.5;" x="72.0" xlink:href="#m728421d6d4" y="208.739495798"/>
      </g>
     </g>
     <g id="line2d_15">
      <g>
       <use style="stroke:#000000;stroke-width:0.5;" x="274.909090909" xlink:href="#mcb0005524f" y="208.739495798"/>
      </g>
     </g>
     <g id="text_8">
      <!-- 0 -->
      <g transform="translate(61.953125 212.050745798)scale(0.12 -0.12)">
       <use xlink:href="#BitstreamVeraSans-Roman-30"/>
      </g>
     </g>
    </g>
   </g>
  </g>
  <g id="axes_4">
   <g id="patch_17">
    <path d="
M315.491 266.824
L518.4 266.824
L518.4 165.176
L315.491 165.176
z
" style="fill:#ffffff;"/>
   </g>
   <g id="line2d_16">
    <path clip-path="url(#pf4132cbc21)" d="
M315.531 240.57
L316.505 239.683
L317.195 238.761
L317.682 237.73
L318.007 236.507
L318.21 234.842
L318.332 231.187
L318.372 220.402
L318.453 175.064
L318.494 178.235
L319.022 254.387
L319.103 253.998
L319.346 249.96
L319.955 236.127
L320.036 229.08
L320.077 173.382
L320.158 175.683
L320.361 197.331
L320.604 228.834
L320.767 260.92
L320.807 261.158
L320.848 261.077
L321.051 259.332
L321.7 250.891
L322.471 241.956
L323.161 235.065
L323.242 231.689
L323.323 173.804
L323.445 182.822
L323.973 258.875
L324.013 258.844
L324.175 257.627
L325.149 248.837
L325.596 246.891
L325.961 246.127
L326.286 245.872
L326.61 245.887
L327.016 246.158
L327.625 246.874
L328.842 248.745
L330.506 251.198
L331.561 252.369
L332.495 253.087
L333.387 253.504
L334.321 253.693
L335.335 253.667
L336.512 253.406
L337.973 252.843
L340.002 251.8
L349.783 246.449
L353.313 244.967
L361.024 241.828
L362.647 240.873
L363.743 239.985
L364.514 239.087
L365.041 238.154
L365.407 237.094
L365.65 235.764
L365.812 233.426
L365.853 231.73
L365.894 225.233
L365.975 174.783
L366.015 177.419
L366.34 229.841
L366.502 253.896
L366.543 254.37
L366.624 254.084
L366.867 250.127
L367.517 234.796
L367.557 231.139
L367.639 173.647
L367.679 175.219
L367.841 191.165
L368.166 245.459
L368.328 261.148
L368.369 261.114
L368.531 259.851
L369.059 253.228
L369.952 242.42
L370.723 234.242
L370.763 232.391
L370.804 223.58
L370.845 174.319
L370.926 177.081
L371.25 220.981
L371.453 258.48
L371.534 258.874
L371.575 258.706
L371.859 256.037
L372.59 249.403
L373.036 247.186
L373.442 246.2
L373.766 245.894
L374.091 245.874
L374.497 246.116
L375.065 246.754
L376.12 248.344
L378.027 251.189
L379.083 252.363
L380.016 253.084
L380.909 253.503
L381.842 253.695
L382.857 253.67
L384.034 253.41
L385.495 252.847
L387.524 251.805
L397.344 246.432
L400.916 244.934
L408.504 241.845
L410.128 240.894
L411.223 240.015
L411.994 239.129
L412.563 238.129
L412.928 237.051
L413.171 235.67
L413.334 233.073
L413.374 230.884
L413.496 175.233
L413.577 184.705
L414.024 254.106
L414.064 254.416
L414.105 254.319
L414.267 252.219
L414.876 239.284
L415.038 234.197
L415.079 228.262
L415.119 173.281
L415.2 175.811
L415.403 197.604
L415.647 229.927
L415.809 260.956
L415.85 261.168
L415.89 261.075
L416.093 259.315
L416.743 250.872
L417.514 241.943
L418.203 235.033
L418.285 231.543
L418.366 173.779
L418.447 178.057
L418.772 222.996
L418.975 258.631
L419.015 258.891
L419.056 258.851
L419.218 257.623
L420.192 248.838
L420.638 246.895
L421.004 246.132
L421.328 245.877
L421.653 245.893
L422.059 246.163
L422.667 246.88
L423.885 248.751
L425.549 251.205
L426.604 252.375
L427.537 253.092
L428.43 253.508
L429.363 253.697
L430.378 253.67
L431.555 253.408
L433.016 252.843
L435.045 251.798
L444.825 246.442
L448.356 244.958
L456.026 241.831
L457.649 240.875
L458.745 239.987
L459.516 239.088
L460.043 238.154
L460.409 237.094
L460.652 235.76
L460.814 233.407
L460.855 231.685
L460.896 224.899
L460.977 174.802
L461.017 177.492
L461.342 230.09
L461.504 253.932
L461.545 254.393
L461.626 254.096
L461.87 250.134
L462.519 234.83
L462.559 231.258
L462.641 173.629
L462.681 175.183
L462.843 191.081
L463.168 245.222
L463.33 261.155
L463.371 261.123
L463.533 259.865
L464.061 253.247
L464.954 242.434
L465.725 234.285
L465.765 232.483
L465.806 224.474
L465.887 174.408
L465.928 176.966
L466.252 220.756
L466.455 258.473
L466.536 258.889
L466.577 258.725
L466.821 256.495
L467.592 249.423
L468.038 247.199
L468.444 246.209
L468.768 245.9
L469.093 245.878
L469.499 246.118
L470.067 246.756
L471.122 248.345
L473.03 251.192
L474.085 252.366
L475.018 253.087
L475.911 253.507
L476.844 253.698
L477.859 253.673
L479.036 253.412
L480.497 252.848
L482.526 251.805
L492.346 246.426
L495.918 244.927
L503.466 241.85
L505.089 240.899
L506.185 240.02
L506.956 239.136
L507.524 238.138
L507.889 237.066
L508.133 235.699
L508.295 233.177
L508.336 231.145
L508.376 219.857
L508.457 175.085
L508.498 178.299
L509.026 254.429
L509.107 254.031
L509.35 249.992
L510 234.463
L510.04 229.758
L510.081 173.58
L510.162 175.553
L510.365 197.057
L510.608 227.886
L510.771 260.911
L510.811 261.172
L510.852 261.101
L511.055 259.371
L511.704 250.941
L512.475 241.992
L513.165 235.144
L513.246 231.998
L513.327 173.903
L513.449 182.329
L513.977 258.891
L514.058 258.692
L514.342 255.998
L515.032 249.657
L515.478 247.326
L515.884 246.266
L516.209 245.92
L516.533 245.872
L516.898 246.059
L517.426 246.609
L518.359 247.97
L518.359 247.97" style="fill:none;stroke:#0000ff;stroke-linecap:square;"/>
   </g>
   <g id="patch_18">
    <path d="
M315.491 165.176
L518.4 165.176" style="fill:none;stroke:#000000;stroke-linecap:square;stroke-linejoin:miter;"/>
   </g>
   <g id="patch_19">
    <path d="
M518.4 266.824
L518.4 165.176" style="fill:none;stroke:#000000;stroke-linecap:square;stroke-linejoin:miter;"/>
   </g>
   <g id="patch_20">
    <path d="
M315.491 266.824
L518.4 266.824" style="fill:none;stroke:#000000;stroke-linecap:square;stroke-linejoin:miter;"/>
   </g>
   <g id="patch_21">
    <path d="
M315.491 266.824
L315.491 165.176" style="fill:none;stroke:#000000;stroke-linecap:square;stroke-linejoin:miter;"/>
   </g>
   <g id="matplotlib.axis_7"/>
   <g id="matplotlib.axis_8">
    <g id="ytick_7">
     <g id="line2d_17">
      <g>
       <use style="stroke:#000000;stroke-width:0.5;" x="315.490909091" xlink:href="#m728421d6d4" y="252.302521008"/>
      </g>
     </g>
     <g id="line2d_18">
      <g>
       <use style="stroke:#000000;stroke-width:0.5;" x="518.4" xlink:href="#mcb0005524f" y="252.302521008"/>
      </g>
     </g>
     <g id="text_9">
      <!-- −60 -->
      <g transform="translate(288.233409091 255.613771008)scale(0.12 -0.12)">
       <use xlink:href="#BitstreamVeraSans-Roman-2212"/>
       <use x="83.7890625" xlink:href="#BitstreamVeraSans-Roman-36"/>
       <use x="147.412109375" xlink:href="#BitstreamVeraSans-Roman-30"/>
      </g>
     </g>
    </g>
    <g id="ytick_8">
     <g id="line2d_19">
      <g>
       <use style="stroke:#000000;stroke-width:0.5;" x="315.490909091" xlink:href="#m728421d6d4" y="208.739495798"/>
      </g>
     </g>
     <g id="line2d_20">
      <g>
       <use style="stroke:#000000;stroke-width:0.5;" x="518.4" xlink:href="#mcb0005524f" y="208.739495798"/>
      </g>
     </g>
     <g id="text_10">
      <!-- 0 -->
      <g transform="translate(305.444034091 212.050745798)scale(0.12 -0.12)">
       <use xlink:href="#BitstreamVeraSans-Roman-30"/>
      </g>
     </g>
    </g>
   </g>
  </g>
  <g id="axes_5">
   <g id="patch_22">
    <path d="
M72 388.8
L274.909 388.8
L274.909 287.153
L72 287.153
z
" style="fill:#ffffff;"/>
   </g>
   <g id="line2d_21">
    <path clip-path="url(#p5df05f4a8e)" d="
M72.0406 368.428
L75.4089 366.934
L83.7687 363.37
L85.2703 362.409
L86.2848 361.517
L87.0153 360.592
L87.5428 359.552
L87.8675 358.41
L88.0298 356.988
L88.1921 339.839
L88.4356 327.531
L88.4762 327.191
L88.598 331.723
L88.882 339.914
L89.2067 343.184
L89.4908 344.117
L89.6125 344.111
L89.6937 343.919
L89.7343 343.655
L89.9777 331.449
L90.0183 331.967
L90.3024 339.608
L90.6676 352.817
L91.0329 356.784
L91.3575 358.252
L91.5604 358.491
L91.7228 358.427
L92.0068 357.99
L92.7779 356.227
L92.9402 355.501
L92.9808 355.066
L93.3055 333.247
L93.3866 333.723
L93.5084 337.485
L93.7924 350.269
L94.2388 359.012
L94.6447 363.118
L95.0505 365.08
L95.5375 366.299
L96.552 368.015
L100.164 373.799
L101.138 374.811
L102.031 375.434
L102.923 375.787
L103.857 375.91
L104.871 375.816
L106.089 375.471
L107.631 374.786
L109.863 373.526
L117.452 369.067
L120.617 367.567
L124.797 365.859
L129.302 363.971
L131.209 362.931
L132.467 362.007
L133.36 361.084
L133.968 360.153
L134.374 359.168
L134.618 358.109
L134.739 356.665
L135.145 327.337
L135.186 327.307
L135.795 342.412
L136.079 343.919
L136.282 344.136
L136.403 343.862
L136.444 343.483
L136.647 331.406
L136.687 331.555
L136.85 335.46
L137.093 344.955
L137.337 352.353
L137.702 356.576
L138.027 358.183
L138.27 358.493
L138.432 358.416
L138.717 357.966
L139.488 356.189
L139.65 355.401
L139.69 354.806
L140.015 333.23
L140.096 333.894
L140.177 335.924
L140.543 351.609
L140.989 359.726
L141.395 363.461
L141.801 365.25
L142.288 366.4
L143.546 368.511
L146.589 373.456
L147.604 374.602
L148.497 375.3
L149.39 375.719
L150.282 375.897
L151.256 375.867
L152.393 375.605
L153.813 375.039
L155.761 374
L160.103 371.344
L163.634 369.335
L166.759 367.813
L170.573 366.222
L176.133 363.906
L178 362.871
L179.217 361.96
L180.069 361.068
L180.678 360.128
L181.084 359.127
L181.327 358.026
L181.409 357.258
L181.449 356.004
L181.774 329.061
L181.855 327.211
L181.896 327.564
L182.342 340.852
L182.667 343.526
L182.91 344.137
L183.032 344.076
L183.113 343.788
L183.154 343.011
L183.357 331.388
L183.438 332.478
L183.762 343.278
L184.006 351.859
L184.371 356.357
L184.696 358.105
L184.939 358.487
L185.102 358.441
L185.386 358.021
L186.157 356.274
L186.319 355.61
L186.4 354.191
L186.644 333.93
L186.725 333.251
L186.765 333.536
L186.887 336.559
L187.212 350.918
L187.658 359.356
L188.064 363.284
L188.47 365.162
L188.957 366.347
L190.053 368.191
L193.461 373.679
L194.435 374.726
L195.328 375.38
L196.221 375.761
L197.154 375.907
L198.169 375.834
L199.346 375.52
L200.847 374.876
L202.958 373.706
L211.439 368.767
L214.686 367.276
L219.799 365.222
L223.046 363.799
L224.831 362.783
L226.008 361.876
L226.86 360.946
L227.428 360.022
L227.834 358.942
L228.078 357.586
L228.118 357.038
L228.24 344.321
L228.483 328.629
L228.565 327.182
L228.605 327.961
L229.011 340.483
L229.336 343.393
L229.579 344.116
L229.701 344.115
L229.782 343.93
L229.823 343.682
L230.066 331.434
L230.107 331.922
L230.391 339.52
L230.756 352.777
L231.121 356.766
L231.446 358.246
L231.649 358.491
L231.811 358.43
L232.095 357.996
L232.866 356.235
L233.029 355.52
L233.069 355.107
L233.191 342.952
L233.394 333.256
L233.434 333.309
L233.556 335.346
L234.043 354.009
L234.49 360.991
L234.895 364.061
L235.301 365.559
L235.869 366.738
L239.603 372.935
L240.699 374.303
L241.632 375.128
L242.525 375.625
L243.418 375.868
L244.392 375.894
L245.487 375.694
L246.826 375.211
L248.612 374.31
L251.615 372.503
L256.282 369.734
L259.407 368.154
L262.937 366.632
L270.039 363.648
L271.703 362.664
L272.839 361.749
L273.651 360.816
L274.219 359.819
L274.584 358.732
L274.787 357.437
L274.828 356.701
L274.909 347.562
L274.909 347.562" style="fill:none;stroke:#0000ff;stroke-linecap:square;"/>
   </g>
   <g id="patch_23">
    <path d="
M72 287.153
L274.909 287.153" style="fill:none;stroke:#000000;stroke-linecap:square;stroke-linejoin:miter;"/>
   </g>
   <g id="patch_24">
    <path d="
M274.909 388.8
L274.909 287.153" style="fill:none;stroke:#000000;stroke-linecap:square;stroke-linejoin:miter;"/>
   </g>
   <g id="patch_25">
    <path d="
M72 388.8
L274.909 388.8" style="fill:none;stroke:#000000;stroke-linecap:square;stroke-linejoin:miter;"/>
   </g>
   <g id="patch_26">
    <path d="
M72 388.8
L72 287.153" style="fill:none;stroke:#000000;stroke-linecap:square;stroke-linejoin:miter;"/>
   </g>
   <g id="matplotlib.axis_9">
    <g id="text_11">
     <!-- 1 s -->
     <defs>
      <path d="
M11.7188 12.9844
L28.3281 12.9844
L28.3281 60.1094
L11.2812 56.5938
L11.2812 69.3906
L28.2188 72.9062
L46.0938 72.9062
L46.0938 12.9844
L62.7031 12.9844
L62.7031 0
L11.7188 0
z
" id="BitstreamVeraSans-Bold-31"/>
      <path id="BitstreamVeraSans-Bold-20"/>
     </defs>
     <g transform="translate(163.904232955 402.918125)scale(0.12 -0.12)">
      <use xlink:href="#BitstreamVeraSans-Bold-31"/>
      <use x="69.580078125" xlink:href="#BitstreamVeraSans-Bold-20"/>
      <use x="104.39453125" xlink:href="#BitstreamVeraSans-Bold-73"/>
     </g>
    </g>
   </g>
   <g id="matplotlib.axis_10">
    <g id="ytick_9">
     <g id="line2d_22">
      <g>
       <use style="stroke:#000000;stroke-width:0.5;" x="72.0" xlink:href="#m728421d6d4" y="374.278991597"/>
      </g>
     </g>
     <g id="line2d_23">
      <g>
       <use style="stroke:#000000;stroke-width:0.5;" x="274.909090909" xlink:href="#mcb0005524f" y="374.278991597"/>
      </g>
     </g>
     <g id="text_12">
      <!-- −60 -->
      <g transform="translate(44.7425 377.590241597)scale(0.12 -0.12)">
       <use xlink:href="#BitstreamVeraSans-Roman-2212"/>
       <use x="83.7890625" xlink:href="#BitstreamVeraSans-Roman-36"/>
       <use x="147.412109375" xlink:href="#BitstreamVeraSans-Roman-30"/>
      </g>
     </g>
    </g>
    <g id="ytick_10">
     <g id="line2d_24">
      <g>
       <use style="stroke:#000000;stroke-width:0.5;" x="72.0" xlink:href="#m728421d6d4" y="330.715966387"/>
      </g>
     </g>
     <g id="line2d_25">
      <g>
       <use style="stroke:#000000;stroke-width:0.5;" x="274.909090909" xlink:href="#mcb0005524f" y="330.715966387"/>
      </g>
     </g>
     <g id="text_13">
      <!-- 0 -->
      <g transform="translate(61.953125 334.027216387)scale(0.12 -0.12)">
       <use xlink:href="#BitstreamVeraSans-Roman-30"/>
      </g>
     </g>
    </g>
   </g>
  </g>
  <g id="axes_6">
   <g id="patch_27">
    <path d="
M315.491 388.8
L518.4 388.8
L518.4 287.153
L315.491 287.153
z
" style="fill:#ffffff;"/>
   </g>
   <g id="line2d_26">
    <path clip-path="url(#p8ca55fdb04)" d="
M315.531 368.634
L318.9 367.134
L327.219 363.571
L328.68 362.617
L329.654 361.73
L330.344 360.812
L330.831 359.794
L331.155 358.602
L331.358 357.03
L331.48 353.999
L331.521 348.661
L331.602 296.593
L331.642 298.997
L331.967 350.635
L332.129 376.26
L332.211 376.795
L332.251 376.531
L332.454 373.449
L333.144 358.262
L333.225 352.295
L333.306 295.711
L333.347 297.381
L333.55 318.792
L333.793 349.513
L333.956 383.061
L333.996 383.311
L334.037 383.234
L334.24 381.519
L334.848 373.698
L335.66 364.149
L336.391 356.557
L336.472 350.149
L336.553 296.054
L336.593 298.222
L336.918 341.341
L337.162 381.067
L337.202 381.131
L337.324 380.399
L338.582 369.885
L338.988 368.576
L339.353 368.055
L339.678 367.944
L340.043 368.082
L340.53 368.542
L341.342 369.675
L344.101 373.747
L345.075 374.716
L345.968 375.312
L346.861 375.648
L347.794 375.761
L348.849 375.657
L350.107 375.293
L351.69 374.588
L354.044 373.268
L360.983 369.254
L364.189 367.734
L368.369 366.023
L372.752 364.177
L374.619 363.149
L375.836 362.237
L376.688 361.328
L377.256 360.424
L377.662 359.39
L377.946 358.041
L378.109 356.218
L378.19 353.172
L378.23 341.58
L378.312 297.019
L378.352 300.261
L378.88 376.822
L378.961 376.413
L379.204 372.424
L379.854 357.836
L379.894 355.821
L379.935 346.958
L379.975 295.188
L380.057 298.098
L380.3 325.045
L380.503 355.781
L380.665 383.189
L380.706 383.311
L380.746 383.177
L380.99 380.938
L381.802 370.313
L382.491 362.943
L383.06 357.227
L383.141 354.246
L383.181 343.377
L383.222 295.945
L383.303 299.244
L383.628 343.328
L383.831 380.801
L383.871 381.117
L383.952 380.917
L384.237 378.242
L384.967 371.608
L385.413 369.349
L385.819 368.326
L386.144 367.995
L386.469 367.957
L386.834 368.15
L387.361 368.706
L388.295 370.076
L390.527 373.419
L391.541 374.516
L392.475 375.208
L393.367 375.596
L394.301 375.756
L395.315 375.698
L396.492 375.403
L397.994 374.782
L400.104 373.644
L408.829 368.682
L412.197 367.175
L420.679 363.534
L422.099 362.598
L423.073 361.703
L423.763 360.771
L424.25 359.725
L424.575 358.469
L424.778 356.691
L424.859 354.75
L424.899 351.874
L424.981 296.65
L425.062 301.837
L425.589 376.831
L425.63 376.659
L425.833 373.743
L426.523 358.754
L426.604 354.731
L426.685 295.347
L426.766 298.951
L427.131 338.455
L427.213 362.959
L427.375 383.269
L427.416 383.288
L427.578 382.097
L428.065 376.126
L429.039 364.297
L429.769 356.952
L429.85 353.057
L429.932 295.712
L430.013 300.493
L430.337 346.066
L430.5 380.224
L430.581 381.139
L430.622 381.059
L430.824 379.384
L431.717 371.265
L432.164 369.167
L432.569 368.247
L432.894 367.972
L433.219 367.972
L433.625 368.229
L434.233 368.937
L435.41 370.747
L437.115 373.28
L438.17 374.454
L439.103 375.167
L439.996 375.575
L440.929 375.751
L441.944 375.708
L443.121 375.425
L444.582 374.834
L446.611 373.754
L456.026 368.442
L459.475 366.935
L466.942 363.773
L468.525 362.8
L469.58 361.904
L470.311 361.008
L470.838 360.01
L471.203 358.812
L471.406 357.498
L471.528 355.638
L471.609 349.402
L471.69 296.546
L471.731 298.77
L472.056 349.858
L472.218 376.205
L472.299 376.805
L472.34 376.553
L472.543 373.497
L473.232 358.346
L473.314 352.848
L473.395 295.641
L473.435 297.244
L473.598 313.339
L473.882 348.486
L474.044 383.026
L474.085 383.308
L474.125 383.245
L474.328 381.546
L474.937 373.733
L475.749 364.173
L476.479 356.626
L476.56 350.838
L476.641 295.977
L476.682 298.03
L476.966 336.132
L477.047 350.221
L477.209 380.546
L477.291 381.135
L477.331 381
L477.575 378.827
L478.346 371.708
L478.792 369.403
L479.198 368.35
L479.563 367.983
L479.888 367.963
L480.294 368.205
L480.862 368.845
L481.917 370.442
L483.824 373.297
L484.879 374.466
L485.813 375.175
L486.706 375.579
L487.639 375.752
L488.654 375.706
L489.83 375.421
L491.291 374.828
L493.361 373.723
L502.573 368.513
L506.023 366.996
L513.774 363.7
L515.316 362.731
L516.33 361.848
L517.061 360.925
L517.548 359.977
L517.913 358.748
L518.116 357.363
L518.238 355.244
L518.278 353.257
L518.319 342.571
L518.4 296.971
L518.4 296.971" style="fill:none;stroke:#0000ff;stroke-linecap:square;"/>
   </g>
   <g id="patch_28">
    <path d="
M315.491 287.153
L518.4 287.153" style="fill:none;stroke:#000000;stroke-linecap:square;stroke-linejoin:miter;"/>
   </g>
   <g id="patch_29">
    <path d="
M518.4 388.8
L518.4 287.153" style="fill:none;stroke:#000000;stroke-linecap:square;stroke-linejoin:miter;"/>
   </g>
   <g id="patch_30">
    <path d="
M315.491 388.8
L518.4 388.8" style="fill:none;stroke:#000000;stroke-linecap:square;stroke-linejoin:miter;"/>
   </g>
   <g id="patch_31">
    <path d="
M315.491 388.8
L315.491 287.153" style="fill:none;stroke:#000000;stroke-linecap:square;stroke-linejoin:miter;"/>
   </g>
   <g id="matplotlib.axis_11">
    <g id="text_14">
     <!-- 1 s -->
     <g transform="translate(407.395142045 402.918125)scale(0.12 -0.12)">
      <use xlink:href="#BitstreamVeraSans-Bold-31"/>
      <use x="69.580078125" xlink:href="#BitstreamVeraSans-Bold-20"/>
      <use x="104.39453125" xlink:href="#BitstreamVeraSans-Bold-73"/>
     </g>
    </g>
   </g>
   <g id="matplotlib.axis_12">
    <g id="ytick_11">
     <g id="line2d_27">
      <g>
       <use style="stroke:#000000;stroke-width:0.5;" x="315.490909091" xlink:href="#m728421d6d4" y="374.278991597"/>
      </g>
     </g>
     <g id="line2d_28">
      <g>
       <use style="stroke:#000000;stroke-width:0.5;" x="518.4" xlink:href="#mcb0005524f" y="374.278991597"/>
      </g>
     </g>
     <g id="text_15">
      <!-- −60 -->
      <g transform="translate(288.233409091 377.590241597)scale(0.12 -0.12)">
       <use xlink:href="#BitstreamVeraSans-Roman-2212"/>
       <use x="83.7890625" xlink:href="#BitstreamVeraSans-Roman-36"/>
       <use x="147.412109375" xlink:href="#BitstreamVeraSans-Roman-30"/>
      </g>
     </g>
    </g>
    <g id="ytick_12">
     <g id="line2d_29">
      <g>
       <use style="stroke:#000000;stroke-width:0.5;" x="315.490909091" xlink:href="#m728421d6d4" y="330.715966387"/>
      </g>
     </g>
     <g id="line2d_30">
      <g>
       <use style="stroke:#000000;stroke-width:0.5;" x="518.4" xlink:href="#mcb0005524f" y="330.715966387"/>
      </g>
     </g>
     <g id="text_16">
      <!-- 0 -->
      <g transform="translate(305.444034091 334.027216387)scale(0.12 -0.12)">
       <use xlink:href="#BitstreamVeraSans-Roman-30"/>
      </g>
     </g>
    </g>
   </g>
  </g>
 </g>
 <defs>
  <clipPath id="pf4132cbc21">
   <rect height="101.647058824" width="202.909090909" x="315.490909091" y="165.176470588"/>
  </clipPath>
  <clipPath id="p5df05f4a8e">
   <rect height="101.647058824" width="202.909090909" x="72.0" y="287.152941176"/>
  </clipPath>
  <clipPath id="pdf2bc2c95a">
   <rect height="101.647058824" width="202.909090909" x="72.0" y="43.2"/>
  </clipPath>
  <clipPath id="pbd5a3a9a46">
   <rect height="101.647058824" width="202.909090909" x="315.490909091" y="43.2"/>
  </clipPath>
  <clipPath id="p68273c1835">
   <rect height="101.647058824" width="202.909090909" x="72.0" y="165.176470588"/>
  </clipPath>
  <clipPath id="p8ca55fdb04">
   <rect height="101.647058824" width="202.909090909" x="315.490909091" y="287.152941176"/>
  </clipPath>
 </defs>
</svg>
