<?xml version="1.0" encoding="utf-8" standalone="no"?>
<!DOCTYPE svg PUBLIC "-//W3C//DTD SVG 1.1//EN"
  "http://www.w3.org/Graphics/SVG/1.1/DTD/svg11.dtd">
<!-- Created with matplotlib (http://matplotlib.org/) -->
<svg height="432pt" version="1.1" viewBox="0 0 576 432" width="576pt" xmlns="http://www.w3.org/2000/svg" xmlns:xlink="http://www.w3.org/1999/xlink">
 <defs>
  <style type="text/css">
*{stroke-linecap:butt;stroke-linejoin:round;}
  </style>
 </defs>
 <g id="figure_1">
  <g id="patch_1">
   <path d="
M0 432
L576 432
L576 0
L0 0
z
" style="fill:#ffffff;"/>
  </g>
  <g id="axes_1">
   <g id="patch_2">
    <path d="
M72 144.847
L274.909 144.847
L274.909 43.2
L72 43.2
z
" style="fill:#ffffff;"/>
   </g>
   <g id="line2d_1">
    <path clip-path="url(#pdf2bc2c95a)" d="
M72 126.696
L73.9073 126.074
L77.8438 124.992
L82.2266 124.022
L87.137 123.167
L92.7373 122.422
L99.271 121.783
L107.022 121.257
L116.559 120.841
L128.977 120.535
L146.955 120.333
L181.449 120.21
L274.869 120.024
L274.869 120.024" style="fill:none;stroke:#0000ff;stroke-linecap:square;"/>
   </g>
   <g id="patch_3">
    <path d="
M72 43.2
L274.909 43.2" style="fill:none;stroke:#000000;stroke-linecap:square;stroke-linejoin:miter;"/>
   </g>
   <g id="patch_4">
    <path d="
M274.909 144.847
L274.909 43.2" style="fill:none;stroke:#000000;stroke-linecap:square;stroke-linejoin:miter;"/>
   </g>
   <g id="patch_5">
    <path d="
M72 144.847
L274.909 144.847" style="fill:none;stroke:#000000;stroke-linecap:square;stroke-linejoin:miter;"/>
   </g>
   <g id="patch_6">
    <path d="
M72 144.847
L72 43.2" style="fill:none;stroke:#000000;stroke-linecap:square;stroke-linejoin:miter;"/>
   </g>
   <g id="matplotlib.axis_1"/>
   <g id="matplotlib.axis_2">
    <g id="ytick_1">
     <g id="line2d_2">
      <defs>
       <path d="
M0 0
L4 0" id="m728421d6d4" style="stroke:#000000;stroke-width:0.5;"/>
      </defs>
      <g>
       <use style="stroke:#000000;stroke-width:0.5;" x="72.0" xlink:href="#m728421d6d4" y="130.32605042"/>
      </g>
     </g>
     <g id="line2d_3">
      <defs>
       <path d="
M0 0
L-4 0" id="mcb0005524f" style="stroke:#000000;stroke-width:0.5;"/>
      </defs>
      <g>
       <use style="stroke:#000000;stroke-width:0.5;" x="274.909090909" xlink:href="#mcb0005524f" y="130.32605042"/>
      </g>
     </g>
     <g id="text_1">
      <!-- −60 -->
      <defs>
       <path d="
M10.5938 35.5
L73.1875 35.5
L73.1875 27.2031
L10.5938 27.2031
z
" id="BitstreamVeraSans-Roman-2212"/>
       <path d="
M31.7812 66.4062
Q24.1719 66.4062 20.3281 58.9062
Q16.5 51.4219 16.5 36.375
Q16.5 21.3906 20.3281 13.8906
Q24.1719 6.39062 31.7812 6.39062
Q39.4531 6.39062 43.2812 13.8906
Q47.125 21.3906 47.125 36.375
Q47.125 51.4219 43.2812 58.9062
Q39.4531 66.4062 31.7812 66.4062
M31.7812 74.2188
Q44.0469 74.2188 50.5156 64.5156
Q56.9844 54.8281 56.9844 36.375
Q56.9844 17.9688 50.5156 8.26562
Q44.0469 -1.42188 31.7812 -1.42188
Q19.5312 -1.42188 13.0625 8.26562
Q6.59375 17.9688 6.59375 36.375
Q6.59375 54.8281 13.0625 64.5156
Q19.5312 74.2188 31.7812 74.2188" id="BitstreamVeraSans-Roman-30"/>
       <path d="
M33.0156 40.375
Q26.375 40.375 22.4844 35.8281
Q18.6094 31.2969 18.6094 23.3906
Q18.6094 15.5312 22.4844 10.9531
Q26.375 6.39062 33.0156 6.39062
Q39.6562 6.39062 43.5312 10.9531
Q47.4062 15.5312 47.4062 23.3906
Q47.4062 31.2969 43.5312 35.8281
Q39.6562 40.375 33.0156 40.375
M52.5938 71.2969
L52.5938 62.3125
Q48.875 64.0625 45.0938 64.9844
Q41.3125 65.9219 37.5938 65.9219
Q27.8281 65.9219 22.6719 59.3281
Q17.5312 52.7344 16.7969 39.4062
Q19.6719 43.6562 24.0156 45.9219
Q28.375 48.1875 33.5938 48.1875
Q44.5781 48.1875 50.9531 41.5156
Q57.3281 34.8594 57.3281 23.3906
Q57.3281 12.1562 50.6875 5.35938
Q44.0469 -1.42188 33.0156 -1.42188
Q20.3594 -1.42188 13.6719 8.26562
Q6.98438 17.9688 6.98438 36.375
Q6.98438 53.6562 15.1875 63.9375
Q23.3906 74.2188 37.2031 74.2188
Q40.9219 74.2188 44.7031 73.4844
Q48.4844 72.75 52.5938 71.2969" id="BitstreamVeraSans-Roman-36"/>
      </defs>
      <g transform="translate(44.7425 133.63730042)scale(0.12 -0.12)">
       <use xlink:href="#BitstreamVeraSans-Roman-2212"/>
       <use x="83.7890625" xlink:href="#BitstreamVeraSans-Roman-36"/>
       <use x="147.412109375" xlink:href="#BitstreamVeraSans-Roman-30"/>
      </g>
     </g>
    </g>
    <g id="ytick_2">
     <g id="line2d_4">
      <g>
       <use style="stroke:#000000;stroke-width:0.5;" x="72.0" xlink:href="#m728421d6d4" y="86.7630252101"/>
      </g>
     </g>
     <g id="line2d_5">
      <g>
       <use style="stroke:#000000;stroke-width:0.5;" x="274.909090909" xlink:href="#mcb0005524f" y="86.7630252101"/>
      </g>
     </g>
     <g id="text_2">
      <!-- 0 -->
      <g transform="translate(61.953125 90.0742752101)scale(0.12 -0.12)">
       <use xlink:href="#BitstreamVeraSans-Roman-30"/>
      </g>
     </g>
    </g>
   </g>
   <g id="text_3">
    <!-- soma -->
    <defs>
     <path d="
M51.125 52.9844
L51.125 39.7031
Q45.5156 42.0469 40.2812 43.2188
Q35.0625 44.3906 30.4219 44.3906
Q25.4375 44.3906 23.0156 43.1406
Q20.6094 41.8906 20.6094 39.3125
Q20.6094 37.2031 22.4375 36.0781
Q24.2656 34.9688 29 34.4219
L32.0781 33.9844
Q45.5156 32.2812 50.1406 28.375
Q54.7812 24.4688 54.7812 16.1094
Q54.7812 7.375 48.3281 2.96875
Q41.8906 -1.42188 29.1094 -1.42188
Q23.6875 -1.42188 17.8906 -0.5625
Q12.1094 0.296875 6 2
L6 15.2812
Q11.2344 12.75 16.7188 11.4688
Q22.2188 10.2031 27.875 10.2031
Q33.0156 10.2031 35.5938 11.6094
Q38.1875 13.0312 38.1875 15.8281
Q38.1875 18.1719 36.4062 19.3125
Q34.625 20.4531 29.2969 21.0938
L26.2188 21.4844
Q14.5469 22.9531 9.85938 26.9062
Q5.17188 30.8594 5.17188 38.9219
Q5.17188 47.6094 11.125 51.7969
Q17.0938 56 29.3906 56
Q34.2344 56 39.5469 55.2656
Q44.875 54.5469 51.125 52.9844" id="BitstreamVeraSans-Bold-73"/>
     <path d="
M32.9062 24.6094
Q27.4375 24.6094 24.6719 22.75
Q21.9219 20.9062 21.9219 17.2812
Q21.9219 13.9688 24.1406 12.0781
Q26.375 10.2031 30.3281 10.2031
Q35.25 10.2031 38.625 13.7344
Q42 17.2812 42 22.6094
L42 24.6094
z

M59.625 31.2031
L59.625 0
L42 0
L42 8.10938
Q38.4844 3.125 34.0781 0.84375
Q29.6875 -1.42188 23.3906 -1.42188
Q14.8906 -1.42188 9.59375 3.53125
Q4.29688 8.5 4.29688 16.4062
Q4.29688 26.0312 10.9062 30.5156
Q17.5312 35.0156 31.6875 35.0156
L42 35.0156
L42 36.375
Q42 40.5312 38.7188 42.4531
Q35.4531 44.3906 28.5156 44.3906
Q22.9062 44.3906 18.0625 43.2656
Q13.2344 42.1406 9.07812 39.8906
L9.07812 53.2188
Q14.7031 54.5938 20.3594 55.2969
Q26.0312 56 31.6875 56
Q46.4844 56 53.0469 50.1719
Q59.625 44.3438 59.625 31.2031" id="BitstreamVeraSans-Bold-61"/>
     <path d="
M34.4219 43.5
Q28.6094 43.5 25.5625 39.3281
Q22.5156 35.1562 22.5156 27.2969
Q22.5156 19.4375 25.5625 15.25
Q28.6094 11.0781 34.4219 11.0781
Q40.1406 11.0781 43.1562 15.25
Q46.1875 19.4375 46.1875 27.2969
Q46.1875 35.1562 43.1562 39.3281
Q40.1406 43.5 34.4219 43.5
M34.4219 56
Q48.5312 56 56.4688 48.375
Q64.4062 40.7656 64.4062 27.2969
Q64.4062 13.8125 56.4688 6.1875
Q48.5312 -1.42188 34.4219 -1.42188
Q20.2656 -1.42188 12.2812 6.1875
Q4.29688 13.8125 4.29688 27.2969
Q4.29688 40.7656 12.2812 48.375
Q20.2656 56 34.4219 56" id="BitstreamVeraSans-Bold-6f"/>
     <path d="
M59.0781 45.6094
Q62.4062 50.6875 66.9688 53.3438
Q71.5312 56 77 56
Q86.4219 56 91.3594 50.1875
Q96.2969 44.3906 96.2969 33.2969
L96.2969 0
L78.7188 0
L78.7188 28.5156
Q78.7656 29.1562 78.7812 29.8281
Q78.8125 30.5156 78.8125 31.7812
Q78.8125 37.5938 77.0938 40.2031
Q75.3906 42.8281 71.5781 42.8281
Q66.6094 42.8281 63.8906 38.7188
Q61.1875 34.625 61.0781 26.8594
L61.0781 0
L43.5 0
L43.5 28.5156
Q43.5 37.5938 41.9375 40.2031
Q40.375 42.8281 36.375 42.8281
Q31.3438 42.8281 28.6094 38.7031
Q25.875 34.5781 25.875 26.9062
L25.875 0
L8.29688 0
L8.29688 54.6875
L25.875 54.6875
L25.875 46.6875
Q29.1094 51.3125 33.2812 53.6562
Q37.4531 56 42.4844 56
Q48.1406 56 52.4844 53.2656
Q56.8438 50.5312 59.0781 45.6094" id="BitstreamVeraSans-Bold-6d"/>
    </defs>
    <g transform="translate(152.799545455 38.2)scale(0.144 -0.144)">
     <use xlink:href="#BitstreamVeraSans-Bold-73"/>
     <use x="59.521484375" xlink:href="#BitstreamVeraSans-Bold-6f"/>
     <use x="128.22265625" xlink:href="#BitstreamVeraSans-Bold-6d"/>
     <use x="232.421875" xlink:href="#BitstreamVeraSans-Bold-61"/>
    </g>
   </g>
  </g>
  <g id="axes_2">
   <g id="patch_7">
    <path d="
M315.491 144.847
L518.4 144.847
L518.4 43.2
L315.491 43.2
z
" style="fill:#ffffff;"/>
   </g>
   <g id="line2d_6">
    <path clip-path="url(#pbd5a3a9a46)" d="
M315.491 126.696
L323.688 124.463
L328.355 123.555
L333.631 122.759
L339.718 122.071
L346.861 121.495
L355.505 121.03
L366.421 120.674
L381.355 120.426
L405.542 120.275
L488.451 120.103
L518.359 120.04
L518.359 120.04" style="fill:none;stroke:#0000ff;stroke-linecap:square;"/>
   </g>
   <g id="patch_8">
    <path d="
M315.491 43.2
L518.4 43.2" style="fill:none;stroke:#000000;stroke-linecap:square;stroke-linejoin:miter;"/>
   </g>
   <g id="patch_9">
    <path d="
M518.4 144.847
L518.4 43.2" style="fill:none;stroke:#000000;stroke-linecap:square;stroke-linejoin:miter;"/>
   </g>
   <g id="patch_10">
    <path d="
M315.491 144.847
L518.4 144.847" style="fill:none;stroke:#000000;stroke-linecap:square;stroke-linejoin:miter;"/>
   </g>
   <g id="patch_11">
    <path d="
M315.491 144.847
L315.491 43.2" style="fill:none;stroke:#000000;stroke-linecap:square;stroke-linejoin:miter;"/>
   </g>
   <g id="matplotlib.axis_3"/>
   <g id="matplotlib.axis_4">
    <g id="ytick_3">
     <g id="line2d_7">
      <g>
       <use style="stroke:#000000;stroke-width:0.5;" x="315.490909091" xlink:href="#m728421d6d4" y="130.32605042"/>
      </g>
     </g>
     <g id="line2d_8">
      <g>
       <use style="stroke:#000000;stroke-width:0.5;" x="518.4" xlink:href="#mcb0005524f" y="130.32605042"/>
      </g>
     </g>
     <g id="text_4">
      <!-- −60 -->
      <g transform="translate(288.233409091 133.63730042)scale(0.12 -0.12)">
       <use xlink:href="#BitstreamVeraSans-Roman-2212"/>
       <use x="83.7890625" xlink:href="#BitstreamVeraSans-Roman-36"/>
       <use x="147.412109375" xlink:href="#BitstreamVeraSans-Roman-30"/>
      </g>
     </g>
    </g>
    <g id="ytick_4">
     <g id="line2d_9">
      <g>
       <use style="stroke:#000000;stroke-width:0.5;" x="315.490909091" xlink:href="#m728421d6d4" y="86.7630252101"/>
      </g>
     </g>
     <g id="line2d_10">
      <g>
       <use style="stroke:#000000;stroke-width:0.5;" x="518.4" xlink:href="#mcb0005524f" y="86.7630252101"/>
      </g>
     </g>
     <g id="text_5">
      <!-- 0 -->
      <g transform="translate(305.444034091 90.0742752101)scale(0.12 -0.12)">
       <use xlink:href="#BitstreamVeraSans-Roman-30"/>
      </g>
     </g>
    </g>
   </g>
   <g id="text_6">
    <!-- axon -->
    <defs>
     <path d="
M22.2188 27.9844
L2.48438 54.6875
L21 54.6875
L32.1719 38.4844
L43.5 54.6875
L62.0156 54.6875
L42.2812 28.0781
L62.9844 0
L44.4844 0
L32.1719 17.2812
L20.0156 0
L1.51562 0
z
" id="BitstreamVeraSans-Bold-78"/>
     <path d="
M63.375 33.2969
L63.375 0
L45.7969 0
L45.7969 5.42188
L45.7969 25.4844
Q45.7969 32.5625 45.4844 35.25
Q45.1719 37.9375 44.3906 39.2031
Q43.3594 40.9219 41.5938 41.875
Q39.8438 42.8281 37.5938 42.8281
Q32.125 42.8281 29 38.5938
Q25.875 34.375 25.875 26.9062
L25.875 0
L8.40625 0
L8.40625 54.6875
L25.875 54.6875
L25.875 46.6875
Q29.8281 51.4688 34.2656 53.7344
Q38.7188 56 44.0938 56
Q53.5625 56 58.4688 50.1875
Q63.375 44.3906 63.375 33.2969" id="BitstreamVeraSans-Bold-6e"/>
    </defs>
    <g transform="translate(398.242329545 38.2)scale(0.144 -0.144)">
     <use xlink:href="#BitstreamVeraSans-Bold-61"/>
     <use x="67.48046875" xlink:href="#BitstreamVeraSans-Bold-78"/>
     <use x="131.982421875" xlink:href="#BitstreamVeraSans-Bold-6f"/>
     <use x="200.68359375" xlink:href="#BitstreamVeraSans-Bold-6e"/>
    </g>
   </g>
  </g>
  <g id="axes_3">
   <g id="patch_12">
    <path d="
M72 266.824
L274.909 266.824
L274.909 165.176
L72 165.176
z
" style="fill:#ffffff;"/>
   </g>
   <g id="line2d_11">
    <path clip-path="url(#p68273c1835)" d="
M72.0406 242.621
L74.6378 241.326
L76.1799 240.322
L77.2351 239.378
L77.9655 238.434
L78.4525 237.469
L78.7772 236.368
L78.9395 235.172
L78.9801 234.198
L79.3453 206.763
L79.3859 206.109
L79.4265 206.269
L79.9946 220.329
L80.2787 222.038
L80.4816 222.341
L80.5628 222.209
L80.6033 221.995
L80.6845 215.722
L80.8468 208.917
L80.928 210.077
L81.2121 219.152
L81.4961 230.448
L81.8614 235.241
L82.186 236.993
L82.4295 237.321
L82.5919 237.23
L82.8759 236.717
L83.647 234.657
L83.8499 233.775
L83.9311 232.691
L84.2151 210.879
L84.2557 210.617
L84.2963 210.763
L84.3775 211.979
L85.1485 235.565
L85.5543 239.894
L85.9601 241.965
L86.4065 243.128
L87.1776 244.414
L90.7488 249.71
L91.8445 250.854
L92.8185 251.572
L93.7924 252.016
L94.7664 252.215
L95.8215 252.202
L97.039 251.959
L98.5405 251.419
L100.57 250.435
L105.196 247.856
L109.051 245.86
L113.069 244.052
L118.304 241.689
L120.089 240.626
L121.266 239.678
L122.078 238.752
L122.646 237.78
L123.011 236.758
L123.214 235.689
L123.295 234.592
L123.742 206.126
L123.945 213.579
L124.229 219.376
L124.553 221.872
L124.797 222.367
L124.878 222.267
L124.919 222.1
L124.959 221.441
L125.162 208.939
L125.243 209.825
L125.527 218.485
L125.811 230.221
L126.136 234.781
L126.461 236.83
L126.704 237.307
L126.867 237.282
L127.11 236.92
L127.719 235.392
L128.125 234.075
L128.246 233.031
L128.571 210.649
L128.612 210.689
L128.693 211.72
L128.815 217.481
L129.099 228.404
L129.545 236.536
L129.951 240.371
L130.357 242.201
L130.844 243.345
L131.858 244.963
L134.983 249.602
L136.119 250.813
L137.134 251.571
L138.108 252.018
L139.082 252.219
L140.137 252.208
L141.354 251.966
L142.856 251.427
L144.885 250.443
L149.471 247.883
L153.326 245.882
L157.303 244.086
L162.619 241.685
L164.405 240.619
L165.582 239.668
L166.393 238.737
L166.961 237.754
L167.327 236.71
L167.53 235.581
L167.611 234.033
L167.935 207.77
L168.017 206.086
L168.057 206.332
L168.585 219.995
L168.909 222.089
L169.112 222.387
L169.193 222.254
L169.234 222.037
L169.315 215.739
L169.478 208.944
L169.559 210.104
L169.843 219.187
L170.127 230.465
L170.492 235.251
L170.817 236.999
L171.06 237.326
L171.223 237.233
L171.507 236.72
L172.278 234.661
L172.481 233.782
L172.562 232.718
L172.846 210.893
L172.886 210.625
L172.927 210.766
L173.008 211.974
L173.82 236.147
L174.226 240.186
L174.631 242.113
L175.118 243.296
L176.052 244.797
L179.379 249.72
L180.475 250.866
L181.449 251.584
L182.423 252.027
L183.397 252.225
L184.452 252.212
L185.67 251.967
L187.171 251.425
L189.2 250.439
L193.867 247.831
L197.682 245.853
L201.699 244.041
L206.894 241.69
L208.68 240.625
L209.856 239.674
L210.668 238.746
L211.236 237.767
L211.601 236.731
L211.804 235.626
L211.886 234.294
L212.251 206.802
L212.291 206.125
L212.332 206.243
L212.941 220.72
L213.225 222.214
L213.387 222.412
L213.468 222.296
L213.509 222.107
L213.549 221.093
L213.752 208.954
L213.833 209.969
L214.118 218.818
L214.402 230.346
L214.767 235.202
L215.091 236.983
L215.335 237.327
L215.497 237.242
L215.781 236.736
L216.552 234.683
L216.796 233.516
L216.837 232.927
L217.161 210.64
L217.202 210.724
L217.283 211.827
L217.445 220.083
L217.729 229.476
L218.176 237.123
L218.582 240.659
L218.987 242.35
L219.474 243.437
L220.651 245.294
L223.451 249.468
L224.588 250.717
L225.602 251.511
L226.576 251.989
L227.55 252.217
L228.605 252.229
L229.823 252.006
L231.284 251.499
L233.232 250.572
L236.965 248.491
L241.226 246.211
L245 244.46
L251.534 241.488
L253.157 240.471
L254.253 239.54
L255.024 238.606
L255.552 237.638
L255.917 236.494
L256.079 235.469
L256.16 232.998
L256.444 208.706
L256.566 206.047
L256.607 206.642
L257.053 219.236
L257.378 221.865
L257.621 222.435
L257.702 222.377
L257.784 221.98
L258.027 209.002
L258.068 209.479
L258.352 217.575
L258.676 230.668
L259.042 235.338
L259.366 237.03
L259.61 237.33
L259.772 237.225
L260.056 236.701
L260.827 234.634
L261.03 233.722
L261.111 232.23
L261.395 210.797
L261.436 210.632
L261.436 210.632
L261.436 210.632
L261.517 211.361
L261.598 213.824
L261.923 227.917
L262.369 236.282
L262.775 240.257
L263.181 242.153
L263.668 243.323
L264.642 244.883
L267.888 249.692
L268.984 250.849
L269.958 251.576
L270.932 252.027
L271.906 252.233
L272.961 252.224
L274.179 251.984
L274.869 251.763
L274.869 251.763" style="fill:none;stroke:#0000ff;stroke-linecap:square;"/>
   </g>
   <g id="patch_13">
    <path d="
M72 165.176
L274.909 165.176" style="fill:none;stroke:#000000;stroke-linecap:square;stroke-linejoin:miter;"/>
   </g>
   <g id="patch_14">
    <path d="
M274.909 266.824
L274.909 165.176" style="fill:none;stroke:#000000;stroke-linecap:square;stroke-linejoin:miter;"/>
   </g>
   <g id="patch_15">
    <path d="
M72 266.824
L274.909 266.824" style="fill:none;stroke:#000000;stroke-linecap:square;stroke-linejoin:miter;"/>
   </g>
   <g id="patch_16">
    <path d="
M72 266.824
L72 165.176" style="fill:none;stroke:#000000;stroke-linecap:square;stroke-linejoin:miter;"/>
   </g>
   <g id="matplotlib.axis_5"/>
   <g id="matplotlib.axis_6">
    <g id="ytick_5">
     <g id="line2d_12">
      <g>
       <use style="stroke:#000000;stroke-width:0.5;" x="72.0" xlink:href="#m728421d6d4" y="252.302521008"/>
      </g>
     </g>
     <g id="line2d_13">
      <g>
       <use style="stroke:#000000;stroke-width:0.5;" x="274.909090909" xlink:href="#mcb0005524f" y="252.302521008"/>
      </g>
     </g>
     <g id="text_7">
      <!-- −60 -->
      <g transform="translate(44.7425 255.613771008)scale(0.12 -0.12)">
       <use xlink:href="#BitstreamVeraSans-Roman-2212"/>
       <use x="83.7890625" xlink:href="#BitstreamVeraSans-Roman-36"/>
       <use x="147.412109375" xlink:href="#BitstreamVeraSans-Roman-30"/>
      </g>
     </g>
    </g>
    <g id="ytick_6">
     <g id="line2d_14">
      <g>
       <use style="stroke:#000000;stroke-width:0.5;" x="72.0" xlink:href="#m728421d6d4" y="208.739495798"/>
      </g>
     </g>
     <g id="line2d_15">
      <g>
       <use style="stroke:#000000;stroke-width:0.5;" x="274.909090909" xlink:href="#mcb0005524f" y="208.739495798"/>
      </g>
     </g>
     <g id="text_8">
      <!-- 0 -->
      <g transform="translate(61.953125 212.050745798)scale(0.12 -0.12)">
       <use xlink:href="#BitstreamVeraSans-Roman-30"/>
      </g>
     </g>
    </g>
   </g>
  </g>
  <g id="axes_4">
   <g id="patch_17">
    <path d="
M315.491 266.824
L518.4 266.824
L518.4 165.176
L315.491 165.176
z
" style="fill:#ffffff;"/>
   </g>
   <g id="line2d_16">
    <path clip-path="url(#pf4132cbc21)" d="
M315.531 242.741
L318.048 241.477
L319.549 240.486
L320.564 239.557
L321.254 238.639
L321.741 237.631
L322.065 236.474
L322.268 235.022
L322.39 232.673
L322.43 230.19
L322.552 175.675
L322.633 185.647
L323.08 252.794
L323.12 253.132
L323.161 253.065
L323.323 251.027
L323.932 238.34
L324.054 234.648
L324.094 231.218
L324.175 173.686
L324.216 175.269
L324.378 191.516
L324.703 245.007
L324.865 260.403
L324.906 260.437
L325.028 259.649
L325.474 254.372
L326.448 242.868
L327.341 233.73
L327.381 231.527
L327.463 174.24
L327.584 182.912
L328.152 257.601
L328.274 256.789
L329.37 246.893
L329.776 245.406
L330.141 244.799
L330.466 244.635
L330.831 244.724
L331.318 245.121
L332.129 246.136
L335.011 249.984
L336.066 250.951
L337.04 251.56
L338.014 251.911
L339.028 252.038
L340.165 251.946
L341.504 251.598
L343.208 250.905
L345.724 249.612
L352.867 245.836
L357.087 243.952
L361.632 241.886
L363.377 240.851
L364.554 239.904
L365.366 238.966
L365.934 237.958
L366.299 236.879
L366.543 235.51
L366.705 233.019
L366.746 231.081
L366.786 221.892
L366.867 175.228
L366.908 178.162
L367.476 253.13
L367.517 252.867
L367.72 249.752
L368.369 235.169
L368.41 232.663
L368.491 173.439
L368.572 177.1
L368.937 216.886
L369.018 240.193
L369.181 260.342
L369.221 260.463
L369.262 260.339
L369.465 258.536
L371.697 232.407
L371.737 225.974
L371.818 174.412
L371.859 176.839
L372.184 221.029
L372.387 257.025
L372.468 257.633
L372.508 257.507
L372.711 255.657
L373.482 248.169
L373.929 245.93
L374.294 245.03
L374.619 244.696
L374.943 244.651
L375.349 244.856
L375.917 245.433
L377.013 246.937
L378.92 249.521
L380.057 250.683
L381.071 251.41
L382.045 251.836
L383.019 252.026
L384.115 252.005
L385.373 251.745
L386.915 251.185
L389.066 250.143
L399.333 244.851
L406.719 241.458
L408.18 240.489
L409.194 239.559
L409.884 238.638
L410.371 237.628
L410.696 236.464
L410.899 234.994
L411.021 232.562
L411.061 229.856
L411.142 175.677
L411.223 179.721
L411.751 253.18
L411.792 253.089
L411.954 251.016
L412.563 238.333
L412.684 234.639
L412.725 231.183
L412.806 173.69
L412.847 175.278
L413.009 191.543
L413.334 245.154
L413.496 260.423
L413.537 260.454
L413.658 259.662
L414.105 254.387
L415.079 242.88
L415.971 233.756
L416.012 231.584
L416.093 174.265
L416.215 182.823
L416.783 257.63
L416.905 256.82
L418.001 246.921
L418.406 245.429
L418.772 244.817
L419.096 244.65
L419.462 244.737
L419.949 245.131
L420.72 246.089
L423.723 250.08
L424.778 251.024
L425.752 251.61
L426.726 251.941
L427.74 252.049
L428.877 251.94
L430.216 251.578
L431.92 250.872
L434.477 249.547
L441.295 245.926
L445.393 244.081
L450.263 241.866
L452.008 240.822
L453.144 239.901
L453.956 238.959
L454.524 237.944
L454.889 236.851
L455.133 235.444
L455.255 233.849
L455.336 230.383
L455.458 175.571
L455.539 185.316
L455.985 252.829
L456.026 253.188
L456.066 253.135
L456.229 251.12
L456.837 238.475
L457 232.067
L457.081 173.542
L457.162 177.504
L457.527 217.508
L457.811 260.473
L457.852 260.326
L458.095 258.032
L459.8 239.215
L460.165 235.7
L460.287 232.104
L460.327 223.339
L460.409 174.588
L460.449 177.243
L460.774 221.831
L460.977 257.145
L461.058 257.656
L461.098 257.51
L461.342 255.176
L462.032 248.444
L462.478 246.08
L462.884 245.041
L463.209 244.709
L463.533 244.665
L463.939 244.872
L464.507 245.449
L465.603 246.953
L467.51 249.537
L468.647 250.698
L469.661 251.424
L470.635 251.848
L471.609 252.036
L472.705 252.013
L473.963 251.751
L475.505 251.188
L477.656 250.143
L487.882 244.858
L495.268 241.456
L496.729 240.484
L497.744 239.55
L498.434 238.622
L498.921 237.599
L499.245 236.406
L499.448 234.854
L499.57 232.013
L499.611 227.86
L499.692 175.017
L499.732 176.723
L500.057 227.13
L500.219 252.346
L500.301 253.224
L500.341 253.048
L500.544 250.1
L501.193 235.893
L501.274 228.967
L501.315 173.698
L501.396 175.822
L501.599 197.937
L501.843 230.551
L502.005 260.163
L502.046 260.474
L502.127 260.24
L502.411 257.373
L503.912 240.376
L504.44 235.454
L504.521 233.426
L504.562 230.67
L504.643 173.996
L504.724 178.798
L505.089 240.155
L505.251 257.393
L505.292 257.662
L505.333 257.632
L505.495 256.353
L506.428 247.564
L506.834 245.763
L507.199 244.966
L507.524 244.692
L507.849 244.686
L508.255 244.922
L508.863 245.572
L510.121 247.334
L511.826 249.608
L512.962 250.752
L513.977 251.461
L514.951 251.871
L515.965 252.048
L517.061 252.006
L518.319 251.726
L518.359 251.714
L518.359 251.714" style="fill:none;stroke:#0000ff;stroke-linecap:square;"/>
   </g>
   <g id="patch_18">
    <path d="
M315.491 165.176
L518.4 165.176" style="fill:none;stroke:#000000;stroke-linecap:square;stroke-linejoin:miter;"/>
   </g>
   <g id="patch_19">
    <path d="
M518.4 266.824
L518.4 165.176" style="fill:none;stroke:#000000;stroke-linecap:square;stroke-linejoin:miter;"/>
   </g>
   <g id="patch_20">
    <path d="
M315.491 266.824
L518.4 266.824" style="fill:none;stroke:#000000;stroke-linecap:square;stroke-linejoin:miter;"/>
   </g>
   <g id="patch_21">
    <path d="
M315.491 266.824
L315.491 165.176" style="fill:none;stroke:#000000;stroke-linecap:square;stroke-linejoin:miter;"/>
   </g>
   <g id="matplotlib.axis_7"/>
   <g id="matplotlib.axis_8">
    <g id="ytick_7">
     <g id="line2d_17">
      <g>
       <use style="stroke:#000000;stroke-width:0.5;" x="315.490909091" xlink:href="#m728421d6d4" y="252.302521008"/>
      </g>
     </g>
     <g id="line2d_18">
      <g>
       <use style="stroke:#000000;stroke-width:0.5;" x="518.4" xlink:href="#mcb0005524f" y="252.302521008"/>
      </g>
     </g>
     <g id="text_9">
      <!-- −60 -->
      <g transform="translate(288.233409091 255.613771008)scale(0.12 -0.12)">
       <use xlink:href="#BitstreamVeraSans-Roman-2212"/>
       <use x="83.7890625" xlink:href="#BitstreamVeraSans-Roman-36"/>
       <use x="147.412109375" xlink:href="#BitstreamVeraSans-Roman-30"/>
      </g>
     </g>
    </g>
    <g id="ytick_8">
     <g id="line2d_19">
      <g>
       <use style="stroke:#000000;stroke-width:0.5;" x="315.490909091" xlink:href="#m728421d6d4" y="208.739495798"/>
      </g>
     </g>
     <g id="line2d_20">
      <g>
       <use style="stroke:#000000;stroke-width:0.5;" x="518.4" xlink:href="#mcb0005524f" y="208.739495798"/>
      </g>
     </g>
     <g id="text_10">
      <!-- 0 -->
      <g transform="translate(305.444034091 212.050745798)scale(0.12 -0.12)">
       <use xlink:href="#BitstreamVeraSans-Roman-30"/>
      </g>
     </g>
    </g>
   </g>
  </g>
  <g id="axes_5">
   <g id="patch_22">
    <path d="
M72 388.8
L274.909 388.8
L274.909 287.153
L72 287.153
z
" style="fill:#ffffff;"/>
   </g>
   <g id="line2d_21">
    <path clip-path="url(#p5df05f4a8e)" d="
M72.0406 362.125
L72.974 361.19
L73.6233 360.241
L74.0697 359.209
L74.3537 357.962
L74.4349 357.16
L74.5161 350.645
L74.7596 330.871
L74.8813 328.083
L74.9219 328.63
L75.3683 341.941
L75.6929 344.81
L75.9364 345.585
L76.0582 345.598
L76.1393 345.393
L76.1799 345.084
L76.4234 331.587
L76.464 332.002
L76.7481 339.992
L77.0727 352.929
L77.438 357.463
L77.7626 359.099
L77.9655 359.373
L78.1279 359.31
L78.3713 358.914
L79.1018 357.054
L79.4265 355.868
L79.5076 354.97
L79.8323 332.785
L79.9135 333.319
L79.9946 335.302
L80.3599 350.801
L80.8063 358.875
L81.2121 362.677
L81.6179 364.482
L82.1049 365.601
L83.16 367.246
L86.5283 372.208
L87.5834 373.272
L88.5574 373.945
L89.4908 374.323
L90.4647 374.473
L91.5199 374.406
L92.7373 374.099
L94.2794 373.467
L96.4303 372.318
L105.642 367.13
L114.327 362.778
L115.544 361.798
L116.356 360.879
L116.924 359.926
L117.33 358.792
L117.533 357.646
L117.614 355.759
L117.898 330.906
L118.02 328.084
L118.06 328.604
L118.507 341.929
L118.831 344.806
L119.075 345.584
L119.197 345.601
L119.278 345.399
L119.318 345.098
L119.562 331.584
L119.602 331.987
L119.887 339.949
L120.211 352.911
L120.576 357.455
L120.901 359.097
L121.104 359.373
L121.266 359.311
L121.51 358.916
L122.2 357.168
L122.565 355.875
L122.646 354.996
L122.971 332.787
L123.011 332.889
L123.133 335.258
L123.539 351.719
L123.985 359.378
L124.391 362.917
L124.797 364.601
L125.284 365.672
L126.501 367.557
L129.464 371.964
L130.56 373.13
L131.534 373.853
L132.467 374.275
L133.441 374.464
L134.496 374.43
L135.713 374.152
L137.215 373.562
L139.244 372.504
L149.795 366.644
L156.735 363.252
L158.196 362.228
L159.17 361.287
L159.86 360.316
L160.306 359.332
L160.59 358.224
L160.712 357.175
L160.793 350.774
L161.037 330.907
L161.158 328.084
L161.199 328.603
L161.645 341.929
L161.97 344.807
L162.213 345.585
L162.335 345.602
L162.416 345.4
L162.457 345.1
L162.7 331.584
L162.741 331.985
L163.025 339.944
L163.35 352.909
L163.715 357.455
L164.04 359.097
L164.242 359.373
L164.405 359.311
L164.648 358.917
L165.338 357.168
L165.703 355.875
L165.785 354.999
L166.109 332.787
L166.15 332.888
L166.272 335.254
L166.677 351.716
L167.124 359.377
L167.53 362.917
L167.935 364.601
L168.422 365.672
L169.64 367.557
L172.602 371.964
L173.698 373.13
L174.672 373.853
L175.605 374.275
L176.579 374.464
L177.634 374.43
L178.852 374.152
L180.353 373.562
L182.383 372.504
L192.934 366.644
L199.873 363.251
L201.334 362.228
L202.308 361.286
L202.998 360.314
L203.445 359.33
L203.729 358.219
L203.85 357.163
L203.931 350.665
L204.175 330.877
L204.297 328.083
L204.337 328.626
L204.784 341.941
L205.108 344.812
L205.352 345.587
L205.474 345.602
L205.555 345.398
L205.595 345.091
L205.839 331.587
L205.879 331.998
L206.163 339.978
L206.488 352.923
L206.853 357.461
L207.178 359.099
L207.381 359.373
L207.543 359.311
L207.787 358.915
L208.517 357.056
L208.842 355.871
L208.923 354.98
L209.248 332.786
L209.288 332.893
L209.41 335.286
L209.775 350.793
L210.222 358.871
L210.627 362.675
L211.033 364.482
L211.52 365.601
L212.575 367.246
L215.944 372.208
L216.999 373.272
L217.973 373.945
L218.906 374.324
L219.88 374.474
L220.935 374.406
L222.153 374.1
L223.695 373.467
L225.846 372.318
L235.058 367.13
L243.742 362.776
L244.96 361.796
L245.771 360.876
L246.339 359.921
L246.745 358.783
L246.948 357.624
L247.029 355.545
L247.313 330.815
L247.435 328.082
L247.476 328.675
L247.922 341.963
L248.247 344.822
L248.49 345.59
L248.612 345.601
L248.693 345.391
L248.734 345.07
L248.977 331.593
L249.018 332.024
L249.302 340.051
L249.627 352.954
L249.992 357.474
L250.317 359.103
L250.519 359.374
L250.682 359.309
L250.966 358.823
L251.777 356.698
L252.021 355.551
L252.062 354.936
L252.386 332.783
L252.467 333.337
L252.549 335.358
L252.914 350.831
L253.36 358.892
L253.766 362.686
L254.172 364.487
L254.659 365.604
L255.714 367.248
L259.082 372.21
L260.137 373.274
L261.111 373.947
L262.045 374.324
L263.019 374.474
L264.074 374.406
L265.291 374.099
L266.833 373.466
L268.984 372.318
L274.909 368.837
L274.909 368.837" style="fill:none;stroke:#0000ff;stroke-linecap:square;"/>
   </g>
   <g id="patch_23">
    <path d="
M72 287.153
L274.909 287.153" style="fill:none;stroke:#000000;stroke-linecap:square;stroke-linejoin:miter;"/>
   </g>
   <g id="patch_24">
    <path d="
M274.909 388.8
L274.909 287.153" style="fill:none;stroke:#000000;stroke-linecap:square;stroke-linejoin:miter;"/>
   </g>
   <g id="patch_25">
    <path d="
M72 388.8
L274.909 388.8" style="fill:none;stroke:#000000;stroke-linecap:square;stroke-linejoin:miter;"/>
   </g>
   <g id="patch_26">
    <path d="
M72 388.8
L72 287.153" style="fill:none;stroke:#000000;stroke-linecap:square;stroke-linejoin:miter;"/>
   </g>
   <g id="matplotlib.axis_9">
    <g id="text_11">
     <!-- 1 s -->
     <defs>
      <path d="
M11.7188 12.9844
L28.3281 12.9844
L28.3281 60.1094
L11.2812 56.5938
L11.2812 69.3906
L28.2188 72.9062
L46.0938 72.9062
L46.0938 12.9844
L62.7031 12.9844
L62.7031 0
L11.7188 0
z
" id="BitstreamVeraSans-Bold-31"/>
      <path id="BitstreamVeraSans-Bold-20"/>
     </defs>
     <g transform="translate(163.904232955 402.918125)scale(0.12 -0.12)">
      <use xlink:href="#BitstreamVeraSans-Bold-31"/>
      <use x="69.580078125" xlink:href="#BitstreamVeraSans-Bold-20"/>
      <use x="104.39453125" xlink:href="#BitstreamVeraSans-Bold-73"/>
     </g>
    </g>
   </g>
   <g id="matplotlib.axis_10">
    <g id="ytick_9">
     <g id="line2d_22">
      <g>
       <use style="stroke:#000000;stroke-width:0.5;" x="72.0" xlink:href="#m728421d6d4" y="374.278991597"/>
      </g>
     </g>
     <g id="line2d_23">
      <g>
       <use style="stroke:#000000;stroke-width:0.5;" x="274.909090909" xlink:href="#mcb0005524f" y="374.278991597"/>
      </g>
     </g>
     <g id="text_12">
      <!-- −60 -->
      <g transform="translate(44.7425 377.590241597)scale(0.12 -0.12)">
       <use xlink:href="#BitstreamVeraSans-Roman-2212"/>
       <use x="83.7890625" xlink:href="#BitstreamVeraSans-Roman-36"/>
       <use x="147.412109375" xlink:href="#BitstreamVeraSans-Roman-30"/>
      </g>
     </g>
    </g>
    <g id="ytick_10">
     <g id="line2d_24">
      <g>
       <use style="stroke:#000000;stroke-width:0.5;" x="72.0" xlink:href="#m728421d6d4" y="330.715966387"/>
      </g>
     </g>
     <g id="line2d_25">
      <g>
       <use style="stroke:#000000;stroke-width:0.5;" x="274.909090909" xlink:href="#mcb0005524f" y="330.715966387"/>
      </g>
     </g>
     <g id="text_13">
      <!-- 0 -->
      <g transform="translate(61.953125 334.027216387)scale(0.12 -0.12)">
       <use xlink:href="#BitstreamVeraSans-Roman-30"/>
      </g>
     </g>
    </g>
   </g>
  </g>
  <g id="axes_6">
   <g id="patch_27">
    <path d="
M315.491 388.8
L518.4 388.8
L518.4 287.153
L315.491 287.153
z
" style="fill:#ffffff;"/>
   </g>
   <g id="line2d_26">
    <path clip-path="url(#p8ca55fdb04)" d="
M315.531 362.184
L316.384 361.264
L316.992 360.283
L317.398 359.216
L317.682 357.795
L317.845 355.73
L317.926 351.176
L318.007 296.822
L318.088 302.431
L318.616 376.192
L318.697 375.688
L318.981 370.898
L319.63 356.094
L319.671 350.711
L319.711 295.47
L319.793 297.769
L319.995 320.068
L320.239 354.665
L320.401 382.643
L320.442 382.859
L320.482 382.78
L320.685 381.079
L321.375 372.395
L322.106 364.335
L322.877 357.085
L322.958 354.176
L322.999 344.814
L323.039 296.476
L323.12 299.189
L323.445 343.686
L323.648 379.909
L323.729 380.303
L323.77 380.131
L324.013 377.793
L324.744 370.789
L325.19 368.452
L325.596 367.396
L325.961 367.02
L326.286 366.983
L326.691 367.192
L327.26 367.769
L328.315 369.22
L330.263 371.875
L331.358 372.993
L332.332 373.684
L333.266 374.086
L334.24 374.264
L335.295 374.224
L336.512 373.947
L338.014 373.366
L340.083 372.305
L350.554 366.594
L356.722 363.583
L358.224 362.563
L359.238 361.611
L359.928 360.663
L360.415 359.603
L360.74 358.33
L360.943 356.514
L361.024 354.484
L361.064 351.316
L361.145 296.854
L361.227 302.303
L361.754 376.193
L361.835 375.699
L362.119 370.917
L362.769 356.152
L362.809 351.039
L362.85 295.56
L362.931 297.71
L363.134 319.945
L363.377 354.143
L363.54 382.633
L363.58 382.859
L363.621 382.784
L363.824 381.09
L364.514 372.408
L365.244 364.344
L366.015 357.105
L366.096 354.246
L366.137 345.565
L366.218 296.474
L366.259 299.099
L366.583 343.504
L366.786 379.893
L366.867 380.306
L366.908 380.137
L367.152 377.805
L367.882 370.796
L368.328 368.456
L368.734 367.398
L369.099 367.021
L369.424 366.983
L369.83 367.191
L370.398 367.768
L371.453 369.219
L373.401 371.874
L374.497 372.992
L375.471 373.684
L376.404 374.086
L377.378 374.264
L378.433 374.224
L379.651 373.948
L381.152 373.367
L383.222 372.306
L393.692 366.594
L399.861 363.583
L401.362 362.563
L402.377 361.611
L403.066 360.663
L403.553 359.604
L403.878 358.33
L404.081 356.515
L404.162 354.486
L404.203 351.323
L404.284 296.856
L404.365 302.297
L404.893 376.194
L404.974 375.7
L405.258 370.919
L405.907 356.158
L405.948 351.073
L405.988 295.572
L406.07 297.704
L406.272 319.932
L406.516 354.088
L406.678 382.632
L406.719 382.859
L406.759 382.785
L406.962 381.091
L407.652 372.41
L408.383 364.345
L409.154 357.107
L409.235 354.254
L409.275 345.648
L409.357 296.469
L409.397 299.089
L409.722 343.482
L409.925 379.892
L410.006 380.307
L410.047 380.138
L410.29 377.806
L411.021 370.798
L411.467 368.457
L411.873 367.399
L412.238 367.021
L412.563 366.984
L412.968 367.191
L413.537 367.768
L414.592 369.219
L416.54 371.874
L417.635 372.992
L418.609 373.684
L419.543 374.087
L420.517 374.264
L421.572 374.225
L422.789 373.948
L424.291 373.367
L426.36 372.306
L436.831 366.594
L442.999 363.583
L444.501 362.563
L445.515 361.61
L446.205 360.661
L446.692 359.601
L447.017 358.326
L447.219 356.502
L447.301 354.45
L447.341 351.199
L447.422 296.826
L447.504 302.41
L448.031 376.195
L448.112 375.692
L448.396 370.904
L449.046 356.114
L449.086 350.826
L449.127 295.498
L449.208 297.749
L449.411 320.026
L449.654 354.491
L449.817 382.641
L449.857 382.86
L449.898 382.782
L450.101 381.083
L450.791 372.401
L451.521 364.338
L452.292 357.092
L452.373 354.202
L452.414 345.099
L452.495 296.5
L452.536 299.155
L452.86 343.618
L453.063 379.905
L453.144 380.306
L453.185 380.134
L453.429 377.799
L454.159 370.793
L454.605 368.455
L455.011 367.398
L455.376 367.021
L455.701 366.984
L456.107 367.192
L456.675 367.769
L457.73 369.22
L459.678 371.876
L460.774 372.993
L461.748 373.685
L462.681 374.087
L463.655 374.264
L464.71 374.225
L465.928 373.948
L467.429 373.366
L469.499 372.305
L479.969 366.593
L486.137 363.582
L487.639 362.562
L488.654 361.608
L489.343 360.659
L489.83 359.597
L490.155 358.317
L490.358 356.476
L490.439 354.376
L490.48 350.93
L490.561 296.779
L490.642 302.645
L491.17 376.195
L491.251 375.675
L491.535 370.871
L492.184 356.017
L492.225 350.243
L492.265 295.386
L492.346 297.845
L492.549 320.226
L492.793 355.356
L492.955 382.659
L492.996 382.862
L493.036 382.776
L493.239 381.067
L493.929 372.38
L494.66 364.324
L495.431 357.06
L495.512 354.086
L495.552 343.76
L495.593 296.329
L495.674 299.3
L495.999 343.916
L496.202 379.93
L496.283 380.303
L496.323 380.126
L496.567 377.781
L497.297 370.782
L497.744 368.449
L498.15 367.395
L498.515 367.021
L498.84 366.985
L499.245 367.194
L499.814 367.771
L500.869 369.222
L502.817 371.878
L503.912 372.994
L504.886 373.686
L505.82 374.088
L506.794 374.264
L507.849 374.225
L509.066 373.948
L510.568 373.366
L512.637 372.305
L518.4 368.979
L518.4 368.979" style="fill:none;stroke:#0000ff;stroke-linecap:square;"/>
   </g>
   <g id="patch_28">
    <path d="
M315.491 287.153
L518.4 287.153" style="fill:none;stroke:#000000;stroke-linecap:square;stroke-linejoin:miter;"/>
   </g>
   <g id="patch_29">
    <path d="
M518.4 388.8
L518.4 287.153" style="fill:none;stroke:#000000;stroke-linecap:square;stroke-linejoin:miter;"/>
   </g>
   <g id="patch_30">
    <path d="
M315.491 388.8
L518.4 388.8" style="fill:none;stroke:#000000;stroke-linecap:square;stroke-linejoin:miter;"/>
   </g>
   <g id="patch_31">
    <path d="
M315.491 388.8
L315.491 287.153" style="fill:none;stroke:#000000;stroke-linecap:square;stroke-linejoin:miter;"/>
   </g>
   <g id="matplotlib.axis_11">
    <g id="text_14">
     <!-- 1 s -->
     <g transform="translate(407.395142045 402.918125)scale(0.12 -0.12)">
      <use xlink:href="#BitstreamVeraSans-Bold-31"/>
      <use x="69.580078125" xlink:href="#BitstreamVeraSans-Bold-20"/>
      <use x="104.39453125" xlink:href="#BitstreamVeraSans-Bold-73"/>
     </g>
    </g>
   </g>
   <g id="matplotlib.axis_12">
    <g id="ytick_11">
     <g id="line2d_27">
      <g>
       <use style="stroke:#000000;stroke-width:0.5;" x="315.490909091" xlink:href="#m728421d6d4" y="374.278991597"/>
      </g>
     </g>
     <g id="line2d_28">
      <g>
       <use style="stroke:#000000;stroke-width:0.5;" x="518.4" xlink:href="#mcb0005524f" y="374.278991597"/>
      </g>
     </g>
     <g id="text_15">
      <!-- −60 -->
      <g transform="translate(288.233409091 377.590241597)scale(0.12 -0.12)">
       <use xlink:href="#BitstreamVeraSans-Roman-2212"/>
       <use x="83.7890625" xlink:href="#BitstreamVeraSans-Roman-36"/>
       <use x="147.412109375" xlink:href="#BitstreamVeraSans-Roman-30"/>
      </g>
     </g>
    </g>
    <g id="ytick_12">
     <g id="line2d_29">
      <g>
       <use style="stroke:#000000;stroke-width:0.5;" x="315.490909091" xlink:href="#m728421d6d4" y="330.715966387"/>
      </g>
     </g>
     <g id="line2d_30">
      <g>
       <use style="stroke:#000000;stroke-width:0.5;" x="518.4" xlink:href="#mcb0005524f" y="330.715966387"/>
      </g>
     </g>
     <g id="text_16">
      <!-- 0 -->
      <g transform="translate(305.444034091 334.027216387)scale(0.12 -0.12)">
       <use xlink:href="#BitstreamVeraSans-Roman-30"/>
      </g>
     </g>
    </g>
   </g>
  </g>
 </g>
 <defs>
  <clipPath id="pf4132cbc21">
   <rect height="101.647058824" width="202.909090909" x="315.490909091" y="165.176470588"/>
  </clipPath>
  <clipPath id="p5df05f4a8e">
   <rect height="101.647058824" width="202.909090909" x="72.0" y="287.152941176"/>
  </clipPath>
  <clipPath id="pdf2bc2c95a">
   <rect height="101.647058824" width="202.909090909" x="72.0" y="43.2"/>
  </clipPath>
  <clipPath id="pbd5a3a9a46">
   <rect height="101.647058824" width="202.909090909" x="315.490909091" y="43.2"/>
  </clipPath>
  <clipPath id="p68273c1835">
   <rect height="101.647058824" width="202.909090909" x="72.0" y="165.176470588"/>
  </clipPath>
  <clipPath id="p8ca55fdb04">
   <rect height="101.647058824" width="202.909090909" x="315.490909091" y="287.152941176"/>
  </clipPath>
 </defs>
</svg>
